  0
SECTION
  2
HEADER
  9
$ACADVER
  1
AC1024
  9
$ACADMAINTVER
 70
6
  9
$DWGCODEPAGE
  3
ANSI_1252
  9
$LASTSAVEDBY
  1
ezdxf
  9
$INSBASE
 10
0.0
 20
0.0
 30
0.0
  9
$EXTMIN
 10
1e+20
 20
1e+20
 30
1e+20
  9
$EXTMAX
 10
-1e+20
 20
-1e+20
 30
-1e+20
  9
$LIMMIN
 10
0.0
 20
0.0
  9
$LIMMAX
 10
420.0
 20
297.0
  9
$ORTHOMODE
 70
0
  9
$REGENMODE
 70
1
  9
$FILLMODE
 70
1
  9
$QTEXTMODE
 70
0
  9
$MIRRTEXT
 70
1
  9
$LTSCALE
 40
1.0
  9
$ATTMODE
 70
1
  9
$TEXTSIZE
 40
2.5
  9
$TRACEWID
 40
1.0
  9
$TEXTSTYLE
  7
OpenSans
  9
$CLAYER
  8
0
  9
$CELTYPE
  6
ByLayer
  9
$CECOLOR
 62
256
  9
$CELTSCALE
 40
1.0
  9
$DISPSILH
 70
0
  9
$DIMSCALE
 40
1.0
  9
$DIMASZ
 40
0.175
  9
$DIMEXO
 40
0.125
  9
$DIMDLI
 40
3.75
  9
$DIMRND
 40
0.0
  9
$DIMDLE
 40
0.0
  9
$DIMEXE
 40
0.375
  9
$DIMTP
 40
0.0
  9
$DIMTM
 40
0.0
  9
$DIMTXT
 40
0.25
  9
$DIMCEN
 40
2.5
  9
$DIMTSZ
 40
0.0
  9
$DIMTOL
 70
0
  9
$DIMLIM
 70
0
  9
$DIMTIH
 70
0
  9
$DIMTOH
 70
0
  9
$DIMSE1
 70
0
  9
$DIMSE2
 70
0
  9
$DIMTAD
 70
1
  9
$DIMZIN
 70
12
  9
$DIMBLK
  1
ARCHTICK
  9
$DIMASO
 70
1
  9
$DIMSHO
 70
1
  9
$DIMPOST
  1

  9
$DIMAPOST
  1

  9
$DIMALT
 70
0
  9
$DIMALTD
 70
3
  9
$DIMALTF
 40
0.03937007874
  9
$DIMLFAC
 40
100.0
  9
$DIMTOFL
 70
1
  9
$DIMTVP
 40
0.0
  9
$DIMTIX
 70
0
  9
$DIMSOXD
 70
0
  9
$DIMSAH
 70
0
  9
$DIMBLK1
  1

  9
$DIMBLK2
  1

  9
$DIMSTYLE
  2
EZDXF
  9
$DIMCLRD
 70
0
  9
$DIMCLRE
 70
0
  9
$DIMCLRT
 70
0
  9
$DIMTFAC
 40
0.5
  9
$DIMGAP
 40
0.1
  9
$DIMJUST
 70
0
  9
$DIMSD1
 70
0
  9
$DIMSD2
 70
0
  9
$DIMTOLJ
 70
0
  9
$DIMTZIN
 70
8
  9
$DIMALTZ
 70
0
  9
$DIMALTTZ
 70
0
  9
$DIMUPT
 70
1
  9
$DIMDEC
 70
2
  9
$DIMTDEC
 70
2
  9
$DIMALTU
 70
2
  9
$DIMALTTD
 70
3
  9
$DIMTXSTY
  7
OpenSansCondensed-Light
  9
$DIMAUNIT
 70
0
  9
$DIMADEC
 70
2
  9
$DIMALTRND
 40
0.0
  9
$DIMAZIN
 70
3
  9
$DIMDSEP
 70
46
  9
$DIMATFIT
 70
3
  9
$DIMFRAC
 70
0
  9
$DIMLDRBLK
  1

  9
$DIMLUNIT
 70
2
  9
$DIMLWD
 70
-2
  9
$DIMLWE
 70
-2
  9
$DIMTMOVE
 70
2
  9
$DIMFXL
 40
1.0
  9
$DIMFXLON
 70
0
  9
$DIMJOGANG
 40
0.785398163397
  9
$DIMTFILL
 70
0
  9
$DIMTFILLCLR
 70
0
  9
$DIMARCSYM
 70
0
  9
$DIMLTYPE
  6

  9
$DIMLTEX1
  6

  9
$DIMLTEX2
  6

  9
$DIMTXTDIRECTION
 70
0
  9
$LUNITS
 70
2
  9
$LUPREC
 70
4
  9
$SKETCHINC
 40
1.0
  9
$FILLETRAD
 40
10.0
  9
$AUNITS
 70
0
  9
$AUPREC
 70
2
  9
$MENU
  1
.
  9
$ELEVATION
 40
0.0
  9
$PELEVATION
 40
0.0
  9
$THICKNESS
 40
0.0
  9
$LIMCHECK
 70
0
  9
$CHAMFERA
 40
0.0
  9
$CHAMFERB
 40
0.0
  9
$CHAMFERC
 40
0.0
  9
$CHAMFERD
 40
0.0
  9
$SKPOLY
 70
0
  9
$TDCREATE
 40
2461308.5883217594
  9
$TDUCREATE
 40
2458532.153996898
  9
$TDUPDATE
 40
2461308.5883217594
  9
$TDUUPDATE
 40
2458532.1544311
  9
$TDINDWG
 40
0.0
  9
$TDUSRTIMER
 40
0.0
  9
$USRTIMER
 70
1
  9
$ANGBASE
 50
0.0
  9
$ANGDIR
 70
0
  9
$PDMODE
 70
0
  9
$PDSIZE
 40
0.0
  9
$PLINEWID
 40
0.0
  9
$SPLFRAME
 70
0
  9
$SPLINETYPE
 70
6
  9
$SPLINESEGS
 70
8
  9
$HANDSEED
  5
315
  9
$SURFTAB1
 70
6
  9
$SURFTAB2
 70
6
  9
$SURFTYPE
 70
6
  9
$SURFU
 70
6
  9
$SURFV
 70
6
  9
$UCSBASE
  2

  9
$UCSNAME
  2

  9
$UCSORG
 10
0.0
 20
0.0
 30
0.0
  9
$UCSXDIR
 10
1.0
 20
0.0
 30
0.0
  9
$UCSYDIR
 10
0.0
 20
1.0
 30
0.0
  9
$UCSORTHOREF
  2

  9
$UCSORTHOVIEW
 70
0
  9
$UCSORGTOP
 10
0.0
 20
0.0
 30
0.0
  9
$UCSORGBOTTOM
 10
0.0
 20
0.0
 30
0.0
  9
$UCSORGLEFT
 10
0.0
 20
0.0
 30
0.0
  9
$UCSORGRIGHT
 10
0.0
 20
0.0
 30
0.0
  9
$UCSORGFRONT
 10
0.0
 20
0.0
 30
0.0
  9
$UCSORGBACK
 10
0.0
 20
0.0
 30
0.0
  9
$PUCSBASE
  2

  9
$PUCSNAME
  2

  9
$PUCSORG
 10
0.0
 20
0.0
 30
0.0
  9
$PUCSXDIR
 10
1.0
 20
0.0
 30
0.0
  9
$PUCSYDIR
 10
0.0
 20
1.0
 30
0.0
  9
$PUCSORTHOREF
  2

  9
$PUCSORTHOVIEW
 70
0
  9
$PUCSORGTOP
 10
0.0
 20
0.0
 30
0.0
  9
$PUCSORGBOTTOM
 10
0.0
 20
0.0
 30
0.0
  9
$PUCSORGLEFT
 10
0.0
 20
0.0
 30
0.0
  9
$PUCSORGRIGHT
 10
0.0
 20
0.0
 30
0.0
  9
$PUCSORGFRONT
 10
0.0
 20
0.0
 30
0.0
  9
$PUCSORGBACK
 10
0.0
 20
0.0
 30
0.0
  9
$USERI1
 70
0
  9
$USERI2
 70
0
  9
$USERI3
 70
0
  9
$USERI4
 70
0
  9
$USERI5
 70
0
  9
$USERR1
 40
0.0
  9
$USERR2
 40
0.0
  9
$USERR3
 40
0.0
  9
$USERR4
 40
0.0
  9
$USERR5
 40
0.0
  9
$WORLDVIEW
 70
1
  9
$SHADEDGE
 70
3
  9
$SHADEDIF
 70
70
  9
$TILEMODE
 70
1
  9
$MAXACTVP
 70
64
  9
$PINSBASE
 10
0.0
 20
0.0
 30
0.0
  9
$PLIMCHECK
 70
0
  9
$PEXTMIN
 10
1e+20
 20
1e+20
 30
1e+20
  9
$PEXTMAX
 10
-1e+20
 20
-1e+20
 30
-1e+20
  9
$PLIMMIN
 10
0.0
 20
0.0
  9
$PLIMMAX
 10
420.0
 20
297.0
  9
$UNITMODE
 70
0
  9
$VISRETAIN
 70
1
  9
$PLINEGEN
 70
0
  9
$PSLTSCALE
 70
1
  9
$TREEDEPTH
 70
3020
  9
$CMLSTYLE
  2
Standard
  9
$CMLJUST
 70
0
  9
$CMLSCALE
 40
20.0
  9
$PROXYGRAPHICS
 70
1
  9
$MEASUREMENT
 70
1
  9
$CELWEIGHT
370
-1
  9
$ENDCAPS
280
0
  9
$JOINSTYLE
280
0
  9
$LWDISPLAY
290
0
  9
$INSUNITS
 70
4
  9
$HYPERLINKBASE
  1

  9
$STYLESHEET
  1

  9
$XEDIT
290
1
  9
$CEPSNTYPE
380
0
  9
$PSTYLEMODE
290
1
  9
$FINGERPRINTGUID
  2
{EFD8D3BB-12D9-4F62-BFB1-3EE3A4022DEB}
  9
$VERSIONGUID
  2
{9FF64B5B-68A8-4710-8642-20DE8C36A576}
  9
$EXTNAMES
290
1
  9
$PSVPSCALE
 40
0.0
  9
$OLESTARTUP
290
0
  9
$SORTENTS
280
127
  9
$INDEXCTL
280
0
  9
$HIDETEXT
280
1
  9
$XCLIPFRAME
280
1
  9
$HALOGAP
280
0
  9
$OBSCOLOR
 70
257
  9
$OBSLTYPE
280
0
  9
$INTERSECTIONDISPLAY
280
0
  9
$INTERSECTIONCOLOR
 70
257
  9
$DIMASSOC
280
2
  9
$PROJECTNAME
  1

  9
$CAMERADISPLAY
290
0
  9
$LENSLENGTH
 40
50.0
  9
$CAMERAHEIGHT
 40
0.0
  9
$STEPSPERSEC
 40
24.0
  9
$STEPSIZE
 40
100.0
  9
$3DDWFPREC
 40
2.0
  9
$PSOLWIDTH
 40
0.005
  9
$PSOLHEIGHT
 40
0.08
  9
$LOFTANG1
 40
1.570796326795
  9
$LOFTANG2
 40
1.570796326795
  9
$LOFTMAG1
 40
0.0
  9
$LOFTMAG2
 40
0.0
  9
$LOFTPARAM
 70
7
  9
$LOFTNORMALS
280
1
  9
$LATITUDE
 40
37.795
  9
$LONGITUDE
 40
-122.394
  9
$NORTHDIRECTION
 40
0.0
  9
$TIMEZONE
 70
-8000
  9
$LIGHTGLYPHDISPLAY
280
1
  9
$TILEMODELIGHTSYNCH
280
1
  9
$CMATERIAL
347
20
  9
$SOLIDHIST
280
0
  9
$SHOWHIST
280
1
  9
$DWFFRAME
280
2
  9
$DGNFRAME
280
2
  9
$REALWORLDSCALE
290
1
  9
$INTERFERECOLOR
 62
256
  9
$CSHADOW
280
0
  9
$SHADOWPLANELOCATION
 40
0.0
  0
ENDSEC
  0
SECTION
  2
CLASSES
  0
CLASS
  1
ACDBDICTIONARYWDFLT
  2
AcDbDictionaryWithDefault
  3
ObjectDBX Classes
 90
0
 91
0
280
0
281
0
  0
CLASS
  1
SUN
  2
AcDbSun
  3
SCENEOE
 90
1153
 91
0
280
0
281
0
  0
CLASS
  1
VISUALSTYLE
  2
AcDbVisualStyle
  3
ObjectDBX Classes
 90
4095
 91
0
280
0
281
0
  0
CLASS
  1
MATERIAL
  2
AcDbMaterial
  3
ObjectDBX Classes
 90
1153
 91
0
280
0
281
0
  0
CLASS
  1
SCALE
  2
AcDbScale
  3
ObjectDBX Classes
 90
1153
 91
0
280
0
281
0
  0
CLASS
  1
TABLESTYLE
  2
AcDbTableStyle
  3
ObjectDBX Classes
 90
4095
 91
0
280
0
281
0
  0
CLASS
  1
MLEADERSTYLE
  2
AcDbMLeaderStyle
  3
ACDB_MLEADERSTYLE_CLASS
 90
4095
 91
0
280
0
281
0
  0
CLASS
  1
DICTIONARYVAR
  2
AcDbDictionaryVar
  3
ObjectDBX Classes
 90
0
 91
0
280
0
281
0
  0
CLASS
  1
CELLSTYLEMAP
  2
AcDbCellStyleMap
  3
ObjectDBX Classes
 90
1152
 91
0
280
0
281
0
  0
CLASS
  1
MENTALRAYRENDERSETTINGS
  2
AcDbMentalRayRenderSettings
  3
SCENEOE
 90
1024
 91
0
280
0
281
0
  0
CLASS
  1
ACDBDETAILVIEWSTYLE
  2
AcDbDetailViewStyle
  3
ObjectDBX Classes
 90
1025
 91
0
280
0
281
0
  0
CLASS
  1
ACDBSECTIONVIEWSTYLE
  2
AcDbSectionViewStyle
  3
ObjectDBX Classes
 90
1025
 91
0
280
0
281
0
  0
CLASS
  1
RASTERVARIABLES
  2
AcDbRasterVariables
  3
ISM
 90
0
 91
0
280
0
281
0
  0
CLASS
  1
ACDBPLACEHOLDER
  2
AcDbPlaceHolder
  3
ObjectDBX Classes
 90
0
 91
0
280
0
281
0
  0
CLASS
  1
LAYOUT
  2
AcDbLayout
  3
ObjectDBX Classes
 90
0
 91
0
280
0
281
0
  0
ENDSEC
  0
SECTION
  2
TABLES
  0
TABLE
  2
VPORT
  5
8
330
0
100
AcDbSymbolTable
 70
1
  0
VPORT
  5
23
330
8
100
AcDbSymbolTableRecord
100
AcDbViewportTableRecord
  2
*Active
 70
0
 10
0.0
 20
0.0
 11
1.0
 21
1.0
 12
0.0
 22
0.0
 13
0.0
 23
0.0
 14
0.5
 24
0.5
 15
0.5
 25
0.5
 16
0.0
 26
0.0
 36
1.0
 17
0.0
 27
0.0
 37
0.0
 40
1000.0
 41
1.34
 42
50.0
 43
0.0
 44
0.0
 50
0.0
 51
0.0
 71
0
 72
1000
 73
1
 74
3
 75
0
 76
0
 77
0
 78
0
281
0
 65
0
146
0.0
  0
ENDTAB
  0
TABLE
  2
LTYPE
  5
2
330
0
100
AcDbSymbolTable
 70
21
  0
LTYPE
  5
24
330
2
100
AcDbSymbolTableRecord
100
AcDbLinetypeTableRecord
  2
ByBlock
 70
0
  3

 72
65
 73
0
 40
0.0
  0
LTYPE
  5
25
330
2
100
AcDbSymbolTableRecord
100
AcDbLinetypeTableRecord
  2
ByLayer
 70
0
  3

 72
65
 73
0
 40
0.0
  0
LTYPE
  5
26
330
2
100
AcDbSymbolTableRecord
100
AcDbLinetypeTableRecord
  2
Continuous
 70
0
  3

 72
65
 73
0
 40
0.0
  0
LTYPE
  5
2F
330
2
100
AcDbSymbolTableRecord
100
AcDbLinetypeTableRecord
  2
CENTER
 70
0
  3
Center ____ _ ____ _ ____ _ ____ _ ____ _ ____
 72
65
 73
4
 40
5.08
 49
3.175
 74
0
 49
-0.635
 74
0
 49
0.635
 74
0
 49
-0.635
 74
0
  0
LTYPE
  5
30
330
2
100
AcDbSymbolTableRecord
100
AcDbLinetypeTableRecord
  2
CENTERX2
 70
0
  3
Center (2x) ________  __  ________  __  ________
 72
65
 73
4
 40
8.89
 49
6.35
 74
0
 49
-0.635
 74
0
 49
1.27
 74
0
 49
-0.635
 74
0
  0
LTYPE
  5
31
330
2
100
AcDbSymbolTableRecord
100
AcDbLinetypeTableRecord
  2
CENTER2
 70
0
  3
Center (.5x) ____ _ ____ _ ____ _ ____ _ ____
 72
65
 73
4
 40
2.54
 49
1.587
 74
0
 49
-0.318
 74
0
 49
0.318
 74
0
 49
-0.318
 74
0
  0
LTYPE
  5
32
330
2
100
AcDbSymbolTableRecord
100
AcDbLinetypeTableRecord
  2
DASHED
 70
0
  3
Dashed __ __ __ __ __ __ __ __ __ __ __ __ __ _
 72
65
 73
2
 40
1.524
 49
1.27
 74
0
 49
-0.254
 74
0
  0
LTYPE
  5
33
330
2
100
AcDbSymbolTableRecord
100
AcDbLinetypeTableRecord
  2
DASHEDX2
 70
0
  3
Dashed (2x) ____  ____  ____  ____  ____  ____
 72
65
 73
2
 40
3.048
 49
2.54
 74
0
 49
-0.508
 74
0
  0
LTYPE
  5
34
330
2
100
AcDbSymbolTableRecord
100
AcDbLinetypeTableRecord
  2
DASHED2
 70
0
  3
Dashed (.5x) _ _ _ _ _ _ _ _ _ _ _ _ _ _
 72
65
 73
2
 40
0.762
 49
0.635
 74
0
 49
-0.127
 74
0
  0
LTYPE
  5
35
330
2
100
AcDbSymbolTableRecord
100
AcDbLinetypeTableRecord
  2
PHANTOM
 70
0
  3
Phantom ______  __  __  ______  __  __  ______
 72
65
 73
6
 40
6.35
 49
3.175
 74
0
 49
-0.635
 74
0
 49
0.635
 74
0
 49
-0.635
 74
0
 49
0.635
 74
0
 49
-0.635
 74
0
  0
LTYPE
  5
36
330
2
100
AcDbSymbolTableRecord
100
AcDbLinetypeTableRecord
  2
PHANTOMX2
 70
0
  3
Phantom (2x)____________    ____    ____    ____________
 72
65
 73
6
 40
10.795
 49
6.35
 74
0
 49
-0.635
 74
0
 49
1.27
 74
0
 49
-0.635
 74
0
 49
1.27
 74
0
 49
-0.635
 74
0
  0
LTYPE
  5
37
330
2
100
AcDbSymbolTableRecord
100
AcDbLinetypeTableRecord
  2
PHANTOM2
 70
0
  3
Phantom (.5x) ___ _ _ ___ _ _ ___ _ _ ___ _ _ ___
 72
65
 73
6
 40
3.175
 49
1.587
 74
0
 49
-0.318
 74
0
 49
0.318
 74
0
 49
-0.318
 74
0
 49
0.318
 74
0
 49
-0.318
 74
0
  0
LTYPE
  5
38
330
2
100
AcDbSymbolTableRecord
100
AcDbLinetypeTableRecord
  2
DASHDOT
 70
0
  3
Dash dot __ . __ . __ . __ . __ . __ . __ . __
 72
65
 73
4
 40
3.556
 49
2.54
 74
0
 49
-0.508
 74
0
 49
0.0
 74
0
 49
-0.508
 74
0
  0
LTYPE
  5
39
330
2
100
AcDbSymbolTableRecord
100
AcDbLinetypeTableRecord
  2
DASHDOTX2
 70
0
  3
Dash dot (2x) ____  .  ____  .  ____  .  ____
 72
65
 73
4
 40
6.096
 49
5.08
 74
0
 49
-0.508
 74
0
 49
0.0
 74
0
 49
-0.508
 74
0
  0
LTYPE
  5
3A
330
2
100
AcDbSymbolTableRecord
100
AcDbLinetypeTableRecord
  2
DASHDOT2
 70
0
  3
Dash dot (.5x) _ . _ . _ . _ . _ . _ . _ . _
 72
65
 73
4
 40
1.778
 49
1.27
 74
0
 49
-0.254
 74
0
 49
0.0
 74
0
 49
-0.254
 74
0
  0
LTYPE
  5
3B
330
2
100
AcDbSymbolTableRecord
100
AcDbLinetypeTableRecord
  2
DOT
 70
0
  3
Dot .  .  .  .  .  .  .  .  .  .  .  .  .  .  .  .
 72
65
 73
2
 40
0.508
 49
0.0
 74
0
 49
-0.508
 74
0
  0
LTYPE
  5
3C
330
2
100
AcDbSymbolTableRecord
100
AcDbLinetypeTableRecord
  2
DOTX2
 70
0
  3
Dot (2x) .    .    .    .    .    .    .    . 
 72
65
 73
2
 40
1.016
 49
0.0
 74
0
 49
-1.016
 74
0
  0
LTYPE
  5
3D
330
2
100
AcDbSymbolTableRecord
100
AcDbLinetypeTableRecord
  2
DOT2
 70
0
  3
Dot (.5) . . . . . . . . . . . . . . . . . . . 
 72
65
 73
2
 40
0.254
 49
0.0
 74
0
 49
-0.254
 74
0
  0
LTYPE
  5
3E
330
2
100
AcDbSymbolTableRecord
100
AcDbLinetypeTableRecord
  2
DIVIDE
 70
0
  3
Divide __ . . __ . . __ . . __ . . __ . . __
 72
65
 73
6
 40
4.064
 49
2.54
 74
0
 49
-0.508
 74
0
 49
0.0
 74
0
 49
-0.508
 74
0
 49
0.0
 74
0
 49
-0.508
 74
0
  0
LTYPE
  5
3F
330
2
100
AcDbSymbolTableRecord
100
AcDbLinetypeTableRecord
  2
DIVIDEX2
 70
0
  3
Divide (2x) ____  . .  ____  . .  ____  . .  ____
 72
65
 73
6
 40
6.604
 49
5.08
 74
0
 49
-0.508
 74
0
 49
0.0
 74
0
 49
-0.508
 74
0
 49
0.0
 74
0
 49
-0.508
 74
0
  0
LTYPE
  5
40
330
2
100
AcDbSymbolTableRecord
100
AcDbLinetypeTableRecord
  2
DIVIDE2
 70
0
  3
Divide(.5x) _ . _ . _ . _ . _ . _ . _ . _
 72
65
 73
6
 40
2.032
 49
1.27
 74
0
 49
-0.254
 74
0
 49
0.0
 74
0
 49
-0.254
 74
0
 49
0.0
 74
0
 49
-0.254
 74
0
  0
ENDTAB
  0
TABLE
  2
LAYER
  5
1
330
0
100
AcDbSymbolTable
 70
13
  0
LAYER
  5
27
330
1
100
AcDbSymbolTableRecord
100
AcDbLayerTableRecord
  2
0
 70
0
 62
7
  6
Continuous
370
-3
390
13
347
21
  0
LAYER
  5
28
330
1
100
AcDbSymbolTableRecord
100
AcDbLayerTableRecord
  2
Defpoints
 70
0
 62
7
  6
Continuous
290
0
370
-3
390
13
347
21
  0
LAYER
  5
8B
330
1
100
AcDbSymbolTableRecord
100
AcDbLayerTableRecord
  2
A-WALL
 70
0
 62
7
  6
Continuous
370
-3
390
13
347
21
  0
LAYER
  5
8C
330
1
100
AcDbSymbolTableRecord
100
AcDbLayerTableRecord
  2
A-WALL-HATCH
 70
0
 62
8
  6
Continuous
370
-3
390
13
347
21
  0
LAYER
  5
8D
330
1
100
AcDbSymbolTableRecord
100
AcDbLayerTableRecord
  2
A-PART
 70
0
 62
6
  6
Continuous
370
-3
390
13
347
21
  0
LAYER
  5
8E
330
1
100
AcDbSymbolTableRecord
100
AcDbLayerTableRecord
  2
A-SHAFT
 70
0
 62
5
  6
Continuous
370
-3
390
13
347
21
  0
LAYER
  5
8F
330
1
100
AcDbSymbolTableRecord
100
AcDbLayerTableRecord
  2
A-GLAZ
 70
0
 62
4
  6
Continuous
370
-3
390
13
347
21
  0
LAYER
  5
90
330
1
100
AcDbSymbolTableRecord
100
AcDbLayerTableRecord
  2
A-DOOR
 70
0
 62
3
  6
Continuous
370
-3
390
13
347
21
  0
LAYER
  5
91
330
1
100
AcDbSymbolTableRecord
100
AcDbLayerTableRecord
  2
A-DIMS
 70
0
 62
1
  6
Continuous
370
-3
390
13
347
21
  0
LAYER
  5
92
330
1
100
AcDbSymbolTableRecord
100
AcDbLayerTableRecord
  2
A-TEXT
 70
0
 62
7
  6
Continuous
370
-3
390
13
347
21
  0
LAYER
  5
93
330
1
100
AcDbSymbolTableRecord
100
AcDbLayerTableRecord
  2
A-BALC
 70
0
 62
9
  6
Continuous
370
-3
390
13
347
21
  0
LAYER
  5
A9
330
1
100
AcDbSymbolTableRecord
100
AcDbLayerTableRecord
  2
A-PART-LIGHT
 70
0
 62
6
  6
Continuous
370
-3
390
13
347
21
  0
LAYER
  5
262
330
1
100
AcDbSymbolTableRecord
100
AcDbLayerTableRecord
  2
A-FURN
 70
0
 62
150
  6
Continuous
370
-3
390
13
347
21
  0
ENDTAB
  0
TABLE
  2
STYLE
  5
5
330
0
100
AcDbSymbolTable
 70
27
  0
STYLE
  5
29
330
5
100
AcDbSymbolTableRecord
100
AcDbTextStyleTableRecord
  2
Standard
 70
0
 40
0.0
 41
1.0
 50
0.0
 71
0
 42
2.5
  3
txt
  4

  0
STYLE
  5
41
330
5
100
AcDbSymbolTableRecord
100
AcDbTextStyleTableRecord
  2
OpenSans-Light
 70
0
 40
0.0
 41
1.0
 50
0.0
 71
0
 42
2.5
  3
OpenSans-Light.ttf
  4

  0
STYLE
  5
42
330
5
100
AcDbSymbolTableRecord
100
AcDbTextStyleTableRecord
  2
OpenSans-Light-Italic
 70
0
 40
0.0
 41
1.0
 50
0.0
 71
0
 42
2.5
  3
OpenSans-LightItalic.ttf
  4

  0
STYLE
  5
43
330
5
100
AcDbSymbolTableRecord
100
AcDbTextStyleTableRecord
  2
OpenSans
 70
0
 40
0.0
 41
1.0
 50
0.0
 71
0
 42
2.5
  3
OpenSans-Regular.ttf
  4

  0
STYLE
  5
44
330
5
100
AcDbSymbolTableRecord
100
AcDbTextStyleTableRecord
  2
OpenSans-Italic
 70
0
 40
0.0
 41
1.0
 50
0.0
 71
0
 42
2.5
  3
OpenSans-Italic.ttf
  4

  0
STYLE
  5
45
330
5
100
AcDbSymbolTableRecord
100
AcDbTextStyleTableRecord
  2
OpenSans-SemiBold
 70
0
 40
0.0
 41
1.0
 50
0.0
 71
0
 42
2.5
  3
OpenSans-SemiBold.ttf
  4

  0
STYLE
  5
46
330
5
100
AcDbSymbolTableRecord
100
AcDbTextStyleTableRecord
  2
OpenSans-SemiBoldItalic
 70
0
 40
0.0
 41
1.0
 50
0.0
 71
0
 42
2.5
  3
OpenSans-SemiBoldItalic.ttf
  4

  0
STYLE
  5
47
330
5
100
AcDbSymbolTableRecord
100
AcDbTextStyleTableRecord
  2
OpenSans-Bold
 70
0
 40
0.0
 41
1.0
 50
0.0
 71
0
 42
2.5
  3
OpenSans-Bold.ttf
  4

  0
STYLE
  5
48
330
5
100
AcDbSymbolTableRecord
100
AcDbTextStyleTableRecord
  2
OpenSans-BoldItalic
 70
0
 40
0.0
 41
1.0
 50
0.0
 71
0
 42
2.5
  3
OpenSans-BoldItalic.ttf
  4

  0
STYLE
  5
49
330
5
100
AcDbSymbolTableRecord
100
AcDbTextStyleTableRecord
  2
OpenSans-ExtraBold
 70
0
 40
0.0
 41
1.0
 50
0.0
 71
0
 42
2.5
  3
OpenSans-ExtraBold.ttf
  4

  0
STYLE
  5
4A
330
5
100
AcDbSymbolTableRecord
100
AcDbTextStyleTableRecord
  2
OpenSans-ExtraBoldItalic
 70
0
 40
0.0
 41
1.0
 50
0.0
 71
0
 42
2.5
  3
OpenSans-ExtraBoldItalic.ttf
  4

  0
STYLE
  5
4B
330
5
100
AcDbSymbolTableRecord
100
AcDbTextStyleTableRecord
  2
OpenSansCondensed-Bold
 70
0
 40
0.0
 41
1.0
 50
0.0
 71
0
 42
2.5
  3
OpenSansCondensed-Bold.ttf
  4

  0
STYLE
  5
4C
330
5
100
AcDbSymbolTableRecord
100
AcDbTextStyleTableRecord
  2
OpenSansCondensed-Light
 70
0
 40
0.0
 41
1.0
 50
0.0
 71
0
 42
2.5
  3
OpenSansCondensed-Light.ttf
  4

  0
STYLE
  5
4D
330
5
100
AcDbSymbolTableRecord
100
AcDbTextStyleTableRecord
  2
OpenSansCondensed-Italic
 70
0
 40
0.0
 41
1.0
 50
0.0
 71
0
 42
2.5
  3
OpenSansCondensed-LightItalic.ttf
  4

  0
STYLE
  5
4E
330
5
100
AcDbSymbolTableRecord
100
AcDbTextStyleTableRecord
  2
LiberationSans
 70
0
 40
0.0
 41
1.0
 50
0.0
 71
0
 42
2.5
  3
LiberationSans-Regular.ttf
  4

  0
STYLE
  5
4F
330
5
100
AcDbSymbolTableRecord
100
AcDbTextStyleTableRecord
  2
LiberationSans-Bold
 70
0
 40
0.0
 41
1.0
 50
0.0
 71
0
 42
2.5
  3
LiberationSans-Bold.ttf
  4

  0
STYLE
  5
50
330
5
100
AcDbSymbolTableRecord
100
AcDbTextStyleTableRecord
  2
LiberationSans-BoldItalic
 70
0
 40
0.0
 41
1.0
 50
0.0
 71
0
 42
2.5
  3
LiberationSans-BoldItalic.ttf
  4

  0
STYLE
  5
51
330
5
100
AcDbSymbolTableRecord
100
AcDbTextStyleTableRecord
  2
LiberationSans-Italic
 70
0
 40
0.0
 41
1.0
 50
0.0
 71
0
 42
2.5
  3
LiberationSans-Italic.ttf
  4

  0
STYLE
  5
52
330
5
100
AcDbSymbolTableRecord
100
AcDbTextStyleTableRecord
  2
LiberationSerif
 70
0
 40
0.0
 41
1.0
 50
0.0
 71
0
 42
2.5
  3
LiberationSerif-Regular.ttf
  4

  0
STYLE
  5
53
330
5
100
AcDbSymbolTableRecord
100
AcDbTextStyleTableRecord
  2
LiberationSerif-Bold
 70
0
 40
0.0
 41
1.0
 50
0.0
 71
0
 42
2.5
  3
LiberationSerif-Bold.ttf
  4

  0
STYLE
  5
54
330
5
100
AcDbSymbolTableRecord
100
AcDbTextStyleTableRecord
  2
LiberationSerif-BoldItalic
 70
0
 40
0.0
 41
1.0
 50
0.0
 71
0
 42
2.5
  3
LiberationSerif-BoldItalic.ttf
  4

  0
STYLE
  5
55
330
5
100
AcDbSymbolTableRecord
100
AcDbTextStyleTableRecord
  2
LiberationSerif-Italic
 70
0
 40
0.0
 41
1.0
 50
0.0
 71
0
 42
2.5
  3
LiberationSerif-Italic.ttf
  4

  0
STYLE
  5
56
330
5
100
AcDbSymbolTableRecord
100
AcDbTextStyleTableRecord
  2
LiberationMono
 70
0
 40
0.0
 41
1.0
 50
0.0
 71
0
 42
2.5
  3
LiberationMono-Regular.ttf
  4

  0
STYLE
  5
57
330
5
100
AcDbSymbolTableRecord
100
AcDbTextStyleTableRecord
  2
LiberationMono-Bold
 70
0
 40
0.0
 41
1.0
 50
0.0
 71
0
 42
2.5
  3
LiberationMono-Bold.ttf
  4

  0
STYLE
  5
58
330
5
100
AcDbSymbolTableRecord
100
AcDbTextStyleTableRecord
  2
LiberationMono-BoldItalic
 70
0
 40
0.0
 41
1.0
 50
0.0
 71
0
 42
2.5
  3
LiberationMono-BoldItalic.ttf
  4

  0
STYLE
  5
59
330
5
100
AcDbSymbolTableRecord
100
AcDbTextStyleTableRecord
  2
LiberationMono-Italic
 70
0
 40
0.0
 41
1.0
 50
0.0
 71
0
 42
2.5
  3
LiberationMono-Italic.ttf
  4

  0
STYLE
  5
8A
330
5
100
AcDbSymbolTableRecord
100
AcDbTextStyleTableRecord
  2
ARIAL
 70
0
 40
0.0
 41
1.0
 50
0.0
 71
0
 42
2.5
  3
arial.ttf
  4

  0
ENDTAB
  0
TABLE
  2
VIEW
  5
7
330
0
100
AcDbSymbolTable
 70
0
  0
ENDTAB
  0
TABLE
  2
UCS
  5
6
330
0
100
AcDbSymbolTable
 70
0
  0
ENDTAB
  0
TABLE
  2
APPID
  5
3
330
0
100
AcDbSymbolTable
 70
3
  0
APPID
  5
2A
330
3
100
AcDbSymbolTableRecord
100
AcDbRegAppTableRecord
  2
ACAD
 70
0
  0
APPID
  5
312
330
3
100
AcDbSymbolTableRecord
100
AcDbRegAppTableRecord
  2
HATCHBACKGROUNDCOLOR
 70
0
  0
APPID
  5
313
330
3
100
AcDbSymbolTableRecord
100
AcDbRegAppTableRecord
  2
EZDXF
 70
0
  0
ENDTAB
  0
TABLE
  2
DIMSTYLE
  5
4
330
0
100
AcDbSymbolTable
 70
13
100
AcDbDimStyleTable
  0
DIMSTYLE
105
2B
330
4
100
AcDbSymbolTableRecord
100
AcDbDimStyleTableRecord
  2
Standard
 70
0
 40
1.0
 41
2.5
 42
0.625
 43
3.75
 44
1.25
 45
0.0
 46
0.0
 47
0.0
 48
0.0
 49
2.5
140
2.5
141
2.5
142
0.0
143
0.03937007874
144
1.0
145
0.0
146
1.0
147
0.625
148
0.0
 69
0
 70
0
 71
0
 72
0
 73
0
 74
0
 75
0
 76
0
 77
1
 78
8
 79
3
170
0
171
3
172
1
173
0
174
0
175
0
176
0
177
0
178
0
179
2
271
2
272
2
273
2
274
3
275
0
276
0
277
2
278
44
279
0
280
0
281
0
282
0
283
0
284
8
285
0
286
0
288
0
289
3
290
0
371
-2
372
-2
  0
DIMSTYLE
105
73
330
4
100
AcDbSymbolTableRecord
100
AcDbDimStyleTableRecord
  2
EZDXF
 70
0
 40
1.0
 41
0.175
 42
0.125
 43
3.75
 44
0.375
 45
0.0
 46
0.0
 47
0.0
 48
0.0
 49
2.5
140
0.25
141
2.5
142
0.0
143
0.03937007874
144
100.0
145
0.0
146
0.5
147
0.1
148
0.0
 69
0
 70
0
 71
0
 72
0
 73
0
 74
0
 75
0
 76
0
 77
1
 78
12
 79
3
170
0
171
3
172
1
173
0
174
0
175
0
176
0
177
0
178
0
179
2
271
2
272
2
273
2
274
3
275
0
276
0
277
2
278
46
279
2
280
0
281
0
282
0
283
0
284
8
285
0
286
0
288
1
289
3
290
0
340
4C
342
74
371
-2
372
-2
  0
DIMSTYLE
105
7C
330
4
100
AcDbSymbolTableRecord
100
AcDbDimStyleTableRecord
  2
EZ_M_100_H25_CM
 70
0
 40
1.0
 41
0.25
 42
0.125
 43
3.75
 44
0.375
 45
0.0
 46
0.0
 47
0.0
 48
0.0
 49
2.5
140
0.25
141
2.5
142
0.125
143
0.03937007874
144
100.0
145
0.0
146
0.5
147
0.1
148
0.0
 69
0
 70
0
 71
0
 72
0
 73
0
 74
0
 75
0
 76
0
 77
1
 78
12
 79
3
170
0
171
3
172
1
173
0
174
0
175
0
176
0
177
0
178
0
179
2
271
2
272
2
273
2
274
3
275
0
276
0
277
2
278
46
279
2
280
0
281
0
282
0
283
0
284
8
285
0
286
0
288
1
289
3
290
0
340
4C
371
-2
372
-2
  0
DIMSTYLE
105
7D
330
4
100
AcDbSymbolTableRecord
100
AcDbDimStyleTableRecord
  2
EZ_M_50_H25_CM
 70
0
 40
1.0
 41
0.125
 42
0.0625
 43
3.75
 44
0.1875
 45
0.0
 46
0.0
 47
0.0
 48
0.0
 49
2.5
140
0.125
141
2.5
142
0.0625
143
0.03937007874
144
100.0
145
0.0
146
0.5
147
0.05
148
0.0
 69
0
 70
0
 71
0
 72
0
 73
0
 74
0
 75
0
 76
0
 77
1
 78
12
 79
3
170
0
171
3
172
1
173
0
174
0
175
0
176
0
177
0
178
0
179
2
271
2
272
2
273
2
274
3
275
0
276
0
277
2
278
46
279
2
280
0
281
0
282
0
283
0
284
8
285
0
286
0
288
1
289
3
290
0
340
4C
371
-2
372
-2
  0
DIMSTYLE
105
7E
330
4
100
AcDbSymbolTableRecord
100
AcDbDimStyleTableRecord
  2
EZ_M_25_H25_CM
 70
0
 40
1.0
 41
0.0625
 42
0.03125
 43
3.75
 44
0.09375
 45
0.0
 46
0.0
 47
0.0
 48
0.0
 49
2.5
140
0.0625
141
2.5
142
0.03125
143
0.03937007874
144
100.0
145
0.0
146
0.5
147
0.025
148
0.0
 69
0
 70
0
 71
0
 72
0
 73
0
 74
0
 75
0
 76
0
 77
1
 78
12
 79
3
170
0
171
3
172
1
173
0
174
0
175
0
176
0
177
0
178
0
179
2
271
2
272
2
273
2
274
3
275
0
276
0
277
2
278
46
279
2
280
0
281
0
282
0
283
0
284
8
285
0
286
0
288
1
289
3
290
0
340
4C
371
-2
372
-2
  0
DIMSTYLE
105
7F
330
4
100
AcDbSymbolTableRecord
100
AcDbDimStyleTableRecord
  2
EZ_M_20_H25_CM
 70
0
 40
1.0
 41
0.05
 42
0.025
 43
3.75
 44
0.07500000000000001
 45
0.0
 46
0.0
 47
0.0
 48
0.0
 49
2.5
140
0.05
141
2.5
142
0.025
143
0.03937007874
144
100.0
145
0.0
146
0.5
147
0.020000000000000004
148
0.0
 69
0
 70
0
 71
0
 72
0
 73
0
 74
0
 75
0
 76
0
 77
1
 78
12
 79
3
170
0
171
3
172
1
173
0
174
0
175
0
176
0
177
0
178
0
179
2
271
2
272
2
273
2
274
3
275
0
276
0
277
2
278
46
279
2
280
0
281
0
282
0
283
0
284
8
285
0
286
0
288
1
289
3
290
0
340
4C
371
-2
372
-2
  0
DIMSTYLE
105
80
330
4
100
AcDbSymbolTableRecord
100
AcDbDimStyleTableRecord
  2
EZ_M_10_H25_CM
 70
0
 40
1.0
 41
0.025
 42
0.0125
 43
3.75
 44
0.037500000000000006
 45
0.0
 46
0.0
 47
0.0
 48
0.0
 49
2.5
140
0.025
141
2.5
142
0.0125
143
0.03937007874
144
100.0
145
0.0
146
0.5
147
0.010000000000000002
148
0.0
 69
0
 70
0
 71
0
 72
0
 73
0
 74
0
 75
0
 76
0
 77
1
 78
12
 79
3
170
0
171
3
172
1
173
0
174
0
175
0
176
0
177
0
178
0
179
2
271
2
272
2
273
2
274
3
275
0
276
0
277
2
278
46
279
2
280
0
281
0
282
0
283
0
284
8
285
0
286
0
288
1
289
3
290
0
340
4C
371
-2
372
-2
  0
DIMSTYLE
105
81
330
4
100
AcDbSymbolTableRecord
100
AcDbDimStyleTableRecord
  2
EZ_M_5_H25_CM
 70
0
 40
1.0
 41
0.0125
 42
0.00625
 43
3.75
 44
0.018750000000000003
 45
0.0
 46
0.0
 47
0.0
 48
0.0
 49
2.5
140
0.0125
141
2.5
142
0.00625
143
0.03937007874
144
100.0
145
0.0
146
0.5
147
0.005000000000000001
148
0.0
 69
0
 70
0
 71
0
 72
0
 73
0
 74
0
 75
0
 76
0
 77
1
 78
12
 79
3
170
0
171
3
172
1
173
0
174
0
175
0
176
0
177
0
178
0
179
2
271
2
272
2
273
2
274
3
275
0
276
0
277
2
278
46
279
2
280
0
281
0
282
0
283
0
284
8
285
0
286
0
288
1
289
3
290
0
340
4C
371
-2
372
-2
  0
DIMSTYLE
105
82
330
4
100
AcDbSymbolTableRecord
100
AcDbDimStyleTableRecord
  2
EZ_M_1_H25_CM
 70
0
 40
1.0
 41
0.0025
 42
0.00125
 43
3.75
 44
0.00375
 45
0.0
 46
0.0
 47
0.0
 48
0.0
 49
2.5
140
0.0025
141
2.5
142
0.00125
143
0.03937007874
144
100.0
145
0.0
146
0.5
147
0.001
148
0.0
 69
0
 70
0
 71
0
 72
0
 73
0
 74
0
 75
0
 76
0
 77
1
 78
12
 79
3
170
0
171
3
172
1
173
0
174
0
175
0
176
0
177
0
178
0
179
2
271
2
272
2
273
2
274
3
275
0
276
0
277
2
278
46
279
2
280
0
281
0
282
0
283
0
284
8
285
0
286
0
288
1
289
3
290
0
340
4C
371
-2
372
-2
  0
DIMSTYLE
105
83
330
4
100
AcDbSymbolTableRecord
100
AcDbDimStyleTableRecord
  2
EZ_RADIUS
 70
0
 40
1.0
 41
0.25
 42
0.125
 43
3.75
 44
0.375
 45
0.0
 46
0.0
 47
0.0
 48
0.0
 49
2.5
140
0.25
141
0.0
142
0.0
143
0.03937007874
144
100.0
145
0.0
146
0.5
147
0.1
148
0.0
 69
0
 70
0
 71
0
 72
0
 73
0
 74
0
 75
0
 76
0
 77
1
 78
12
 79
3
170
0
171
3
172
0
173
0
174
0
175
0
176
0
177
0
178
0
179
2
271
2
272
2
273
2
274
3
275
0
276
0
277
2
278
46
279
1
280
0
281
0
282
0
283
0
284
8
285
0
286
0
288
1
289
3
290
0
340
4C
342
84
371
-2
372
-2
  0
DIMSTYLE
105
88
330
4
100
AcDbSymbolTableRecord
100
AcDbDimStyleTableRecord
  2
EZ_RADIUS_INSIDE
 70
0
 40
1.0
 41
0.25
 42
0.125
 43
3.75
 44
0.375
 45
0.0
 46
0.0
 47
0.0
 48
0.0
 49
2.5
140
0.25
141
0.0
142
0.0
143
0.03937007874
144
100.0
145
0.0
146
0.5
147
0.1
148
0.0
 69
0
 70
0
 71
0
 72
0
 73
0
 74
0
 75
0
 76
0
 77
0
 78
12
 79
3
170
0
171
3
172
0
173
0
174
1
175
0
176
0
177
0
178
0
179
2
271
2
272
2
273
2
274
3
275
0
276
0
277
2
278
46
279
0
280
0
281
0
282
0
283
0
284
8
285
0
286
0
288
1
289
0
290
0
340
4C
342
84
371
-2
372
-2
  0
DIMSTYLE
105
89
330
4
100
AcDbSymbolTableRecord
100
AcDbDimStyleTableRecord
  2
EZ_CURVED
 70
0
 40
1.0
 41
0.25
 42
0.125
 43
3.75
 44
0.375
 45
0.0
 46
0.0
 47
0.0
 48
0.0
 49
2.5
140
0.25
141
2.5
142
0.0
143
0.03937007874
144
100.0
145
0.0
146
0.5
147
0.1
148
0.0
 69
0
 70
0
 71
0
 72
0
 73
0
 74
0
 75
0
 76
0
 77
1
 78
12
 79
2
 90
2
170
0
171
3
172
1
173
0
174
0
175
0
176
0
177
0
178
0
179
2
271
2
272
2
273
2
274
3
275
0
276
0
277
2
278
46
279
2
280
0
281
0
282
0
283
0
284
8
285
0
286
0
288
1
289
3
290
0
340
4C
371
-2
372
-2
  0
DIMSTYLE
105
94
330
4
100
AcDbSymbolTableRecord
100
AcDbDimStyleTableRecord
  2
ARCH50
 70
0
 40
50.0
 41
1.5
 42
1.0
 43
3.75
 44
1.5
 45
0.0
 46
0.0
 47
0.0
 48
0.0
 49
2.5
140
2.5
141
2.5
142
1.2
143
0.03937007874
144
1.0
145
0.0
146
1.0
147
0.7
148
0.0
 69
0
 70
0
 71
0
 72
0
 73
0
 74
0
 75
0
 76
0
 77
1
 78
8
 79
3
170
0
171
3
172
1
173
0
174
0
175
0
176
0
177
0
178
0
179
2
271
0
272
2
273
2
274
3
275
0
276
0
277
2
278
44
279
0
280
0
281
0
282
0
283
0
284
8
285
0
286
0
288
0
289
3
290
0
340
8A
371
-2
372
-2
  0
ENDTAB
  0
TABLE
  2
BLOCK_RECORD
  5
9
330
0
100
AcDbSymbolTable
 70
32
  0
BLOCK_RECORD
  5
17
330
9
100
AcDbSymbolTableRecord
100
AcDbBlockTableRecord
  2
*Model_Space
340
1A
 70
0
280
1
281
0
  0
BLOCK_RECORD
  5
1B
330
9
100
AcDbSymbolTableRecord
100
AcDbBlockTableRecord
  2
*Paper_Space
340
1E
 70
0
280
1
281
0
  0
BLOCK_RECORD
  5
74
330
9
100
AcDbSymbolTableRecord
100
AcDbBlockTableRecord
  2
_ARCHTICK
340
0
 70
0
280
1
281
0
  0
BLOCK_RECORD
  5
78
330
9
100
AcDbSymbolTableRecord
100
AcDbBlockTableRecord
  2
_CLOSEDFILLED
340
0
 70
0
280
1
281
0
  0
BLOCK_RECORD
  5
84
330
9
100
AcDbSymbolTableRecord
100
AcDbBlockTableRecord
  2
_CLOSEDBLANK
340
0
 70
0
280
1
281
0
  0
BLOCK_RECORD
  5
E8
330
9
100
AcDbSymbolTableRecord
100
AcDbBlockTableRecord
  2
*D1
340
0
 70
0
280
1
281
0
  0
BLOCK_RECORD
  5
ED
330
9
100
AcDbSymbolTableRecord
100
AcDbBlockTableRecord
  2
_OBLIQUE
340
0
 70
0
280
1
281
0
  0
BLOCK_RECORD
  5
FB
330
9
100
AcDbSymbolTableRecord
100
AcDbBlockTableRecord
  2
*D2
340
0
 70
0
280
1
281
0
  0
BLOCK_RECORD
  5
10A
330
9
100
AcDbSymbolTableRecord
100
AcDbBlockTableRecord
  2
*D3
340
0
 70
0
280
1
281
0
  0
BLOCK_RECORD
  5
119
330
9
100
AcDbSymbolTableRecord
100
AcDbBlockTableRecord
  2
*D4
340
0
 70
0
280
1
281
0
  0
BLOCK_RECORD
  5
128
330
9
100
AcDbSymbolTableRecord
100
AcDbBlockTableRecord
  2
*D5
340
0
 70
0
280
1
281
0
  0
BLOCK_RECORD
  5
137
330
9
100
AcDbSymbolTableRecord
100
AcDbBlockTableRecord
  2
*D6
340
0
 70
0
280
1
281
0
  0
BLOCK_RECORD
  5
146
330
9
100
AcDbSymbolTableRecord
100
AcDbBlockTableRecord
  2
*D7
340
0
 70
0
280
1
281
0
  0
BLOCK_RECORD
  5
155
330
9
100
AcDbSymbolTableRecord
100
AcDbBlockTableRecord
  2
*D8
340
0
 70
0
280
1
281
0
  0
BLOCK_RECORD
  5
164
330
9
100
AcDbSymbolTableRecord
100
AcDbBlockTableRecord
  2
*D9
340
0
 70
0
280
1
281
0
  0
BLOCK_RECORD
  5
173
330
9
100
AcDbSymbolTableRecord
100
AcDbBlockTableRecord
  2
*D10
340
0
 70
0
280
1
281
0
  0
BLOCK_RECORD
  5
182
330
9
100
AcDbSymbolTableRecord
100
AcDbBlockTableRecord
  2
*D11
340
0
 70
0
280
1
281
0
  0
BLOCK_RECORD
  5
191
330
9
100
AcDbSymbolTableRecord
100
AcDbBlockTableRecord
  2
*D12
340
0
 70
0
280
1
281
0
  0
BLOCK_RECORD
  5
1A0
330
9
100
AcDbSymbolTableRecord
100
AcDbBlockTableRecord
  2
*D13
340
0
 70
0
280
1
281
0
  0
BLOCK_RECORD
  5
1AF
330
9
100
AcDbSymbolTableRecord
100
AcDbBlockTableRecord
  2
*D14
340
0
 70
0
280
1
281
0
  0
BLOCK_RECORD
  5
1BE
330
9
100
AcDbSymbolTableRecord
100
AcDbBlockTableRecord
  2
*D15
340
0
 70
0
280
1
281
0
  0
BLOCK_RECORD
  5
1CD
330
9
100
AcDbSymbolTableRecord
100
AcDbBlockTableRecord
  2
*D16
340
0
 70
0
280
1
281
0
  0
BLOCK_RECORD
  5
1DC
330
9
100
AcDbSymbolTableRecord
100
AcDbBlockTableRecord
  2
*D17
340
0
 70
0
280
1
281
0
  0
BLOCK_RECORD
  5
1EB
330
9
100
AcDbSymbolTableRecord
100
AcDbBlockTableRecord
  2
*D18
340
0
 70
0
280
1
281
0
  0
BLOCK_RECORD
  5
1FA
330
9
100
AcDbSymbolTableRecord
100
AcDbBlockTableRecord
  2
*D19
340
0
 70
0
280
1
281
0
  0
BLOCK_RECORD
  5
209
330
9
100
AcDbSymbolTableRecord
100
AcDbBlockTableRecord
  2
*D20
340
0
 70
0
280
1
281
0
  0
BLOCK_RECORD
  5
218
330
9
100
AcDbSymbolTableRecord
100
AcDbBlockTableRecord
  2
*D21
340
0
 70
0
280
1
281
0
  0
BLOCK_RECORD
  5
227
330
9
100
AcDbSymbolTableRecord
100
AcDbBlockTableRecord
  2
*D22
340
0
 70
0
280
1
281
0
  0
BLOCK_RECORD
  5
236
330
9
100
AcDbSymbolTableRecord
100
AcDbBlockTableRecord
  2
*D23
340
0
 70
0
280
1
281
0
  0
BLOCK_RECORD
  5
245
330
9
100
AcDbSymbolTableRecord
100
AcDbBlockTableRecord
  2
*D24
340
0
 70
0
280
1
281
0
  0
BLOCK_RECORD
  5
254
330
9
100
AcDbSymbolTableRecord
100
AcDbBlockTableRecord
  2
*D25
340
0
 70
0
280
1
281
0
  0
BLOCK_RECORD
  5
30A
330
9
100
AcDbSymbolTableRecord
100
AcDbBlockTableRecord
  2
*Paper_Space0
340
30D
 70
0
280
1
281
0
  0
ENDTAB
  0
ENDSEC
  0
SECTION
  2
BLOCKS
  0
BLOCK
  5
18
330
17
100
AcDbEntity
  8
0
100
AcDbBlockBegin
  2
*Model_Space
 70
0
 10
0.0
 20
0.0
 30
0.0
  3
*Model_Space
  1

  0
ENDBLK
  5
19
330
17
100
AcDbEntity
  8
0
100
AcDbBlockEnd
  0
BLOCK
  5
1C
330
1B
100
AcDbEntity
  8
0
100
AcDbBlockBegin
  2
*Paper_Space
 70
0
 10
0.0
 20
0.0
 30
0.0
  3
*Paper_Space
  1

  0
ENDBLK
  5
1D
330
1B
100
AcDbEntity
  8
0
100
AcDbBlockEnd
  0
BLOCK
  5
75
330
74
100
AcDbEntity
  8
0
100
AcDbBlockBegin
  2
_ARCHTICK
 70
0
 10
0.0
 20
0.0
 30
0.0
  3
_ARCHTICK
  1

  0
LWPOLYLINE
  5
77
330
74
100
AcDbEntity
  8
0
  6
BYBLOCK
 62
0
100
AcDbPolyline
 90
2
 70
0
 43
0.15
 10
-0.5
 20
-0.5
 10
0.5
 20
0.5
  0
ENDBLK
  5
76
330
74
100
AcDbEntity
  8
0
100
AcDbBlockEnd
  0
BLOCK
  5
79
330
78
100
AcDbEntity
  8
0
100
AcDbBlockBegin
  2
_CLOSEDFILLED
 70
0
 10
0.0
 20
0.0
 30
0.0
  3
_CLOSEDFILLED
  1

  0
SOLID
  5
7B
330
78
100
AcDbEntity
  8
0
  6
BYBLOCK
 62
0
100
AcDbTrace
 10
-1.0
 20
0.16439898372402537
 30
0.0
 11
0.0
 21
0.0
 31
0.0
 12
-1.0
 22
-0.16439898372402537
 32
0.0
 13
-1.0
 23
-0.16439898372402537
 33
0.0
  0
ENDBLK
  5
7A
330
78
100
AcDbEntity
  8
0
100
AcDbBlockEnd
  0
BLOCK
  5
85
330
84
100
AcDbEntity
  8
0
100
AcDbBlockBegin
  2
_CLOSEDBLANK
 70
0
 10
0.0
 20
0.0
 30
0.0
  3
_CLOSEDBLANK
  1

  0
LWPOLYLINE
  5
87
330
84
100
AcDbEntity
  8
0
  6
BYBLOCK
 62
0
100
AcDbPolyline
 90
3
 70
1
 10
-1.0
 20
0.16439898372402537
 10
0.0
 20
0.0
 10
-1.0
 20
-0.16439898372402537
  0
ENDBLK
  5
86
330
84
100
AcDbEntity
  8
0
100
AcDbBlockEnd
  0
BLOCK
  5
E9
330
E8
100
AcDbEntity
  8
0
100
AcDbBlockBegin
  2
*D1
 70
1
 10
0.0
 20
0.0
 30
0.0
  3
*D1
  1

  0
LINE
  5
EB
330
E8
100
AcDbEntity
  8
0
100
AcDbLine
 10
-2400.0
 20
300.0
 30
0.0
 11
-2400.0
 21
1025.0
 31
0.0
  0
LINE
  5
EC
330
E8
100
AcDbEntity
  8
0
100
AcDbLine
 10
-2100.0
 20
300.0
 30
0.0
 11
-2100.0
 21
1025.0
 31
0.0
  0
INSERT
  5
F1
330
E8
100
AcDbEntity
  8
A-DIMS
100
AcDbBlockReference
  2
_OBLIQUE
 10
-2400.0
 20
950.0
 30
0.0
 41
120.0
 42
120.0
  0
INSERT
  5
F3
330
E8
100
AcDbEntity
  8
A-DIMS
100
AcDbBlockReference
  2
_OBLIQUE
 10
-2100.0
 20
950.0
 30
0.0
 41
120.0
 42
120.0
  0
LINE
  5
F5
330
E8
100
AcDbEntity
  8
0
100
AcDbLine
 10
-2400.0
 20
950.0
 30
0.0
 11
-2100.0
 21
950.0
 31
0.0
  0
MTEXT
  5
F6
330
E8
100
AcDbEntity
  8
A-DIMS
100
AcDbMText
 10
-2250.0
 20
1122.5
 30
0.0
 40
125.0
 71
5
  1
300
  7
ARIAL
  0
POINT
  5
F7
330
E8
100
AcDbEntity
  8
Defpoints
100
AcDbPoint
 10
-2400.0
 20
950.0
 30
0.0
  0
POINT
  5
F8
330
E8
100
AcDbEntity
  8
Defpoints
100
AcDbPoint
 10
-2400.0
 20
250.0
 30
0.0
  0
POINT
  5
F9
330
E8
100
AcDbEntity
  8
Defpoints
100
AcDbPoint
 10
-2100.0
 20
250.0
 30
0.0
  0
ENDBLK
  5
EA
330
E8
100
AcDbEntity
  8
0
100
AcDbBlockEnd
  0
BLOCK
  5
EE
330
ED
100
AcDbEntity
  8
0
100
AcDbBlockBegin
  2
_OBLIQUE
 70
0
 10
0.0
 20
0.0
 30
0.0
  3
_OBLIQUE
  1

  0
LINE
  5
F0
330
ED
100
AcDbEntity
  8
0
  6
BYBLOCK
 62
0
100
AcDbLine
 10
-0.5
 20
-0.5
 30
0.0
 11
0.5
 21
0.5
 31
0.0
  0
ENDBLK
  5
EF
330
ED
100
AcDbEntity
  8
0
100
AcDbBlockEnd
  0
BLOCK
  5
FC
330
FB
100
AcDbEntity
  8
0
100
AcDbBlockBegin
  2
*D2
 70
1
 10
0.0
 20
0.0
 30
0.0
  3
*D2
  1

  0
LINE
  5
FE
330
FB
100
AcDbEntity
  8
0
100
AcDbLine
 10
-2100.0
 20
300.0
 30
0.0
 11
-2100.0
 21
1025.0
 31
0.0
  0
LINE
  5
FF
330
FB
100
AcDbEntity
  8
0
100
AcDbLine
 10
10650.0
 20
300.0
 30
0.0
 11
10650.0
 21
1025.0
 31
0.0
  0
INSERT
  5
100
330
FB
100
AcDbEntity
  8
A-DIMS
100
AcDbBlockReference
  2
_OBLIQUE
 10
-2100.0
 20
950.0
 30
0.0
 41
120.0
 42
120.0
  0
INSERT
  5
102
330
FB
100
AcDbEntity
  8
A-DIMS
100
AcDbBlockReference
  2
_OBLIQUE
 10
10650.0
 20
950.0
 30
0.0
 41
120.0
 42
120.0
  0
LINE
  5
104
330
FB
100
AcDbEntity
  8
0
100
AcDbLine
 10
-2100.0
 20
950.0
 30
0.0
 11
10650.0
 21
950.0
 31
0.0
  0
MTEXT
  5
105
330
FB
100
AcDbEntity
  8
A-DIMS
100
AcDbMText
 10
4275.0
 20
1047.5
 30
0.0
 40
125.0
 71
5
  1
12750
  7
ARIAL
  0
POINT
  5
106
330
FB
100
AcDbEntity
  8
Defpoints
100
AcDbPoint
 10
-2100.0
 20
950.0
 30
0.0
  0
POINT
  5
107
330
FB
100
AcDbEntity
  8
Defpoints
100
AcDbPoint
 10
-2100.0
 20
250.0
 30
0.0
  0
POINT
  5
108
330
FB
100
AcDbEntity
  8
Defpoints
100
AcDbPoint
 10
10650.0
 20
250.0
 30
0.0
  0
ENDBLK
  5
FD
330
FB
100
AcDbEntity
  8
0
100
AcDbBlockEnd
  0
BLOCK
  5
10B
330
10A
100
AcDbEntity
  8
0
100
AcDbBlockBegin
  2
*D3
 70
1
 10
0.0
 20
0.0
 30
0.0
  3
*D3
  1

  0
LINE
  5
10D
330
10A
100
AcDbEntity
  8
0
100
AcDbLine
 10
10650.0
 20
300.0
 30
0.0
 11
10650.0
 21
1025.0
 31
0.0
  0
LINE
  5
10E
330
10A
100
AcDbEntity
  8
0
100
AcDbLine
 10
10850.0
 20
300.0
 30
0.0
 11
10850.0
 21
1025.0
 31
0.0
  0
INSERT
  5
10F
330
10A
100
AcDbEntity
  8
A-DIMS
100
AcDbBlockReference
  2
_OBLIQUE
 10
10650.0
 20
950.0
 30
0.0
 41
120.0
 42
120.0
  0
INSERT
  5
111
330
10A
100
AcDbEntity
  8
A-DIMS
100
AcDbBlockReference
  2
_OBLIQUE
 10
10850.0
 20
950.0
 30
0.0
 41
120.0
 42
120.0
  0
LINE
  5
113
330
10A
100
AcDbEntity
  8
0
100
AcDbLine
 10
10650.0
 20
950.0
 30
0.0
 11
10850.0
 21
950.0
 31
0.0
  0
MTEXT
  5
114
330
10A
100
AcDbEntity
  8
A-DIMS
100
AcDbMText
 10
10750.0
 20
1122.5
 30
0.0
 40
125.0
 71
5
  1
200
  7
ARIAL
  0
POINT
  5
115
330
10A
100
AcDbEntity
  8
Defpoints
100
AcDbPoint
 10
10650.0
 20
950.0
 30
0.0
  0
POINT
  5
116
330
10A
100
AcDbEntity
  8
Defpoints
100
AcDbPoint
 10
10650.0
 20
250.0
 30
0.0
  0
POINT
  5
117
330
10A
100
AcDbEntity
  8
Defpoints
100
AcDbPoint
 10
10850.0
 20
250.0
 30
0.0
  0
ENDBLK
  5
10C
330
10A
100
AcDbEntity
  8
0
100
AcDbBlockEnd
  0
BLOCK
  5
11A
330
119
100
AcDbEntity
  8
0
100
AcDbBlockBegin
  2
*D4
 70
1
 10
0.0
 20
0.0
 30
0.0
  3
*D4
  1

  0
LINE
  5
11C
330
119
100
AcDbEntity
  8
0
100
AcDbLine
 10
10850.0
 20
300.0
 30
0.0
 11
10850.0
 21
1025.0
 31
0.0
  0
LINE
  5
11D
330
119
100
AcDbEntity
  8
0
100
AcDbLine
 10
11810.0
 20
300.0
 30
0.0
 11
11810.0
 21
1025.0
 31
0.0
  0
INSERT
  5
11E
330
119
100
AcDbEntity
  8
A-DIMS
100
AcDbBlockReference
  2
_OBLIQUE
 10
10850.0
 20
950.0
 30
0.0
 41
120.0
 42
120.0
  0
INSERT
  5
120
330
119
100
AcDbEntity
  8
A-DIMS
100
AcDbBlockReference
  2
_OBLIQUE
 10
11810.0
 20
950.0
 30
0.0
 41
120.0
 42
120.0
  0
LINE
  5
122
330
119
100
AcDbEntity
  8
0
100
AcDbLine
 10
10850.0
 20
950.0
 30
0.0
 11
11810.0
 21
950.0
 31
0.0
  0
MTEXT
  5
123
330
119
100
AcDbEntity
  8
A-DIMS
100
AcDbMText
 10
11330.0
 20
1047.5
 30
0.0
 40
125.0
 71
5
  1
960
  7
ARIAL
  0
POINT
  5
124
330
119
100
AcDbEntity
  8
Defpoints
100
AcDbPoint
 10
10850.0
 20
950.0
 30
0.0
  0
POINT
  5
125
330
119
100
AcDbEntity
  8
Defpoints
100
AcDbPoint
 10
10850.0
 20
250.0
 30
0.0
  0
POINT
  5
126
330
119
100
AcDbEntity
  8
Defpoints
100
AcDbPoint
 10
11810.0
 20
250.0
 30
0.0
  0
ENDBLK
  5
11B
330
119
100
AcDbEntity
  8
0
100
AcDbBlockEnd
  0
BLOCK
  5
129
330
128
100
AcDbEntity
  8
0
100
AcDbBlockBegin
  2
*D5
 70
1
 10
0.0
 20
0.0
 30
0.0
  3
*D5
  1

  0
LINE
  5
12B
330
128
100
AcDbEntity
  8
0
100
AcDbLine
 10
11810.0
 20
300.0
 30
0.0
 11
11810.0
 21
1025.0
 31
0.0
  0
LINE
  5
12C
330
128
100
AcDbEntity
  8
0
100
AcDbLine
 10
12110.0
 20
300.0
 30
0.0
 11
12110.0
 21
1025.0
 31
0.0
  0
INSERT
  5
12D
330
128
100
AcDbEntity
  8
A-DIMS
100
AcDbBlockReference
  2
_OBLIQUE
 10
11810.0
 20
950.0
 30
0.0
 41
120.0
 42
120.0
  0
INSERT
  5
12F
330
128
100
AcDbEntity
  8
A-DIMS
100
AcDbBlockReference
  2
_OBLIQUE
 10
12110.0
 20
950.0
 30
0.0
 41
120.0
 42
120.0
  0
LINE
  5
131
330
128
100
AcDbEntity
  8
0
100
AcDbLine
 10
11810.0
 20
950.0
 30
0.0
 11
12110.0
 21
950.0
 31
0.0
  0
MTEXT
  5
132
330
128
100
AcDbEntity
  8
A-DIMS
100
AcDbMText
 10
11960.0
 20
1122.5
 30
0.0
 40
125.0
 71
5
  1
300
  7
ARIAL
  0
POINT
  5
133
330
128
100
AcDbEntity
  8
Defpoints
100
AcDbPoint
 10
11810.0
 20
950.0
 30
0.0
  0
POINT
  5
134
330
128
100
AcDbEntity
  8
Defpoints
100
AcDbPoint
 10
11810.0
 20
250.0
 30
0.0
  0
POINT
  5
135
330
128
100
AcDbEntity
  8
Defpoints
100
AcDbPoint
 10
12110.0
 20
250.0
 30
0.0
  0
ENDBLK
  5
12A
330
128
100
AcDbEntity
  8
0
100
AcDbBlockEnd
  0
BLOCK
  5
138
330
137
100
AcDbEntity
  8
0
100
AcDbBlockBegin
  2
*D6
 70
1
 10
0.0
 20
0.0
 30
0.0
  3
*D6
  1

  0
LINE
  5
13A
330
137
100
AcDbEntity
  8
0
100
AcDbLine
 10
-2400.0
 20
300.0
 30
0.0
 11
-2400.0
 21
1625.0
 31
0.0
  0
LINE
  5
13B
330
137
100
AcDbEntity
  8
0
100
AcDbLine
 10
12110.0
 20
300.0
 30
0.0
 11
12110.0
 21
1625.0
 31
0.0
  0
INSERT
  5
13C
330
137
100
AcDbEntity
  8
A-DIMS
100
AcDbBlockReference
  2
_OBLIQUE
 10
-2400.0
 20
1550.0
 30
0.0
 41
120.0
 42
120.0
  0
INSERT
  5
13E
330
137
100
AcDbEntity
  8
A-DIMS
100
AcDbBlockReference
  2
_OBLIQUE
 10
12110.0
 20
1550.0
 30
0.0
 41
120.0
 42
120.0
  0
LINE
  5
140
330
137
100
AcDbEntity
  8
0
100
AcDbLine
 10
-2400.0
 20
1550.0
 30
0.0
 11
12110.0
 21
1550.0
 31
0.0
  0
MTEXT
  5
141
330
137
100
AcDbEntity
  8
A-DIMS
100
AcDbMText
 10
4855.0
 20
1647.5
 30
0.0
 40
125.0
 71
5
  1
14510
  7
ARIAL
  0
POINT
  5
142
330
137
100
AcDbEntity
  8
Defpoints
100
AcDbPoint
 10
-2400.0
 20
1550.0
 30
0.0
  0
POINT
  5
143
330
137
100
AcDbEntity
  8
Defpoints
100
AcDbPoint
 10
-2400.0
 20
250.0
 30
0.0
  0
POINT
  5
144
330
137
100
AcDbEntity
  8
Defpoints
100
AcDbPoint
 10
12110.0
 20
250.0
 30
0.0
  0
ENDBLK
  5
139
330
137
100
AcDbEntity
  8
0
100
AcDbBlockEnd
  0
BLOCK
  5
147
330
146
100
AcDbEntity
  8
0
100
AcDbBlockBegin
  2
*D7
 70
1
 10
0.0
 20
0.0
 30
0.0
  3
*D7
  1

  0
LINE
  5
149
330
146
100
AcDbEntity
  8
0
100
AcDbLine
 10
-200.0
 20
-6300.0
 30
0.0
 11
-200.0
 21
-7025.0
 31
0.0
  0
LINE
  5
14A
330
146
100
AcDbEntity
  8
0
100
AcDbLine
 10
0.0
 20
-6300.0
 30
0.0
 11
0.0
 21
-7025.0
 31
0.0
  0
INSERT
  5
14B
330
146
100
AcDbEntity
  8
A-DIMS
100
AcDbBlockReference
  2
_OBLIQUE
 10
-200.0
 20
-6950.0
 30
0.0
 41
120.0
 42
120.0
  0
INSERT
  5
14D
330
146
100
AcDbEntity
  8
A-DIMS
100
AcDbBlockReference
  2
_OBLIQUE
 10
0.0
 20
-6950.0
 30
0.0
 41
120.0
 42
120.0
  0
LINE
  5
14F
330
146
100
AcDbEntity
  8
0
100
AcDbLine
 10
-200.0
 20
-6950.0
 30
0.0
 11
0.0
 21
-6950.0
 31
0.0
  0
MTEXT
  5
150
330
146
100
AcDbEntity
  8
A-DIMS
100
AcDbMText
 10
-100.0
 20
-6777.5
 30
0.0
 40
125.0
 71
5
  1
200
  7
ARIAL
  0
POINT
  5
151
330
146
100
AcDbEntity
  8
Defpoints
100
AcDbPoint
 10
-200.0
 20
-6950.0
 30
0.0
  0
POINT
  5
152
330
146
100
AcDbEntity
  8
Defpoints
100
AcDbPoint
 10
-200.0
 20
-6250.0
 30
0.0
  0
POINT
  5
153
330
146
100
AcDbEntity
  8
Defpoints
100
AcDbPoint
 10
0.0
 20
-6250.0
 30
0.0
  0
ENDBLK
  5
148
330
146
100
AcDbEntity
  8
0
100
AcDbBlockEnd
  0
BLOCK
  5
156
330
155
100
AcDbEntity
  8
0
100
AcDbBlockBegin
  2
*D8
 70
1
 10
0.0
 20
0.0
 30
0.0
  3
*D8
  1

  0
LINE
  5
158
330
155
100
AcDbEntity
  8
0
100
AcDbLine
 10
0.0
 20
-6300.0
 30
0.0
 11
0.0
 21
-7025.0
 31
0.0
  0
LINE
  5
159
330
155
100
AcDbEntity
  8
0
100
AcDbLine
 10
11810.0
 20
-6300.0
 30
0.0
 11
11810.0
 21
-7025.0
 31
0.0
  0
INSERT
  5
15A
330
155
100
AcDbEntity
  8
A-DIMS
100
AcDbBlockReference
  2
_OBLIQUE
 10
0.0
 20
-6950.0
 30
0.0
 41
120.0
 42
120.0
  0
INSERT
  5
15C
330
155
100
AcDbEntity
  8
A-DIMS
100
AcDbBlockReference
  2
_OBLIQUE
 10
11810.0
 20
-6950.0
 30
0.0
 41
120.0
 42
120.0
  0
LINE
  5
15E
330
155
100
AcDbEntity
  8
0
100
AcDbLine
 10
0.0
 20
-6950.0
 30
0.0
 11
11810.0
 21
-6950.0
 31
0.0
  0
MTEXT
  5
15F
330
155
100
AcDbEntity
  8
A-DIMS
100
AcDbMText
 10
5905.0
 20
-6852.5
 30
0.0
 40
125.0
 71
5
  1
11810
  7
ARIAL
  0
POINT
  5
160
330
155
100
AcDbEntity
  8
Defpoints
100
AcDbPoint
 10
0.0
 20
-6950.0
 30
0.0
  0
POINT
  5
161
330
155
100
AcDbEntity
  8
Defpoints
100
AcDbPoint
 10
0.0
 20
-6250.0
 30
0.0
  0
POINT
  5
162
330
155
100
AcDbEntity
  8
Defpoints
100
AcDbPoint
 10
11810.0
 20
-6250.0
 30
0.0
  0
ENDBLK
  5
157
330
155
100
AcDbEntity
  8
0
100
AcDbBlockEnd
  0
BLOCK
  5
165
330
164
100
AcDbEntity
  8
0
100
AcDbBlockBegin
  2
*D9
 70
1
 10
0.0
 20
0.0
 30
0.0
  3
*D9
  1

  0
LINE
  5
167
330
164
100
AcDbEntity
  8
0
100
AcDbLine
 10
11810.0
 20
-6300.0
 30
0.0
 11
11810.0
 21
-7025.0
 31
0.0
  0
LINE
  5
168
330
164
100
AcDbEntity
  8
0
100
AcDbLine
 10
12110.0
 20
-6300.0
 30
0.0
 11
12110.0
 21
-7025.0
 31
0.0
  0
INSERT
  5
169
330
164
100
AcDbEntity
  8
A-DIMS
100
AcDbBlockReference
  2
_OBLIQUE
 10
11810.0
 20
-6950.0
 30
0.0
 41
120.0
 42
120.0
  0
INSERT
  5
16B
330
164
100
AcDbEntity
  8
A-DIMS
100
AcDbBlockReference
  2
_OBLIQUE
 10
12110.0
 20
-6950.0
 30
0.0
 41
120.0
 42
120.0
  0
LINE
  5
16D
330
164
100
AcDbEntity
  8
0
100
AcDbLine
 10
11810.0
 20
-6950.0
 30
0.0
 11
12110.0
 21
-6950.0
 31
0.0
  0
MTEXT
  5
16E
330
164
100
AcDbEntity
  8
A-DIMS
100
AcDbMText
 10
11960.0
 20
-6777.5
 30
0.0
 40
125.0
 71
5
  1
300
  7
ARIAL
  0
POINT
  5
16F
330
164
100
AcDbEntity
  8
Defpoints
100
AcDbPoint
 10
11810.0
 20
-6950.0
 30
0.0
  0
POINT
  5
170
330
164
100
AcDbEntity
  8
Defpoints
100
AcDbPoint
 10
11810.0
 20
-6250.0
 30
0.0
  0
POINT
  5
171
330
164
100
AcDbEntity
  8
Defpoints
100
AcDbPoint
 10
12110.0
 20
-6250.0
 30
0.0
  0
ENDBLK
  5
166
330
164
100
AcDbEntity
  8
0
100
AcDbBlockEnd
  0
BLOCK
  5
174
330
173
100
AcDbEntity
  8
0
100
AcDbBlockBegin
  2
*D10
 70
1
 10
0.0
 20
0.0
 30
0.0
  3
*D10
  1

  0
LINE
  5
176
330
173
100
AcDbEntity
  8
0
100
AcDbLine
 10
-200.0
 20
-6300.0
 30
0.0
 11
-200.0
 21
-7625.0
 31
0.0
  0
LINE
  5
177
330
173
100
AcDbEntity
  8
0
100
AcDbLine
 10
12110.0
 20
-6300.0
 30
0.0
 11
12110.0
 21
-7625.0
 31
0.0
  0
INSERT
  5
178
330
173
100
AcDbEntity
  8
A-DIMS
100
AcDbBlockReference
  2
_OBLIQUE
 10
-200.0
 20
-7550.0
 30
0.0
 41
120.0
 42
120.0
  0
INSERT
  5
17A
330
173
100
AcDbEntity
  8
A-DIMS
100
AcDbBlockReference
  2
_OBLIQUE
 10
12110.0
 20
-7550.0
 30
0.0
 41
120.0
 42
120.0
  0
LINE
  5
17C
330
173
100
AcDbEntity
  8
0
100
AcDbLine
 10
-200.0
 20
-7550.0
 30
0.0
 11
12110.0
 21
-7550.0
 31
0.0
  0
MTEXT
  5
17D
330
173
100
AcDbEntity
  8
A-DIMS
100
AcDbMText
 10
5955.0
 20
-7452.5
 30
0.0
 40
125.0
 71
5
  1
12310
  7
ARIAL
  0
POINT
  5
17E
330
173
100
AcDbEntity
  8
Defpoints
100
AcDbPoint
 10
-200.0
 20
-7550.0
 30
0.0
  0
POINT
  5
17F
330
173
100
AcDbEntity
  8
Defpoints
100
AcDbPoint
 10
-200.0
 20
-6250.0
 30
0.0
  0
POINT
  5
180
330
173
100
AcDbEntity
  8
Defpoints
100
AcDbPoint
 10
12110.0
 20
-6250.0
 30
0.0
  0
ENDBLK
  5
175
330
173
100
AcDbEntity
  8
0
100
AcDbBlockEnd
  0
BLOCK
  5
183
330
182
100
AcDbEntity
  8
0
100
AcDbBlockBegin
  2
*D11
 70
1
 10
0.0
 20
0.0
 30
0.0
  3
*D11
  1

  0
LINE
  5
185
330
182
100
AcDbEntity
  8
0
100
AcDbLine
 10
-2400.0
 20
-4450.0
 30
0.0
 11
-2400.0
 21
-5975.0
 31
0.0
  0
LINE
  5
186
330
182
100
AcDbEntity
  8
0
100
AcDbLine
 10
-1450.0
 20
-4450.0
 30
0.0
 11
-1450.0
 21
-5975.0
 31
0.0
  0
INSERT
  5
187
330
182
100
AcDbEntity
  8
A-DIMS
100
AcDbBlockReference
  2
_OBLIQUE
 10
-2400.0
 20
-5900.0
 30
0.0
 41
120.0
 42
120.0
  0
INSERT
  5
189
330
182
100
AcDbEntity
  8
A-DIMS
100
AcDbBlockReference
  2
_OBLIQUE
 10
-1450.0
 20
-5900.0
 30
0.0
 41
120.0
 42
120.0
  0
LINE
  5
18B
330
182
100
AcDbEntity
  8
0
100
AcDbLine
 10
-2400.0
 20
-5900.0
 30
0.0
 11
-1450.0
 21
-5900.0
 31
0.0
  0
MTEXT
  5
18C
330
182
100
AcDbEntity
  8
A-DIMS
100
AcDbMText
 10
-1925.0
 20
-5802.5
 30
0.0
 40
125.0
 71
5
  1
950
  7
ARIAL
  0
POINT
  5
18D
330
182
100
AcDbEntity
  8
Defpoints
100
AcDbPoint
 10
-2400.0
 20
-5900.0
 30
0.0
  0
POINT
  5
18E
330
182
100
AcDbEntity
  8
Defpoints
100
AcDbPoint
 10
-2400.0
 20
-4400.0
 30
0.0
  0
POINT
  5
18F
330
182
100
AcDbEntity
  8
Defpoints
100
AcDbPoint
 10
-1450.0
 20
-4400.0
 30
0.0
  0
ENDBLK
  5
184
330
182
100
AcDbEntity
  8
0
100
AcDbBlockEnd
  0
BLOCK
  5
192
330
191
100
AcDbEntity
  8
0
100
AcDbBlockBegin
  2
*D12
 70
1
 10
0.0
 20
0.0
 30
0.0
  3
*D12
  1

  0
LINE
  5
194
330
191
100
AcDbEntity
  8
0
100
AcDbLine
 10
-1450.0
 20
-4450.0
 30
0.0
 11
-1450.0
 21
-5975.0
 31
0.0
  0
LINE
  5
195
330
191
100
AcDbEntity
  8
0
100
AcDbLine
 10
-450.0
 20
-4450.0
 30
0.0
 11
-450.0
 21
-5975.0
 31
0.0
  0
INSERT
  5
196
330
191
100
AcDbEntity
  8
A-DIMS
100
AcDbBlockReference
  2
_OBLIQUE
 10
-1450.0
 20
-5900.0
 30
0.0
 41
120.0
 42
120.0
  0
INSERT
  5
198
330
191
100
AcDbEntity
  8
A-DIMS
100
AcDbBlockReference
  2
_OBLIQUE
 10
-450.0
 20
-5900.0
 30
0.0
 41
120.0
 42
120.0
  0
LINE
  5
19A
330
191
100
AcDbEntity
  8
0
100
AcDbLine
 10
-1450.0
 20
-5900.0
 30
0.0
 11
-450.0
 21
-5900.0
 31
0.0
  0
MTEXT
  5
19B
330
191
100
AcDbEntity
  8
A-DIMS
100
AcDbMText
 10
-950.0
 20
-5802.5
 30
0.0
 40
125.0
 71
5
  1
1000
  7
ARIAL
  0
POINT
  5
19C
330
191
100
AcDbEntity
  8
Defpoints
100
AcDbPoint
 10
-1450.0
 20
-5900.0
 30
0.0
  0
POINT
  5
19D
330
191
100
AcDbEntity
  8
Defpoints
100
AcDbPoint
 10
-1450.0
 20
-4400.0
 30
0.0
  0
POINT
  5
19E
330
191
100
AcDbEntity
  8
Defpoints
100
AcDbPoint
 10
-450.0
 20
-4400.0
 30
0.0
  0
ENDBLK
  5
193
330
191
100
AcDbEntity
  8
0
100
AcDbBlockEnd
  0
BLOCK
  5
1A1
330
1A0
100
AcDbEntity
  8
0
100
AcDbBlockBegin
  2
*D13
 70
1
 10
0.0
 20
0.0
 30
0.0
  3
*D13
  1

  0
LINE
  5
1A3
330
1A0
100
AcDbEntity
  8
0
100
AcDbLine
 10
-450.0
 20
-4450.0
 30
0.0
 11
-450.0
 21
-5975.0
 31
0.0
  0
LINE
  5
1A4
330
1A0
100
AcDbEntity
  8
0
100
AcDbLine
 10
-200.0
 20
-4450.0
 30
0.0
 11
-200.0
 21
-5975.0
 31
0.0
  0
INSERT
  5
1A5
330
1A0
100
AcDbEntity
  8
A-DIMS
100
AcDbBlockReference
  2
_OBLIQUE
 10
-450.0
 20
-5900.0
 30
0.0
 41
120.0
 42
120.0
  0
INSERT
  5
1A7
330
1A0
100
AcDbEntity
  8
A-DIMS
100
AcDbBlockReference
  2
_OBLIQUE
 10
-200.0
 20
-5900.0
 30
0.0
 41
120.0
 42
120.0
  0
LINE
  5
1A9
330
1A0
100
AcDbEntity
  8
0
100
AcDbLine
 10
-450.0
 20
-5900.0
 30
0.0
 11
-200.0
 21
-5900.0
 31
0.0
  0
MTEXT
  5
1AA
330
1A0
100
AcDbEntity
  8
A-DIMS
100
AcDbMText
 10
-325.0
 20
-5727.5
 30
0.0
 40
125.0
 71
5
  1
250
  7
ARIAL
  0
POINT
  5
1AB
330
1A0
100
AcDbEntity
  8
Defpoints
100
AcDbPoint
 10
-450.0
 20
-5900.0
 30
0.0
  0
POINT
  5
1AC
330
1A0
100
AcDbEntity
  8
Defpoints
100
AcDbPoint
 10
-450.0
 20
-4400.0
 30
0.0
  0
POINT
  5
1AD
330
1A0
100
AcDbEntity
  8
Defpoints
100
AcDbPoint
 10
-200.0
 20
-4400.0
 30
0.0
  0
ENDBLK
  5
1A2
330
1A0
100
AcDbEntity
  8
0
100
AcDbBlockEnd
  0
BLOCK
  5
1B0
330
1AF
100
AcDbEntity
  8
0
100
AcDbBlockBegin
  2
*D14
 70
1
 10
0.0
 20
0.0
 30
0.0
  3
*D14
  1

  0
LINE
  5
1B2
330
1AF
100
AcDbEntity
  8
0
100
AcDbLine
 10
-2450.0
 20
250.0
 30
0.0
 11
-3175.0
 21
250.0
 31
0.0
  0
LINE
  5
1B3
330
1AF
100
AcDbEntity
  8
0
100
AcDbLine
 10
-2450.0
 20
0.0
 30
0.0
 11
-3175.0
 21
0.0
 31
0.0
  0
INSERT
  5
1B4
330
1AF
100
AcDbEntity
  8
A-DIMS
100
AcDbBlockReference
  2
_OBLIQUE
 10
-3100.0
 20
250.0
 30
0.0
 41
120.0
 42
120.0
 50
90.0
  0
INSERT
  5
1B6
330
1AF
100
AcDbEntity
  8
A-DIMS
100
AcDbBlockReference
  2
_OBLIQUE
 10
-3100.0
 20
0.0
 30
0.0
 41
120.0
 42
120.0
 50
90.0
  0
LINE
  5
1B8
330
1AF
100
AcDbEntity
  8
0
100
AcDbLine
 10
-3100.0
 20
250.0
 30
0.0
 11
-3100.0
 21
0.0
 31
0.0
  0
MTEXT
  5
1B9
330
1AF
100
AcDbEntity
  8
A-DIMS
100
AcDbMText
 10
-2927.5
 20
125.0
 30
0.0
 40
125.0
 71
5
  1
250
  7
ARIAL
 50
90.0
  0
POINT
  5
1BA
330
1AF
100
AcDbEntity
  8
Defpoints
100
AcDbPoint
 10
-3100.0
 20
250.0
 30
0.0
  0
POINT
  5
1BB
330
1AF
100
AcDbEntity
  8
Defpoints
100
AcDbPoint
 10
-2400.0
 20
250.0
 30
0.0
  0
POINT
  5
1BC
330
1AF
100
AcDbEntity
  8
Defpoints
100
AcDbPoint
 10
-2400.0
 20
0.0
 30
0.0
  0
ENDBLK
  5
1B1
330
1AF
100
AcDbEntity
  8
0
100
AcDbBlockEnd
  0
BLOCK
  5
1BF
330
1BE
100
AcDbEntity
  8
0
100
AcDbBlockBegin
  2
*D15
 70
1
 10
0.0
 20
0.0
 30
0.0
  3
*D15
  1

  0
LINE
  5
1C1
330
1BE
100
AcDbEntity
  8
0
100
AcDbLine
 10
-2450.0
 20
0.0
 30
0.0
 11
-3175.0
 21
0.0
 31
0.0
  0
LINE
  5
1C2
330
1BE
100
AcDbEntity
  8
0
100
AcDbLine
 10
-2450.0
 20
-4200.0
 30
0.0
 11
-3175.0
 21
-4200.0
 31
0.0
  0
INSERT
  5
1C3
330
1BE
100
AcDbEntity
  8
A-DIMS
100
AcDbBlockReference
  2
_OBLIQUE
 10
-3100.0
 20
0.0
 30
0.0
 41
120.0
 42
120.0
 50
90.0
  0
INSERT
  5
1C5
330
1BE
100
AcDbEntity
  8
A-DIMS
100
AcDbBlockReference
  2
_OBLIQUE
 10
-3100.0
 20
-4200.0
 30
0.0
 41
120.0
 42
120.0
 50
90.0
  0
LINE
  5
1C7
330
1BE
100
AcDbEntity
  8
0
100
AcDbLine
 10
-3100.0
 20
0.0
 30
0.0
 11
-3100.0
 21
-4200.0
 31
0.0
  0
MTEXT
  5
1C8
330
1BE
100
AcDbEntity
  8
A-DIMS
100
AcDbMText
 10
-3002.5
 20
-2100.0
 30
0.0
 40
125.0
 71
5
  1
4200
  7
ARIAL
 50
90.0
  0
POINT
  5
1C9
330
1BE
100
AcDbEntity
  8
Defpoints
100
AcDbPoint
 10
-3100.0
 20
0.0
 30
0.0
  0
POINT
  5
1CA
330
1BE
100
AcDbEntity
  8
Defpoints
100
AcDbPoint
 10
-2400.0
 20
0.0
 30
0.0
  0
POINT
  5
1CB
330
1BE
100
AcDbEntity
  8
Defpoints
100
AcDbPoint
 10
-2400.0
 20
-4200.0
 30
0.0
  0
ENDBLK
  5
1C0
330
1BE
100
AcDbEntity
  8
0
100
AcDbBlockEnd
  0
BLOCK
  5
1CE
330
1CD
100
AcDbEntity
  8
0
100
AcDbBlockBegin
  2
*D16
 70
1
 10
0.0
 20
0.0
 30
0.0
  3
*D16
  1

  0
LINE
  5
1D0
330
1CD
100
AcDbEntity
  8
0
100
AcDbLine
 10
-2450.0
 20
-4200.0
 30
0.0
 11
-3175.0
 21
-4200.0
 31
0.0
  0
LINE
  5
1D1
330
1CD
100
AcDbEntity
  8
0
100
AcDbLine
 10
-2450.0
 20
-4400.0
 30
0.0
 11
-3175.0
 21
-4400.0
 31
0.0
  0
INSERT
  5
1D2
330
1CD
100
AcDbEntity
  8
A-DIMS
100
AcDbBlockReference
  2
_OBLIQUE
 10
-3100.0
 20
-4200.0
 30
0.0
 41
120.0
 42
120.0
 50
90.0
  0
INSERT
  5
1D4
330
1CD
100
AcDbEntity
  8
A-DIMS
100
AcDbBlockReference
  2
_OBLIQUE
 10
-3100.0
 20
-4400.0
 30
0.0
 41
120.0
 42
120.0
 50
90.0
  0
LINE
  5
1D6
330
1CD
100
AcDbEntity
  8
0
100
AcDbLine
 10
-3100.0
 20
-4200.0
 30
0.0
 11
-3100.0
 21
-4400.0
 31
0.0
  0
MTEXT
  5
1D7
330
1CD
100
AcDbEntity
  8
A-DIMS
100
AcDbMText
 10
-2927.5
 20
-4300.0
 30
0.0
 40
125.0
 71
5
  1
200
  7
ARIAL
 50
90.0
  0
POINT
  5
1D8
330
1CD
100
AcDbEntity
  8
Defpoints
100
AcDbPoint
 10
-3100.0
 20
-4200.0
 30
0.0
  0
POINT
  5
1D9
330
1CD
100
AcDbEntity
  8
Defpoints
100
AcDbPoint
 10
-2400.0
 20
-4200.0
 30
0.0
  0
POINT
  5
1DA
330
1CD
100
AcDbEntity
  8
Defpoints
100
AcDbPoint
 10
-2400.0
 20
-4400.0
 30
0.0
  0
ENDBLK
  5
1CF
330
1CD
100
AcDbEntity
  8
0
100
AcDbBlockEnd
  0
BLOCK
  5
1DD
330
1DC
100
AcDbEntity
  8
0
100
AcDbBlockBegin
  2
*D17
 70
1
 10
0.0
 20
0.0
 30
0.0
  3
*D17
  1

  0
LINE
  5
1DF
330
1DC
100
AcDbEntity
  8
0
100
AcDbLine
 10
-2450.0
 20
-4400.0
 30
0.0
 11
-3175.0
 21
-4400.0
 31
0.0
  0
LINE
  5
1E0
330
1DC
100
AcDbEntity
  8
0
100
AcDbLine
 10
-2450.0
 20
-6250.0
 30
0.0
 11
-3175.0
 21
-6250.0
 31
0.0
  0
INSERT
  5
1E1
330
1DC
100
AcDbEntity
  8
A-DIMS
100
AcDbBlockReference
  2
_OBLIQUE
 10
-3100.0
 20
-4400.0
 30
0.0
 41
120.0
 42
120.0
 50
90.0
  0
INSERT
  5
1E3
330
1DC
100
AcDbEntity
  8
A-DIMS
100
AcDbBlockReference
  2
_OBLIQUE
 10
-3100.0
 20
-6250.0
 30
0.0
 41
120.0
 42
120.0
 50
90.0
  0
LINE
  5
1E5
330
1DC
100
AcDbEntity
  8
0
100
AcDbLine
 10
-3100.0
 20
-4400.0
 30
0.0
 11
-3100.0
 21
-6250.0
 31
0.0
  0
MTEXT
  5
1E6
330
1DC
100
AcDbEntity
  8
A-DIMS
100
AcDbMText
 10
-3002.5
 20
-5325.0
 30
0.0
 40
125.0
 71
5
  1
1850
  7
ARIAL
 50
90.0
  0
POINT
  5
1E7
330
1DC
100
AcDbEntity
  8
Defpoints
100
AcDbPoint
 10
-3100.0
 20
-4400.0
 30
0.0
  0
POINT
  5
1E8
330
1DC
100
AcDbEntity
  8
Defpoints
100
AcDbPoint
 10
-2400.0
 20
-4400.0
 30
0.0
  0
POINT
  5
1E9
330
1DC
100
AcDbEntity
  8
Defpoints
100
AcDbPoint
 10
-2400.0
 20
-6250.0
 30
0.0
  0
ENDBLK
  5
1DE
330
1DC
100
AcDbEntity
  8
0
100
AcDbBlockEnd
  0
BLOCK
  5
1EC
330
1EB
100
AcDbEntity
  8
0
100
AcDbBlockBegin
  2
*D18
 70
1
 10
0.0
 20
0.0
 30
0.0
  3
*D18
  1

  0
LINE
  5
1EE
330
1EB
100
AcDbEntity
  8
0
100
AcDbLine
 10
-2450.0
 20
250.0
 30
0.0
 11
-3775.0
 21
250.0
 31
0.0
  0
LINE
  5
1EF
330
1EB
100
AcDbEntity
  8
0
100
AcDbLine
 10
-2450.0
 20
-6250.0
 30
0.0
 11
-3775.0
 21
-6250.0
 31
0.0
  0
INSERT
  5
1F0
330
1EB
100
AcDbEntity
  8
A-DIMS
100
AcDbBlockReference
  2
_OBLIQUE
 10
-3700.0
 20
250.0
 30
0.0
 41
120.0
 42
120.0
 50
90.0
  0
INSERT
  5
1F2
330
1EB
100
AcDbEntity
  8
A-DIMS
100
AcDbBlockReference
  2
_OBLIQUE
 10
-3700.0
 20
-6250.0
 30
0.0
 41
120.0
 42
120.0
 50
90.0
  0
LINE
  5
1F4
330
1EB
100
AcDbEntity
  8
0
100
AcDbLine
 10
-3700.0
 20
250.0
 30
0.0
 11
-3700.0
 21
-6250.0
 31
0.0
  0
MTEXT
  5
1F5
330
1EB
100
AcDbEntity
  8
A-DIMS
100
AcDbMText
 10
-3602.5
 20
-3000.0
 30
0.0
 40
125.0
 71
5
  1
6500
  7
ARIAL
 50
90.0
  0
POINT
  5
1F6
330
1EB
100
AcDbEntity
  8
Defpoints
100
AcDbPoint
 10
-3700.0
 20
250.0
 30
0.0
  0
POINT
  5
1F7
330
1EB
100
AcDbEntity
  8
Defpoints
100
AcDbPoint
 10
-2400.0
 20
250.0
 30
0.0
  0
POINT
  5
1F8
330
1EB
100
AcDbEntity
  8
Defpoints
100
AcDbPoint
 10
-2400.0
 20
-6250.0
 30
0.0
  0
ENDBLK
  5
1ED
330
1EB
100
AcDbEntity
  8
0
100
AcDbBlockEnd
  0
BLOCK
  5
1FB
330
1FA
100
AcDbEntity
  8
0
100
AcDbBlockBegin
  2
*D19
 70
1
 10
0.0
 20
0.0
 30
0.0
  3
*D19
  1

  0
LINE
  5
1FD
330
1FA
100
AcDbEntity
  8
0
100
AcDbLine
 10
12160.0
 20
250.0
 30
0.0
 11
12885.0
 21
250.0
 31
0.0
  0
LINE
  5
1FE
330
1FA
100
AcDbEntity
  8
0
100
AcDbLine
 10
12160.0
 20
0.0
 30
0.0
 11
12885.0
 21
0.0
 31
0.0
  0
INSERT
  5
1FF
330
1FA
100
AcDbEntity
  8
A-DIMS
100
AcDbBlockReference
  2
_OBLIQUE
 10
12810.0
 20
250.0
 30
0.0
 41
120.0
 42
120.0
 50
90.0
  0
INSERT
  5
201
330
1FA
100
AcDbEntity
  8
A-DIMS
100
AcDbBlockReference
  2
_OBLIQUE
 10
12810.0
 20
0.0
 30
0.0
 41
120.0
 42
120.0
 50
90.0
  0
LINE
  5
203
330
1FA
100
AcDbEntity
  8
0
100
AcDbLine
 10
12810.0
 20
250.0
 30
0.0
 11
12810.0
 21
0.0
 31
0.0
  0
MTEXT
  5
204
330
1FA
100
AcDbEntity
  8
A-DIMS
100
AcDbMText
 10
12982.5
 20
125.0
 30
0.0
 40
125.0
 71
5
  1
250
  7
ARIAL
 50
90.0
  0
POINT
  5
205
330
1FA
100
AcDbEntity
  8
Defpoints
100
AcDbPoint
 10
12810.0
 20
250.0
 30
0.0
  0
POINT
  5
206
330
1FA
100
AcDbEntity
  8
Defpoints
100
AcDbPoint
 10
12110.0
 20
250.0
 30
0.0
  0
POINT
  5
207
330
1FA
100
AcDbEntity
  8
Defpoints
100
AcDbPoint
 10
12110.0
 20
0.0
 30
0.0
  0
ENDBLK
  5
1FC
330
1FA
100
AcDbEntity
  8
0
100
AcDbBlockEnd
  0
BLOCK
  5
20A
330
209
100
AcDbEntity
  8
0
100
AcDbBlockBegin
  2
*D20
 70
1
 10
0.0
 20
0.0
 30
0.0
  3
*D20
  1

  0
LINE
  5
20C
330
209
100
AcDbEntity
  8
0
100
AcDbLine
 10
12160.0
 20
0.0
 30
0.0
 11
12885.0
 21
0.0
 31
0.0
  0
LINE
  5
20D
330
209
100
AcDbEntity
  8
0
100
AcDbLine
 10
12160.0
 20
-2750.0
 30
0.0
 11
12885.0
 21
-2750.0
 31
0.0
  0
INSERT
  5
20E
330
209
100
AcDbEntity
  8
A-DIMS
100
AcDbBlockReference
  2
_OBLIQUE
 10
12810.0
 20
0.0
 30
0.0
 41
120.0
 42
120.0
 50
90.0
  0
INSERT
  5
210
330
209
100
AcDbEntity
  8
A-DIMS
100
AcDbBlockReference
  2
_OBLIQUE
 10
12810.0
 20
-2750.0
 30
0.0
 41
120.0
 42
120.0
 50
90.0
  0
LINE
  5
212
330
209
100
AcDbEntity
  8
0
100
AcDbLine
 10
12810.0
 20
0.0
 30
0.0
 11
12810.0
 21
-2750.0
 31
0.0
  0
MTEXT
  5
213
330
209
100
AcDbEntity
  8
A-DIMS
100
AcDbMText
 10
12907.5
 20
-1375.0
 30
0.0
 40
125.0
 71
5
  1
2750
  7
ARIAL
 50
90.0
  0
POINT
  5
214
330
209
100
AcDbEntity
  8
Defpoints
100
AcDbPoint
 10
12810.0
 20
0.0
 30
0.0
  0
POINT
  5
215
330
209
100
AcDbEntity
  8
Defpoints
100
AcDbPoint
 10
12110.0
 20
0.0
 30
0.0
  0
POINT
  5
216
330
209
100
AcDbEntity
  8
Defpoints
100
AcDbPoint
 10
12110.0
 20
-2750.0
 30
0.0
  0
ENDBLK
  5
20B
330
209
100
AcDbEntity
  8
0
100
AcDbBlockEnd
  0
BLOCK
  5
219
330
218
100
AcDbEntity
  8
0
100
AcDbBlockBegin
  2
*D21
 70
1
 10
0.0
 20
0.0
 30
0.0
  3
*D21
  1

  0
LINE
  5
21B
330
218
100
AcDbEntity
  8
0
100
AcDbLine
 10
12160.0
 20
-2750.0
 30
0.0
 11
12885.0
 21
-2750.0
 31
0.0
  0
LINE
  5
21C
330
218
100
AcDbEntity
  8
0
100
AcDbLine
 10
12160.0
 20
-3450.0
 30
0.0
 11
12885.0
 21
-3450.0
 31
0.0
  0
INSERT
  5
21D
330
218
100
AcDbEntity
  8
A-DIMS
100
AcDbBlockReference
  2
_OBLIQUE
 10
12810.0
 20
-2750.0
 30
0.0
 41
120.0
 42
120.0
 50
90.0
  0
INSERT
  5
21F
330
218
100
AcDbEntity
  8
A-DIMS
100
AcDbBlockReference
  2
_OBLIQUE
 10
12810.0
 20
-3450.0
 30
0.0
 41
120.0
 42
120.0
 50
90.0
  0
LINE
  5
221
330
218
100
AcDbEntity
  8
0
100
AcDbLine
 10
12810.0
 20
-2750.0
 30
0.0
 11
12810.0
 21
-3450.0
 31
0.0
  0
MTEXT
  5
222
330
218
100
AcDbEntity
  8
A-DIMS
100
AcDbMText
 10
12907.5
 20
-3100.0
 30
0.0
 40
125.0
 71
5
  1
700
  7
ARIAL
 50
90.0
  0
POINT
  5
223
330
218
100
AcDbEntity
  8
Defpoints
100
AcDbPoint
 10
12810.0
 20
-2750.0
 30
0.0
  0
POINT
  5
224
330
218
100
AcDbEntity
  8
Defpoints
100
AcDbPoint
 10
12110.0
 20
-2750.0
 30
0.0
  0
POINT
  5
225
330
218
100
AcDbEntity
  8
Defpoints
100
AcDbPoint
 10
12110.0
 20
-3450.0
 30
0.0
  0
ENDBLK
  5
21A
330
218
100
AcDbEntity
  8
0
100
AcDbBlockEnd
  0
BLOCK
  5
228
330
227
100
AcDbEntity
  8
0
100
AcDbBlockBegin
  2
*D22
 70
1
 10
0.0
 20
0.0
 30
0.0
  3
*D22
  1

  0
LINE
  5
22A
330
227
100
AcDbEntity
  8
0
100
AcDbLine
 10
12160.0
 20
-3450.0
 30
0.0
 11
12885.0
 21
-3450.0
 31
0.0
  0
LINE
  5
22B
330
227
100
AcDbEntity
  8
0
100
AcDbLine
 10
12160.0
 20
-5700.0
 30
0.0
 11
12885.0
 21
-5700.0
 31
0.0
  0
INSERT
  5
22C
330
227
100
AcDbEntity
  8
A-DIMS
100
AcDbBlockReference
  2
_OBLIQUE
 10
12810.0
 20
-3450.0
 30
0.0
 41
120.0
 42
120.0
 50
90.0
  0
INSERT
  5
22E
330
227
100
AcDbEntity
  8
A-DIMS
100
AcDbBlockReference
  2
_OBLIQUE
 10
12810.0
 20
-5700.0
 30
0.0
 41
120.0
 42
120.0
 50
90.0
  0
LINE
  5
230
330
227
100
AcDbEntity
  8
0
100
AcDbLine
 10
12810.0
 20
-3450.0
 30
0.0
 11
12810.0
 21
-5700.0
 31
0.0
  0
MTEXT
  5
231
330
227
100
AcDbEntity
  8
A-DIMS
100
AcDbMText
 10
12907.5
 20
-4575.0
 30
0.0
 40
125.0
 71
5
  1
2250
  7
ARIAL
 50
90.0
  0
POINT
  5
232
330
227
100
AcDbEntity
  8
Defpoints
100
AcDbPoint
 10
12810.0
 20
-3450.0
 30
0.0
  0
POINT
  5
233
330
227
100
AcDbEntity
  8
Defpoints
100
AcDbPoint
 10
12110.0
 20
-3450.0
 30
0.0
  0
POINT
  5
234
330
227
100
AcDbEntity
  8
Defpoints
100
AcDbPoint
 10
12110.0
 20
-5700.0
 30
0.0
  0
ENDBLK
  5
229
330
227
100
AcDbEntity
  8
0
100
AcDbBlockEnd
  0
BLOCK
  5
237
330
236
100
AcDbEntity
  8
0
100
AcDbBlockBegin
  2
*D23
 70
1
 10
0.0
 20
0.0
 30
0.0
  3
*D23
  1

  0
LINE
  5
239
330
236
100
AcDbEntity
  8
0
100
AcDbLine
 10
12160.0
 20
-5700.0
 30
0.0
 11
12885.0
 21
-5700.0
 31
0.0
  0
LINE
  5
23A
330
236
100
AcDbEntity
  8
0
100
AcDbLine
 10
12160.0
 20
-6000.0
 30
0.0
 11
12885.0
 21
-6000.0
 31
0.0
  0
INSERT
  5
23B
330
236
100
AcDbEntity
  8
A-DIMS
100
AcDbBlockReference
  2
_OBLIQUE
 10
12810.0
 20
-5700.0
 30
0.0
 41
120.0
 42
120.0
 50
90.0
  0
INSERT
  5
23D
330
236
100
AcDbEntity
  8
A-DIMS
100
AcDbBlockReference
  2
_OBLIQUE
 10
12810.0
 20
-6000.0
 30
0.0
 41
120.0
 42
120.0
 50
90.0
  0
LINE
  5
23F
330
236
100
AcDbEntity
  8
0
100
AcDbLine
 10
12810.0
 20
-5700.0
 30
0.0
 11
12810.0
 21
-6000.0
 31
0.0
  0
MTEXT
  5
240
330
236
100
AcDbEntity
  8
A-DIMS
100
AcDbMText
 10
12982.5
 20
-5850.0
 30
0.0
 40
125.0
 71
5
  1
300
  7
ARIAL
 50
90.0
  0
POINT
  5
241
330
236
100
AcDbEntity
  8
Defpoints
100
AcDbPoint
 10
12810.0
 20
-5700.0
 30
0.0
  0
POINT
  5
242
330
236
100
AcDbEntity
  8
Defpoints
100
AcDbPoint
 10
12110.0
 20
-5700.0
 30
0.0
  0
POINT
  5
243
330
236
100
AcDbEntity
  8
Defpoints
100
AcDbPoint
 10
12110.0
 20
-6000.0
 30
0.0
  0
ENDBLK
  5
238
330
236
100
AcDbEntity
  8
0
100
AcDbBlockEnd
  0
BLOCK
  5
246
330
245
100
AcDbEntity
  8
0
100
AcDbBlockBegin
  2
*D24
 70
1
 10
0.0
 20
0.0
 30
0.0
  3
*D24
  1

  0
LINE
  5
248
330
245
100
AcDbEntity
  8
0
100
AcDbLine
 10
12160.0
 20
-6000.0
 30
0.0
 11
12885.0
 21
-6000.0
 31
0.0
  0
LINE
  5
249
330
245
100
AcDbEntity
  8
0
100
AcDbLine
 10
12160.0
 20
-6250.0
 30
0.0
 11
12885.0
 21
-6250.0
 31
0.0
  0
INSERT
  5
24A
330
245
100
AcDbEntity
  8
A-DIMS
100
AcDbBlockReference
  2
_OBLIQUE
 10
12810.0
 20
-6000.0
 30
0.0
 41
120.0
 42
120.0
 50
90.0
  0
INSERT
  5
24C
330
245
100
AcDbEntity
  8
A-DIMS
100
AcDbBlockReference
  2
_OBLIQUE
 10
12810.0
 20
-6250.0
 30
0.0
 41
120.0
 42
120.0
 50
90.0
  0
LINE
  5
24E
330
245
100
AcDbEntity
  8
0
100
AcDbLine
 10
12810.0
 20
-6000.0
 30
0.0
 11
12810.0
 21
-6250.0
 31
0.0
  0
MTEXT
  5
24F
330
245
100
AcDbEntity
  8
A-DIMS
100
AcDbMText
 10
12982.5
 20
-6125.0
 30
0.0
 40
125.0
 71
5
  1
250
  7
ARIAL
 50
90.0
  0
POINT
  5
250
330
245
100
AcDbEntity
  8
Defpoints
100
AcDbPoint
 10
12810.0
 20
-6000.0
 30
0.0
  0
POINT
  5
251
330
245
100
AcDbEntity
  8
Defpoints
100
AcDbPoint
 10
12110.0
 20
-6000.0
 30
0.0
  0
POINT
  5
252
330
245
100
AcDbEntity
  8
Defpoints
100
AcDbPoint
 10
12110.0
 20
-6250.0
 30
0.0
  0
ENDBLK
  5
247
330
245
100
AcDbEntity
  8
0
100
AcDbBlockEnd
  0
BLOCK
  5
255
330
254
100
AcDbEntity
  8
0
100
AcDbBlockBegin
  2
*D25
 70
1
 10
0.0
 20
0.0
 30
0.0
  3
*D25
  1

  0
LINE
  5
257
330
254
100
AcDbEntity
  8
0
100
AcDbLine
 10
12160.0
 20
250.0
 30
0.0
 11
13485.0
 21
250.0
 31
0.0
  0
LINE
  5
258
330
254
100
AcDbEntity
  8
0
100
AcDbLine
 10
12160.0
 20
-6250.0
 30
0.0
 11
13485.0
 21
-6250.0
 31
0.0
  0
INSERT
  5
259
330
254
100
AcDbEntity
  8
A-DIMS
100
AcDbBlockReference
  2
_OBLIQUE
 10
13410.0
 20
250.0
 30
0.0
 41
120.0
 42
120.0
 50
90.0
  0
INSERT
  5
25B
330
254
100
AcDbEntity
  8
A-DIMS
100
AcDbBlockReference
  2
_OBLIQUE
 10
13410.0
 20
-6250.0
 30
0.0
 41
120.0
 42
120.0
 50
90.0
  0
LINE
  5
25D
330
254
100
AcDbEntity
  8
0
100
AcDbLine
 10
13410.0
 20
250.0
 30
0.0
 11
13410.0
 21
-6250.0
 31
0.0
  0
MTEXT
  5
25E
330
254
100
AcDbEntity
  8
A-DIMS
100
AcDbMText
 10
13507.5
 20
-3000.0
 30
0.0
 40
125.0
 71
5
  1
6500
  7
ARIAL
 50
90.0
  0
POINT
  5
25F
330
254
100
AcDbEntity
  8
Defpoints
100
AcDbPoint
 10
13410.0
 20
250.0
 30
0.0
  0
POINT
  5
260
330
254
100
AcDbEntity
  8
Defpoints
100
AcDbPoint
 10
12110.0
 20
250.0
 30
0.0
  0
POINT
  5
261
330
254
100
AcDbEntity
  8
Defpoints
100
AcDbPoint
 10
12110.0
 20
-6250.0
 30
0.0
  0
ENDBLK
  5
256
330
254
100
AcDbEntity
  8
0
100
AcDbBlockEnd
  0
BLOCK
  5
30B
330
30A
100
AcDbEntity
  8
0
100
AcDbBlockBegin
  2
*Paper_Space0
 70
0
 10
0.0
 20
0.0
 30
0.0
  3
*Paper_Space0
  1

  0
VIEWPORT
  5
30E
330
30A
100
AcDbEntity
 67
1
  8
VIEWPORTS
100
AcDbViewport
 10
210.0
 20
148.5
 30
0.0
 40
462.00000000000006
 41
326.70000000000005
 68
1
 69
1
 12
210.0
 22
148.5
 13
0.0
 23
0.0
 14
10.0
 24
10.0
 15
10.0
 25
10.0
 16
0.0
 26
0.0
 36
1.0
 17
0.0
 27
0.0
 37
0.0
 42
50.0
 43
0.0
 44
0.0
 45
326.70000000000005
 50
0.0
 51
0.0
 72
100
 90
557088
  1

281
0
 71
0
 74
0
110
0.0
120
0.0
130
0.0
111
1.0
121
0.0
131
0.0
112
0.0
122
1.0
132
0.0
 79
0
146
0.0
282
0
  0
LWPOLYLINE
  5
30F
330
30A
100
AcDbEntity
 67
1
  8
0
100
AcDbPolyline
 90
4
 70
1
 10
20.0
 20
5.0
 10
415.0
 20
5.0
 10
415.0
 20
292.0
 10
20.0
 20
292.0
  0
VIEWPORT
  5
310
330
30A
100
AcDbEntity
 67
1
  8
VIEWPORTS
100
AcDbViewport
 10
217.5
 20
172.0
 30
0.0
 40
414.0
 41
192.0
 68
2
 69
3
 12
4850.0
 22
-2900.0
 13
0.0
 23
0.0
 14
10.0
 24
10.0
 15
10.0
 25
10.0
 16
0.0
 26
0.0
 36
1.0
 17
0.0
 27
0.0
 37
0.0
 42
50.0
 43
0.0
 44
0.0
 45
9600.0
 50
0.0
 51
0.0
 72
100
 90
0
  1

281
0
 71
0
 74
0
110
0.0
120
0.0
130
0.0
111
1.0
121
0.0
131
0.0
112
0.0
122
1.0
132
0.0
 79
0
146
0.0
282
0
  0
TEXT
  5
311
330
30A
100
AcDbEntity
 67
1
  8
0
100
AcDbText
 10
30.0
 20
280.0
 30
0.0
 40
5.0
  1
МЕБЕЛЛАР ЖОЙЛАШУВИ РЕЖАСИ   М 1:50
  7
ARIAL
 11
30.0
 21
280.0
 31
0.0
100
AcDbText
  0
ENDBLK
  5
30C
330
30A
100
AcDbEntity
  8
0
100
AcDbBlockEnd
  0
ENDSEC
  0
SECTION
  2
ENTITIES
  0
LWPOLYLINE
  5
95
330
17
100
AcDbEntity
  8
A-WALL
100
AcDbPolyline
 90
18
 70
1
 10
-2100.0
 20
250.0
 10
11810.0
 20
250.0
 10
12110.0
 20
250.0
 10
12110.0
 20
-0.0
 10
11810.0
 20
-0.0
 10
10850.0
 20
-0.0
 10
10850.0
 20
-1170.0
 10
10650.0
 20
-1170.0
 10
10650.0
 20
-0.0
 10
-2100.0
 20
-0.0
 10
-2100.0
 20
-4200.0
 10
-1450.0
 20
-4200.0
 10
-1450.0
 20
-4400.0
 10
-2100.0
 20
-4400.0
 10
-2400.0
 20
-4400.0
 10
-2400.0
 20
-4200.0
 10
-2400.0
 20
-0.0
 10
-2400.0
 20
250.0
  0
HATCH
  5
96
330
17
100
AcDbEntity
  8
A-WALL-HATCH
 62
7
100
AcDbHatch
 10
0.0
 20
0.0
 30
0.0
210
0.0
220
0.0
230
1.0
  2
ANSI31
 70
0
 71
0
 91
1
 92
3
 72
0
 73
1
 93
18
 10
-2100.0
 20
250.0
 10
11810.0
 20
250.0
 10
12110.0
 20
250.0
 10
12110.0
 20
-0.0
 10
11810.0
 20
-0.0
 10
10850.0
 20
-0.0
 10
10850.0
 20
-1170.0
 10
10650.0
 20
-1170.0
 10
10650.0
 20
-0.0
 10
-2100.0
 20
-0.0
 10
-2100.0
 20
-4200.0
 10
-1450.0
 20
-4200.0
 10
-1450.0
 20
-4400.0
 10
-2100.0
 20
-4400.0
 10
-2400.0
 20
-4400.0
 10
-2400.0
 20
-4200.0
 10
-2400.0
 20
-0.0
 10
-2400.0
 20
250.0
 97
0
 75
1
 76
1
 52
0.0
 41
25.0
 77
0
 78
1
 53
45.0
 43
0.0
 44
0.0
 45
-56.1266007575
 46
56.1266007575
 79
0
 98
0
  0
LWPOLYLINE
  5
97
330
17
100
AcDbEntity
  8
A-WALL
100
AcDbPolyline
 90
16
 70
1
 10
-200.0
 20
-4400.0
 10
-450.0
 20
-4400.0
 10
-450.0
 20
-4200.0
 10
-200.0
 20
-4200.0
 10
0.0
 20
-4200.0
 10
0.0
 20
-4400.0
 10
0.0
 20
-6000.0
 10
11810.0
 20
-6000.0
 10
11810.0
 20
-5700.0
 10
12110.0
 20
-5700.0
 10
12110.0
 20
-6000.0
 10
12110.0
 20
-6250.0
 10
11810.0
 20
-6250.0
 10
0.0
 20
-6250.0
 10
-200.0
 20
-6250.0
 10
-200.0
 20
-6000.0
  0
HATCH
  5
98
330
17
100
AcDbEntity
  8
A-WALL-HATCH
 62
7
100
AcDbHatch
 10
0.0
 20
0.0
 30
0.0
210
0.0
220
0.0
230
1.0
  2
ANSI31
 70
0
 71
0
 91
1
 92
3
 72
0
 73
1
 93
16
 10
-200.0
 20
-4400.0
 10
-450.0
 20
-4400.0
 10
-450.0
 20
-4200.0
 10
-200.0
 20
-4200.0
 10
0.0
 20
-4200.0
 10
0.0
 20
-4400.0
 10
0.0
 20
-6000.0
 10
11810.0
 20
-6000.0
 10
11810.0
 20
-5700.0
 10
12110.0
 20
-5700.0
 10
12110.0
 20
-6000.0
 10
12110.0
 20
-6250.0
 10
11810.0
 20
-6250.0
 10
0.0
 20
-6250.0
 10
-200.0
 20
-6250.0
 10
-200.0
 20
-6000.0
 97
0
 75
1
 76
1
 52
0.0
 41
25.0
 77
0
 78
1
 53
45.0
 43
0.0
 44
0.0
 45
-56.1266007575
 46
56.1266007575
 79
0
 98
0
  0
LWPOLYLINE
  5
99
330
17
100
AcDbEntity
  8
A-WALL
100
AcDbPolyline
 90
8
 70
1
 10
12110.0
 20
-2750.0
 10
12110.0
 20
-3450.0
 10
11810.0
 20
-3450.0
 10
11810.0
 20
-3100.0
 10
10650.0
 20
-3100.0
 10
10650.0
 20
-2750.0
 10
10850.0
 20
-2750.0
 10
11810.0
 20
-2750.0
  0
HATCH
  5
9A
330
17
100
AcDbEntity
  8
A-WALL-HATCH
 62
7
100
AcDbHatch
 10
0.0
 20
0.0
 30
0.0
210
0.0
220
0.0
230
1.0
  2
ANSI31
 70
0
 71
0
 91
1
 92
3
 72
0
 73
1
 93
8
 10
12110.0
 20
-2750.0
 10
12110.0
 20
-3450.0
 10
11810.0
 20
-3450.0
 10
11810.0
 20
-3100.0
 10
10650.0
 20
-3100.0
 10
10650.0
 20
-2750.0
 10
10850.0
 20
-2750.0
 10
11810.0
 20
-2750.0
 97
0
 75
1
 76
1
 52
0.0
 41
25.0
 77
0
 78
1
 53
45.0
 43
0.0
 44
0.0
 45
-56.1266007575
 46
56.1266007575
 79
0
 98
0
  0
LWPOLYLINE
  5
9B
330
17
100
AcDbEntity
  8
A-PART
100
AcDbPolyline
 90
8
 70
1
 10
-600.0
 20
-2700.0
 10
-600.0
 20
-2600.0
 10
-550.0
 20
-2600.0
 10
-550.0
 20
-0.0
 10
-450.0
 20
-0.0
 10
-450.0
 20
-2600.0
 10
-300.0
 20
-2600.0
 10
-300.0
 20
-2700.0
  0
HATCH
  5
9C
330
17
100
AcDbEntity
  8
A-WALL-HATCH
 62
252
100
AcDbHatch
 10
0.0
 20
0.0
 30
0.0
210
0.0
220
0.0
230
1.0
  2
SOLID
 70
1
 71
0
 91
1
 92
3
 72
0
 73
1
 93
8
 10
-600.0
 20
-2700.0
 10
-600.0
 20
-2600.0
 10
-550.0
 20
-2600.0
 10
-550.0
 20
-0.0
 10
-450.0
 20
-0.0
 10
-450.0
 20
-2600.0
 10
-300.0
 20
-2600.0
 10
-300.0
 20
-2700.0
 97
0
 75
0
 76
1
 98
0
  0
LWPOLYLINE
  5
9D
330
17
100
AcDbEntity
  8
A-PART
100
AcDbPolyline
 90
4
 70
1
 10
-2100.0
 20
-2700.0
 10
-2100.0
 20
-2600.0
 10
-1300.0
 20
-2600.0
 10
-1300.0
 20
-2700.0
  0
HATCH
  5
9E
330
17
100
AcDbEntity
  8
A-WALL-HATCH
 62
252
100
AcDbHatch
 10
0.0
 20
0.0
 30
0.0
210
0.0
220
0.0
230
1.0
  2
SOLID
 70
1
 71
0
 91
1
 92
3
 72
0
 73
1
 93
4
 10
-2100.0
 20
-2700.0
 10
-2100.0
 20
-2600.0
 10
-1300.0
 20
-2600.0
 10
-1300.0
 20
-2700.0
 97
0
 75
0
 76
1
 98
0
  0
LWPOLYLINE
  5
9F
330
17
100
AcDbEntity
  8
A-PART
100
AcDbPolyline
 90
8
 70
1
 10
3740.0
 20
-2600.0
 10
3740.0
 20
-2700.0
 10
400.0
 20
-2700.0
 10
400.0
 20
-2600.0
 10
650.0
 20
-2600.0
 10
650.0
 20
-0.0
 10
750.0
 20
-0.0
 10
750.0
 20
-2600.0
  0
HATCH
  5
A0
330
17
100
AcDbEntity
  8
A-WALL-HATCH
 62
252
100
AcDbHatch
 10
0.0
 20
0.0
 30
0.0
210
0.0
220
0.0
230
1.0
  2
SOLID
 70
1
 71
0
 91
1
 92
3
 72
0
 73
1
 93
8
 10
3740.0
 20
-2600.0
 10
3740.0
 20
-2700.0
 10
400.0
 20
-2700.0
 10
400.0
 20
-2600.0
 10
650.0
 20
-2600.0
 10
650.0
 20
-0.0
 10
750.0
 20
-0.0
 10
750.0
 20
-2600.0
 97
0
 75
0
 76
1
 98
0
  0
LWPOLYLINE
  5
A1
330
17
100
AcDbEntity
  8
A-PART
100
AcDbPolyline
 90
8
 70
1
 10
4840.0
 20
-2600.0
 10
4840.0
 20
-2700.0
 10
4540.0
 20
-2700.0
 10
4540.0
 20
-2600.0
 10
4640.0
 20
-2600.0
 10
4640.0
 20
-0.0
 10
4740.0
 20
-0.0
 10
4740.0
 20
-2600.0
  0
HATCH
  5
A2
330
17
100
AcDbEntity
  8
A-WALL-HATCH
 62
252
100
AcDbHatch
 10
0.0
 20
0.0
 30
0.0
210
0.0
220
0.0
230
1.0
  2
SOLID
 70
1
 71
0
 91
1
 92
3
 72
0
 73
1
 93
8
 10
4840.0
 20
-2600.0
 10
4840.0
 20
-2700.0
 10
4540.0
 20
-2700.0
 10
4540.0
 20
-2600.0
 10
4640.0
 20
-2600.0
 10
4640.0
 20
-0.0
 10
4740.0
 20
-0.0
 10
4740.0
 20
-2600.0
 97
0
 75
0
 76
1
 98
0
  0
LWPOLYLINE
  5
A3
330
17
100
AcDbEntity
  8
A-PART
100
AcDbPolyline
 90
11
 70
1
 10
5830.0
 20
-2900.0
 10
5830.0
 20
-2700.0
 10
5640.0
 20
-2700.0
 10
5640.0
 20
-2600.0
 10
5830.0
 20
-2600.0
 10
5930.0
 20
-2600.0
 10
5930.0
 20
-2750.0
 10
10650.0
 20
-2750.0
 10
10650.0
 20
-2850.0
 10
5930.0
 20
-2850.0
 10
5930.0
 20
-2900.0
  0
HATCH
  5
A4
330
17
100
AcDbEntity
  8
A-WALL-HATCH
 62
252
100
AcDbHatch
 10
0.0
 20
0.0
 30
0.0
210
0.0
220
0.0
230
1.0
  2
SOLID
 70
1
 71
0
 91
1
 92
3
 72
0
 73
1
 93
11
 10
5830.0
 20
-2900.0
 10
5830.0
 20
-2700.0
 10
5640.0
 20
-2700.0
 10
5640.0
 20
-2600.0
 10
5830.0
 20
-2600.0
 10
5930.0
 20
-2600.0
 10
5930.0
 20
-2750.0
 10
10650.0
 20
-2750.0
 10
10650.0
 20
-2850.0
 10
5930.0
 20
-2850.0
 10
5930.0
 20
-2900.0
 97
0
 75
0
 76
1
 98
0
  0
LWPOLYLINE
  5
A5
330
17
100
AcDbEntity
  8
A-PART
100
AcDbPolyline
 90
4
 70
1
 10
5930.0
 20
-6000.0
 10
5830.0
 20
-6000.0
 10
5830.0
 20
-3700.0
 10
5930.0
 20
-3700.0
  0
HATCH
  5
A6
330
17
100
AcDbEntity
  8
A-WALL-HATCH
 62
252
100
AcDbHatch
 10
0.0
 20
0.0
 30
0.0
210
0.0
220
0.0
230
1.0
  2
SOLID
 70
1
 71
0
 91
1
 92
3
 72
0
 73
1
 93
4
 10
5930.0
 20
-6000.0
 10
5830.0
 20
-6000.0
 10
5830.0
 20
-3700.0
 10
5930.0
 20
-3700.0
 97
0
 75
0
 76
1
 98
0
  0
LWPOLYLINE
  5
A7
330
17
100
AcDbEntity
  8
A-PART
100
AcDbPolyline
 90
4
 70
1
 10
-100.0
 20
-3700.0
 10
0.0
 20
-3700.0
 10
0.0
 20
-4200.0
 10
-100.0
 20
-4200.0
  0
HATCH
  5
A8
330
17
100
AcDbEntity
  8
A-WALL-HATCH
 62
252
100
AcDbHatch
 10
0.0
 20
0.0
 30
0.0
210
0.0
220
0.0
230
1.0
  2
SOLID
 70
1
 71
0
 91
1
 92
3
 72
0
 73
1
 93
4
 10
-100.0
 20
-3700.0
 10
0.0
 20
-3700.0
 10
0.0
 20
-4200.0
 10
-100.0
 20
-4200.0
 97
0
 75
0
 76
1
 98
0
  0
LWPOLYLINE
  5
AA
330
17
100
AcDbEntity
  8
A-PART-LIGHT
100
AcDbPolyline
 90
4
 70
1
 10
5930.0
 20
-3800.0
 10
5930.0
 20
-3700.0
 10
6030.0
 20
-3700.0
 10
6030.0
 20
-3800.0
  0
HATCH
  5
AB
330
17
100
AcDbEntity
  8
A-WALL-HATCH
 62
254
100
AcDbHatch
 10
0.0
 20
0.0
 30
0.0
210
0.0
220
0.0
230
1.0
  2
SOLID
 70
1
 71
0
 91
1
 92
3
 72
0
 73
1
 93
4
 10
5930.0
 20
-3800.0
 10
5930.0
 20
-3700.0
 10
6030.0
 20
-3700.0
 10
6030.0
 20
-3800.0
 97
0
 75
0
 76
1
 98
0
  0
LWPOLYLINE
  5
AC
330
17
100
AcDbEntity
  8
A-PART-LIGHT
100
AcDbPolyline
 90
8
 70
1
 10
9350.0
 20
-3800.0
 10
6830.0
 20
-3800.0
 10
6830.0
 20
-3700.0
 10
9350.0
 20
-3700.0
 10
9350.0
 20
-3600.0
 10
9450.0
 20
-3600.0
 10
9450.0
 20
-6000.0
 10
9350.0
 20
-6000.0
  0
HATCH
  5
AD
330
17
100
AcDbEntity
  8
A-WALL-HATCH
 62
254
100
AcDbHatch
 10
0.0
 20
0.0
 30
0.0
210
0.0
220
0.0
230
1.0
  2
SOLID
 70
1
 71
0
 91
1
 92
3
 72
0
 73
1
 93
8
 10
9350.0
 20
-3800.0
 10
6830.0
 20
-3800.0
 10
6830.0
 20
-3700.0
 10
9350.0
 20
-3700.0
 10
9350.0
 20
-3600.0
 10
9450.0
 20
-3600.0
 10
9450.0
 20
-6000.0
 10
9350.0
 20
-6000.0
 97
0
 75
0
 76
1
 98
0
  0
LWPOLYLINE
  5
AE
330
17
100
AcDbEntity
  8
A-PART-LIGHT
100
AcDbPolyline
 90
4
 70
1
 10
9450.0
 20
-2850.0
 10
9450.0
 20
-2900.0
 10
9350.0
 20
-2900.0
 10
9350.0
 20
-2850.0
  0
HATCH
  5
AF
330
17
100
AcDbEntity
  8
A-WALL-HATCH
 62
254
100
AcDbHatch
 10
0.0
 20
0.0
 30
0.0
210
0.0
220
0.0
230
1.0
  2
SOLID
 70
1
 71
0
 91
1
 92
3
 72
0
 73
1
 93
4
 10
9450.0
 20
-2850.0
 10
9450.0
 20
-2900.0
 10
9350.0
 20
-2900.0
 10
9350.0
 20
-2850.0
 97
0
 75
0
 76
1
 98
0
  0
LWPOLYLINE
  5
B0
330
17
100
AcDbEntity
  8
A-BALC
100
AcDbPolyline
 90
4
 70
1
 10
11810.0
 20
-0.0
 10
11810.0
 20
-2750.0
 10
10850.0
 20
-2750.0
 10
10850.0
 20
-0.0
  0
LWPOLYLINE
  5
B1
330
17
100
AcDbEntity
  8
A-SHAFT
100
AcDbPolyline
 90
6
 70
1
 10
-2100.0
 20
-1500.0
 10
-2100.0
 20
-1420.0
 10
-1930.0
 20
-1420.0
 10
-1930.0
 20
-0.0
 10
-1850.0
 20
-0.0
 10
-1850.0
 20
-1500.0
  0
HATCH
  5
B2
330
17
100
AcDbEntity
  8
A-WALL-HATCH
 62
251
100
AcDbHatch
 10
0.0
 20
0.0
 30
0.0
210
0.0
220
0.0
230
1.0
  2
SOLID
 70
1
 71
0
 91
1
 92
3
 72
0
 73
1
 93
6
 10
-2100.0
 20
-1500.0
 10
-2100.0
 20
-1420.0
 10
-1930.0
 20
-1420.0
 10
-1930.0
 20
-0.0
 10
-1850.0
 20
-0.0
 10
-1850.0
 20
-1500.0
 97
0
 75
0
 76
1
 98
0
  0
LWPOLYLINE
  5
B3
330
17
100
AcDbEntity
  8
A-SHAFT
100
AcDbPolyline
 90
4
 70
1
 10
-2100.0
 20
-0.0
 10
-1930.0
 20
-0.0
 10
-1930.0
 20
-1420.0
 10
-2100.0
 20
-1420.0
  0
LINE
  5
B4
330
17
100
AcDbEntity
  8
A-SHAFT
100
AcDbLine
 10
-2100.0
 20
-0.0
 30
0.0
 11
-1930.0
 21
-1420.0
 31
0.0
  0
LINE
  5
B5
330
17
100
AcDbEntity
  8
A-SHAFT
100
AcDbLine
 10
-2100.0
 20
-1420.0
 30
0.0
 11
-1930.0
 21
-0.0
 31
0.0
  0
LWPOLYLINE
  5
B6
330
17
100
AcDbEntity
  8
A-SHAFT
100
AcDbPolyline
 90
8
 70
1
 10
3900.0
 20
-0.0
 10
4000.0
 20
-0.0
 10
4000.0
 20
-420.0
 10
4540.0
 20
-420.0
 10
4540.0
 20
-0.0
 10
4640.0
 20
-0.0
 10
4640.0
 20
-520.0
 10
3900.0
 20
-520.0
  0
HATCH
  5
B7
330
17
100
AcDbEntity
  8
A-WALL-HATCH
 62
251
100
AcDbHatch
 10
0.0
 20
0.0
 30
0.0
210
0.0
220
0.0
230
1.0
  2
SOLID
 70
1
 71
0
 91
1
 92
3
 72
0
 73
1
 93
8
 10
3900.0
 20
-0.0
 10
4000.0
 20
-0.0
 10
4000.0
 20
-420.0
 10
4540.0
 20
-420.0
 10
4540.0
 20
-0.0
 10
4640.0
 20
-0.0
 10
4640.0
 20
-520.0
 10
3900.0
 20
-520.0
 97
0
 75
0
 76
1
 98
0
  0
LWPOLYLINE
  5
B8
330
17
100
AcDbEntity
  8
A-SHAFT
100
AcDbPolyline
 90
4
 70
1
 10
4000.0
 20
-0.0
 10
4540.0
 20
-0.0
 10
4540.0
 20
-420.0
 10
4000.0
 20
-420.0
  0
LINE
  5
B9
330
17
100
AcDbEntity
  8
A-SHAFT
100
AcDbLine
 10
4000.0
 20
-0.0
 30
0.0
 11
4540.0
 21
-420.0
 31
0.0
  0
LINE
  5
BA
330
17
100
AcDbEntity
  8
A-SHAFT
100
AcDbLine
 10
4000.0
 20
-420.0
 30
0.0
 11
4540.0
 21
-0.0
 31
0.0
  0
LINE
  5
BB
330
17
100
AcDbEntity
  8
A-GLAZ
100
AcDbLine
 10
11810.0
 20
0.0
 30
0.0
 11
11810.0
 21
-2750.0
 31
0.0
  0
LINE
  5
BC
330
17
100
AcDbEntity
  8
A-GLAZ
100
AcDbLine
 10
12110.0
 20
0.0
 30
0.0
 11
12110.0
 21
-2750.0
 31
0.0
  0
LINE
  5
BD
330
17
100
AcDbEntity
  8
A-GLAZ
100
AcDbLine
 10
11936.0
 20
0.0
 30
0.0
 11
11936.0
 21
-2750.0
 31
0.0
  0
LINE
  5
BE
330
17
100
AcDbEntity
  8
A-GLAZ
100
AcDbLine
 10
11984.0
 20
0.0
 30
0.0
 11
11984.0
 21
-2750.0
 31
0.0
  0
LINE
  5
BF
330
17
100
AcDbEntity
  8
A-GLAZ
100
AcDbLine
 10
11810.0
 20
0.0
 30
0.0
 11
12110.0
 21
0.0
 31
0.0
  0
LINE
  5
C0
330
17
100
AcDbEntity
  8
A-GLAZ
100
AcDbLine
 10
11810.0
 20
-2750.0
 30
0.0
 11
12110.0
 21
-2750.0
 31
0.0
  0
LINE
  5
C1
330
17
100
AcDbEntity
  8
A-GLAZ
100
AcDbLine
 10
11810.0
 20
-3450.0
 30
0.0
 11
11810.0
 21
-5700.0
 31
0.0
  0
LINE
  5
C2
330
17
100
AcDbEntity
  8
A-GLAZ
100
AcDbLine
 10
12110.0
 20
-3450.0
 30
0.0
 11
12110.0
 21
-5700.0
 31
0.0
  0
LINE
  5
C3
330
17
100
AcDbEntity
  8
A-GLAZ
100
AcDbLine
 10
11936.0
 20
-3450.0
 30
0.0
 11
11936.0
 21
-5700.0
 31
0.0
  0
LINE
  5
C4
330
17
100
AcDbEntity
  8
A-GLAZ
100
AcDbLine
 10
11984.0
 20
-3450.0
 30
0.0
 11
11984.0
 21
-5700.0
 31
0.0
  0
LINE
  5
C5
330
17
100
AcDbEntity
  8
A-GLAZ
100
AcDbLine
 10
11810.0
 20
-3450.0
 30
0.0
 11
12110.0
 21
-3450.0
 31
0.0
  0
LINE
  5
C6
330
17
100
AcDbEntity
  8
A-GLAZ
100
AcDbLine
 10
11810.0
 20
-5700.0
 30
0.0
 11
12110.0
 21
-5700.0
 31
0.0
  0
LINE
  5
C7
330
17
100
AcDbEntity
  8
A-GLAZ
100
AcDbLine
 10
10650.0
 20
-1170.0
 30
0.0
 11
10650.0
 21
-1960.0
 31
0.0
  0
LINE
  5
C8
330
17
100
AcDbEntity
  8
A-GLAZ
100
AcDbLine
 10
10850.0
 20
-1170.0
 30
0.0
 11
10850.0
 21
-1960.0
 31
0.0
  0
LINE
  5
C9
330
17
100
AcDbEntity
  8
A-GLAZ
100
AcDbLine
 10
10734.0
 20
-1170.0
 30
0.0
 11
10734.0
 21
-1960.0
 31
0.0
  0
LINE
  5
CA
330
17
100
AcDbEntity
  8
A-GLAZ
100
AcDbLine
 10
10766.0
 20
-1170.0
 30
0.0
 11
10766.0
 21
-1960.0
 31
0.0
  0
LINE
  5
CB
330
17
100
AcDbEntity
  8
A-GLAZ
100
AcDbLine
 10
10650.0
 20
-1170.0
 30
0.0
 11
10850.0
 21
-1170.0
 31
0.0
  0
LINE
  5
CC
330
17
100
AcDbEntity
  8
A-GLAZ
100
AcDbLine
 10
10650.0
 20
-1960.0
 30
0.0
 11
10850.0
 21
-1960.0
 31
0.0
  0
LWPOLYLINE
  5
CD
330
17
100
AcDbEntity
  8
A-GLAZ
100
AcDbPolyline
 90
4
 70
1
 10
0.0
 20
-3715.0
 10
1013.3333333333334
 20
-3715.0
 10
1013.3333333333334
 20
-3735.0
 10
0.0
 20
-3735.0
  0
LWPOLYLINE
  5
CE
330
17
100
AcDbEntity
  8
A-GLAZ
100
AcDbPolyline
 90
4
 70
1
 10
963.3333333333334
 20
-3740.0
 10
1976.6666666666667
 20
-3740.0
 10
1976.6666666666667
 20
-3760.0
 10
963.3333333333334
 20
-3760.0
  0
LWPOLYLINE
  5
CF
330
17
100
AcDbEntity
  8
A-GLAZ
100
AcDbPolyline
 90
4
 70
1
 10
1926.6666666666667
 20
-3765.0
 10
2940.0
 20
-3765.0
 10
2940.0
 20
-3785.0
 10
1926.6666666666667
 20
-3785.0
  0
LWPOLYLINE
  5
D0
330
17
100
AcDbEntity
  8
A-GLAZ
100
AcDbPolyline
 90
4
 70
1
 10
2890.0
 20
-3765.0
 10
3903.3333333333335
 20
-3765.0
 10
3903.3333333333335
 20
-3785.0
 10
2890.0
 20
-3785.0
  0
LWPOLYLINE
  5
D1
330
17
100
AcDbEntity
  8
A-GLAZ
100
AcDbPolyline
 90
4
 70
1
 10
3853.3333333333335
 20
-3740.0
 10
4866.666666666667
 20
-3740.0
 10
4866.666666666667
 20
-3760.0
 10
3853.3333333333335
 20
-3760.0
  0
LWPOLYLINE
  5
D2
330
17
100
AcDbEntity
  8
A-GLAZ
100
AcDbPolyline
 90
4
 70
1
 10
4816.666666666667
 20
-3715.0
 10
5830.0
 20
-3715.0
 10
5830.0
 20
-3735.0
 10
4816.666666666667
 20
-3735.0
  0
LINE
  5
D3
330
17
100
AcDbEntity
  8
A-GLAZ
100
AcDbLine
 10
0.0
 20
-3700.0
 30
0.0
 11
5830.0
 21
-3700.0
 31
0.0
  0
LINE
  5
D4
330
17
100
AcDbEntity
  8
A-GLAZ
100
AcDbLine
 10
0.0
 20
-3800.0
 30
0.0
 11
5830.0
 21
-3800.0
 31
0.0
  0
LINE
  5
D5
330
17
100
AcDbEntity
  8
A-DOOR
100
AcDbLine
 10
-450.0
 20
-4400.0
 30
0.0
 11
-450.0
 21
-5400.0
 31
0.0
  0
ARC
  5
D6
330
17
100
AcDbEntity
  8
A-DOOR
100
AcDbCircle
 10
-450.0
 20
-4400.0
 30
0.0
 40
1000.0
100
AcDbArc
 50
180.0
 51
270.0
  0
LINE
  5
D7
330
17
100
AcDbEntity
  8
A-DOOR
100
AcDbLine
 10
10650.0
 20
-2750.0
 30
0.0
 11
9860.0
 21
-2750.0
 31
0.0
  0
ARC
  5
D8
330
17
100
AcDbEntity
  8
A-DOOR
100
AcDbCircle
 10
10650.0
 20
-2750.0
 30
0.0
 40
790.0
100
AcDbArc
 50
90.0
 51
180.0
  0
LINE
  5
D9
330
17
100
AcDbEntity
  8
A-DOOR
100
AcDbLine
 10
-600.0
 20
-2700.0
 30
0.0
 11
-600.0
 21
-3400.0
 31
0.0
  0
ARC
  5
DA
330
17
100
AcDbEntity
  8
A-DOOR
100
AcDbCircle
 10
-600.0
 20
-2700.0
 30
0.0
 40
700.0
100
AcDbArc
 50
180.0
 51
270.0
  0
LINE
  5
DB
330
17
100
AcDbEntity
  8
A-DOOR
100
AcDbLine
 10
-300.0
 20
-2700.0
 30
0.0
 11
-300.0
 21
-3400.0
 31
0.0
  0
ARC
  5
DC
330
17
100
AcDbEntity
  8
A-DOOR
100
AcDbCircle
 10
-300.0
 20
-2700.0
 30
0.0
 40
700.0
100
AcDbArc
 50
270.0
 51
0.0
  0
LINE
  5
DD
330
17
100
AcDbEntity
  8
A-DOOR
100
AcDbLine
 10
4540.0
 20
-2600.0
 30
0.0
 11
4540.0
 21
-1800.0
 31
0.0
  0
ARC
  5
DE
330
17
100
AcDbEntity
  8
A-DOOR
100
AcDbCircle
 10
4540.0
 20
-2600.0
 30
0.0
 40
800.0
100
AcDbArc
 50
90.0
 51
180.0
  0
LINE
  5
DF
330
17
100
AcDbEntity
  8
A-DOOR
100
AcDbLine
 10
5640.0
 20
-2600.0
 30
0.0
 11
5640.0
 21
-1800.0
 31
0.0
  0
ARC
  5
E0
330
17
100
AcDbEntity
  8
A-DOOR
100
AcDbCircle
 10
5640.0
 20
-2600.0
 30
0.0
 40
800.0
100
AcDbArc
 50
90.0
 51
180.0
  0
LINE
  5
E1
330
17
100
AcDbEntity
  8
A-DOOR
100
AcDbLine
 10
5930.0
 20
-2900.0
 30
0.0
 11
6730.0
 21
-2900.0
 31
0.0
  0
ARC
  5
E2
330
17
100
AcDbEntity
  8
A-DOOR
100
AcDbCircle
 10
5930.0
 20
-2900.0
 30
0.0
 40
800.0
100
AcDbArc
 50
270.0
 51
0.0
  0
LINE
  5
E3
330
17
100
AcDbEntity
  8
A-DOOR
100
AcDbLine
 10
6030.0
 20
-3800.0
 30
0.0
 11
6030.0
 21
-4600.0
 31
0.0
  0
ARC
  5
E4
330
17
100
AcDbEntity
  8
A-DOOR
100
AcDbCircle
 10
6030.0
 20
-3800.0
 30
0.0
 40
800.0
100
AcDbArc
 50
270.0
 51
0.0
  0
LINE
  5
E5
330
17
100
AcDbEntity
  8
A-DOOR
100
AcDbLine
 10
9450.0
 20
-2900.0
 30
0.0
 11
10150.0
 21
-2900.0
 31
0.0
  0
ARC
  5
E6
330
17
100
AcDbEntity
  8
A-DOOR
100
AcDbCircle
 10
9450.0
 20
-2900.0
 30
0.0
 40
700.0
100
AcDbArc
 50
270.0
 51
0.0
  0
DIMENSION
  5
E7
330
17
100
AcDbEntity
  8
A-DIMS
100
AcDbDimension
280
0
  2
*D1
  3
ARCH50
 10
-2400.0
 20
950.0
 30
0.0
 11
-2250.0
 21
1122.5
 31
0.0
 70
32
 71
5
  1
<>
100
AcDbAlignedDimension
 13
-2400.0
 23
250.0
 33
0.0
 14
-2100.0
 24
250.0
 34
0.0
 50
0.0
100
AcDbRotatedDimension
  0
DIMENSION
  5
FA
330
17
100
AcDbEntity
  8
A-DIMS
100
AcDbDimension
280
0
  2
*D2
  3
ARCH50
 10
-2100.0
 20
950.0
 30
0.0
 11
4275.0
 21
1047.5
 31
0.0
 70
32
 71
5
  1
<>
100
AcDbAlignedDimension
 13
-2100.0
 23
250.0
 33
0.0
 14
10650.0
 24
250.0
 34
0.0
 50
0.0
100
AcDbRotatedDimension
  0
DIMENSION
  5
109
330
17
100
AcDbEntity
  8
A-DIMS
100
AcDbDimension
280
0
  2
*D3
  3
ARCH50
 10
10650.0
 20
950.0
 30
0.0
 11
10750.0
 21
1122.5
 31
0.0
 70
32
 71
5
  1
<>
100
AcDbAlignedDimension
 13
10650.0
 23
250.0
 33
0.0
 14
10850.0
 24
250.0
 34
0.0
 50
0.0
100
AcDbRotatedDimension
  0
DIMENSION
  5
118
330
17
100
AcDbEntity
  8
A-DIMS
100
AcDbDimension
280
0
  2
*D4
  3
ARCH50
 10
10850.0
 20
950.0
 30
0.0
 11
11330.0
 21
1047.5
 31
0.0
 70
32
 71
5
  1
<>
100
AcDbAlignedDimension
 13
10850.0
 23
250.0
 33
0.0
 14
11810.0
 24
250.0
 34
0.0
 50
0.0
100
AcDbRotatedDimension
  0
DIMENSION
  5
127
330
17
100
AcDbEntity
  8
A-DIMS
100
AcDbDimension
280
0
  2
*D5
  3
ARCH50
 10
11810.0
 20
950.0
 30
0.0
 11
11960.0
 21
1122.5
 31
0.0
 70
32
 71
5
  1
<>
100
AcDbAlignedDimension
 13
11810.0
 23
250.0
 33
0.0
 14
12110.0
 24
250.0
 34
0.0
 50
0.0
100
AcDbRotatedDimension
  0
DIMENSION
  5
136
330
17
100
AcDbEntity
  8
A-DIMS
100
AcDbDimension
280
0
  2
*D6
  3
ARCH50
 10
-2400.0
 20
1550.0
 30
0.0
 11
4855.0
 21
1647.5
 31
0.0
 70
32
 71
5
  1
<>
100
AcDbAlignedDimension
 13
-2400.0
 23
250.0
 33
0.0
 14
12110.0
 24
250.0
 34
0.0
 50
0.0
100
AcDbRotatedDimension
  0
DIMENSION
  5
145
330
17
100
AcDbEntity
  8
A-DIMS
100
AcDbDimension
280
0
  2
*D7
  3
ARCH50
 10
-200.0
 20
-6950.0
 30
0.0
 11
-100.0
 21
-6777.5
 31
0.0
 70
32
 71
5
  1
<>
100
AcDbAlignedDimension
 13
-200.0
 23
-6250.0
 33
0.0
 14
0.0
 24
-6250.0
 34
0.0
 50
0.0
100
AcDbRotatedDimension
  0
DIMENSION
  5
154
330
17
100
AcDbEntity
  8
A-DIMS
100
AcDbDimension
280
0
  2
*D8
  3
ARCH50
 10
0.0
 20
-6950.0
 30
0.0
 11
5905.0
 21
-6852.5
 31
0.0
 70
32
 71
5
  1
<>
100
AcDbAlignedDimension
 13
0.0
 23
-6250.0
 33
0.0
 14
11810.0
 24
-6250.0
 34
0.0
 50
0.0
100
AcDbRotatedDimension
  0
DIMENSION
  5
163
330
17
100
AcDbEntity
  8
A-DIMS
100
AcDbDimension
280
0
  2
*D9
  3
ARCH50
 10
11810.0
 20
-6950.0
 30
0.0
 11
11960.0
 21
-6777.5
 31
0.0
 70
32
 71
5
  1
<>
100
AcDbAlignedDimension
 13
11810.0
 23
-6250.0
 33
0.0
 14
12110.0
 24
-6250.0
 34
0.0
 50
0.0
100
AcDbRotatedDimension
  0
DIMENSION
  5
172
330
17
100
AcDbEntity
  8
A-DIMS
100
AcDbDimension
280
0
  2
*D10
  3
ARCH50
 10
-200.0
 20
-7550.0
 30
0.0
 11
5955.0
 21
-7452.5
 31
0.0
 70
32
 71
5
  1
<>
100
AcDbAlignedDimension
 13
-200.0
 23
-6250.0
 33
0.0
 14
12110.0
 24
-6250.0
 34
0.0
 50
0.0
100
AcDbRotatedDimension
  0
DIMENSION
  5
181
330
17
100
AcDbEntity
  8
A-DIMS
100
AcDbDimension
280
0
  2
*D11
  3
ARCH50
 10
-2400.0
 20
-5900.0
 30
0.0
 11
-1925.0
 21
-5802.5
 31
0.0
 70
32
 71
5
  1
<>
100
AcDbAlignedDimension
 13
-2400.0
 23
-4400.0
 33
0.0
 14
-1450.0
 24
-4400.0
 34
0.0
 50
0.0
100
AcDbRotatedDimension
  0
DIMENSION
  5
190
330
17
100
AcDbEntity
  8
A-DIMS
100
AcDbDimension
280
0
  2
*D12
  3
ARCH50
 10
-1450.0
 20
-5900.0
 30
0.0
 11
-950.0
 21
-5802.5
 31
0.0
 70
32
 71
5
  1
<>
100
AcDbAlignedDimension
 13
-1450.0
 23
-4400.0
 33
0.0
 14
-450.0
 24
-4400.0
 34
0.0
 50
0.0
100
AcDbRotatedDimension
  0
DIMENSION
  5
19F
330
17
100
AcDbEntity
  8
A-DIMS
100
AcDbDimension
280
0
  2
*D13
  3
ARCH50
 10
-450.0
 20
-5900.0
 30
0.0
 11
-325.0
 21
-5727.5
 31
0.0
 70
32
 71
5
  1
<>
100
AcDbAlignedDimension
 13
-450.0
 23
-4400.0
 33
0.0
 14
-200.0
 24
-4400.0
 34
0.0
 50
0.0
100
AcDbRotatedDimension
  0
DIMENSION
  5
1AE
330
17
100
AcDbEntity
  8
A-DIMS
100
AcDbDimension
280
0
  2
*D14
  3
ARCH50
 10
-3100.0
 20
250.0
 30
0.0
 11
-2927.5
 21
125.0
 31
0.0
 70
32
 71
5
  1
<>
100
AcDbAlignedDimension
 13
-2400.0
 23
250.0
 33
0.0
 14
-2400.0
 24
0.0
 34
0.0
 50
90.0
100
AcDbRotatedDimension
  0
DIMENSION
  5
1BD
330
17
100
AcDbEntity
  8
A-DIMS
100
AcDbDimension
280
0
  2
*D15
  3
ARCH50
 10
-3100.0
 20
0.0
 30
0.0
 11
-3002.5
 21
-2100.0
 31
0.0
 70
32
 71
5
  1
<>
100
AcDbAlignedDimension
 13
-2400.0
 23
0.0
 33
0.0
 14
-2400.0
 24
-4200.0
 34
0.0
 50
90.0
100
AcDbRotatedDimension
  0
DIMENSION
  5
1CC
330
17
100
AcDbEntity
  8
A-DIMS
100
AcDbDimension
280
0
  2
*D16
  3
ARCH50
 10
-3100.0
 20
-4200.0
 30
0.0
 11
-2927.5
 21
-4300.0
 31
0.0
 70
32
 71
5
  1
<>
100
AcDbAlignedDimension
 13
-2400.0
 23
-4200.0
 33
0.0
 14
-2400.0
 24
-4400.0
 34
0.0
 50
90.0
100
AcDbRotatedDimension
  0
DIMENSION
  5
1DB
330
17
100
AcDbEntity
  8
A-DIMS
100
AcDbDimension
280
0
  2
*D17
  3
ARCH50
 10
-3100.0
 20
-4400.0
 30
0.0
 11
-3002.5
 21
-5325.0
 31
0.0
 70
32
 71
5
  1
<>
100
AcDbAlignedDimension
 13
-2400.0
 23
-4400.0
 33
0.0
 14
-2400.0
 24
-6250.0
 34
0.0
 50
90.0
100
AcDbRotatedDimension
  0
DIMENSION
  5
1EA
330
17
100
AcDbEntity
  8
A-DIMS
100
AcDbDimension
280
0
  2
*D18
  3
ARCH50
 10
-3700.0
 20
250.0
 30
0.0
 11
-3602.5
 21
-3000.0
 31
0.0
 70
32
 71
5
  1
<>
100
AcDbAlignedDimension
 13
-2400.0
 23
250.0
 33
0.0
 14
-2400.0
 24
-6250.0
 34
0.0
 50
90.0
100
AcDbRotatedDimension
  0
DIMENSION
  5
1F9
330
17
100
AcDbEntity
  8
A-DIMS
100
AcDbDimension
280
0
  2
*D19
  3
ARCH50
 10
12810.0
 20
250.0
 30
0.0
 11
12982.5
 21
125.0
 31
0.0
 70
32
 71
5
  1
<>
100
AcDbAlignedDimension
 13
12110.0
 23
250.0
 33
0.0
 14
12110.0
 24
0.0
 34
0.0
 50
90.0
100
AcDbRotatedDimension
  0
DIMENSION
  5
208
330
17
100
AcDbEntity
  8
A-DIMS
100
AcDbDimension
280
0
  2
*D20
  3
ARCH50
 10
12810.0
 20
0.0
 30
0.0
 11
12907.5
 21
-1375.0
 31
0.0
 70
32
 71
5
  1
<>
100
AcDbAlignedDimension
 13
12110.0
 23
0.0
 33
0.0
 14
12110.0
 24
-2750.0
 34
0.0
 50
90.0
100
AcDbRotatedDimension
  0
DIMENSION
  5
217
330
17
100
AcDbEntity
  8
A-DIMS
100
AcDbDimension
280
0
  2
*D21
  3
ARCH50
 10
12810.0
 20
-2750.0
 30
0.0
 11
12907.5
 21
-3100.0
 31
0.0
 70
32
 71
5
  1
<>
100
AcDbAlignedDimension
 13
12110.0
 23
-2750.0
 33
0.0
 14
12110.0
 24
-3450.0
 34
0.0
 50
90.0
100
AcDbRotatedDimension
  0
DIMENSION
  5
226
330
17
100
AcDbEntity
  8
A-DIMS
100
AcDbDimension
280
0
  2
*D22
  3
ARCH50
 10
12810.0
 20
-3450.0
 30
0.0
 11
12907.5
 21
-4575.0
 31
0.0
 70
32
 71
5
  1
<>
100
AcDbAlignedDimension
 13
12110.0
 23
-3450.0
 33
0.0
 14
12110.0
 24
-5700.0
 34
0.0
 50
90.0
100
AcDbRotatedDimension
  0
DIMENSION
  5
235
330
17
100
AcDbEntity
  8
A-DIMS
100
AcDbDimension
280
0
  2
*D23
  3
ARCH50
 10
12810.0
 20
-5700.0
 30
0.0
 11
12982.5
 21
-5850.0
 31
0.0
 70
32
 71
5
  1
<>
100
AcDbAlignedDimension
 13
12110.0
 23
-5700.0
 33
0.0
 14
12110.0
 24
-6000.0
 34
0.0
 50
90.0
100
AcDbRotatedDimension
  0
DIMENSION
  5
244
330
17
100
AcDbEntity
  8
A-DIMS
100
AcDbDimension
280
0
  2
*D24
  3
ARCH50
 10
12810.0
 20
-6000.0
 30
0.0
 11
12982.5
 21
-6125.0
 31
0.0
 70
32
 71
5
  1
<>
100
AcDbAlignedDimension
 13
12110.0
 23
-6000.0
 33
0.0
 14
12110.0
 24
-6250.0
 34
0.0
 50
90.0
100
AcDbRotatedDimension
  0
DIMENSION
  5
253
330
17
100
AcDbEntity
  8
A-DIMS
100
AcDbDimension
280
0
  2
*D25
  3
ARCH50
 10
13410.0
 20
250.0
 30
0.0
 11
13507.5
 21
-3000.0
 31
0.0
 70
32
 71
5
  1
<>
100
AcDbAlignedDimension
 13
12110.0
 23
250.0
 33
0.0
 14
12110.0
 24
-6250.0
 34
0.0
 50
90.0
100
AcDbRotatedDimension
  0
LWPOLYLINE
  5
263
330
17
100
AcDbEntity
  8
A-FURN
100
AcDbPolyline
 90
20
 70
1
 10
-1300.0
 20
-1660.0
 10
-1300.0
 20
-40.0
 10
-1296.9551813004514
 20
-24.692662705396412
 10
-1288.284271247462
 20
-11.715728752538102
 10
-1275.3073372946035
 20
-3.0448186995485287
 10
-1260.0
 20
-0.0
 10
-590.0
 20
-0.0
 10
-574.6926627053964
 20
-3.0448186995485287
 10
-561.7157287525381
 20
-11.715728752538102
 10
-553.0448186995485
 20
-24.692662705396412
 10
-550.0
 20
-40.0
 10
-550.0
 20
-1660.0
 10
-553.0448186995485
 20
-1675.3073372946035
 10
-561.7157287525381
 20
-1688.284271247462
 10
-574.6926627053964
 20
-1696.9551813004514
 10
-590.0
 20
-1700.0
 10
-1260.0
 20
-1700.0
 10
-1275.3073372946035
 20
-1696.9551813004514
 10
-1288.284271247462
 20
-1688.284271247462
 10
-1296.9551813004514
 20
-1675.3073372946035
  0
LWPOLYLINE
  5
264
330
17
100
AcDbEntity
  8
A-FURN
100
AcDbPolyline
 90
20
 70
1
 10
-1230.0
 20
-1410.0
 10
-1230.0
 20
-290.0
 10
-1213.253497152483
 20
-205.80964487968026
 10
-1165.5634918610403
 20
-134.43650813895957
 10
-1094.1903551203197
 20
-86.74650284751692
 10
-1010.0
 20
-70.0
 10
-840.0
 20
-70.0
 10
-755.8096448796803
 20
-86.74650284751692
 10
-684.4365081389595
 20
-134.43650813895957
 10
-636.7465028475169
 20
-205.80964487968026
 10
-620.0
 20
-290.0
 10
-620.0
 20
-1410.0
 10
-636.7465028475169
 20
-1494.1903551203197
 10
-684.4365081389595
 20
-1565.5634918610403
 10
-755.8096448796803
 20
-1613.253497152483
 10
-840.0
 20
-1630.0
 10
-1010.0
 20
-1630.0
 10
-1094.1903551203197
 20
-1613.253497152483
 10
-1165.5634918610403
 20
-1565.5634918610403
 10
-1213.253497152483
 20
-1494.1903551203197
  0
CIRCLE
  5
265
330
17
100
AcDbEntity
  8
A-FURN
100
AcDbCircle
 10
-925.0
 20
-200.0
 30
0.0
 40
35.0
  0
LWPOLYLINE
  5
266
330
17
100
AcDbEntity
  8
A-FURN
100
AcDbPolyline
 90
20
 70
1
 10
-1670.0
 20
-1650.0
 10
-2080.0
 20
-1650.0
 10
-2087.653668647302
 20
-1651.5224093497743
 10
-2094.142135623731
 20
-1655.857864376269
 10
-2098.477590650226
 20
-1662.3463313526981
 10
-2100.0
 20
-1670.0
 10
-2100.0
 20
-2230.0
 10
-2098.477590650226
 20
-2237.653668647302
 10
-2094.142135623731
 20
-2244.142135623731
 10
-2087.653668647302
 20
-2248.4775906502255
 10
-2080.0
 20
-2250.0
 10
-1670.0
 20
-2250.0
 10
-1662.3463313526981
 20
-2248.4775906502255
 10
-1655.857864376269
 20
-2244.142135623731
 10
-1651.5224093497743
 20
-2237.653668647302
 10
-1650.0
 20
-2230.0
 10
-1650.0
 20
-1670.0
 10
-1651.5224093497743
 20
-1662.3463313526981
 10
-1655.857864376269
 20
-1655.8578643762692
 10
-1662.3463313526981
 20
-1651.5224093497743
  0
LWPOLYLINE
  5
267
330
17
100
AcDbEntity
  8
A-FURN
100
AcDbPolyline
 90
48
 70
1
 10
-1722.0
 20
-1950.0
 10
-1723.2319399621701
 20
-1923.3726567871126
 10
-1726.9066810143777
 20
-1897.200914799083
 10
-1732.961347318378
 20
-1871.9325797975252
 10
-1741.2923418550417
 20
-1848.0
 10
-1751.757118998059
 20
-1825.81266848222
 10
-1764.1766235091345
 20
-1805.7502166379418
 10
-1778.3383542227457
 20
-1788.155918580589
 10
-1794.0
 20
-1773.3308176279825
 10
-1810.8935857394245
 20
-1761.5285753676944
 10
-1828.730057505236
 20
-1752.9511314370247
 10
-1847.2042283203118
 20
-1747.7452482797453
 10
-1866.0
 20
-1746.0
 10
-1884.7957716796882
 20
-1747.7452482797453
 10
-1903.269942494764
 20
-1752.9511314370247
 10
-1921.1064142605755
 20
-1761.5285753676944
 10
-1938.0
 20
-1773.3308176279825
 10
-1953.6616457772543
 20
-1788.155918580589
 10
-1967.8233764908655
 20
-1805.7502166379418
 10
-1980.242881001941
 20
-1825.81266848222
 10
-1990.7076581449583
 20
-1848.0
 10
-1999.038652681622
 20
-1871.9325797975252
 10
-2005.0933189856223
 20
-1897.200914799083
 10
-2008.7680600378299
 20
-1923.3726567871126
 10
-2010.0
 20
-1950.0
 10
-2008.7680600378299
 20
-1976.6273432128874
 10
-2005.0933189856223
 20
-2002.799085200917
 10
-1999.038652681622
 20
-2028.0674202024748
 10
-1990.7076581449583
 20
-2052.0
 10
-1980.242881001941
 20
-2074.18733151778
 10
-1967.8233764908655
 20
-2094.249783362058
 10
-1953.6616457772543
 20
-2111.844081419411
 10
-1938.0
 20
-2126.669182372025
 10
-1921.1064142605755
 20
-2138.4714246323056
 10
-1903.269942494764
 20
-2147.0488685629753
 10
-1884.7957716796882
 20
-2152.2547517202547
 10
-1866.0
 20
-2154.0
 10
-1847.2042283203118
 20
-2152.2547517202547
 10
-1828.730057505236
 20
-2147.0488685629753
 10
-1810.8935857394245
 20
-2138.4714246323056
 10
-1794.0
 20
-2126.669182372025
 10
-1778.3383542227457
 20
-2111.844081419411
 10
-1764.1766235091345
 20
-2094.249783362058
 10
-1751.757118998059
 20
-2074.18733151778
 10
-1741.2923418550417
 20
-2052.0
 10
-1732.961347318378
 20
-2028.0674202024748
 10
-1726.9066810143777
 20
-2002.799085200917
 10
-1723.2319399621701
 20
-1976.6273432128874
  0
CIRCLE
  5
268
330
17
100
AcDbEntity
  8
A-FURN
100
AcDbCircle
 10
-1866.0
 20
-1950.0
 30
0.0
 40
25.0
  0
LWPOLYLINE
  5
269
330
17
100
AcDbEntity
  8
A-FURN
100
AcDbPolyline
 90
20
 70
1
 10
-90.0
 20
-150.0
 10
-90.0
 20
-30.0
 10
-87.7163859753386
 20
-18.519497029047308
 10
-81.21320343559643
 20
-8.786796564403577
 10
-71.4805029709527
 20
-2.2836140246613965
 10
-60.0
 20
-0.0
 10
260.0
 20
-0.0
 10
271.48050297095267
 20
-2.2836140246613965
 10
281.2132034355964
 20
-8.786796564403577
 10
287.7163859753386
 20
-18.519497029047308
 10
290.0
 20
-30.0
 10
290.0
 20
-150.0
 10
287.7163859753386
 20
-161.4805029709527
 10
281.2132034355964
 20
-171.21320343559643
 10
271.48050297095267
 20
-177.7163859753386
 10
260.0
 20
-180.0
 10
-60.0
 20
-180.0
 10
-71.4805029709527
 20
-177.7163859753386
 10
-81.21320343559643
 20
-171.21320343559643
 10
-87.7163859753386
 20
-161.4805029709527
  0
LWPOLYLINE
  5
26A
330
17
100
AcDbEntity
  8
A-FURN
100
AcDbPolyline
 90
48
 70
1
 10
100.0
 20
-680.0
 10
76.50528540038795
 20
-677.8612153434515
 10
53.4125718815485
 20
-671.4814565722772
 10
31.116982174280565
 20
-660.969883127822
 10
10.0
 20
-646.5063509461033
 10
-9.577057221569703
 20
-628.3383350728109
 10
-27.279220613578218
 20
-606.776695296634
 10
-42.803601252424414
 20
-582.1903572521842
 10
-55.88457268119964
 20
-555.0
 10
-66.29831585202919
 20
-525.6708580912673
 10
-73.86664873202972
 20
-494.7047612756287
 10
-78.46007504728914
 20
-462.6315480550111
 10
-80.0
 20
-430.0
 10
-78.46007504728914
 20
-397.3684519449889
 10
-73.86664873202972
 20
-365.2952387243713
 10
-66.29831585202919
 20
-334.3291419087327
 10
-55.88457268119964
 20
-305.0
 10
-42.803601252424414
 20
-277.8096427478158
 10
-27.279220613578218
 20
-253.223304703366
 10
-9.577057221569703
 20
-231.66166492718912
 10
10.0
 20
-213.49364905389666
 10
31.116982174280565
 20
-199.03011687217804
 10
53.4125718815485
 20
-188.51854342772276
 10
76.50528540038795
 20
-182.13878465654852
 10
100.0
 20
-180.0
 10
123.49471459961205
 20
-182.13878465654852
 10
146.5874281184515
 20
-188.51854342772276
 10
168.88301782571943
 20
-199.03011687217804
 10
190.0
 20
-213.49364905389666
 10
209.5770572215697
 20
-231.66166492718912
 10
227.27922061357822
 20
-253.223304703366
 10
242.80360125242441
 20
-277.8096427478158
 10
255.88457268119964
 20
-305.0
 10
266.2983158520292
 20
-334.3291419087327
 10
273.8666487320297
 20
-365.2952387243713
 10
278.46007504728914
 20
-397.3684519449889
 10
280.0
 20
-430.0
 10
278.46007504728914
 20
-462.6315480550111
 10
273.8666487320297
 20
-494.7047612756287
 10
266.2983158520292
 20
-525.6708580912673
 10
255.88457268119964
 20
-555.0
 10
242.80360125242441
 20
-582.1903572521842
 10
227.27922061357822
 20
-606.776695296634
 10
209.5770572215697
 20
-628.3383350728109
 10
190.0
 20
-646.5063509461033
 10
168.88301782571943
 20
-660.969883127822
 10
146.5874281184515
 20
-671.4814565722772
 10
123.49471459961205
 20
-677.8612153434515
  0
LWPOLYLINE
  5
26B
330
17
100
AcDbEntity
  8
A-FURN
100
AcDbPolyline
 90
48
 70
1
 10
100.0
 20
-610.0
 10
86.94738077799411
 20
-608.6311778197996
 10
74.11809548974998
 20
-604.5481322062551
 10
61.73165676349163
 20
-597.8207252018037
 10
50.0
 20
-588.5640646055108
 10
39.123857099126326
 20
-576.9365344465914
 10
29.28932188134422
 20
-563.1370849898522
 10
20.66466597087492
 20
-547.4018286413921
 10
13.397459621555754
 20
-530.0
 10
7.612046748872672
 20
-511.2293491784076
 10
3.4074173710941977
 20
-491.41104721640295
 10
0.8555138626179541
 20
-470.8841907551978
 10
0.0
 20
-450.0
 10
0.8555138626179541
 20
-429.1158092448022
 10
3.4074173710941977
 20
-408.58895278359705
 10
7.612046748872672
 20
-388.7706508215924
 10
13.397459621555754
 20
-370.0
 10
20.66466597087492
 20
-352.59817135860794
 10
29.28932188134422
 20
-336.86291501014784
 10
39.123857099126326
 20
-323.0634655534086
 10
50.0
 20
-311.4359353944892
 10
61.73165676349163
 20
-302.1792747981963
 10
74.11809548974998
 20
-295.4518677937449
 10
86.94738077799411
 20
-291.36882218020037
 10
100.0
 20
-290.0
 10
113.05261922200589
 20
-291.36882218020037
 10
125.88190451025002
 20
-295.4518677937449
 10
138.26834323650837
 20
-302.1792747981963
 10
150.0
 20
-311.4359353944892
 10
160.87614290087367
 20
-323.0634655534086
 10
170.71067811865578
 20
-336.86291501014784
 10
179.33533402912508
 20
-352.59817135860794
 10
186.60254037844425
 20
-370.0
 10
192.38795325112733
 20
-388.7706508215924
 10
196.5925826289058
 20
-408.58895278359705
 10
199.14448613738205
 20
-429.1158092448022
 10
200.0
 20
-450.0
 10
199.14448613738205
 20
-470.8841907551978
 10
196.5925826289058
 20
-491.41104721640295
 10
192.38795325112733
 20
-511.2293491784076
 10
186.60254037844425
 20
-530.0
 10
179.33533402912508
 20
-547.4018286413921
 10
170.71067811865578
 20
-563.1370849898522
 10
160.87614290087367
 20
-576.9365344465914
 10
150.0
 20
-588.5640646055108
 10
138.26834323650837
 20
-597.8207252018037
 10
125.88190451025002
 20
-604.5481322062551
 10
113.05261922200589
 20
-608.6311778197996
  0
LWPOLYLINE
  5
26C
330
17
100
AcDbEntity
  8
A-FURN
100
AcDbPolyline
 90
20
 70
1
 10
320.0
 20
-1050.0
 10
630.0
 20
-1050.0
 10
637.6536686473017
 20
-1051.5224093497743
 10
644.142135623731
 20
-1055.857864376269
 10
648.4775906502257
 20
-1062.3463313526981
 10
650.0
 20
-1070.0
 10
650.0
 20
-1480.0
 10
648.4775906502257
 20
-1487.6536686473019
 10
644.142135623731
 20
-1494.142135623731
 10
637.6536686473017
 20
-1498.4775906502257
 10
630.0
 20
-1500.0
 10
320.0
 20
-1500.0
 10
312.3463313526982
 20
-1498.4775906502257
 10
305.85786437626905
 20
-1494.142135623731
 10
301.52240934977425
 20
-1487.6536686473019
 10
300.0
 20
-1480.0
 10
300.0
 20
-1070.0
 10
301.52240934977425
 20
-1062.3463313526981
 10
305.85786437626905
 20
-1055.8578643762692
 10
312.3463313526982
 20
-1051.5224093497743
  0
LWPOLYLINE
  5
26D
330
17
100
AcDbEntity
  8
A-FURN
100
AcDbPolyline
 90
48
 70
1
 10
356.0
 20
-1275.0
 10
356.9581755261315
 20
-1255.029492590329
 10
359.81630745562506
 20
-1235.4006860993177
 10
364.5254923587381
 20
-1216.4494348481385
 10
371.0051547761432
 20
-1198.5
 10
379.14442588738166
 20
-1181.859501361665
 10
388.80404050710786
 20
-1166.8126624784563
 10
399.8187199510212
 20
-1153.61693893544
 10
412.0
 20
-1142.4981132209796
 10
425.13945557511033
 20
-1133.6464315257763
 10
439.0122669485172
 20
-1127.213348577774
 10
453.3810664713528
 20
-1123.3089362098035
 10
468.0
 20
-1122.0
 10
482.6189335286472
 20
-1123.3089362098035
 10
496.9877330514828
 20
-1127.213348577774
 10
510.86054442488967
 20
-1133.6464315257763
 10
524.0
 20
-1142.4981132209796
 10
536.1812800489788
 20
-1153.61693893544
 10
547.1959594928921
 20
-1166.8126624784563
 10
556.8555741126183
 20
-1181.859501361665
 10
564.9948452238568
 20
-1198.5
 10
571.4745076412619
 20
-1216.4494348481385
 10
576.1836925443749
 20
-1235.4006860993177
 10
579.0418244738685
 20
-1255.029492590329
 10
580.0
 20
-1275.0
 10
579.0418244738685
 20
-1294.970507409671
 10
576.1836925443749
 20
-1314.5993139006823
 10
571.4745076412619
 20
-1333.5505651518615
 10
564.9948452238568
 20
-1351.5
 10
556.8555741126183
 20
-1368.140498638335
 10
547.1959594928921
 20
-1383.1873375215437
 10
536.1812800489788
 20
-1396.38306106456
 10
524.0
 20
-1407.5018867790204
 10
510.86054442488967
 20
-1416.3535684742237
 10
496.9877330514828
 20
-1422.786651422226
 10
482.6189335286472
 20
-1426.6910637901965
 10
468.0
 20
-1428.0
 10
453.3810664713528
 20
-1426.6910637901965
 10
439.0122669485172
 20
-1422.786651422226
 10
425.13945557511033
 20
-1416.3535684742237
 10
412.0
 20
-1407.5018867790204
 10
399.8187199510212
 20
-1396.38306106456
 10
388.80404050710786
 20
-1383.1873375215437
 10
379.14442588738166
 20
-1368.140498638335
 10
371.0051547761432
 20
-1351.5
 10
364.5254923587381
 20
-1333.5505651518615
 10
359.81630745562506
 20
-1314.5993139006823
 10
356.9581755261315
 20
-1294.970507409671
  0
CIRCLE
  5
26E
330
17
100
AcDbEntity
  8
A-FURN
100
AcDbCircle
 10
468.0
 20
-1275.0
 30
0.0
 40
25.0
  0
LWPOLYLINE
  5
26F
330
17
100
AcDbEntity
  8
A-FURN
100
AcDbPolyline
 90
4
 70
1
 10
750.0
 20
0.0
 10
750.0
 20
-650.0
 10
1350.0
 20
-650.0
 10
1350.0
 20
0.0
  0
LWPOLYLINE
  5
270
330
17
100
AcDbEntity
  8
A-FURN
100
AcDbPolyline
 90
4
 70
1
 10
790.0
 20
-40.0
 10
790.0
 20
-590.0
 10
1310.0
 20
-590.0
 10
1310.0
 20
-40.0
  0
LWPOLYLINE
  5
271
330
17
100
AcDbEntity
  8
A-FURN
100
AcDbPolyline
 90
2
 70
0
 10
790.0
 20
-40.0
 10
1310.0
 20
-590.0
  0
LWPOLYLINE
  5
272
330
17
100
AcDbEntity
  8
A-FURN
100
AcDbPolyline
 90
2
 70
0
 10
1310.0
 20
-40.0
 10
790.0
 20
-590.0
  0
LWPOLYLINE
  5
273
330
17
100
AcDbEntity
  8
A-FURN
100
AcDbPolyline
 90
4
 70
1
 10
1350.0
 20
0.0
 10
1350.0
 20
-600.0
 10
3900.0
 20
-600.0
 10
3900.0
 20
0.0
  0
LWPOLYLINE
  5
274
330
17
100
AcDbEntity
  8
A-FURN
100
AcDbPolyline
 90
20
 70
1
 10
1650.0
 20
-470.0
 10
1650.0
 20
-100.0
 10
1653.8060233744357
 20
-80.86582838174552
 10
1664.6446609406726
 20
-64.64466094067262
 10
1680.8658283817456
 20
-53.80602337443566
 10
1700.0
 20
-50.0
 10
2400.0
 20
-50.0
 10
2419.1341716182546
 20
-53.80602337443566
 10
2435.3553390593274
 20
-64.64466094067262
 10
2446.1939766255646
 20
-80.86582838174552
 10
2450.0
 20
-100.0
 10
2450.0
 20
-470.0
 10
2446.1939766255646
 20
-489.13417161825447
 10
2435.3553390593274
 20
-505.3553390593274
 10
2419.1341716182546
 20
-516.1939766255643
 10
2400.0
 20
-520.0
 10
1700.0
 20
-520.0
 10
1680.8658283817456
 20
-516.1939766255643
 10
1664.6446609406726
 20
-505.3553390593274
 10
1653.8060233744357
 20
-489.13417161825447
  0
LWPOLYLINE
  5
275
330
17
100
AcDbEntity
  8
A-FURN
100
AcDbPolyline
 90
20
 70
1
 10
1710.0
 20
-400.0
 10
1710.0
 20
-170.0
 10
1714.5672280493227
 20
-147.0389940580946
 10
1727.5735931288073
 20
-127.57359312880715
 10
1747.0389940580947
 20
-114.5672280493228
 10
1770.0
 20
-110.0
 10
2030.0
 20
-110.0
 10
2052.9610059419056
 20
-114.5672280493228
 10
2072.4264068711927
 20
-127.57359312880715
 10
2085.4327719506773
 20
-147.0389940580946
 10
2090.0
 20
-170.0
 10
2090.0
 20
-400.0
 10
2085.4327719506773
 20
-422.9610059419054
 10
2072.4264068711927
 20
-442.42640687119285
 10
2052.9610059419056
 20
-455.4327719506772
 10
2030.0
 20
-460.0
 10
1770.0
 20
-460.0
 10
1747.0389940580947
 20
-455.4327719506772
 10
1727.5735931288073
 20
-442.42640687119285
 10
1714.5672280493227
 20
-422.9610059419054
  0
CIRCLE
  5
276
330
17
100
AcDbEntity
  8
A-FURN
100
AcDbCircle
 10
1890.0
 20
-285.0
 30
0.0
 40
30.0
  0
LWPOLYLINE
  5
277
330
17
100
AcDbEntity
  8
A-FURN
100
AcDbPolyline
 90
2
 70
0
 10
2146.0
 20
-130.0
 10
2146.0
 20
-440.0
  0
LWPOLYLINE
  5
278
330
17
100
AcDbEntity
  8
A-FURN
100
AcDbPolyline
 90
2
 70
0
 10
2218.0
 20
-130.0
 10
2218.0
 20
-440.0
  0
LWPOLYLINE
  5
279
330
17
100
AcDbEntity
  8
A-FURN
100
AcDbPolyline
 90
2
 70
0
 10
2290.0
 20
-130.0
 10
2290.0
 20
-440.0
  0
LWPOLYLINE
  5
27A
330
17
100
AcDbEntity
  8
A-FURN
100
AcDbPolyline
 90
2
 70
0
 10
2362.0
 20
-130.0
 10
2362.0
 20
-440.0
  0
LWPOLYLINE
  5
27B
330
17
100
AcDbEntity
  8
A-FURN
  6
DASHED
 48
100.0
100
AcDbPolyline
 90
4
 70
1
 10
2520.0
 20
0.0
 10
2520.0
 20
-580.0
 10
3120.0
 20
-580.0
 10
3120.0
 20
0.0
  0
CIRCLE
  5
27C
330
17
100
AcDbEntity
  8
A-FURN
  6
DASHED
 48
100.0
100
AcDbCircle
 10
2820.0
 20
-310.0
 30
0.0
 40
200.0
  0
LWPOLYLINE
  5
27D
330
17
100
AcDbEntity
  8
A-FURN
100
AcDbPolyline
 90
20
 70
1
 10
3220.0
 20
-540.0
 10
3220.0
 20
-60.0
 10
3221.522409349774
 20
-52.34633135269821
 10
3225.857864376269
 20
-45.85786437626905
 10
3232.346331352698
 20
-41.522409349774264
 10
3240.0
 20
-40.0
 10
3780.0
 20
-40.0
 10
3787.653668647302
 20
-41.522409349774264
 10
3794.142135623731
 20
-45.85786437626905
 10
3798.4775906502255
 20
-52.34633135269821
 10
3800.0
 20
-60.0
 10
3800.0
 20
-540.0
 10
3798.4775906502255
 20
-547.6536686473019
 10
3794.142135623731
 20
-554.142135623731
 10
3787.653668647302
 20
-558.4775906502257
 10
3780.0
 20
-560.0
 10
3240.0
 20
-560.0
 10
3232.346331352698
 20
-558.4775906502257
 10
3225.857864376269
 20
-554.142135623731
 10
3221.522409349774
 20
-547.6536686473019
  0
CIRCLE
  5
27E
330
17
100
AcDbEntity
  8
A-FURN
100
AcDbCircle
 10
3382.4
 20
-196.0
 30
0.0
 40
95.0
  0
CIRCLE
  5
27F
330
17
100
AcDbEntity
  8
A-FURN
100
AcDbCircle
 10
3637.6
 20
-196.0
 30
0.0
 40
75.0
  0
CIRCLE
  5
280
330
17
100
AcDbEntity
  8
A-FURN
100
AcDbCircle
 10
3382.4
 20
-404.0
 30
0.0
 40
95.0
  0
CIRCLE
  5
281
330
17
100
AcDbEntity
  8
A-FURN
100
AcDbCircle
 10
3637.6
 20
-404.0
 30
0.0
 40
75.0
  0
LWPOLYLINE
  5
282
330
17
100
AcDbEntity
  8
A-FURN
100
AcDbPolyline
 90
20
 70
1
 10
1300.0
 20
-2270.0
 10
1300.0
 20
-1630.0
 10
1302.2836140246613
 20
-1618.5194970290472
 10
1308.7867965644036
 20
-1608.7867965644036
 10
1318.5194970290472
 20
-1602.2836140246613
 10
1330.0
 20
-1600.0
 10
2370.0
 20
-1600.0
 10
2381.480502970953
 20
-1602.2836140246613
 10
2391.2132034355964
 20
-1608.7867965644036
 10
2397.7163859753387
 20
-1618.5194970290472
 10
2400.0
 20
-1630.0
 10
2400.0
 20
-2270.0
 10
2397.7163859753387
 20
-2281.480502970953
 10
2391.2132034355964
 20
-2291.2132034355964
 10
2381.480502970953
 20
-2297.7163859753387
 10
2370.0
 20
-2300.0
 10
1330.0
 20
-2300.0
 10
1318.5194970290472
 20
-2297.7163859753387
 10
1308.7867965644036
 20
-2291.2132034355964
 10
1302.2836140246613
 20
-2281.480502970953
  0
LWPOLYLINE
  5
283
330
17
100
AcDbEntity
  8
A-FURN
100
AcDbPolyline
 90
20
 70
1
 10
1365.0
 20
-1540.0
 10
1365.0
 20
-1200.0
 10
1368.0448186995486
 20
-1184.6926627053965
 10
1376.715728752538
 20
-1171.715728752538
 10
1389.6926627053965
 20
-1163.0448186995486
 10
1405.0
 20
-1160.0
 10
1745.0
 20
-1160.0
 10
1760.3073372946037
 20
-1163.0448186995486
 10
1773.284271247462
 20
-1171.715728752538
 10
1781.9551813004514
 20
-1184.6926627053965
 10
1785.0
 20
-1200.0
 10
1785.0
 20
-1540.0
 10
1781.9551813004514
 20
-1555.3073372946037
 10
1773.284271247462
 20
-1568.284271247462
 10
1760.3073372946037
 20
-1576.9551813004514
 10
1745.0
 20
-1580.0
 10
1405.0
 20
-1580.0
 10
1389.6926627053965
 20
-1576.9551813004514
 10
1376.715728752538
 20
-1568.284271247462
 10
1368.0448186995486
 20
-1555.3073372946037
  0
LWPOLYLINE
  5
284
330
17
100
AcDbEntity
  8
A-FURN
100
AcDbPolyline
 90
20
 70
1
 10
1365.0
 20
-1210.0
 10
1365.0
 20
-1190.0
 10
1367.2836140246613
 20
-1178.5194970290472
 10
1373.7867965644036
 20
-1168.7867965644036
 10
1383.5194970290472
 20
-1162.2836140246613
 10
1395.0
 20
-1160.0
 10
1755.0
 20
-1160.0
 10
1766.4805029709528
 20
-1162.2836140246613
 10
1776.2132034355964
 20
-1168.7867965644036
 10
1782.7163859753387
 20
-1178.5194970290472
 10
1785.0
 20
-1190.0
 10
1785.0
 20
-1210.0
 10
1782.7163859753387
 20
-1221.4805029709528
 10
1776.2132034355964
 20
-1231.2132034355964
 10
1766.4805029709528
 20
-1237.7163859753387
 10
1755.0
 20
-1240.0
 10
1395.0
 20
-1240.0
 10
1383.5194970290472
 20
-1237.7163859753387
 10
1373.7867965644036
 20
-1231.2132034355964
 10
1367.2836140246613
 20
-1221.4805029709528
  0
LWPOLYLINE
  5
285
330
17
100
AcDbEntity
  8
A-FURN
100
AcDbPolyline
 90
20
 70
1
 10
1915.0
 20
-1540.0
 10
1915.0
 20
-1200.0
 10
1918.0448186995486
 20
-1184.6926627053965
 10
1926.715728752538
 20
-1171.715728752538
 10
1939.6926627053965
 20
-1163.0448186995486
 10
1955.0
 20
-1160.0
 10
2295.0
 20
-1160.0
 10
2310.3073372946037
 20
-1163.0448186995486
 10
2323.284271247462
 20
-1171.715728752538
 10
2331.9551813004514
 20
-1184.6926627053965
 10
2335.0
 20
-1200.0
 10
2335.0
 20
-1540.0
 10
2331.9551813004514
 20
-1555.3073372946037
 10
2323.284271247462
 20
-1568.284271247462
 10
2310.3073372946037
 20
-1576.9551813004514
 10
2295.0
 20
-1580.0
 10
1955.0
 20
-1580.0
 10
1939.6926627053965
 20
-1576.9551813004514
 10
1926.715728752538
 20
-1568.284271247462
 10
1918.0448186995486
 20
-1555.3073372946037
  0
LWPOLYLINE
  5
286
330
17
100
AcDbEntity
  8
A-FURN
100
AcDbPolyline
 90
20
 70
1
 10
1915.0
 20
-1210.0
 10
1915.0
 20
-1190.0
 10
1917.2836140246613
 20
-1178.5194970290472
 10
1923.7867965644036
 20
-1168.7867965644036
 10
1933.5194970290472
 20
-1162.2836140246613
 10
1945.0
 20
-1160.0
 10
2305.0
 20
-1160.0
 10
2316.480502970953
 20
-1162.2836140246613
 10
2326.2132034355964
 20
-1168.7867965644036
 10
2332.7163859753387
 20
-1178.5194970290472
 10
2335.0
 20
-1190.0
 10
2335.0
 20
-1210.0
 10
2332.7163859753387
 20
-1221.4805029709528
 10
2326.2132034355964
 20
-1231.2132034355964
 10
2316.480502970953
 20
-1237.7163859753387
 10
2305.0
 20
-1240.0
 10
1945.0
 20
-1240.0
 10
1933.5194970290472
 20
-1237.7163859753387
 10
1923.7867965644036
 20
-1231.2132034355964
 10
1917.2836140246613
 20
-1221.4805029709528
  0
LWPOLYLINE
  5
287
330
17
100
AcDbEntity
  8
A-FURN
100
AcDbPolyline
 90
20
 70
1
 10
1240.0
 20
-1740.0
 10
900.0
 20
-1740.0
 10
884.6926627053964
 20
-1743.0448186995486
 10
871.7157287525381
 20
-1751.715728752538
 10
863.0448186995485
 20
-1764.6926627053965
 10
860.0
 20
-1780.0
 10
860.0
 20
-2120.0
 10
863.0448186995485
 20
-2135.3073372946037
 10
871.7157287525381
 20
-2148.284271247462
 10
884.6926627053964
 20
-2156.9551813004514
 10
900.0
 20
-2160.0
 10
1240.0
 20
-2160.0
 10
1255.3073372946037
 20
-2156.9551813004514
 10
1268.284271247462
 20
-2148.284271247462
 10
1276.9551813004514
 20
-2135.3073372946037
 10
1280.0
 20
-2120.0
 10
1280.0
 20
-1780.0
 10
1276.9551813004514
 20
-1764.6926627053965
 10
1268.284271247462
 20
-1751.715728752538
 10
1255.3073372946037
 20
-1743.0448186995486
  0
LWPOLYLINE
  5
288
330
17
100
AcDbEntity
  8
A-FURN
100
AcDbPolyline
 90
20
 70
1
 10
910.0
 20
-1740.0
 10
890.0
 20
-1740.0
 10
878.5194970290473
 20
-1742.2836140246613
 10
868.7867965644036
 20
-1748.7867965644036
 10
862.2836140246613
 20
-1758.5194970290472
 10
860.0
 20
-1770.0
 10
860.0
 20
-2130.0
 10
862.2836140246613
 20
-2141.480502970953
 10
868.7867965644036
 20
-2151.2132034355964
 10
878.5194970290473
 20
-2157.7163859753387
 10
890.0
 20
-2160.0
 10
910.0
 20
-2160.0
 10
921.4805029709527
 20
-2157.7163859753387
 10
931.2132034355964
 20
-2151.2132034355964
 10
937.7163859753387
 20
-2141.480502970953
 10
940.0
 20
-2130.0
 10
940.0
 20
-1770.0
 10
937.7163859753387
 20
-1758.5194970290472
 10
931.2132034355964
 20
-1748.7867965644036
 10
921.4805029709527
 20
-1742.2836140246613
  0
LWPOLYLINE
  5
289
330
17
100
AcDbEntity
  8
A-FURN
100
AcDbPolyline
 90
20
 70
1
 10
2460.0
 20
-1740.0
 10
2800.0
 20
-1740.0
 10
2815.3073372946037
 20
-1743.0448186995486
 10
2828.2842712474617
 20
-1751.715728752538
 10
2836.9551813004514
 20
-1764.6926627053965
 10
2840.0
 20
-1780.0
 10
2840.0
 20
-2120.0
 10
2836.9551813004514
 20
-2135.3073372946037
 10
2828.2842712474617
 20
-2148.284271247462
 10
2815.3073372946037
 20
-2156.9551813004514
 10
2800.0
 20
-2160.0
 10
2460.0
 20
-2160.0
 10
2444.6926627053963
 20
-2156.9551813004514
 10
2431.715728752538
 20
-2148.284271247462
 10
2423.0448186995486
 20
-2135.3073372946037
 10
2420.0
 20
-2120.0
 10
2420.0
 20
-1780.0
 10
2423.0448186995486
 20
-1764.6926627053965
 10
2431.715728752538
 20
-1751.715728752538
 10
2444.6926627053963
 20
-1743.0448186995486
  0
LWPOLYLINE
  5
28A
330
17
100
AcDbEntity
  8
A-FURN
100
AcDbPolyline
 90
20
 70
1
 10
2790.0
 20
-1740.0
 10
2810.0
 20
-1740.0
 10
2821.480502970953
 20
-1742.2836140246613
 10
2831.2132034355964
 20
-1748.7867965644036
 10
2837.7163859753387
 20
-1758.5194970290472
 10
2840.0
 20
-1770.0
 10
2840.0
 20
-2130.0
 10
2837.7163859753387
 20
-2141.480502970953
 10
2831.2132034355964
 20
-2151.2132034355964
 10
2821.480502970953
 20
-2157.7163859753387
 10
2810.0
 20
-2160.0
 10
2790.0
 20
-2160.0
 10
2778.519497029047
 20
-2157.7163859753387
 10
2768.7867965644036
 20
-2151.2132034355964
 10
2762.2836140246613
 20
-2141.480502970953
 10
2760.0
 20
-2130.0
 10
2760.0
 20
-1770.0
 10
2762.2836140246613
 20
-1758.5194970290472
 10
2768.7867965644036
 20
-1748.7867965644036
 10
2778.519497029047
 20
-1742.2836140246613
  0
LWPOLYLINE
  5
28B
330
17
100
AcDbEntity
  8
A-FURN
100
AcDbPolyline
 90
4
 70
1
 10
4740.0
 20
0.0
 10
5340.0
 20
0.0
 10
5340.0
 20
-1750.0
 10
4740.0
 20
-1750.0
  0
LWPOLYLINE
  5
28C
330
17
100
AcDbEntity
  8
A-FURN
100
AcDbPolyline
 90
2
 70
0
 10
5300.0
 20
0.0
 10
5300.0
 20
-1750.0
  0
LWPOLYLINE
  5
28D
330
17
100
AcDbEntity
  8
A-FURN
100
AcDbPolyline
 90
2
 70
0
 10
5040.0
 20
-60.0
 10
5040.0
 20
-1690.0
  0
LWPOLYLINE
  5
28E
330
17
100
AcDbEntity
  8
A-FURN
100
AcDbPolyline
 90
2
 70
0
 10
4870.0
 20
-140.0
 10
5210.0
 20
-220.0
  0
LWPOLYLINE
  5
28F
330
17
100
AcDbEntity
  8
A-FURN
100
AcDbPolyline
 90
2
 70
0
 10
4870.0
 20
-320.0
 10
5210.0
 20
-400.0
  0
LWPOLYLINE
  5
290
330
17
100
AcDbEntity
  8
A-FURN
100
AcDbPolyline
 90
2
 70
0
 10
4870.0
 20
-500.0
 10
5210.0
 20
-580.0
  0
LWPOLYLINE
  5
291
330
17
100
AcDbEntity
  8
A-FURN
100
AcDbPolyline
 90
2
 70
0
 10
4870.0
 20
-680.0
 10
5210.0
 20
-760.0
  0
LWPOLYLINE
  5
292
330
17
100
AcDbEntity
  8
A-FURN
100
AcDbPolyline
 90
2
 70
0
 10
4870.0
 20
-860.0
 10
5210.0
 20
-940.0
  0
LWPOLYLINE
  5
293
330
17
100
AcDbEntity
  8
A-FURN
100
AcDbPolyline
 90
2
 70
0
 10
4870.0
 20
-1040.0
 10
5210.0
 20
-1120.0
  0
LWPOLYLINE
  5
294
330
17
100
AcDbEntity
  8
A-FURN
100
AcDbPolyline
 90
2
 70
0
 10
4870.0
 20
-1220.0
 10
5210.0
 20
-1300.0
  0
LWPOLYLINE
  5
295
330
17
100
AcDbEntity
  8
A-FURN
100
AcDbPolyline
 90
2
 70
0
 10
4870.0
 20
-1400.0
 10
5210.0
 20
-1480.0
  0
LWPOLYLINE
  5
296
330
17
100
AcDbEntity
  8
A-FURN
100
AcDbPolyline
 90
2
 70
0
 10
4870.0
 20
-1580.0
 10
5210.0
 20
-1660.0
  0
LWPOLYLINE
  5
297
330
17
100
AcDbEntity
  8
A-FURN
100
AcDbPolyline
 90
20
 70
1
 10
6900.0
 20
-1970.0
 10
6900.0
 20
-30.0
 10
6902.283614024662
 20
-18.519497029047308
 10
6908.786796564404
 20
-8.786796564403577
 10
6918.519497029048
 20
-2.2836140246613965
 10
6930.0
 20
-0.0
 10
8470.0
 20
-0.0
 10
8481.480502970953
 20
-2.2836140246613965
 10
8491.213203435596
 20
-8.786796564403577
 10
8497.716385975338
 20
-18.519497029047308
 10
8500.0
 20
-30.0
 10
8500.0
 20
-1970.0
 10
8497.716385975338
 20
-1981.4805029709528
 10
8491.213203435596
 20
-1991.2132034355964
 10
8481.480502970953
 20
-1997.7163859753387
 10
8470.0
 20
-2000.0
 10
6930.0
 20
-2000.0
 10
6918.519497029048
 20
-1997.7163859753387
 10
6908.786796564404
 20
-1991.2132034355964
 10
6902.283614024662
 20
-1981.4805029709528
  0
LWPOLYLINE
  5
298
330
17
100
AcDbEntity
  8
A-FURN
100
AcDbPolyline
 90
20
 70
1
 10
6990.0
 20
-410.0
 10
6990.0
 20
-130.0
 10
6994.567228049323
 20
-107.03899405809462
 10
7007.573593128807
 20
-87.57359312880715
 10
7027.038994058094
 20
-74.5672280493228
 10
7050.0
 20
-70.0
 10
7595.0
 20
-70.0
 10
7617.961005941906
 20
-74.5672280493228
 10
7637.426406871193
 20
-87.57359312880715
 10
7650.432771950677
 20
-107.03899405809462
 10
7655.0
 20
-130.0
 10
7655.0
 20
-410.0
 10
7650.432771950677
 20
-432.9610059419054
 10
7637.426406871193
 20
-452.42640687119285
 10
7617.961005941906
 20
-465.4327719506772
 10
7595.0
 20
-470.0
 10
7050.0
 20
-470.0
 10
7027.038994058094
 20
-465.4327719506772
 10
7007.573593128807
 20
-452.42640687119285
 10
6994.567228049323
 20
-432.9610059419054
  0
LWPOLYLINE
  5
299
330
17
100
AcDbEntity
  8
A-FURN
100
AcDbPolyline
 90
20
 70
1
 10
7745.0
 20
-410.0
 10
7745.0
 20
-130.0
 10
7749.567228049323
 20
-107.03899405809462
 10
7762.573593128807
 20
-87.57359312880715
 10
7782.038994058094
 20
-74.5672280493228
 10
7805.0
 20
-70.0
 10
8350.0
 20
-70.0
 10
8372.961005941905
 20
-74.5672280493228
 10
8392.426406871193
 20
-87.57359312880715
 10
8405.432771950676
 20
-107.03899405809462
 10
8410.0
 20
-130.0
 10
8410.0
 20
-410.0
 10
8405.432771950676
 20
-432.9610059419054
 10
8392.426406871193
 20
-452.42640687119285
 10
8372.961005941905
 20
-465.4327719506772
 10
8350.0
 20
-470.0
 10
7805.0
 20
-470.0
 10
7782.038994058094
 20
-465.4327719506772
 10
7762.573593128807
 20
-452.42640687119285
 10
7749.567228049323
 20
-432.9610059419054
  0
LWPOLYLINE
  5
29A
330
17
100
AcDbEntity
  8
A-FURN
100
AcDbPolyline
 90
2
 70
0
 10
6900.0
 20
-620.0
 10
8500.0
 20
-620.0
  0
LWPOLYLINE
  5
29B
330
17
100
AcDbEntity
  8
A-FURN
100
AcDbPolyline
 90
2
 70
0
 10
8080.0
 20
-620.0
 10
8500.0
 20
-1000.0
  0
LWPOLYLINE
  5
29C
330
17
100
AcDbEntity
  8
A-FURN
100
AcDbPolyline
 90
4
 70
1
 10
6400.0
 20
0.0
 10
6400.0
 20
-400.0
 10
6850.0
 20
-400.0
 10
6850.0
 20
0.0
  0
CIRCLE
  5
29D
330
17
100
AcDbEntity
  8
A-FURN
100
AcDbCircle
 10
6625.0
 20
-200.0
 30
0.0
 40
110.0
  0
LWPOLYLINE
  5
29E
330
17
100
AcDbEntity
  8
A-FURN
100
AcDbPolyline
 90
4
 70
1
 10
8550.0
 20
0.0
 10
8550.0
 20
-400.0
 10
9000.0
 20
-400.0
 10
9000.0
 20
0.0
  0
CIRCLE
  5
29F
330
17
100
AcDbEntity
  8
A-FURN
100
AcDbCircle
 10
8775.0
 20
-200.0
 30
0.0
 40
110.0
  0
LWPOLYLINE
  5
2A0
330
17
100
AcDbEntity
  8
A-FURN
100
AcDbPolyline
 90
4
 70
1
 10
10650.0
 20
-150.0
 10
10200.0
 20
-150.0
 10
10200.0
 20
-1100.0
 10
10650.0
 20
-1100.0
  0
LWPOLYLINE
  5
2A1
330
17
100
AcDbEntity
  8
A-FURN
100
AcDbPolyline
 90
2
 70
0
 10
10240.0
 20
-150.0
 10
10240.0
 20
-1100.0
  0
LWPOLYLINE
  5
2A2
330
17
100
AcDbEntity
  8
A-FURN
100
AcDbPolyline
 90
20
 70
1
 10
10060.0
 20
-425.0
 10
9740.0
 20
-425.0
 10
9724.692662705396
 20
-428.0448186995485
 10
9711.715728752539
 20
-436.7157287525381
 10
9703.044818699549
 20
-449.6926627053964
 10
9700.0
 20
-465.0
 10
9700.0
 20
-785.0
 10
9703.044818699549
 20
-800.3073372946036
 10
9711.715728752539
 20
-813.2842712474619
 10
9724.692662705396
 20
-821.9551813004515
 10
9740.0
 20
-825.0
 10
10060.0
 20
-825.0
 10
10075.307337294604
 20
-821.9551813004515
 10
10088.284271247461
 20
-813.2842712474619
 10
10096.955181300451
 20
-800.3073372946036
 10
10100.0
 20
-785.0
 10
10100.0
 20
-465.0
 10
10096.955181300451
 20
-449.6926627053964
 10
10088.284271247461
 20
-436.7157287525381
 10
10075.307337294604
 20
-428.0448186995485
  0
LWPOLYLINE
  5
2A3
330
17
100
AcDbEntity
  8
A-FURN
100
AcDbPolyline
 90
20
 70
1
 10
9750.0
 20
-425.0
 10
9730.0
 20
-425.0
 10
9718.519497029047
 20
-427.2836140246614
 10
9708.786796564404
 20
-433.7867965644036
 10
9702.283614024662
 20
-443.51949702904733
 10
9700.0
 20
-455.0
 10
9700.0
 20
-795.0
 10
9702.283614024662
 20
-806.4805029709527
 10
9708.786796564404
 20
-816.2132034355964
 10
9718.519497029047
 20
-822.7163859753387
 10
9730.0
 20
-825.0
 10
9750.0
 20
-825.0
 10
9761.480502970953
 20
-822.7163859753387
 10
9771.213203435596
 20
-816.2132034355964
 10
9777.716385975338
 20
-806.4805029709527
 10
9780.0
 20
-795.0
 10
9780.0
 20
-455.0
 10
9777.716385975338
 20
-443.51949702904733
 10
9771.213203435596
 20
-433.7867965644036
 10
9761.480502970953
 20
-427.2836140246614
  0
LWPOLYLINE
  5
2A4
330
17
100
AcDbEntity
  8
A-FURN
100
AcDbPolyline
 90
20
 70
1
 10
9220.0
 20
-5100.0
 10
7280.0
 20
-5100.0
 10
7268.519497029048
 20
-5102.283614024662
 10
7258.786796564404
 20
-5108.786796564404
 10
7252.283614024662
 20
-5118.519497029048
 10
7250.0
 20
-5130.0
 10
7250.0
 20
-5970.0
 10
7252.283614024662
 20
-5981.480502970952
 10
7258.786796564404
 20
-5991.213203435596
 10
7268.519497029048
 20
-5997.716385975338
 10
7280.0
 20
-6000.0
 10
9220.0
 20
-6000.0
 10
9231.480502970953
 20
-5997.716385975338
 10
9241.213203435596
 20
-5991.213203435596
 10
9247.716385975338
 20
-5981.480502970952
 10
9250.0
 20
-5970.0
 10
9250.0
 20
-5130.0
 10
9247.716385975338
 20
-5118.519497029048
 10
9241.213203435596
 20
-5108.786796564404
 10
9231.480502970953
 20
-5102.283614024662
  0
LWPOLYLINE
  5
2A5
330
17
100
AcDbEntity
  8
A-FURN
100
AcDbPolyline
 90
20
 70
1
 10
7640.0
 20
-5210.0
 10
7380.0
 20
-5210.0
 10
7357.038994058094
 20
-5214.567228049323
 10
7337.573593128807
 20
-5227.573593128807
 10
7324.567228049323
 20
-5247.038994058094
 10
7320.0
 20
-5270.0
 10
7320.0
 20
-5830.0
 10
7324.567228049323
 20
-5852.961005941906
 10
7337.573593128807
 20
-5872.426406871193
 10
7357.038994058094
 20
-5885.432771950677
 10
7380.0
 20
-5890.0
 10
7640.0
 20
-5890.0
 10
7662.961005941906
 20
-5885.432771950677
 10
7682.426406871193
 20
-5872.426406871193
 10
7695.432771950677
 20
-5852.961005941906
 10
7700.0
 20
-5830.0
 10
7700.0
 20
-5270.0
 10
7695.432771950677
 20
-5247.038994058094
 10
7682.426406871193
 20
-5227.573593128807
 10
7662.961005941906
 20
-5214.567228049323
  0
LWPOLYLINE
  5
2A6
330
17
100
AcDbEntity
  8
A-FURN
100
AcDbPolyline
 90
2
 70
0
 10
7870.0
 20
-5100.0
 10
7870.0
 20
-6000.0
  0
LWPOLYLINE
  5
2A7
330
17
100
AcDbEntity
  8
A-FURN
100
AcDbPolyline
 90
2
 70
0
 10
7870.0
 20
-5580.0
 10
8250.0
 20
-6000.0
  0
LWPOLYLINE
  5
2A8
330
17
100
AcDbEntity
  8
A-FURN
100
AcDbPolyline
 90
4
 70
1
 10
6800.0
 20
-6000.0
 10
6800.0
 20
-5600.0
 10
7200.0
 20
-5600.0
 10
7200.0
 20
-6000.0
  0
CIRCLE
  5
2A9
330
17
100
AcDbEntity
  8
A-FURN
100
AcDbCircle
 10
7000.0
 20
-5800.0
 30
0.0
 40
110.0
  0
LWPOLYLINE
  5
2AA
330
17
100
AcDbEntity
  8
A-FURN
100
AcDbPolyline
 90
4
 70
1
 10
5930.0
 20
-4650.0
 10
6530.0
 20
-4650.0
 10
6530.0
 20
-6000.0
 10
5930.0
 20
-6000.0
  0
LWPOLYLINE
  5
2AB
330
17
100
AcDbEntity
  8
A-FURN
100
AcDbPolyline
 90
2
 70
0
 10
6490.0
 20
-4650.0
 10
6490.0
 20
-6000.0
  0
LWPOLYLINE
  5
2AC
330
17
100
AcDbEntity
  8
A-FURN
100
AcDbPolyline
 90
2
 70
0
 10
6230.0
 20
-4710.0
 10
6230.0
 20
-5940.0
  0
LWPOLYLINE
  5
2AD
330
17
100
AcDbEntity
  8
A-FURN
100
AcDbPolyline
 90
2
 70
0
 10
6060.0
 20
-4790.0
 10
6400.0
 20
-4870.0
  0
LWPOLYLINE
  5
2AE
330
17
100
AcDbEntity
  8
A-FURN
100
AcDbPolyline
 90
2
 70
0
 10
6060.0
 20
-4970.0
 10
6400.0
 20
-5050.0
  0
LWPOLYLINE
  5
2AF
330
17
100
AcDbEntity
  8
A-FURN
100
AcDbPolyline
 90
2
 70
0
 10
6060.0
 20
-5150.0
 10
6400.0
 20
-5230.0
  0
LWPOLYLINE
  5
2B0
330
17
100
AcDbEntity
  8
A-FURN
100
AcDbPolyline
 90
2
 70
0
 10
6060.0
 20
-5330.0
 10
6400.0
 20
-5410.0
  0
LWPOLYLINE
  5
2B1
330
17
100
AcDbEntity
  8
A-FURN
100
AcDbPolyline
 90
2
 70
0
 10
6060.0
 20
-5510.0
 10
6400.0
 20
-5590.0
  0
LWPOLYLINE
  5
2B2
330
17
100
AcDbEntity
  8
A-FURN
100
AcDbPolyline
 90
2
 70
0
 10
6060.0
 20
-5690.0
 10
6400.0
 20
-5770.0
  0
LWPOLYLINE
  5
2B3
330
17
100
AcDbEntity
  8
A-FURN
100
AcDbPolyline
 90
4
 70
1
 10
7800.0
 20
-3800.0
 10
7800.0
 20
-4400.0
 10
9000.0
 20
-4400.0
 10
9000.0
 20
-3800.0
  0
LWPOLYLINE
  5
2B4
330
17
100
AcDbEntity
  8
A-FURN
100
AcDbPolyline
 90
4
 70
1
 10
8540.0
 20
-3840.0
 10
8540.0
 20
-4340.0
 10
8960.0
 20
-4340.0
 10
8960.0
 20
-3840.0
  0
LWPOLYLINE
  5
2B5
330
17
100
AcDbEntity
  8
A-FURN
100
AcDbPolyline
 90
20
 70
1
 10
8190.0
 20
-4450.0
 10
8190.0
 20
-4790.0
 10
8193.044818699549
 20
-4805.307337294604
 10
8201.715728752539
 20
-4818.284271247462
 10
8214.692662705396
 20
-4826.955181300452
 10
8230.0
 20
-4830.0
 10
8570.0
 20
-4830.0
 10
8585.307337294604
 20
-4826.955181300452
 10
8598.284271247461
 20
-4818.284271247462
 10
8606.955181300451
 20
-4805.307337294604
 10
8610.0
 20
-4790.0
 10
8610.0
 20
-4450.0
 10
8606.955181300451
 20
-4434.692662705396
 10
8598.284271247461
 20
-4421.715728752538
 10
8585.307337294604
 20
-4413.044818699548
 10
8570.0
 20
-4410.0
 10
8230.0
 20
-4410.0
 10
8214.692662705396
 20
-4413.044818699548
 10
8201.715728752539
 20
-4421.715728752538
 10
8193.044818699549
 20
-4434.692662705396
  0
LWPOLYLINE
  5
2B6
330
17
100
AcDbEntity
  8
A-FURN
100
AcDbPolyline
 90
20
 70
1
 10
8190.0
 20
-4780.0
 10
8190.0
 20
-4800.0
 10
8192.283614024662
 20
-4811.480502970952
 10
8198.786796564404
 20
-4821.213203435596
 10
8208.519497029047
 20
-4827.716385975338
 10
8220.0
 20
-4830.0
 10
8580.0
 20
-4830.0
 10
8591.480502970953
 20
-4827.716385975338
 10
8601.213203435596
 20
-4821.213203435596
 10
8607.716385975338
 20
-4811.480502970952
 10
8610.0
 20
-4800.0
 10
8610.0
 20
-4780.0
 10
8607.716385975338
 20
-4768.519497029048
 10
8601.213203435596
 20
-4758.786796564404
 10
8591.480502970953
 20
-4752.283614024662
 10
8580.0
 20
-4750.0
 10
8220.0
 20
-4750.0
 10
8208.519497029047
 20
-4752.283614024662
 10
8198.786796564404
 20
-4758.786796564404
 10
8192.283614024662
 20
-4768.519497029048
  0
LWPOLYLINE
  5
2B7
330
17
100
AcDbEntity
  8
A-FURN
100
AcDbPolyline
 90
20
 70
1
 10
9450.0
 20
-4030.0
 10
9450.0
 20
-5970.0
 10
9452.283614024662
 20
-5981.480502970952
 10
9458.786796564404
 20
-5991.213203435596
 10
9468.519497029047
 20
-5997.716385975338
 10
9480.0
 20
-6000.0
 10
10320.0
 20
-6000.0
 10
10331.480502970953
 20
-5997.716385975338
 10
10341.213203435596
 20
-5991.213203435596
 10
10347.716385975338
 20
-5981.480502970952
 10
10350.0
 20
-5970.0
 10
10350.0
 20
-4030.0
 10
10347.716385975338
 20
-4018.519497029047
 10
10341.213203435596
 20
-4008.7867965644036
 10
10331.480502970953
 20
-4002.2836140246613
 10
10320.0
 20
-4000.0
 10
9480.0
 20
-4000.0
 10
9468.519497029047
 20
-4002.2836140246613
 10
9458.786796564404
 20
-4008.7867965644036
 10
9452.283614024662
 20
-4018.519497029047
  0
LWPOLYLINE
  5
2B8
330
17
100
AcDbEntity
  8
A-FURN
100
AcDbPolyline
 90
20
 70
1
 10
9560.0
 20
-5610.0
 10
9560.0
 20
-5870.0
 10
9564.567228049324
 20
-5892.961005941906
 10
9577.573593128807
 20
-5912.426406871193
 10
9597.038994058095
 20
-5925.432771950677
 10
9620.0
 20
-5930.0
 10
10180.0
 20
-5930.0
 10
10202.961005941905
 20
-5925.432771950677
 10
10222.426406871193
 20
-5912.426406871193
 10
10235.432771950676
 20
-5892.961005941906
 10
10240.0
 20
-5870.0
 10
10240.0
 20
-5610.0
 10
10235.432771950676
 20
-5587.038994058094
 10
10222.426406871193
 20
-5567.573593128807
 10
10202.961005941905
 20
-5554.567228049323
 10
10180.0
 20
-5550.0
 10
9620.0
 20
-5550.0
 10
9597.038994058095
 20
-5554.567228049323
 10
9577.573593128807
 20
-5567.573593128807
 10
9564.567228049324
 20
-5587.038994058094
  0
LWPOLYLINE
  5
2B9
330
17
100
AcDbEntity
  8
A-FURN
100
AcDbPolyline
 90
2
 70
0
 10
9450.0
 20
-5380.0
 10
10350.0
 20
-5380.0
  0
LWPOLYLINE
  5
2BA
330
17
100
AcDbEntity
  8
A-FURN
100
AcDbPolyline
 90
2
 70
0
 10
9930.0
 20
-5380.0
 10
10350.0
 20
-5000.0
  0
LWPOLYLINE
  5
2BB
330
17
100
AcDbEntity
  8
A-FURN
100
AcDbPolyline
 90
4
 70
1
 10
10250.0
 20
-3100.0
 10
10250.0
 20
-3700.0
 10
11400.0
 20
-3700.0
 10
11400.0
 20
-3100.0
  0
LWPOLYLINE
  5
2BC
330
17
100
AcDbEntity
  8
A-FURN
100
AcDbPolyline
 90
2
 70
0
 10
10250.0
 20
-3660.0
 10
11400.0
 20
-3660.0
  0
LWPOLYLINE
  5
2BD
330
17
100
AcDbEntity
  8
A-FURN
100
AcDbPolyline
 90
2
 70
0
 10
10310.0
 20
-3400.0
 10
11340.0
 20
-3400.0
  0
LWPOLYLINE
  5
2BE
330
17
100
AcDbEntity
  8
A-FURN
100
AcDbPolyline
 90
2
 70
0
 10
10390.0
 20
-3230.0
 10
10470.0
 20
-3570.0
  0
LWPOLYLINE
  5
2BF
330
17
100
AcDbEntity
  8
A-FURN
100
AcDbPolyline
 90
2
 70
0
 10
10570.0
 20
-3230.0
 10
10650.0
 20
-3570.0
  0
LWPOLYLINE
  5
2C0
330
17
100
AcDbEntity
  8
A-FURN
100
AcDbPolyline
 90
2
 70
0
 10
10750.0
 20
-3230.0
 10
10830.0
 20
-3570.0
  0
LWPOLYLINE
  5
2C1
330
17
100
AcDbEntity
  8
A-FURN
100
AcDbPolyline
 90
2
 70
0
 10
10930.0
 20
-3230.0
 10
11010.0
 20
-3570.0
  0
LWPOLYLINE
  5
2C2
330
17
100
AcDbEntity
  8
A-FURN
100
AcDbPolyline
 90
2
 70
0
 10
11110.0
 20
-3230.0
 10
11190.0
 20
-3570.0
  0
LWPOLYLINE
  5
2C3
330
17
100
AcDbEntity
  8
A-FURN
100
AcDbPolyline
 90
4
 70
1
 10
11810.0
 20
-4000.0
 10
11210.0
 20
-4000.0
 10
11210.0
 20
-5200.0
 10
11810.0
 20
-5200.0
  0
LWPOLYLINE
  5
2C4
330
17
100
AcDbEntity
  8
A-FURN
100
AcDbPolyline
 90
4
 70
1
 10
11770.0
 20
-4740.0
 10
11270.0
 20
-4740.0
 10
11270.0
 20
-5160.0
 10
11770.0
 20
-5160.0
  0
LWPOLYLINE
  5
2C5
330
17
100
AcDbEntity
  8
A-FURN
100
AcDbPolyline
 90
20
 70
1
 10
11130.0
 20
-4390.0
 10
10790.0
 20
-4390.0
 10
10774.692662705396
 20
-4393.044818699548
 10
10761.715728752539
 20
-4401.715728752538
 10
10753.044818699549
 20
-4414.692662705396
 10
10750.0
 20
-4430.0
 10
10750.0
 20
-4770.0
 10
10753.044818699549
 20
-4785.307337294604
 10
10761.715728752539
 20
-4798.284271247462
 10
10774.692662705396
 20
-4806.955181300452
 10
10790.0
 20
-4810.0
 10
11130.0
 20
-4810.0
 10
11145.307337294604
 20
-4806.955181300452
 10
11158.284271247461
 20
-4798.284271247462
 10
11166.955181300451
 20
-4785.307337294604
 10
11170.0
 20
-4770.0
 10
11170.0
 20
-4430.0
 10
11166.955181300451
 20
-4414.692662705396
 10
11158.284271247461
 20
-4401.715728752538
 10
11145.307337294604
 20
-4393.044818699548
  0
LWPOLYLINE
  5
2C6
330
17
100
AcDbEntity
  8
A-FURN
100
AcDbPolyline
 90
20
 70
1
 10
10800.0
 20
-4390.0
 10
10780.0
 20
-4390.0
 10
10768.519497029047
 20
-4392.283614024662
 10
10758.786796564404
 20
-4398.786796564404
 10
10752.283614024662
 20
-4408.519497029048
 10
10750.0
 20
-4420.0
 10
10750.0
 20
-4780.0
 10
10752.283614024662
 20
-4791.480502970952
 10
10758.786796564404
 20
-4801.213203435596
 10
10768.519497029047
 20
-4807.716385975338
 10
10780.0
 20
-4810.0
 10
10800.0
 20
-4810.0
 10
10811.480502970953
 20
-4807.716385975338
 10
10821.213203435596
 20
-4801.213203435596
 10
10827.716385975338
 20
-4791.480502970952
 10
10830.0
 20
-4780.0
 10
10830.0
 20
-4420.0
 10
10827.716385975338
 20
-4408.519497029048
 10
10821.213203435596
 20
-4398.786796564404
 10
10811.480502970953
 20
-4392.283614024662
  0
LWPOLYLINE
  5
2C7
330
17
100
AcDbEntity
  8
A-FURN
100
AcDbPolyline
 90
4
 70
1
 10
10400.0
 20
-6000.0
 10
10400.0
 20
-5600.0
 10
10800.0
 20
-5600.0
 10
10800.0
 20
-6000.0
  0
CIRCLE
  5
2C8
330
17
100
AcDbEntity
  8
A-FURN
100
AcDbCircle
 10
10600.0
 20
-5800.0
 30
0.0
 40
110.0
  0
LWPOLYLINE
  5
2C9
330
17
100
AcDbEntity
  8
A-FURN
100
AcDbPolyline
 90
20
 70
1
 10
840.0
 20
-4100.0
 10
60.0
 20
-4100.0
 10
37.038994058094616
 20
-4104.567228049323
 10
17.573593128807154
 20
-4117.573593128807
 10
4.567228049322793
 20
-4137.038994058094
 10
0.0
 20
-4160.0
 10
0.0
 20
-5940.0
 10
4.567228049322793
 20
-5962.961005941906
 10
17.573593128807154
 20
-5982.426406871193
 10
37.038994058094616
 20
-5995.432771950677
 10
60.0
 20
-6000.0
 10
840.0
 20
-6000.0
 10
862.9610059419053
 20
-5995.432771950677
 10
882.4264068711929
 20
-5982.426406871193
 10
895.4327719506772
 20
-5962.961005941906
 10
900.0
 20
-5940.0
 10
900.0
 20
-4160.0
 10
895.4327719506772
 20
-4137.038994058094
 10
882.4264068711929
 20
-4117.573593128807
 10
862.9610059419053
 20
-4104.567228049323
  0
LWPOLYLINE
  5
2CA
330
17
100
AcDbEntity
  8
A-FURN
100
AcDbPolyline
 90
20
 70
1
 10
180.0
 20
-4100.0
 10
40.0
 20
-4100.0
 10
24.692662705396412
 20
-4103.044818699548
 10
11.715728752538102
 20
-4111.715728752538
 10
3.0448186995485287
 20
-4124.692662705396
 10
0.0
 20
-4140.0
 10
0.0
 20
-5960.0
 10
3.0448186995485287
 20
-5975.307337294604
 10
11.715728752538102
 20
-5988.284271247462
 10
24.692662705396412
 20
-5996.955181300451
 10
40.0
 20
-6000.0
 10
180.0
 20
-6000.0
 10
195.3073372946036
 20
-5996.955181300451
 10
208.2842712474619
 20
-5988.284271247462
 10
216.95518130045147
 20
-5975.307337294604
 10
220.0
 20
-5960.0
 10
220.0
 20
-4140.0
 10
216.95518130045147
 20
-4124.692662705396
 10
208.2842712474619
 20
-4111.715728752538
 10
195.3073372946036
 20
-4103.044818699548
  0
LWPOLYLINE
  5
2CB
330
17
100
AcDbEntity
  8
A-FURN
100
AcDbPolyline
 90
20
 70
1
 10
860.0
 20
-4100.0
 10
260.0
 20
-4100.0
 10
244.6926627053964
 20
-4103.044818699548
 10
231.7157287525381
 20
-4111.715728752538
 10
223.04481869954853
 20
-4124.692662705396
 10
220.0
 20
-4140.0
 10
220.0
 20
-4260.0
 10
223.04481869954853
 20
-4275.307337294604
 10
231.7157287525381
 20
-4288.284271247462
 10
244.6926627053964
 20
-4296.955181300452
 10
260.0
 20
-4300.0
 10
860.0
 20
-4300.0
 10
875.3073372946036
 20
-4296.955181300452
 10
888.2842712474619
 20
-4288.284271247462
 10
896.9551813004515
 20
-4275.307337294604
 10
900.0
 20
-4260.0
 10
900.0
 20
-4140.0
 10
896.9551813004515
 20
-4124.692662705396
 10
888.2842712474619
 20
-4111.715728752538
 10
875.3073372946036
 20
-4103.044818699548
  0
LWPOLYLINE
  5
2CC
330
17
100
AcDbEntity
  8
A-FURN
100
AcDbPolyline
 90
20
 70
1
 10
860.0
 20
-5800.0
 10
260.0
 20
-5800.0
 10
244.6926627053964
 20
-5803.044818699549
 10
231.7157287525381
 20
-5811.715728752538
 10
223.04481869954853
 20
-5824.692662705396
 10
220.0
 20
-5840.0
 10
220.0
 20
-5960.0
 10
223.04481869954853
 20
-5975.307337294604
 10
231.7157287525381
 20
-5988.284271247462
 10
244.6926627053964
 20
-5996.955181300451
 10
260.0
 20
-6000.0
 10
860.0
 20
-6000.0
 10
875.3073372946036
 20
-5996.955181300451
 10
888.2842712474619
 20
-5988.284271247462
 10
896.9551813004515
 20
-5975.307337294604
 10
900.0
 20
-5960.0
 10
900.0
 20
-5840.0
 10
896.9551813004515
 20
-5824.692662705396
 10
888.2842712474619
 20
-5811.715728752538
 10
875.3073372946036
 20
-5803.044818699549
  0
LWPOLYLINE
  5
2CD
330
17
100
AcDbEntity
  8
A-FURN
100
AcDbPolyline
 90
2
 70
0
 10
220.0
 20
-4800.0
 10
900.0
 20
-4800.0
  0
LWPOLYLINE
  5
2CE
330
17
100
AcDbEntity
  8
A-FURN
100
AcDbPolyline
 90
2
 70
0
 10
220.0
 20
-5300.0
 10
900.0
 20
-5300.0
  0
LWPOLYLINE
  5
2CF
330
17
100
AcDbEntity
  8
A-FURN
100
AcDbPolyline
 90
20
 70
1
 10
1050.0
 20
-5320.0
 10
1050.0
 20
-4780.0
 10
1052.2836140246613
 20
-4768.519497029048
 10
1058.7867965644036
 20
-4758.786796564404
 10
1068.5194970290472
 20
-4752.283614024662
 10
1080.0
 20
-4750.0
 10
1520.0
 20
-4750.0
 10
1531.4805029709528
 20
-4752.283614024662
 10
1541.2132034355964
 20
-4758.786796564404
 10
1547.7163859753387
 20
-4768.519497029048
 10
1550.0
 20
-4780.0
 10
1550.0
 20
-5320.0
 10
1547.7163859753387
 20
-5331.480502970952
 10
1541.2132034355964
 20
-5341.213203435596
 10
1531.4805029709528
 20
-5347.716385975338
 10
1520.0
 20
-5350.0
 10
1080.0
 20
-5350.0
 10
1068.5194970290472
 20
-5347.716385975338
 10
1058.7867965644036
 20
-5341.213203435596
 10
1052.2836140246613
 20
-5331.480502970952
  0
LWPOLYLINE
  5
2D0
330
17
100
AcDbEntity
  8
A-FURN
100
AcDbPolyline
 90
20
 70
1
 10
2400.0
 20
-5310.0
 10
2400.0
 20
-4490.0
 10
2403.0448186995486
 20
-4474.692662705396
 10
2411.715728752538
 20
-4461.715728752538
 10
2424.6926627053963
 20
-4453.044818699548
 10
2440.0
 20
-4450.0
 10
4360.0
 20
-4450.0
 10
4375.307337294604
 20
-4453.044818699548
 10
4388.284271247462
 20
-4461.715728752538
 10
4396.955181300451
 20
-4474.692662705396
 10
4400.0
 20
-4490.0
 10
4400.0
 20
-5310.0
 10
4396.955181300451
 20
-5325.307337294604
 10
4388.284271247462
 20
-5338.284271247462
 10
4375.307337294604
 20
-5346.955181300452
 10
4360.0
 20
-5350.0
 10
2440.0
 20
-5350.0
 10
2424.6926627053963
 20
-5346.955181300452
 10
2411.7157287525383
 20
-5338.284271247462
 10
2403.0448186995486
 20
-5325.307337294604
  0
LWPOLYLINE
  5
2D1
330
17
100
AcDbEntity
  8
A-FURN
100
AcDbPolyline
 90
20
 70
1
 10
2440.0
 20
-4430.0
 10
2440.0
 20
-4090.0
 10
2443.0448186995486
 20
-4074.6926627053963
 10
2451.715728752538
 20
-4061.7157287525383
 10
2464.6926627053963
 20
-4053.0448186995486
 10
2480.0
 20
-4050.0
 10
2820.0
 20
-4050.0
 10
2835.3073372946037
 20
-4053.0448186995486
 10
2848.284271247462
 20
-4061.7157287525383
 10
2856.9551813004514
 20
-4074.6926627053963
 10
2860.0
 20
-4090.0
 10
2860.0
 20
-4430.0
 10
2856.9551813004514
 20
-4445.307337294604
 10
2848.284271247462
 20
-4458.284271247462
 10
2835.3073372946037
 20
-4466.955181300452
 10
2820.0
 20
-4470.0
 10
2480.0
 20
-4470.0
 10
2464.6926627053963
 20
-4466.955181300452
 10
2451.7157287525383
 20
-4458.284271247462
 10
2443.0448186995486
 20
-4445.307337294604
  0
LWPOLYLINE
  5
2D2
330
17
100
AcDbEntity
  8
A-FURN
100
AcDbPolyline
 90
20
 70
1
 10
2440.0
 20
-4100.0
 10
2440.0
 20
-4080.0
 10
2442.2836140246613
 20
-4068.519497029047
 10
2448.7867965644036
 20
-4058.7867965644036
 10
2458.519497029047
 20
-4052.2836140246613
 10
2470.0
 20
-4050.0
 10
2830.0
 20
-4050.0
 10
2841.480502970953
 20
-4052.2836140246613
 10
2851.2132034355964
 20
-4058.7867965644036
 10
2857.7163859753387
 20
-4068.519497029047
 10
2860.0
 20
-4080.0
 10
2860.0
 20
-4100.0
 10
2857.7163859753387
 20
-4111.480502970952
 10
2851.2132034355964
 20
-4121.213203435596
 10
2841.480502970953
 20
-4127.716385975338
 10
2830.0
 20
-4130.0
 10
2470.0
 20
-4130.0
 10
2458.519497029047
 20
-4127.716385975338
 10
2448.7867965644036
 20
-4121.213203435596
 10
2442.2836140246613
 20
-4111.480502970952
  0
LWPOLYLINE
  5
2D3
330
17
100
AcDbEntity
  8
A-FURN
100
AcDbPolyline
 90
20
 70
1
 10
2940.0
 20
-4430.0
 10
2940.0
 20
-4090.0
 10
2943.0448186995486
 20
-4074.6926627053963
 10
2951.715728752538
 20
-4061.7157287525383
 10
2964.6926627053963
 20
-4053.0448186995486
 10
2980.0
 20
-4050.0
 10
3320.0
 20
-4050.0
 10
3335.3073372946037
 20
-4053.0448186995486
 10
3348.284271247462
 20
-4061.7157287525383
 10
3356.9551813004514
 20
-4074.6926627053963
 10
3360.0
 20
-4090.0
 10
3360.0
 20
-4430.0
 10
3356.9551813004514
 20
-4445.307337294604
 10
3348.284271247462
 20
-4458.284271247462
 10
3335.3073372946037
 20
-4466.955181300452
 10
3320.0
 20
-4470.0
 10
2980.0
 20
-4470.0
 10
2964.6926627053963
 20
-4466.955181300452
 10
2951.7157287525383
 20
-4458.284271247462
 10
2943.0448186995486
 20
-4445.307337294604
  0
LWPOLYLINE
  5
2D4
330
17
100
AcDbEntity
  8
A-FURN
100
AcDbPolyline
 90
20
 70
1
 10
2940.0
 20
-4100.0
 10
2940.0
 20
-4080.0
 10
2942.2836140246613
 20
-4068.519497029047
 10
2948.7867965644036
 20
-4058.7867965644036
 10
2958.519497029047
 20
-4052.2836140246613
 10
2970.0
 20
-4050.0
 10
3330.0
 20
-4050.0
 10
3341.480502970953
 20
-4052.2836140246613
 10
3351.2132034355964
 20
-4058.7867965644036
 10
3357.7163859753387
 20
-4068.519497029047
 10
3360.0
 20
-4080.0
 10
3360.0
 20
-4100.0
 10
3357.7163859753387
 20
-4111.480502970952
 10
3351.2132034355964
 20
-4121.213203435596
 10
3341.480502970953
 20
-4127.716385975338
 10
3330.0
 20
-4130.0
 10
2970.0
 20
-4130.0
 10
2958.519497029047
 20
-4127.716385975338
 10
2948.7867965644036
 20
-4121.213203435596
 10
2942.2836140246613
 20
-4111.480502970952
  0
LWPOLYLINE
  5
2D5
330
17
100
AcDbEntity
  8
A-FURN
100
AcDbPolyline
 90
20
 70
1
 10
3440.0
 20
-4430.0
 10
3440.0
 20
-4090.0
 10
3443.0448186995486
 20
-4074.6926627053963
 10
3451.715728752538
 20
-4061.7157287525383
 10
3464.6926627053963
 20
-4053.0448186995486
 10
3480.0
 20
-4050.0
 10
3820.0
 20
-4050.0
 10
3835.3073372946037
 20
-4053.0448186995486
 10
3848.284271247462
 20
-4061.7157287525383
 10
3856.9551813004514
 20
-4074.6926627053963
 10
3860.0
 20
-4090.0
 10
3860.0
 20
-4430.0
 10
3856.9551813004514
 20
-4445.307337294604
 10
3848.284271247462
 20
-4458.284271247462
 10
3835.3073372946037
 20
-4466.955181300452
 10
3820.0
 20
-4470.0
 10
3480.0
 20
-4470.0
 10
3464.6926627053963
 20
-4466.955181300452
 10
3451.7157287525383
 20
-4458.284271247462
 10
3443.0448186995486
 20
-4445.307337294604
  0
LWPOLYLINE
  5
2D6
330
17
100
AcDbEntity
  8
A-FURN
100
AcDbPolyline
 90
20
 70
1
 10
3440.0
 20
-4100.0
 10
3440.0
 20
-4080.0
 10
3442.2836140246613
 20
-4068.519497029047
 10
3448.7867965644036
 20
-4058.7867965644036
 10
3458.519497029047
 20
-4052.2836140246613
 10
3470.0
 20
-4050.0
 10
3830.0
 20
-4050.0
 10
3841.480502970953
 20
-4052.2836140246613
 10
3851.2132034355964
 20
-4058.7867965644036
 10
3857.7163859753387
 20
-4068.519497029047
 10
3860.0
 20
-4080.0
 10
3860.0
 20
-4100.0
 10
3857.7163859753387
 20
-4111.480502970952
 10
3851.2132034355964
 20
-4121.213203435596
 10
3841.480502970953
 20
-4127.716385975338
 10
3830.0
 20
-4130.0
 10
3470.0
 20
-4130.0
 10
3458.519497029047
 20
-4127.716385975338
 10
3448.7867965644036
 20
-4121.213203435596
 10
3442.2836140246613
 20
-4111.480502970952
  0
LWPOLYLINE
  5
2D7
330
17
100
AcDbEntity
  8
A-FURN
100
AcDbPolyline
 90
20
 70
1
 10
3940.0
 20
-4430.0
 10
3940.0
 20
-4090.0
 10
3943.0448186995486
 20
-4074.6926627053963
 10
3951.715728752538
 20
-4061.7157287525383
 10
3964.6926627053963
 20
-4053.0448186995486
 10
3980.0
 20
-4050.0
 10
4320.0
 20
-4050.0
 10
4335.307337294604
 20
-4053.0448186995486
 10
4348.284271247462
 20
-4061.7157287525383
 10
4356.955181300452
 20
-4074.6926627053963
 10
4360.0
 20
-4090.0
 10
4360.0
 20
-4430.0
 10
4356.955181300452
 20
-4445.307337294604
 10
4348.284271247462
 20
-4458.284271247462
 10
4335.307337294604
 20
-4466.955181300452
 10
4320.0
 20
-4470.0
 10
3980.0
 20
-4470.0
 10
3964.6926627053963
 20
-4466.955181300452
 10
3951.7157287525383
 20
-4458.284271247462
 10
3943.0448186995486
 20
-4445.307337294604
  0
LWPOLYLINE
  5
2D8
330
17
100
AcDbEntity
  8
A-FURN
100
AcDbPolyline
 90
20
 70
1
 10
3940.0
 20
-4100.0
 10
3940.0
 20
-4080.0
 10
3942.2836140246613
 20
-4068.519497029047
 10
3948.7867965644036
 20
-4058.7867965644036
 10
3958.519497029047
 20
-4052.2836140246613
 10
3970.0
 20
-4050.0
 10
4330.0
 20
-4050.0
 10
4341.480502970952
 20
-4052.2836140246613
 10
4351.213203435596
 20
-4058.7867965644036
 10
4357.716385975338
 20
-4068.519497029047
 10
4360.0
 20
-4080.0
 10
4360.0
 20
-4100.0
 10
4357.716385975338
 20
-4111.480502970952
 10
4351.213203435596
 20
-4121.213203435596
 10
4341.480502970952
 20
-4127.716385975338
 10
4330.0
 20
-4130.0
 10
3970.0
 20
-4130.0
 10
3958.519497029047
 20
-4127.716385975338
 10
3948.7867965644036
 20
-4121.213203435596
 10
3942.2836140246613
 20
-4111.480502970952
  0
LWPOLYLINE
  5
2D9
330
17
100
AcDbEntity
  8
A-FURN
100
AcDbPolyline
 90
20
 70
1
 10
2440.0
 20
-5370.0
 10
2440.0
 20
-5710.0
 10
2443.0448186995486
 20
-5725.307337294604
 10
2451.715728752538
 20
-5738.284271247462
 10
2464.6926627053963
 20
-5746.955181300452
 10
2480.0
 20
-5750.0
 10
2820.0
 20
-5750.0
 10
2835.3073372946037
 20
-5746.955181300452
 10
2848.284271247462
 20
-5738.284271247462
 10
2856.9551813004514
 20
-5725.307337294604
 10
2860.0
 20
-5710.0
 10
2860.0
 20
-5370.0
 10
2856.9551813004514
 20
-5354.692662705396
 10
2848.284271247462
 20
-5341.715728752538
 10
2835.3073372946037
 20
-5333.044818699548
 10
2820.0
 20
-5330.0
 10
2480.0
 20
-5330.0
 10
2464.6926627053963
 20
-5333.044818699548
 10
2451.7157287525383
 20
-5341.715728752538
 10
2443.0448186995486
 20
-5354.692662705396
  0
LWPOLYLINE
  5
2DA
330
17
100
AcDbEntity
  8
A-FURN
100
AcDbPolyline
 90
20
 70
1
 10
2440.0
 20
-5700.0
 10
2440.0
 20
-5720.0
 10
2442.2836140246613
 20
-5731.480502970952
 10
2448.7867965644036
 20
-5741.213203435596
 10
2458.519497029047
 20
-5747.716385975338
 10
2470.0
 20
-5750.0
 10
2830.0
 20
-5750.0
 10
2841.480502970953
 20
-5747.716385975338
 10
2851.2132034355964
 20
-5741.213203435596
 10
2857.7163859753387
 20
-5731.480502970952
 10
2860.0
 20
-5720.0
 10
2860.0
 20
-5700.0
 10
2857.7163859753387
 20
-5688.519497029048
 10
2851.2132034355964
 20
-5678.786796564404
 10
2841.480502970953
 20
-5672.283614024662
 10
2830.0
 20
-5670.0
 10
2470.0
 20
-5670.0
 10
2458.519497029047
 20
-5672.283614024662
 10
2448.7867965644036
 20
-5678.786796564404
 10
2442.2836140246613
 20
-5688.519497029048
  0
LWPOLYLINE
  5
2DB
330
17
100
AcDbEntity
  8
A-FURN
100
AcDbPolyline
 90
20
 70
1
 10
2940.0
 20
-5370.0
 10
2940.0
 20
-5710.0
 10
2943.0448186995486
 20
-5725.307337294604
 10
2951.715728752538
 20
-5738.284271247462
 10
2964.6926627053963
 20
-5746.955181300452
 10
2980.0
 20
-5750.0
 10
3320.0
 20
-5750.0
 10
3335.3073372946037
 20
-5746.955181300452
 10
3348.284271247462
 20
-5738.284271247462
 10
3356.9551813004514
 20
-5725.307337294604
 10
3360.0
 20
-5710.0
 10
3360.0
 20
-5370.0
 10
3356.9551813004514
 20
-5354.692662705396
 10
3348.284271247462
 20
-5341.715728752538
 10
3335.3073372946037
 20
-5333.044818699548
 10
3320.0
 20
-5330.0
 10
2980.0
 20
-5330.0
 10
2964.6926627053963
 20
-5333.044818699548
 10
2951.7157287525383
 20
-5341.715728752538
 10
2943.0448186995486
 20
-5354.692662705396
  0
LWPOLYLINE
  5
2DC
330
17
100
AcDbEntity
  8
A-FURN
100
AcDbPolyline
 90
20
 70
1
 10
2940.0
 20
-5700.0
 10
2940.0
 20
-5720.0
 10
2942.2836140246613
 20
-5731.480502970952
 10
2948.7867965644036
 20
-5741.213203435596
 10
2958.519497029047
 20
-5747.716385975338
 10
2970.0
 20
-5750.0
 10
3330.0
 20
-5750.0
 10
3341.480502970953
 20
-5747.716385975338
 10
3351.2132034355964
 20
-5741.213203435596
 10
3357.7163859753387
 20
-5731.480502970952
 10
3360.0
 20
-5720.0
 10
3360.0
 20
-5700.0
 10
3357.7163859753387
 20
-5688.519497029048
 10
3351.2132034355964
 20
-5678.786796564404
 10
3341.480502970953
 20
-5672.283614024662
 10
3330.0
 20
-5670.0
 10
2970.0
 20
-5670.0
 10
2958.519497029047
 20
-5672.283614024662
 10
2948.7867965644036
 20
-5678.786796564404
 10
2942.2836140246613
 20
-5688.519497029048
  0
LWPOLYLINE
  5
2DD
330
17
100
AcDbEntity
  8
A-FURN
100
AcDbPolyline
 90
20
 70
1
 10
3440.0
 20
-5370.0
 10
3440.0
 20
-5710.0
 10
3443.0448186995486
 20
-5725.307337294604
 10
3451.715728752538
 20
-5738.284271247462
 10
3464.6926627053963
 20
-5746.955181300452
 10
3480.0
 20
-5750.0
 10
3820.0
 20
-5750.0
 10
3835.3073372946037
 20
-5746.955181300452
 10
3848.284271247462
 20
-5738.284271247462
 10
3856.9551813004514
 20
-5725.307337294604
 10
3860.0
 20
-5710.0
 10
3860.0
 20
-5370.0
 10
3856.9551813004514
 20
-5354.692662705396
 10
3848.284271247462
 20
-5341.715728752538
 10
3835.3073372946037
 20
-5333.044818699548
 10
3820.0
 20
-5330.0
 10
3480.0
 20
-5330.0
 10
3464.6926627053963
 20
-5333.044818699548
 10
3451.7157287525383
 20
-5341.715728752538
 10
3443.0448186995486
 20
-5354.692662705396
  0
LWPOLYLINE
  5
2DE
330
17
100
AcDbEntity
  8
A-FURN
100
AcDbPolyline
 90
20
 70
1
 10
3440.0
 20
-5700.0
 10
3440.0
 20
-5720.0
 10
3442.2836140246613
 20
-5731.480502970952
 10
3448.7867965644036
 20
-5741.213203435596
 10
3458.519497029047
 20
-5747.716385975338
 10
3470.0
 20
-5750.0
 10
3830.0
 20
-5750.0
 10
3841.480502970953
 20
-5747.716385975338
 10
3851.2132034355964
 20
-5741.213203435596
 10
3857.7163859753387
 20
-5731.480502970952
 10
3860.0
 20
-5720.0
 10
3860.0
 20
-5700.0
 10
3857.7163859753387
 20
-5688.519497029048
 10
3851.2132034355964
 20
-5678.786796564404
 10
3841.480502970953
 20
-5672.283614024662
 10
3830.0
 20
-5670.0
 10
3470.0
 20
-5670.0
 10
3458.519497029047
 20
-5672.283614024662
 10
3448.7867965644036
 20
-5678.786796564404
 10
3442.2836140246613
 20
-5688.519497029048
  0
LWPOLYLINE
  5
2DF
330
17
100
AcDbEntity
  8
A-FURN
100
AcDbPolyline
 90
20
 70
1
 10
3940.0
 20
-5370.0
 10
3940.0
 20
-5710.0
 10
3943.0448186995486
 20
-5725.307337294604
 10
3951.715728752538
 20
-5738.284271247462
 10
3964.6926627053963
 20
-5746.955181300452
 10
3980.0
 20
-5750.0
 10
4320.0
 20
-5750.0
 10
4335.307337294604
 20
-5746.955181300452
 10
4348.284271247462
 20
-5738.284271247462
 10
4356.955181300452
 20
-5725.307337294604
 10
4360.0
 20
-5710.0
 10
4360.0
 20
-5370.0
 10
4356.955181300452
 20
-5354.692662705396
 10
4348.284271247462
 20
-5341.715728752538
 10
4335.307337294604
 20
-5333.044818699548
 10
4320.0
 20
-5330.0
 10
3980.0
 20
-5330.0
 10
3964.6926627053963
 20
-5333.044818699548
 10
3951.7157287525383
 20
-5341.715728752538
 10
3943.0448186995486
 20
-5354.692662705396
  0
LWPOLYLINE
  5
2E0
330
17
100
AcDbEntity
  8
A-FURN
100
AcDbPolyline
 90
20
 70
1
 10
3940.0
 20
-5700.0
 10
3940.0
 20
-5720.0
 10
3942.2836140246613
 20
-5731.480502970952
 10
3948.7867965644036
 20
-5741.213203435596
 10
3958.519497029047
 20
-5747.716385975338
 10
3970.0
 20
-5750.0
 10
4330.0
 20
-5750.0
 10
4341.480502970952
 20
-5747.716385975338
 10
4351.213203435596
 20
-5741.213203435596
 10
4357.716385975338
 20
-5731.480502970952
 10
4360.0
 20
-5720.0
 10
4360.0
 20
-5700.0
 10
4357.716385975338
 20
-5688.519497029048
 10
4351.213203435596
 20
-5678.786796564404
 10
4341.480502970952
 20
-5672.283614024662
 10
4330.0
 20
-5670.0
 10
3970.0
 20
-5670.0
 10
3958.519497029047
 20
-5672.283614024662
 10
3948.7867965644036
 20
-5678.786796564404
 10
3942.2836140246613
 20
-5688.519497029048
  0
LWPOLYLINE
  5
2E1
330
17
100
AcDbEntity
  8
A-FURN
100
AcDbPolyline
 90
20
 70
1
 10
2360.0
 20
-4690.0
 10
2020.0
 20
-4690.0
 10
2004.6926627053965
 20
-4693.044818699548
 10
1991.715728752538
 20
-4701.715728752538
 10
1983.0448186995486
 20
-4714.692662705396
 10
1980.0
 20
-4730.0
 10
1980.0
 20
-5070.0
 10
1983.0448186995486
 20
-5085.307337294604
 10
1991.715728752538
 20
-5098.284271247462
 10
2004.6926627053965
 20
-5106.955181300452
 10
2020.0
 20
-5110.0
 10
2360.0
 20
-5110.0
 10
2375.3073372946037
 20
-5106.955181300452
 10
2388.284271247462
 20
-5098.284271247462
 10
2396.9551813004514
 20
-5085.307337294604
 10
2400.0
 20
-5070.0
 10
2400.0
 20
-4730.0
 10
2396.9551813004514
 20
-4714.692662705396
 10
2388.284271247462
 20
-4701.715728752538
 10
2375.3073372946037
 20
-4693.044818699548
  0
LWPOLYLINE
  5
2E2
330
17
100
AcDbEntity
  8
A-FURN
100
AcDbPolyline
 90
20
 70
1
 10
2030.0
 20
-4690.0
 10
2010.0
 20
-4690.0
 10
1998.5194970290472
 20
-4692.283614024662
 10
1988.7867965644036
 20
-4698.786796564404
 10
1982.2836140246613
 20
-4708.519497029048
 10
1980.0
 20
-4720.0
 10
1980.0
 20
-5080.0
 10
1982.2836140246613
 20
-5091.480502970952
 10
1988.7867965644036
 20
-5101.213203435596
 10
1998.5194970290472
 20
-5107.716385975338
 10
2010.0
 20
-5110.0
 10
2030.0
 20
-5110.0
 10
2041.4805029709528
 20
-5107.716385975338
 10
2051.2132034355964
 20
-5101.213203435596
 10
2057.7163859753387
 20
-5091.480502970952
 10
2060.0
 20
-5080.0
 10
2060.0
 20
-4720.0
 10
2057.7163859753387
 20
-4708.519497029048
 10
2051.2132034355964
 20
-4698.786796564404
 10
2041.4805029709528
 20
-4692.283614024662
  0
LWPOLYLINE
  5
2E3
330
17
100
AcDbEntity
  8
A-FURN
100
AcDbPolyline
 90
20
 70
1
 10
4440.0
 20
-4690.0
 10
4780.0
 20
-4690.0
 10
4795.307337294604
 20
-4693.044818699548
 10
4808.284271247462
 20
-4701.715728752538
 10
4816.955181300452
 20
-4714.692662705396
 10
4820.0
 20
-4730.0
 10
4820.0
 20
-5070.0
 10
4816.955181300452
 20
-5085.307337294604
 10
4808.284271247462
 20
-5098.284271247462
 10
4795.307337294604
 20
-5106.955181300452
 10
4780.0
 20
-5110.0
 10
4440.0
 20
-5110.0
 10
4424.692662705396
 20
-5106.955181300452
 10
4411.715728752538
 20
-5098.284271247462
 10
4403.044818699548
 20
-5085.307337294604
 10
4400.0
 20
-5070.0
 10
4400.0
 20
-4730.0
 10
4403.044818699548
 20
-4714.692662705396
 10
4411.715728752538
 20
-4701.715728752538
 10
4424.692662705396
 20
-4693.044818699548
  0
LWPOLYLINE
  5
2E4
330
17
100
AcDbEntity
  8
A-FURN
100
AcDbPolyline
 90
20
 70
1
 10
4770.0
 20
-4690.0
 10
4790.0
 20
-4690.0
 10
4801.480502970952
 20
-4692.283614024662
 10
4811.213203435596
 20
-4698.786796564404
 10
4817.716385975338
 20
-4708.519497029048
 10
4820.0
 20
-4720.0
 10
4820.0
 20
-5080.0
 10
4817.716385975338
 20
-5091.480502970952
 10
4811.213203435596
 20
-5101.213203435596
 10
4801.480502970952
 20
-5107.716385975338
 10
4790.0
 20
-5110.0
 10
4770.0
 20
-5110.0
 10
4758.519497029048
 20
-5107.716385975338
 10
4748.786796564404
 20
-5101.213203435596
 10
4742.283614024662
 20
-5091.480502970952
 10
4740.0
 20
-5080.0
 10
4740.0
 20
-4720.0
 10
4742.283614024662
 20
-4708.519497029048
 10
4748.786796564404
 20
-4698.786796564404
 10
4758.519497029048
 20
-4692.283614024662
  0
LWPOLYLINE
  5
2E5
330
17
100
AcDbEntity
  8
A-FURN
100
AcDbPolyline
 90
4
 70
1
 10
5830.0
 20
-4150.0
 10
5430.0
 20
-4150.0
 10
5430.0
 20
-5750.0
 10
5830.0
 20
-5750.0
  0
LWPOLYLINE
  5
2E6
330
17
100
AcDbEntity
  8
A-FURN
100
AcDbPolyline
 90
2
 70
0
 10
5470.0
 20
-4150.0
 10
5470.0
 20
-5750.0
  0
LWPOLYLINE
  5
2E7
330
17
100
AcDbEntity
  8
A-FURN
100
AcDbPolyline
 90
4
 70
1
 10
-2100.0
 20
-2800.0
 10
-1500.0
 20
-2800.0
 10
-1500.0
 20
-4150.0
 10
-2100.0
 20
-4150.0
  0
LWPOLYLINE
  5
2E8
330
17
100
AcDbEntity
  8
A-FURN
100
AcDbPolyline
 90
2
 70
0
 10
-1540.0
 20
-2800.0
 10
-1540.0
 20
-4150.0
  0
LWPOLYLINE
  5
2E9
330
17
100
AcDbEntity
  8
A-FURN
100
AcDbPolyline
 90
2
 70
0
 10
-1800.0
 20
-2860.0
 10
-1800.0
 20
-4090.0
  0
LWPOLYLINE
  5
2EA
330
17
100
AcDbEntity
  8
A-FURN
100
AcDbPolyline
 90
2
 70
0
 10
-1970.0
 20
-2940.0
 10
-1630.0
 20
-3020.0
  0
LWPOLYLINE
  5
2EB
330
17
100
AcDbEntity
  8
A-FURN
100
AcDbPolyline
 90
2
 70
0
 10
-1970.0
 20
-3120.0
 10
-1630.0
 20
-3200.0
  0
LWPOLYLINE
  5
2EC
330
17
100
AcDbEntity
  8
A-FURN
100
AcDbPolyline
 90
2
 70
0
 10
-1970.0
 20
-3300.0
 10
-1630.0
 20
-3380.0
  0
LWPOLYLINE
  5
2ED
330
17
100
AcDbEntity
  8
A-FURN
100
AcDbPolyline
 90
2
 70
0
 10
-1970.0
 20
-3480.0
 10
-1630.0
 20
-3560.0
  0
LWPOLYLINE
  5
2EE
330
17
100
AcDbEntity
  8
A-FURN
100
AcDbPolyline
 90
2
 70
0
 10
-1970.0
 20
-3660.0
 10
-1630.0
 20
-3740.0
  0
LWPOLYLINE
  5
2EF
330
17
100
AcDbEntity
  8
A-FURN
100
AcDbPolyline
 90
2
 70
0
 10
-1970.0
 20
-3840.0
 10
-1630.0
 20
-3920.0
  0
CIRCLE
  5
2F0
330
17
100
AcDbEntity
  8
A-FURN
100
AcDbCircle
 10
11330.0
 20
-1000.0
 30
0.0
 40
300.0
  0
LWPOLYLINE
  5
2F1
330
17
100
AcDbEntity
  8
A-FURN
100
AcDbPolyline
 90
20
 70
1
 10
11130.0
 20
-620.0
 10
11130.0
 20
-300.0
 10
11133.044818699549
 20
-284.6926627053964
 10
11141.715728752539
 20
-271.7157287525381
 10
11154.692662705396
 20
-263.0448186995485
 10
11170.0
 20
-260.0
 10
11490.0
 20
-260.0
 10
11505.307337294604
 20
-263.0448186995485
 10
11518.284271247461
 20
-271.7157287525381
 10
11526.955181300451
 20
-284.6926627053964
 10
11530.0
 20
-300.0
 10
11530.0
 20
-620.0
 10
11526.955181300451
 20
-635.3073372946036
 10
11518.284271247461
 20
-648.2842712474619
 10
11505.307337294604
 20
-656.9551813004515
 10
11490.0
 20
-660.0
 10
11170.0
 20
-660.0
 10
11154.692662705396
 20
-656.9551813004515
 10
11141.715728752539
 20
-648.2842712474619
 10
11133.044818699549
 20
-635.3073372946036
  0
LWPOLYLINE
  5
2F2
330
17
100
AcDbEntity
  8
A-FURN
100
AcDbPolyline
 90
20
 70
1
 10
11130.0
 20
-310.0
 10
11130.0
 20
-290.0
 10
11132.283614024662
 20
-278.51949702904733
 10
11138.786796564404
 20
-268.7867965644036
 10
11148.519497029047
 20
-262.2836140246614
 10
11160.0
 20
-260.0
 10
11500.0
 20
-260.0
 10
11511.480502970953
 20
-262.2836140246614
 10
11521.213203435596
 20
-268.7867965644036
 10
11527.716385975338
 20
-278.51949702904733
 10
11530.0
 20
-290.0
 10
11530.0
 20
-310.0
 10
11527.716385975338
 20
-321.48050297095267
 10
11521.213203435596
 20
-331.2132034355964
 10
11511.480502970953
 20
-337.7163859753386
 10
11500.0
 20
-340.0
 10
11160.0
 20
-340.0
 10
11148.519497029047
 20
-337.7163859753386
 10
11138.786796564404
 20
-331.2132034355964
 10
11132.283614024662
 20
-321.48050297095267
  0
LWPOLYLINE
  5
2F3
330
17
100
AcDbEntity
  8
A-FURN
100
AcDbPolyline
 90
20
 70
1
 10
11130.0
 20
-1380.0
 10
11130.0
 20
-1700.0
 10
11133.044818699549
 20
-1715.3073372946035
 10
11141.715728752539
 20
-1728.284271247462
 10
11154.692662705396
 20
-1736.9551813004514
 10
11170.0
 20
-1740.0
 10
11490.0
 20
-1740.0
 10
11505.307337294604
 20
-1736.9551813004514
 10
11518.284271247461
 20
-1728.284271247462
 10
11526.955181300451
 20
-1715.3073372946035
 10
11530.0
 20
-1700.0
 10
11530.0
 20
-1380.0
 10
11526.955181300451
 20
-1364.6926627053963
 10
11518.284271247461
 20
-1351.715728752538
 10
11505.307337294604
 20
-1343.0448186995486
 10
11490.0
 20
-1340.0
 10
11170.0
 20
-1340.0
 10
11154.692662705396
 20
-1343.0448186995486
 10
11141.715728752539
 20
-1351.715728752538
 10
11133.044818699549
 20
-1364.6926627053963
  0
LWPOLYLINE
  5
2F4
330
17
100
AcDbEntity
  8
A-FURN
100
AcDbPolyline
 90
20
 70
1
 10
11130.0
 20
-1690.0
 10
11130.0
 20
-1710.0
 10
11132.283614024662
 20
-1721.4805029709528
 10
11138.786796564404
 20
-1731.2132034355964
 10
11148.519497029047
 20
-1737.7163859753387
 10
11160.0
 20
-1740.0
 10
11500.0
 20
-1740.0
 10
11511.480502970953
 20
-1737.7163859753387
 10
11521.213203435596
 20
-1731.2132034355964
 10
11527.716385975338
 20
-1721.4805029709528
 10
11530.0
 20
-1710.0
 10
11530.0
 20
-1690.0
 10
11527.716385975338
 20
-1678.5194970290472
 10
11521.213203435596
 20
-1668.7867965644036
 10
11511.480502970953
 20
-1662.2836140246613
 10
11500.0
 20
-1660.0
 10
11160.0
 20
-1660.0
 10
11148.519497029047
 20
-1662.2836140246613
 10
11138.786796564404
 20
-1668.7867965644036
 10
11132.283614024662
 20
-1678.5194970290472
  0
TEXT
  5
2F5
330
17
100
AcDbEntity
  8
A-TEXT
100
AcDbText
 10
-925.0
 20
-2050.0
 30
0.0
 40
125.0
  1
Ванна
  7
ARIAL
 72
1
 11
-925.0
 21
-2050.0
 31
0.0
100
AcDbText
 73
2
  0
TEXT
  5
2F6
330
17
100
AcDbEntity
  8
A-TEXT
100
AcDbText
 10
-925.0
 20
-2380.0
 30
0.0
 40
100.0
  1
3.65 м²
  7
ARIAL
 72
1
 11
-925.0
 21
-2380.0
 31
0.0
100
AcDbText
 73
2
  0
TEXT
  5
2F7
330
17
100
AcDbEntity
  8
A-TEXT
100
AcDbText
 10
100.0
 20
-1850.0
 30
0.0
 40
125.0
  1
Туалет
  7
ARIAL
 72
1
 11
100.0
 21
-1850.0
 31
0.0
100
AcDbText
 73
2
  0
TEXT
  5
2F8
330
17
100
AcDbEntity
  8
A-TEXT
100
AcDbText
 10
100.0
 20
-2180.0
 30
0.0
 40
100.0
  1
2.86 м²
  7
ARIAL
 72
1
 11
100.0
 21
-2180.0
 31
0.0
100
AcDbText
 73
2
  0
TEXT
  5
2F9
330
17
100
AcDbEntity
  8
A-TEXT
100
AcDbText
 10
3300.0
 20
-1050.0
 30
0.0
 40
125.0
  1
Ошхона
  7
ARIAL
 72
1
 11
3300.0
 21
-1050.0
 31
0.0
100
AcDbText
 73
2
  0
TEXT
  5
2FA
330
17
100
AcDbEntity
  8
A-TEXT
100
AcDbText
 10
3300.0
 20
-1380.0
 30
0.0
 40
100.0
  1
9.73 м²
  7
ARIAL
 72
1
 11
3300.0
 21
-1380.0
 31
0.0
100
AcDbText
 73
2
  0
TEXT
  5
2FB
330
17
100
AcDbEntity
  8
A-TEXT
100
AcDbText
 10
9350.0
 20
-1500.0
 30
0.0
 40
125.0
  1
Катталар ётоқхонаси
  7
ARIAL
 72
1
 11
9350.0
 21
-1500.0
 31
0.0
100
AcDbText
 73
2
  0
TEXT
  5
2FC
330
17
100
AcDbEntity
  8
A-TEXT
100
AcDbText
 10
9350.0
 20
-1830.0
 30
0.0
 40
100.0
  1
16.07 м²
  7
ARIAL
 72
1
 11
9350.0
 21
-1830.0
 31
0.0
100
AcDbText
 73
2
  0
TEXT
  5
2FD
330
17
100
AcDbEntity
  8
A-TEXT
100
AcDbText
 10
7300.0
 20
-4550.0
 30
0.0
 40
125.0
  1
Болалар хонаси 1
  7
ARIAL
 72
1
 11
7300.0
 21
-4550.0
 31
0.0
100
AcDbText
 73
2
  0
TEXT
  5
2FE
330
17
100
AcDbEntity
  8
A-TEXT
100
AcDbText
 10
7300.0
 20
-4880.0
 30
0.0
 40
100.0
  1
7.52 м²
  7
ARIAL
 72
1
 11
7300.0
 21
-4880.0
 31
0.0
100
AcDbText
 73
2
  0
TEXT
  5
2FF
330
17
100
AcDbEntity
  8
A-TEXT
100
AcDbText
 10
10900.0
 20
-3880.0
 30
0.0
 40
125.0
  1
Болалар хонаси 2
  7
ARIAL
 72
1
 11
10900.0
 21
-3880.0
 31
0.0
100
AcDbText
 73
2
  0
TEXT
  5
300
330
17
100
AcDbEntity
  8
A-TEXT
100
AcDbText
 10
10900.0
 20
-4210.0
 30
0.0
 40
100.0
  1
7.14 м²
  7
ARIAL
 72
1
 11
10900.0
 21
-4210.0
 31
0.0
100
AcDbText
 73
2
  0
TEXT
  5
301
330
17
100
AcDbEntity
  8
A-TEXT
100
AcDbText
 10
8000.0
 20
-3200.0
 30
0.0
 40
125.0
  1
Йўлакча
  7
ARIAL
 72
1
 11
8000.0
 21
-3200.0
 31
0.0
100
AcDbText
 73
2
  0
TEXT
  5
302
330
17
100
AcDbEntity
  8
A-TEXT
100
AcDbText
 10
8000.0
 20
-3530.0
 30
0.0
 40
100.0
  1
2.91 м²
  7
ARIAL
 72
1
 11
8000.0
 21
-3530.0
 31
0.0
100
AcDbText
 73
2
  0
TEXT
  5
303
330
17
100
AcDbEntity
  8
A-TEXT
100
AcDbText
 10
3400.0
 20
-4760.0
 30
0.0
 40
125.0
  1
Меҳмонхона
  7
ARIAL
 72
1
 11
3400.0
 21
-4760.0
 31
0.0
100
AcDbText
 73
2
  0
TEXT
  5
304
330
17
100
AcDbEntity
  8
A-TEXT
100
AcDbText
 10
3400.0
 20
-5090.0
 30
0.0
 40
100.0
  1
12.83 м²
  7
ARIAL
 72
1
 11
3400.0
 21
-5090.0
 31
0.0
100
AcDbText
 73
2
  0
TEXT
  5
305
330
17
100
AcDbEntity
  8
A-TEXT
100
AcDbText
 10
2000.0
 20
-3050.0
 30
0.0
 40
125.0
  1
Даҳлиз
  7
ARIAL
 72
1
 11
2000.0
 21
-3050.0
 31
0.0
100
AcDbText
 73
2
  0
TEXT
  5
306
330
17
100
AcDbEntity
  8
A-TEXT
100
AcDbText
 10
2000.0
 20
-3380.0
 30
0.0
 40
100.0
  1
8.93 м²
  7
ARIAL
 72
1
 11
2000.0
 21
-3380.0
 31
0.0
100
AcDbText
 73
2
  0
TEXT
  5
307
330
17
100
AcDbEntity
  8
A-TEXT
100
AcDbText
 10
11330.0
 20
-1950.0
 30
0.0
 40
125.0
  1
Балкон
  7
ARIAL
 72
1
 11
11330.0
 21
-1950.0
 31
0.0
100
AcDbText
 73
2
  0
TEXT
  5
308
330
17
100
AcDbEntity
  8
A-TEXT
100
AcDbText
 10
-1650.0
 20
-6400.0
 30
0.0
 40
125.0
  1
Кириш
  7
ARIAL
 72
1
 11
-1650.0
 21
-6400.0
 31
0.0
100
AcDbText
 73
2
  0
TEXT
  5
309
330
17
100
AcDbEntity
  8
A-TEXT
100
AcDbText
 10
4800.0
 20
3200.0
 30
0.0
 40
250.0
  1
МЕБЕЛЛАР ЖОЙЛАШУВИ РЕЖАСИ  М 1:50
  7
ARIAL
 72
1
 11
4800.0
 21
3200.0
 31
0.0
100
AcDbText
 73
2
  0
ENDSEC
  0
SECTION
  2
OBJECTS
  0
DICTIONARY
  5
A
330
0
100
AcDbDictionary
281
1
  3
ACAD_COLOR
350
B
  3
ACAD_GROUP
350
C
  3
ACAD_LAYOUT
350
D
  3
ACAD_MATERIAL
350
E
  3
ACAD_MLEADERSTYLE
350
F
  3
ACAD_MLINESTYLE
350
10
  3
ACAD_PLOTSETTINGS
350
11
  3
ACAD_PLOTSTYLENAME
350
12
  3
ACAD_SCALELIST
350
14
  3
ACAD_TABLESTYLE
350
15
  3
ACAD_VISUALSTYLE
350
16
  3
EZDXF_META
350
2D
  0
DICTIONARY
  5
B
330
A
100
AcDbDictionary
281
1
  0
DICTIONARY
  5
C
330
A
100
AcDbDictionary
281
1
  0
DICTIONARY
  5
D
330
A
100
AcDbDictionary
281
1
  3
Model
350
1A
  3
Layout1
350
1E
  3
A3 1-50
350
30D
  0
DICTIONARY
  5
E
330
A
100
AcDbDictionary
281
1
  3
ByBlock
350
1F
  3
ByLayer
350
20
  3
Global
350
21
  0
DICTIONARY
  5
F
330
A
100
AcDbDictionary
281
1
  3
Standard
350
2C
  0
DICTIONARY
  5
10
330
A
100
AcDbDictionary
281
1
  3
Standard
350
22
  0
DICTIONARY
  5
11
330
A
100
AcDbDictionary
281
1
  0
ACDBDICTIONARYWDFLT
  5
12
330
A
100
AcDbDictionary
281
1
  3
Normal
350
13
100
AcDbDictionaryWithDefault
340
13
  0
ACDBPLACEHOLDER
  5
13
330
12
  0
DICTIONARY
  5
14
330
A
100
AcDbDictionary
281
1
  0
DICTIONARY
  5
15
330
A
100
AcDbDictionary
281
1
  0
DICTIONARY
  5
16
330
A
100
AcDbDictionary
281
1
  3
2dWireframe
350
5A
  3
Basic
350
5B
  3
Brighten
350
5C
  3
ColorChange
350
5D
  3
Conceptual
350
5E
  3
Dim
350
5F
  3
EdgeColorOff
350
60
  3
Facepattern
350
61
  3
Flat
350
62
  3
FlatWithEdges
350
63
  3
Gouraud
350
64
  3
GouraudWithEdges
350
65
  3
Hidden
350
66
  3
JitterOff
350
67
  3
Linepattern
350
68
  3
Modeling
350
69
  3
OverhangOff
350
6A
  3
Realistic
350
6B
  3
Shaded
350
6C
  3
Shaded with edges
350
6D
  3
Shades of Gray
350
6E
  3
Sketchy
350
6F
  3
Thicken
350
70
  3
Wireframe
350
71
  3
X-Ray
350
72
  0
LAYOUT
  5
1A
330
D
100
AcDbPlotSettings
  1

  4
A3
  6

 40
7.5
 41
20.0
 42
7.5
 43
20.0
 44
420.0
 45
297.0
 46
0.0
 47
0.0
 48
0.0
 49
0.0
140
0.0
141
0.0
142
1.0
143
1.0
 70
1024
 72
1
 73
0
 74
5
  7

 75
16
 76
0
 77
2
 78
300
147
1.0
148
0.0
149
0.0
100
AcDbLayout
  1
Model
 70
1
 71
0
 10
0.0
 20
0.0
 11
420.0
 21
297.0
 12
0.0
 22
0.0
 32
0.0
 14
1e+20
 24
1e+20
 34
1e+20
 15
-1e+20
 25
-1e+20
 35
-1e+20
146
0.0
 13
0.0
 23
0.0
 33
0.0
 16
1.0
 26
0.0
 36
0.0
 17
0.0
 27
1.0
 37
0.0
 76
1
330
17
  0
LAYOUT
  5
1E
330
D
100
AcDbPlotSettings
  1

  4
A3
  6

 40
7.5
 41
20.0
 42
7.5
 43
20.0
 44
420.0
 45
297.0
 46
0.0
 47
0.0
 48
0.0
 49
0.0
140
0.0
141
0.0
142
1.0
143
1.0
 70
0
 72
1
 73
0
 74
5
  7

 75
16
 76
0
 77
2
 78
300
147
1.0
148
0.0
149
0.0
100
AcDbLayout
  1
Layout1
 70
1
 71
1
 10
0.0
 20
0.0
 11
420.0
 21
297.0
 12
0.0
 22
0.0
 32
0.0
 14
1e+20
 24
1e+20
 34
1e+20
 15
-1e+20
 25
-1e+20
 35
-1e+20
146
0.0
 13
0.0
 23
0.0
 33
0.0
 16
1.0
 26
0.0
 36
0.0
 17
0.0
 27
1.0
 37
0.0
 76
1
330
1B
  0
MATERIAL
  5
1F
102
{ACAD_REACTORS
330
E
102
}
330
E
100
AcDbMaterial
  1
ByBlock
  2

 70
0
 40
1.0
 71
1
 41
1.0
 91
-1023410177
 42
1.0
 72
1
  3

 73
1
 74
1
 75
1
 44
0.5
 73
0
 45
1.0
 46
1.0
 77
1
  4

 78
1
 79
1
170
1
 48
1.0
171
1
  6

172
1
173
1
174
1
140
1.0
141
1.0
175
1
  7

176
1
177
1
178
1
143
1.0
179
1
  8

270
1
271
1
272
1
145
1.0
146
1.0
273
1
  9

274
1
275
1
276
1
 42
1.0
 72
1
  3

 73
1
 74
1
 75
1
 94
63
  0
MATERIAL
  5
20
102
{ACAD_REACTORS
330
E
102
}
330
E
100
AcDbMaterial
  1
ByLayer
  2

 70
0
 40
1.0
 71
1
 41
1.0
 91
-1023410177
 42
1.0
 72
1
  3

 73
1
 74
1
 75
1
 44
0.5
 73
0
 45
1.0
 46
1.0
 77
1
  4

 78
1
 79
1
170
1
 48
1.0
171
1
  6

172
1
173
1
174
1
140
1.0
141
1.0
175
1
  7

176
1
177
1
178
1
143
1.0
179
1
  8

270
1
271
1
272
1
145
1.0
146
1.0
273
1
  9

274
1
275
1
276
1
 42
1.0
 72
1
  3

 73
1
 74
1
 75
1
 94
63
  0
MATERIAL
  5
21
102
{ACAD_REACTORS
330
E
102
}
330
E
100
AcDbMaterial
  1
Global
  2

 70
0
 40
1.0
 71
1
 41
1.0
 91
-1023410177
 42
1.0
 72
1
  3

 73
1
 74
1
 75
1
 44
0.5
 73
0
 45
1.0
 46
1.0
 77
1
  4

 78
1
 79
1
170
1
 48
1.0
171
1
  6

172
1
173
1
174
1
140
1.0
141
1.0
175
1
  7

176
1
177
1
178
1
143
1.0
179
1
  8

270
1
271
1
272
1
145
1.0
146
1.0
273
1
  9

274
1
275
1
276
1
 42
1.0
 72
1
  3

 73
1
 74
1
 75
1
 94
63
  0
MLINESTYLE
  5
22
102
{ACAD_REACTORS
330
10
102
}
330
10
100
AcDbMlineStyle
  2
Standard
 70
0
  3

 62
256
 51
90.0
 52
90.0
 71
2
 49
0.5
 62
256
  6
BYLAYER
 49
-0.5
 62
256
  6
BYLAYER
  0
MLEADERSTYLE
  5
2C
102
{ACAD_REACTORS
330
F
102
}
330
F
100
AcDbMLeaderStyle
179
2
170
2
171
1
172
0
 90
2
 40
0.0
 41
0.0
173
1
 91
-1056964608
 92
-2
290
1
 42
2.0
291
1
 43
8.0
  3
Standard
 44
4.0
300

342
29
174
1
175
1
176
0
178
1
 93
-1056964608
 45
4.0
292
0
297
0
 46
4.0
 94
-1056964608
 47
1.0
 49
1.0
140
1.0
294
1
141
0.0
177
0
142
1.0
295
0
296
0
143
3.75
271
0
272
9
273
9
  0
DICTIONARY
  5
2D
330
A
100
AcDbDictionary
280
1
281
1
  3
CREATED_BY_EZDXF
350
2E
  3
WRITTEN_BY_EZDXF
350
314
  0
DICTIONARYVAR
  5
2E
330
2D
100
DictionaryVariables
280
0
  1
1.4.4 @ 2026-09-24T14:07:11.887385+00:00
  0
VISUALSTYLE
  5
5A
102
{ACAD_REACTORS
330
16
102
}
330
16
100
AcDbVisualStyle
  2
2dWireframe
 70
4
 90
0
 40
0.6
 62
7
290
0
291
0
  0
VISUALSTYLE
  5
5B
102
{ACAD_REACTORS
330
16
102
}
330
16
100
AcDbVisualStyle
  2
Basic
 70
7
 90
1
 40
0.6
 62
7
290
0
291
1
  0
VISUALSTYLE
  5
5C
102
{ACAD_REACTORS
330
16
102
}
330
16
100
AcDbVisualStyle
  2
Brighten
 70
12
 90
2
 40
0.6
 62
7
290
0
291
1
  0
VISUALSTYLE
  5
5D
102
{ACAD_REACTORS
330
16
102
}
330
16
100
AcDbVisualStyle
  2
ColorChange
 70
16
 90
2
 40
0.6
 62
8
290
0
291
1
  0
VISUALSTYLE
  5
5E
102
{ACAD_REACTORS
330
16
102
}
330
16
100
AcDbVisualStyle
  2
Conceptual
 70
9
 90
3
 40
0.6
 62
7
290
0
291
0
  0
VISUALSTYLE
  5
5F
102
{ACAD_REACTORS
330
16
102
}
330
16
100
AcDbVisualStyle
  2
Dim
 70
11
 90
2
 40
0.6
 62
7
290
0
291
1
  0
VISUALSTYLE
  5
60
102
{ACAD_REACTORS
330
16
102
}
330
16
100
AcDbVisualStyle
  2
EdgeColorOff
 70
22
 90
2
 40
0.6
 62
7
290
0
291
1
  0
VISUALSTYLE
  5
61
102
{ACAD_REACTORS
330
16
102
}
330
16
100
AcDbVisualStyle
  2
Facepattern
 70
15
 90
2
 40
0.6
 62
7
290
0
291
1
  0
VISUALSTYLE
  5
62
102
{ACAD_REACTORS
330
16
102
}
330
16
100
AcDbVisualStyle
  2
Flat
 70
0
 90
2
 40
0.6
 62
7
290
0
291
1
  0
VISUALSTYLE
  5
63
102
{ACAD_REACTORS
330
16
102
}
330
16
100
AcDbVisualStyle
  2
FlatWithEdges
 70
1
 90
2
 40
0.6
 62
7
290
0
291
1
  0
VISUALSTYLE
  5
64
102
{ACAD_REACTORS
330
16
102
}
330
16
100
AcDbVisualStyle
  2
Gouraud
 70
2
 90
2
 40
0.6
 62
7
290
0
291
1
  0
VISUALSTYLE
  5
65
102
{ACAD_REACTORS
330
16
102
}
330
16
100
AcDbVisualStyle
  2
GouraudWithEdges
 70
3
 90
2
 40
0.6
 62
7
290
0
291
1
  0
VISUALSTYLE
  5
66
102
{ACAD_REACTORS
330
16
102
}
330
16
100
AcDbVisualStyle
  2
Hidden
 70
6
 90
1
 40
0.6
 62
7
290
0
291
0
  0
VISUALSTYLE
  5
67
102
{ACAD_REACTORS
330
16
102
}
330
16
100
AcDbVisualStyle
  2
JitterOff
 70
20
 90
2
 40
0.6
 62
7
290
0
291
1
  0
VISUALSTYLE
  5
68
102
{ACAD_REACTORS
330
16
102
}
330
16
100
AcDbVisualStyle
  2
Linepattern
 70
14
 90
2
 40
0.6
 62
7
290
0
291
1
  0
VISUALSTYLE
  5
69
102
{ACAD_REACTORS
330
16
102
}
330
16
100
AcDbVisualStyle
  2
Modeling
 70
10
 90
2
 40
0.6
 62
7
290
0
291
0
  0
VISUALSTYLE
  5
6A
102
{ACAD_REACTORS
330
16
102
}
330
16
100
AcDbVisualStyle
  2
OverhangOff
 70
21
 90
2
 40
0.6
 62
7
290
0
291
1
  0
VISUALSTYLE
  5
6B
102
{ACAD_REACTORS
330
16
102
}
330
16
100
AcDbVisualStyle
  2
Realistic
 70
8
 90
2
 40
0.6
 62
7
290
0
291
0
  0
VISUALSTYLE
  5
6C
102
{ACAD_REACTORS
330
16
102
}
330
16
100
AcDbVisualStyle
  2
Shaded
 70
27
 90
2
 40
0.6
 62
7
290
0
291
0
  0
VISUALSTYLE
  5
6D
102
{ACAD_REACTORS
330
16
102
}
330
16
100
AcDbVisualStyle
  2
Shaded with edges
 70
26
 90
2
 40
0.6
 62
7
290
0
291
0
  0
VISUALSTYLE
  5
6E
102
{ACAD_REACTORS
330
16
102
}
330
16
100
AcDbVisualStyle
  2
Shades of Gray
 70
23
 90
2
 40
0.6
 62
7
290
0
291
0
  0
VISUALSTYLE
  5
6F
102
{ACAD_REACTORS
330
16
102
}
330
16
100
AcDbVisualStyle
  2
Sketchy
 70
24
 90
1
 40
0.6
 62
7
290
0
291
0
  0
VISUALSTYLE
  5
70
102
{ACAD_REACTORS
330
16
102
}
330
16
100
AcDbVisualStyle
  2
Thicken
 70
13
 90
2
 40
0.6
 62
7
290
0
291
1
  0
VISUALSTYLE
  5
71
102
{ACAD_REACTORS
330
16
102
}
330
16
100
AcDbVisualStyle
  2
Wireframe
 70
5
 90
0
 40
0.6
 62
7
290
0
291
0
  0
VISUALSTYLE
  5
72
102
{ACAD_REACTORS
330
16
102
}
330
16
100
AcDbVisualStyle
  2
X-Ray
 70
25
 90
2
 40
0.5
 62
7
290
0
291
0
  0
LAYOUT
  5
30D
330
D
100
AcDbPlotSettings
  1

  2
DWG to PDF.pc3
  4
ezdxf_(420.00_x_297.00_MM)
  6

 40
0.0
 41
0.0
 42
0.0
 43
0.0
 44
420.0
 45
297.0
 46
0.0
 47
0.0
 48
0.0
 49
0.0
140
0.0
141
0.0
142
1.0
143
1.0
 70
672
 72
1
 73
0
 74
5
  7

 75
16
 76
0
 77
2
 78
300
147
1.0
148
0.0
149
0.0
100
AcDbLayout
  1
A3 1-50
 70
1
 71
3
 10
-0.0
 20
-0.0
 11
420.0
 21
297.0
 12
0.0
 22
0.0
 32
0.0
 14
1e+20
 24
1e+20
 34
1e+20
 15
-1e+20
 25
-1e+20
 35
-1e+20
146
0.0
 13
0.0
 23
0.0
 33
0.0
 16
1.0
 26
0.0
 36
0.0
 17
0.0
 27
1.0
 37
0.0
 76
1
330
30A
331
30E
  0
DICTIONARYVAR
  5
314
330
2D
100
DictionaryVariables
280
0
  1
1.4.4 @ 2026-09-24T14:07:11.923167+00:00
  0
ENDSEC
  0
EOF
