  0
SECTION
  2
HEADER
  9
$ACADVER
  1
AC1024
  9
$ACADMAINTVER
 70
6
  9
$DWGCODEPAGE
  3
ANSI_1252
  9
$LASTSAVEDBY
  1
ezdxf
  9
$INSBASE
 10
0.0
 20
0.0
 30
0.0
  9
$EXTMIN
 10
1e+20
 20
1e+20
 30
1e+20
  9
$EXTMAX
 10
-1e+20
 20
-1e+20
 30
-1e+20
  9
$LIMMIN
 10
0.0
 20
0.0
  9
$LIMMAX
 10
420.0
 20
297.0
  9
$ORTHOMODE
 70
0
  9
$REGENMODE
 70
1
  9
$FILLMODE
 70
1
  9
$QTEXTMODE
 70
0
  9
$MIRRTEXT
 70
1
  9
$LTSCALE
 40
1.0
  9
$ATTMODE
 70
1
  9
$TEXTSIZE
 40
2.5
  9
$TRACEWID
 40
1.0
  9
$TEXTSTYLE
  7
OpenSans
  9
$CLAYER
  8
0
  9
$CELTYPE
  6
ByLayer
  9
$CECOLOR
 62
256
  9
$CELTSCALE
 40
1.0
  9
$DISPSILH
 70
0
  9
$DIMSCALE
 40
1.0
  9
$DIMASZ
 40
0.175
  9
$DIMEXO
 40
0.125
  9
$DIMDLI
 40
3.75
  9
$DIMRND
 40
0.0
  9
$DIMDLE
 40
0.0
  9
$DIMEXE
 40
0.375
  9
$DIMTP
 40
0.0
  9
$DIMTM
 40
0.0
  9
$DIMTXT
 40
0.25
  9
$DIMCEN
 40
2.5
  9
$DIMTSZ
 40
0.0
  9
$DIMTOL
 70
0
  9
$DIMLIM
 70
0
  9
$DIMTIH
 70
0
  9
$DIMTOH
 70
0
  9
$DIMSE1
 70
0
  9
$DIMSE2
 70
0
  9
$DIMTAD
 70
1
  9
$DIMZIN
 70
12
  9
$DIMBLK
  1
ARCHTICK
  9
$DIMASO
 70
1
  9
$DIMSHO
 70
1
  9
$DIMPOST
  1

  9
$DIMAPOST
  1

  9
$DIMALT
 70
0
  9
$DIMALTD
 70
3
  9
$DIMALTF
 40
0.03937007874
  9
$DIMLFAC
 40
100.0
  9
$DIMTOFL
 70
1
  9
$DIMTVP
 40
0.0
  9
$DIMTIX
 70
0
  9
$DIMSOXD
 70
0
  9
$DIMSAH
 70
0
  9
$DIMBLK1
  1

  9
$DIMBLK2
  1

  9
$DIMSTYLE
  2
EZDXF
  9
$DIMCLRD
 70
0
  9
$DIMCLRE
 70
0
  9
$DIMCLRT
 70
0
  9
$DIMTFAC
 40
0.5
  9
$DIMGAP
 40
0.1
  9
$DIMJUST
 70
0
  9
$DIMSD1
 70
0
  9
$DIMSD2
 70
0
  9
$DIMTOLJ
 70
0
  9
$DIMTZIN
 70
8
  9
$DIMALTZ
 70
0
  9
$DIMALTTZ
 70
0
  9
$DIMUPT
 70
1
  9
$DIMDEC
 70
2
  9
$DIMTDEC
 70
2
  9
$DIMALTU
 70
2
  9
$DIMALTTD
 70
3
  9
$DIMTXSTY
  7
OpenSansCondensed-Light
  9
$DIMAUNIT
 70
0
  9
$DIMADEC
 70
2
  9
$DIMALTRND
 40
0.0
  9
$DIMAZIN
 70
3
  9
$DIMDSEP
 70
46
  9
$DIMATFIT
 70
3
  9
$DIMFRAC
 70
0
  9
$DIMLDRBLK
  1

  9
$DIMLUNIT
 70
2
  9
$DIMLWD
 70
-2
  9
$DIMLWE
 70
-2
  9
$DIMTMOVE
 70
2
  9
$DIMFXL
 40
1.0
  9
$DIMFXLON
 70
0
  9
$DIMJOGANG
 40
0.785398163397
  9
$DIMTFILL
 70
0
  9
$DIMTFILLCLR
 70
0
  9
$DIMARCSYM
 70
0
  9
$DIMLTYPE
  6

  9
$DIMLTEX1
  6

  9
$DIMLTEX2
  6

  9
$DIMTXTDIRECTION
 70
0
  9
$LUNITS
 70
2
  9
$LUPREC
 70
4
  9
$SKETCHINC
 40
1.0
  9
$FILLETRAD
 40
10.0
  9
$AUNITS
 70
0
  9
$AUPREC
 70
2
  9
$MENU
  1
.
  9
$ELEVATION
 40
0.0
  9
$PELEVATION
 40
0.0
  9
$THICKNESS
 40
0.0
  9
$LIMCHECK
 70
0
  9
$CHAMFERA
 40
0.0
  9
$CHAMFERB
 40
0.0
  9
$CHAMFERC
 40
0.0
  9
$CHAMFERD
 40
0.0
  9
$SKPOLY
 70
0
  9
$TDCREATE
 40
2461311.4991203705
  9
$TDUCREATE
 40
2458532.153996898
  9
$TDUPDATE
 40
2461311.4991203705
  9
$TDUUPDATE
 40
2458532.1544311
  9
$TDINDWG
 40
0.0
  9
$TDUSRTIMER
 40
0.0
  9
$USRTIMER
 70
1
  9
$ANGBASE
 50
0.0
  9
$ANGDIR
 70
0
  9
$PDMODE
 70
0
  9
$PDSIZE
 40
0.0
  9
$PLINEWID
 40
0.0
  9
$SPLFRAME
 70
0
  9
$SPLINETYPE
 70
6
  9
$SPLINESEGS
 70
8
  9
$HANDSEED
  5
307
  9
$SURFTAB1
 70
6
  9
$SURFTAB2
 70
6
  9
$SURFTYPE
 70
6
  9
$SURFU
 70
6
  9
$SURFV
 70
6
  9
$UCSBASE
  2

  9
$UCSNAME
  2

  9
$UCSORG
 10
0.0
 20
0.0
 30
0.0
  9
$UCSXDIR
 10
1.0
 20
0.0
 30
0.0
  9
$UCSYDIR
 10
0.0
 20
1.0
 30
0.0
  9
$UCSORTHOREF
  2

  9
$UCSORTHOVIEW
 70
0
  9
$UCSORGTOP
 10
0.0
 20
0.0
 30
0.0
  9
$UCSORGBOTTOM
 10
0.0
 20
0.0
 30
0.0
  9
$UCSORGLEFT
 10
0.0
 20
0.0
 30
0.0
  9
$UCSORGRIGHT
 10
0.0
 20
0.0
 30
0.0
  9
$UCSORGFRONT
 10
0.0
 20
0.0
 30
0.0
  9
$UCSORGBACK
 10
0.0
 20
0.0
 30
0.0
  9
$PUCSBASE
  2

  9
$PUCSNAME
  2

  9
$PUCSORG
 10
0.0
 20
0.0
 30
0.0
  9
$PUCSXDIR
 10
1.0
 20
0.0
 30
0.0
  9
$PUCSYDIR
 10
0.0
 20
1.0
 30
0.0
  9
$PUCSORTHOREF
  2

  9
$PUCSORTHOVIEW
 70
0
  9
$PUCSORGTOP
 10
0.0
 20
0.0
 30
0.0
  9
$PUCSORGBOTTOM
 10
0.0
 20
0.0
 30
0.0
  9
$PUCSORGLEFT
 10
0.0
 20
0.0
 30
0.0
  9
$PUCSORGRIGHT
 10
0.0
 20
0.0
 30
0.0
  9
$PUCSORGFRONT
 10
0.0
 20
0.0
 30
0.0
  9
$PUCSORGBACK
 10
0.0
 20
0.0
 30
0.0
  9
$USERI1
 70
0
  9
$USERI2
 70
0
  9
$USERI3
 70
0
  9
$USERI4
 70
0
  9
$USERI5
 70
0
  9
$USERR1
 40
0.0
  9
$USERR2
 40
0.0
  9
$USERR3
 40
0.0
  9
$USERR4
 40
0.0
  9
$USERR5
 40
0.0
  9
$WORLDVIEW
 70
1
  9
$SHADEDGE
 70
3
  9
$SHADEDIF
 70
70
  9
$TILEMODE
 70
1
  9
$MAXACTVP
 70
64
  9
$PINSBASE
 10
0.0
 20
0.0
 30
0.0
  9
$PLIMCHECK
 70
0
  9
$PEXTMIN
 10
1e+20
 20
1e+20
 30
1e+20
  9
$PEXTMAX
 10
-1e+20
 20
-1e+20
 30
-1e+20
  9
$PLIMMIN
 10
0.0
 20
0.0
  9
$PLIMMAX
 10
420.0
 20
297.0
  9
$UNITMODE
 70
0
  9
$VISRETAIN
 70
1
  9
$PLINEGEN
 70
0
  9
$PSLTSCALE
 70
1
  9
$TREEDEPTH
 70
3020
  9
$CMLSTYLE
  2
Standard
  9
$CMLJUST
 70
0
  9
$CMLSCALE
 40
20.0
  9
$PROXYGRAPHICS
 70
1
  9
$MEASUREMENT
 70
1
  9
$CELWEIGHT
370
-1
  9
$ENDCAPS
280
0
  9
$JOINSTYLE
280
0
  9
$LWDISPLAY
290
0
  9
$INSUNITS
 70
4
  9
$HYPERLINKBASE
  1

  9
$STYLESHEET
  1

  9
$XEDIT
290
1
  9
$CEPSNTYPE
380
0
  9
$PSTYLEMODE
290
1
  9
$FINGERPRINTGUID
  2
{28BBEFC8-8F4E-4F79-9A65-56C73454F946}
  9
$VERSIONGUID
  2
{87A91532-AD07-499E-91E8-B8BCE2EED86A}
  9
$EXTNAMES
290
1
  9
$PSVPSCALE
 40
0.0
  9
$OLESTARTUP
290
0
  9
$SORTENTS
280
127
  9
$INDEXCTL
280
0
  9
$HIDETEXT
280
1
  9
$XCLIPFRAME
280
1
  9
$HALOGAP
280
0
  9
$OBSCOLOR
 70
257
  9
$OBSLTYPE
280
0
  9
$INTERSECTIONDISPLAY
280
0
  9
$INTERSECTIONCOLOR
 70
257
  9
$DIMASSOC
280
2
  9
$PROJECTNAME
  1

  9
$CAMERADISPLAY
290
0
  9
$LENSLENGTH
 40
50.0
  9
$CAMERAHEIGHT
 40
0.0
  9
$STEPSPERSEC
 40
24.0
  9
$STEPSIZE
 40
100.0
  9
$3DDWFPREC
 40
2.0
  9
$PSOLWIDTH
 40
0.005
  9
$PSOLHEIGHT
 40
0.08
  9
$LOFTANG1
 40
1.570796326795
  9
$LOFTANG2
 40
1.570796326795
  9
$LOFTMAG1
 40
0.0
  9
$LOFTMAG2
 40
0.0
  9
$LOFTPARAM
 70
7
  9
$LOFTNORMALS
280
1
  9
$LATITUDE
 40
37.795
  9
$LONGITUDE
 40
-122.394
  9
$NORTHDIRECTION
 40
0.0
  9
$TIMEZONE
 70
-8000
  9
$LIGHTGLYPHDISPLAY
280
1
  9
$TILEMODELIGHTSYNCH
280
1
  9
$CMATERIAL
347
20
  9
$SOLIDHIST
280
0
  9
$SHOWHIST
280
1
  9
$DWFFRAME
280
2
  9
$DGNFRAME
280
2
  9
$REALWORLDSCALE
290
1
  9
$INTERFERECOLOR
 62
256
  9
$CSHADOW
280
0
  9
$SHADOWPLANELOCATION
 40
0.0
  0
ENDSEC
  0
SECTION
  2
CLASSES
  0
CLASS
  1
ACDBDICTIONARYWDFLT
  2
AcDbDictionaryWithDefault
  3
ObjectDBX Classes
 90
0
 91
0
280
0
281
0
  0
CLASS
  1
SUN
  2
AcDbSun
  3
SCENEOE
 90
1153
 91
0
280
0
281
0
  0
CLASS
  1
VISUALSTYLE
  2
AcDbVisualStyle
  3
ObjectDBX Classes
 90
4095
 91
0
280
0
281
0
  0
CLASS
  1
MATERIAL
  2
AcDbMaterial
  3
ObjectDBX Classes
 90
1153
 91
0
280
0
281
0
  0
CLASS
  1
SCALE
  2
AcDbScale
  3
ObjectDBX Classes
 90
1153
 91
0
280
0
281
0
  0
CLASS
  1
TABLESTYLE
  2
AcDbTableStyle
  3
ObjectDBX Classes
 90
4095
 91
0
280
0
281
0
  0
CLASS
  1
MLEADERSTYLE
  2
AcDbMLeaderStyle
  3
ACDB_MLEADERSTYLE_CLASS
 90
4095
 91
0
280
0
281
0
  0
CLASS
  1
DICTIONARYVAR
  2
AcDbDictionaryVar
  3
ObjectDBX Classes
 90
0
 91
0
280
0
281
0
  0
CLASS
  1
CELLSTYLEMAP
  2
AcDbCellStyleMap
  3
ObjectDBX Classes
 90
1152
 91
0
280
0
281
0
  0
CLASS
  1
MENTALRAYRENDERSETTINGS
  2
AcDbMentalRayRenderSettings
  3
SCENEOE
 90
1024
 91
0
280
0
281
0
  0
CLASS
  1
ACDBDETAILVIEWSTYLE
  2
AcDbDetailViewStyle
  3
ObjectDBX Classes
 90
1025
 91
0
280
0
281
0
  0
CLASS
  1
ACDBSECTIONVIEWSTYLE
  2
AcDbSectionViewStyle
  3
ObjectDBX Classes
 90
1025
 91
0
280
0
281
0
  0
CLASS
  1
RASTERVARIABLES
  2
AcDbRasterVariables
  3
ISM
 90
0
 91
0
280
0
281
0
  0
CLASS
  1
LAYOUT
  2
AcDbLayout
  3
ObjectDBX Classes
 90
0
 91
0
280
0
281
0
  0
CLASS
  1
ACDBPLACEHOLDER
  2
AcDbPlaceHolder
  3
ObjectDBX Classes
 90
0
 91
0
280
0
281
0
  0
ENDSEC
  0
SECTION
  2
TABLES
  0
TABLE
  2
VPORT
  5
8
330
0
100
AcDbSymbolTable
 70
1
  0
VPORT
  5
303
330
8
100
AcDbSymbolTableRecord
100
AcDbViewportTableRecord
  2
*Active
 70
0
 10
0.0
 20
0.0
 11
1.0
 21
1.0
 12
5750.0
 22
7175.0
 13
0.0
 23
0.0
 14
0.5
 24
0.5
 15
0.5
 25
0.5
 16
0.0
 26
0.0
 36
1.0
 17
0.0
 27
0.0
 37
0.0
 40
15067.5
 41
1.34
 42
50.0
 43
0.0
 44
0.0
 50
0.0
 51
0.0
 71
0
 72
1000
 73
1
 74
3
 75
0
 76
0
 77
0
 78
0
281
0
 65
1
110
0.0
120
0.0
130
0.0
111
1.0
121
0.0
131
0.0
112
0.0
122
1.0
132
0.0
 79
0
146
0.0
  0
ENDTAB
  0
TABLE
  2
LTYPE
  5
2
330
0
100
AcDbSymbolTable
 70
21
  0
LTYPE
  5
24
330
2
100
AcDbSymbolTableRecord
100
AcDbLinetypeTableRecord
  2
ByBlock
 70
0
  3

 72
65
 73
0
 40
0.0
  0
LTYPE
  5
25
330
2
100
AcDbSymbolTableRecord
100
AcDbLinetypeTableRecord
  2
ByLayer
 70
0
  3

 72
65
 73
0
 40
0.0
  0
LTYPE
  5
26
330
2
100
AcDbSymbolTableRecord
100
AcDbLinetypeTableRecord
  2
Continuous
 70
0
  3

 72
65
 73
0
 40
0.0
  0
LTYPE
  5
2F
330
2
100
AcDbSymbolTableRecord
100
AcDbLinetypeTableRecord
  2
CENTER
 70
0
  3
Center ____ _ ____ _ ____ _ ____ _ ____ _ ____
 72
65
 73
4
 40
5.08
 49
3.175
 74
0
 49
-0.635
 74
0
 49
0.635
 74
0
 49
-0.635
 74
0
  0
LTYPE
  5
30
330
2
100
AcDbSymbolTableRecord
100
AcDbLinetypeTableRecord
  2
CENTERX2
 70
0
  3
Center (2x) ________  __  ________  __  ________
 72
65
 73
4
 40
8.89
 49
6.35
 74
0
 49
-0.635
 74
0
 49
1.27
 74
0
 49
-0.635
 74
0
  0
LTYPE
  5
31
330
2
100
AcDbSymbolTableRecord
100
AcDbLinetypeTableRecord
  2
CENTER2
 70
0
  3
Center (.5x) ____ _ ____ _ ____ _ ____ _ ____
 72
65
 73
4
 40
2.54
 49
1.587
 74
0
 49
-0.318
 74
0
 49
0.318
 74
0
 49
-0.318
 74
0
  0
LTYPE
  5
32
330
2
100
AcDbSymbolTableRecord
100
AcDbLinetypeTableRecord
  2
DASHED
 70
0
  3
Dashed __ __ __ __ __ __ __ __ __ __ __ __ __ _
 72
65
 73
2
 40
1.524
 49
1.27
 74
0
 49
-0.254
 74
0
  0
LTYPE
  5
33
330
2
100
AcDbSymbolTableRecord
100
AcDbLinetypeTableRecord
  2
DASHEDX2
 70
0
  3
Dashed (2x) ____  ____  ____  ____  ____  ____
 72
65
 73
2
 40
3.048
 49
2.54
 74
0
 49
-0.508
 74
0
  0
LTYPE
  5
34
330
2
100
AcDbSymbolTableRecord
100
AcDbLinetypeTableRecord
  2
DASHED2
 70
0
  3
Dashed (.5x) _ _ _ _ _ _ _ _ _ _ _ _ _ _
 72
65
 73
2
 40
0.762
 49
0.635
 74
0
 49
-0.127
 74
0
  0
LTYPE
  5
35
330
2
100
AcDbSymbolTableRecord
100
AcDbLinetypeTableRecord
  2
PHANTOM
 70
0
  3
Phantom ______  __  __  ______  __  __  ______
 72
65
 73
6
 40
6.35
 49
3.175
 74
0
 49
-0.635
 74
0
 49
0.635
 74
0
 49
-0.635
 74
0
 49
0.635
 74
0
 49
-0.635
 74
0
  0
LTYPE
  5
36
330
2
100
AcDbSymbolTableRecord
100
AcDbLinetypeTableRecord
  2
PHANTOMX2
 70
0
  3
Phantom (2x)____________    ____    ____    ____________
 72
65
 73
6
 40
10.795
 49
6.35
 74
0
 49
-0.635
 74
0
 49
1.27
 74
0
 49
-0.635
 74
0
 49
1.27
 74
0
 49
-0.635
 74
0
  0
LTYPE
  5
37
330
2
100
AcDbSymbolTableRecord
100
AcDbLinetypeTableRecord
  2
PHANTOM2
 70
0
  3
Phantom (.5x) ___ _ _ ___ _ _ ___ _ _ ___ _ _ ___
 72
65
 73
6
 40
3.175
 49
1.587
 74
0
 49
-0.318
 74
0
 49
0.318
 74
0
 49
-0.318
 74
0
 49
0.318
 74
0
 49
-0.318
 74
0
  0
LTYPE
  5
38
330
2
100
AcDbSymbolTableRecord
100
AcDbLinetypeTableRecord
  2
DASHDOT
 70
0
  3
Dash dot __ . __ . __ . __ . __ . __ . __ . __
 72
65
 73
4
 40
3.556
 49
2.54
 74
0
 49
-0.508
 74
0
 49
0.0
 74
0
 49
-0.508
 74
0
  0
LTYPE
  5
39
330
2
100
AcDbSymbolTableRecord
100
AcDbLinetypeTableRecord
  2
DASHDOTX2
 70
0
  3
Dash dot (2x) ____  .  ____  .  ____  .  ____
 72
65
 73
4
 40
6.096
 49
5.08
 74
0
 49
-0.508
 74
0
 49
0.0
 74
0
 49
-0.508
 74
0
  0
LTYPE
  5
3A
330
2
100
AcDbSymbolTableRecord
100
AcDbLinetypeTableRecord
  2
DASHDOT2
 70
0
  3
Dash dot (.5x) _ . _ . _ . _ . _ . _ . _ . _
 72
65
 73
4
 40
1.778
 49
1.27
 74
0
 49
-0.254
 74
0
 49
0.0
 74
0
 49
-0.254
 74
0
  0
LTYPE
  5
3B
330
2
100
AcDbSymbolTableRecord
100
AcDbLinetypeTableRecord
  2
DOT
 70
0
  3
Dot .  .  .  .  .  .  .  .  .  .  .  .  .  .  .  .
 72
65
 73
2
 40
0.508
 49
0.0
 74
0
 49
-0.508
 74
0
  0
LTYPE
  5
3C
330
2
100
AcDbSymbolTableRecord
100
AcDbLinetypeTableRecord
  2
DOTX2
 70
0
  3
Dot (2x) .    .    .    .    .    .    .    . 
 72
65
 73
2
 40
1.016
 49
0.0
 74
0
 49
-1.016
 74
0
  0
LTYPE
  5
3D
330
2
100
AcDbSymbolTableRecord
100
AcDbLinetypeTableRecord
  2
DOT2
 70
0
  3
Dot (.5) . . . . . . . . . . . . . . . . . . . 
 72
65
 73
2
 40
0.254
 49
0.0
 74
0
 49
-0.254
 74
0
  0
LTYPE
  5
3E
330
2
100
AcDbSymbolTableRecord
100
AcDbLinetypeTableRecord
  2
DIVIDE
 70
0
  3
Divide __ . . __ . . __ . . __ . . __ . . __
 72
65
 73
6
 40
4.064
 49
2.54
 74
0
 49
-0.508
 74
0
 49
0.0
 74
0
 49
-0.508
 74
0
 49
0.0
 74
0
 49
-0.508
 74
0
  0
LTYPE
  5
3F
330
2
100
AcDbSymbolTableRecord
100
AcDbLinetypeTableRecord
  2
DIVIDEX2
 70
0
  3
Divide (2x) ____  . .  ____  . .  ____  . .  ____
 72
65
 73
6
 40
6.604
 49
5.08
 74
0
 49
-0.508
 74
0
 49
0.0
 74
0
 49
-0.508
 74
0
 49
0.0
 74
0
 49
-0.508
 74
0
  0
LTYPE
  5
40
330
2
100
AcDbSymbolTableRecord
100
AcDbLinetypeTableRecord
  2
DIVIDE2
 70
0
  3
Divide(.5x) _ . _ . _ . _ . _ . _ . _ . _
 72
65
 73
6
 40
2.032
 49
1.27
 74
0
 49
-0.254
 74
0
 49
0.0
 74
0
 49
-0.254
 74
0
 49
0.0
 74
0
 49
-0.254
 74
0
  0
ENDTAB
  0
TABLE
  2
LAYER
  5
1
330
0
100
AcDbSymbolTable
 70
16
  0
LAYER
  5
27
330
1
100
AcDbSymbolTableRecord
100
AcDbLayerTableRecord
  2
0
 70
0
 62
7
  6
Continuous
370
-3
390
13
347
21
  0
LAYER
  5
28
330
1
100
AcDbSymbolTableRecord
100
AcDbLayerTableRecord
  2
Defpoints
 70
0
 62
7
  6
Continuous
290
0
370
-3
390
13
347
21
  0
LAYER
  5
8D
330
1
100
AcDbSymbolTableRecord
100
AcDbLayerTableRecord
  2
A-WALL
 70
0
 62
7
420
0
  6
Continuous
370
50
390
13
347
21
  0
LAYER
  5
8E
330
1
100
AcDbSymbolTableRecord
100
AcDbLayerTableRecord
  2
A-WALL-FILL
 70
0
 62
7
420
10066329
  6
Continuous
370
13
390
13
347
21
  0
LAYER
  5
8F
330
1
100
AcDbSymbolTableRecord
100
AcDbLayerTableRecord
  2
A-COLS
 70
0
 62
7
420
0
  6
Continuous
370
50
390
13
347
21
  0
LAYER
  5
90
330
1
100
AcDbSymbolTableRecord
100
AcDbLayerTableRecord
  2
A-GLAZ
 70
0
 62
7
420
1731527
  6
Continuous
370
18
390
13
347
21
  0
LAYER
  5
91
330
1
100
AcDbSymbolTableRecord
100
AcDbLayerTableRecord
  2
A-GLAZ-FRAME
 70
0
 62
7
420
0
  6
Continuous
370
25
390
13
347
21
  0
LAYER
  5
92
330
1
100
AcDbSymbolTableRecord
100
AcDbLayerTableRecord
  2
A-DOOR
 70
0
 62
7
420
0
  6
Continuous
370
35
390
13
347
21
  0
LAYER
  5
93
330
1
100
AcDbSymbolTableRecord
100
AcDbLayerTableRecord
  2
A-DOOR-SWING
 70
0
 62
7
420
4210752
  6
Continuous
370
13
390
13
347
21
  0
LAYER
  5
94
330
1
100
AcDbSymbolTableRecord
100
AcDbLayerTableRecord
  2
A-SHAFT
 70
0
 62
7
420
0
  6
Continuous
370
25
390
13
347
21
  0
LAYER
  5
95
330
1
100
AcDbSymbolTableRecord
100
AcDbLayerTableRecord
  2
A-FIXT
 70
0
 62
7
420
2500134
  6
Continuous
370
18
390
13
347
21
  0
LAYER
  5
96
330
1
100
AcDbSymbolTableRecord
100
AcDbLayerTableRecord
  2
A-FURN
 70
0
 62
7
420
7039851
  6
Continuous
370
13
390
13
347
21
  0
LAYER
  5
97
330
1
100
AcDbSymbolTableRecord
100
AcDbLayerTableRecord
  2
A-DIMS
 70
0
 62
7
420
0
  6
Continuous
370
13
390
13
347
21
  0
LAYER
  5
98
330
1
100
AcDbSymbolTableRecord
100
AcDbLayerTableRecord
  2
A-TEXT
 70
0
 62
7
420
0
  6
Continuous
370
18
390
13
347
21
  0
LAYER
  5
99
330
1
100
AcDbSymbolTableRecord
100
AcDbLayerTableRecord
  2
A-SHEET
 70
0
 62
7
420
0
  6
Continuous
370
25
390
13
347
21
  0
LAYER
  5
302
330
1
100
AcDbSymbolTableRecord
100
AcDbLayerTableRecord
  2
A-VPORT
 70
0
 62
7
  6
Continuous
290
0
370
-3
390
13
347
21
  0
ENDTAB
  0
TABLE
  2
STYLE
  5
5
330
0
100
AcDbSymbolTable
 70
29
  0
STYLE
  5
29
330
5
100
AcDbSymbolTableRecord
100
AcDbTextStyleTableRecord
  2
Standard
 70
0
 40
0.0
 41
1.0
 50
0.0
 71
0
 42
2.5
  3
txt
  4

  0
STYLE
  5
41
330
5
100
AcDbSymbolTableRecord
100
AcDbTextStyleTableRecord
  2
OpenSans-Light
 70
0
 40
0.0
 41
1.0
 50
0.0
 71
0
 42
2.5
  3
OpenSans-Light.ttf
  4

  0
STYLE
  5
42
330
5
100
AcDbSymbolTableRecord
100
AcDbTextStyleTableRecord
  2
OpenSans-Light-Italic
 70
0
 40
0.0
 41
1.0
 50
0.0
 71
0
 42
2.5
  3
OpenSans-LightItalic.ttf
  4

  0
STYLE
  5
43
330
5
100
AcDbSymbolTableRecord
100
AcDbTextStyleTableRecord
  2
OpenSans
 70
0
 40
0.0
 41
1.0
 50
0.0
 71
0
 42
2.5
  3
OpenSans-Regular.ttf
  4

  0
STYLE
  5
44
330
5
100
AcDbSymbolTableRecord
100
AcDbTextStyleTableRecord
  2
OpenSans-Italic
 70
0
 40
0.0
 41
1.0
 50
0.0
 71
0
 42
2.5
  3
OpenSans-Italic.ttf
  4

  0
STYLE
  5
45
330
5
100
AcDbSymbolTableRecord
100
AcDbTextStyleTableRecord
  2
OpenSans-SemiBold
 70
0
 40
0.0
 41
1.0
 50
0.0
 71
0
 42
2.5
  3
OpenSans-SemiBold.ttf
  4

  0
STYLE
  5
46
330
5
100
AcDbSymbolTableRecord
100
AcDbTextStyleTableRecord
  2
OpenSans-SemiBoldItalic
 70
0
 40
0.0
 41
1.0
 50
0.0
 71
0
 42
2.5
  3
OpenSans-SemiBoldItalic.ttf
  4

  0
STYLE
  5
47
330
5
100
AcDbSymbolTableRecord
100
AcDbTextStyleTableRecord
  2
OpenSans-Bold
 70
0
 40
0.0
 41
1.0
 50
0.0
 71
0
 42
2.5
  3
OpenSans-Bold.ttf
  4

  0
STYLE
  5
48
330
5
100
AcDbSymbolTableRecord
100
AcDbTextStyleTableRecord
  2
OpenSans-BoldItalic
 70
0
 40
0.0
 41
1.0
 50
0.0
 71
0
 42
2.5
  3
OpenSans-BoldItalic.ttf
  4

  0
STYLE
  5
49
330
5
100
AcDbSymbolTableRecord
100
AcDbTextStyleTableRecord
  2
OpenSans-ExtraBold
 70
0
 40
0.0
 41
1.0
 50
0.0
 71
0
 42
2.5
  3
OpenSans-ExtraBold.ttf
  4

  0
STYLE
  5
4A
330
5
100
AcDbSymbolTableRecord
100
AcDbTextStyleTableRecord
  2
OpenSans-ExtraBoldItalic
 70
0
 40
0.0
 41
1.0
 50
0.0
 71
0
 42
2.5
  3
OpenSans-ExtraBoldItalic.ttf
  4

  0
STYLE
  5
4B
330
5
100
AcDbSymbolTableRecord
100
AcDbTextStyleTableRecord
  2
OpenSansCondensed-Bold
 70
0
 40
0.0
 41
1.0
 50
0.0
 71
0
 42
2.5
  3
OpenSansCondensed-Bold.ttf
  4

  0
STYLE
  5
4C
330
5
100
AcDbSymbolTableRecord
100
AcDbTextStyleTableRecord
  2
OpenSansCondensed-Light
 70
0
 40
0.0
 41
1.0
 50
0.0
 71
0
 42
2.5
  3
OpenSansCondensed-Light.ttf
  4

  0
STYLE
  5
4D
330
5
100
AcDbSymbolTableRecord
100
AcDbTextStyleTableRecord
  2
OpenSansCondensed-Italic
 70
0
 40
0.0
 41
1.0
 50
0.0
 71
0
 42
2.5
  3
OpenSansCondensed-LightItalic.ttf
  4

  0
STYLE
  5
4E
330
5
100
AcDbSymbolTableRecord
100
AcDbTextStyleTableRecord
  2
LiberationSans
 70
0
 40
0.0
 41
1.0
 50
0.0
 71
0
 42
2.5
  3
LiberationSans-Regular.ttf
  4

  0
STYLE
  5
4F
330
5
100
AcDbSymbolTableRecord
100
AcDbTextStyleTableRecord
  2
LiberationSans-Bold
 70
0
 40
0.0
 41
1.0
 50
0.0
 71
0
 42
2.5
  3
LiberationSans-Bold.ttf
  4

  0
STYLE
  5
50
330
5
100
AcDbSymbolTableRecord
100
AcDbTextStyleTableRecord
  2
LiberationSans-BoldItalic
 70
0
 40
0.0
 41
1.0
 50
0.0
 71
0
 42
2.5
  3
LiberationSans-BoldItalic.ttf
  4

  0
STYLE
  5
51
330
5
100
AcDbSymbolTableRecord
100
AcDbTextStyleTableRecord
  2
LiberationSans-Italic
 70
0
 40
0.0
 41
1.0
 50
0.0
 71
0
 42
2.5
  3
LiberationSans-Italic.ttf
  4

  0
STYLE
  5
52
330
5
100
AcDbSymbolTableRecord
100
AcDbTextStyleTableRecord
  2
LiberationSerif
 70
0
 40
0.0
 41
1.0
 50
0.0
 71
0
 42
2.5
  3
LiberationSerif-Regular.ttf
  4

  0
STYLE
  5
53
330
5
100
AcDbSymbolTableRecord
100
AcDbTextStyleTableRecord
  2
LiberationSerif-Bold
 70
0
 40
0.0
 41
1.0
 50
0.0
 71
0
 42
2.5
  3
LiberationSerif-Bold.ttf
  4

  0
STYLE
  5
54
330
5
100
AcDbSymbolTableRecord
100
AcDbTextStyleTableRecord
  2
LiberationSerif-BoldItalic
 70
0
 40
0.0
 41
1.0
 50
0.0
 71
0
 42
2.5
  3
LiberationSerif-BoldItalic.ttf
  4

  0
STYLE
  5
55
330
5
100
AcDbSymbolTableRecord
100
AcDbTextStyleTableRecord
  2
LiberationSerif-Italic
 70
0
 40
0.0
 41
1.0
 50
0.0
 71
0
 42
2.5
  3
LiberationSerif-Italic.ttf
  4

  0
STYLE
  5
56
330
5
100
AcDbSymbolTableRecord
100
AcDbTextStyleTableRecord
  2
LiberationMono
 70
0
 40
0.0
 41
1.0
 50
0.0
 71
0
 42
2.5
  3
LiberationMono-Regular.ttf
  4

  0
STYLE
  5
57
330
5
100
AcDbSymbolTableRecord
100
AcDbTextStyleTableRecord
  2
LiberationMono-Bold
 70
0
 40
0.0
 41
1.0
 50
0.0
 71
0
 42
2.5
  3
LiberationMono-Bold.ttf
  4

  0
STYLE
  5
58
330
5
100
AcDbSymbolTableRecord
100
AcDbTextStyleTableRecord
  2
LiberationMono-BoldItalic
 70
0
 40
0.0
 41
1.0
 50
0.0
 71
0
 42
2.5
  3
LiberationMono-BoldItalic.ttf
  4

  0
STYLE
  5
59
330
5
100
AcDbSymbolTableRecord
100
AcDbTextStyleTableRecord
  2
LiberationMono-Italic
 70
0
 40
0.0
 41
1.0
 50
0.0
 71
0
 42
2.5
  3
LiberationMono-Italic.ttf
  4

  0
STYLE
  5
8A
330
5
100
AcDbSymbolTableRecord
100
AcDbTextStyleTableRecord
  2
PLAN-REGULAR
 70
0
 40
0.0
 41
1.0
 50
0.0
 71
0
 42
2.5
  3
arial.ttf
  4

  0
STYLE
  5
8B
330
5
100
AcDbSymbolTableRecord
100
AcDbTextStyleTableRecord
  2
PLAN-BOLD
 70
0
 40
0.0
 41
1.0
 50
0.0
 71
0
 42
2.5
  3
arialbd.ttf
  4

  0
STYLE
  5
8C
330
5
100
AcDbSymbolTableRecord
100
AcDbTextStyleTableRecord
  2
PLAN-ITALIC
 70
0
 40
0.0
 41
1.0
 50
0.0
 71
0
 42
2.5
  3
ariali.ttf
  4

  0
ENDTAB
  0
TABLE
  2
VIEW
  5
7
330
0
100
AcDbSymbolTable
 70
0
  0
ENDTAB
  0
TABLE
  2
UCS
  5
6
330
0
100
AcDbSymbolTable
 70
0
  0
ENDTAB
  0
TABLE
  2
APPID
  5
3
330
0
100
AcDbSymbolTable
 70
3
  0
APPID
  5
2A
330
3
100
AcDbSymbolTableRecord
100
AcDbRegAppTableRecord
  2
ACAD
 70
0
  0
APPID
  5
304
330
3
100
AcDbSymbolTableRecord
100
AcDbRegAppTableRecord
  2
HATCHBACKGROUNDCOLOR
 70
0
  0
APPID
  5
305
330
3
100
AcDbSymbolTableRecord
100
AcDbRegAppTableRecord
  2
EZDXF
 70
0
  0
ENDTAB
  0
TABLE
  2
DIMSTYLE
  5
4
330
0
100
AcDbSymbolTable
 70
13
100
AcDbDimStyleTable
  0
DIMSTYLE
105
2B
330
4
100
AcDbSymbolTableRecord
100
AcDbDimStyleTableRecord
  2
Standard
 70
0
 40
1.0
 41
2.5
 42
0.625
 43
3.75
 44
1.25
 45
0.0
 46
0.0
 47
0.0
 48
0.0
 49
2.5
140
2.5
141
2.5
142
0.0
143
0.03937007874
144
1.0
145
0.0
146
1.0
147
0.625
148
0.0
 69
0
 70
0
 71
0
 72
0
 73
0
 74
0
 75
0
 76
0
 77
1
 78
8
 79
3
170
0
171
3
172
1
173
0
174
0
175
0
176
0
177
0
178
0
179
2
271
2
272
2
273
2
274
3
275
0
276
0
277
2
278
44
279
0
280
0
281
0
282
0
283
0
284
8
285
0
286
0
288
0
289
3
290
0
371
-2
372
-2
  0
DIMSTYLE
105
73
330
4
100
AcDbSymbolTableRecord
100
AcDbDimStyleTableRecord
  2
EZDXF
 70
0
 40
1.0
 41
0.175
 42
0.125
 43
3.75
 44
0.375
 45
0.0
 46
0.0
 47
0.0
 48
0.0
 49
2.5
140
0.25
141
2.5
142
0.0
143
0.03937007874
144
100.0
145
0.0
146
0.5
147
0.1
148
0.0
 69
0
 70
0
 71
0
 72
0
 73
0
 74
0
 75
0
 76
0
 77
1
 78
12
 79
3
170
0
171
3
172
1
173
0
174
0
175
0
176
0
177
0
178
0
179
2
271
2
272
2
273
2
274
3
275
0
276
0
277
2
278
46
279
2
280
0
281
0
282
0
283
0
284
8
285
0
286
0
288
1
289
3
290
0
340
4C
342
74
371
-2
372
-2
  0
DIMSTYLE
105
7C
330
4
100
AcDbSymbolTableRecord
100
AcDbDimStyleTableRecord
  2
EZ_M_100_H25_CM
 70
0
 40
1.0
 41
0.25
 42
0.125
 43
3.75
 44
0.375
 45
0.0
 46
0.0
 47
0.0
 48
0.0
 49
2.5
140
0.25
141
2.5
142
0.125
143
0.03937007874
144
100.0
145
0.0
146
0.5
147
0.1
148
0.0
 69
0
 70
0
 71
0
 72
0
 73
0
 74
0
 75
0
 76
0
 77
1
 78
12
 79
3
170
0
171
3
172
1
173
0
174
0
175
0
176
0
177
0
178
0
179
2
271
2
272
2
273
2
274
3
275
0
276
0
277
2
278
46
279
2
280
0
281
0
282
0
283
0
284
8
285
0
286
0
288
1
289
3
290
0
340
4C
371
-2
372
-2
  0
DIMSTYLE
105
7D
330
4
100
AcDbSymbolTableRecord
100
AcDbDimStyleTableRecord
  2
EZ_M_50_H25_CM
 70
0
 40
1.0
 41
0.125
 42
0.0625
 43
3.75
 44
0.1875
 45
0.0
 46
0.0
 47
0.0
 48
0.0
 49
2.5
140
0.125
141
2.5
142
0.0625
143
0.03937007874
144
100.0
145
0.0
146
0.5
147
0.05
148
0.0
 69
0
 70
0
 71
0
 72
0
 73
0
 74
0
 75
0
 76
0
 77
1
 78
12
 79
3
170
0
171
3
172
1
173
0
174
0
175
0
176
0
177
0
178
0
179
2
271
2
272
2
273
2
274
3
275
0
276
0
277
2
278
46
279
2
280
0
281
0
282
0
283
0
284
8
285
0
286
0
288
1
289
3
290
0
340
4C
371
-2
372
-2
  0
DIMSTYLE
105
7E
330
4
100
AcDbSymbolTableRecord
100
AcDbDimStyleTableRecord
  2
EZ_M_25_H25_CM
 70
0
 40
1.0
 41
0.0625
 42
0.03125
 43
3.75
 44
0.09375
 45
0.0
 46
0.0
 47
0.0
 48
0.0
 49
2.5
140
0.0625
141
2.5
142
0.03125
143
0.03937007874
144
100.0
145
0.0
146
0.5
147
0.025
148
0.0
 69
0
 70
0
 71
0
 72
0
 73
0
 74
0
 75
0
 76
0
 77
1
 78
12
 79
3
170
0
171
3
172
1
173
0
174
0
175
0
176
0
177
0
178
0
179
2
271
2
272
2
273
2
274
3
275
0
276
0
277
2
278
46
279
2
280
0
281
0
282
0
283
0
284
8
285
0
286
0
288
1
289
3
290
0
340
4C
371
-2
372
-2
  0
DIMSTYLE
105
7F
330
4
100
AcDbSymbolTableRecord
100
AcDbDimStyleTableRecord
  2
EZ_M_20_H25_CM
 70
0
 40
1.0
 41
0.05
 42
0.025
 43
3.75
 44
0.07500000000000001
 45
0.0
 46
0.0
 47
0.0
 48
0.0
 49
2.5
140
0.05
141
2.5
142
0.025
143
0.03937007874
144
100.0
145
0.0
146
0.5
147
0.020000000000000004
148
0.0
 69
0
 70
0
 71
0
 72
0
 73
0
 74
0
 75
0
 76
0
 77
1
 78
12
 79
3
170
0
171
3
172
1
173
0
174
0
175
0
176
0
177
0
178
0
179
2
271
2
272
2
273
2
274
3
275
0
276
0
277
2
278
46
279
2
280
0
281
0
282
0
283
0
284
8
285
0
286
0
288
1
289
3
290
0
340
4C
371
-2
372
-2
  0
DIMSTYLE
105
80
330
4
100
AcDbSymbolTableRecord
100
AcDbDimStyleTableRecord
  2
EZ_M_10_H25_CM
 70
0
 40
1.0
 41
0.025
 42
0.0125
 43
3.75
 44
0.037500000000000006
 45
0.0
 46
0.0
 47
0.0
 48
0.0
 49
2.5
140
0.025
141
2.5
142
0.0125
143
0.03937007874
144
100.0
145
0.0
146
0.5
147
0.010000000000000002
148
0.0
 69
0
 70
0
 71
0
 72
0
 73
0
 74
0
 75
0
 76
0
 77
1
 78
12
 79
3
170
0
171
3
172
1
173
0
174
0
175
0
176
0
177
0
178
0
179
2
271
2
272
2
273
2
274
3
275
0
276
0
277
2
278
46
279
2
280
0
281
0
282
0
283
0
284
8
285
0
286
0
288
1
289
3
290
0
340
4C
371
-2
372
-2
  0
DIMSTYLE
105
81
330
4
100
AcDbSymbolTableRecord
100
AcDbDimStyleTableRecord
  2
EZ_M_5_H25_CM
 70
0
 40
1.0
 41
0.0125
 42
0.00625
 43
3.75
 44
0.018750000000000003
 45
0.0
 46
0.0
 47
0.0
 48
0.0
 49
2.5
140
0.0125
141
2.5
142
0.00625
143
0.03937007874
144
100.0
145
0.0
146
0.5
147
0.005000000000000001
148
0.0
 69
0
 70
0
 71
0
 72
0
 73
0
 74
0
 75
0
 76
0
 77
1
 78
12
 79
3
170
0
171
3
172
1
173
0
174
0
175
0
176
0
177
0
178
0
179
2
271
2
272
2
273
2
274
3
275
0
276
0
277
2
278
46
279
2
280
0
281
0
282
0
283
0
284
8
285
0
286
0
288
1
289
3
290
0
340
4C
371
-2
372
-2
  0
DIMSTYLE
105
82
330
4
100
AcDbSymbolTableRecord
100
AcDbDimStyleTableRecord
  2
EZ_M_1_H25_CM
 70
0
 40
1.0
 41
0.0025
 42
0.00125
 43
3.75
 44
0.00375
 45
0.0
 46
0.0
 47
0.0
 48
0.0
 49
2.5
140
0.0025
141
2.5
142
0.00125
143
0.03937007874
144
100.0
145
0.0
146
0.5
147
0.001
148
0.0
 69
0
 70
0
 71
0
 72
0
 73
0
 74
0
 75
0
 76
0
 77
1
 78
12
 79
3
170
0
171
3
172
1
173
0
174
0
175
0
176
0
177
0
178
0
179
2
271
2
272
2
273
2
274
3
275
0
276
0
277
2
278
46
279
2
280
0
281
0
282
0
283
0
284
8
285
0
286
0
288
1
289
3
290
0
340
4C
371
-2
372
-2
  0
DIMSTYLE
105
83
330
4
100
AcDbSymbolTableRecord
100
AcDbDimStyleTableRecord
  2
EZ_RADIUS
 70
0
 40
1.0
 41
0.25
 42
0.125
 43
3.75
 44
0.375
 45
0.0
 46
0.0
 47
0.0
 48
0.0
 49
2.5
140
0.25
141
0.0
142
0.0
143
0.03937007874
144
100.0
145
0.0
146
0.5
147
0.1
148
0.0
 69
0
 70
0
 71
0
 72
0
 73
0
 74
0
 75
0
 76
0
 77
1
 78
12
 79
3
170
0
171
3
172
0
173
0
174
0
175
0
176
0
177
0
178
0
179
2
271
2
272
2
273
2
274
3
275
0
276
0
277
2
278
46
279
1
280
0
281
0
282
0
283
0
284
8
285
0
286
0
288
1
289
3
290
0
340
4C
342
84
371
-2
372
-2
  0
DIMSTYLE
105
88
330
4
100
AcDbSymbolTableRecord
100
AcDbDimStyleTableRecord
  2
EZ_RADIUS_INSIDE
 70
0
 40
1.0
 41
0.25
 42
0.125
 43
3.75
 44
0.375
 45
0.0
 46
0.0
 47
0.0
 48
0.0
 49
2.5
140
0.25
141
0.0
142
0.0
143
0.03937007874
144
100.0
145
0.0
146
0.5
147
0.1
148
0.0
 69
0
 70
0
 71
0
 72
0
 73
0
 74
0
 75
0
 76
0
 77
0
 78
12
 79
3
170
0
171
3
172
0
173
0
174
1
175
0
176
0
177
0
178
0
179
2
271
2
272
2
273
2
274
3
275
0
276
0
277
2
278
46
279
0
280
0
281
0
282
0
283
0
284
8
285
0
286
0
288
1
289
0
290
0
340
4C
342
84
371
-2
372
-2
  0
DIMSTYLE
105
89
330
4
100
AcDbSymbolTableRecord
100
AcDbDimStyleTableRecord
  2
EZ_CURVED
 70
0
 40
1.0
 41
0.25
 42
0.125
 43
3.75
 44
0.375
 45
0.0
 46
0.0
 47
0.0
 48
0.0
 49
2.5
140
0.25
141
2.5
142
0.0
143
0.03937007874
144
100.0
145
0.0
146
0.5
147
0.1
148
0.0
 69
0
 70
0
 71
0
 72
0
 73
0
 74
0
 75
0
 76
0
 77
1
 78
12
 79
2
 90
2
170
0
171
3
172
1
173
0
174
0
175
0
176
0
177
0
178
0
179
2
271
2
272
2
273
2
274
3
275
0
276
0
277
2
278
46
279
2
280
0
281
0
282
0
283
0
284
8
285
0
286
0
288
1
289
3
290
0
340
4C
371
-2
372
-2
  0
DIMSTYLE
105
9A
330
4
100
AcDbSymbolTableRecord
100
AcDbDimStyleTableRecord
  2
PLAN-1-50
 70
0
 40
50.0
 41
2.5
 42
0.0
 43
3.75
 44
1.0
 45
0.0
 46
1.0
 47
0.0
 48
0.0
 49
2.5
140
2.5
141
2.5
142
1.1
143
0.03937007874
144
1.0
145
0.0
146
1.0
147
0.8
148
0.0
 69
1
 70
0
 71
0
 72
0
 73
0
 74
0
 75
0
 76
0
 77
1
 78
8
 79
3
170
0
171
3
172
1
173
0
174
0
175
0
176
0
177
0
178
0
179
2
271
0
272
2
273
2
274
3
275
0
276
0
277
2
278
44
279
0
280
0
281
0
282
0
283
0
284
8
285
0
286
0
288
0
289
3
290
0
340
8A
371
13
372
13
  0
ENDTAB
  0
TABLE
  2
BLOCK_RECORD
  5
9
330
0
100
AcDbSymbolTable
 70
22
  0
BLOCK_RECORD
  5
17
330
9
100
AcDbSymbolTableRecord
100
AcDbBlockTableRecord
  2
*Model_Space
340
1A
 70
0
280
1
281
0
  0
BLOCK_RECORD
  5
1B
330
9
100
AcDbSymbolTableRecord
100
AcDbBlockTableRecord
  2
*Paper_Space
340
1E
 70
0
280
1
281
0
  0
BLOCK_RECORD
  5
74
330
9
100
AcDbSymbolTableRecord
100
AcDbBlockTableRecord
  2
_ARCHTICK
340
0
 70
0
280
1
281
0
  0
BLOCK_RECORD
  5
78
330
9
100
AcDbSymbolTableRecord
100
AcDbBlockTableRecord
  2
_CLOSEDFILLED
340
0
 70
0
280
1
281
0
  0
BLOCK_RECORD
  5
84
330
9
100
AcDbSymbolTableRecord
100
AcDbBlockTableRecord
  2
_CLOSEDBLANK
340
0
 70
0
280
1
281
0
  0
BLOCK_RECORD
  5
1BE
330
9
100
AcDbSymbolTableRecord
100
AcDbBlockTableRecord
  2
*D1
340
0
 70
0
280
1
281
0
  0
BLOCK_RECORD
  5
1C1
330
9
100
AcDbSymbolTableRecord
100
AcDbBlockTableRecord
  2
_OBLIQUE
340
0
 70
0
280
1
281
0
  0
BLOCK_RECORD
  5
1CF
330
9
100
AcDbSymbolTableRecord
100
AcDbBlockTableRecord
  2
*D2
340
0
 70
0
280
1
281
0
  0
BLOCK_RECORD
  5
1DC
330
9
100
AcDbSymbolTableRecord
100
AcDbBlockTableRecord
  2
*D3
340
0
 70
0
280
1
281
0
  0
BLOCK_RECORD
  5
1E9
330
9
100
AcDbSymbolTableRecord
100
AcDbBlockTableRecord
  2
*D4
340
0
 70
0
280
1
281
0
  0
BLOCK_RECORD
  5
1F6
330
9
100
AcDbSymbolTableRecord
100
AcDbBlockTableRecord
  2
*D5
340
0
 70
0
280
1
281
0
  0
BLOCK_RECORD
  5
203
330
9
100
AcDbSymbolTableRecord
100
AcDbBlockTableRecord
  2
*D6
340
0
 70
0
280
1
281
0
  0
BLOCK_RECORD
  5
210
330
9
100
AcDbSymbolTableRecord
100
AcDbBlockTableRecord
  2
*D7
340
0
 70
0
280
1
281
0
  0
BLOCK_RECORD
  5
21D
330
9
100
AcDbSymbolTableRecord
100
AcDbBlockTableRecord
  2
*D8
340
0
 70
0
280
1
281
0
  0
BLOCK_RECORD
  5
22B
330
9
100
AcDbSymbolTableRecord
100
AcDbBlockTableRecord
  2
*D9
340
0
 70
0
280
1
281
0
  0
BLOCK_RECORD
  5
238
330
9
100
AcDbSymbolTableRecord
100
AcDbBlockTableRecord
  2
*D10
340
0
 70
0
280
1
281
0
  0
BLOCK_RECORD
  5
245
330
9
100
AcDbSymbolTableRecord
100
AcDbBlockTableRecord
  2
*D11
340
0
 70
0
280
1
281
0
  0
BLOCK_RECORD
  5
252
330
9
100
AcDbSymbolTableRecord
100
AcDbBlockTableRecord
  2
*D12
340
0
 70
0
280
1
281
0
  0
BLOCK_RECORD
  5
25F
330
9
100
AcDbSymbolTableRecord
100
AcDbBlockTableRecord
  2
*D13
340
0
 70
0
280
1
281
0
  0
BLOCK_RECORD
  5
26C
330
9
100
AcDbSymbolTableRecord
100
AcDbBlockTableRecord
  2
*D14
340
0
 70
0
280
1
281
0
  0
BLOCK_RECORD
  5
279
330
9
100
AcDbSymbolTableRecord
100
AcDbBlockTableRecord
  2
*D15
340
0
 70
0
280
1
281
0
  0
BLOCK_RECORD
  5
285
330
9
100
AcDbSymbolTableRecord
100
AcDbBlockTableRecord
  2
*Paper_Space0
340
288
 70
0
280
1
281
0
  0
ENDTAB
  0
ENDSEC
  0
SECTION
  2
BLOCKS
  0
BLOCK
  5
18
330
17
100
AcDbEntity
  8
0
100
AcDbBlockBegin
  2
*Model_Space
 70
0
 10
0.0
 20
0.0
 30
0.0
  3
*Model_Space
  1

  0
ENDBLK
  5
19
330
17
100
AcDbEntity
  8
0
100
AcDbBlockEnd
  0
BLOCK
  5
1C
330
1B
100
AcDbEntity
  8
0
100
AcDbBlockBegin
  2
*Paper_Space
 70
0
 10
0.0
 20
0.0
 30
0.0
  3
*Paper_Space
  1

  0
ENDBLK
  5
1D
330
1B
100
AcDbEntity
  8
0
100
AcDbBlockEnd
  0
BLOCK
  5
75
330
74
100
AcDbEntity
  8
0
100
AcDbBlockBegin
  2
_ARCHTICK
 70
0
 10
0.0
 20
0.0
 30
0.0
  3
_ARCHTICK
  1

  0
LWPOLYLINE
  5
77
330
74
100
AcDbEntity
  8
0
  6
BYBLOCK
 62
0
100
AcDbPolyline
 90
2
 70
0
 43
0.15
 10
-0.5
 20
-0.5
 10
0.5
 20
0.5
  0
ENDBLK
  5
76
330
74
100
AcDbEntity
  8
0
100
AcDbBlockEnd
  0
BLOCK
  5
79
330
78
100
AcDbEntity
  8
0
100
AcDbBlockBegin
  2
_CLOSEDFILLED
 70
0
 10
0.0
 20
0.0
 30
0.0
  3
_CLOSEDFILLED
  1

  0
SOLID
  5
7B
330
78
100
AcDbEntity
  8
0
  6
BYBLOCK
 62
0
100
AcDbTrace
 10
-1.0
 20
0.16439898372402537
 30
0.0
 11
0.0
 21
0.0
 31
0.0
 12
-1.0
 22
-0.16439898372402537
 32
0.0
 13
-1.0
 23
-0.16439898372402537
 33
0.0
  0
ENDBLK
  5
7A
330
78
100
AcDbEntity
  8
0
100
AcDbBlockEnd
  0
BLOCK
  5
85
330
84
100
AcDbEntity
  8
0
100
AcDbBlockBegin
  2
_CLOSEDBLANK
 70
0
 10
0.0
 20
0.0
 30
0.0
  3
_CLOSEDBLANK
  1

  0
LWPOLYLINE
  5
87
330
84
100
AcDbEntity
  8
0
  6
BYBLOCK
 62
0
100
AcDbPolyline
 90
3
 70
1
 10
-1.0
 20
0.16439898372402537
 10
0.0
 20
0.0
 10
-1.0
 20
-0.16439898372402537
  0
ENDBLK
  5
86
330
84
100
AcDbEntity
  8
0
100
AcDbBlockEnd
  0
BLOCK
  5
1BF
330
1BE
100
AcDbEntity
  8
0
100
AcDbBlockBegin
  2
*D1
 70
1
 10
0.0
 20
0.0
 30
0.0
  3
*D1
  1

  0
INSERT
  5
1C5
330
1BE
100
AcDbEntity
  8
A-DIMS
100
AcDbBlockReference
  2
_OBLIQUE
 10
1200.0
 20
13900.0
 30
0.0
 41
110.00000000000001
 42
110.00000000000001
  0
INSERT
  5
1C7
330
1BE
100
AcDbEntity
  8
A-DIMS
100
AcDbBlockReference
  2
_OBLIQUE
 10
4800.0
 20
13900.0
 30
0.0
 41
110.00000000000001
 42
110.00000000000001
  0
LINE
  5
1C9
330
1BE
100
AcDbEntity
  8
0
370
13
100
AcDbLine
 10
1150.0
 20
13900.0
 30
0.0
 11
4850.0
 21
13900.0
 31
0.0
  0
MTEXT
  5
1CA
330
1BE
100
AcDbEntity
  8
A-DIMS
100
AcDbMText
 10
3000.0
 20
14002.5
 30
0.0
 40
125.0
 71
5
  1
3600
  7
PLAN-REGULAR
 45
1.1
 90
3
 63
1
  0
POINT
  5
1CB
330
1BE
100
AcDbEntity
  8
Defpoints
100
AcDbPoint
 10
1200.0
 20
13900.0
 30
0.0
  0
POINT
  5
1CC
330
1BE
100
AcDbEntity
  8
Defpoints
100
AcDbPoint
 10
1200.0
 20
13900.0
 30
0.0
  0
POINT
  5
1CD
330
1BE
100
AcDbEntity
  8
Defpoints
100
AcDbPoint
 10
4800.0
 20
13900.0
 30
0.0
  0
ENDBLK
  5
1C0
330
1BE
100
AcDbEntity
  8
0
100
AcDbBlockEnd
  0
BLOCK
  5
1C2
330
1C1
100
AcDbEntity
  8
0
100
AcDbBlockBegin
  2
_OBLIQUE
 70
0
 10
0.0
 20
0.0
 30
0.0
  3
_OBLIQUE
  1

  0
LINE
  5
1C4
330
1C1
100
AcDbEntity
  8
0
  6
BYBLOCK
 62
0
100
AcDbLine
 10
-0.5
 20
-0.5
 30
0.0
 11
0.5
 21
0.5
 31
0.0
  0
ENDBLK
  5
1C3
330
1C1
100
AcDbEntity
  8
0
100
AcDbBlockEnd
  0
BLOCK
  5
1D0
330
1CF
100
AcDbEntity
  8
0
100
AcDbBlockBegin
  2
*D2
 70
1
 10
0.0
 20
0.0
 30
0.0
  3
*D2
  1

  0
INSERT
  5
1D2
330
1CF
100
AcDbEntity
  8
A-DIMS
100
AcDbBlockReference
  2
_OBLIQUE
 10
4100.0
 20
14150.0
 30
0.0
 41
110.00000000000001
 42
110.00000000000001
 50
90.0
  0
INSERT
  5
1D4
330
1CF
100
AcDbEntity
  8
A-DIMS
100
AcDbBlockReference
  2
_OBLIQUE
 10
4100.0
 20
12150.0
 30
0.0
 41
110.00000000000001
 42
110.00000000000001
 50
90.0
  0
LINE
  5
1D6
330
1CF
100
AcDbEntity
  8
0
370
13
100
AcDbLine
 10
4100.0
 20
14200.0
 30
0.0
 11
4100.0
 21
12100.0
 31
0.0
  0
MTEXT
  5
1D7
330
1CF
100
AcDbEntity
  8
A-DIMS
100
AcDbMText
 10
4202.5
 20
13150.0
 30
0.0
 40
125.0
 71
5
  1
2000
  7
PLAN-REGULAR
 50
90.0
 45
1.1
 90
3
 63
1
  0
POINT
  5
1D8
330
1CF
100
AcDbEntity
  8
Defpoints
100
AcDbPoint
 10
4100.0
 20
14150.0
 30
0.0
  0
POINT
  5
1D9
330
1CF
100
AcDbEntity
  8
Defpoints
100
AcDbPoint
 10
4100.0
 20
14150.0
 30
0.0
  0
POINT
  5
1DA
330
1CF
100
AcDbEntity
  8
Defpoints
100
AcDbPoint
 10
4100.0
 20
12150.0
 30
0.0
  0
ENDBLK
  5
1D1
330
1CF
100
AcDbEntity
  8
0
100
AcDbBlockEnd
  0
BLOCK
  5
1DD
330
1DC
100
AcDbEntity
  8
0
100
AcDbBlockBegin
  2
*D3
 70
1
 10
0.0
 20
0.0
 30
0.0
  3
*D3
  1

  0
INSERT
  5
1DF
330
1DC
100
AcDbEntity
  8
A-DIMS
100
AcDbBlockReference
  2
_OBLIQUE
 10
6380.0
 20
13775.0
 30
0.0
 41
110.00000000000001
 42
110.00000000000001
  0
INSERT
  5
1E1
330
1DC
100
AcDbEntity
  8
A-DIMS
100
AcDbBlockReference
  2
_OBLIQUE
 10
11350.0
 20
13775.0
 30
0.0
 41
110.00000000000001
 42
110.00000000000001
  0
LINE
  5
1E3
330
1DC
100
AcDbEntity
  8
0
370
13
100
AcDbLine
 10
6330.0
 20
13775.0
 30
0.0
 11
11400.0
 21
13775.0
 31
0.0
  0
MTEXT
  5
1E4
330
1DC
100
AcDbEntity
  8
A-DIMS
100
AcDbMText
 10
8865.0
 20
13877.5
 30
0.0
 40
125.0
 71
5
  1
4970
  7
PLAN-REGULAR
 45
1.1
 90
3
 63
1
  0
POINT
  5
1E5
330
1DC
100
AcDbEntity
  8
Defpoints
100
AcDbPoint
 10
6380.0
 20
13775.0
 30
0.0
  0
POINT
  5
1E6
330
1DC
100
AcDbEntity
  8
Defpoints
100
AcDbPoint
 10
6380.0
 20
13775.0
 30
0.0
  0
POINT
  5
1E7
330
1DC
100
AcDbEntity
  8
Defpoints
100
AcDbPoint
 10
11350.0
 20
13775.0
 30
0.0
  0
ENDBLK
  5
1DE
330
1DC
100
AcDbEntity
  8
0
100
AcDbBlockEnd
  0
BLOCK
  5
1EA
330
1E9
100
AcDbEntity
  8
0
100
AcDbBlockBegin
  2
*D4
 70
1
 10
0.0
 20
0.0
 30
0.0
  3
*D4
  1

  0
INSERT
  5
1EC
330
1E9
100
AcDbEntity
  8
A-DIMS
100
AcDbBlockReference
  2
_OBLIQUE
 10
10500.0
 20
14150.0
 30
0.0
 41
110.00000000000001
 42
110.00000000000001
 50
90.0
  0
INSERT
  5
1EE
330
1E9
100
AcDbEntity
  8
A-DIMS
100
AcDbBlockReference
  2
_OBLIQUE
 10
10500.0
 20
11150.0
 30
0.0
 41
110.00000000000001
 42
110.00000000000001
 50
90.0
  0
LINE
  5
1F0
330
1E9
100
AcDbEntity
  8
0
370
13
100
AcDbLine
 10
10500.0
 20
14200.0
 30
0.0
 11
10500.0
 21
11100.0
 31
0.0
  0
MTEXT
  5
1F1
330
1E9
100
AcDbEntity
  8
A-DIMS
100
AcDbMText
 10
10602.5
 20
12650.0
 30
0.0
 40
125.0
 71
5
  1
3000
  7
PLAN-REGULAR
 50
90.0
 45
1.1
 90
3
 63
1
  0
POINT
  5
1F2
330
1E9
100
AcDbEntity
  8
Defpoints
100
AcDbPoint
 10
10500.0
 20
14150.0
 30
0.0
  0
POINT
  5
1F3
330
1E9
100
AcDbEntity
  8
Defpoints
100
AcDbPoint
 10
10500.0
 20
14150.0
 30
0.0
  0
POINT
  5
1F4
330
1E9
100
AcDbEntity
  8
Defpoints
100
AcDbPoint
 10
10500.0
 20
11150.0
 30
0.0
  0
ENDBLK
  5
1EB
330
1E9
100
AcDbEntity
  8
0
100
AcDbBlockEnd
  0
BLOCK
  5
1F7
330
1F6
100
AcDbEntity
  8
0
100
AcDbBlockBegin
  2
*D5
 70
1
 10
0.0
 20
0.0
 30
0.0
  3
*D5
  1

  0
INSERT
  5
1F9
330
1F6
100
AcDbEntity
  8
A-DIMS
100
AcDbBlockReference
  2
_OBLIQUE
 10
3400.0
 20
11950.0
 30
0.0
 41
110.00000000000001
 42
110.00000000000001
 50
90.0
  0
INSERT
  5
1FB
330
1F6
100
AcDbEntity
  8
A-DIMS
100
AcDbBlockReference
  2
_OBLIQUE
 10
3400.0
 20
9500.0
 30
0.0
 41
110.00000000000001
 42
110.00000000000001
 50
90.0
  0
LINE
  5
1FD
330
1F6
100
AcDbEntity
  8
0
370
13
100
AcDbLine
 10
3400.0
 20
12000.0
 30
0.0
 11
3400.0
 21
9450.0
 31
0.0
  0
MTEXT
  5
1FE
330
1F6
100
AcDbEntity
  8
A-DIMS
100
AcDbMText
 10
3502.5
 20
10725.0
 30
0.0
 40
125.0
 71
5
  1
2450
  7
PLAN-REGULAR
 50
90.0
 45
1.1
 90
3
 63
1
  0
POINT
  5
1FF
330
1F6
100
AcDbEntity
  8
Defpoints
100
AcDbPoint
 10
3400.0
 20
11950.0
 30
0.0
  0
POINT
  5
200
330
1F6
100
AcDbEntity
  8
Defpoints
100
AcDbPoint
 10
3400.0
 20
11950.0
 30
0.0
  0
POINT
  5
201
330
1F6
100
AcDbEntity
  8
Defpoints
100
AcDbPoint
 10
3400.0
 20
9500.0
 30
0.0
  0
ENDBLK
  5
1F8
330
1F6
100
AcDbEntity
  8
0
100
AcDbBlockEnd
  0
BLOCK
  5
204
330
203
100
AcDbEntity
  8
0
100
AcDbBlockBegin
  2
*D6
 70
1
 10
0.0
 20
0.0
 30
0.0
  3
*D6
  1

  0
INSERT
  5
206
330
203
100
AcDbEntity
  8
A-DIMS
100
AcDbBlockReference
  2
_OBLIQUE
 10
3235.0
 20
9770.0
 30
0.0
 41
110.00000000000001
 42
110.00000000000001
  0
INSERT
  5
208
330
203
100
AcDbEntity
  8
A-DIMS
100
AcDbBlockReference
  2
_OBLIQUE
 10
4900.0
 20
9770.0
 30
0.0
 41
110.00000000000001
 42
110.00000000000001
  0
LINE
  5
20A
330
203
100
AcDbEntity
  8
0
370
13
100
AcDbLine
 10
3185.0
 20
9770.0
 30
0.0
 11
4950.0
 21
9770.0
 31
0.0
  0
MTEXT
  5
20B
330
203
100
AcDbEntity
  8
A-DIMS
100
AcDbMText
 10
4067.5
 20
9872.5
 30
0.0
 40
125.0
 71
5
  1
1665
  7
PLAN-REGULAR
 45
1.1
 90
3
 63
1
  0
POINT
  5
20C
330
203
100
AcDbEntity
  8
Defpoints
100
AcDbPoint
 10
3235.0
 20
9770.0
 30
0.0
  0
POINT
  5
20D
330
203
100
AcDbEntity
  8
Defpoints
100
AcDbPoint
 10
3235.0
 20
9770.0
 30
0.0
  0
POINT
  5
20E
330
203
100
AcDbEntity
  8
Defpoints
100
AcDbPoint
 10
4900.0
 20
9770.0
 30
0.0
  0
ENDBLK
  5
205
330
203
100
AcDbEntity
  8
0
100
AcDbBlockEnd
  0
BLOCK
  5
211
330
210
100
AcDbEntity
  8
0
100
AcDbBlockBegin
  2
*D7
 70
1
 10
0.0
 20
0.0
 30
0.0
  3
*D7
  1

  0
INSERT
  5
213
330
210
100
AcDbEntity
  8
A-DIMS
100
AcDbBlockReference
  2
_OBLIQUE
 10
5100.0
 20
8400.0
 30
0.0
 41
110.00000000000001
 42
110.00000000000001
  0
INSERT
  5
215
330
210
100
AcDbEntity
  8
A-DIMS
100
AcDbBlockReference
  2
_OBLIQUE
 10
6950.0
 20
8400.0
 30
0.0
 41
110.00000000000001
 42
110.00000000000001
  0
LINE
  5
217
330
210
100
AcDbEntity
  8
0
370
13
100
AcDbLine
 10
5050.0
 20
8400.0
 30
0.0
 11
7000.0
 21
8400.0
 31
0.0
  0
MTEXT
  5
218
330
210
100
AcDbEntity
  8
A-DIMS
100
AcDbMText
 10
6025.0
 20
8502.5
 30
0.0
 40
125.0
 71
5
  1
1850
  7
PLAN-REGULAR
 45
1.1
 90
3
 63
1
  0
POINT
  5
219
330
210
100
AcDbEntity
  8
Defpoints
100
AcDbPoint
 10
5100.0
 20
8400.0
 30
0.0
  0
POINT
  5
21A
330
210
100
AcDbEntity
  8
Defpoints
100
AcDbPoint
 10
5100.0
 20
8400.0
 30
0.0
  0
POINT
  5
21B
330
210
100
AcDbEntity
  8
Defpoints
100
AcDbPoint
 10
6950.0
 20
8400.0
 30
0.0
  0
ENDBLK
  5
212
330
210
100
AcDbEntity
  8
0
100
AcDbBlockEnd
  0
BLOCK
  5
21E
330
21D
100
AcDbEntity
  8
0
100
AcDbBlockBegin
  2
*D8
 70
1
 10
0.0
 20
0.0
 30
0.0
  3
*D8
  1

  0
LINE
  5
220
330
21D
100
AcDbEntity
  8
0
370
13
100
AcDbLine
 10
6950.0
 20
11000.0
 30
0.0
 11
6725.0
 21
11000.0
 31
0.0
  0
INSERT
  5
221
330
21D
100
AcDbEntity
  8
A-DIMS
100
AcDbBlockReference
  2
_OBLIQUE
 10
6775.0
 20
11000.0
 30
0.0
 41
110.00000000000001
 42
110.00000000000001
 50
90.0
  0
INSERT
  5
223
330
21D
100
AcDbEntity
  8
A-DIMS
100
AcDbBlockReference
  2
_OBLIQUE
 10
6775.0
 20
6650.0
 30
0.0
 41
110.00000000000001
 42
110.00000000000001
 50
90.0
  0
LINE
  5
225
330
21D
100
AcDbEntity
  8
0
370
13
100
AcDbLine
 10
6775.0
 20
11050.0
 30
0.0
 11
6775.0
 21
6600.0
 31
0.0
  0
MTEXT
  5
226
330
21D
100
AcDbEntity
  8
A-DIMS
100
AcDbMText
 10
6877.5
 20
8825.0
 30
0.0
 40
125.0
 71
5
  1
4350
  7
PLAN-REGULAR
 50
90.0
 45
1.1
 90
3
 63
1
  0
POINT
  5
227
330
21D
100
AcDbEntity
  8
Defpoints
100
AcDbPoint
 10
6775.0
 20
11000.0
 30
0.0
  0
POINT
  5
228
330
21D
100
AcDbEntity
  8
Defpoints
100
AcDbPoint
 10
6950.0
 20
11000.0
 30
0.0
  0
POINT
  5
229
330
21D
100
AcDbEntity
  8
Defpoints
100
AcDbPoint
 10
6775.0
 20
6650.0
 30
0.0
  0
ENDBLK
  5
21F
330
21D
100
AcDbEntity
  8
0
100
AcDbBlockEnd
  0
BLOCK
  5
22C
330
22B
100
AcDbEntity
  8
0
100
AcDbBlockBegin
  2
*D9
 70
1
 10
0.0
 20
0.0
 30
0.0
  3
*D9
  1

  0
INSERT
  5
22E
330
22B
100
AcDbEntity
  8
A-DIMS
100
AcDbBlockReference
  2
_OBLIQUE
 10
8125.0
 20
10950.0
 30
0.0
 41
110.00000000000001
 42
110.00000000000001
 50
90.0
  0
INSERT
  5
230
330
22B
100
AcDbEntity
  8
A-DIMS
100
AcDbBlockReference
  2
_OBLIQUE
 10
8125.0
 20
8050.0
 30
0.0
 41
110.00000000000001
 42
110.00000000000001
 50
90.0
  0
LINE
  5
232
330
22B
100
AcDbEntity
  8
0
370
13
100
AcDbLine
 10
8125.0
 20
11000.0
 30
0.0
 11
8125.0
 21
8000.0
 31
0.0
  0
MTEXT
  5
233
330
22B
100
AcDbEntity
  8
A-DIMS
100
AcDbMText
 10
8227.5
 20
9500.0
 30
0.0
 40
125.0
 71
5
  1
2900
  7
PLAN-REGULAR
 50
90.0
 45
1.1
 90
3
 63
1
  0
POINT
  5
234
330
22B
100
AcDbEntity
  8
Defpoints
100
AcDbPoint
 10
8125.0
 20
10950.0
 30
0.0
  0
POINT
  5
235
330
22B
100
AcDbEntity
  8
Defpoints
100
AcDbPoint
 10
8125.0
 20
10950.0
 30
0.0
  0
POINT
  5
236
330
22B
100
AcDbEntity
  8
Defpoints
100
AcDbPoint
 10
8125.0
 20
8050.0
 30
0.0
  0
ENDBLK
  5
22D
330
22B
100
AcDbEntity
  8
0
100
AcDbBlockEnd
  0
BLOCK
  5
239
330
238
100
AcDbEntity
  8
0
100
AcDbBlockBegin
  2
*D10
 70
1
 10
0.0
 20
0.0
 30
0.0
  3
*D10
  1

  0
INSERT
  5
23B
330
238
100
AcDbEntity
  8
A-DIMS
100
AcDbBlockReference
  2
_OBLIQUE
 10
7150.0
 20
8400.0
 30
0.0
 41
110.00000000000001
 42
110.00000000000001
  0
INSERT
  5
23D
330
238
100
AcDbEntity
  8
A-DIMS
100
AcDbBlockReference
  2
_OBLIQUE
 10
11350.0
 20
8400.0
 30
0.0
 41
110.00000000000001
 42
110.00000000000001
  0
LINE
  5
23F
330
238
100
AcDbEntity
  8
0
370
13
100
AcDbLine
 10
7100.0
 20
8400.0
 30
0.0
 11
11400.0
 21
8400.0
 31
0.0
  0
MTEXT
  5
240
330
238
100
AcDbEntity
  8
A-DIMS
100
AcDbMText
 10
9250.0
 20
8502.5
 30
0.0
 40
125.0
 71
5
  1
4200
  7
PLAN-REGULAR
 45
1.1
 90
3
 63
1
  0
POINT
  5
241
330
238
100
AcDbEntity
  8
Defpoints
100
AcDbPoint
 10
7150.0
 20
8400.0
 30
0.0
  0
POINT
  5
242
330
238
100
AcDbEntity
  8
Defpoints
100
AcDbPoint
 10
7150.0
 20
8400.0
 30
0.0
  0
POINT
  5
243
330
238
100
AcDbEntity
  8
Defpoints
100
AcDbPoint
 10
11350.0
 20
8400.0
 30
0.0
  0
ENDBLK
  5
23A
330
238
100
AcDbEntity
  8
0
100
AcDbBlockEnd
  0
BLOCK
  5
246
330
245
100
AcDbEntity
  8
0
100
AcDbBlockBegin
  2
*D11
 70
1
 10
0.0
 20
0.0
 30
0.0
  3
*D11
  1

  0
INSERT
  5
248
330
245
100
AcDbEntity
  8
A-DIMS
100
AcDbBlockReference
  2
_OBLIQUE
 10
8700.0
 20
7850.0
 30
0.0
 41
110.00000000000001
 42
110.00000000000001
 50
90.0
  0
INSERT
  5
24A
330
245
100
AcDbEntity
  8
A-DIMS
100
AcDbBlockReference
  2
_OBLIQUE
 10
8700.0
 20
2000.0
 30
0.0
 41
110.00000000000001
 42
110.00000000000001
 50
90.0
  0
LINE
  5
24C
330
245
100
AcDbEntity
  8
0
370
13
100
AcDbLine
 10
8700.0
 20
7900.0
 30
0.0
 11
8700.0
 21
1950.0
 31
0.0
  0
MTEXT
  5
24D
330
245
100
AcDbEntity
  8
A-DIMS
100
AcDbMText
 10
8597.5
 20
5950.0
 30
0.0
 40
125.0
 71
5
  1
5850
  7
PLAN-REGULAR
 50
90.0
 45
1.1
 90
3
 63
1
  0
POINT
  5
24E
330
245
100
AcDbEntity
  8
Defpoints
100
AcDbPoint
 10
8700.0
 20
7850.0
 30
0.0
  0
POINT
  5
24F
330
245
100
AcDbEntity
  8
Defpoints
100
AcDbPoint
 10
8700.0
 20
7850.0
 30
0.0
  0
POINT
  5
250
330
245
100
AcDbEntity
  8
Defpoints
100
AcDbPoint
 10
8700.0
 20
2000.0
 30
0.0
  0
ENDBLK
  5
247
330
245
100
AcDbEntity
  8
0
100
AcDbBlockEnd
  0
BLOCK
  5
253
330
252
100
AcDbEntity
  8
0
100
AcDbBlockBegin
  2
*D12
 70
1
 10
0.0
 20
0.0
 30
0.0
  3
*D12
  1

  0
INSERT
  5
255
330
252
100
AcDbEntity
  8
A-DIMS
100
AcDbBlockReference
  2
_OBLIQUE
 10
8200.0
 20
2400.0
 30
0.0
 41
110.00000000000001
 42
110.00000000000001
  0
INSERT
  5
257
330
252
100
AcDbEntity
  8
A-DIMS
100
AcDbBlockReference
  2
_OBLIQUE
 10
11350.0
 20
2400.0
 30
0.0
 41
110.00000000000001
 42
110.00000000000001
  0
LINE
  5
259
330
252
100
AcDbEntity
  8
0
370
13
100
AcDbLine
 10
8150.0
 20
2400.0
 30
0.0
 11
11400.0
 21
2400.0
 31
0.0
  0
MTEXT
  5
25A
330
252
100
AcDbEntity
  8
A-DIMS
100
AcDbMText
 10
9775.0
 20
2502.5
 30
0.0
 40
125.0
 71
5
  1
3150
  7
PLAN-REGULAR
 45
1.1
 90
3
 63
1
  0
POINT
  5
25B
330
252
100
AcDbEntity
  8
Defpoints
100
AcDbPoint
 10
8200.0
 20
2400.0
 30
0.0
  0
POINT
  5
25C
330
252
100
AcDbEntity
  8
Defpoints
100
AcDbPoint
 10
8200.0
 20
2400.0
 30
0.0
  0
POINT
  5
25D
330
252
100
AcDbEntity
  8
Defpoints
100
AcDbPoint
 10
11350.0
 20
2400.0
 30
0.0
  0
ENDBLK
  5
254
330
252
100
AcDbEntity
  8
0
100
AcDbBlockEnd
  0
BLOCK
  5
260
330
25F
100
AcDbEntity
  8
0
100
AcDbBlockBegin
  2
*D13
 70
1
 10
0.0
 20
0.0
 30
0.0
  3
*D13
  1

  0
INSERT
  5
262
330
25F
100
AcDbEntity
  8
A-DIMS
100
AcDbBlockReference
  2
_OBLIQUE
 10
5675.0
 20
6450.0
 30
0.0
 41
110.00000000000001
 42
110.00000000000001
 50
90.0
  0
INSERT
  5
264
330
25F
100
AcDbEntity
  8
A-DIMS
100
AcDbBlockReference
  2
_OBLIQUE
 10
5675.0
 20
150.0
 30
0.0
 41
110.00000000000001
 42
110.00000000000001
 50
90.0
  0
LINE
  5
266
330
25F
100
AcDbEntity
  8
0
370
13
100
AcDbLine
 10
5675.0
 20
6500.0
 30
0.0
 11
5675.0
 21
100.0
 31
0.0
  0
MTEXT
  5
267
330
25F
100
AcDbEntity
  8
A-DIMS
100
AcDbMText
 10
5777.5
 20
3300.0
 30
0.0
 40
125.0
 71
5
  1
6300
  7
PLAN-REGULAR
 50
90.0
 45
1.1
 90
3
 63
1
  0
POINT
  5
268
330
25F
100
AcDbEntity
  8
Defpoints
100
AcDbPoint
 10
5675.0
 20
6450.0
 30
0.0
  0
POINT
  5
269
330
25F
100
AcDbEntity
  8
Defpoints
100
AcDbPoint
 10
5675.0
 20
6450.0
 30
0.0
  0
POINT
  5
26A
330
25F
100
AcDbEntity
  8
Defpoints
100
AcDbPoint
 10
5675.0
 20
150.0
 30
0.0
  0
ENDBLK
  5
261
330
25F
100
AcDbEntity
  8
0
100
AcDbBlockEnd
  0
BLOCK
  5
26D
330
26C
100
AcDbEntity
  8
0
100
AcDbBlockBegin
  2
*D14
 70
1
 10
0.0
 20
0.0
 30
0.0
  3
*D14
  1

  0
INSERT
  5
26F
330
26C
100
AcDbEntity
  8
A-DIMS
100
AcDbBlockReference
  2
_OBLIQUE
 10
5100.0
 20
2400.0
 30
0.0
 41
110.00000000000001
 42
110.00000000000001
  0
INSERT
  5
271
330
26C
100
AcDbEntity
  8
A-DIMS
100
AcDbBlockReference
  2
_OBLIQUE
 10
8000.0
 20
2400.0
 30
0.0
 41
110.00000000000001
 42
110.00000000000001
  0
LINE
  5
273
330
26C
100
AcDbEntity
  8
0
370
13
100
AcDbLine
 10
5050.0
 20
2400.0
 30
0.0
 11
8050.0
 21
2400.0
 31
0.0
  0
MTEXT
  5
274
330
26C
100
AcDbEntity
  8
A-DIMS
100
AcDbMText
 10
6550.0
 20
2502.5
 30
0.0
 40
125.0
 71
5
  1
2900
  7
PLAN-REGULAR
 45
1.1
 90
3
 63
1
  0
POINT
  5
275
330
26C
100
AcDbEntity
  8
Defpoints
100
AcDbPoint
 10
5100.0
 20
2400.0
 30
0.0
  0
POINT
  5
276
330
26C
100
AcDbEntity
  8
Defpoints
100
AcDbPoint
 10
5100.0
 20
2400.0
 30
0.0
  0
POINT
  5
277
330
26C
100
AcDbEntity
  8
Defpoints
100
AcDbPoint
 10
8000.0
 20
2400.0
 30
0.0
  0
ENDBLK
  5
26E
330
26C
100
AcDbEntity
  8
0
100
AcDbBlockEnd
  0
BLOCK
  5
27A
330
279
100
AcDbEntity
  8
0
100
AcDbBlockBegin
  2
*D15
 70
1
 10
0.0
 20
0.0
 30
0.0
  3
*D15
  1

  0
INSERT
  5
27C
330
279
100
AcDbEntity
  8
A-DIMS
100
AcDbBlockReference
  2
_OBLIQUE
 10
9650.0
 20
1800.0
 30
0.0
 41
110.00000000000001
 42
110.00000000000001
 50
90.0
  0
INSERT
  5
27E
330
279
100
AcDbEntity
  8
A-DIMS
100
AcDbBlockReference
  2
_OBLIQUE
 10
9650.0
 20
150.0
 30
0.0
 41
110.00000000000001
 42
110.00000000000001
 50
90.0
  0
LINE
  5
280
330
279
100
AcDbEntity
  8
0
370
13
100
AcDbLine
 10
9650.0
 20
1850.0
 30
0.0
 11
9650.0
 21
100.0
 31
0.0
  0
MTEXT
  5
281
330
279
100
AcDbEntity
  8
A-DIMS
100
AcDbMText
 10
9752.5
 20
975.0
 30
0.0
 40
125.0
 71
5
  1
1650
  7
PLAN-REGULAR
 50
90.0
 45
1.1
 90
3
 63
1
  0
POINT
  5
282
330
279
100
AcDbEntity
  8
Defpoints
100
AcDbPoint
 10
9650.0
 20
1800.0
 30
0.0
  0
POINT
  5
283
330
279
100
AcDbEntity
  8
Defpoints
100
AcDbPoint
 10
9650.0
 20
1800.0
 30
0.0
  0
POINT
  5
284
330
279
100
AcDbEntity
  8
Defpoints
100
AcDbPoint
 10
9650.0
 20
150.0
 30
0.0
  0
ENDBLK
  5
27B
330
279
100
AcDbEntity
  8
0
100
AcDbBlockEnd
  0
BLOCK
  5
286
330
285
100
AcDbEntity
  8
0
100
AcDbBlockBegin
  2
*Paper_Space0
 70
0
 10
0.0
 20
0.0
 30
0.0
  3
*Paper_Space0
  1

  0
VIEWPORT
  5
289
330
285
100
AcDbEntity
 67
1
  8
VIEWPORTS
100
AcDbViewport
 10
228096.0
 20
322560.0
 30
0.0
 40
501811.2
 41
709632.0
 68
1
 69
1
 12
228096.0
 22
322560.0
 13
0.0
 23
0.0
 14
10.0
 24
10.0
 15
10.0
 25
10.0
 16
0.0
 26
0.0
 36
1.0
 17
0.0
 27
0.0
 37
0.0
 42
50.0
 43
0.0
 44
0.0
 45
709632.0
 50
0.0
 51
0.0
 72
100
 90
557088
  1

281
0
 71
0
 74
0
110
0.0
120
0.0
130
0.0
111
1.0
121
0.0
131
0.0
112
0.0
122
1.0
132
0.0
 79
0
146
0.0
282
0
  0
LWPOLYLINE
  5
28A
330
285
100
AcDbEntity
 67
1
  8
A-SHEET
370
70
100
AcDbPolyline
 90
4
 70
1
 10
20.0
 20
415.0
 10
292.0
 20
415.0
 10
292.0
 20
5.0
 10
20.0
 20
5.0
  0
TEXT
  5
28B
330
285
100
AcDbEntity
 67
1
  8
A-TEXT
100
AcDbText
 10
41.0
 20
389.0
 30
0.0
 40
4.0
  1
ПЛАН КВАРТИРЫ  /  APARTMENT FLOOR PLAN
  7
PLAN-BOLD
 11
41.0
 21
389.0
 31
0.0
100
AcDbText
 73
2
  0
TEXT
  5
28C
330
285
100
AcDbEntity
 67
1
  8
A-TEXT
100
AcDbText
 10
41.0
 20
384.0
 30
0.0
 40
3.0
  1
М 1:50
  7
PLAN-REGULAR
 11
41.0
 21
384.0
 31
0.0
100
AcDbText
 73
2
  0
TEXT
  5
28D
330
285
100
AcDbEntity
 67
1
  8
A-TEXT
100
AcDbText
 10
44.0
 20
271.0
 30
0.0
 40
2.5
  1
ЭКСПЛИКАЦИЯ ПОМЕЩЕНИЙ / ROOM SCHEDULE
  7
PLAN-BOLD
 11
44.0
 21
271.0
 31
0.0
100
AcDbText
 73
2
  0
LINE
  5
28E
330
285
100
AcDbEntity
 67
1
  8
A-SHEET
370
50
100
AcDbLine
 10
44.0
 20
268.0
 30
0.0
 11
128.0
 21
268.0
 31
0.0
  0
TEXT
  5
28F
330
285
100
AcDbEntity
 67
1
  8
A-TEXT
100
AcDbText
 10
48.0
 20
264.75
 30
0.0
 40
2.2
  1
№
  7
PLAN-BOLD
 72
1
 11
48.0
 21
264.75
 31
0.0
100
AcDbText
 73
2
  0
TEXT
  5
290
330
285
100
AcDbEntity
 67
1
  8
A-TEXT
100
AcDbText
 10
53.5
 20
264.75
 30
0.0
 40
2.2
  1
Помещение
  7
PLAN-BOLD
 11
53.5
 21
264.75
 31
0.0
100
AcDbText
 73
2
  0
TEXT
  5
291
330
285
100
AcDbEntity
 67
1
  8
A-TEXT
100
AcDbText
 10
75.5
 20
264.75
 30
0.0
 40
2.2
  1
Room
  7
PLAN-BOLD
 11
75.5
 21
264.75
 31
0.0
100
AcDbText
 73
2
  0
TEXT
  5
292
330
285
100
AcDbEntity
 67
1
  8
A-TEXT
100
AcDbText
 10
126.0
 20
264.75
 30
0.0
 40
2.2
  1
м²
  7
PLAN-BOLD
 72
2
 11
126.0
 21
264.75
 31
0.0
100
AcDbText
 73
2
  0
LINE
  5
293
330
285
100
AcDbEntity
 67
1
  8
A-SHEET
370
50
100
AcDbLine
 10
44.0
 20
261.5
 30
0.0
 11
128.0
 21
261.5
 31
0.0
  0
TEXT
  5
294
330
285
100
AcDbEntity
 67
1
  8
A-TEXT
100
AcDbText
 10
48.0
 20
258.25
 30
0.0
 40
2.2
  1
1
  7
PLAN-REGULAR
 72
1
 11
48.0
 21
258.25
 31
0.0
100
AcDbText
 73
2
  0
TEXT
  5
295
330
285
100
AcDbEntity
 67
1
  8
A-TEXT
100
AcDbText
 10
53.5
 20
258.25
 30
0.0
 40
2.2
  1
Прихожая
  7
PLAN-REGULAR
 11
53.5
 21
258.25
 31
0.0
100
AcDbText
 73
2
  0
TEXT
  5
296
330
285
100
AcDbEntity
 67
1
  8
A-TEXT
100
AcDbText
 10
75.5
 20
258.25
 30
0.0
 40
2.2
  1
Entrance hall
  7
PLAN-REGULAR
 11
75.5
 21
258.25
 31
0.0
100
AcDbText
 73
2
  0
TEXT
  5
297
330
285
100
AcDbEntity
 67
1
  8
A-TEXT
100
AcDbText
 10
126.0
 20
258.25
 30
0.0
 40
2.2
  1
5.8
  7
PLAN-REGULAR
 72
2
 11
126.0
 21
258.25
 31
0.0
100
AcDbText
 73
2
  0
LINE
  5
298
330
285
100
AcDbEntity
 67
1
  8
A-SHEET
370
18
100
AcDbLine
 10
44.0
 20
255.0
 30
0.0
 11
128.0
 21
255.0
 31
0.0
  0
TEXT
  5
299
330
285
100
AcDbEntity
 67
1
  8
A-TEXT
100
AcDbText
 10
48.0
 20
251.75
 30
0.0
 40
2.2
  1
2
  7
PLAN-REGULAR
 72
1
 11
48.0
 21
251.75
 31
0.0
100
AcDbText
 73
2
  0
TEXT
  5
29A
330
285
100
AcDbEntity
 67
1
  8
A-TEXT
100
AcDbText
 10
53.5
 20
251.75
 30
0.0
 40
2.2
  1
Коридор
  7
PLAN-REGULAR
 11
53.5
 21
251.75
 31
0.0
100
AcDbText
 73
2
  0
TEXT
  5
29B
330
285
100
AcDbEntity
 67
1
  8
A-TEXT
100
AcDbText
 10
75.5
 20
251.75
 30
0.0
 40
2.2
  1
Corridor
  7
PLAN-REGULAR
 11
75.5
 21
251.75
 31
0.0
100
AcDbText
 73
2
  0
TEXT
  5
29C
330
285
100
AcDbEntity
 67
1
  8
A-TEXT
100
AcDbText
 10
126.0
 20
251.75
 30
0.0
 40
2.2
  1
14.1
  7
PLAN-REGULAR
 72
2
 11
126.0
 21
251.75
 31
0.0
100
AcDbText
 73
2
  0
LINE
  5
29D
330
285
100
AcDbEntity
 67
1
  8
A-SHEET
370
18
100
AcDbLine
 10
44.0
 20
248.5
 30
0.0
 11
128.0
 21
248.5
 31
0.0
  0
TEXT
  5
29E
330
285
100
AcDbEntity
 67
1
  8
A-TEXT
100
AcDbText
 10
48.0
 20
245.25
 30
0.0
 40
2.2
  1
3
  7
PLAN-REGULAR
 72
1
 11
48.0
 21
245.25
 31
0.0
100
AcDbText
 73
2
  0
TEXT
  5
29F
330
285
100
AcDbEntity
 67
1
  8
A-TEXT
100
AcDbText
 10
53.5
 20
245.25
 30
0.0
 40
2.2
  1
С/У
  7
PLAN-REGULAR
 11
53.5
 21
245.25
 31
0.0
100
AcDbText
 73
2
  0
TEXT
  5
2A0
330
285
100
AcDbEntity
 67
1
  8
A-TEXT
100
AcDbText
 10
75.5
 20
245.25
 30
0.0
 40
2.2
  1
Bathroom / WC
  7
PLAN-REGULAR
 11
75.5
 21
245.25
 31
0.0
100
AcDbText
 73
2
  0
TEXT
  5
2A1
330
285
100
AcDbEntity
 67
1
  8
A-TEXT
100
AcDbText
 10
126.0
 20
245.25
 30
0.0
 40
2.2
  1
4.1
  7
PLAN-REGULAR
 72
2
 11
126.0
 21
245.25
 31
0.0
100
AcDbText
 73
2
  0
LINE
  5
2A2
330
285
100
AcDbEntity
 67
1
  8
A-SHEET
370
18
100
AcDbLine
 10
44.0
 20
242.0
 30
0.0
 11
128.0
 21
242.0
 31
0.0
  0
TEXT
  5
2A3
330
285
100
AcDbEntity
 67
1
  8
A-TEXT
100
AcDbText
 10
48.0
 20
238.75
 30
0.0
 40
2.2
  1
4
  7
PLAN-REGULAR
 72
1
 11
48.0
 21
238.75
 31
0.0
100
AcDbText
 73
2
  0
TEXT
  5
2A4
330
285
100
AcDbEntity
 67
1
  8
A-TEXT
100
AcDbText
 10
53.5
 20
238.75
 30
0.0
 40
2.2
  1
Гостиная
  7
PLAN-REGULAR
 11
53.5
 21
238.75
 31
0.0
100
AcDbText
 73
2
  0
TEXT
  5
2A5
330
285
100
AcDbEntity
 67
1
  8
A-TEXT
100
AcDbText
 10
75.5
 20
238.75
 30
0.0
 40
2.2
  1
Living / dining room
  7
PLAN-REGULAR
 11
75.5
 21
238.75
 31
0.0
100
AcDbText
 73
2
  0
TEXT
  5
2A6
330
285
100
AcDbEntity
 67
1
  8
A-TEXT
100
AcDbText
 10
126.0
 20
238.75
 30
0.0
 40
2.2
  1
14.4
  7
PLAN-REGULAR
 72
2
 11
126.0
 21
238.75
 31
0.0
100
AcDbText
 73
2
  0
LINE
  5
2A7
330
285
100
AcDbEntity
 67
1
  8
A-SHEET
370
18
100
AcDbLine
 10
44.0
 20
235.5
 30
0.0
 11
128.0
 21
235.5
 31
0.0
  0
TEXT
  5
2A8
330
285
100
AcDbEntity
 67
1
  8
A-TEXT
100
AcDbText
 10
48.0
 20
232.25
 30
0.0
 40
2.2
  1
5
  7
PLAN-REGULAR
 72
1
 11
48.0
 21
232.25
 31
0.0
100
AcDbText
 73
2
  0
TEXT
  5
2A9
330
285
100
AcDbEntity
 67
1
  8
A-TEXT
100
AcDbText
 10
53.5
 20
232.25
 30
0.0
 40
2.2
  1
Кухня
  7
PLAN-REGULAR
 11
53.5
 21
232.25
 31
0.0
100
AcDbText
 73
2
  0
TEXT
  5
2AA
330
285
100
AcDbEntity
 67
1
  8
A-TEXT
100
AcDbText
 10
75.5
 20
232.25
 30
0.0
 40
2.2
  1
Kitchen
  7
PLAN-REGULAR
 11
75.5
 21
232.25
 31
0.0
100
AcDbText
 73
2
  0
TEXT
  5
2AB
330
285
100
AcDbEntity
 67
1
  8
A-TEXT
100
AcDbText
 10
126.0
 20
232.25
 30
0.0
 40
2.2
  1
11.0
  7
PLAN-REGULAR
 72
2
 11
126.0
 21
232.25
 31
0.0
100
AcDbText
 73
2
  0
LINE
  5
2AC
330
285
100
AcDbEntity
 67
1
  8
A-SHEET
370
18
100
AcDbLine
 10
44.0
 20
229.0
 30
0.0
 11
128.0
 21
229.0
 31
0.0
  0
TEXT
  5
2AD
330
285
100
AcDbEntity
 67
1
  8
A-TEXT
100
AcDbText
 10
48.0
 20
225.75
 30
0.0
 40
2.2
  1
6
  7
PLAN-REGULAR
 72
1
 11
48.0
 21
225.75
 31
0.0
100
AcDbText
 73
2
  0
TEXT
  5
2AE
330
285
100
AcDbEntity
 67
1
  8
A-TEXT
100
AcDbText
 10
53.5
 20
225.75
 30
0.0
 40
2.2
  1
Спальня
  7
PLAN-REGULAR
 11
53.5
 21
225.75
 31
0.0
100
AcDbText
 73
2
  0
TEXT
  5
2AF
330
285
100
AcDbEntity
 67
1
  8
A-TEXT
100
AcDbText
 10
75.5
 20
225.75
 30
0.0
 40
2.2
  1
Bedroom
  7
PLAN-REGULAR
 11
75.5
 21
225.75
 31
0.0
100
AcDbText
 73
2
  0
TEXT
  5
2B0
330
285
100
AcDbEntity
 67
1
  8
A-TEXT
100
AcDbText
 10
126.0
 20
225.75
 30
0.0
 40
2.2
  1
17.8
  7
PLAN-REGULAR
 72
2
 11
126.0
 21
225.75
 31
0.0
100
AcDbText
 73
2
  0
LINE
  5
2B1
330
285
100
AcDbEntity
 67
1
  8
A-SHEET
370
18
100
AcDbLine
 10
44.0
 20
222.5
 30
0.0
 11
128.0
 21
222.5
 31
0.0
  0
TEXT
  5
2B2
330
285
100
AcDbEntity
 67
1
  8
A-TEXT
100
AcDbText
 10
48.0
 20
219.25
 30
0.0
 40
2.2
  1
7
  7
PLAN-REGULAR
 72
1
 11
48.0
 21
219.25
 31
0.0
100
AcDbText
 73
2
  0
TEXT
  5
2B3
330
285
100
AcDbEntity
 67
1
  8
A-TEXT
100
AcDbText
 10
53.5
 20
219.25
 30
0.0
 40
2.2
  1
Спальня
  7
PLAN-REGULAR
 11
53.5
 21
219.25
 31
0.0
100
AcDbText
 73
2
  0
TEXT
  5
2B4
330
285
100
AcDbEntity
 67
1
  8
A-TEXT
100
AcDbText
 10
75.5
 20
219.25
 30
0.0
 40
2.2
  1
Bedroom
  7
PLAN-REGULAR
 11
75.5
 21
219.25
 31
0.0
100
AcDbText
 73
2
  0
TEXT
  5
2B5
330
285
100
AcDbEntity
 67
1
  8
A-TEXT
100
AcDbText
 10
126.0
 20
219.25
 30
0.0
 40
2.2
  1
19.7
  7
PLAN-REGULAR
 72
2
 11
126.0
 21
219.25
 31
0.0
100
AcDbText
 73
2
  0
LINE
  5
2B6
330
285
100
AcDbEntity
 67
1
  8
A-SHEET
370
18
100
AcDbLine
 10
44.0
 20
216.0
 30
0.0
 11
128.0
 21
216.0
 31
0.0
  0
TEXT
  5
2B7
330
285
100
AcDbEntity
 67
1
  8
A-TEXT
100
AcDbText
 10
48.0
 20
212.75
 30
0.0
 40
2.2
  1
8
  7
PLAN-REGULAR
 72
1
 11
48.0
 21
212.75
 31
0.0
100
AcDbText
 73
2
  0
TEXT
  5
2B8
330
285
100
AcDbEntity
 67
1
  8
A-TEXT
100
AcDbText
 10
53.5
 20
212.75
 30
0.0
 40
2.2
  1
Лоджия
  7
PLAN-REGULAR
 11
53.5
 21
212.75
 31
0.0
100
AcDbText
 73
2
  0
TEXT
  5
2B9
330
285
100
AcDbEntity
 67
1
  8
A-TEXT
100
AcDbText
 10
75.5
 20
212.75
 30
0.0
 40
2.2
  1
Loggia
  7
PLAN-REGULAR
 11
75.5
 21
212.75
 31
0.0
100
AcDbText
 73
2
  0
TEXT
  5
2BA
330
285
100
AcDbEntity
 67
1
  8
A-TEXT
100
AcDbText
 10
126.0
 20
212.75
 30
0.0
 40
2.2
  1
5.3
  7
PLAN-REGULAR
 72
2
 11
126.0
 21
212.75
 31
0.0
100
AcDbText
 73
2
  0
LINE
  5
2BB
330
285
100
AcDbEntity
 67
1
  8
A-SHEET
370
50
100
AcDbLine
 10
44.0
 20
209.5
 30
0.0
 11
128.0
 21
209.5
 31
0.0
  0
TEXT
  5
2BC
330
285
100
AcDbEntity
 67
1
  8
A-TEXT
100
AcDbText
 10
48.0
 20
206.25
 30
0.0
 40
2.2
  1

  7
PLAN-REGULAR
 72
1
 11
48.0
 21
206.25
 31
0.0
100
AcDbText
 73
2
  0
TEXT
  5
2BD
330
285
100
AcDbEntity
 67
1
  8
A-TEXT
100
AcDbText
 10
53.5
 20
206.25
 30
0.0
 40
2.2
  1
Итого
  7
PLAN-BOLD
 11
53.5
 21
206.25
 31
0.0
100
AcDbText
 73
2
  0
TEXT
  5
2BE
330
285
100
AcDbEntity
 67
1
  8
A-TEXT
100
AcDbText
 10
75.5
 20
206.25
 30
0.0
 40
2.2
  1
Total
  7
PLAN-BOLD
 11
75.5
 21
206.25
 31
0.0
100
AcDbText
 73
2
  0
TEXT
  5
2BF
330
285
100
AcDbEntity
 67
1
  8
A-TEXT
100
AcDbText
 10
126.0
 20
206.25
 30
0.0
 40
2.2
  1
92.2
  7
PLAN-BOLD
 72
2
 11
126.0
 21
206.25
 31
0.0
100
AcDbText
 73
2
  0
LINE
  5
2C0
330
285
100
AcDbEntity
 67
1
  8
A-SHEET
370
50
100
AcDbLine
 10
44.0
 20
203.0
 30
0.0
 11
128.0
 21
203.0
 31
0.0
  0
LINE
  5
2C1
330
285
100
AcDbEntity
 67
1
  8
A-SHEET
370
50
100
AcDbLine
 10
44.0
 20
268.0
 30
0.0
 11
44.0
 21
203.0
 31
0.0
  0
LINE
  5
2C2
330
285
100
AcDbEntity
 67
1
  8
A-SHEET
370
18
100
AcDbLine
 10
52.0
 20
268.0
 30
0.0
 11
52.0
 21
203.0
 31
0.0
  0
LINE
  5
2C3
330
285
100
AcDbEntity
 67
1
  8
A-SHEET
370
18
100
AcDbLine
 10
74.0
 20
268.0
 30
0.0
 11
74.0
 21
203.0
 31
0.0
  0
LINE
  5
2C4
330
285
100
AcDbEntity
 67
1
  8
A-SHEET
370
18
100
AcDbLine
 10
108.0
 20
268.0
 30
0.0
 11
108.0
 21
203.0
 31
0.0
  0
LINE
  5
2C5
330
285
100
AcDbEntity
 67
1
  8
A-SHEET
370
50
100
AcDbLine
 10
128.0
 20
268.0
 30
0.0
 11
128.0
 21
203.0
 31
0.0
  0
TEXT
  5
2C6
330
285
100
AcDbEntity
 67
1
  8
A-TEXT
100
AcDbText
 10
44.0
 20
193.0
 30
0.0
 40
2.0
  1
ПРИМЕЧАНИЯ / NOTES
  7
PLAN-BOLD
 11
44.0
 21
193.0
 31
0.0
100
AcDbText
 73
2
  0
TEXT
  5
2C7
330
285
100
AcDbEntity
 67
1
  8
A-TEXT
100
AcDbText
 10
44.0
 20
188.4
 30
0.0
 40
2.0
  1
1. Размеры в мм. Масштаб 1:50 при печати A3 100%.
  7
PLAN-REGULAR
 11
44.0
 21
188.4
 31
0.0
100
AcDbText
 73
2
  0
TEXT
  5
2C8
330
285
100
AcDbEntity
 67
1
  8
A-TEXT
100
AcDbText
 10
44.0
 20
183.8
 30
0.0
 40
2.0
  1
   Dimensions in mm. 1:50 when printed on A3 at 100 %.
  7
PLAN-ITALIC
 11
44.0
 21
183.8
 31
0.0
100
AcDbText
 73
2
  0
TEXT
  5
2C9
330
285
100
AcDbEntity
 67
1
  8
A-TEXT
100
AcDbText
 10
44.0
 20
179.2
 30
0.0
 40
2.0
  1
2. Размеры помещений и площади - по исходному плану.
  7
PLAN-REGULAR
 11
44.0
 21
179.2
 31
0.0
100
AcDbText
 73
2
  0
TEXT
  5
2CA
330
285
100
AcDbEntity
 67
1
  8
A-TEXT
100
AcDbText
 10
44.0
 20
174.6
 30
0.0
 40
2.0
  1
   Room dimensions and areas as given on the source plan.
  7
PLAN-ITALIC
 11
44.0
 21
174.6
 31
0.0
100
AcDbText
 73
2
  0
TEXT
  5
2CB
330
285
100
AcDbEntity
 67
1
  8
A-TEXT
100
AcDbText
 10
44.0
 20
170.0
 30
0.0
 40
2.0
  1
3. Толщина стен 200 мм, колонны, проёмы и мебель
  7
PLAN-REGULAR
 11
44.0
 21
170.0
 31
0.0
100
AcDbText
 73
2
  0
TEXT
  5
2CC
330
285
100
AcDbEntity
 67
1
  8
A-TEXT
100
AcDbText
 10
44.0
 20
165.4
 30
0.0
 40
2.0
  1
   сняты с исходного изображения - уточнить на месте.
  7
PLAN-REGULAR
 11
44.0
 21
165.4
 31
0.0
100
AcDbText
 73
2
  0
TEXT
  5
2CD
330
285
100
AcDbEntity
 67
1
  8
A-TEXT
100
AcDbText
 10
44.0
 20
160.8
 30
0.0
 40
2.0
  1
   Walls (200 mm), columns, openings and furniture scaled
  7
PLAN-ITALIC
 11
44.0
 21
160.8
 31
0.0
100
AcDbText
 73
2
  0
TEXT
  5
2CE
330
285
100
AcDbEntity
 67
1
  8
A-TEXT
100
AcDbText
 10
44.0
 20
156.2
 30
0.0
 40
2.0
  1
   from the source image - verify on site.
  7
PLAN-ITALIC
 11
44.0
 21
156.2
 31
0.0
100
AcDbText
 73
2
  0
TEXT
  5
2CF
330
285
100
AcDbEntity
 67
1
  8
A-TEXT
100
AcDbText
 10
44.0
 20
145.60000000000002
 30
0.0
 40
2.2
  1
УСЛОВНЫЕ ОБОЗНАЧЕНИЯ / LEGEND
  7
PLAN-BOLD
 11
44.0
 21
145.60000000000002
 31
0.0
100
AcDbText
 73
2
  0
LWPOLYLINE
  5
2D0
330
285
100
AcDbEntity
 67
1
  8
A-WALL
370
35
100
AcDbPolyline
 90
4
 70
1
 10
44.0
 20
141.40000000000003
 10
54.0
 20
141.40000000000003
 10
54.0
 20
137.8
 10
44.0
 20
137.8
  0
HATCH
  5
2D1
330
285
100
AcDbEntity
 67
1
  8
A-WALL
 62
7
420
10066329
100
AcDbHatch
 10
0.0
 20
0.0
 30
0.0
210
0.0
220
0.0
230
1.0
  2
SOLID
 70
1
 71
0
 91
1
 92
3
 72
0
 73
1
 93
4
 10
44.0
 20
141.40000000000003
 10
54.0
 20
141.40000000000003
 10
54.0
 20
137.8
 10
44.0
 20
137.8
 97
0
 75
1
 76
1
 98
0
  0
TEXT
  5
2D2
330
285
100
AcDbEntity
 67
1
  8
A-TEXT
100
AcDbText
 10
57.0
 20
139.60000000000002
 30
0.0
 40
2.0
  1
Стена / Wall
  7
PLAN-REGULAR
 11
57.0
 21
139.60000000000002
 31
0.0
100
AcDbText
 73
2
  0
LWPOLYLINE
  5
2D3
330
285
100
AcDbEntity
 67
1
  8
A-COLS
370
35
100
AcDbPolyline
 90
4
 70
1
 10
44.0
 20
135.40000000000003
 10
54.0
 20
135.40000000000003
 10
54.0
 20
131.8
 10
44.0
 20
131.8
  0
HATCH
  5
2D4
330
285
100
AcDbEntity
 67
1
  8
A-COLS
 62
7
420
0
100
AcDbHatch
 10
0.0
 20
0.0
 30
0.0
210
0.0
220
0.0
230
1.0
  2
SOLID
 70
1
 71
0
 91
1
 92
3
 72
0
 73
1
 93
4
 10
44.0
 20
135.40000000000003
 10
54.0
 20
135.40000000000003
 10
54.0
 20
131.8
 10
44.0
 20
131.8
 97
0
 75
1
 76
1
 98
0
  0
TEXT
  5
2D5
330
285
100
AcDbEntity
 67
1
  8
A-TEXT
100
AcDbText
 10
57.0
 20
133.60000000000002
 30
0.0
 40
2.0
  1
Колонна / Column
  7
PLAN-REGULAR
 11
57.0
 21
133.60000000000002
 31
0.0
100
AcDbText
 73
2
  0
LINE
  5
2D6
330
285
100
AcDbEntity
 67
1
  8
A-GLAZ-FRAME
100
AcDbLine
 10
44.0
 20
129.40000000000003
 30
0.0
 11
54.0
 21
129.40000000000003
 31
0.0
  0
LINE
  5
2D7
330
285
100
AcDbEntity
 67
1
  8
A-GLAZ-FRAME
100
AcDbLine
 10
44.0
 20
125.80000000000001
 30
0.0
 11
54.0
 21
125.80000000000001
 31
0.0
  0
LINE
  5
2D8
330
285
100
AcDbEntity
 67
1
  8
A-GLAZ
100
AcDbLine
 10
44.0
 20
128.0
 30
0.0
 11
54.0
 21
128.0
 31
0.0
  0
LINE
  5
2D9
330
285
100
AcDbEntity
 67
1
  8
A-GLAZ
100
AcDbLine
 10
44.0
 20
127.20000000000005
 30
0.0
 11
54.0
 21
127.20000000000005
 31
0.0
  0
TEXT
  5
2DA
330
285
100
AcDbEntity
 67
1
  8
A-TEXT
100
AcDbText
 10
57.0
 20
127.60000000000002
 30
0.0
 40
2.0
  1
Остекление / Glazing
  7
PLAN-REGULAR
 11
57.0
 21
127.60000000000002
 31
0.0
100
AcDbText
 73
2
  0
LWPOLYLINE
  5
2DB
330
285
100
AcDbEntity
 67
1
  8
A-SHAFT
100
AcDbPolyline
 90
4
 70
1
 10
44.0
 20
123.40000000000003
 10
54.0
 20
123.40000000000003
 10
54.0
 20
119.80000000000001
 10
44.0
 20
119.80000000000001
  0
LINE
  5
2DC
330
285
100
AcDbEntity
 67
1
  8
A-SHAFT
100
AcDbLine
 10
44.0
 20
123.40000000000003
 30
0.0
 11
54.0
 21
119.80000000000001
 31
0.0
  0
LINE
  5
2DD
330
285
100
AcDbEntity
 67
1
  8
A-SHAFT
100
AcDbLine
 10
44.0
 20
119.80000000000001
 30
0.0
 11
54.0
 21
123.40000000000003
 31
0.0
  0
TEXT
  5
2DE
330
285
100
AcDbEntity
 67
1
  8
A-TEXT
100
AcDbText
 10
57.0
 20
121.60000000000002
 30
0.0
 40
2.0
  1
Вентшахта / Vent shaft
  7
PLAN-REGULAR
 11
57.0
 21
121.60000000000002
 31
0.0
100
AcDbText
 73
2
  0
TEXT
  5
2DF
330
285
100
AcDbEntity
 67
1
  8
A-TEXT
100
AcDbText
 10
41.0
 20
88.5
 30
0.0
 40
2.0
  1
Масштабная линейка / Scale bar 1:50 (м / m)
  7
PLAN-REGULAR
 11
41.0
 21
88.5
 31
0.0
100
AcDbText
 73
2
  0
LWPOLYLINE
  5
2E0
330
285
100
AcDbEntity
 67
1
  8
A-SHEET
370
25
100
AcDbPolyline
 90
4
 70
1
 10
41.0
 20
85.0
 10
61.0
 20
85.0
 10
61.0
 20
83.39999999999998
 10
41.0
 20
83.39999999999998
  0
HATCH
  5
2E1
330
285
100
AcDbEntity
 67
1
  8
A-SHEET
 62
7
420
0
100
AcDbHatch
 10
0.0
 20
0.0
 30
0.0
210
0.0
220
0.0
230
1.0
  2
SOLID
 70
1
 71
0
 91
1
 92
3
 72
0
 73
1
 93
4
 10
41.0
 20
85.0
 10
61.0
 20
85.0
 10
61.0
 20
83.39999999999998
 10
41.0
 20
83.39999999999998
 97
0
 75
1
 76
1
 98
0
  0
LWPOLYLINE
  5
2E2
330
285
100
AcDbEntity
 67
1
  8
A-SHEET
370
25
100
AcDbPolyline
 90
4
 70
1
 10
61.0
 20
85.0
 10
81.0
 20
85.0
 10
81.0
 20
83.39999999999998
 10
61.0
 20
83.39999999999998
  0
LWPOLYLINE
  5
2E3
330
285
100
AcDbEntity
 67
1
  8
A-SHEET
370
25
100
AcDbPolyline
 90
4
 70
1
 10
81.0
 20
85.0
 10
101.0
 20
85.0
 10
101.0
 20
83.39999999999998
 10
81.0
 20
83.39999999999998
  0
HATCH
  5
2E4
330
285
100
AcDbEntity
 67
1
  8
A-SHEET
 62
7
420
0
100
AcDbHatch
 10
0.0
 20
0.0
 30
0.0
210
0.0
220
0.0
230
1.0
  2
SOLID
 70
1
 71
0
 91
1
 92
3
 72
0
 73
1
 93
4
 10
81.0
 20
85.0
 10
101.0
 20
85.0
 10
101.0
 20
83.39999999999998
 10
81.0
 20
83.39999999999998
 97
0
 75
1
 76
1
 98
0
  0
LWPOLYLINE
  5
2E5
330
285
100
AcDbEntity
 67
1
  8
A-SHEET
370
25
100
AcDbPolyline
 90
4
 70
1
 10
101.0
 20
85.0
 10
121.0
 20
85.0
 10
121.0
 20
83.39999999999998
 10
101.0
 20
83.39999999999998
  0
LWPOLYLINE
  5
2E6
330
285
100
AcDbEntity
 67
1
  8
A-SHEET
370
25
100
AcDbPolyline
 90
4
 70
1
 10
121.0
 20
85.0
 10
141.0
 20
85.0
 10
141.0
 20
83.39999999999998
 10
121.0
 20
83.39999999999998
  0
HATCH
  5
2E7
330
285
100
AcDbEntity
 67
1
  8
A-SHEET
 62
7
420
0
100
AcDbHatch
 10
0.0
 20
0.0
 30
0.0
210
0.0
220
0.0
230
1.0
  2
SOLID
 70
1
 71
0
 91
1
 92
3
 72
0
 73
1
 93
4
 10
121.0
 20
85.0
 10
141.0
 20
85.0
 10
141.0
 20
83.39999999999998
 10
121.0
 20
83.39999999999998
 97
0
 75
1
 76
1
 98
0
  0
TEXT
  5
2E8
330
285
100
AcDbEntity
 67
1
  8
A-TEXT
100
AcDbText
 10
41.0
 20
80.5
 30
0.0
 40
2.0
  1
0
  7
PLAN-REGULAR
 72
1
 11
41.0
 21
80.5
 31
0.0
100
AcDbText
 73
2
  0
TEXT
  5
2E9
330
285
100
AcDbEntity
 67
1
  8
A-TEXT
100
AcDbText
 10
61.0
 20
80.5
 30
0.0
 40
2.0
  1
1
  7
PLAN-REGULAR
 72
1
 11
61.0
 21
80.5
 31
0.0
100
AcDbText
 73
2
  0
TEXT
  5
2EA
330
285
100
AcDbEntity
 67
1
  8
A-TEXT
100
AcDbText
 10
81.0
 20
80.5
 30
0.0
 40
2.0
  1
2
  7
PLAN-REGULAR
 72
1
 11
81.0
 21
80.5
 31
0.0
100
AcDbText
 73
2
  0
TEXT
  5
2EB
330
285
100
AcDbEntity
 67
1
  8
A-TEXT
100
AcDbText
 10
101.0
 20
80.5
 30
0.0
 40
2.0
  1
3
  7
PLAN-REGULAR
 72
1
 11
101.0
 21
80.5
 31
0.0
100
AcDbText
 73
2
  0
TEXT
  5
2EC
330
285
100
AcDbEntity
 67
1
  8
A-TEXT
100
AcDbText
 10
121.0
 20
80.5
 30
0.0
 40
2.0
  1
4
  7
PLAN-REGULAR
 72
1
 11
121.0
 21
80.5
 31
0.0
100
AcDbText
 73
2
  0
TEXT
  5
2ED
330
285
100
AcDbEntity
 67
1
  8
A-TEXT
100
AcDbText
 10
141.0
 20
80.5
 30
0.0
 40
2.0
  1
5
  7
PLAN-REGULAR
 72
1
 11
141.0
 21
80.5
 31
0.0
100
AcDbText
 73
2
  0
LWPOLYLINE
  5
2EE
330
285
100
AcDbEntity
 67
1
  8
A-SHEET
370
70
100
AcDbPolyline
 90
4
 70
1
 10
107.0
 20
45.0
 10
292.0
 20
45.0
 10
292.0
 20
5.0
 10
107.0
 20
5.0
  0
LINE
  5
2EF
330
285
100
AcDbEntity
 67
1
  8
A-SHEET
370
50
100
AcDbLine
 10
107.0
 20
31.0
 30
0.0
 11
292.0
 21
31.0
 31
0.0
  0
LINE
  5
2F0
330
285
100
AcDbEntity
 67
1
  8
A-SHEET
370
50
100
AcDbLine
 10
107.0
 20
18.0
 30
0.0
 11
292.0
 21
18.0
 31
0.0
  0
LINE
  5
2F1
330
285
100
AcDbEntity
 67
1
  8
A-SHEET
370
50
100
AcDbLine
 10
227.0
 20
31.0
 30
0.0
 11
227.0
 21
5.0
 31
0.0
  0
LINE
  5
2F2
330
285
100
AcDbEntity
 67
1
  8
A-SHEET
370
50
100
AcDbLine
 10
257.0
 20
31.0
 30
0.0
 11
257.0
 21
5.0
 31
0.0
  0
TEXT
  5
2F3
330
285
100
AcDbEntity
 67
1
  8
A-TEXT
100
AcDbText
 10
111.0
 20
40.0
 30
0.0
 40
3.2
  1
План квартиры (перечерчен по исходному плану)
  7
PLAN-BOLD
 11
111.0
 21
40.0
 31
0.0
100
AcDbText
 73
2
  0
TEXT
  5
2F4
330
285
100
AcDbEntity
 67
1
  8
A-TEXT
100
AcDbText
 10
111.0
 20
35.0
 30
0.0
 40
2.4
  1
Apartment floor plan - redrawn to scale from the source plan
  7
PLAN-ITALIC
 11
111.0
 21
35.0
 31
0.0
100
AcDbText
 73
2
  0
TEXT
  5
2F5
330
285
100
AcDbEntity
 67
1
  8
A-TEXT
100
AcDbText
 10
111.0
 20
26.5
 30
0.0
 40
2.2
  1
Общая площадь / Total area:
  7
PLAN-REGULAR
 11
111.0
 21
26.5
 31
0.0
100
AcDbText
 73
2
  0
TEXT
  5
2F6
330
285
100
AcDbEntity
 67
1
  8
A-TEXT
100
AcDbText
 10
111.0
 20
22.0
 30
0.0
 40
2.2
  1
92.2 м² (в т.ч. лоджия / incl. loggia 5.3 м²)
  7
PLAN-BOLD
 11
111.0
 21
22.0
 31
0.0
100
AcDbText
 73
2
  0
TEXT
  5
2F7
330
285
100
AcDbEntity
 67
1
  8
A-TEXT
100
AcDbText
 10
242.0
 20
27.5
 30
0.0
 40
1.8
  1
Масштаб / Scale
  7
PLAN-REGULAR
 72
1
 11
242.0
 21
27.5
 31
0.0
100
AcDbText
 73
2
  0
TEXT
  5
2F8
330
285
100
AcDbEntity
 67
1
  8
A-TEXT
100
AcDbText
 10
242.0
 20
22.0
 30
0.0
 40
3.5
  1
1:50
  7
PLAN-BOLD
 72
1
 11
242.0
 21
22.0
 31
0.0
100
AcDbText
 73
2
  0
TEXT
  5
2F9
330
285
100
AcDbEntity
 67
1
  8
A-TEXT
100
AcDbText
 10
274.5
 20
27.5
 30
0.0
 40
1.8
  1
Формат / Size
  7
PLAN-REGULAR
 72
1
 11
274.5
 21
27.5
 31
0.0
100
AcDbText
 73
2
  0
TEXT
  5
2FA
330
285
100
AcDbEntity
 67
1
  8
A-TEXT
100
AcDbText
 10
274.5
 20
22.0
 30
0.0
 40
3.5
  1
A3
  7
PLAN-BOLD
 72
1
 11
274.5
 21
22.0
 31
0.0
100
AcDbText
 73
2
  0
TEXT
  5
2FB
330
285
100
AcDbEntity
 67
1
  8
A-TEXT
100
AcDbText
 10
111.0
 20
13.5
 30
0.0
 40
2.2
  1
Размеры в мм / Dimensions in mm
  7
PLAN-REGULAR
 11
111.0
 21
13.5
 31
0.0
100
AcDbText
 73
2
  0
TEXT
  5
2FC
330
285
100
AcDbEntity
 67
1
  8
A-TEXT
100
AcDbText
 10
111.0
 20
9.0
 30
0.0
 40
1.8
  1
Исходник / Source: floor-plan/source/original-plan.jpg
  7
PLAN-REGULAR
 11
111.0
 21
9.0
 31
0.0
100
AcDbText
 73
2
  0
TEXT
  5
2FD
330
285
100
AcDbEntity
 67
1
  8
A-TEXT
100
AcDbText
 10
242.0
 20
14.5
 30
0.0
 40
1.8
  1
Лист / Sheet
  7
PLAN-REGULAR
 72
1
 11
242.0
 21
14.5
 31
0.0
100
AcDbText
 73
2
  0
TEXT
  5
2FE
330
285
100
AcDbEntity
 67
1
  8
A-TEXT
100
AcDbText
 10
242.0
 20
9.5
 30
0.0
 40
3.0
  1
1
  7
PLAN-BOLD
 72
1
 11
242.0
 21
9.5
 31
0.0
100
AcDbText
 73
2
  0
TEXT
  5
2FF
330
285
100
AcDbEntity
 67
1
  8
A-TEXT
100
AcDbText
 10
274.5
 20
14.5
 30
0.0
 40
1.8
  1
Дата / Date
  7
PLAN-REGULAR
 72
1
 11
274.5
 21
14.5
 31
0.0
100
AcDbText
 73
2
  0
TEXT
  5
300
330
285
100
AcDbEntity
 67
1
  8
A-TEXT
100
AcDbText
 10
274.5
 20
9.5
 30
0.0
 40
2.4
  1
27.09.2026
  7
PLAN-REGULAR
 72
1
 11
274.5
 21
9.5
 31
0.0
100
AcDbText
 73
2
  0
VIEWPORT
  5
301
330
285
100
AcDbEntity
 67
1
  8
A-VPORT
100
AcDbViewport
 10
156.0
 20
236.5
 30
0.0
 40
232.0
 41
289.0
 68
2
 69
3
 12
5750.0
 22
7175.0
 13
0.0
 23
0.0
 14
10.0
 24
10.0
 15
10.0
 25
10.0
 16
0.0
 26
0.0
 36
1.0
 17
0.0
 27
0.0
 37
0.0
 42
50.0
 43
0.0
 44
0.0
 45
14450.0
 50
0.0
 51
0.0
 72
100
 90
16384
  1

281
0
 71
0
 74
0
110
0.0
120
0.0
130
0.0
111
1.0
121
0.0
131
0.0
112
0.0
122
1.0
132
0.0
 79
0
146
0.0
282
0
  0
ENDBLK
  5
287
330
285
100
AcDbEntity
  8
0
100
AcDbBlockEnd
  0
ENDSEC
  0
SECTION
  2
ENTITIES
  0
HATCH
  5
9B
330
17
100
AcDbEntity
  8
A-WALL-FILL
 62
7
420
10066329
100
AcDbHatch
 10
0.0
 20
0.0
 30
0.0
210
0.0
220
0.0
230
1.0
  2
SOLID
 70
1
 71
0
 91
1
 92
3
 72
0
 73
1
 93
8
 10
1000.0
 20
13850.0
 10
1200.0
 20
13850.0
 10
1200.0
 20
14150.0
 10
4800.0
 20
14150.0
 10
4800.0
 20
14350.0
 10
1200.0
 20
14350.0
 10
1000.0
 20
14350.0
 10
1000.0
 20
14150.0
 97
0
 75
1
 76
1
 98
0
  0
LWPOLYLINE
  5
9C
330
17
100
AcDbEntity
  8
A-WALL
100
AcDbPolyline
 90
8
 70
1
 10
1000.0
 20
13850.0
 10
1200.0
 20
13850.0
 10
1200.0
 20
14150.0
 10
4800.0
 20
14150.0
 10
4800.0
 20
14350.0
 10
1200.0
 20
14350.0
 10
1000.0
 20
14350.0
 10
1000.0
 20
14150.0
  0
HATCH
  5
9D
330
17
100
AcDbEntity
  8
A-WALL-FILL
 62
7
420
10066329
100
AcDbHatch
 10
0.0
 20
0.0
 30
0.0
210
0.0
220
0.0
230
1.0
  2
SOLID
 70
1
 71
0
 91
1
 92
3
 72
0
 73
1
 93
8
 10
6180.0
 20
14150.0
 10
6180.0
 20
13500.0
 10
6380.0
 20
13500.0
 10
6380.0
 20
14150.0
 10
10850.0
 20
14150.0
 10
10850.0
 20
14350.0
 10
5350.0
 20
14350.0
 10
5350.0
 20
14150.0
 97
0
 75
1
 76
1
 98
0
  0
LWPOLYLINE
  5
9E
330
17
100
AcDbEntity
  8
A-WALL
100
AcDbPolyline
 90
8
 70
1
 10
6180.0
 20
14150.0
 10
6180.0
 20
13500.0
 10
6380.0
 20
13500.0
 10
6380.0
 20
14150.0
 10
10850.0
 20
14150.0
 10
10850.0
 20
14350.0
 10
5350.0
 20
14350.0
 10
5350.0
 20
14150.0
  0
HATCH
  5
9F
330
17
100
AcDbEntity
  8
A-WALL-FILL
 62
7
420
10066329
100
AcDbHatch
 10
0.0
 20
0.0
 30
0.0
210
0.0
220
0.0
230
1.0
  2
SOLID
 70
1
 71
0
 91
1
 92
3
 72
0
 73
1
 93
35
 10
1000.0
 20
11950.0
 10
1200.0
 20
11950.0
 10
2800.0
 20
11950.0
 10
2800.0
 20
10450.0
 10
3000.0
 20
10450.0
 10
3115.0
 20
10450.0
 10
3115.0
 20
9500.0
 10
2800.0
 20
9500.0
 10
2800.0
 20
9300.0
 10
4900.0
 20
9300.0
 10
4900.0
 20
8350.0
 10
5100.0
 20
8350.0
 10
5100.0
 20
9300.0
 10
5100.0
 20
9500.0
 10
5100.0
 20
10150.0
 10
4900.0
 20
10150.0
 10
4900.0
 20
9500.0
 10
3235.0
 20
9500.0
 10
3235.0
 20
10450.0
 10
3235.0
 20
10550.0
 10
3115.0
 20
10550.0
 10
3000.0
 20
10550.0
 10
3000.0
 20
11950.0
 10
4017.157287525381
 20
11950.0
 10
4900.0
 20
11067.15728752538
 10
4900.0
 20
10850.0
 10
5100.0
 20
10850.0
 10
5100.0
 20
10867.15728752538
 10
5100.0
 20
11150.0
 10
4100.0
 20
12150.0
 10
3817.157287525381
 20
12150.0
 10
1200.0
 20
12150.0
 10
1200.0
 20
12850.0
 10
1000.0
 20
12850.0
 10
1000.0
 20
12150.0
 97
0
 75
1
 76
1
 98
0
  0
LWPOLYLINE
  5
A0
330
17
100
AcDbEntity
  8
A-WALL
100
AcDbPolyline
 90
35
 70
1
 10
1000.0
 20
11950.0
 10
1200.0
 20
11950.0
 10
2800.0
 20
11950.0
 10
2800.0
 20
10450.0
 10
3000.0
 20
10450.0
 10
3115.0
 20
10450.0
 10
3115.0
 20
9500.0
 10
2800.0
 20
9500.0
 10
2800.0
 20
9300.0
 10
4900.0
 20
9300.0
 10
4900.0
 20
8350.0
 10
5100.0
 20
8350.0
 10
5100.0
 20
9300.0
 10
5100.0
 20
9500.0
 10
5100.0
 20
10150.0
 10
4900.0
 20
10150.0
 10
4900.0
 20
9500.0
 10
3235.0
 20
9500.0
 10
3235.0
 20
10450.0
 10
3235.0
 20
10550.0
 10
3115.0
 20
10550.0
 10
3000.0
 20
10550.0
 10
3000.0
 20
11950.0
 10
4017.157287525381
 20
11950.0
 10
4900.0
 20
11067.15728752538
 10
4900.0
 20
10850.0
 10
5100.0
 20
10850.0
 10
5100.0
 20
10867.15728752538
 10
5100.0
 20
11150.0
 10
4100.0
 20
12150.0
 10
3817.157287525381
 20
12150.0
 10
1200.0
 20
12150.0
 10
1200.0
 20
12850.0
 10
1000.0
 20
12850.0
 10
1000.0
 20
12150.0
  0
HATCH
  5
A1
330
17
100
AcDbEntity
  8
A-WALL-FILL
 62
7
420
10066329
100
AcDbHatch
 10
0.0
 20
0.0
 30
0.0
210
0.0
220
0.0
230
1.0
  2
SOLID
 70
1
 71
0
 91
1
 92
3
 72
0
 73
1
 93
8
 10
4900.0
 20
2300.0
 10
5100.0
 20
2300.0
 10
5100.0
 20
6450.0
 10
5400.0
 20
6450.0
 10
5400.0
 20
6650.0
 10
5100.0
 20
6650.0
 10
5100.0
 20
7800.0
 10
4900.0
 20
7800.0
 97
0
 75
1
 76
1
 98
0
  0
LWPOLYLINE
  5
A2
330
17
100
AcDbEntity
  8
A-WALL
100
AcDbPolyline
 90
8
 70
1
 10
4900.0
 20
2300.0
 10
5100.0
 20
2300.0
 10
5100.0
 20
6450.0
 10
5400.0
 20
6450.0
 10
5400.0
 20
6650.0
 10
5100.0
 20
6650.0
 10
5100.0
 20
7800.0
 10
4900.0
 20
7800.0
  0
HATCH
  5
A3
330
17
100
AcDbEntity
  8
A-WALL-FILL
 62
7
420
10066329
100
AcDbHatch
 10
0.0
 20
0.0
 30
0.0
210
0.0
220
0.0
230
1.0
  2
SOLID
 70
1
 71
0
 91
1
 92
3
 72
0
 73
1
 93
16
 10
8000.0
 20
300.0
 10
8200.0
 20
300.0
 10
8200.0
 20
1800.0
 10
9400.0
 20
1800.0
 10
9400.0
 20
2000.0
 10
8200.0
 20
2000.0
 10
8200.0
 20
6450.0
 10
8200.0
 20
6650.0
 10
8000.0
 20
6650.0
 10
7150.0
 20
6650.0
 10
7150.0
 20
6800.0
 10
6950.0
 20
6800.0
 10
6950.0
 20
6650.0
 10
6300.0
 20
6650.0
 10
6300.0
 20
6450.0
 10
8000.0
 20
6450.0
 97
0
 75
1
 76
1
 98
0
  0
LWPOLYLINE
  5
A4
330
17
100
AcDbEntity
  8
A-WALL
100
AcDbPolyline
 90
16
 70
1
 10
8000.0
 20
300.0
 10
8200.0
 20
300.0
 10
8200.0
 20
1800.0
 10
9400.0
 20
1800.0
 10
9400.0
 20
2000.0
 10
8200.0
 20
2000.0
 10
8200.0
 20
6450.0
 10
8200.0
 20
6650.0
 10
8000.0
 20
6650.0
 10
7150.0
 20
6650.0
 10
7150.0
 20
6800.0
 10
6950.0
 20
6800.0
 10
6950.0
 20
6650.0
 10
6300.0
 20
6650.0
 10
6300.0
 20
6450.0
 10
8000.0
 20
6450.0
  0
HATCH
  5
A5
330
17
100
AcDbEntity
  8
A-WALL-FILL
 62
7
420
10066329
100
AcDbHatch
 10
0.0
 20
0.0
 30
0.0
210
0.0
220
0.0
230
1.0
  2
SOLID
 70
1
 71
0
 91
1
 92
3
 72
0
 73
1
 93
22
 10
6180.0
 20
11770.0
 10
6950.0
 20
11000.0
 10
6950.0
 20
10950.0
 10
6950.0
 20
10225.0
 10
7150.0
 20
10225.0
 10
7150.0
 20
10950.0
 10
10600.0
 20
10950.0
 10
10600.0
 20
9900.0
 10
10800.0
 20
9900.0
 10
10800.0
 20
11250.0
 10
11350.0
 20
11250.0
 10
11350.0
 20
11450.0
 10
10800.0
 20
11450.0
 10
10600.0
 20
11450.0
 10
10600.0
 20
11250.0
 10
10600.0
 20
11150.0
 10
7150.0
 20
11150.0
 10
7082.8427124746195
 20
11150.0
 10
6380.0
 20
11852.84271247462
 10
6380.0
 20
12300.0
 10
6180.0
 20
12300.0
 10
6180.0
 20
12052.84271247462
 97
0
 75
1
 76
1
 98
0
  0
LWPOLYLINE
  5
A6
330
17
100
AcDbEntity
  8
A-WALL
100
AcDbPolyline
 90
22
 70
1
 10
6180.0
 20
11770.0
 10
6950.0
 20
11000.0
 10
6950.0
 20
10950.0
 10
6950.0
 20
10225.0
 10
7150.0
 20
10225.0
 10
7150.0
 20
10950.0
 10
10600.0
 20
10950.0
 10
10600.0
 20
9900.0
 10
10800.0
 20
9900.0
 10
10800.0
 20
11250.0
 10
11350.0
 20
11250.0
 10
11350.0
 20
11450.0
 10
10800.0
 20
11450.0
 10
10600.0
 20
11450.0
 10
10600.0
 20
11250.0
 10
10600.0
 20
11150.0
 10
7150.0
 20
11150.0
 10
7082.8427124746195
 20
11150.0
 10
6380.0
 20
11852.84271247462
 10
6380.0
 20
12300.0
 10
6180.0
 20
12300.0
 10
6180.0
 20
12052.84271247462
  0
HATCH
  5
A7
330
17
100
AcDbEntity
  8
A-WALL-FILL
 62
7
420
10066329
100
AcDbHatch
 10
0.0
 20
0.0
 30
0.0
210
0.0
220
0.0
230
1.0
  2
SOLID
 70
1
 71
0
 91
1
 92
3
 72
0
 73
1
 93
10
 10
6950.0
 20
7850.0
 10
6950.0
 20
7700.0
 10
7150.0
 20
7700.0
 10
7150.0
 20
7850.0
 10
10850.0
 20
7850.0
 10
10850.0
 20
8050.0
 10
7150.0
 20
8050.0
 10
7150.0
 20
9325.0
 10
6950.0
 20
9325.0
 10
6950.0
 20
8050.0
 97
0
 75
1
 76
1
 98
0
  0
LWPOLYLINE
  5
A8
330
17
100
AcDbEntity
  8
A-WALL
100
AcDbPolyline
 90
10
 70
1
 10
6950.0
 20
7850.0
 10
6950.0
 20
7700.0
 10
7150.0
 20
7700.0
 10
7150.0
 20
7850.0
 10
10850.0
 20
7850.0
 10
10850.0
 20
8050.0
 10
7150.0
 20
8050.0
 10
7150.0
 20
9325.0
 10
6950.0
 20
9325.0
 10
6950.0
 20
8050.0
  0
HATCH
  5
A9
330
17
100
AcDbEntity
  8
A-COLS
 62
7
420
0
100
AcDbHatch
 10
0.0
 20
0.0
 30
0.0
210
0.0
220
0.0
230
1.0
  2
SOLID
 70
1
 71
0
 91
1
 92
3
 72
0
 73
1
 93
4
 10
5350.0
 20
13900.0
 10
5350.0
 20
14350.0
 10
4800.0
 20
14350.0
 10
4800.0
 20
13900.0
 97
0
 75
1
 76
1
 98
0
  0
LWPOLYLINE
  5
AA
330
17
100
AcDbEntity
  8
A-COLS
100
AcDbPolyline
 90
4
 70
1
 10
5350.0
 20
13900.0
 10
5350.0
 20
14350.0
 10
4800.0
 20
14350.0
 10
4800.0
 20
13900.0
  0
HATCH
  5
AB
330
17
100
AcDbEntity
  8
A-COLS
 62
7
420
0
100
AcDbHatch
 10
0.0
 20
0.0
 30
0.0
210
0.0
220
0.0
230
1.0
  2
SOLID
 70
1
 71
0
 91
1
 92
3
 72
0
 73
1
 93
4
 10
11350.0
 20
13900.0
 10
11350.0
 20
14350.0
 10
10850.0
 20
14350.0
 10
10850.0
 20
13900.0
 97
0
 75
1
 76
1
 98
0
  0
LWPOLYLINE
  5
AC
330
17
100
AcDbEntity
  8
A-COLS
100
AcDbPolyline
 90
4
 70
1
 10
11350.0
 20
13900.0
 10
11350.0
 20
14350.0
 10
10850.0
 20
14350.0
 10
10850.0
 20
13900.0
  0
HATCH
  5
AD
330
17
100
AcDbEntity
  8
A-COLS
 62
7
420
0
100
AcDbHatch
 10
0.0
 20
0.0
 30
0.0
210
0.0
220
0.0
230
1.0
  2
SOLID
 70
1
 71
0
 91
1
 92
3
 72
0
 73
1
 93
4
 10
11350.0
 20
9900.0
 10
11350.0
 20
10450.0
 10
11200.0
 20
10450.0
 10
11200.0
 20
9900.0
 97
0
 75
1
 76
1
 98
0
  0
LWPOLYLINE
  5
AE
330
17
100
AcDbEntity
  8
A-COLS
100
AcDbPolyline
 90
4
 70
1
 10
11350.0
 20
9900.0
 10
11350.0
 20
10450.0
 10
11200.0
 20
10450.0
 10
11200.0
 20
9900.0
  0
HATCH
  5
AF
330
17
100
AcDbEntity
  8
A-COLS
 62
7
420
0
100
AcDbHatch
 10
0.0
 20
0.0
 30
0.0
210
0.0
220
0.0
230
1.0
  2
SOLID
 70
1
 71
0
 91
1
 92
3
 72
0
 73
1
 93
4
 10
5375.0
 20
7800.0
 10
5375.0
 20
8350.0
 10
4900.0
 20
8350.0
 10
4900.0
 20
7800.0
 97
0
 75
1
 76
1
 98
0
  0
LWPOLYLINE
  5
B0
330
17
100
AcDbEntity
  8
A-COLS
100
AcDbPolyline
 90
4
 70
1
 10
5375.0
 20
7800.0
 10
5375.0
 20
8350.0
 10
4900.0
 20
8350.0
 10
4900.0
 20
7800.0
  0
HATCH
  5
B1
330
17
100
AcDbEntity
  8
A-COLS
 62
7
420
0
100
AcDbHatch
 10
0.0
 20
0.0
 30
0.0
210
0.0
220
0.0
230
1.0
  2
SOLID
 70
1
 71
0
 91
1
 92
3
 72
0
 73
1
 93
4
 10
11350.0
 20
7800.0
 10
11350.0
 20
8350.0
 10
10850.0
 20
8350.0
 10
10850.0
 20
7800.0
 97
0
 75
1
 76
1
 98
0
  0
LWPOLYLINE
  5
B2
330
17
100
AcDbEntity
  8
A-COLS
100
AcDbPolyline
 90
4
 70
1
 10
11350.0
 20
7800.0
 10
11350.0
 20
8350.0
 10
10850.0
 20
8350.0
 10
10850.0
 20
7800.0
  0
HATCH
  5
B3
330
17
100
AcDbEntity
  8
A-COLS
 62
7
420
0
100
AcDbHatch
 10
0.0
 20
0.0
 30
0.0
210
0.0
220
0.0
230
1.0
  2
SOLID
 70
1
 71
0
 91
1
 92
3
 72
0
 73
1
 93
4
 10
5375.0
 20
1750.0
 10
5375.0
 20
2300.0
 10
4900.0
 20
2300.0
 10
4900.0
 20
1750.0
 97
0
 75
1
 76
1
 98
0
  0
LWPOLYLINE
  5
B4
330
17
100
AcDbEntity
  8
A-COLS
100
AcDbPolyline
 90
4
 70
1
 10
5375.0
 20
1750.0
 10
5375.0
 20
2300.0
 10
4900.0
 20
2300.0
 10
4900.0
 20
1750.0
  0
HATCH
  5
B5
330
17
100
AcDbEntity
  8
A-COLS
 62
7
420
0
100
AcDbHatch
 10
0.0
 20
0.0
 30
0.0
210
0.0
220
0.0
230
1.0
  2
SOLID
 70
1
 71
0
 91
1
 92
3
 72
0
 73
1
 93
4
 10
11350.0
 20
1750.0
 10
11350.0
 20
2300.0
 10
10850.0
 20
2300.0
 10
10850.0
 20
1750.0
 97
0
 75
1
 76
1
 98
0
  0
LWPOLYLINE
  5
B6
330
17
100
AcDbEntity
  8
A-COLS
100
AcDbPolyline
 90
4
 70
1
 10
11350.0
 20
1750.0
 10
11350.0
 20
2300.0
 10
10850.0
 20
2300.0
 10
10850.0
 20
1750.0
  0
HATCH
  5
B7
330
17
100
AcDbEntity
  8
A-COLS
 62
7
420
0
100
AcDbHatch
 10
0.0
 20
0.0
 30
0.0
210
0.0
220
0.0
230
1.0
  2
SOLID
 70
1
 71
0
 91
1
 92
3
 72
0
 73
1
 93
4
 10
5350.0
 20
400.0
 10
4900.0
 20
400.0
 10
4900.0
 20
150.0
 10
5350.0
 20
150.0
 97
0
 75
1
 76
1
 98
0
  0
LWPOLYLINE
  5
B8
330
17
100
AcDbEntity
  8
A-COLS
100
AcDbPolyline
 90
4
 70
1
 10
5350.0
 20
400.0
 10
4900.0
 20
400.0
 10
4900.0
 20
150.0
 10
5350.0
 20
150.0
  0
HATCH
  5
B9
330
17
100
AcDbEntity
  8
A-COLS
 62
7
420
0
100
AcDbHatch
 10
0.0
 20
0.0
 30
0.0
210
0.0
220
0.0
230
1.0
  2
SOLID
 70
1
 71
0
 91
1
 92
3
 72
0
 73
1
 93
4
 10
8450.0
 20
300.0
 10
7350.0
 20
300.0
 10
7350.0
 20
150.0
 10
8450.0
 20
150.0
 97
0
 75
1
 76
1
 98
0
  0
LWPOLYLINE
  5
BA
330
17
100
AcDbEntity
  8
A-COLS
100
AcDbPolyline
 90
4
 70
1
 10
8450.0
 20
300.0
 10
7350.0
 20
300.0
 10
7350.0
 20
150.0
 10
8450.0
 20
150.0
  0
LINE
  5
BB
330
17
100
AcDbEntity
  8
A-GLAZ-FRAME
100
AcDbLine
 10
11350.0
 20
14350.0
 30
0.0
 11
11350.0
 21
0.0
 31
0.0
  0
LINE
  5
BC
330
17
100
AcDbEntity
  8
A-GLAZ-FRAME
100
AcDbLine
 10
11500.0
 20
14350.0
 30
0.0
 11
11500.0
 21
0.0
 31
0.0
  0
LINE
  5
BD
330
17
100
AcDbEntity
  8
A-GLAZ
100
AcDbLine
 10
11410.0
 20
14350.0
 30
0.0
 11
11410.0
 21
0.0
 31
0.0
  0
LINE
  5
BE
330
17
100
AcDbEntity
  8
A-GLAZ
100
AcDbLine
 10
11440.0
 20
14350.0
 30
0.0
 11
11440.0
 21
0.0
 31
0.0
  0
LINE
  5
BF
330
17
100
AcDbEntity
  8
A-GLAZ-FRAME
100
AcDbLine
 10
4900.0
 20
150.0
 30
0.0
 11
11500.0
 21
150.0
 31
0.0
  0
LINE
  5
C0
330
17
100
AcDbEntity
  8
A-GLAZ-FRAME
100
AcDbLine
 10
4900.0
 20
0.0
 30
0.0
 11
11500.0
 21
0.0
 31
0.0
  0
LINE
  5
C1
330
17
100
AcDbEntity
  8
A-GLAZ
100
AcDbLine
 10
4900.0
 20
90.0
 30
0.0
 11
11500.0
 21
90.0
 31
0.0
  0
LINE
  5
C2
330
17
100
AcDbEntity
  8
A-GLAZ
100
AcDbLine
 10
4900.0
 20
60.0
 30
0.0
 11
11500.0
 21
60.0
 31
0.0
  0
LINE
  5
C3
330
17
100
AcDbEntity
  8
A-GLAZ-FRAME
100
AcDbLine
 10
11350.0
 20
14350.0
 30
0.0
 11
11500.0
 21
14350.0
 31
0.0
  0
LINE
  5
C4
330
17
100
AcDbEntity
  8
A-GLAZ-FRAME
100
AcDbLine
 10
4900.0
 20
150.0
 30
0.0
 11
4900.0
 21
0.0
 31
0.0
  0
LWPOLYLINE
  5
C5
330
17
100
AcDbEntity
  8
A-GLAZ-FRAME
100
AcDbPolyline
 90
4
 70
1
 10
11350.0
 20
13480.0
 10
11500.0
 20
13480.0
 10
11500.0
 20
13420.0
 10
11350.0
 20
13420.0
  0
HATCH
  5
C6
330
17
100
AcDbEntity
  8
A-GLAZ-FRAME
 62
7
420
0
100
AcDbHatch
 10
0.0
 20
0.0
 30
0.0
210
0.0
220
0.0
230
1.0
  2
SOLID
 70
1
 71
0
 91
1
 92
3
 72
0
 73
1
 93
4
 10
11350.0
 20
13480.0
 10
11500.0
 20
13480.0
 10
11500.0
 20
13420.0
 10
11350.0
 20
13420.0
 97
0
 75
1
 76
1
 98
0
  0
LWPOLYLINE
  5
C7
330
17
100
AcDbEntity
  8
A-GLAZ-FRAME
100
AcDbPolyline
 90
4
 70
1
 10
11350.0
 20
12455.0
 10
11500.0
 20
12455.0
 10
11500.0
 20
12395.0
 10
11350.0
 20
12395.0
  0
HATCH
  5
C8
330
17
100
AcDbEntity
  8
A-GLAZ-FRAME
 62
7
420
0
100
AcDbHatch
 10
0.0
 20
0.0
 30
0.0
210
0.0
220
0.0
230
1.0
  2
SOLID
 70
1
 71
0
 91
1
 92
3
 72
0
 73
1
 93
4
 10
11350.0
 20
12455.0
 10
11500.0
 20
12455.0
 10
11500.0
 20
12395.0
 10
11350.0
 20
12395.0
 97
0
 75
1
 76
1
 98
0
  0
LWPOLYLINE
  5
C9
330
17
100
AcDbEntity
  8
A-GLAZ-FRAME
100
AcDbPolyline
 90
4
 70
1
 10
11350.0
 20
11430.0
 10
11500.0
 20
11430.0
 10
11500.0
 20
11370.0
 10
11350.0
 20
11370.0
  0
HATCH
  5
CA
330
17
100
AcDbEntity
  8
A-GLAZ-FRAME
 62
7
420
0
100
AcDbHatch
 10
0.0
 20
0.0
 30
0.0
210
0.0
220
0.0
230
1.0
  2
SOLID
 70
1
 71
0
 91
1
 92
3
 72
0
 73
1
 93
4
 10
11350.0
 20
11430.0
 10
11500.0
 20
11430.0
 10
11500.0
 20
11370.0
 10
11350.0
 20
11370.0
 97
0
 75
1
 76
1
 98
0
  0
LWPOLYLINE
  5
CB
330
17
100
AcDbEntity
  8
A-GLAZ-FRAME
100
AcDbPolyline
 90
4
 70
1
 10
11350.0
 20
10430.0
 10
11500.0
 20
10430.0
 10
11500.0
 20
10370.0
 10
11350.0
 20
10370.0
  0
HATCH
  5
CC
330
17
100
AcDbEntity
  8
A-GLAZ-FRAME
 62
7
420
0
100
AcDbHatch
 10
0.0
 20
0.0
 30
0.0
210
0.0
220
0.0
230
1.0
  2
SOLID
 70
1
 71
0
 91
1
 92
3
 72
0
 73
1
 93
4
 10
11350.0
 20
10430.0
 10
11500.0
 20
10430.0
 10
11500.0
 20
10370.0
 10
11350.0
 20
10370.0
 97
0
 75
1
 76
1
 98
0
  0
LWPOLYLINE
  5
CD
330
17
100
AcDbEntity
  8
A-GLAZ-FRAME
100
AcDbPolyline
 90
4
 70
1
 10
11350.0
 20
9405.0
 10
11500.0
 20
9405.0
 10
11500.0
 20
9345.0
 10
11350.0
 20
9345.0
  0
HATCH
  5
CE
330
17
100
AcDbEntity
  8
A-GLAZ-FRAME
 62
7
420
0
100
AcDbHatch
 10
0.0
 20
0.0
 30
0.0
210
0.0
220
0.0
230
1.0
  2
SOLID
 70
1
 71
0
 91
1
 92
3
 72
0
 73
1
 93
4
 10
11350.0
 20
9405.0
 10
11500.0
 20
9405.0
 10
11500.0
 20
9345.0
 10
11350.0
 20
9345.0
 97
0
 75
1
 76
1
 98
0
  0
LWPOLYLINE
  5
CF
330
17
100
AcDbEntity
  8
A-GLAZ-FRAME
100
AcDbPolyline
 90
4
 70
1
 10
11350.0
 20
7380.0
 10
11500.0
 20
7380.0
 10
11500.0
 20
7320.0
 10
11350.0
 20
7320.0
  0
HATCH
  5
D0
330
17
100
AcDbEntity
  8
A-GLAZ-FRAME
 62
7
420
0
100
AcDbHatch
 10
0.0
 20
0.0
 30
0.0
210
0.0
220
0.0
230
1.0
  2
SOLID
 70
1
 71
0
 91
1
 92
3
 72
0
 73
1
 93
4
 10
11350.0
 20
7380.0
 10
11500.0
 20
7380.0
 10
11500.0
 20
7320.0
 10
11350.0
 20
7320.0
 97
0
 75
1
 76
1
 98
0
  0
LWPOLYLINE
  5
D1
330
17
100
AcDbEntity
  8
A-GLAZ-FRAME
100
AcDbPolyline
 90
4
 70
1
 10
11350.0
 20
6380.0
 10
11500.0
 20
6380.0
 10
11500.0
 20
6320.0
 10
11350.0
 20
6320.0
  0
HATCH
  5
D2
330
17
100
AcDbEntity
  8
A-GLAZ-FRAME
 62
7
420
0
100
AcDbHatch
 10
0.0
 20
0.0
 30
0.0
210
0.0
220
0.0
230
1.0
  2
SOLID
 70
1
 71
0
 91
1
 92
3
 72
0
 73
1
 93
4
 10
11350.0
 20
6380.0
 10
11500.0
 20
6380.0
 10
11500.0
 20
6320.0
 10
11350.0
 20
6320.0
 97
0
 75
1
 76
1
 98
0
  0
LWPOLYLINE
  5
D3
330
17
100
AcDbEntity
  8
A-GLAZ-FRAME
100
AcDbPolyline
 90
4
 70
1
 10
11350.0
 20
5380.0
 10
11500.0
 20
5380.0
 10
11500.0
 20
5320.0
 10
11350.0
 20
5320.0
  0
HATCH
  5
D4
330
17
100
AcDbEntity
  8
A-GLAZ-FRAME
 62
7
420
0
100
AcDbHatch
 10
0.0
 20
0.0
 30
0.0
210
0.0
220
0.0
230
1.0
  2
SOLID
 70
1
 71
0
 91
1
 92
3
 72
0
 73
1
 93
4
 10
11350.0
 20
5380.0
 10
11500.0
 20
5380.0
 10
11500.0
 20
5320.0
 10
11350.0
 20
5320.0
 97
0
 75
1
 76
1
 98
0
  0
LWPOLYLINE
  5
D5
330
17
100
AcDbEntity
  8
A-GLAZ-FRAME
100
AcDbPolyline
 90
4
 70
1
 10
11350.0
 20
4355.0
 10
11500.0
 20
4355.0
 10
11500.0
 20
4295.0
 10
11350.0
 20
4295.0
  0
HATCH
  5
D6
330
17
100
AcDbEntity
  8
A-GLAZ-FRAME
 62
7
420
0
100
AcDbHatch
 10
0.0
 20
0.0
 30
0.0
210
0.0
220
0.0
230
1.0
  2
SOLID
 70
1
 71
0
 91
1
 92
3
 72
0
 73
1
 93
4
 10
11350.0
 20
4355.0
 10
11500.0
 20
4355.0
 10
11500.0
 20
4295.0
 10
11350.0
 20
4295.0
 97
0
 75
1
 76
1
 98
0
  0
LWPOLYLINE
  5
D7
330
17
100
AcDbEntity
  8
A-GLAZ-FRAME
100
AcDbPolyline
 90
4
 70
1
 10
11350.0
 20
3355.0
 10
11500.0
 20
3355.0
 10
11500.0
 20
3295.0
 10
11350.0
 20
3295.0
  0
HATCH
  5
D8
330
17
100
AcDbEntity
  8
A-GLAZ-FRAME
 62
7
420
0
100
AcDbHatch
 10
0.0
 20
0.0
 30
0.0
210
0.0
220
0.0
230
1.0
  2
SOLID
 70
1
 71
0
 91
1
 92
3
 72
0
 73
1
 93
4
 10
11350.0
 20
3355.0
 10
11500.0
 20
3355.0
 10
11500.0
 20
3295.0
 10
11350.0
 20
3295.0
 97
0
 75
1
 76
1
 98
0
  0
LWPOLYLINE
  5
D9
330
17
100
AcDbEntity
  8
A-GLAZ-FRAME
100
AcDbPolyline
 90
4
 70
1
 10
11350.0
 20
1280.0
 10
11500.0
 20
1280.0
 10
11500.0
 20
1220.0
 10
11350.0
 20
1220.0
  0
HATCH
  5
DA
330
17
100
AcDbEntity
  8
A-GLAZ-FRAME
 62
7
420
0
100
AcDbHatch
 10
0.0
 20
0.0
 30
0.0
210
0.0
220
0.0
230
1.0
  2
SOLID
 70
1
 71
0
 91
1
 92
3
 72
0
 73
1
 93
4
 10
11350.0
 20
1280.0
 10
11500.0
 20
1280.0
 10
11500.0
 20
1220.0
 10
11350.0
 20
1220.0
 97
0
 75
1
 76
1
 98
0
  0
LWPOLYLINE
  5
DB
330
17
100
AcDbEntity
  8
A-GLAZ-FRAME
100
AcDbPolyline
 90
4
 70
1
 10
6320.0
 20
150.0
 10
6380.0
 20
150.0
 10
6380.0
 20
0.0
 10
6320.0
 20
0.0
  0
HATCH
  5
DC
330
17
100
AcDbEntity
  8
A-GLAZ-FRAME
 62
7
420
0
100
AcDbHatch
 10
0.0
 20
0.0
 30
0.0
210
0.0
220
0.0
230
1.0
  2
SOLID
 70
1
 71
0
 91
1
 92
3
 72
0
 73
1
 93
4
 10
6320.0
 20
150.0
 10
6380.0
 20
150.0
 10
6380.0
 20
0.0
 10
6320.0
 20
0.0
 97
0
 75
1
 76
1
 98
0
  0
LWPOLYLINE
  5
DD
330
17
100
AcDbEntity
  8
A-GLAZ-FRAME
100
AcDbPolyline
 90
4
 70
1
 10
9370.0
 20
150.0
 10
9430.0
 20
150.0
 10
9430.0
 20
0.0
 10
9370.0
 20
0.0
  0
HATCH
  5
DE
330
17
100
AcDbEntity
  8
A-GLAZ-FRAME
 62
7
420
0
100
AcDbHatch
 10
0.0
 20
0.0
 30
0.0
210
0.0
220
0.0
230
1.0
  2
SOLID
 70
1
 71
0
 91
1
 92
3
 72
0
 73
1
 93
4
 10
9370.0
 20
150.0
 10
9430.0
 20
150.0
 10
9430.0
 20
0.0
 10
9370.0
 20
0.0
 97
0
 75
1
 76
1
 98
0
  0
LWPOLYLINE
  5
DF
330
17
100
AcDbEntity
  8
A-GLAZ-FRAME
100
AcDbPolyline
 90
4
 70
1
 10
10370.0
 20
150.0
 10
10430.0
 20
150.0
 10
10430.0
 20
0.0
 10
10370.0
 20
0.0
  0
HATCH
  5
E0
330
17
100
AcDbEntity
  8
A-GLAZ-FRAME
 62
7
420
0
100
AcDbHatch
 10
0.0
 20
0.0
 30
0.0
210
0.0
220
0.0
230
1.0
  2
SOLID
 70
1
 71
0
 91
1
 92
3
 72
0
 73
1
 93
4
 10
10370.0
 20
150.0
 10
10430.0
 20
150.0
 10
10430.0
 20
0.0
 10
10370.0
 20
0.0
 97
0
 75
1
 76
1
 98
0
  0
LINE
  5
E1
330
17
100
AcDbEntity
  8
A-GLAZ-FRAME
100
AcDbLine
 10
4900.0
 20
1750.0
 30
0.0
 11
4900.0
 21
400.0
 31
0.0
  0
LINE
  5
E2
330
17
100
AcDbEntity
  8
A-GLAZ-FRAME
100
AcDbLine
 10
5100.0
 20
1750.0
 30
0.0
 11
5100.0
 21
400.0
 31
0.0
  0
LINE
  5
E3
330
17
100
AcDbEntity
  8
A-GLAZ
100
AcDbLine
 10
4980.0
 20
1750.0
 30
0.0
 11
4980.0
 21
400.0
 31
0.0
  0
LINE
  5
E4
330
17
100
AcDbEntity
  8
A-GLAZ
100
AcDbLine
 10
5020.0
 20
1750.0
 30
0.0
 11
5020.0
 21
400.0
 31
0.0
  0
LINE
  5
E5
330
17
100
AcDbEntity
  8
A-GLAZ-FRAME
100
AcDbLine
 10
9400.0
 20
2000.0
 30
0.0
 11
10100.0
 21
2000.0
 31
0.0
  0
LINE
  5
E6
330
17
100
AcDbEntity
  8
A-GLAZ-FRAME
100
AcDbLine
 10
9400.0
 20
1800.0
 30
0.0
 11
10100.0
 21
1800.0
 31
0.0
  0
LINE
  5
E7
330
17
100
AcDbEntity
  8
A-GLAZ
100
AcDbLine
 10
9400.0
 20
1920.0
 30
0.0
 11
10100.0
 21
1920.0
 31
0.0
  0
LINE
  5
E8
330
17
100
AcDbEntity
  8
A-GLAZ
100
AcDbLine
 10
9400.0
 20
1880.0
 30
0.0
 11
10100.0
 21
1880.0
 31
0.0
  0
LINE
  5
E9
330
17
100
AcDbEntity
  8
A-GLAZ-FRAME
100
AcDbLine
 10
10100.0
 20
2000.0
 30
0.0
 11
10100.0
 21
1800.0
 31
0.0
  0
LINE
  5
EA
330
17
100
AcDbEntity
  8
A-DOOR
100
AcDbLine
 10
1000.0
 20
13850.0
 30
0.0
 11
0.0
 21
13850.0
 31
0.0
  0
ARC
  5
EB
330
17
100
AcDbEntity
  8
A-DOOR-SWING
100
AcDbCircle
 10
1000.0
 20
13850.0
 30
0.0
 40
1000.0
100
AcDbArc
 50
-180.0
 51
-90.0
  0
LINE
  5
EC
330
17
100
AcDbEntity
  8
A-DOOR
100
AcDbLine
 10
4900.0
 20
10850.0
 30
0.0
 11
4200.0
 21
10850.0
 31
0.0
  0
ARC
  5
ED
330
17
100
AcDbEntity
  8
A-DOOR-SWING
100
AcDbCircle
 10
4900.0
 20
10850.0
 30
0.0
 40
700.0
100
AcDbArc
 50
-180.0
 51
-90.0
  0
LINE
  5
EE
330
17
100
AcDbEntity
  8
A-DOOR
100
AcDbLine
 10
6180.0
 20
13500.0
 30
0.0
 11
5580.0
 21
13500.0
 31
0.0
  0
ARC
  5
EF
330
17
100
AcDbEntity
  8
A-DOOR-SWING
100
AcDbCircle
 10
6180.0
 20
13500.0
 30
0.0
 40
600.0
100
AcDbArc
 50
-180.0
 51
-90.0
  0
LINE
  5
F0
330
17
100
AcDbEntity
  8
A-DOOR
100
AcDbLine
 10
6180.0
 20
12300.0
 30
0.0
 11
5580.0
 21
12300.0
 31
0.0
  0
ARC
  5
F1
330
17
100
AcDbEntity
  8
A-DOOR-SWING
100
AcDbCircle
 10
6180.0
 20
12300.0
 30
0.0
 40
600.0
100
AcDbArc
 50
-270.0
 51
-180.0
  0
LINE
  5
F2
330
17
100
AcDbEntity
  8
A-DOOR
100
AcDbLine
 10
7150.0
 20
10225.0
 30
0.0
 11
8050.0
 21
10225.0
 31
0.0
  0
ARC
  5
F3
330
17
100
AcDbEntity
  8
A-DOOR-SWING
100
AcDbCircle
 10
7150.0
 20
10225.0
 30
0.0
 40
900.0
100
AcDbArc
 50
-90.0
 51
-0.0
  0
LINE
  5
F4
330
17
100
AcDbEntity
  8
A-DOOR
100
AcDbLine
 10
7150.0
 20
6800.0
 30
0.0
 11
8050.0
 21
6800.0
 31
0.0
  0
ARC
  5
F5
330
17
100
AcDbEntity
  8
A-DOOR-SWING
100
AcDbCircle
 10
7150.0
 20
6800.0
 30
0.0
 40
900.0
100
AcDbArc
 50
-0.0
 51
90.0
  0
LINE
  5
F6
330
17
100
AcDbEntity
  8
A-DOOR
100
AcDbLine
 10
5400.0
 20
6650.0
 30
0.0
 11
5400.0
 21
7550.0
 31
0.0
  0
ARC
  5
F7
330
17
100
AcDbEntity
  8
A-DOOR-SWING
100
AcDbCircle
 10
5400.0
 20
6650.0
 30
0.0
 40
900.0
100
AcDbArc
 50
-0.0
 51
90.0
  0
LINE
  5
F8
330
17
100
AcDbEntity
  8
A-DOOR
100
AcDbLine
 10
11200.0
 20
9900.0
 30
0.0
 11
11200.0
 21
9500.0
 31
0.0
  0
ARC
  5
F9
330
17
100
AcDbEntity
  8
A-DOOR-SWING
100
AcDbCircle
 10
11200.0
 20
9900.0
 30
0.0
 40
400.0
100
AcDbArc
 50
-180.0
 51
-90.0
  0
LINE
  5
FA
330
17
100
AcDbEntity
  8
A-DOOR
420
1731527
100
AcDbLine
 10
10850.0
 20
1800.0
 30
0.0
 11
10850.0
 21
1050.0
 31
0.0
  0
ARC
  5
FB
330
17
100
AcDbEntity
  8
A-DOOR-SWING
100
AcDbCircle
 10
10850.0
 20
1800.0
 30
0.0
 40
750.0
100
AcDbArc
 50
-180.0
 51
-90.0
  0
LINE
  5
FC
330
17
100
AcDbEntity
  8
A-FIXT
100
AcDbLine
 10
10800.0
 20
9900.0
 30
0.0
 11
11200.0
 21
9900.0
 31
0.0
  0
LWPOLYLINE
  5
FD
330
17
100
AcDbEntity
  8
A-SHAFT
100
AcDbPolyline
 90
4
 70
1
 10
2800.0
 20
10450.0
 10
3115.0
 20
10450.0
 10
3115.0
 20
9500.0
 10
2800.0
 20
9500.0
  0
LINE
  5
FE
330
17
100
AcDbEntity
  8
A-SHAFT
100
AcDbLine
 10
2800.0
 20
10450.0
 30
0.0
 11
3115.0
 21
9500.0
 31
0.0
  0
LINE
  5
FF
330
17
100
AcDbEntity
  8
A-SHAFT
100
AcDbLine
 10
2800.0
 20
9500.0
 30
0.0
 11
3115.0
 21
10450.0
 31
0.0
  0
HATCH
  5
100
330
17
100
AcDbEntity
  8
A-WALL-FILL
 62
7
420
10066329
100
AcDbHatch
 10
0.0
 20
0.0
 30
0.0
210
0.0
220
0.0
230
1.0
  2
SOLID
 70
1
 71
0
 91
2
 92
3
 72
0
 73
1
 93
4
 10
7150.0
 20
10950.0
 10
7150.0
 20
10450.0
 10
7800.0
 20
10450.0
 10
7800.0
 20
10950.0
 97
0
 92
2
 72
0
 73
1
 93
4
 10
7730.0
 20
10520.0
 10
7220.0
 20
10520.0
 10
7220.0
 20
10880.0
 10
7730.0
 20
10880.0
 97
0
 75
1
 76
1
 98
0
  0
LWPOLYLINE
  5
101
330
17
100
AcDbEntity
  8
A-WALL
100
AcDbPolyline
 90
4
 70
1
 10
7150.0
 20
10950.0
 10
7150.0
 20
10450.0
 10
7800.0
 20
10450.0
 10
7800.0
 20
10950.0
  0
LWPOLYLINE
  5
102
330
17
100
AcDbEntity
  8
A-WALL
100
AcDbPolyline
 90
4
 70
1
 10
7730.0
 20
10520.0
 10
7220.0
 20
10520.0
 10
7220.0
 20
10880.0
 10
7730.0
 20
10880.0
  0
LINE
  5
103
330
17
100
AcDbEntity
  8
A-SHAFT
100
AcDbLine
 10
7220.0
 20
10880.0
 30
0.0
 11
7730.0
 21
10520.0
 31
0.0
  0
LINE
  5
104
330
17
100
AcDbEntity
  8
A-SHAFT
100
AcDbLine
 10
7220.0
 20
10520.0
 30
0.0
 11
7730.0
 21
10880.0
 31
0.0
  0
LWPOLYLINE
  5
105
330
17
100
AcDbEntity
  8
A-FURN
100
AcDbPolyline
 90
4
 70
1
 10
1200.0
 20
12650.0
 10
4100.0
 20
12650.0
 10
4100.0
 20
12150.0
 10
1200.0
 20
12150.0
  0
LINE
  5
106
330
17
100
AcDbEntity
  8
A-FURN
100
AcDbLine
 10
1250.0
 20
12400.0
 30
0.0
 11
4050.0
 21
12400.0
 31
0.0
  0
LINE
  5
107
330
17
100
AcDbEntity
  8
A-FURN
100
AcDbLine
 10
1280.0
 20
12575.0
 30
0.0
 11
1360.0
 21
12225.0
 31
0.0
  0
LINE
  5
108
330
17
100
AcDbEntity
  8
A-FURN
100
AcDbLine
 10
1440.0
 20
12575.0
 30
0.0
 11
1520.0
 21
12225.0
 31
0.0
  0
LINE
  5
109
330
17
100
AcDbEntity
  8
A-FURN
100
AcDbLine
 10
1600.0
 20
12575.0
 30
0.0
 11
1680.0
 21
12225.0
 31
0.0
  0
LINE
  5
10A
330
17
100
AcDbEntity
  8
A-FURN
100
AcDbLine
 10
1760.0
 20
12575.0
 30
0.0
 11
1840.0
 21
12225.0
 31
0.0
  0
LINE
  5
10B
330
17
100
AcDbEntity
  8
A-FURN
100
AcDbLine
 10
1920.0
 20
12575.0
 30
0.0
 11
2000.0
 21
12225.0
 31
0.0
  0
LINE
  5
10C
330
17
100
AcDbEntity
  8
A-FURN
100
AcDbLine
 10
2080.0
 20
12575.0
 30
0.0
 11
2160.0
 21
12225.0
 31
0.0
  0
LINE
  5
10D
330
17
100
AcDbEntity
  8
A-FURN
100
AcDbLine
 10
2240.0
 20
12575.0
 30
0.0
 11
2320.0
 21
12225.0
 31
0.0
  0
LINE
  5
10E
330
17
100
AcDbEntity
  8
A-FURN
100
AcDbLine
 10
2400.0
 20
12575.0
 30
0.0
 11
2480.0
 21
12225.0
 31
0.0
  0
LINE
  5
10F
330
17
100
AcDbEntity
  8
A-FURN
100
AcDbLine
 10
2560.0
 20
12575.0
 30
0.0
 11
2640.0
 21
12225.0
 31
0.0
  0
LINE
  5
110
330
17
100
AcDbEntity
  8
A-FURN
100
AcDbLine
 10
2720.0
 20
12575.0
 30
0.0
 11
2800.0
 21
12225.0
 31
0.0
  0
LINE
  5
111
330
17
100
AcDbEntity
  8
A-FURN
100
AcDbLine
 10
2880.0
 20
12575.0
 30
0.0
 11
2960.0
 21
12225.0
 31
0.0
  0
LINE
  5
112
330
17
100
AcDbEntity
  8
A-FURN
100
AcDbLine
 10
3040.0
 20
12575.0
 30
0.0
 11
3120.0
 21
12225.0
 31
0.0
  0
LINE
  5
113
330
17
100
AcDbEntity
  8
A-FURN
100
AcDbLine
 10
3200.0
 20
12575.0
 30
0.0
 11
3280.0
 21
12225.0
 31
0.0
  0
LINE
  5
114
330
17
100
AcDbEntity
  8
A-FURN
100
AcDbLine
 10
3360.0
 20
12575.0
 30
0.0
 11
3440.0
 21
12225.0
 31
0.0
  0
LINE
  5
115
330
17
100
AcDbEntity
  8
A-FURN
100
AcDbLine
 10
3520.0
 20
12575.0
 30
0.0
 11
3600.0
 21
12225.0
 31
0.0
  0
LINE
  5
116
330
17
100
AcDbEntity
  8
A-FURN
100
AcDbLine
 10
3680.0
 20
12575.0
 30
0.0
 11
3760.0
 21
12225.0
 31
0.0
  0
LINE
  5
117
330
17
100
AcDbEntity
  8
A-FURN
100
AcDbLine
 10
3840.0
 20
12575.0
 30
0.0
 11
3920.0
 21
12225.0
 31
0.0
  0
LWPOLYLINE
  5
118
330
17
100
AcDbEntity
  8
A-GLAZ
100
AcDbPolyline
 90
4
 70
1
 10
3000.0
 20
11160.0
 10
3800.0
 20
11160.0
 10
3800.0
 20
11140.0
 10
3000.0
 20
11140.0
  0
HATCH
  5
119
330
17
100
AcDbEntity
  8
A-GLAZ
 62
7
420
12574455
100
AcDbHatch
 10
0.0
 20
0.0
 30
0.0
210
0.0
220
0.0
230
1.0
  2
SOLID
 70
1
 71
0
 91
1
 92
3
 72
0
 73
1
 93
4
 10
3000.0
 20
11160.0
 10
3800.0
 20
11160.0
 10
3800.0
 20
11140.0
 10
3000.0
 20
11140.0
 97
0
 75
1
 76
1
 98
0
  0
LWPOLYLINE
  5
11A
330
17
100
AcDbEntity
  8
A-GLAZ
100
AcDbPolyline
 90
4
 70
1
 10
3750.0
 20
11125.0
 10
4842.1572875253805
 20
11125.0
 10
4842.1572875253805
 20
11110.0
 10
3750.0
 20
11110.0
  0
LWPOLYLINE
  5
11B
330
17
100
AcDbEntity
  8
A-FIXT
100
AcDbPolyline
 90
4
 70
1
 10
3000.0
 20
11650.0
 10
3060.0
 20
11650.0
 10
3060.0
 20
11550.0
 10
3000.0
 20
11550.0
  0
LINE
  5
11C
330
17
100
AcDbEntity
  8
A-FIXT
100
AcDbLine
 10
3060.0
 20
11600.0
 30
0.0
 11
3200.0
 21
11600.0
 31
0.0
  0
CIRCLE
  5
11D
330
17
100
AcDbEntity
  8
A-FIXT
100
AcDbCircle
 10
3250.0
 20
11600.0
 30
0.0
 40
60.0
  0
LWPOLYLINE
  5
11E
330
17
100
AcDbEntity
  8
A-FIXT
100
AcDbPolyline
 90
4
 70
1
 10
3700.0
 20
11600.0
 10
3800.0
 20
11600.0
 10
3800.0
 20
11500.0
 10
3700.0
 20
11500.0
  0
LINE
  5
11F
330
17
100
AcDbEntity
  8
A-FIXT
100
AcDbLine
 10
3700.0
 20
11600.0
 30
0.0
 11
3800.0
 21
11500.0
 31
0.0
  0
LINE
  5
120
330
17
100
AcDbEntity
  8
A-FIXT
100
AcDbLine
 10
3700.0
 20
11500.0
 30
0.0
 11
3800.0
 21
11600.0
 31
0.0
  0
LWPOLYLINE
  5
121
330
17
100
AcDbEntity
  8
A-FIXT
100
AcDbPolyline
 90
4
 70
1
 10
3500.0
 20
9700.0
 10
3900.0
 20
9700.0
 10
3900.0
 20
9500.0
 10
3500.0
 20
9500.0
  0
LWPOLYLINE
  5
122
330
17
100
AcDbEntity
  8
A-FIXT
100
AcDbPolyline
 90
48
 70
1
 10
3880.0
 20
9920.0
 10
3878.460075047286
 20
9886.063190022785
 10
3873.8666487320324
 20
9852.707048273343
 10
3866.298315852032
 20
9820.502307585077
 10
3855.8845726811987
 20
9790.0
 10
3842.8036012524226
 20
9761.722028457732
 10
3827.2792206135787
 20
9736.152236891498
 10
3809.5770572215697
 20
9713.72813152428
 10
3790.0
 20
9694.833395016045
 10
3768.8830178257163
 20
9679.791321547065
 10
3746.5874281184538
 20
9668.859285164843
 10
3723.4947145996093
 20
9662.22433604281
 10
3700.0
 20
9660.0
 10
3676.5052854003907
 20
9662.22433604281
 10
3653.4125718815462
 20
9668.859285164843
 10
3631.116982174284
 20
9679.791321547065
 10
3610.0
 20
9694.833395016045
 10
3590.4229427784303
 20
9713.72813152428
 10
3572.720779386422
 20
9736.152236891498
 10
3557.1963987475774
 20
9761.722028457732
 10
3544.1154273188013
 20
9790.0
 10
3533.701684147968
 20
9820.502307585077
 10
3526.1333512679676
 20
9852.707048273343
 10
3521.539924952714
 20
9886.063190022785
 10
3520.0
 20
9920.0
 10
3521.539924952714
 20
9953.936809977215
 10
3526.1333512679676
 20
9987.292951726657
 10
3533.701684147968
 20
10019.497692414923
 10
3544.1154273188013
 20
10050.0
 10
3557.1963987475774
 20
10078.277971542268
 10
3572.7207793864213
 20
10103.847763108502
 10
3590.4229427784303
 20
10126.27186847572
 10
3610.0
 20
10145.166604983955
 10
3631.116982174284
 20
10160.208678452935
 10
3653.4125718815462
 20
10171.140714835157
 10
3676.5052854003907
 20
10177.77566395719
 10
3700.0
 20
10180.0
 10
3723.4947145996093
 20
10177.77566395719
 10
3746.5874281184533
 20
10171.140714835157
 10
3768.883017825716
 20
10160.208678452935
 10
3790.0
 20
10145.166604983955
 10
3809.5770572215697
 20
10126.271868475722
 10
3827.279220613578
 20
10103.847763108502
 10
3842.8036012524226
 20
10078.277971542268
 10
3855.8845726811987
 20
10050.0
 10
3866.298315852032
 20
10019.497692414923
 10
3873.8666487320324
 20
9987.292951726657
 10
3878.460075047286
 20
9953.936809977215
  0
LWPOLYLINE
  5
123
330
17
100
AcDbEntity
  8
A-FIXT
100
AcDbPolyline
 90
48
 70
1
 10
3820.0
 20
9900.0
 10
3818.973383364857
 20
9875.20002347819
 10
3815.911099154688
 20
9850.82438143052
 10
3810.8655439013546
 20
9827.290147850632
 10
3803.9230484541326
 20
9805.0
 10
3795.202400834948
 20
9784.335328488343
 10
3784.8528137423855
 20
9765.649711574555
 10
3773.0513714810468
 20
9749.262865344666
 10
3760.0
 20
9735.455173280956
 10
3745.9220118838107
 20
9724.462888822854
 10
3731.058285412302
 20
9716.474093005076
 10
3715.6631430664065
 20
9711.625476338977
 10
3700.0
 20
9710.0
 10
3684.3368569335935
 20
9711.625476338977
 10
3668.941714587698
 20
9716.474093005076
 10
3654.0779881161893
 20
9724.462888822854
 10
3640.0
 20
9735.455173280956
 10
3626.9486285189532
 20
9749.262865344666
 10
3615.1471862576145
 20
9765.649711574555
 10
3604.797599165052
 20
9784.335328488343
 10
3596.0769515458674
 20
9805.0
 10
3589.1344560986454
 20
9827.290147850632
 10
3584.088900845312
 20
9850.82438143052
 10
3581.026616635143
 20
9875.20002347819
 10
3580.0
 20
9900.0
 10
3581.026616635143
 20
9924.79997652181
 10
3584.088900845312
 20
9949.17561856948
 10
3589.1344560986454
 20
9972.709852149368
 10
3596.0769515458674
 20
9995.0
 10
3604.797599165052
 20
10015.664671511657
 10
3615.1471862576145
 20
10034.350288425445
 10
3626.9486285189532
 20
10050.737134655334
 10
3640.0
 20
10064.544826719044
 10
3654.0779881161893
 20
10075.537111177146
 10
3668.941714587698
 20
10083.525906994922
 10
3684.3368569335935
 20
10088.374523661023
 10
3700.0
 20
10090.0
 10
3715.663143066406
 20
10088.374523661023
 10
3731.058285412302
 20
10083.525906994922
 10
3745.9220118838107
 20
10075.537111177146
 10
3760.0
 20
10064.544826719044
 10
3773.0513714810463
 20
10050.737134655334
 10
3784.8528137423855
 20
10034.350288425445
 10
3795.202400834948
 20
10015.664671511657
 10
3803.9230484541326
 20
9995.0
 10
3810.8655439013546
 20
9972.709852149368
 10
3815.911099154688
 20
9949.17561856948
 10
3818.973383364857
 20
9924.79997652181
  0
LWPOLYLINE
  5
124
330
17
100
AcDbEntity
  8
A-FIXT
100
AcDbPolyline
 90
4
 70
1
 10
4100.0
 20
9980.0
 10
4750.0
 20
9980.0
 10
4750.0
 20
9500.0
 10
4100.0
 20
9500.0
  0
LWPOLYLINE
  5
125
330
17
100
AcDbEntity
  8
A-FIXT
100
AcDbPolyline
 90
48
 70
1
 10
4655.0
 20
9730.0
 10
4653.0323181159765
 20
9709.115809244791
 10
4647.162940046485
 20
9688.588952783597
 10
4637.492292477596
 20
9668.770650821585
 10
4624.185842870421
 20
9650.0
 10
4607.471268266984
 20
9632.598171358604
 10
4587.634559672906
 20
9616.862915010151
 10
4565.015128672006
 20
9603.063465553401
 10
4540.0
 20
9591.43593539449
 10
4513.017189443971
 20
9582.179274798194
 10
4484.52838037358
 20
9575.451867793749
 10
4455.021024210612
 20
9571.36882218019
 10
4425.0
 20
9570.0
 10
4394.978975789389
 20
9571.36882218019
 10
4365.47161962642
 20
9575.451867793749
 10
4336.982810556029
 20
9582.179274798194
 10
4310.0
 20
9591.43593539449
 10
4284.984871327994
 20
9603.063465553401
 10
4262.365440327094
 20
9616.862915010151
 10
4242.528731733016
 20
9632.598171358604
 10
4225.814157129579
 20
9650.0
 10
4212.507707522404
 20
9668.770650821585
 10
4202.837059953515
 20
9688.588952783597
 10
4196.9676818840235
 20
9709.115809244791
 10
4195.0
 20
9730.0
 10
4196.9676818840235
 20
9750.884190755209
 10
4202.837059953515
 20
9771.411047216403
 10
4212.5077075224035
 20
9791.229349178415
 10
4225.814157129579
 20
9810.0
 10
4242.528731733016
 20
9827.401828641396
 10
4262.365440327094
 20
9843.137084989849
 10
4284.984871327994
 20
9856.936534446599
 10
4310.0
 20
9868.56406460551
 10
4336.982810556029
 20
9877.820725201806
 10
4365.47161962642
 20
9884.548132206251
 10
4394.978975789388
 20
9888.63117781981
 10
4425.0
 20
9890.0
 10
4455.021024210611
 20
9888.63117781981
 10
4484.52838037358
 20
9884.548132206251
 10
4513.017189443971
 20
9877.820725201806
 10
4540.0
 20
9868.56406460551
 10
4565.015128672006
 20
9856.936534446599
 10
4587.634559672906
 20
9843.137084989849
 10
4607.471268266984
 20
9827.401828641396
 10
4624.185842870421
 20
9810.0
 10
4637.492292477596
 20
9791.229349178415
 10
4647.162940046485
 20
9771.411047216403
 10
4653.0323181159765
 20
9750.884190755209
  0
CIRCLE
  5
126
330
17
100
AcDbEntity
  8
A-FIXT
100
AcDbCircle
 10
4425.0
 20
9560.0
 30
0.0
 40
30.0
  0
LWPOLYLINE
  5
127
330
17
100
AcDbEntity
  8
A-FURN
100
AcDbPolyline
 90
4
 70
1
 10
7400.0
 20
13200.0
 10
10300.0
 20
13200.0
 10
10300.0
 20
12100.0
 10
7400.0
 20
12100.0
  0
LWPOLYLINE
  5
128
330
17
100
AcDbEntity
  8
A-FURN
100
AcDbPolyline
 90
28
 70
1
 10
8025.0
 20
13670.0
 10
8048.293714059227
 20
13666.933324366017
 10
8070.0
 20
13657.9422863406
 10
8088.639610306789
 20
13643.63961030679
 10
8102.9422863406
 20
13625.0
 10
8111.933324366017
 20
13603.293714059228
 10
8115.0
 20
13580.0
 10
8115.0
 20
13280.0
 10
8111.933324366017
 20
13256.706285940772
 10
8102.9422863406
 20
13235.0
 10
8088.639610306789
 20
13216.36038969321
 10
8070.0
 20
13202.0577136594
 10
8048.293714059227
 20
13193.066675633983
 10
8025.0
 20
13190.0
 10
7725.0
 20
13190.0
 10
7701.706285940773
 20
13193.066675633983
 10
7680.0
 20
13202.0577136594
 10
7661.360389693211
 20
13216.36038969321
 10
7647.0577136594
 20
13235.0
 10
7638.066675633983
 20
13256.706285940772
 10
7635.0
 20
13280.0
 10
7635.0
 20
13580.0
 10
7638.066675633983
 20
13603.293714059228
 10
7647.0577136594
 20
13625.0
 10
7661.360389693211
 20
13643.63961030679
 10
7680.0
 20
13657.9422863406
 10
7701.706285940773
 20
13666.933324366017
 10
7725.0
 20
13670.0
  0
LINE
  5
129
330
17
100
AcDbEntity
  8
A-FURN
100
AcDbLine
 10
7675.0
 20
13600.0
 30
0.0
 11
8075.0
 21
13600.0
 31
0.0
  0
LWPOLYLINE
  5
12A
330
17
100
AcDbEntity
  8
A-FURN
100
AcDbPolyline
 90
28
 70
1
 10
8025.0
 20
12110.0
 10
8048.293714059227
 20
12106.933324366017
 10
8070.0
 20
12097.9422863406
 10
8088.639610306789
 20
12083.63961030679
 10
8102.9422863406
 20
12065.0
 10
8111.933324366017
 20
12043.293714059226
 10
8115.0
 20
12020.0
 10
8115.0
 20
11720.0
 10
8111.933324366017
 20
11696.706285940774
 10
8102.9422863406
 20
11675.0
 10
8088.639610306789
 20
11656.36038969321
 10
8070.0
 20
11642.0577136594
 10
8048.293714059227
 20
11633.066675633983
 10
8025.0
 20
11630.0
 10
7725.0
 20
11630.0
 10
7701.706285940773
 20
11633.066675633983
 10
7680.0
 20
11642.0577136594
 10
7661.360389693211
 20
11656.36038969321
 10
7647.0577136594
 20
11675.0
 10
7638.066675633983
 20
11696.706285940772
 10
7635.0
 20
11720.0
 10
7635.0
 20
12020.0
 10
7638.066675633983
 20
12043.293714059226
 10
7647.0577136594
 20
12065.0
 10
7661.360389693211
 20
12083.63961030679
 10
7680.0
 20
12097.9422863406
 10
7701.706285940773
 20
12106.933324366017
 10
7725.0
 20
12110.0
  0
LINE
  5
12B
330
17
100
AcDbEntity
  8
A-FURN
100
AcDbLine
 10
7675.0
 20
11700.0
 30
0.0
 11
8075.0
 21
11700.0
 31
0.0
  0
LWPOLYLINE
  5
12C
330
17
100
AcDbEntity
  8
A-FURN
100
AcDbPolyline
 90
28
 70
1
 10
8675.0
 20
13670.0
 10
8698.293714059226
 20
13666.933324366017
 10
8720.0
 20
13657.9422863406
 10
8738.63961030679
 20
13643.63961030679
 10
8752.9422863406
 20
13625.0
 10
8761.933324366017
 20
13603.293714059228
 10
8765.0
 20
13580.0
 10
8765.0
 20
13280.0
 10
8761.933324366017
 20
13256.706285940772
 10
8752.9422863406
 20
13235.0
 10
8738.63961030679
 20
13216.36038969321
 10
8720.0
 20
13202.0577136594
 10
8698.293714059226
 20
13193.066675633983
 10
8675.0
 20
13190.0
 10
8375.0
 20
13190.0
 10
8351.706285940774
 20
13193.066675633983
 10
8330.0
 20
13202.0577136594
 10
8311.36038969321
 20
13216.36038969321
 10
8297.0577136594
 20
13235.0
 10
8288.066675633983
 20
13256.706285940772
 10
8285.0
 20
13280.0
 10
8285.0
 20
13580.0
 10
8288.066675633983
 20
13603.293714059228
 10
8297.0577136594
 20
13625.0
 10
8311.36038969321
 20
13643.63961030679
 10
8330.0
 20
13657.9422863406
 10
8351.706285940774
 20
13666.933324366017
 10
8375.0
 20
13670.0
  0
LINE
  5
12D
330
17
100
AcDbEntity
  8
A-FURN
100
AcDbLine
 10
8325.0
 20
13600.0
 30
0.0
 11
8725.0
 21
13600.0
 31
0.0
  0
LWPOLYLINE
  5
12E
330
17
100
AcDbEntity
  8
A-FURN
100
AcDbPolyline
 90
28
 70
1
 10
8675.0
 20
12110.0
 10
8698.293714059226
 20
12106.933324366017
 10
8720.0
 20
12097.9422863406
 10
8738.63961030679
 20
12083.63961030679
 10
8752.9422863406
 20
12065.0
 10
8761.933324366017
 20
12043.293714059226
 10
8765.0
 20
12020.0
 10
8765.0
 20
11720.0
 10
8761.933324366017
 20
11696.706285940774
 10
8752.9422863406
 20
11675.0
 10
8738.63961030679
 20
11656.36038969321
 10
8720.0
 20
11642.0577136594
 10
8698.293714059226
 20
11633.066675633983
 10
8675.0
 20
11630.0
 10
8375.0
 20
11630.0
 10
8351.706285940774
 20
11633.066675633983
 10
8330.0
 20
11642.0577136594
 10
8311.36038969321
 20
11656.36038969321
 10
8297.0577136594
 20
11675.0
 10
8288.066675633983
 20
11696.706285940772
 10
8285.0
 20
11720.0
 10
8285.0
 20
12020.0
 10
8288.066675633983
 20
12043.293714059226
 10
8297.0577136594
 20
12065.0
 10
8311.36038969321
 20
12083.63961030679
 10
8330.0
 20
12097.9422863406
 10
8351.706285940774
 20
12106.933324366017
 10
8375.0
 20
12110.0
  0
LINE
  5
12F
330
17
100
AcDbEntity
  8
A-FURN
100
AcDbLine
 10
8325.0
 20
11700.0
 30
0.0
 11
8725.0
 21
11700.0
 31
0.0
  0
LWPOLYLINE
  5
130
330
17
100
AcDbEntity
  8
A-FURN
100
AcDbPolyline
 90
28
 70
1
 10
9350.0
 20
13670.0
 10
9373.293714059226
 20
13666.933324366017
 10
9395.0
 20
13657.9422863406
 10
9413.63961030679
 20
13643.63961030679
 10
9427.9422863406
 20
13625.0
 10
9436.933324366015
 20
13603.293714059228
 10
9440.0
 20
13580.0
 10
9440.0
 20
13280.0
 10
9436.933324366015
 20
13256.706285940772
 10
9427.9422863406
 20
13235.0
 10
9413.63961030679
 20
13216.36038969321
 10
9395.0
 20
13202.0577136594
 10
9373.293714059226
 20
13193.066675633983
 10
9350.0
 20
13190.0
 10
9050.0
 20
13190.0
 10
9026.706285940774
 20
13193.066675633983
 10
9005.0
 20
13202.0577136594
 10
8986.36038969321
 20
13216.36038969321
 10
8972.0577136594
 20
13235.0
 10
8963.066675633983
 20
13256.706285940772
 10
8960.0
 20
13280.0
 10
8960.0
 20
13580.0
 10
8963.066675633983
 20
13603.293714059228
 10
8972.0577136594
 20
13625.0
 10
8986.36038969321
 20
13643.63961030679
 10
9005.0
 20
13657.9422863406
 10
9026.706285940774
 20
13666.933324366017
 10
9050.0
 20
13670.0
  0
LINE
  5
131
330
17
100
AcDbEntity
  8
A-FURN
100
AcDbLine
 10
9000.0
 20
13600.0
 30
0.0
 11
9400.0
 21
13600.0
 31
0.0
  0
LWPOLYLINE
  5
132
330
17
100
AcDbEntity
  8
A-FURN
100
AcDbPolyline
 90
28
 70
1
 10
9350.0
 20
12110.0
 10
9373.293714059226
 20
12106.933324366017
 10
9395.0
 20
12097.9422863406
 10
9413.63961030679
 20
12083.63961030679
 10
9427.9422863406
 20
12065.0
 10
9436.933324366015
 20
12043.293714059226
 10
9440.0
 20
12020.0
 10
9440.0
 20
11720.0
 10
9436.933324366015
 20
11696.706285940774
 10
9427.9422863406
 20
11675.0
 10
9413.63961030679
 20
11656.36038969321
 10
9395.0
 20
11642.0577136594
 10
9373.293714059226
 20
11633.066675633983
 10
9350.0
 20
11630.0
 10
9050.0
 20
11630.0
 10
9026.706285940774
 20
11633.066675633983
 10
9005.0
 20
11642.0577136594
 10
8986.36038969321
 20
11656.36038969321
 10
8972.0577136594
 20
11675.0
 10
8963.066675633983
 20
11696.706285940772
 10
8960.0
 20
11720.0
 10
8960.0
 20
12020.0
 10
8963.066675633983
 20
12043.293714059226
 10
8972.0577136594
 20
12065.0
 10
8986.36038969321
 20
12083.63961030679
 10
9005.0
 20
12097.9422863406
 10
9026.706285940774
 20
12106.933324366017
 10
9050.0
 20
12110.0
  0
LINE
  5
133
330
17
100
AcDbEntity
  8
A-FURN
100
AcDbLine
 10
9000.0
 20
11700.0
 30
0.0
 11
9400.0
 21
11700.0
 31
0.0
  0
LWPOLYLINE
  5
134
330
17
100
AcDbEntity
  8
A-FURN
100
AcDbPolyline
 90
28
 70
1
 10
10000.0
 20
13670.0
 10
10023.293714059226
 20
13666.933324366017
 10
10045.0
 20
13657.9422863406
 10
10063.63961030679
 20
13643.63961030679
 10
10077.9422863406
 20
13625.0
 10
10086.933324366015
 20
13603.293714059228
 10
10090.0
 20
13580.0
 10
10090.0
 20
13280.0
 10
10086.933324366015
 20
13256.706285940772
 10
10077.9422863406
 20
13235.0
 10
10063.63961030679
 20
13216.36038969321
 10
10045.0
 20
13202.0577136594
 10
10023.293714059226
 20
13193.066675633983
 10
10000.0
 20
13190.0
 10
9700.0
 20
13190.0
 10
9676.706285940774
 20
13193.066675633983
 10
9655.0
 20
13202.0577136594
 10
9636.36038969321
 20
13216.36038969321
 10
9622.0577136594
 20
13235.0
 10
9613.066675633985
 20
13256.706285940772
 10
9610.0
 20
13280.0
 10
9610.0
 20
13580.0
 10
9613.066675633985
 20
13603.293714059228
 10
9622.0577136594
 20
13625.0
 10
9636.36038969321
 20
13643.63961030679
 10
9655.0
 20
13657.9422863406
 10
9676.706285940774
 20
13666.933324366017
 10
9700.0
 20
13670.0
  0
LINE
  5
135
330
17
100
AcDbEntity
  8
A-FURN
100
AcDbLine
 10
9650.0
 20
13600.0
 30
0.0
 11
10050.0
 21
13600.0
 31
0.0
  0
LWPOLYLINE
  5
136
330
17
100
AcDbEntity
  8
A-FURN
100
AcDbPolyline
 90
28
 70
1
 10
10000.0
 20
12110.0
 10
10023.293714059226
 20
12106.933324366017
 10
10045.0
 20
12097.9422863406
 10
10063.63961030679
 20
12083.63961030679
 10
10077.9422863406
 20
12065.0
 10
10086.933324366015
 20
12043.293714059226
 10
10090.0
 20
12020.0
 10
10090.0
 20
11720.0
 10
10086.933324366015
 20
11696.706285940774
 10
10077.9422863406
 20
11675.0
 10
10063.63961030679
 20
11656.36038969321
 10
10045.0
 20
11642.0577136594
 10
10023.293714059226
 20
11633.066675633983
 10
10000.0
 20
11630.0
 10
9700.0
 20
11630.0
 10
9676.706285940774
 20
11633.066675633983
 10
9655.0
 20
11642.0577136594
 10
9636.36038969321
 20
11656.36038969321
 10
9622.0577136594
 20
11675.0
 10
9613.066675633985
 20
11696.706285940772
 10
9610.0
 20
11720.0
 10
9610.0
 20
12020.0
 10
9613.066675633985
 20
12043.293714059226
 10
9622.0577136594
 20
12065.0
 10
9636.36038969321
 20
12083.63961030679
 10
9655.0
 20
12097.9422863406
 10
9676.706285940774
 20
12106.933324366017
 10
9700.0
 20
12110.0
  0
LINE
  5
137
330
17
100
AcDbEntity
  8
A-FURN
100
AcDbLine
 10
9650.0
 20
11700.0
 30
0.0
 11
10050.0
 21
11700.0
 31
0.0
  0
LWPOLYLINE
  5
138
330
17
100
AcDbEntity
  8
A-FURN
100
AcDbPolyline
 90
28
 70
1
 10
7310.0
 20
12890.0
 10
7333.293714059227
 20
12886.933324366017
 10
7355.0
 20
12877.9422863406
 10
7373.639610306789
 20
12863.63961030679
 10
7387.9422863406
 20
12845.0
 10
7396.933324366017
 20
12823.293714059228
 10
7400.0
 20
12800.0
 10
7400.0
 20
12500.0
 10
7396.933324366017
 20
12476.706285940772
 10
7387.9422863406
 20
12455.0
 10
7373.639610306789
 20
12436.36038969321
 10
7355.0
 20
12422.0577136594
 10
7333.293714059227
 20
12413.066675633983
 10
7310.0
 20
12410.0
 10
7010.0
 20
12410.0
 10
6986.706285940773
 20
12413.066675633983
 10
6965.0
 20
12422.0577136594
 10
6946.360389693211
 20
12436.36038969321
 10
6932.0577136594
 20
12455.0
 10
6923.066675633983
 20
12476.706285940772
 10
6920.0
 20
12500.0
 10
6920.0
 20
12800.0
 10
6923.066675633983
 20
12823.293714059228
 10
6932.0577136594
 20
12845.0
 10
6946.360389693211
 20
12863.63961030679
 10
6965.0
 20
12877.9422863406
 10
6986.706285940773
 20
12886.933324366017
 10
7010.0
 20
12890.0
  0
LINE
  5
139
330
17
100
AcDbEntity
  8
A-FURN
100
AcDbLine
 10
6990.0
 20
12850.0
 30
0.0
 11
6990.0
 21
12450.0
 31
0.0
  0
LWPOLYLINE
  5
13A
330
17
100
AcDbEntity
  8
A-FURN
100
AcDbPolyline
 90
28
 70
1
 10
10690.0
 20
12890.0
 10
10713.293714059226
 20
12886.933324366017
 10
10735.0
 20
12877.9422863406
 10
10753.63961030679
 20
12863.63961030679
 10
10767.9422863406
 20
12845.0
 10
10776.933324366015
 20
12823.293714059228
 10
10780.0
 20
12800.0
 10
10780.0
 20
12500.0
 10
10776.933324366015
 20
12476.706285940772
 10
10767.9422863406
 20
12455.0
 10
10753.63961030679
 20
12436.36038969321
 10
10735.0
 20
12422.0577136594
 10
10713.293714059226
 20
12413.066675633983
 10
10690.0
 20
12410.0
 10
10390.0
 20
12410.0
 10
10366.706285940774
 20
12413.066675633983
 10
10345.0
 20
12422.0577136594
 10
10326.36038969321
 20
12436.36038969321
 10
10312.0577136594
 20
12455.0
 10
10303.066675633985
 20
12476.706285940772
 10
10300.0
 20
12500.0
 10
10300.0
 20
12800.0
 10
10303.066675633985
 20
12823.293714059228
 10
10312.0577136594
 20
12845.0
 10
10326.36038969321
 20
12863.63961030679
 10
10345.0
 20
12877.9422863406
 10
10366.706285940774
 20
12886.933324366017
 10
10390.0
 20
12890.0
  0
LINE
  5
13B
330
17
100
AcDbEntity
  8
A-FURN
100
AcDbLine
 10
10710.0
 20
12850.0
 30
0.0
 11
10710.0
 21
12450.0
 31
0.0
  0
LWPOLYLINE
  5
13C
330
17
100
AcDbEntity
  8
A-FIXT
100
AcDbPolyline
 90
4
 70
1
 10
7800.0
 20
10950.0
 10
10600.0
 20
10950.0
 10
10600.0
 20
10350.0
 10
7800.0
 20
10350.0
  0
LWPOLYLINE
  5
13D
330
17
100
AcDbEntity
  8
A-FIXT
100
AcDbPolyline
 90
28
 70
1
 10
8910.0
 20
10890.0
 10
8920.3527618041
 20
10888.637033051564
 10
8930.0
 20
10884.641016151378
 10
8938.284271247463
 20
10878.284271247461
 10
8944.641016151378
 20
10870.0
 10
8948.637033051564
 20
10860.3527618041
 10
8950.0
 20
10850.0
 10
8950.0
 20
10450.0
 10
8948.637033051564
 20
10439.6472381959
 10
8944.641016151378
 20
10430.0
 10
8938.284271247463
 20
10421.715728752539
 10
8930.0
 20
10415.358983848622
 10
8920.3527618041
 20
10411.362966948436
 10
8910.0
 20
10410.0
 10
8440.0
 20
10410.0
 10
8429.6472381959
 20
10411.362966948436
 10
8420.0
 20
10415.358983848622
 10
8411.715728752539
 20
10421.715728752537
 10
8405.358983848622
 20
10430.0
 10
8401.362966948436
 20
10439.6472381959
 10
8400.0
 20
10450.0
 10
8400.0
 20
10850.0
 10
8401.362966948436
 20
10860.3527618041
 10
8405.358983848622
 20
10870.0
 10
8411.715728752537
 20
10878.284271247461
 10
8420.0
 20
10884.641016151378
 10
8429.6472381959
 20
10888.637033051564
 10
8440.0
 20
10890.0
  0
LWPOLYLINE
  5
13E
330
17
100
AcDbEntity
  8
A-FIXT
100
AcDbPolyline
 90
28
 70
1
 10
8840.0
 20
10840.0
 10
8855.529142706151
 20
10837.955549577344
 10
8870.0
 20
10831.961524227067
 10
8882.426406871193
 20
10822.426406871193
 10
8891.961524227067
 20
10810.0
 10
8897.955549577344
 20
10795.529142706151
 10
8900.0
 20
10780.0
 10
8900.0
 20
10520.0
 10
8897.955549577344
 20
10504.470857293849
 10
8891.961524227067
 20
10490.0
 10
8882.426406871193
 20
10477.573593128807
 10
8870.0
 20
10468.038475772933
 10
8855.529142706151
 20
10462.044450422656
 10
8840.0
 20
10460.0
 10
8510.0
 20
10460.0
 10
8494.470857293849
 20
10462.044450422656
 10
8480.0
 20
10468.038475772933
 10
8467.573593128807
 20
10477.573593128807
 10
8458.038475772933
 20
10490.0
 10
8452.044450422656
 20
10504.470857293849
 10
8450.0
 20
10520.0
 10
8450.0
 20
10780.0
 10
8452.044450422656
 20
10795.529142706151
 10
8458.038475772933
 20
10810.0
 10
8467.573593128807
 20
10822.426406871193
 10
8480.0
 20
10831.961524227067
 10
8494.470857293849
 20
10837.955549577344
 10
8510.0
 20
10840.0
  0
CIRCLE
  5
13F
330
17
100
AcDbEntity
  8
A-FIXT
100
AcDbCircle
 10
8675.0
 20
10650.0
 30
0.0
 40
35.0
  0
CIRCLE
  5
140
330
17
100
AcDbEntity
  8
A-FIXT
100
AcDbCircle
 10
8675.0
 20
10860.0
 30
0.0
 40
25.0
  0
LWPOLYLINE
  5
141
330
17
100
AcDbEntity
  8
A-FIXT
100
AcDbPolyline
 90
4
 70
1
 10
9550.0
 20
10900.0
 10
10000.0
 20
10900.0
 10
10000.0
 20
10400.0
 10
9550.0
 20
10400.0
  0
CIRCLE
  5
142
330
17
100
AcDbEntity
  8
A-FIXT
100
AcDbCircle
 10
9775.0
 20
10770.0
 30
0.0
 40
105.0
  0
CIRCLE
  5
143
330
17
100
AcDbEntity
  8
A-FIXT
100
AcDbCircle
 10
9775.0
 20
10530.0
 30
0.0
 40
105.0
  0
LWPOLYLINE
  5
144
330
17
100
AcDbEntity
  8
A-FIXT
100
AcDbPolyline
 90
4
 70
1
 10
7150.0
 20
8650.0
 10
7800.0
 20
8650.0
 10
7800.0
 20
8050.0
 10
7150.0
 20
8050.0
  0
LINE
  5
145
330
17
100
AcDbEntity
  8
A-FIXT
100
AcDbLine
 10
7355.0
 20
8350.0
 30
0.0
 11
7595.0
 21
8350.0
 31
0.0
  0
LINE
  5
146
330
17
100
AcDbEntity
  8
A-FIXT
100
AcDbLine
 10
7415.0
 20
8453.923048454133
 30
0.0
 11
7535.0
 21
8246.076951545867
 31
0.0
  0
LINE
  5
147
330
17
100
AcDbEntity
  8
A-FIXT
100
AcDbLine
 10
7535.0
 20
8453.923048454133
 30
0.0
 11
7415.0
 21
8246.076951545867
 31
0.0
  0
ARC
  5
148
330
17
100
AcDbEntity
  8
A-DOOR-SWING
100
AcDbCircle
 10
7150.0
 20
8650.0
 30
0.0
 40
650.0
100
AcDbArc
 50
-360.0
 51
-270.0
  0
LWPOLYLINE
  5
149
330
17
100
AcDbEntity
  8
A-FURN
100
AcDbPolyline
 90
4
 70
1
 10
8850.0
 20
8800.0
 10
10000.0
 20
8800.0
 10
10000.0
 20
8200.0
 10
8850.0
 20
8200.0
  0
LWPOLYLINE
  5
14A
330
17
100
AcDbEntity
  8
A-FURN
100
AcDbPolyline
 90
28
 70
1
 10
9290.0
 20
9280.0
 10
9313.293714059226
 20
9276.933324366015
 10
9335.0
 20
9267.9422863406
 10
9353.63961030679
 20
9253.63961030679
 10
9367.9422863406
 20
9235.0
 10
9376.933324366015
 20
9213.293714059226
 10
9380.0
 20
9190.0
 10
9380.0
 20
8890.0
 10
9376.933324366015
 20
8866.706285940774
 10
9367.9422863406
 20
8845.0
 10
9353.63961030679
 20
8826.36038969321
 10
9335.0
 20
8812.0577136594
 10
9313.293714059226
 20
8803.066675633985
 10
9290.0
 20
8800.0
 10
8990.0
 20
8800.0
 10
8966.706285940774
 20
8803.066675633985
 10
8945.0
 20
8812.0577136594
 10
8926.36038969321
 20
8826.36038969321
 10
8912.0577136594
 20
8845.0
 10
8903.066675633983
 20
8866.706285940774
 10
8900.0
 20
8890.0
 10
8900.0
 20
9190.0
 10
8903.066675633983
 20
9213.293714059226
 10
8912.0577136594
 20
9235.0
 10
8926.36038969321
 20
9253.63961030679
 10
8945.0
 20
9267.9422863406
 10
8966.706285940774
 20
9276.933324366015
 10
8990.0
 20
9280.0
  0
LINE
  5
14B
330
17
100
AcDbEntity
  8
A-FURN
100
AcDbLine
 10
8940.0
 20
9210.0
 30
0.0
 11
9340.0
 21
9210.0
 31
0.0
  0
LWPOLYLINE
  5
14C
330
17
100
AcDbEntity
  8
A-FURN
100
AcDbPolyline
 90
28
 70
1
 10
9860.0
 20
9280.0
 10
9883.293714059226
 20
9276.933324366015
 10
9905.0
 20
9267.9422863406
 10
9923.63961030679
 20
9253.63961030679
 10
9937.9422863406
 20
9235.0
 10
9946.933324366015
 20
9213.293714059226
 10
9950.0
 20
9190.0
 10
9950.0
 20
8890.0
 10
9946.933324366015
 20
8866.706285940774
 10
9937.9422863406
 20
8845.0
 10
9923.63961030679
 20
8826.36038969321
 10
9905.0
 20
8812.0577136594
 10
9883.293714059226
 20
8803.066675633985
 10
9860.0
 20
8800.0
 10
9560.0
 20
8800.0
 10
9536.706285940774
 20
8803.066675633985
 10
9515.0
 20
8812.0577136594
 10
9496.36038969321
 20
8826.36038969321
 10
9482.0577136594
 20
8845.0
 10
9473.066675633985
 20
8866.706285940774
 10
9470.0
 20
8890.0
 10
9470.0
 20
9190.0
 10
9473.066675633985
 20
9213.293714059226
 10
9482.0577136594
 20
9235.0
 10
9496.36038969321
 20
9253.63961030679
 10
9515.0
 20
9267.9422863406
 10
9536.706285940774
 20
9276.933324366015
 10
9560.0
 20
9280.0
  0
LINE
  5
14D
330
17
100
AcDbEntity
  8
A-FURN
100
AcDbLine
 10
9510.0
 20
9210.0
 30
0.0
 11
9910.0
 21
9210.0
 31
0.0
  0
LWPOLYLINE
  5
14E
330
17
100
AcDbEntity
  8
A-FURN
100
AcDbPolyline
 90
28
 70
1
 10
8750.0
 20
8740.0
 10
8773.293714059226
 20
8736.933324366015
 10
8795.0
 20
8727.9422863406
 10
8813.63961030679
 20
8713.63961030679
 10
8827.9422863406
 20
8695.0
 10
8836.933324366017
 20
8673.293714059226
 10
8840.0
 20
8650.0
 10
8840.0
 20
8350.0
 10
8836.933324366017
 20
8326.706285940774
 10
8827.9422863406
 20
8305.0
 10
8813.63961030679
 20
8286.36038969321
 10
8795.0
 20
8272.0577136594
 10
8773.293714059226
 20
8263.066675633985
 10
8750.0
 20
8260.0
 10
8450.0
 20
8260.0
 10
8426.706285940774
 20
8263.066675633985
 10
8405.0
 20
8272.0577136594
 10
8386.36038969321
 20
8286.36038969321
 10
8372.0577136594
 20
8305.0
 10
8363.066675633983
 20
8326.706285940774
 10
8360.0
 20
8350.0
 10
8360.0
 20
8650.0
 10
8363.066675633983
 20
8673.293714059226
 10
8372.0577136594
 20
8695.0
 10
8386.36038969321
 20
8713.63961030679
 10
8405.0
 20
8727.9422863406
 10
8426.706285940774
 20
8736.933324366015
 10
8450.0
 20
8740.0
  0
LINE
  5
14F
330
17
100
AcDbEntity
  8
A-FURN
100
AcDbLine
 10
8430.0
 20
8700.0
 30
0.0
 11
8430.0
 21
8300.0
 31
0.0
  0
LWPOLYLINE
  5
150
330
17
100
AcDbEntity
  8
A-FURN
100
AcDbPolyline
 90
28
 70
1
 10
10400.0
 20
8740.0
 10
10423.293714059226
 20
8736.933324366015
 10
10445.0
 20
8727.9422863406
 10
10463.63961030679
 20
8713.63961030679
 10
10477.9422863406
 20
8695.0
 10
10486.933324366015
 20
8673.293714059226
 10
10490.0
 20
8650.0
 10
10490.0
 20
8350.0
 10
10486.933324366015
 20
8326.706285940774
 10
10477.9422863406
 20
8305.0
 10
10463.63961030679
 20
8286.36038969321
 10
10445.0
 20
8272.0577136594
 10
10423.293714059226
 20
8263.066675633985
 10
10400.0
 20
8260.0
 10
10100.0
 20
8260.0
 10
10076.706285940774
 20
8263.066675633985
 10
10055.0
 20
8272.0577136594
 10
10036.36038969321
 20
8286.36038969321
 10
10022.0577136594
 20
8305.0
 10
10013.066675633985
 20
8326.706285940774
 10
10010.0
 20
8350.0
 10
10010.0
 20
8650.0
 10
10013.066675633985
 20
8673.293714059226
 10
10022.0577136594
 20
8695.0
 10
10036.36038969321
 20
8713.63961030679
 10
10055.0
 20
8727.9422863406
 10
10076.706285940774
 20
8736.933324366015
 10
10100.0
 20
8740.0
  0
LINE
  5
151
330
17
100
AcDbEntity
  8
A-FURN
100
AcDbLine
 10
10420.0
 20
8700.0
 30
0.0
 11
10420.0
 21
8300.0
 31
0.0
  0
LWPOLYLINE
  5
152
330
17
100
AcDbEntity
  8
A-FIXT
100
AcDbPolyline
 90
4
 70
1
 10
10900.0
 20
11200.0
 10
11050.0
 20
11200.0
 10
11050.0
 20
10000.0
 10
10900.0
 20
10000.0
  0
LINE
  5
153
330
17
100
AcDbEntity
  8
A-FIXT
100
AcDbLine
 10
10900.0
 20
11150.0
 30
0.0
 11
11050.0
 21
11090.0
 31
0.0
  0
LINE
  5
154
330
17
100
AcDbEntity
  8
A-FIXT
100
AcDbLine
 10
10900.0
 20
11050.0
 30
0.0
 11
11050.0
 21
10990.0
 31
0.0
  0
LINE
  5
155
330
17
100
AcDbEntity
  8
A-FIXT
100
AcDbLine
 10
10900.0
 20
10950.0
 30
0.0
 11
11050.0
 21
10890.0
 31
0.0
  0
LINE
  5
156
330
17
100
AcDbEntity
  8
A-FIXT
100
AcDbLine
 10
10900.0
 20
10850.0
 30
0.0
 11
11050.0
 21
10790.0
 31
0.0
  0
LINE
  5
157
330
17
100
AcDbEntity
  8
A-FIXT
100
AcDbLine
 10
10900.0
 20
10750.0
 30
0.0
 11
11050.0
 21
10690.0
 31
0.0
  0
LINE
  5
158
330
17
100
AcDbEntity
  8
A-FIXT
100
AcDbLine
 10
10900.0
 20
10650.0
 30
0.0
 11
11050.0
 21
10590.0
 31
0.0
  0
LINE
  5
159
330
17
100
AcDbEntity
  8
A-FIXT
100
AcDbLine
 10
10900.0
 20
10550.0
 30
0.0
 11
11050.0
 21
10490.0
 31
0.0
  0
LINE
  5
15A
330
17
100
AcDbEntity
  8
A-FIXT
100
AcDbLine
 10
10900.0
 20
10450.0
 30
0.0
 11
11050.0
 21
10390.0
 31
0.0
  0
LINE
  5
15B
330
17
100
AcDbEntity
  8
A-FIXT
100
AcDbLine
 10
10900.0
 20
10350.0
 30
0.0
 11
11050.0
 21
10290.0
 31
0.0
  0
LINE
  5
15C
330
17
100
AcDbEntity
  8
A-FIXT
100
AcDbLine
 10
10900.0
 20
10250.0
 30
0.0
 11
11050.0
 21
10190.0
 31
0.0
  0
LINE
  5
15D
330
17
100
AcDbEntity
  8
A-FIXT
100
AcDbLine
 10
10900.0
 20
10150.0
 30
0.0
 11
11050.0
 21
10090.0
 31
0.0
  0
LWPOLYLINE
  5
15E
330
17
100
AcDbEntity
  8
A-FURN
100
AcDbPolyline
 90
4
 70
1
 10
6400.0
 20
6450.0
 10
8000.0
 20
6450.0
 10
8000.0
 20
5950.0
 10
6400.0
 20
5950.0
  0
LINE
  5
15F
330
17
100
AcDbEntity
  8
A-FURN
100
AcDbLine
 10
6450.0
 20
6200.0
 30
0.0
 11
7950.0
 21
6200.0
 31
0.0
  0
LINE
  5
160
330
17
100
AcDbEntity
  8
A-FURN
100
AcDbLine
 10
6480.0
 20
6375.0
 30
0.0
 11
6560.0
 21
6025.0
 31
0.0
  0
LINE
  5
161
330
17
100
AcDbEntity
  8
A-FURN
100
AcDbLine
 10
6640.0
 20
6375.0
 30
0.0
 11
6720.0
 21
6025.0
 31
0.0
  0
LINE
  5
162
330
17
100
AcDbEntity
  8
A-FURN
100
AcDbLine
 10
6800.0
 20
6375.0
 30
0.0
 11
6880.0
 21
6025.0
 31
0.0
  0
LINE
  5
163
330
17
100
AcDbEntity
  8
A-FURN
100
AcDbLine
 10
6960.0
 20
6375.0
 30
0.0
 11
7040.0
 21
6025.0
 31
0.0
  0
LINE
  5
164
330
17
100
AcDbEntity
  8
A-FURN
100
AcDbLine
 10
7120.0
 20
6375.0
 30
0.0
 11
7200.0
 21
6025.0
 31
0.0
  0
LINE
  5
165
330
17
100
AcDbEntity
  8
A-FURN
100
AcDbLine
 10
7280.0
 20
6375.0
 30
0.0
 11
7360.0
 21
6025.0
 31
0.0
  0
LINE
  5
166
330
17
100
AcDbEntity
  8
A-FURN
100
AcDbLine
 10
7440.0
 20
6375.0
 30
0.0
 11
7520.0
 21
6025.0
 31
0.0
  0
LINE
  5
167
330
17
100
AcDbEntity
  8
A-FURN
100
AcDbLine
 10
7600.0
 20
6375.0
 30
0.0
 11
7680.0
 21
6025.0
 31
0.0
  0
LINE
  5
168
330
17
100
AcDbEntity
  8
A-FURN
100
AcDbLine
 10
7760.0
 20
6375.0
 30
0.0
 11
7840.0
 21
6025.0
 31
0.0
  0
LWPOLYLINE
  5
169
330
17
100
AcDbEntity
  8
A-FURN
100
AcDbPolyline
 90
28
 70
1
 10
7940.0
 20
4725.0
 10
7955.529142706151
 20
4722.955549577344
 10
7970.0
 20
4716.961524227067
 10
7982.426406871193
 20
4707.426406871193
 10
7991.961524227067
 20
4695.0
 10
7997.955549577344
 20
4680.529142706151
 10
8000.0
 20
4665.0
 10
8000.0
 20
2785.0
 10
7997.955549577344
 20
2769.470857293849
 10
7991.961524227067
 20
2755.0
 10
7982.426406871193
 20
2742.5735931288073
 10
7970.0
 20
2733.0384757729335
 10
7955.529142706151
 20
2727.044450422656
 10
7940.0
 20
2725.0
 10
5910.0
 20
2725.0
 10
5894.470857293849
 20
2727.044450422656
 10
5880.0
 20
2733.0384757729335
 10
5867.573593128807
 20
2742.5735931288073
 10
5858.038475772933
 20
2755.0
 10
5852.044450422656
 20
2769.470857293849
 10
5850.0
 20
2785.0
 10
5850.0
 20
4665.0
 10
5852.044450422656
 20
4680.529142706151
 10
5858.038475772933
 20
4695.0
 10
5867.573593128807
 20
4707.426406871193
 10
5880.0
 20
4716.961524227067
 10
5894.470857293849
 20
4722.955549577344
 10
5910.0
 20
4725.0
  0
LINE
  5
16A
330
17
100
AcDbEntity
  8
A-FURN
100
AcDbLine
 10
7920.0
 20
4725.0
 30
0.0
 11
7920.0
 21
2725.0
 31
0.0
  0
LWPOLYLINE
  5
16B
330
17
100
AcDbEntity
  8
A-FURN
100
AcDbPolyline
 90
28
 70
1
 10
7810.0
 20
4565.0
 10
7825.529142706151
 20
4562.955549577344
 10
7840.0
 20
4556.961524227067
 10
7852.426406871193
 20
4547.426406871193
 10
7861.961524227067
 20
4535.0
 10
7867.955549577344
 20
4520.529142706151
 10
7870.0
 20
4505.0
 10
7870.0
 20
3865.0
 10
7867.955549577344
 20
3849.470857293849
 10
7861.961524227067
 20
3835.0
 10
7852.426406871193
 20
3822.5735931288073
 10
7840.0
 20
3813.0384757729335
 10
7825.529142706151
 20
3807.044450422656
 10
7810.0
 20
3805.0
 10
7530.0
 20
3805.0
 10
7514.470857293849
 20
3807.044450422656
 10
7500.0
 20
3813.0384757729335
 10
7487.573593128807
 20
3822.5735931288073
 10
7478.038475772933
 20
3835.0
 10
7472.044450422656
 20
3849.470857293849
 10
7470.0
 20
3865.0
 10
7470.0
 20
4505.0
 10
7472.044450422656
 20
4520.529142706151
 10
7478.038475772933
 20
4535.0
 10
7487.573593128807
 20
4547.426406871193
 10
7500.0
 20
4556.961524227067
 10
7514.470857293849
 20
4562.955549577344
 10
7530.0
 20
4565.0
  0
LWPOLYLINE
  5
16C
330
17
100
AcDbEntity
  8
A-FURN
100
AcDbPolyline
 90
28
 70
1
 10
7810.0
 20
3645.0
 10
7825.529142706151
 20
3642.955549577344
 10
7840.0
 20
3636.9615242270665
 10
7852.426406871193
 20
3627.4264068711927
 10
7861.961524227067
 20
3615.0
 10
7867.955549577344
 20
3600.529142706151
 10
7870.0
 20
3585.0
 10
7870.0
 20
2945.0
 10
7867.955549577344
 20
2929.470857293849
 10
7861.961524227067
 20
2915.0
 10
7852.426406871193
 20
2902.5735931288073
 10
7840.0
 20
2893.0384757729335
 10
7825.529142706151
 20
2887.044450422656
 10
7810.0
 20
2885.0
 10
7530.0
 20
2885.0
 10
7514.470857293849
 20
2887.044450422656
 10
7500.0
 20
2893.0384757729335
 10
7487.573593128807
 20
2902.5735931288073
 10
7478.038475772933
 20
2915.0
 10
7472.044450422656
 20
2929.470857293849
 10
7470.0
 20
2945.0
 10
7470.0
 20
3585.0
 10
7472.044450422656
 20
3600.529142706151
 10
7478.038475772933
 20
3615.0
 10
7487.573593128807
 20
3627.4264068711927
 10
7500.0
 20
3636.9615242270665
 10
7514.470857293849
 20
3642.955549577344
 10
7530.0
 20
3645.0
  0
LINE
  5
16D
330
17
100
AcDbEntity
  8
A-FURN
100
AcDbLine
 10
7350.0
 20
4725.0
 30
0.0
 11
7350.0
 21
2725.0
 31
0.0
  0
LWPOLYLINE
  5
16E
330
17
100
AcDbEntity
  8
A-FURN
100
AcDbPolyline
 90
3
 70
1
 10
7350.0
 20
2725.0
 10
6970.0
 20
2725.0
 10
7350.0
 20
3105.0
  0
LWPOLYLINE
  5
16F
330
17
100
AcDbEntity
  8
A-FURN
100
AcDbPolyline
 90
4
 70
1
 10
7550.0
 20
5175.0
 10
8000.0
 20
5175.0
 10
8000.0
 20
4775.0
 10
7550.0
 20
4775.0
  0
CIRCLE
  5
170
330
17
100
AcDbEntity
  8
A-FURN
100
AcDbCircle
 10
7775.0
 20
4975.0
 30
0.0
 40
120.0
  0
LWPOLYLINE
  5
171
330
17
100
AcDbEntity
  8
A-FURN
100
AcDbPolyline
 90
4
 70
1
 10
7550.0
 20
2675.0
 10
8000.0
 20
2675.0
 10
8000.0
 20
2275.0
 10
7550.0
 20
2275.0
  0
CIRCLE
  5
172
330
17
100
AcDbEntity
  8
A-FURN
100
AcDbCircle
 10
7775.0
 20
2475.0
 30
0.0
 40
120.0
  0
LWPOLYLINE
  5
173
330
17
100
AcDbEntity
  8
A-FURN
100
AcDbPolyline
 90
4
 70
1
 10
7300.0
 20
1700.0
 10
8000.0
 20
1700.0
 10
8000.0
 20
300.0
 10
7300.0
 20
300.0
  0
LINE
  5
174
330
17
100
AcDbEntity
  8
A-FURN
100
AcDbLine
 10
7910.0
 20
1350.0
 30
0.0
 11
7910.0
 21
850.0
 31
0.0
  0
LINE
  5
175
330
17
100
AcDbEntity
  8
A-FURN
100
AcDbLine
 10
7890.0
 20
1350.0
 30
0.0
 11
7890.0
 21
850.0
 31
0.0
  0
LWPOLYLINE
  5
176
330
17
100
AcDbEntity
  8
A-FURN
100
AcDbPolyline
 90
4
 70
1
 10
6810.975855989447
 20
1299.115150036032
 10
7313.257285659763
 20
1164.5292465827224
 10
7189.024144010553
 20
700.884849963968
 10
6686.742714340237
 20
835.4707534172776
  0
LWPOLYLINE
  5
177
330
17
100
AcDbEntity
  8
A-FURN
100
AcDbPolyline
 90
4
 70
1
 10
6786.827710332221
 20
1305.5856261635945
 10
6873.7610346982365
 20
1282.2919121043687
 10
6749.527893049027
 20
818.6475154856143
 10
6662.594568683011
 20
841.9412295448401
  0
LWPOLYLINE
  5
178
330
17
100
AcDbEntity
  8
A-FURN
100
AcDbPolyline
 90
4
 70
1
 10
9400.0
 20
7800.0
 10
11350.0
 20
7800.0
 10
11350.0
 20
7200.0
 10
9400.0
 20
7200.0
  0
LINE
  5
179
330
17
100
AcDbEntity
  8
A-FURN
100
AcDbLine
 10
9450.0
 20
7500.0
 30
0.0
 11
11300.0
 21
7500.0
 31
0.0
  0
LINE
  5
17A
330
17
100
AcDbEntity
  8
A-FURN
100
AcDbLine
 10
9480.0
 20
7710.0
 30
0.0
 11
9560.0
 21
7290.0
 31
0.0
  0
LINE
  5
17B
330
17
100
AcDbEntity
  8
A-FURN
100
AcDbLine
 10
9640.0
 20
7710.0
 30
0.0
 11
9720.0
 21
7290.0
 31
0.0
  0
LINE
  5
17C
330
17
100
AcDbEntity
  8
A-FURN
100
AcDbLine
 10
9800.0
 20
7710.0
 30
0.0
 11
9880.0
 21
7290.0
 31
0.0
  0
LINE
  5
17D
330
17
100
AcDbEntity
  8
A-FURN
100
AcDbLine
 10
9960.0
 20
7710.0
 30
0.0
 11
10040.0
 21
7290.0
 31
0.0
  0
LINE
  5
17E
330
17
100
AcDbEntity
  8
A-FURN
100
AcDbLine
 10
10120.0
 20
7710.0
 30
0.0
 11
10200.0
 21
7290.0
 31
0.0
  0
LINE
  5
17F
330
17
100
AcDbEntity
  8
A-FURN
100
AcDbLine
 10
10280.0
 20
7710.0
 30
0.0
 11
10360.0
 21
7290.0
 31
0.0
  0
LINE
  5
180
330
17
100
AcDbEntity
  8
A-FURN
100
AcDbLine
 10
10440.0
 20
7710.0
 30
0.0
 11
10520.0
 21
7290.0
 31
0.0
  0
LINE
  5
181
330
17
100
AcDbEntity
  8
A-FURN
100
AcDbLine
 10
10600.0
 20
7710.0
 30
0.0
 11
10680.0
 21
7290.0
 31
0.0
  0
LINE
  5
182
330
17
100
AcDbEntity
  8
A-FURN
100
AcDbLine
 10
10760.0
 20
7710.0
 30
0.0
 11
10840.0
 21
7290.0
 31
0.0
  0
LINE
  5
183
330
17
100
AcDbEntity
  8
A-FURN
100
AcDbLine
 10
10920.0
 20
7710.0
 30
0.0
 11
11000.0
 21
7290.0
 31
0.0
  0
LINE
  5
184
330
17
100
AcDbEntity
  8
A-FURN
100
AcDbLine
 10
11080.0
 20
7710.0
 30
0.0
 11
11160.0
 21
7290.0
 31
0.0
  0
LWPOLYLINE
  5
185
330
17
100
AcDbEntity
  8
A-FURN
100
AcDbPolyline
 90
28
 70
1
 10
10290.0
 20
4925.0
 10
10305.529142706151
 20
4922.955549577344
 10
10320.0
 20
4916.961524227067
 10
10332.426406871193
 20
4907.426406871193
 10
10341.961524227067
 20
4895.0
 10
10347.955549577344
 20
4880.529142706151
 10
10350.0
 20
4865.0
 10
10350.0
 20
2985.0
 10
10347.955549577344
 20
2969.470857293849
 10
10341.961524227067
 20
2955.0
 10
10332.426406871193
 20
2942.5735931288073
 10
10320.0
 20
2933.0384757729335
 10
10305.529142706151
 20
2927.044450422656
 10
10290.0
 20
2925.0
 10
8260.0
 20
2925.0
 10
8244.470857293849
 20
2927.044450422656
 10
8230.0
 20
2933.0384757729335
 10
8217.573593128807
 20
2942.5735931288073
 10
8208.038475772933
 20
2955.0
 10
8202.044450422656
 20
2969.470857293849
 10
8200.0
 20
2985.0
 10
8200.0
 20
4865.0
 10
8202.044450422656
 20
4880.529142706151
 10
8208.038475772933
 20
4895.0
 10
8217.573593128807
 20
4907.426406871193
 10
8230.0
 20
4916.961524227067
 10
8244.470857293849
 20
4922.955549577344
 10
8260.0
 20
4925.0
  0
LINE
  5
186
330
17
100
AcDbEntity
  8
A-FURN
100
AcDbLine
 10
8280.0
 20
4925.0
 30
0.0
 11
8280.0
 21
2925.0
 31
0.0
  0
LWPOLYLINE
  5
187
330
17
100
AcDbEntity
  8
A-FURN
100
AcDbPolyline
 90
28
 70
1
 10
8670.0
 20
4765.0
 10
8685.529142706151
 20
4762.955549577344
 10
8700.0
 20
4756.961524227067
 10
8712.426406871193
 20
4747.426406871193
 10
8721.961524227067
 20
4735.0
 10
8727.955549577344
 20
4720.529142706151
 10
8730.0
 20
4705.0
 10
8730.0
 20
4065.0
 10
8727.955549577344
 20
4049.470857293849
 10
8721.961524227067
 20
4035.0
 10
8712.426406871193
 20
4022.5735931288073
 10
8700.0
 20
4013.0384757729335
 10
8685.529142706151
 20
4007.044450422656
 10
8670.0
 20
4005.0
 10
8390.0
 20
4005.0
 10
8374.470857293849
 20
4007.044450422656
 10
8360.0
 20
4013.0384757729335
 10
8347.573593128807
 20
4022.5735931288073
 10
8338.038475772933
 20
4035.0
 10
8332.044450422656
 20
4049.470857293849
 10
8330.0
 20
4065.0
 10
8330.0
 20
4705.0
 10
8332.044450422656
 20
4720.529142706151
 10
8338.038475772933
 20
4735.0
 10
8347.573593128807
 20
4747.426406871193
 10
8360.0
 20
4756.961524227067
 10
8374.470857293849
 20
4762.955549577344
 10
8390.0
 20
4765.0
  0
LWPOLYLINE
  5
188
330
17
100
AcDbEntity
  8
A-FURN
100
AcDbPolyline
 90
28
 70
1
 10
8670.0
 20
3845.0
 10
8685.529142706151
 20
3842.955549577344
 10
8700.0
 20
3836.9615242270665
 10
8712.426406871193
 20
3827.4264068711927
 10
8721.961524227067
 20
3815.0
 10
8727.955549577344
 20
3800.529142706151
 10
8730.0
 20
3785.0
 10
8730.0
 20
3145.0
 10
8727.955549577344
 20
3129.470857293849
 10
8721.961524227067
 20
3115.0
 10
8712.426406871193
 20
3102.5735931288073
 10
8700.0
 20
3093.0384757729335
 10
8685.529142706151
 20
3087.044450422656
 10
8670.0
 20
3085.0
 10
8390.0
 20
3085.0
 10
8374.470857293849
 20
3087.044450422656
 10
8360.0
 20
3093.0384757729335
 10
8347.573593128807
 20
3102.5735931288073
 10
8338.038475772933
 20
3115.0
 10
8332.044450422656
 20
3129.470857293849
 10
8330.0
 20
3145.0
 10
8330.0
 20
3785.0
 10
8332.044450422656
 20
3800.529142706151
 10
8338.038475772933
 20
3815.0
 10
8347.573593128807
 20
3827.4264068711927
 10
8360.0
 20
3836.9615242270665
 10
8374.470857293849
 20
3842.955549577344
 10
8390.0
 20
3845.0
  0
LINE
  5
189
330
17
100
AcDbEntity
  8
A-FURN
100
AcDbLine
 10
8850.0
 20
4925.0
 30
0.0
 11
8850.0
 21
2925.0
 31
0.0
  0
LWPOLYLINE
  5
18A
330
17
100
AcDbEntity
  8
A-FURN
100
AcDbPolyline
 90
3
 70
1
 10
8850.0
 20
2925.0
 10
9230.0
 20
2925.0
 10
8850.0
 20
3305.0
  0
LWPOLYLINE
  5
18B
330
17
100
AcDbEntity
  8
A-FURN
100
AcDbPolyline
 90
4
 70
1
 10
8200.0
 20
5375.0
 10
8650.0
 20
5375.0
 10
8650.0
 20
4975.0
 10
8200.0
 20
4975.0
  0
CIRCLE
  5
18C
330
17
100
AcDbEntity
  8
A-FURN
100
AcDbCircle
 10
8425.0
 20
5175.0
 30
0.0
 40
120.0
  0
LWPOLYLINE
  5
18D
330
17
100
AcDbEntity
  8
A-FURN
100
AcDbPolyline
 90
4
 70
1
 10
8200.0
 20
2875.0
 10
8650.0
 20
2875.0
 10
8650.0
 20
2475.0
 10
8200.0
 20
2475.0
  0
CIRCLE
  5
18E
330
17
100
AcDbEntity
  8
A-FURN
100
AcDbCircle
 10
8425.0
 20
2675.0
 30
0.0
 40
120.0
  0
LWPOLYLINE
  5
18F
330
17
100
AcDbEntity
  8
A-FURN
100
AcDbPolyline
 90
4
 70
1
 10
8200.0
 20
1700.0
 10
8900.0
 20
1700.0
 10
8900.0
 20
300.0
 10
8200.0
 20
300.0
  0
LINE
  5
190
330
17
100
AcDbEntity
  8
A-FURN
100
AcDbLine
 10
8290.0
 20
1350.0
 30
0.0
 11
8290.0
 21
850.0
 31
0.0
  0
LINE
  5
191
330
17
100
AcDbEntity
  8
A-FURN
100
AcDbLine
 10
8270.0
 20
1350.0
 30
0.0
 11
8270.0
 21
850.0
 31
0.0
  0
LWPOLYLINE
  5
192
330
17
100
AcDbEntity
  8
A-FURN
100
AcDbPolyline
 90
4
 70
1
 10
9413.257285659762
 20
835.4707534172776
 10
8910.975855989447
 20
700.884849963968
 10
8786.742714340238
 20
1164.5292465827224
 10
9289.024144010553
 20
1299.115150036032
  0
LWPOLYLINE
  5
193
330
17
100
AcDbEntity
  8
A-FURN
100
AcDbPolyline
 90
4
 70
1
 10
9437.40543131699
 20
841.9412295448401
 10
9350.472106950972
 20
818.6475154856143
 10
9226.238965301764
 20
1282.2919121043687
 10
9313.172289667778
 20
1305.5856261635945
  0
CIRCLE
  5
194
330
17
100
AcDbEntity
  8
A-FURN
100
AcDbCircle
 10
10900.0
 20
650.0
 30
0.0
 40
330.0
  0
LINE
  5
195
330
17
100
AcDbEntity
  8
A-FURN
100
AcDbLine
 10
10900.0
 20
650.0
 30
0.0
 11
11204.880245728724
 21
523.7144673195198
 31
0.0
  0
LINE
  5
196
330
17
100
AcDbEntity
  8
A-FURN
100
AcDbLine
 10
10900.0
 20
650.0
 30
0.0
 11
11026.285532680478
 21
345.1197542712762
 31
0.0
  0
LINE
  5
197
330
17
100
AcDbEntity
  8
A-FURN
100
AcDbLine
 10
10900.0
 20
650.0
 30
0.0
 11
10773.714467319522
 21
345.1197542712762
 31
0.0
  0
LINE
  5
198
330
17
100
AcDbEntity
  8
A-FURN
100
AcDbLine
 10
10900.0
 20
650.0
 30
0.0
 11
10595.119754271276
 21
523.7144673195198
 31
0.0
  0
LINE
  5
199
330
17
100
AcDbEntity
  8
A-FURN
100
AcDbLine
 10
10900.0
 20
650.0
 30
0.0
 11
10595.119754271276
 21
776.2855326804802
 31
0.0
  0
LINE
  5
19A
330
17
100
AcDbEntity
  8
A-FURN
100
AcDbLine
 10
10900.0
 20
650.0
 30
0.0
 11
10773.714467319522
 21
954.8802457287238
 31
0.0
  0
LINE
  5
19B
330
17
100
AcDbEntity
  8
A-FURN
100
AcDbLine
 10
10900.0
 20
650.0
 30
0.0
 11
11026.285532680478
 21
954.8802457287238
 31
0.0
  0
LINE
  5
19C
330
17
100
AcDbEntity
  8
A-FURN
100
AcDbLine
 10
10900.0
 20
650.0
 30
0.0
 11
11204.880245728724
 21
776.2855326804802
 31
0.0
  0
CIRCLE
  5
19D
330
17
100
AcDbEntity
  8
A-TEXT
100
AcDbCircle
 10
2700.0
 20
13630.0
 30
0.0
 40
140.0
  0
TEXT
  5
19E
330
17
100
AcDbEntity
  8
A-TEXT
100
AcDbText
 10
2700.0
 20
13630.0
 30
0.0
 40
100.0
  1
1
  7
PLAN-BOLD
 72
1
 11
2700.0
 21
13630.0
 31
0.0
100
AcDbText
 73
2
  0
TEXT
  5
19F
330
17
100
AcDbEntity
  8
A-TEXT
100
AcDbText
 10
2700.0
 20
13300.0
 30
0.0
 40
150.0
  1
Прихожая
  7
PLAN-ITALIC
 72
1
 11
2700.0
 21
13300.0
 31
0.0
100
AcDbText
 73
2
  0
TEXT
  5
1A0
330
17
100
AcDbEntity
  8
A-TEXT
100
AcDbText
 10
2700.0
 20
13000.0
 30
0.0
 40
150.0
  1
5.8 м²
  7
PLAN-REGULAR
 72
1
 11
2700.0
 21
13000.0
 31
0.0
100
AcDbText
 73
2
  0
CIRCLE
  5
1A1
330
17
100
AcDbEntity
  8
A-TEXT
100
AcDbCircle
 10
5850.0
 20
9930.0
 30
0.0
 40
140.0
  0
TEXT
  5
1A2
330
17
100
AcDbEntity
  8
A-TEXT
100
AcDbText
 10
5850.0
 20
9930.0
 30
0.0
 40
100.0
  1
2
  7
PLAN-BOLD
 72
1
 11
5850.0
 21
9930.0
 31
0.0
100
AcDbText
 73
2
  0
TEXT
  5
1A3
330
17
100
AcDbEntity
  8
A-TEXT
100
AcDbText
 10
5850.0
 20
9600.0
 30
0.0
 40
150.0
  1
Коридор
  7
PLAN-ITALIC
 72
1
 11
5850.0
 21
9600.0
 31
0.0
100
AcDbText
 73
2
  0
TEXT
  5
1A4
330
17
100
AcDbEntity
  8
A-TEXT
100
AcDbText
 10
5850.0
 20
9300.0
 30
0.0
 40
150.0
  1
14.1 м²
  7
PLAN-REGULAR
 72
1
 11
5850.0
 21
9300.0
 31
0.0
100
AcDbText
 73
2
  0
CIRCLE
  5
1A5
330
17
100
AcDbEntity
  8
A-TEXT
100
AcDbCircle
 10
3800.0
 20
10950.0
 30
0.0
 40
140.0
  0
TEXT
  5
1A6
330
17
100
AcDbEntity
  8
A-TEXT
100
AcDbText
 10
3800.0
 20
10950.0
 30
0.0
 40
100.0
  1
3
  7
PLAN-BOLD
 72
1
 11
3800.0
 21
10950.0
 31
0.0
100
AcDbText
 73
2
  0
TEXT
  5
1A7
330
17
100
AcDbEntity
  8
A-TEXT
100
AcDbText
 10
3800.0
 20
10620.0
 30
0.0
 40
150.0
  1
С/У
  7
PLAN-ITALIC
 72
1
 11
3800.0
 21
10620.0
 31
0.0
100
AcDbText
 73
2
  0
TEXT
  5
1A8
330
17
100
AcDbEntity
  8
A-TEXT
100
AcDbText
 10
3800.0
 20
10320.0
 30
0.0
 40
150.0
  1
4.1 м²
  7
PLAN-REGULAR
 72
1
 11
3800.0
 21
10320.0
 31
0.0
100
AcDbText
 73
2
  0
CIRCLE
  5
1A9
330
17
100
AcDbEntity
  8
A-TEXT
100
AcDbCircle
 10
8850.0
 20
13130.0
 30
0.0
 40
140.0
  0
TEXT
  5
1AA
330
17
100
AcDbEntity
  8
A-TEXT
100
AcDbText
 10
8850.0
 20
13130.0
 30
0.0
 40
100.0
  1
4
  7
PLAN-BOLD
 72
1
 11
8850.0
 21
13130.0
 31
0.0
100
AcDbText
 73
2
  0
TEXT
  5
1AB
330
17
100
AcDbEntity
  8
A-TEXT
100
AcDbText
 10
8850.0
 20
12800.0
 30
0.0
 40
150.0
  1
Гостиная
  7
PLAN-ITALIC
 72
1
 11
8850.0
 21
12800.0
 31
0.0
100
AcDbText
 73
2
  0
TEXT
  5
1AC
330
17
100
AcDbEntity
  8
A-TEXT
100
AcDbText
 10
8850.0
 20
12500.0
 30
0.0
 40
150.0
  1
14.4 м²
  7
PLAN-REGULAR
 72
1
 11
8850.0
 21
12500.0
 31
0.0
100
AcDbText
 73
2
  0
CIRCLE
  5
1AD
330
17
100
AcDbEntity
  8
A-TEXT
100
AcDbCircle
 10
9250.0
 20
10130.0
 30
0.0
 40
140.0
  0
TEXT
  5
1AE
330
17
100
AcDbEntity
  8
A-TEXT
100
AcDbText
 10
9250.0
 20
10130.0
 30
0.0
 40
100.0
  1
5
  7
PLAN-BOLD
 72
1
 11
9250.0
 21
10130.0
 31
0.0
100
AcDbText
 73
2
  0
TEXT
  5
1AF
330
17
100
AcDbEntity
  8
A-TEXT
100
AcDbText
 10
9250.0
 20
9800.0
 30
0.0
 40
150.0
  1
Кухня
  7
PLAN-ITALIC
 72
1
 11
9250.0
 21
9800.0
 31
0.0
100
AcDbText
 73
2
  0
TEXT
  5
1B0
330
17
100
AcDbEntity
  8
A-TEXT
100
AcDbText
 10
9250.0
 20
9500.0
 30
0.0
 40
150.0
  1
11.0 м²
  7
PLAN-REGULAR
 72
1
 11
9250.0
 21
9500.0
 31
0.0
100
AcDbText
 73
2
  0
CIRCLE
  5
1B1
330
17
100
AcDbEntity
  8
A-TEXT
100
AcDbCircle
 10
6600.0
 20
4205.0
 30
0.0
 40
140.0
  0
TEXT
  5
1B2
330
17
100
AcDbEntity
  8
A-TEXT
100
AcDbText
 10
6600.0
 20
4205.0
 30
0.0
 40
100.0
  1
6
  7
PLAN-BOLD
 72
1
 11
6600.0
 21
4205.0
 31
0.0
100
AcDbText
 73
2
  0
TEXT
  5
1B3
330
17
100
AcDbEntity
  8
A-TEXT
100
AcDbText
 10
6600.0
 20
3875.0
 30
0.0
 40
150.0
  1
Спальня
  7
PLAN-ITALIC
 72
1
 11
6600.0
 21
3875.0
 31
0.0
100
AcDbText
 73
2
  0
TEXT
  5
1B4
330
17
100
AcDbEntity
  8
A-TEXT
100
AcDbText
 10
6600.0
 20
3575.0
 30
0.0
 40
150.0
  1
17.8 м²
  7
PLAN-REGULAR
 72
1
 11
6600.0
 21
3575.0
 31
0.0
100
AcDbText
 73
2
  0
CIRCLE
  5
1B5
330
17
100
AcDbEntity
  8
A-TEXT
100
AcDbCircle
 10
9450.0
 20
4630.0
 30
0.0
 40
140.0
  0
TEXT
  5
1B6
330
17
100
AcDbEntity
  8
A-TEXT
100
AcDbText
 10
9450.0
 20
4630.0
 30
0.0
 40
100.0
  1
7
  7
PLAN-BOLD
 72
1
 11
9450.0
 21
4630.0
 31
0.0
100
AcDbText
 73
2
  0
TEXT
  5
1B7
330
17
100
AcDbEntity
  8
A-TEXT
100
AcDbText
 10
9450.0
 20
4300.0
 30
0.0
 40
150.0
  1
Спальня
  7
PLAN-ITALIC
 72
1
 11
9450.0
 21
4300.0
 31
0.0
100
AcDbText
 73
2
  0
TEXT
  5
1B8
330
17
100
AcDbEntity
  8
A-TEXT
100
AcDbText
 10
9450.0
 20
4000.0
 30
0.0
 40
150.0
  1
19.7 м²
  7
PLAN-REGULAR
 72
1
 11
9450.0
 21
4000.0
 31
0.0
100
AcDbText
 73
2
  0
CIRCLE
  5
1B9
330
17
100
AcDbEntity
  8
A-TEXT
100
AcDbCircle
 10
10150.0
 20
1230.0
 30
0.0
 40
140.0
  0
TEXT
  5
1BA
330
17
100
AcDbEntity
  8
A-TEXT
100
AcDbText
 10
10150.0
 20
1230.0
 30
0.0
 40
100.0
  1
8
  7
PLAN-BOLD
 72
1
 11
10150.0
 21
1230.0
 31
0.0
100
AcDbText
 73
2
  0
TEXT
  5
1BB
330
17
100
AcDbEntity
  8
A-TEXT
100
AcDbText
 10
10150.0
 20
900.0
 30
0.0
 40
150.0
  1
Лоджия
  7
PLAN-ITALIC
 72
1
 11
10150.0
 21
900.0
 31
0.0
100
AcDbText
 73
2
  0
TEXT
  5
1BC
330
17
100
AcDbEntity
  8
A-TEXT
100
AcDbText
 10
10150.0
 20
600.0
 30
0.0
 40
150.0
  1
5.3 м²
  7
PLAN-REGULAR
 72
1
 11
10150.0
 21
600.0
 31
0.0
100
AcDbText
 73
2
  0
DIMENSION
  5
1BD
330
17
100
AcDbEntity
  8
A-DIMS
100
AcDbDimension
280
0
  2
*D1
  3
PLAN-1-50
 10
1200.0
 20
13900.0
 30
0.0
 11
3000.0
 21
14002.5
 31
0.0
 70
32
 71
5
  1
<>
100
AcDbAlignedDimension
 13
1200.0
 23
13900.0
 33
0.0
 14
4800.0
 24
13900.0
 34
0.0
 50
0.0
100
AcDbRotatedDimension
1001
ACAD
1000
DSTYLE
1002
{
1070
75
1070
1
1070
76
1070
1
1002
}
  0
DIMENSION
  5
1CE
330
17
100
AcDbEntity
  8
A-DIMS
100
AcDbDimension
280
0
  2
*D2
  3
PLAN-1-50
 10
4100.0
 20
14150.0
 30
0.0
 11
4202.5
 21
13150.0
 31
0.0
 70
32
 71
5
  1
<>
100
AcDbAlignedDimension
 13
4100.0
 23
14150.0
 33
0.0
 14
4100.0
 24
12150.0
 34
0.0
 50
90.0
100
AcDbRotatedDimension
1001
ACAD
1000
DSTYLE
1002
{
1070
75
1070
1
1070
76
1070
1
1002
}
  0
DIMENSION
  5
1DB
330
17
100
AcDbEntity
  8
A-DIMS
100
AcDbDimension
280
0
  2
*D3
  3
PLAN-1-50
 10
6380.0
 20
13775.0
 30
0.0
 11
8865.0
 21
13877.5
 31
0.0
 70
32
 71
5
  1
<>
100
AcDbAlignedDimension
 13
6380.0
 23
13775.0
 33
0.0
 14
11350.0
 24
13775.0
 34
0.0
 50
0.0
100
AcDbRotatedDimension
1001
ACAD
1000
DSTYLE
1002
{
1070
75
1070
1
1070
76
1070
1
1002
}
  0
DIMENSION
  5
1E8
330
17
100
AcDbEntity
  8
A-DIMS
100
AcDbDimension
280
0
  2
*D4
  3
PLAN-1-50
 10
10500.0
 20
14150.0
 30
0.0
 11
10602.5
 21
12650.0
 31
0.0
 70
32
 71
5
  1
<>
100
AcDbAlignedDimension
 13
10500.0
 23
14150.0
 33
0.0
 14
10500.0
 24
11150.0
 34
0.0
 50
90.0
100
AcDbRotatedDimension
1001
ACAD
1000
DSTYLE
1002
{
1070
75
1070
1
1070
76
1070
1
1002
}
  0
DIMENSION
  5
1F5
330
17
100
AcDbEntity
  8
A-DIMS
100
AcDbDimension
280
0
  2
*D5
  3
PLAN-1-50
 10
3400.0
 20
11950.0
 30
0.0
 11
3502.5
 21
10725.0
 31
0.0
 70
32
 71
5
  1
<>
100
AcDbAlignedDimension
 13
3400.0
 23
11950.0
 33
0.0
 14
3400.0
 24
9500.0
 34
0.0
 50
90.0
100
AcDbRotatedDimension
1001
ACAD
1000
DSTYLE
1002
{
1070
75
1070
1
1070
76
1070
1
1002
}
  0
DIMENSION
  5
202
330
17
100
AcDbEntity
  8
A-DIMS
100
AcDbDimension
280
0
  2
*D6
  3
PLAN-1-50
 10
3235.0
 20
9770.0
 30
0.0
 11
4067.5
 21
9872.5
 31
0.0
 70
32
 71
5
  1
<>
100
AcDbAlignedDimension
 13
3235.0
 23
9770.0
 33
0.0
 14
4900.0
 24
9770.0
 34
0.0
 50
0.0
100
AcDbRotatedDimension
1001
ACAD
1000
DSTYLE
1002
{
1070
75
1070
1
1070
76
1070
1
1002
}
  0
DIMENSION
  5
20F
330
17
100
AcDbEntity
  8
A-DIMS
100
AcDbDimension
280
0
  2
*D7
  3
PLAN-1-50
 10
5100.0
 20
8400.0
 30
0.0
 11
6025.0
 21
8502.5
 31
0.0
 70
32
 71
5
  1
<>
100
AcDbAlignedDimension
 13
5100.0
 23
8400.0
 33
0.0
 14
6950.0
 24
8400.0
 34
0.0
 50
0.0
100
AcDbRotatedDimension
1001
ACAD
1000
DSTYLE
1002
{
1070
75
1070
1
1070
76
1070
1
1002
}
  0
DIMENSION
  5
21C
330
17
100
AcDbEntity
  8
A-DIMS
100
AcDbDimension
280
0
  2
*D8
  3
PLAN-1-50
 10
6775.0
 20
11000.0
 30
0.0
 11
6877.5
 21
8825.0
 31
0.0
 70
32
 71
5
  1
<>
100
AcDbAlignedDimension
 13
6950.0
 23
11000.0
 33
0.0
 14
6775.0
 24
6650.0
 34
0.0
 50
90.0
100
AcDbRotatedDimension
1001
ACAD
1000
DSTYLE
1002
{
1070
76
1070
1
1002
}
  0
DIMENSION
  5
22A
330
17
100
AcDbEntity
  8
A-DIMS
100
AcDbDimension
280
0
  2
*D9
  3
PLAN-1-50
 10
8125.0
 20
10950.0
 30
0.0
 11
8227.5
 21
9500.0
 31
0.0
 70
32
 71
5
  1
<>
100
AcDbAlignedDimension
 13
8125.0
 23
10950.0
 33
0.0
 14
8125.0
 24
8050.0
 34
0.0
 50
90.0
100
AcDbRotatedDimension
1001
ACAD
1000
DSTYLE
1002
{
1070
75
1070
1
1070
76
1070
1
1002
}
  0
DIMENSION
  5
237
330
17
100
AcDbEntity
  8
A-DIMS
100
AcDbDimension
280
0
  2
*D10
  3
PLAN-1-50
 10
7150.0
 20
8400.0
 30
0.0
 11
9250.0
 21
8502.5
 31
0.0
 70
32
 71
5
  1
<>
100
AcDbAlignedDimension
 13
7150.0
 23
8400.0
 33
0.0
 14
11350.0
 24
8400.0
 34
0.0
 50
0.0
100
AcDbRotatedDimension
1001
ACAD
1000
DSTYLE
1002
{
1070
75
1070
1
1070
76
1070
1
1002
}
  0
DIMENSION
  5
244
330
17
100
AcDbEntity
  8
A-DIMS
100
AcDbDimension
280
0
  2
*D11
  3
PLAN-1-50
 10
8700.0
 20
7850.0
 30
0.0
 11
8597.5
 21
5950.0
 31
0.0
 70
160
 71
5
  1
<>
100
AcDbAlignedDimension
 13
8700.0
 23
7850.0
 33
0.0
 14
8700.0
 24
2000.0
 34
0.0
 50
90.0
100
AcDbRotatedDimension
1001
ACAD
1000
DSTYLE
1002
{
1070
75
1070
1
1070
76
1070
1
1070
279
1070
2
1002
}
  0
DIMENSION
  5
251
330
17
100
AcDbEntity
  8
A-DIMS
100
AcDbDimension
280
0
  2
*D12
  3
PLAN-1-50
 10
8200.0
 20
2400.0
 30
0.0
 11
9775.0
 21
2502.5
 31
0.0
 70
32
 71
5
  1
<>
100
AcDbAlignedDimension
 13
8200.0
 23
2400.0
 33
0.0
 14
11350.0
 24
2400.0
 34
0.0
 50
0.0
100
AcDbRotatedDimension
1001
ACAD
1000
DSTYLE
1002
{
1070
75
1070
1
1070
76
1070
1
1002
}
  0
DIMENSION
  5
25E
330
17
100
AcDbEntity
  8
A-DIMS
100
AcDbDimension
280
0
  2
*D13
  3
PLAN-1-50
 10
5675.0
 20
6450.0
 30
0.0
 11
5777.5
 21
3300.0
 31
0.0
 70
32
 71
5
  1
<>
100
AcDbAlignedDimension
 13
5675.0
 23
6450.0
 33
0.0
 14
5675.0
 24
150.0
 34
0.0
 50
90.0
100
AcDbRotatedDimension
1001
ACAD
1000
DSTYLE
1002
{
1070
75
1070
1
1070
76
1070
1
1002
}
  0
DIMENSION
  5
26B
330
17
100
AcDbEntity
  8
A-DIMS
100
AcDbDimension
280
0
  2
*D14
  3
PLAN-1-50
 10
5100.0
 20
2400.0
 30
0.0
 11
6550.0
 21
2502.5
 31
0.0
 70
32
 71
5
  1
<>
100
AcDbAlignedDimension
 13
5100.0
 23
2400.0
 33
0.0
 14
8000.0
 24
2400.0
 34
0.0
 50
0.0
100
AcDbRotatedDimension
1001
ACAD
1000
DSTYLE
1002
{
1070
75
1070
1
1070
76
1070
1
1002
}
  0
DIMENSION
  5
278
330
17
100
AcDbEntity
  8
A-DIMS
100
AcDbDimension
280
0
  2
*D15
  3
PLAN-1-50
 10
9650.0
 20
1800.0
 30
0.0
 11
9752.5
 21
975.0
 31
0.0
 70
32
 71
5
  1
<>
100
AcDbAlignedDimension
 13
9650.0
 23
1800.0
 33
0.0
 14
9650.0
 24
150.0
 34
0.0
 50
90.0
100
AcDbRotatedDimension
1001
ACAD
1000
DSTYLE
1002
{
1070
75
1070
1
1070
76
1070
1
1002
}
  0
ENDSEC
  0
SECTION
  2
OBJECTS
  0
DICTIONARY
  5
A
330
0
100
AcDbDictionary
281
1
  3
ACAD_COLOR
350
B
  3
ACAD_GROUP
350
C
  3
ACAD_LAYOUT
350
D
  3
ACAD_MATERIAL
350
E
  3
ACAD_MLEADERSTYLE
350
F
  3
ACAD_MLINESTYLE
350
10
  3
ACAD_PLOTSETTINGS
350
11
  3
ACAD_PLOTSTYLENAME
350
12
  3
ACAD_SCALELIST
350
14
  3
ACAD_TABLESTYLE
350
15
  3
ACAD_VISUALSTYLE
350
16
  3
EZDXF_META
350
2D
  0
DICTIONARY
  5
B
330
A
100
AcDbDictionary
281
1
  0
DICTIONARY
  5
C
330
A
100
AcDbDictionary
281
1
  0
DICTIONARY
  5
D
330
A
100
AcDbDictionary
281
1
  3
Model
350
1A
  3
Layout1
350
1E
  3
A3 1-50
350
288
  0
DICTIONARY
  5
E
330
A
100
AcDbDictionary
281
1
  3
ByBlock
350
1F
  3
ByLayer
350
20
  3
Global
350
21
  0
DICTIONARY
  5
F
330
A
100
AcDbDictionary
281
1
  3
Standard
350
2C
  0
DICTIONARY
  5
10
330
A
100
AcDbDictionary
281
1
  3
Standard
350
22
  0
DICTIONARY
  5
11
330
A
100
AcDbDictionary
281
1
  0
ACDBDICTIONARYWDFLT
  5
12
330
A
100
AcDbDictionary
281
1
  3
Normal
350
13
100
AcDbDictionaryWithDefault
340
13
  0
ACDBPLACEHOLDER
  5
13
330
12
  0
DICTIONARY
  5
14
330
A
100
AcDbDictionary
281
1
  0
DICTIONARY
  5
15
330
A
100
AcDbDictionary
281
1
  0
DICTIONARY
  5
16
330
A
100
AcDbDictionary
281
1
  3
2dWireframe
350
5A
  3
Basic
350
5B
  3
Brighten
350
5C
  3
ColorChange
350
5D
  3
Conceptual
350
5E
  3
Dim
350
5F
  3
EdgeColorOff
350
60
  3
Facepattern
350
61
  3
Flat
350
62
  3
FlatWithEdges
350
63
  3
Gouraud
350
64
  3
GouraudWithEdges
350
65
  3
Hidden
350
66
  3
JitterOff
350
67
  3
Linepattern
350
68
  3
Modeling
350
69
  3
OverhangOff
350
6A
  3
Realistic
350
6B
  3
Shaded
350
6C
  3
Shaded with edges
350
6D
  3
Shades of Gray
350
6E
  3
Sketchy
350
6F
  3
Thicken
350
70
  3
Wireframe
350
71
  3
X-Ray
350
72
  0
LAYOUT
  5
1A
330
D
100
AcDbPlotSettings
  1

  4
A3
  6

 40
7.5
 41
20.0
 42
7.5
 43
20.0
 44
420.0
 45
297.0
 46
0.0
 47
0.0
 48
0.0
 49
0.0
140
0.0
141
0.0
142
1.0
143
1.0
 70
1024
 72
1
 73
0
 74
5
  7

 75
16
 76
0
 77
2
 78
300
147
1.0
148
0.0
149
0.0
100
AcDbLayout
  1
Model
 70
1
 71
0
 10
0.0
 20
0.0
 11
420.0
 21
297.0
 12
0.0
 22
0.0
 32
0.0
 14
1e+20
 24
1e+20
 34
1e+20
 15
-1e+20
 25
-1e+20
 35
-1e+20
146
0.0
 13
0.0
 23
0.0
 33
0.0
 16
1.0
 26
0.0
 36
0.0
 17
0.0
 27
1.0
 37
0.0
 76
1
330
17
  0
LAYOUT
  5
1E
330
D
100
AcDbPlotSettings
  1

  4
A3
  6

 40
7.5
 41
20.0
 42
7.5
 43
20.0
 44
420.0
 45
297.0
 46
0.0
 47
0.0
 48
0.0
 49
0.0
140
0.0
141
0.0
142
1.0
143
1.0
 70
0
 72
1
 73
0
 74
5
  7

 75
16
 76
0
 77
2
 78
300
147
1.0
148
0.0
149
0.0
100
AcDbLayout
  1
Layout1
 70
1
 71
1
 10
0.0
 20
0.0
 11
420.0
 21
297.0
 12
0.0
 22
0.0
 32
0.0
 14
1e+20
 24
1e+20
 34
1e+20
 15
-1e+20
 25
-1e+20
 35
-1e+20
146
0.0
 13
0.0
 23
0.0
 33
0.0
 16
1.0
 26
0.0
 36
0.0
 17
0.0
 27
1.0
 37
0.0
 76
1
330
1B
  0
MATERIAL
  5
1F
102
{ACAD_REACTORS
330
E
102
}
330
E
100
AcDbMaterial
  1
ByBlock
  2

 70
0
 40
1.0
 71
1
 41
1.0
 91
-1023410177
 42
1.0
 72
1
  3

 73
1
 74
1
 75
1
 44
0.5
 73
0
 45
1.0
 46
1.0
 77
1
  4

 78
1
 79
1
170
1
 48
1.0
171
1
  6

172
1
173
1
174
1
140
1.0
141
1.0
175
1
  7

176
1
177
1
178
1
143
1.0
179
1
  8

270
1
271
1
272
1
145
1.0
146
1.0
273
1
  9

274
1
275
1
276
1
 42
1.0
 72
1
  3

 73
1
 74
1
 75
1
 94
63
  0
MATERIAL
  5
20
102
{ACAD_REACTORS
330
E
102
}
330
E
100
AcDbMaterial
  1
ByLayer
  2

 70
0
 40
1.0
 71
1
 41
1.0
 91
-1023410177
 42
1.0
 72
1
  3

 73
1
 74
1
 75
1
 44
0.5
 73
0
 45
1.0
 46
1.0
 77
1
  4

 78
1
 79
1
170
1
 48
1.0
171
1
  6

172
1
173
1
174
1
140
1.0
141
1.0
175
1
  7

176
1
177
1
178
1
143
1.0
179
1
  8

270
1
271
1
272
1
145
1.0
146
1.0
273
1
  9

274
1
275
1
276
1
 42
1.0
 72
1
  3

 73
1
 74
1
 75
1
 94
63
  0
MATERIAL
  5
21
102
{ACAD_REACTORS
330
E
102
}
330
E
100
AcDbMaterial
  1
Global
  2

 70
0
 40
1.0
 71
1
 41
1.0
 91
-1023410177
 42
1.0
 72
1
  3

 73
1
 74
1
 75
1
 44
0.5
 73
0
 45
1.0
 46
1.0
 77
1
  4

 78
1
 79
1
170
1
 48
1.0
171
1
  6

172
1
173
1
174
1
140
1.0
141
1.0
175
1
  7

176
1
177
1
178
1
143
1.0
179
1
  8

270
1
271
1
272
1
145
1.0
146
1.0
273
1
  9

274
1
275
1
276
1
 42
1.0
 72
1
  3

 73
1
 74
1
 75
1
 94
63
  0
MLINESTYLE
  5
22
102
{ACAD_REACTORS
330
10
102
}
330
10
100
AcDbMlineStyle
  2
Standard
 70
0
  3

 62
256
 51
90.0
 52
90.0
 71
2
 49
0.5
 62
256
  6
BYLAYER
 49
-0.5
 62
256
  6
BYLAYER
  0
MLEADERSTYLE
  5
2C
102
{ACAD_REACTORS
330
F
102
}
330
F
100
AcDbMLeaderStyle
179
2
170
2
171
1
172
0
 90
2
 40
0.0
 41
0.0
173
1
 91
-1056964608
 92
-2
290
1
 42
2.0
291
1
 43
8.0
  3
Standard
 44
4.0
300

342
29
174
1
175
1
176
0
178
1
 93
-1056964608
 45
4.0
292
0
297
0
 46
4.0
 94
-1056964608
 47
1.0
 49
1.0
140
1.0
294
1
141
0.0
177
0
142
1.0
295
0
296
0
143
3.75
271
0
272
9
273
9
  0
DICTIONARY
  5
2D
330
A
100
AcDbDictionary
280
1
281
1
  3
CREATED_BY_EZDXF
350
2E
  3
WRITTEN_BY_EZDXF
350
306
  0
DICTIONARYVAR
  5
2E
330
2D
100
DictionaryVariables
280
0
  1
1.4.4 @ 2026-09-27T11:58:44.632354+00:00
  0
VISUALSTYLE
  5
5A
102
{ACAD_REACTORS
330
16
102
}
330
16
100
AcDbVisualStyle
  2
2dWireframe
 70
4
 90
0
 40
0.6
 62
7
290
0
291
0
  0
VISUALSTYLE
  5
5B
102
{ACAD_REACTORS
330
16
102
}
330
16
100
AcDbVisualStyle
  2
Basic
 70
7
 90
1
 40
0.6
 62
7
290
0
291
1
  0
VISUALSTYLE
  5
5C
102
{ACAD_REACTORS
330
16
102
}
330
16
100
AcDbVisualStyle
  2
Brighten
 70
12
 90
2
 40
0.6
 62
7
290
0
291
1
  0
VISUALSTYLE
  5
5D
102
{ACAD_REACTORS
330
16
102
}
330
16
100
AcDbVisualStyle
  2
ColorChange
 70
16
 90
2
 40
0.6
 62
8
290
0
291
1
  0
VISUALSTYLE
  5
5E
102
{ACAD_REACTORS
330
16
102
}
330
16
100
AcDbVisualStyle
  2
Conceptual
 70
9
 90
3
 40
0.6
 62
7
290
0
291
0
  0
VISUALSTYLE
  5
5F
102
{ACAD_REACTORS
330
16
102
}
330
16
100
AcDbVisualStyle
  2
Dim
 70
11
 90
2
 40
0.6
 62
7
290
0
291
1
  0
VISUALSTYLE
  5
60
102
{ACAD_REACTORS
330
16
102
}
330
16
100
AcDbVisualStyle
  2
EdgeColorOff
 70
22
 90
2
 40
0.6
 62
7
290
0
291
1
  0
VISUALSTYLE
  5
61
102
{ACAD_REACTORS
330
16
102
}
330
16
100
AcDbVisualStyle
  2
Facepattern
 70
15
 90
2
 40
0.6
 62
7
290
0
291
1
  0
VISUALSTYLE
  5
62
102
{ACAD_REACTORS
330
16
102
}
330
16
100
AcDbVisualStyle
  2
Flat
 70
0
 90
2
 40
0.6
 62
7
290
0
291
1
  0
VISUALSTYLE
  5
63
102
{ACAD_REACTORS
330
16
102
}
330
16
100
AcDbVisualStyle
  2
FlatWithEdges
 70
1
 90
2
 40
0.6
 62
7
290
0
291
1
  0
VISUALSTYLE
  5
64
102
{ACAD_REACTORS
330
16
102
}
330
16
100
AcDbVisualStyle
  2
Gouraud
 70
2
 90
2
 40
0.6
 62
7
290
0
291
1
  0
VISUALSTYLE
  5
65
102
{ACAD_REACTORS
330
16
102
}
330
16
100
AcDbVisualStyle
  2
GouraudWithEdges
 70
3
 90
2
 40
0.6
 62
7
290
0
291
1
  0
VISUALSTYLE
  5
66
102
{ACAD_REACTORS
330
16
102
}
330
16
100
AcDbVisualStyle
  2
Hidden
 70
6
 90
1
 40
0.6
 62
7
290
0
291
0
  0
VISUALSTYLE
  5
67
102
{ACAD_REACTORS
330
16
102
}
330
16
100
AcDbVisualStyle
  2
JitterOff
 70
20
 90
2
 40
0.6
 62
7
290
0
291
1
  0
VISUALSTYLE
  5
68
102
{ACAD_REACTORS
330
16
102
}
330
16
100
AcDbVisualStyle
  2
Linepattern
 70
14
 90
2
 40
0.6
 62
7
290
0
291
1
  0
VISUALSTYLE
  5
69
102
{ACAD_REACTORS
330
16
102
}
330
16
100
AcDbVisualStyle
  2
Modeling
 70
10
 90
2
 40
0.6
 62
7
290
0
291
0
  0
VISUALSTYLE
  5
6A
102
{ACAD_REACTORS
330
16
102
}
330
16
100
AcDbVisualStyle
  2
OverhangOff
 70
21
 90
2
 40
0.6
 62
7
290
0
291
1
  0
VISUALSTYLE
  5
6B
102
{ACAD_REACTORS
330
16
102
}
330
16
100
AcDbVisualStyle
  2
Realistic
 70
8
 90
2
 40
0.6
 62
7
290
0
291
0
  0
VISUALSTYLE
  5
6C
102
{ACAD_REACTORS
330
16
102
}
330
16
100
AcDbVisualStyle
  2
Shaded
 70
27
 90
2
 40
0.6
 62
7
290
0
291
0
  0
VISUALSTYLE
  5
6D
102
{ACAD_REACTORS
330
16
102
}
330
16
100
AcDbVisualStyle
  2
Shaded with edges
 70
26
 90
2
 40
0.6
 62
7
290
0
291
0
  0
VISUALSTYLE
  5
6E
102
{ACAD_REACTORS
330
16
102
}
330
16
100
AcDbVisualStyle
  2
Shades of Gray
 70
23
 90
2
 40
0.6
 62
7
290
0
291
0
  0
VISUALSTYLE
  5
6F
102
{ACAD_REACTORS
330
16
102
}
330
16
100
AcDbVisualStyle
  2
Sketchy
 70
24
 90
1
 40
0.6
 62
7
290
0
291
0
  0
VISUALSTYLE
  5
70
102
{ACAD_REACTORS
330
16
102
}
330
16
100
AcDbVisualStyle
  2
Thicken
 70
13
 90
2
 40
0.6
 62
7
290
0
291
1
  0
VISUALSTYLE
  5
71
102
{ACAD_REACTORS
330
16
102
}
330
16
100
AcDbVisualStyle
  2
Wireframe
 70
5
 90
0
 40
0.6
 62
7
290
0
291
0
  0
VISUALSTYLE
  5
72
102
{ACAD_REACTORS
330
16
102
}
330
16
100
AcDbVisualStyle
  2
X-Ray
 70
25
 90
2
 40
0.5
 62
7
290
0
291
0
  0
LAYOUT
  5
288
330
D
100
AcDbPlotSettings
  1

  2
DWG to PDF.pc3
  4
ezdxf_(297.00_x_420.00_MM)
  6

 40
0.0
 41
0.0
 42
0.0
 43
0.0
 44
297.0
 45
420.0
 46
0.0
 47
0.0
 48
0.0
 49
0.0
140
0.0
141
0.0
142
0.0078125
143
12.0
 70
672
 72
1
 73
0
 74
5
  7

 75
1
 76
0
 77
2
 78
300
147
1.0
148
0.0
149
0.0
100
AcDbLayout
  1
A3 1-50
 70
1
 71
3
 10
-0.0
 20
-0.0
 11
297.0
 21
420.0
 12
0.0
 22
0.0
 32
0.0
 14
1e+20
 24
1e+20
 34
1e+20
 15
-1e+20
 25
-1e+20
 35
-1e+20
146
0.0
 13
0.0
 23
0.0
 33
0.0
 16
1.0
 26
0.0
 36
0.0
 17
0.0
 27
1.0
 37
0.0
 76
1
330
285
331
289
  0
DICTIONARYVAR
  5
306
330
2D
100
DictionaryVariables
280
0
  1
1.4.4 @ 2026-09-27T11:58:44.666955+00:00
  0
ENDSEC
  0
EOF
