  0
SECTION
  2
HEADER
  9
$ACADVER
  1
AC1024
  9
$ACADMAINTVER
 70
6
  9
$DWGCODEPAGE
  3
ANSI_1252
  9
$LASTSAVEDBY
  1
ezdxf
  9
$INSBASE
 10
0.0
 20
0.0
 30
0.0
  9
$EXTMIN
 10
1e+20
 20
1e+20
 30
1e+20
  9
$EXTMAX
 10
-1e+20
 20
-1e+20
 30
-1e+20
  9
$LIMMIN
 10
0.0
 20
0.0
  9
$LIMMAX
 10
420.0
 20
297.0
  9
$ORTHOMODE
 70
0
  9
$REGENMODE
 70
1
  9
$FILLMODE
 70
1
  9
$QTEXTMODE
 70
0
  9
$MIRRTEXT
 70
1
  9
$LTSCALE
 40
1.0
  9
$ATTMODE
 70
1
  9
$TEXTSIZE
 40
2.5
  9
$TRACEWID
 40
1.0
  9
$TEXTSTYLE
  7
OpenSans
  9
$CLAYER
  8
0
  9
$CELTYPE
  6
ByLayer
  9
$CECOLOR
 62
256
  9
$CELTSCALE
 40
1.0
  9
$DISPSILH
 70
0
  9
$DIMSCALE
 40
1.0
  9
$DIMASZ
 40
0.175
  9
$DIMEXO
 40
0.125
  9
$DIMDLI
 40
3.75
  9
$DIMRND
 40
0.0
  9
$DIMDLE
 40
0.0
  9
$DIMEXE
 40
0.375
  9
$DIMTP
 40
0.0
  9
$DIMTM
 40
0.0
  9
$DIMTXT
 40
0.25
  9
$DIMCEN
 40
2.5
  9
$DIMTSZ
 40
0.0
  9
$DIMTOL
 70
0
  9
$DIMLIM
 70
0
  9
$DIMTIH
 70
0
  9
$DIMTOH
 70
0
  9
$DIMSE1
 70
0
  9
$DIMSE2
 70
0
  9
$DIMTAD
 70
1
  9
$DIMZIN
 70
12
  9
$DIMBLK
  1
ARCHTICK
  9
$DIMASO
 70
1
  9
$DIMSHO
 70
1
  9
$DIMPOST
  1

  9
$DIMAPOST
  1

  9
$DIMALT
 70
0
  9
$DIMALTD
 70
3
  9
$DIMALTF
 40
0.03937007874
  9
$DIMLFAC
 40
100.0
  9
$DIMTOFL
 70
1
  9
$DIMTVP
 40
0.0
  9
$DIMTIX
 70
0
  9
$DIMSOXD
 70
0
  9
$DIMSAH
 70
0
  9
$DIMBLK1
  1

  9
$DIMBLK2
  1

  9
$DIMSTYLE
  2
EZDXF
  9
$DIMCLRD
 70
0
  9
$DIMCLRE
 70
0
  9
$DIMCLRT
 70
0
  9
$DIMTFAC
 40
0.5
  9
$DIMGAP
 40
0.1
  9
$DIMJUST
 70
0
  9
$DIMSD1
 70
0
  9
$DIMSD2
 70
0
  9
$DIMTOLJ
 70
0
  9
$DIMTZIN
 70
8
  9
$DIMALTZ
 70
0
  9
$DIMALTTZ
 70
0
  9
$DIMUPT
 70
1
  9
$DIMDEC
 70
2
  9
$DIMTDEC
 70
2
  9
$DIMALTU
 70
2
  9
$DIMALTTD
 70
3
  9
$DIMTXSTY
  7
OpenSansCondensed-Light
  9
$DIMAUNIT
 70
0
  9
$DIMADEC
 70
2
  9
$DIMALTRND
 40
0.0
  9
$DIMAZIN
 70
3
  9
$DIMDSEP
 70
46
  9
$DIMATFIT
 70
3
  9
$DIMFRAC
 70
0
  9
$DIMLDRBLK
  1

  9
$DIMLUNIT
 70
2
  9
$DIMLWD
 70
-2
  9
$DIMLWE
 70
-2
  9
$DIMTMOVE
 70
2
  9
$DIMFXL
 40
1.0
  9
$DIMFXLON
 70
0
  9
$DIMJOGANG
 40
0.785398163397
  9
$DIMTFILL
 70
0
  9
$DIMTFILLCLR
 70
0
  9
$DIMARCSYM
 70
0
  9
$DIMLTYPE
  6

  9
$DIMLTEX1
  6

  9
$DIMLTEX2
  6

  9
$DIMTXTDIRECTION
 70
0
  9
$LUNITS
 70
2
  9
$LUPREC
 70
4
  9
$SKETCHINC
 40
1.0
  9
$FILLETRAD
 40
10.0
  9
$AUNITS
 70
0
  9
$AUPREC
 70
2
  9
$MENU
  1
.
  9
$ELEVATION
 40
0.0
  9
$PELEVATION
 40
0.0
  9
$THICKNESS
 40
0.0
  9
$LIMCHECK
 70
0
  9
$CHAMFERA
 40
0.0
  9
$CHAMFERB
 40
0.0
  9
$CHAMFERC
 40
0.0
  9
$CHAMFERD
 40
0.0
  9
$SKPOLY
 70
0
  9
$TDCREATE
 40
2461311.4991550925
  9
$TDUCREATE
 40
2458532.153996898
  9
$TDUPDATE
 40
2461311.4991550925
  9
$TDUUPDATE
 40
2458532.1544311
  9
$TDINDWG
 40
0.0
  9
$TDUSRTIMER
 40
0.0
  9
$USRTIMER
 70
1
  9
$ANGBASE
 50
0.0
  9
$ANGDIR
 70
0
  9
$PDMODE
 70
0
  9
$PDSIZE
 40
0.0
  9
$PLINEWID
 40
0.0
  9
$SPLFRAME
 70
0
  9
$SPLINETYPE
 70
6
  9
$SPLINESEGS
 70
8
  9
$HANDSEED
  5
339
  9
$SURFTAB1
 70
6
  9
$SURFTAB2
 70
6
  9
$SURFTYPE
 70
6
  9
$SURFU
 70
6
  9
$SURFV
 70
6
  9
$UCSBASE
  2

  9
$UCSNAME
  2

  9
$UCSORG
 10
0.0
 20
0.0
 30
0.0
  9
$UCSXDIR
 10
1.0
 20
0.0
 30
0.0
  9
$UCSYDIR
 10
0.0
 20
1.0
 30
0.0
  9
$UCSORTHOREF
  2

  9
$UCSORTHOVIEW
 70
0
  9
$UCSORGTOP
 10
0.0
 20
0.0
 30
0.0
  9
$UCSORGBOTTOM
 10
0.0
 20
0.0
 30
0.0
  9
$UCSORGLEFT
 10
0.0
 20
0.0
 30
0.0
  9
$UCSORGRIGHT
 10
0.0
 20
0.0
 30
0.0
  9
$UCSORGFRONT
 10
0.0
 20
0.0
 30
0.0
  9
$UCSORGBACK
 10
0.0
 20
0.0
 30
0.0
  9
$PUCSBASE
  2

  9
$PUCSNAME
  2

  9
$PUCSORG
 10
0.0
 20
0.0
 30
0.0
  9
$PUCSXDIR
 10
1.0
 20
0.0
 30
0.0
  9
$PUCSYDIR
 10
0.0
 20
1.0
 30
0.0
  9
$PUCSORTHOREF
  2

  9
$PUCSORTHOVIEW
 70
0
  9
$PUCSORGTOP
 10
0.0
 20
0.0
 30
0.0
  9
$PUCSORGBOTTOM
 10
0.0
 20
0.0
 30
0.0
  9
$PUCSORGLEFT
 10
0.0
 20
0.0
 30
0.0
  9
$PUCSORGRIGHT
 10
0.0
 20
0.0
 30
0.0
  9
$PUCSORGFRONT
 10
0.0
 20
0.0
 30
0.0
  9
$PUCSORGBACK
 10
0.0
 20
0.0
 30
0.0
  9
$USERI1
 70
0
  9
$USERI2
 70
0
  9
$USERI3
 70
0
  9
$USERI4
 70
0
  9
$USERI5
 70
0
  9
$USERR1
 40
0.0
  9
$USERR2
 40
0.0
  9
$USERR3
 40
0.0
  9
$USERR4
 40
0.0
  9
$USERR5
 40
0.0
  9
$WORLDVIEW
 70
1
  9
$SHADEDGE
 70
3
  9
$SHADEDIF
 70
70
  9
$TILEMODE
 70
1
  9
$MAXACTVP
 70
64
  9
$PINSBASE
 10
0.0
 20
0.0
 30
0.0
  9
$PLIMCHECK
 70
0
  9
$PEXTMIN
 10
1e+20
 20
1e+20
 30
1e+20
  9
$PEXTMAX
 10
-1e+20
 20
-1e+20
 30
-1e+20
  9
$PLIMMIN
 10
0.0
 20
0.0
  9
$PLIMMAX
 10
420.0
 20
297.0
  9
$UNITMODE
 70
0
  9
$VISRETAIN
 70
1
  9
$PLINEGEN
 70
0
  9
$PSLTSCALE
 70
1
  9
$TREEDEPTH
 70
3020
  9
$CMLSTYLE
  2
Standard
  9
$CMLJUST
 70
0
  9
$CMLSCALE
 40
20.0
  9
$PROXYGRAPHICS
 70
1
  9
$MEASUREMENT
 70
1
  9
$CELWEIGHT
370
-1
  9
$ENDCAPS
280
0
  9
$JOINSTYLE
280
0
  9
$LWDISPLAY
290
0
  9
$INSUNITS
 70
4
  9
$HYPERLINKBASE
  1

  9
$STYLESHEET
  1

  9
$XEDIT
290
1
  9
$CEPSNTYPE
380
0
  9
$PSTYLEMODE
290
1
  9
$FINGERPRINTGUID
  2
{02BB1295-A03E-4C3F-98CC-CF2AF8198971}
  9
$VERSIONGUID
  2
{6D1646AA-127B-4B85-B6B7-93486C69EB0D}
  9
$EXTNAMES
290
1
  9
$PSVPSCALE
 40
0.0
  9
$OLESTARTUP
290
0
  9
$SORTENTS
280
127
  9
$INDEXCTL
280
0
  9
$HIDETEXT
280
1
  9
$XCLIPFRAME
280
1
  9
$HALOGAP
280
0
  9
$OBSCOLOR
 70
257
  9
$OBSLTYPE
280
0
  9
$INTERSECTIONDISPLAY
280
0
  9
$INTERSECTIONCOLOR
 70
257
  9
$DIMASSOC
280
2
  9
$PROJECTNAME
  1

  9
$CAMERADISPLAY
290
0
  9
$LENSLENGTH
 40
50.0
  9
$CAMERAHEIGHT
 40
0.0
  9
$STEPSPERSEC
 40
24.0
  9
$STEPSIZE
 40
100.0
  9
$3DDWFPREC
 40
2.0
  9
$PSOLWIDTH
 40
0.005
  9
$PSOLHEIGHT
 40
0.08
  9
$LOFTANG1
 40
1.570796326795
  9
$LOFTANG2
 40
1.570796326795
  9
$LOFTMAG1
 40
0.0
  9
$LOFTMAG2
 40
0.0
  9
$LOFTPARAM
 70
7
  9
$LOFTNORMALS
280
1
  9
$LATITUDE
 40
37.795
  9
$LONGITUDE
 40
-122.394
  9
$NORTHDIRECTION
 40
0.0
  9
$TIMEZONE
 70
-8000
  9
$LIGHTGLYPHDISPLAY
280
1
  9
$TILEMODELIGHTSYNCH
280
1
  9
$CMATERIAL
347
20
  9
$SOLIDHIST
280
0
  9
$SHOWHIST
280
1
  9
$DWFFRAME
280
2
  9
$DGNFRAME
280
2
  9
$REALWORLDSCALE
290
1
  9
$INTERFERECOLOR
 62
256
  9
$CSHADOW
280
0
  9
$SHADOWPLANELOCATION
 40
0.0
  0
ENDSEC
  0
SECTION
  2
CLASSES
  0
CLASS
  1
ACDBDICTIONARYWDFLT
  2
AcDbDictionaryWithDefault
  3
ObjectDBX Classes
 90
0
 91
0
280
0
281
0
  0
CLASS
  1
SUN
  2
AcDbSun
  3
SCENEOE
 90
1153
 91
0
280
0
281
0
  0
CLASS
  1
VISUALSTYLE
  2
AcDbVisualStyle
  3
ObjectDBX Classes
 90
4095
 91
0
280
0
281
0
  0
CLASS
  1
MATERIAL
  2
AcDbMaterial
  3
ObjectDBX Classes
 90
1153
 91
0
280
0
281
0
  0
CLASS
  1
SCALE
  2
AcDbScale
  3
ObjectDBX Classes
 90
1153
 91
0
280
0
281
0
  0
CLASS
  1
TABLESTYLE
  2
AcDbTableStyle
  3
ObjectDBX Classes
 90
4095
 91
0
280
0
281
0
  0
CLASS
  1
MLEADERSTYLE
  2
AcDbMLeaderStyle
  3
ACDB_MLEADERSTYLE_CLASS
 90
4095
 91
0
280
0
281
0
  0
CLASS
  1
DICTIONARYVAR
  2
AcDbDictionaryVar
  3
ObjectDBX Classes
 90
0
 91
0
280
0
281
0
  0
CLASS
  1
CELLSTYLEMAP
  2
AcDbCellStyleMap
  3
ObjectDBX Classes
 90
1152
 91
0
280
0
281
0
  0
CLASS
  1
MENTALRAYRENDERSETTINGS
  2
AcDbMentalRayRenderSettings
  3
SCENEOE
 90
1024
 91
0
280
0
281
0
  0
CLASS
  1
ACDBDETAILVIEWSTYLE
  2
AcDbDetailViewStyle
  3
ObjectDBX Classes
 90
1025
 91
0
280
0
281
0
  0
CLASS
  1
ACDBSECTIONVIEWSTYLE
  2
AcDbSectionViewStyle
  3
ObjectDBX Classes
 90
1025
 91
0
280
0
281
0
  0
CLASS
  1
RASTERVARIABLES
  2
AcDbRasterVariables
  3
ISM
 90
0
 91
0
280
0
281
0
  0
CLASS
  1
LAYOUT
  2
AcDbLayout
  3
ObjectDBX Classes
 90
0
 91
0
280
0
281
0
  0
CLASS
  1
ACDBPLACEHOLDER
  2
AcDbPlaceHolder
  3
ObjectDBX Classes
 90
0
 91
0
280
0
281
0
  0
ENDSEC
  0
SECTION
  2
TABLES
  0
TABLE
  2
VPORT
  5
8
330
0
100
AcDbSymbolTable
 70
1
  0
VPORT
  5
335
330
8
100
AcDbSymbolTableRecord
100
AcDbViewportTableRecord
  2
*Active
 70
0
 10
0.0
 20
0.0
 11
1.0
 21
1.0
 12
5750.0
 22
7175.0
 13
0.0
 23
0.0
 14
0.5
 24
0.5
 15
0.5
 25
0.5
 16
0.0
 26
0.0
 36
1.0
 17
0.0
 27
0.0
 37
0.0
 40
15067.5
 41
1.34
 42
50.0
 43
0.0
 44
0.0
 50
0.0
 51
0.0
 71
0
 72
1000
 73
1
 74
3
 75
0
 76
0
 77
0
 78
0
281
0
 65
1
110
0.0
120
0.0
130
0.0
111
1.0
121
0.0
131
0.0
112
0.0
122
1.0
132
0.0
 79
0
146
0.0
  0
ENDTAB
  0
TABLE
  2
LTYPE
  5
2
330
0
100
AcDbSymbolTable
 70
21
  0
LTYPE
  5
24
330
2
100
AcDbSymbolTableRecord
100
AcDbLinetypeTableRecord
  2
ByBlock
 70
0
  3

 72
65
 73
0
 40
0.0
  0
LTYPE
  5
25
330
2
100
AcDbSymbolTableRecord
100
AcDbLinetypeTableRecord
  2
ByLayer
 70
0
  3

 72
65
 73
0
 40
0.0
  0
LTYPE
  5
26
330
2
100
AcDbSymbolTableRecord
100
AcDbLinetypeTableRecord
  2
Continuous
 70
0
  3

 72
65
 73
0
 40
0.0
  0
LTYPE
  5
2F
330
2
100
AcDbSymbolTableRecord
100
AcDbLinetypeTableRecord
  2
CENTER
 70
0
  3
Center ____ _ ____ _ ____ _ ____ _ ____ _ ____
 72
65
 73
4
 40
5.08
 49
3.175
 74
0
 49
-0.635
 74
0
 49
0.635
 74
0
 49
-0.635
 74
0
  0
LTYPE
  5
30
330
2
100
AcDbSymbolTableRecord
100
AcDbLinetypeTableRecord
  2
CENTERX2
 70
0
  3
Center (2x) ________  __  ________  __  ________
 72
65
 73
4
 40
8.89
 49
6.35
 74
0
 49
-0.635
 74
0
 49
1.27
 74
0
 49
-0.635
 74
0
  0
LTYPE
  5
31
330
2
100
AcDbSymbolTableRecord
100
AcDbLinetypeTableRecord
  2
CENTER2
 70
0
  3
Center (.5x) ____ _ ____ _ ____ _ ____ _ ____
 72
65
 73
4
 40
2.54
 49
1.587
 74
0
 49
-0.318
 74
0
 49
0.318
 74
0
 49
-0.318
 74
0
  0
LTYPE
  5
32
330
2
100
AcDbSymbolTableRecord
100
AcDbLinetypeTableRecord
  2
DASHED
 70
0
  3
Dashed __ __ __ __ __ __ __ __ __ __ __ __ __ _
 72
65
 73
2
 40
1.524
 49
1.27
 74
0
 49
-0.254
 74
0
  0
LTYPE
  5
33
330
2
100
AcDbSymbolTableRecord
100
AcDbLinetypeTableRecord
  2
DASHEDX2
 70
0
  3
Dashed (2x) ____  ____  ____  ____  ____  ____
 72
65
 73
2
 40
3.048
 49
2.54
 74
0
 49
-0.508
 74
0
  0
LTYPE
  5
34
330
2
100
AcDbSymbolTableRecord
100
AcDbLinetypeTableRecord
  2
DASHED2
 70
0
  3
Dashed (.5x) _ _ _ _ _ _ _ _ _ _ _ _ _ _
 72
65
 73
2
 40
0.762
 49
0.635
 74
0
 49
-0.127
 74
0
  0
LTYPE
  5
35
330
2
100
AcDbSymbolTableRecord
100
AcDbLinetypeTableRecord
  2
PHANTOM
 70
0
  3
Phantom ______  __  __  ______  __  __  ______
 72
65
 73
6
 40
6.35
 49
3.175
 74
0
 49
-0.635
 74
0
 49
0.635
 74
0
 49
-0.635
 74
0
 49
0.635
 74
0
 49
-0.635
 74
0
  0
LTYPE
  5
36
330
2
100
AcDbSymbolTableRecord
100
AcDbLinetypeTableRecord
  2
PHANTOMX2
 70
0
  3
Phantom (2x)____________    ____    ____    ____________
 72
65
 73
6
 40
10.795
 49
6.35
 74
0
 49
-0.635
 74
0
 49
1.27
 74
0
 49
-0.635
 74
0
 49
1.27
 74
0
 49
-0.635
 74
0
  0
LTYPE
  5
37
330
2
100
AcDbSymbolTableRecord
100
AcDbLinetypeTableRecord
  2
PHANTOM2
 70
0
  3
Phantom (.5x) ___ _ _ ___ _ _ ___ _ _ ___ _ _ ___
 72
65
 73
6
 40
3.175
 49
1.587
 74
0
 49
-0.318
 74
0
 49
0.318
 74
0
 49
-0.318
 74
0
 49
0.318
 74
0
 49
-0.318
 74
0
  0
LTYPE
  5
38
330
2
100
AcDbSymbolTableRecord
100
AcDbLinetypeTableRecord
  2
DASHDOT
 70
0
  3
Dash dot __ . __ . __ . __ . __ . __ . __ . __
 72
65
 73
4
 40
3.556
 49
2.54
 74
0
 49
-0.508
 74
0
 49
0.0
 74
0
 49
-0.508
 74
0
  0
LTYPE
  5
39
330
2
100
AcDbSymbolTableRecord
100
AcDbLinetypeTableRecord
  2
DASHDOTX2
 70
0
  3
Dash dot (2x) ____  .  ____  .  ____  .  ____
 72
65
 73
4
 40
6.096
 49
5.08
 74
0
 49
-0.508
 74
0
 49
0.0
 74
0
 49
-0.508
 74
0
  0
LTYPE
  5
3A
330
2
100
AcDbSymbolTableRecord
100
AcDbLinetypeTableRecord
  2
DASHDOT2
 70
0
  3
Dash dot (.5x) _ . _ . _ . _ . _ . _ . _ . _
 72
65
 73
4
 40
1.778
 49
1.27
 74
0
 49
-0.254
 74
0
 49
0.0
 74
0
 49
-0.254
 74
0
  0
LTYPE
  5
3B
330
2
100
AcDbSymbolTableRecord
100
AcDbLinetypeTableRecord
  2
DOT
 70
0
  3
Dot .  .  .  .  .  .  .  .  .  .  .  .  .  .  .  .
 72
65
 73
2
 40
0.508
 49
0.0
 74
0
 49
-0.508
 74
0
  0
LTYPE
  5
3C
330
2
100
AcDbSymbolTableRecord
100
AcDbLinetypeTableRecord
  2
DOTX2
 70
0
  3
Dot (2x) .    .    .    .    .    .    .    . 
 72
65
 73
2
 40
1.016
 49
0.0
 74
0
 49
-1.016
 74
0
  0
LTYPE
  5
3D
330
2
100
AcDbSymbolTableRecord
100
AcDbLinetypeTableRecord
  2
DOT2
 70
0
  3
Dot (.5) . . . . . . . . . . . . . . . . . . . 
 72
65
 73
2
 40
0.254
 49
0.0
 74
0
 49
-0.254
 74
0
  0
LTYPE
  5
3E
330
2
100
AcDbSymbolTableRecord
100
AcDbLinetypeTableRecord
  2
DIVIDE
 70
0
  3
Divide __ . . __ . . __ . . __ . . __ . . __
 72
65
 73
6
 40
4.064
 49
2.54
 74
0
 49
-0.508
 74
0
 49
0.0
 74
0
 49
-0.508
 74
0
 49
0.0
 74
0
 49
-0.508
 74
0
  0
LTYPE
  5
3F
330
2
100
AcDbSymbolTableRecord
100
AcDbLinetypeTableRecord
  2
DIVIDEX2
 70
0
  3
Divide (2x) ____  . .  ____  . .  ____  . .  ____
 72
65
 73
6
 40
6.604
 49
5.08
 74
0
 49
-0.508
 74
0
 49
0.0
 74
0
 49
-0.508
 74
0
 49
0.0
 74
0
 49
-0.508
 74
0
  0
LTYPE
  5
40
330
2
100
AcDbSymbolTableRecord
100
AcDbLinetypeTableRecord
  2
DIVIDE2
 70
0
  3
Divide(.5x) _ . _ . _ . _ . _ . _ . _ . _
 72
65
 73
6
 40
2.032
 49
1.27
 74
0
 49
-0.254
 74
0
 49
0.0
 74
0
 49
-0.254
 74
0
 49
0.0
 74
0
 49
-0.254
 74
0
  0
ENDTAB
  0
TABLE
  2
LAYER
  5
1
330
0
100
AcDbSymbolTable
 70
19
  0
LAYER
  5
27
330
1
100
AcDbSymbolTableRecord
100
AcDbLayerTableRecord
  2
0
 70
0
 62
7
  6
Continuous
370
-3
390
13
347
21
  0
LAYER
  5
28
330
1
100
AcDbSymbolTableRecord
100
AcDbLayerTableRecord
  2
Defpoints
 70
0
 62
7
  6
Continuous
290
0
370
-3
390
13
347
21
  0
LAYER
  5
8D
330
1
100
AcDbSymbolTableRecord
100
AcDbLayerTableRecord
  2
A-WALL
 70
0
 62
7
420
0
  6
Continuous
370
50
390
13
347
21
  0
LAYER
  5
8E
330
1
100
AcDbSymbolTableRecord
100
AcDbLayerTableRecord
  2
A-WALL-FILL
 70
0
 62
7
420
10066329
  6
Continuous
370
13
390
13
347
21
  0
LAYER
  5
8F
330
1
100
AcDbSymbolTableRecord
100
AcDbLayerTableRecord
  2
A-COLS
 70
0
 62
7
420
0
  6
Continuous
370
50
390
13
347
21
  0
LAYER
  5
90
330
1
100
AcDbSymbolTableRecord
100
AcDbLayerTableRecord
  2
A-GLAZ
 70
0
 62
7
420
1731527
  6
Continuous
370
18
390
13
347
21
  0
LAYER
  5
91
330
1
100
AcDbSymbolTableRecord
100
AcDbLayerTableRecord
  2
A-GLAZ-FRAME
 70
0
 62
7
420
0
  6
Continuous
370
25
390
13
347
21
  0
LAYER
  5
92
330
1
100
AcDbSymbolTableRecord
100
AcDbLayerTableRecord
  2
A-DOOR
 70
0
 62
7
420
0
  6
Continuous
370
35
390
13
347
21
  0
LAYER
  5
93
330
1
100
AcDbSymbolTableRecord
100
AcDbLayerTableRecord
  2
A-DOOR-SWING
 70
0
 62
7
420
4210752
  6
Continuous
370
13
390
13
347
21
  0
LAYER
  5
94
330
1
100
AcDbSymbolTableRecord
100
AcDbLayerTableRecord
  2
A-SHAFT
 70
0
 62
7
420
0
  6
Continuous
370
25
390
13
347
21
  0
LAYER
  5
95
330
1
100
AcDbSymbolTableRecord
100
AcDbLayerTableRecord
  2
A-FIXT
 70
0
 62
7
420
2500134
  6
Continuous
370
18
390
13
347
21
  0
LAYER
  5
96
330
1
100
AcDbSymbolTableRecord
100
AcDbLayerTableRecord
  2
A-FURN
 70
0
 62
7
420
7039851
  6
Continuous
370
13
390
13
347
21
  0
LAYER
  5
97
330
1
100
AcDbSymbolTableRecord
100
AcDbLayerTableRecord
  2
A-DIMS
 70
0
 62
7
420
0
  6
Continuous
370
13
390
13
347
21
  0
LAYER
  5
98
330
1
100
AcDbSymbolTableRecord
100
AcDbLayerTableRecord
  2
A-TEXT
 70
0
 62
7
420
0
  6
Continuous
370
18
390
13
347
21
  0
LAYER
  5
99
330
1
100
AcDbSymbolTableRecord
100
AcDbLayerTableRecord
  2
A-SHEET
 70
0
 62
7
420
0
  6
Continuous
370
25
390
13
347
21
  0
LAYER
  5
9A
330
1
100
AcDbSymbolTableRecord
100
AcDbLayerTableRecord
  2
A-WALL-NEW
 70
0
 62
7
420
0
  6
Continuous
370
50
390
13
347
21
  0
LAYER
  5
9B
330
1
100
AcDbSymbolTableRecord
100
AcDbLayerTableRecord
  2
A-WALL-NEW-FILL
 70
0
 62
7
420
15567936
  6
Continuous
370
13
390
13
347
21
  0
LAYER
  5
9C
330
1
100
AcDbSymbolTableRecord
100
AcDbLayerTableRecord
  2
A-WALL-DEMO
 70
0
 62
7
420
5855577
  6
Continuous
370
25
390
13
347
21
  0
LAYER
  5
334
330
1
100
AcDbSymbolTableRecord
100
AcDbLayerTableRecord
  2
A-VPORT
 70
0
 62
7
  6
Continuous
290
0
370
-3
390
13
347
21
  0
ENDTAB
  0
TABLE
  2
STYLE
  5
5
330
0
100
AcDbSymbolTable
 70
29
  0
STYLE
  5
29
330
5
100
AcDbSymbolTableRecord
100
AcDbTextStyleTableRecord
  2
Standard
 70
0
 40
0.0
 41
1.0
 50
0.0
 71
0
 42
2.5
  3
txt
  4

  0
STYLE
  5
41
330
5
100
AcDbSymbolTableRecord
100
AcDbTextStyleTableRecord
  2
OpenSans-Light
 70
0
 40
0.0
 41
1.0
 50
0.0
 71
0
 42
2.5
  3
OpenSans-Light.ttf
  4

  0
STYLE
  5
42
330
5
100
AcDbSymbolTableRecord
100
AcDbTextStyleTableRecord
  2
OpenSans-Light-Italic
 70
0
 40
0.0
 41
1.0
 50
0.0
 71
0
 42
2.5
  3
OpenSans-LightItalic.ttf
  4

  0
STYLE
  5
43
330
5
100
AcDbSymbolTableRecord
100
AcDbTextStyleTableRecord
  2
OpenSans
 70
0
 40
0.0
 41
1.0
 50
0.0
 71
0
 42
2.5
  3
OpenSans-Regular.ttf
  4

  0
STYLE
  5
44
330
5
100
AcDbSymbolTableRecord
100
AcDbTextStyleTableRecord
  2
OpenSans-Italic
 70
0
 40
0.0
 41
1.0
 50
0.0
 71
0
 42
2.5
  3
OpenSans-Italic.ttf
  4

  0
STYLE
  5
45
330
5
100
AcDbSymbolTableRecord
100
AcDbTextStyleTableRecord
  2
OpenSans-SemiBold
 70
0
 40
0.0
 41
1.0
 50
0.0
 71
0
 42
2.5
  3
OpenSans-SemiBold.ttf
  4

  0
STYLE
  5
46
330
5
100
AcDbSymbolTableRecord
100
AcDbTextStyleTableRecord
  2
OpenSans-SemiBoldItalic
 70
0
 40
0.0
 41
1.0
 50
0.0
 71
0
 42
2.5
  3
OpenSans-SemiBoldItalic.ttf
  4

  0
STYLE
  5
47
330
5
100
AcDbSymbolTableRecord
100
AcDbTextStyleTableRecord
  2
OpenSans-Bold
 70
0
 40
0.0
 41
1.0
 50
0.0
 71
0
 42
2.5
  3
OpenSans-Bold.ttf
  4

  0
STYLE
  5
48
330
5
100
AcDbSymbolTableRecord
100
AcDbTextStyleTableRecord
  2
OpenSans-BoldItalic
 70
0
 40
0.0
 41
1.0
 50
0.0
 71
0
 42
2.5
  3
OpenSans-BoldItalic.ttf
  4

  0
STYLE
  5
49
330
5
100
AcDbSymbolTableRecord
100
AcDbTextStyleTableRecord
  2
OpenSans-ExtraBold
 70
0
 40
0.0
 41
1.0
 50
0.0
 71
0
 42
2.5
  3
OpenSans-ExtraBold.ttf
  4

  0
STYLE
  5
4A
330
5
100
AcDbSymbolTableRecord
100
AcDbTextStyleTableRecord
  2
OpenSans-ExtraBoldItalic
 70
0
 40
0.0
 41
1.0
 50
0.0
 71
0
 42
2.5
  3
OpenSans-ExtraBoldItalic.ttf
  4

  0
STYLE
  5
4B
330
5
100
AcDbSymbolTableRecord
100
AcDbTextStyleTableRecord
  2
OpenSansCondensed-Bold
 70
0
 40
0.0
 41
1.0
 50
0.0
 71
0
 42
2.5
  3
OpenSansCondensed-Bold.ttf
  4

  0
STYLE
  5
4C
330
5
100
AcDbSymbolTableRecord
100
AcDbTextStyleTableRecord
  2
OpenSansCondensed-Light
 70
0
 40
0.0
 41
1.0
 50
0.0
 71
0
 42
2.5
  3
OpenSansCondensed-Light.ttf
  4

  0
STYLE
  5
4D
330
5
100
AcDbSymbolTableRecord
100
AcDbTextStyleTableRecord
  2
OpenSansCondensed-Italic
 70
0
 40
0.0
 41
1.0
 50
0.0
 71
0
 42
2.5
  3
OpenSansCondensed-LightItalic.ttf
  4

  0
STYLE
  5
4E
330
5
100
AcDbSymbolTableRecord
100
AcDbTextStyleTableRecord
  2
LiberationSans
 70
0
 40
0.0
 41
1.0
 50
0.0
 71
0
 42
2.5
  3
LiberationSans-Regular.ttf
  4

  0
STYLE
  5
4F
330
5
100
AcDbSymbolTableRecord
100
AcDbTextStyleTableRecord
  2
LiberationSans-Bold
 70
0
 40
0.0
 41
1.0
 50
0.0
 71
0
 42
2.5
  3
LiberationSans-Bold.ttf
  4

  0
STYLE
  5
50
330
5
100
AcDbSymbolTableRecord
100
AcDbTextStyleTableRecord
  2
LiberationSans-BoldItalic
 70
0
 40
0.0
 41
1.0
 50
0.0
 71
0
 42
2.5
  3
LiberationSans-BoldItalic.ttf
  4

  0
STYLE
  5
51
330
5
100
AcDbSymbolTableRecord
100
AcDbTextStyleTableRecord
  2
LiberationSans-Italic
 70
0
 40
0.0
 41
1.0
 50
0.0
 71
0
 42
2.5
  3
LiberationSans-Italic.ttf
  4

  0
STYLE
  5
52
330
5
100
AcDbSymbolTableRecord
100
AcDbTextStyleTableRecord
  2
LiberationSerif
 70
0
 40
0.0
 41
1.0
 50
0.0
 71
0
 42
2.5
  3
LiberationSerif-Regular.ttf
  4

  0
STYLE
  5
53
330
5
100
AcDbSymbolTableRecord
100
AcDbTextStyleTableRecord
  2
LiberationSerif-Bold
 70
0
 40
0.0
 41
1.0
 50
0.0
 71
0
 42
2.5
  3
LiberationSerif-Bold.ttf
  4

  0
STYLE
  5
54
330
5
100
AcDbSymbolTableRecord
100
AcDbTextStyleTableRecord
  2
LiberationSerif-BoldItalic
 70
0
 40
0.0
 41
1.0
 50
0.0
 71
0
 42
2.5
  3
LiberationSerif-BoldItalic.ttf
  4

  0
STYLE
  5
55
330
5
100
AcDbSymbolTableRecord
100
AcDbTextStyleTableRecord
  2
LiberationSerif-Italic
 70
0
 40
0.0
 41
1.0
 50
0.0
 71
0
 42
2.5
  3
LiberationSerif-Italic.ttf
  4

  0
STYLE
  5
56
330
5
100
AcDbSymbolTableRecord
100
AcDbTextStyleTableRecord
  2
LiberationMono
 70
0
 40
0.0
 41
1.0
 50
0.0
 71
0
 42
2.5
  3
LiberationMono-Regular.ttf
  4

  0
STYLE
  5
57
330
5
100
AcDbSymbolTableRecord
100
AcDbTextStyleTableRecord
  2
LiberationMono-Bold
 70
0
 40
0.0
 41
1.0
 50
0.0
 71
0
 42
2.5
  3
LiberationMono-Bold.ttf
  4

  0
STYLE
  5
58
330
5
100
AcDbSymbolTableRecord
100
AcDbTextStyleTableRecord
  2
LiberationMono-BoldItalic
 70
0
 40
0.0
 41
1.0
 50
0.0
 71
0
 42
2.5
  3
LiberationMono-BoldItalic.ttf
  4

  0
STYLE
  5
59
330
5
100
AcDbSymbolTableRecord
100
AcDbTextStyleTableRecord
  2
LiberationMono-Italic
 70
0
 40
0.0
 41
1.0
 50
0.0
 71
0
 42
2.5
  3
LiberationMono-Italic.ttf
  4

  0
STYLE
  5
8A
330
5
100
AcDbSymbolTableRecord
100
AcDbTextStyleTableRecord
  2
PLAN-REGULAR
 70
0
 40
0.0
 41
1.0
 50
0.0
 71
0
 42
2.5
  3
arial.ttf
  4

  0
STYLE
  5
8B
330
5
100
AcDbSymbolTableRecord
100
AcDbTextStyleTableRecord
  2
PLAN-BOLD
 70
0
 40
0.0
 41
1.0
 50
0.0
 71
0
 42
2.5
  3
arialbd.ttf
  4

  0
STYLE
  5
8C
330
5
100
AcDbSymbolTableRecord
100
AcDbTextStyleTableRecord
  2
PLAN-ITALIC
 70
0
 40
0.0
 41
1.0
 50
0.0
 71
0
 42
2.5
  3
ariali.ttf
  4

  0
ENDTAB
  0
TABLE
  2
VIEW
  5
7
330
0
100
AcDbSymbolTable
 70
0
  0
ENDTAB
  0
TABLE
  2
UCS
  5
6
330
0
100
AcDbSymbolTable
 70
0
  0
ENDTAB
  0
TABLE
  2
APPID
  5
3
330
0
100
AcDbSymbolTable
 70
3
  0
APPID
  5
2A
330
3
100
AcDbSymbolTableRecord
100
AcDbRegAppTableRecord
  2
ACAD
 70
0
  0
APPID
  5
336
330
3
100
AcDbSymbolTableRecord
100
AcDbRegAppTableRecord
  2
HATCHBACKGROUNDCOLOR
 70
0
  0
APPID
  5
337
330
3
100
AcDbSymbolTableRecord
100
AcDbRegAppTableRecord
  2
EZDXF
 70
0
  0
ENDTAB
  0
TABLE
  2
DIMSTYLE
  5
4
330
0
100
AcDbSymbolTable
 70
13
100
AcDbDimStyleTable
  0
DIMSTYLE
105
2B
330
4
100
AcDbSymbolTableRecord
100
AcDbDimStyleTableRecord
  2
Standard
 70
0
 40
1.0
 41
2.5
 42
0.625
 43
3.75
 44
1.25
 45
0.0
 46
0.0
 47
0.0
 48
0.0
 49
2.5
140
2.5
141
2.5
142
0.0
143
0.03937007874
144
1.0
145
0.0
146
1.0
147
0.625
148
0.0
 69
0
 70
0
 71
0
 72
0
 73
0
 74
0
 75
0
 76
0
 77
1
 78
8
 79
3
170
0
171
3
172
1
173
0
174
0
175
0
176
0
177
0
178
0
179
2
271
2
272
2
273
2
274
3
275
0
276
0
277
2
278
44
279
0
280
0
281
0
282
0
283
0
284
8
285
0
286
0
288
0
289
3
290
0
371
-2
372
-2
  0
DIMSTYLE
105
73
330
4
100
AcDbSymbolTableRecord
100
AcDbDimStyleTableRecord
  2
EZDXF
 70
0
 40
1.0
 41
0.175
 42
0.125
 43
3.75
 44
0.375
 45
0.0
 46
0.0
 47
0.0
 48
0.0
 49
2.5
140
0.25
141
2.5
142
0.0
143
0.03937007874
144
100.0
145
0.0
146
0.5
147
0.1
148
0.0
 69
0
 70
0
 71
0
 72
0
 73
0
 74
0
 75
0
 76
0
 77
1
 78
12
 79
3
170
0
171
3
172
1
173
0
174
0
175
0
176
0
177
0
178
0
179
2
271
2
272
2
273
2
274
3
275
0
276
0
277
2
278
46
279
2
280
0
281
0
282
0
283
0
284
8
285
0
286
0
288
1
289
3
290
0
340
4C
342
74
371
-2
372
-2
  0
DIMSTYLE
105
7C
330
4
100
AcDbSymbolTableRecord
100
AcDbDimStyleTableRecord
  2
EZ_M_100_H25_CM
 70
0
 40
1.0
 41
0.25
 42
0.125
 43
3.75
 44
0.375
 45
0.0
 46
0.0
 47
0.0
 48
0.0
 49
2.5
140
0.25
141
2.5
142
0.125
143
0.03937007874
144
100.0
145
0.0
146
0.5
147
0.1
148
0.0
 69
0
 70
0
 71
0
 72
0
 73
0
 74
0
 75
0
 76
0
 77
1
 78
12
 79
3
170
0
171
3
172
1
173
0
174
0
175
0
176
0
177
0
178
0
179
2
271
2
272
2
273
2
274
3
275
0
276
0
277
2
278
46
279
2
280
0
281
0
282
0
283
0
284
8
285
0
286
0
288
1
289
3
290
0
340
4C
371
-2
372
-2
  0
DIMSTYLE
105
7D
330
4
100
AcDbSymbolTableRecord
100
AcDbDimStyleTableRecord
  2
EZ_M_50_H25_CM
 70
0
 40
1.0
 41
0.125
 42
0.0625
 43
3.75
 44
0.1875
 45
0.0
 46
0.0
 47
0.0
 48
0.0
 49
2.5
140
0.125
141
2.5
142
0.0625
143
0.03937007874
144
100.0
145
0.0
146
0.5
147
0.05
148
0.0
 69
0
 70
0
 71
0
 72
0
 73
0
 74
0
 75
0
 76
0
 77
1
 78
12
 79
3
170
0
171
3
172
1
173
0
174
0
175
0
176
0
177
0
178
0
179
2
271
2
272
2
273
2
274
3
275
0
276
0
277
2
278
46
279
2
280
0
281
0
282
0
283
0
284
8
285
0
286
0
288
1
289
3
290
0
340
4C
371
-2
372
-2
  0
DIMSTYLE
105
7E
330
4
100
AcDbSymbolTableRecord
100
AcDbDimStyleTableRecord
  2
EZ_M_25_H25_CM
 70
0
 40
1.0
 41
0.0625
 42
0.03125
 43
3.75
 44
0.09375
 45
0.0
 46
0.0
 47
0.0
 48
0.0
 49
2.5
140
0.0625
141
2.5
142
0.03125
143
0.03937007874
144
100.0
145
0.0
146
0.5
147
0.025
148
0.0
 69
0
 70
0
 71
0
 72
0
 73
0
 74
0
 75
0
 76
0
 77
1
 78
12
 79
3
170
0
171
3
172
1
173
0
174
0
175
0
176
0
177
0
178
0
179
2
271
2
272
2
273
2
274
3
275
0
276
0
277
2
278
46
279
2
280
0
281
0
282
0
283
0
284
8
285
0
286
0
288
1
289
3
290
0
340
4C
371
-2
372
-2
  0
DIMSTYLE
105
7F
330
4
100
AcDbSymbolTableRecord
100
AcDbDimStyleTableRecord
  2
EZ_M_20_H25_CM
 70
0
 40
1.0
 41
0.05
 42
0.025
 43
3.75
 44
0.07500000000000001
 45
0.0
 46
0.0
 47
0.0
 48
0.0
 49
2.5
140
0.05
141
2.5
142
0.025
143
0.03937007874
144
100.0
145
0.0
146
0.5
147
0.020000000000000004
148
0.0
 69
0
 70
0
 71
0
 72
0
 73
0
 74
0
 75
0
 76
0
 77
1
 78
12
 79
3
170
0
171
3
172
1
173
0
174
0
175
0
176
0
177
0
178
0
179
2
271
2
272
2
273
2
274
3
275
0
276
0
277
2
278
46
279
2
280
0
281
0
282
0
283
0
284
8
285
0
286
0
288
1
289
3
290
0
340
4C
371
-2
372
-2
  0
DIMSTYLE
105
80
330
4
100
AcDbSymbolTableRecord
100
AcDbDimStyleTableRecord
  2
EZ_M_10_H25_CM
 70
0
 40
1.0
 41
0.025
 42
0.0125
 43
3.75
 44
0.037500000000000006
 45
0.0
 46
0.0
 47
0.0
 48
0.0
 49
2.5
140
0.025
141
2.5
142
0.0125
143
0.03937007874
144
100.0
145
0.0
146
0.5
147
0.010000000000000002
148
0.0
 69
0
 70
0
 71
0
 72
0
 73
0
 74
0
 75
0
 76
0
 77
1
 78
12
 79
3
170
0
171
3
172
1
173
0
174
0
175
0
176
0
177
0
178
0
179
2
271
2
272
2
273
2
274
3
275
0
276
0
277
2
278
46
279
2
280
0
281
0
282
0
283
0
284
8
285
0
286
0
288
1
289
3
290
0
340
4C
371
-2
372
-2
  0
DIMSTYLE
105
81
330
4
100
AcDbSymbolTableRecord
100
AcDbDimStyleTableRecord
  2
EZ_M_5_H25_CM
 70
0
 40
1.0
 41
0.0125
 42
0.00625
 43
3.75
 44
0.018750000000000003
 45
0.0
 46
0.0
 47
0.0
 48
0.0
 49
2.5
140
0.0125
141
2.5
142
0.00625
143
0.03937007874
144
100.0
145
0.0
146
0.5
147
0.005000000000000001
148
0.0
 69
0
 70
0
 71
0
 72
0
 73
0
 74
0
 75
0
 76
0
 77
1
 78
12
 79
3
170
0
171
3
172
1
173
0
174
0
175
0
176
0
177
0
178
0
179
2
271
2
272
2
273
2
274
3
275
0
276
0
277
2
278
46
279
2
280
0
281
0
282
0
283
0
284
8
285
0
286
0
288
1
289
3
290
0
340
4C
371
-2
372
-2
  0
DIMSTYLE
105
82
330
4
100
AcDbSymbolTableRecord
100
AcDbDimStyleTableRecord
  2
EZ_M_1_H25_CM
 70
0
 40
1.0
 41
0.0025
 42
0.00125
 43
3.75
 44
0.00375
 45
0.0
 46
0.0
 47
0.0
 48
0.0
 49
2.5
140
0.0025
141
2.5
142
0.00125
143
0.03937007874
144
100.0
145
0.0
146
0.5
147
0.001
148
0.0
 69
0
 70
0
 71
0
 72
0
 73
0
 74
0
 75
0
 76
0
 77
1
 78
12
 79
3
170
0
171
3
172
1
173
0
174
0
175
0
176
0
177
0
178
0
179
2
271
2
272
2
273
2
274
3
275
0
276
0
277
2
278
46
279
2
280
0
281
0
282
0
283
0
284
8
285
0
286
0
288
1
289
3
290
0
340
4C
371
-2
372
-2
  0
DIMSTYLE
105
83
330
4
100
AcDbSymbolTableRecord
100
AcDbDimStyleTableRecord
  2
EZ_RADIUS
 70
0
 40
1.0
 41
0.25
 42
0.125
 43
3.75
 44
0.375
 45
0.0
 46
0.0
 47
0.0
 48
0.0
 49
2.5
140
0.25
141
0.0
142
0.0
143
0.03937007874
144
100.0
145
0.0
146
0.5
147
0.1
148
0.0
 69
0
 70
0
 71
0
 72
0
 73
0
 74
0
 75
0
 76
0
 77
1
 78
12
 79
3
170
0
171
3
172
0
173
0
174
0
175
0
176
0
177
0
178
0
179
2
271
2
272
2
273
2
274
3
275
0
276
0
277
2
278
46
279
1
280
0
281
0
282
0
283
0
284
8
285
0
286
0
288
1
289
3
290
0
340
4C
342
84
371
-2
372
-2
  0
DIMSTYLE
105
88
330
4
100
AcDbSymbolTableRecord
100
AcDbDimStyleTableRecord
  2
EZ_RADIUS_INSIDE
 70
0
 40
1.0
 41
0.25
 42
0.125
 43
3.75
 44
0.375
 45
0.0
 46
0.0
 47
0.0
 48
0.0
 49
2.5
140
0.25
141
0.0
142
0.0
143
0.03937007874
144
100.0
145
0.0
146
0.5
147
0.1
148
0.0
 69
0
 70
0
 71
0
 72
0
 73
0
 74
0
 75
0
 76
0
 77
0
 78
12
 79
3
170
0
171
3
172
0
173
0
174
1
175
0
176
0
177
0
178
0
179
2
271
2
272
2
273
2
274
3
275
0
276
0
277
2
278
46
279
0
280
0
281
0
282
0
283
0
284
8
285
0
286
0
288
1
289
0
290
0
340
4C
342
84
371
-2
372
-2
  0
DIMSTYLE
105
89
330
4
100
AcDbSymbolTableRecord
100
AcDbDimStyleTableRecord
  2
EZ_CURVED
 70
0
 40
1.0
 41
0.25
 42
0.125
 43
3.75
 44
0.375
 45
0.0
 46
0.0
 47
0.0
 48
0.0
 49
2.5
140
0.25
141
2.5
142
0.0
143
0.03937007874
144
100.0
145
0.0
146
0.5
147
0.1
148
0.0
 69
0
 70
0
 71
0
 72
0
 73
0
 74
0
 75
0
 76
0
 77
1
 78
12
 79
2
 90
2
170
0
171
3
172
1
173
0
174
0
175
0
176
0
177
0
178
0
179
2
271
2
272
2
273
2
274
3
275
0
276
0
277
2
278
46
279
2
280
0
281
0
282
0
283
0
284
8
285
0
286
0
288
1
289
3
290
0
340
4C
371
-2
372
-2
  0
DIMSTYLE
105
9D
330
4
100
AcDbSymbolTableRecord
100
AcDbDimStyleTableRecord
  2
PLAN-1-50
 70
0
 40
50.0
 41
2.5
 42
0.0
 43
3.75
 44
1.0
 45
0.0
 46
1.0
 47
0.0
 48
0.0
 49
2.5
140
2.5
141
2.5
142
1.1
143
0.03937007874
144
1.0
145
0.0
146
1.0
147
0.8
148
0.0
 69
1
 70
0
 71
0
 72
0
 73
0
 74
0
 75
0
 76
0
 77
1
 78
8
 79
3
170
0
171
3
172
1
173
0
174
0
175
0
176
0
177
0
178
0
179
2
271
0
272
2
273
2
274
3
275
0
276
0
277
2
278
44
279
0
280
0
281
0
282
0
283
0
284
8
285
0
286
0
288
0
289
3
290
0
340
8A
371
13
372
13
  0
ENDTAB
  0
TABLE
  2
BLOCK_RECORD
  5
9
330
0
100
AcDbSymbolTable
 70
25
  0
BLOCK_RECORD
  5
17
330
9
100
AcDbSymbolTableRecord
100
AcDbBlockTableRecord
  2
*Model_Space
340
1A
 70
0
280
1
281
0
  0
BLOCK_RECORD
  5
1B
330
9
100
AcDbSymbolTableRecord
100
AcDbBlockTableRecord
  2
*Paper_Space
340
1E
 70
0
280
1
281
0
  0
BLOCK_RECORD
  5
74
330
9
100
AcDbSymbolTableRecord
100
AcDbBlockTableRecord
  2
_ARCHTICK
340
0
 70
0
280
1
281
0
  0
BLOCK_RECORD
  5
78
330
9
100
AcDbSymbolTableRecord
100
AcDbBlockTableRecord
  2
_CLOSEDFILLED
340
0
 70
0
280
1
281
0
  0
BLOCK_RECORD
  5
84
330
9
100
AcDbSymbolTableRecord
100
AcDbBlockTableRecord
  2
_CLOSEDBLANK
340
0
 70
0
280
1
281
0
  0
BLOCK_RECORD
  5
1AF
330
9
100
AcDbSymbolTableRecord
100
AcDbBlockTableRecord
  2
*D1
340
0
 70
0
280
1
281
0
  0
BLOCK_RECORD
  5
1B2
330
9
100
AcDbSymbolTableRecord
100
AcDbBlockTableRecord
  2
_OBLIQUE
340
0
 70
0
280
1
281
0
  0
BLOCK_RECORD
  5
1C0
330
9
100
AcDbSymbolTableRecord
100
AcDbBlockTableRecord
  2
*D2
340
0
 70
0
280
1
281
0
  0
BLOCK_RECORD
  5
1CD
330
9
100
AcDbSymbolTableRecord
100
AcDbBlockTableRecord
  2
*D3
340
0
 70
0
280
1
281
0
  0
BLOCK_RECORD
  5
1DA
330
9
100
AcDbSymbolTableRecord
100
AcDbBlockTableRecord
  2
*D4
340
0
 70
0
280
1
281
0
  0
BLOCK_RECORD
  5
1E7
330
9
100
AcDbSymbolTableRecord
100
AcDbBlockTableRecord
  2
*D5
340
0
 70
0
280
1
281
0
  0
BLOCK_RECORD
  5
1F4
330
9
100
AcDbSymbolTableRecord
100
AcDbBlockTableRecord
  2
*D6
340
0
 70
0
280
1
281
0
  0
BLOCK_RECORD
  5
201
330
9
100
AcDbSymbolTableRecord
100
AcDbBlockTableRecord
  2
*D7
340
0
 70
0
280
1
281
0
  0
BLOCK_RECORD
  5
20E
330
9
100
AcDbSymbolTableRecord
100
AcDbBlockTableRecord
  2
*D8
340
0
 70
0
280
1
281
0
  0
BLOCK_RECORD
  5
21B
330
9
100
AcDbSymbolTableRecord
100
AcDbBlockTableRecord
  2
*D9
340
0
 70
0
280
1
281
0
  0
BLOCK_RECORD
  5
228
330
9
100
AcDbSymbolTableRecord
100
AcDbBlockTableRecord
  2
*D10
340
0
 70
0
280
1
281
0
  0
BLOCK_RECORD
  5
235
330
9
100
AcDbSymbolTableRecord
100
AcDbBlockTableRecord
  2
*D11
340
0
 70
0
280
1
281
0
  0
BLOCK_RECORD
  5
242
330
9
100
AcDbSymbolTableRecord
100
AcDbBlockTableRecord
  2
*D12
340
0
 70
0
280
1
281
0
  0
BLOCK_RECORD
  5
24F
330
9
100
AcDbSymbolTableRecord
100
AcDbBlockTableRecord
  2
*D13
340
0
 70
0
280
1
281
0
  0
BLOCK_RECORD
  5
25C
330
9
100
AcDbSymbolTableRecord
100
AcDbBlockTableRecord
  2
*D14
340
0
 70
0
280
1
281
0
  0
BLOCK_RECORD
  5
269
330
9
100
AcDbSymbolTableRecord
100
AcDbBlockTableRecord
  2
*D15
340
0
 70
0
280
1
281
0
  0
BLOCK_RECORD
  5
276
330
9
100
AcDbSymbolTableRecord
100
AcDbBlockTableRecord
  2
*D16
340
0
 70
0
280
1
281
0
  0
BLOCK_RECORD
  5
283
330
9
100
AcDbSymbolTableRecord
100
AcDbBlockTableRecord
  2
*D17
340
0
 70
0
280
1
281
0
  0
BLOCK_RECORD
  5
290
330
9
100
AcDbSymbolTableRecord
100
AcDbBlockTableRecord
  2
*D18
340
0
 70
0
280
1
281
0
  0
BLOCK_RECORD
  5
29C
330
9
100
AcDbSymbolTableRecord
100
AcDbBlockTableRecord
  2
*Paper_Space0
340
29F
 70
0
280
1
281
0
  0
ENDTAB
  0
ENDSEC
  0
SECTION
  2
BLOCKS
  0
BLOCK
  5
18
330
17
100
AcDbEntity
  8
0
100
AcDbBlockBegin
  2
*Model_Space
 70
0
 10
0.0
 20
0.0
 30
0.0
  3
*Model_Space
  1

  0
ENDBLK
  5
19
330
17
100
AcDbEntity
  8
0
100
AcDbBlockEnd
  0
BLOCK
  5
1C
330
1B
100
AcDbEntity
  8
0
100
AcDbBlockBegin
  2
*Paper_Space
 70
0
 10
0.0
 20
0.0
 30
0.0
  3
*Paper_Space
  1

  0
ENDBLK
  5
1D
330
1B
100
AcDbEntity
  8
0
100
AcDbBlockEnd
  0
BLOCK
  5
75
330
74
100
AcDbEntity
  8
0
100
AcDbBlockBegin
  2
_ARCHTICK
 70
0
 10
0.0
 20
0.0
 30
0.0
  3
_ARCHTICK
  1

  0
LWPOLYLINE
  5
77
330
74
100
AcDbEntity
  8
0
  6
BYBLOCK
 62
0
100
AcDbPolyline
 90
2
 70
0
 43
0.15
 10
-0.5
 20
-0.5
 10
0.5
 20
0.5
  0
ENDBLK
  5
76
330
74
100
AcDbEntity
  8
0
100
AcDbBlockEnd
  0
BLOCK
  5
79
330
78
100
AcDbEntity
  8
0
100
AcDbBlockBegin
  2
_CLOSEDFILLED
 70
0
 10
0.0
 20
0.0
 30
0.0
  3
_CLOSEDFILLED
  1

  0
SOLID
  5
7B
330
78
100
AcDbEntity
  8
0
  6
BYBLOCK
 62
0
100
AcDbTrace
 10
-1.0
 20
0.16439898372402537
 30
0.0
 11
0.0
 21
0.0
 31
0.0
 12
-1.0
 22
-0.16439898372402537
 32
0.0
 13
-1.0
 23
-0.16439898372402537
 33
0.0
  0
ENDBLK
  5
7A
330
78
100
AcDbEntity
  8
0
100
AcDbBlockEnd
  0
BLOCK
  5
85
330
84
100
AcDbEntity
  8
0
100
AcDbBlockBegin
  2
_CLOSEDBLANK
 70
0
 10
0.0
 20
0.0
 30
0.0
  3
_CLOSEDBLANK
  1

  0
LWPOLYLINE
  5
87
330
84
100
AcDbEntity
  8
0
  6
BYBLOCK
 62
0
100
AcDbPolyline
 90
3
 70
1
 10
-1.0
 20
0.16439898372402537
 10
0.0
 20
0.0
 10
-1.0
 20
-0.16439898372402537
  0
ENDBLK
  5
86
330
84
100
AcDbEntity
  8
0
100
AcDbBlockEnd
  0
BLOCK
  5
1B0
330
1AF
100
AcDbEntity
  8
0
100
AcDbBlockBegin
  2
*D1
 70
1
 10
0.0
 20
0.0
 30
0.0
  3
*D1
  1

  0
INSERT
  5
1B6
330
1AF
100
AcDbEntity
  8
A-DIMS
100
AcDbBlockReference
  2
_OBLIQUE
 10
1200.0
 20
13900.0
 30
0.0
 41
110.00000000000001
 42
110.00000000000001
  0
INSERT
  5
1B8
330
1AF
100
AcDbEntity
  8
A-DIMS
100
AcDbBlockReference
  2
_OBLIQUE
 10
4800.0
 20
13900.0
 30
0.0
 41
110.00000000000001
 42
110.00000000000001
  0
LINE
  5
1BA
330
1AF
100
AcDbEntity
  8
0
370
13
100
AcDbLine
 10
1150.0
 20
13900.0
 30
0.0
 11
4850.0
 21
13900.0
 31
0.0
  0
MTEXT
  5
1BB
330
1AF
100
AcDbEntity
  8
A-DIMS
100
AcDbMText
 10
3000.0
 20
14002.5
 30
0.0
 40
125.0
 71
5
  1
3600
  7
PLAN-REGULAR
 45
1.1
 90
3
 63
1
  0
POINT
  5
1BC
330
1AF
100
AcDbEntity
  8
Defpoints
100
AcDbPoint
 10
1200.0
 20
13900.0
 30
0.0
  0
POINT
  5
1BD
330
1AF
100
AcDbEntity
  8
Defpoints
100
AcDbPoint
 10
1200.0
 20
13900.0
 30
0.0
  0
POINT
  5
1BE
330
1AF
100
AcDbEntity
  8
Defpoints
100
AcDbPoint
 10
4800.0
 20
13900.0
 30
0.0
  0
ENDBLK
  5
1B1
330
1AF
100
AcDbEntity
  8
0
100
AcDbBlockEnd
  0
BLOCK
  5
1B3
330
1B2
100
AcDbEntity
  8
0
100
AcDbBlockBegin
  2
_OBLIQUE
 70
0
 10
0.0
 20
0.0
 30
0.0
  3
_OBLIQUE
  1

  0
LINE
  5
1B5
330
1B2
100
AcDbEntity
  8
0
  6
BYBLOCK
 62
0
100
AcDbLine
 10
-0.5
 20
-0.5
 30
0.0
 11
0.5
 21
0.5
 31
0.0
  0
ENDBLK
  5
1B4
330
1B2
100
AcDbEntity
  8
0
100
AcDbBlockEnd
  0
BLOCK
  5
1C1
330
1C0
100
AcDbEntity
  8
0
100
AcDbBlockBegin
  2
*D2
 70
1
 10
0.0
 20
0.0
 30
0.0
  3
*D2
  1

  0
INSERT
  5
1C3
330
1C0
100
AcDbEntity
  8
A-DIMS
100
AcDbBlockReference
  2
_OBLIQUE
 10
4100.0
 20
14150.0
 30
0.0
 41
110.00000000000001
 42
110.00000000000001
 50
90.0
  0
INSERT
  5
1C5
330
1C0
100
AcDbEntity
  8
A-DIMS
100
AcDbBlockReference
  2
_OBLIQUE
 10
4100.0
 20
12150.0
 30
0.0
 41
110.00000000000001
 42
110.00000000000001
 50
90.0
  0
LINE
  5
1C7
330
1C0
100
AcDbEntity
  8
0
370
13
100
AcDbLine
 10
4100.0
 20
14200.0
 30
0.0
 11
4100.0
 21
12100.0
 31
0.0
  0
MTEXT
  5
1C8
330
1C0
100
AcDbEntity
  8
A-DIMS
100
AcDbMText
 10
4202.5
 20
13150.0
 30
0.0
 40
125.0
 71
5
  1
2000
  7
PLAN-REGULAR
 50
90.0
 45
1.1
 90
3
 63
1
  0
POINT
  5
1C9
330
1C0
100
AcDbEntity
  8
Defpoints
100
AcDbPoint
 10
4100.0
 20
14150.0
 30
0.0
  0
POINT
  5
1CA
330
1C0
100
AcDbEntity
  8
Defpoints
100
AcDbPoint
 10
4100.0
 20
14150.0
 30
0.0
  0
POINT
  5
1CB
330
1C0
100
AcDbEntity
  8
Defpoints
100
AcDbPoint
 10
4100.0
 20
12150.0
 30
0.0
  0
ENDBLK
  5
1C2
330
1C0
100
AcDbEntity
  8
0
100
AcDbBlockEnd
  0
BLOCK
  5
1CE
330
1CD
100
AcDbEntity
  8
0
100
AcDbBlockBegin
  2
*D3
 70
1
 10
0.0
 20
0.0
 30
0.0
  3
*D3
  1

  0
INSERT
  5
1D0
330
1CD
100
AcDbEntity
  8
A-DIMS
100
AcDbBlockReference
  2
_OBLIQUE
 10
6380.0
 20
13775.0
 30
0.0
 41
110.00000000000001
 42
110.00000000000001
  0
INSERT
  5
1D2
330
1CD
100
AcDbEntity
  8
A-DIMS
100
AcDbBlockReference
  2
_OBLIQUE
 10
11350.0
 20
13775.0
 30
0.0
 41
110.00000000000001
 42
110.00000000000001
  0
LINE
  5
1D4
330
1CD
100
AcDbEntity
  8
0
370
13
100
AcDbLine
 10
6330.0
 20
13775.0
 30
0.0
 11
11400.0
 21
13775.0
 31
0.0
  0
MTEXT
  5
1D5
330
1CD
100
AcDbEntity
  8
A-DIMS
100
AcDbMText
 10
8865.0
 20
13877.5
 30
0.0
 40
125.0
 71
5
  1
4970
  7
PLAN-REGULAR
 45
1.1
 90
3
 63
1
  0
POINT
  5
1D6
330
1CD
100
AcDbEntity
  8
Defpoints
100
AcDbPoint
 10
6380.0
 20
13775.0
 30
0.0
  0
POINT
  5
1D7
330
1CD
100
AcDbEntity
  8
Defpoints
100
AcDbPoint
 10
6380.0
 20
13775.0
 30
0.0
  0
POINT
  5
1D8
330
1CD
100
AcDbEntity
  8
Defpoints
100
AcDbPoint
 10
11350.0
 20
13775.0
 30
0.0
  0
ENDBLK
  5
1CF
330
1CD
100
AcDbEntity
  8
0
100
AcDbBlockEnd
  0
BLOCK
  5
1DB
330
1DA
100
AcDbEntity
  8
0
100
AcDbBlockBegin
  2
*D4
 70
1
 10
0.0
 20
0.0
 30
0.0
  3
*D4
  1

  0
INSERT
  5
1DD
330
1DA
100
AcDbEntity
  8
A-DIMS
100
AcDbBlockReference
  2
_OBLIQUE
 10
10500.0
 20
14150.0
 30
0.0
 41
110.00000000000001
 42
110.00000000000001
 50
90.0
  0
INSERT
  5
1DF
330
1DA
100
AcDbEntity
  8
A-DIMS
100
AcDbBlockReference
  2
_OBLIQUE
 10
10500.0
 20
11150.0
 30
0.0
 41
110.00000000000001
 42
110.00000000000001
 50
90.0
  0
LINE
  5
1E1
330
1DA
100
AcDbEntity
  8
0
370
13
100
AcDbLine
 10
10500.0
 20
14200.0
 30
0.0
 11
10500.0
 21
11100.0
 31
0.0
  0
MTEXT
  5
1E2
330
1DA
100
AcDbEntity
  8
A-DIMS
100
AcDbMText
 10
10397.5
 20
11900.0
 30
0.0
 40
125.0
 71
5
  1
3000
  7
PLAN-REGULAR
 50
90.0
 45
1.1
 90
3
 63
1
  0
POINT
  5
1E3
330
1DA
100
AcDbEntity
  8
Defpoints
100
AcDbPoint
 10
10500.0
 20
14150.0
 30
0.0
  0
POINT
  5
1E4
330
1DA
100
AcDbEntity
  8
Defpoints
100
AcDbPoint
 10
10500.0
 20
14150.0
 30
0.0
  0
POINT
  5
1E5
330
1DA
100
AcDbEntity
  8
Defpoints
100
AcDbPoint
 10
10500.0
 20
11150.0
 30
0.0
  0
ENDBLK
  5
1DC
330
1DA
100
AcDbEntity
  8
0
100
AcDbBlockEnd
  0
BLOCK
  5
1E8
330
1E7
100
AcDbEntity
  8
0
100
AcDbBlockBegin
  2
*D5
 70
1
 10
0.0
 20
0.0
 30
0.0
  3
*D5
  1

  0
INSERT
  5
1EA
330
1E7
100
AcDbEntity
  8
A-DIMS
100
AcDbBlockReference
  2
_OBLIQUE
 10
3400.0
 20
11950.0
 30
0.0
 41
110.00000000000001
 42
110.00000000000001
 50
90.0
  0
INSERT
  5
1EC
330
1E7
100
AcDbEntity
  8
A-DIMS
100
AcDbBlockReference
  2
_OBLIQUE
 10
3400.0
 20
9500.0
 30
0.0
 41
110.00000000000001
 42
110.00000000000001
 50
90.0
  0
LINE
  5
1EE
330
1E7
100
AcDbEntity
  8
0
370
13
100
AcDbLine
 10
3400.0
 20
12000.0
 30
0.0
 11
3400.0
 21
9450.0
 31
0.0
  0
MTEXT
  5
1EF
330
1E7
100
AcDbEntity
  8
A-DIMS
100
AcDbMText
 10
3502.5
 20
10725.0
 30
0.0
 40
125.0
 71
5
  1
2450
  7
PLAN-REGULAR
 50
90.0
 45
1.1
 90
3
 63
1
  0
POINT
  5
1F0
330
1E7
100
AcDbEntity
  8
Defpoints
100
AcDbPoint
 10
3400.0
 20
11950.0
 30
0.0
  0
POINT
  5
1F1
330
1E7
100
AcDbEntity
  8
Defpoints
100
AcDbPoint
 10
3400.0
 20
11950.0
 30
0.0
  0
POINT
  5
1F2
330
1E7
100
AcDbEntity
  8
Defpoints
100
AcDbPoint
 10
3400.0
 20
9500.0
 30
0.0
  0
ENDBLK
  5
1E9
330
1E7
100
AcDbEntity
  8
0
100
AcDbBlockEnd
  0
BLOCK
  5
1F5
330
1F4
100
AcDbEntity
  8
0
100
AcDbBlockBegin
  2
*D6
 70
1
 10
0.0
 20
0.0
 30
0.0
  3
*D6
  1

  0
INSERT
  5
1F7
330
1F4
100
AcDbEntity
  8
A-DIMS
100
AcDbBlockReference
  2
_OBLIQUE
 10
3235.0
 20
9770.0
 30
0.0
 41
110.00000000000001
 42
110.00000000000001
  0
INSERT
  5
1F9
330
1F4
100
AcDbEntity
  8
A-DIMS
100
AcDbBlockReference
  2
_OBLIQUE
 10
4900.0
 20
9770.0
 30
0.0
 41
110.00000000000001
 42
110.00000000000001
  0
LINE
  5
1FB
330
1F4
100
AcDbEntity
  8
0
370
13
100
AcDbLine
 10
3185.0
 20
9770.0
 30
0.0
 11
4950.0
 21
9770.0
 31
0.0
  0
MTEXT
  5
1FC
330
1F4
100
AcDbEntity
  8
A-DIMS
100
AcDbMText
 10
4067.5
 20
9872.5
 30
0.0
 40
125.0
 71
5
  1
1665
  7
PLAN-REGULAR
 45
1.1
 90
3
 63
1
  0
POINT
  5
1FD
330
1F4
100
AcDbEntity
  8
Defpoints
100
AcDbPoint
 10
3235.0
 20
9770.0
 30
0.0
  0
POINT
  5
1FE
330
1F4
100
AcDbEntity
  8
Defpoints
100
AcDbPoint
 10
3235.0
 20
9770.0
 30
0.0
  0
POINT
  5
1FF
330
1F4
100
AcDbEntity
  8
Defpoints
100
AcDbPoint
 10
4900.0
 20
9770.0
 30
0.0
  0
ENDBLK
  5
1F6
330
1F4
100
AcDbEntity
  8
0
100
AcDbBlockEnd
  0
BLOCK
  5
202
330
201
100
AcDbEntity
  8
0
100
AcDbBlockBegin
  2
*D7
 70
1
 10
0.0
 20
0.0
 30
0.0
  3
*D7
  1

  0
INSERT
  5
204
330
201
100
AcDbEntity
  8
A-DIMS
100
AcDbBlockReference
  2
_OBLIQUE
 10
5100.0
 20
10650.0
 30
0.0
 41
110.00000000000001
 42
110.00000000000001
  0
INSERT
  5
206
330
201
100
AcDbEntity
  8
A-DIMS
100
AcDbBlockReference
  2
_OBLIQUE
 10
6950.0
 20
10650.0
 30
0.0
 41
110.00000000000001
 42
110.00000000000001
  0
LINE
  5
208
330
201
100
AcDbEntity
  8
0
370
13
100
AcDbLine
 10
5050.0
 20
10650.0
 30
0.0
 11
7000.0
 21
10650.0
 31
0.0
  0
MTEXT
  5
209
330
201
100
AcDbEntity
  8
A-DIMS
100
AcDbMText
 10
6025.0
 20
10752.5
 30
0.0
 40
125.0
 71
5
  1
1850
  7
PLAN-REGULAR
 45
1.1
 90
3
 63
1
  0
POINT
  5
20A
330
201
100
AcDbEntity
  8
Defpoints
100
AcDbPoint
 10
5100.0
 20
10650.0
 30
0.0
  0
POINT
  5
20B
330
201
100
AcDbEntity
  8
Defpoints
100
AcDbPoint
 10
5100.0
 20
10650.0
 30
0.0
  0
POINT
  5
20C
330
201
100
AcDbEntity
  8
Defpoints
100
AcDbPoint
 10
6950.0
 20
10650.0
 30
0.0
  0
ENDBLK
  5
203
330
201
100
AcDbEntity
  8
0
100
AcDbBlockEnd
  0
BLOCK
  5
20F
330
20E
100
AcDbEntity
  8
0
100
AcDbBlockBegin
  2
*D8
 70
1
 10
0.0
 20
0.0
 30
0.0
  3
*D8
  1

  0
INSERT
  5
211
330
20E
100
AcDbEntity
  8
A-DIMS
100
AcDbBlockReference
  2
_OBLIQUE
 10
5100.0
 20
7250.0
 30
0.0
 41
110.00000000000001
 42
110.00000000000001
  0
INSERT
  5
213
330
20E
100
AcDbEntity
  8
A-DIMS
100
AcDbBlockReference
  2
_OBLIQUE
 10
8000.0
 20
7250.0
 30
0.0
 41
110.00000000000001
 42
110.00000000000001
  0
LINE
  5
215
330
20E
100
AcDbEntity
  8
0
370
13
100
AcDbLine
 10
5050.0
 20
7250.0
 30
0.0
 11
8050.0
 21
7250.0
 31
0.0
  0
MTEXT
  5
216
330
20E
100
AcDbEntity
  8
A-DIMS
100
AcDbMText
 10
6550.0
 20
7352.5
 30
0.0
 40
125.0
 71
5
  1
2900
  7
PLAN-REGULAR
 45
1.1
 90
3
 63
1
  0
POINT
  5
217
330
20E
100
AcDbEntity
  8
Defpoints
100
AcDbPoint
 10
5100.0
 20
7250.0
 30
0.0
  0
POINT
  5
218
330
20E
100
AcDbEntity
  8
Defpoints
100
AcDbPoint
 10
5100.0
 20
7250.0
 30
0.0
  0
POINT
  5
219
330
20E
100
AcDbEntity
  8
Defpoints
100
AcDbPoint
 10
8000.0
 20
7250.0
 30
0.0
  0
ENDBLK
  5
210
330
20E
100
AcDbEntity
  8
0
100
AcDbBlockEnd
  0
BLOCK
  5
21C
330
21B
100
AcDbEntity
  8
0
100
AcDbBlockBegin
  2
*D9
 70
1
 10
0.0
 20
0.0
 30
0.0
  3
*D9
  1

  0
INSERT
  5
21E
330
21B
100
AcDbEntity
  8
A-DIMS
100
AcDbBlockReference
  2
_OBLIQUE
 10
7150.0
 20
10250.0
 30
0.0
 41
110.00000000000001
 42
110.00000000000001
  0
INSERT
  5
220
330
21B
100
AcDbEntity
  8
A-DIMS
100
AcDbBlockReference
  2
_OBLIQUE
 10
10600.0
 20
10250.0
 30
0.0
 41
110.00000000000001
 42
110.00000000000001
  0
LINE
  5
222
330
21B
100
AcDbEntity
  8
0
370
13
100
AcDbLine
 10
7100.0
 20
10250.0
 30
0.0
 11
10650.0
 21
10250.0
 31
0.0
  0
MTEXT
  5
223
330
21B
100
AcDbEntity
  8
A-DIMS
100
AcDbMText
 10
7800.0
 20
10352.5
 30
0.0
 40
125.0
 71
5
  1
3450
  7
PLAN-REGULAR
 45
1.1
 90
3
 63
1
  0
POINT
  5
224
330
21B
100
AcDbEntity
  8
Defpoints
100
AcDbPoint
 10
7150.0
 20
10250.0
 30
0.0
  0
POINT
  5
225
330
21B
100
AcDbEntity
  8
Defpoints
100
AcDbPoint
 10
7150.0
 20
10250.0
 30
0.0
  0
POINT
  5
226
330
21B
100
AcDbEntity
  8
Defpoints
100
AcDbPoint
 10
10600.0
 20
10250.0
 30
0.0
  0
ENDBLK
  5
21D
330
21B
100
AcDbEntity
  8
0
100
AcDbBlockEnd
  0
BLOCK
  5
229
330
228
100
AcDbEntity
  8
0
100
AcDbBlockBegin
  2
*D10
 70
1
 10
0.0
 20
0.0
 30
0.0
  3
*D10
  1

  0
INSERT
  5
22B
330
228
100
AcDbEntity
  8
A-DIMS
100
AcDbBlockReference
  2
_OBLIQUE
 10
8300.0
 20
10950.0
 30
0.0
 41
110.00000000000001
 42
110.00000000000001
 50
90.0
  0
INSERT
  5
22D
330
228
100
AcDbEntity
  8
A-DIMS
100
AcDbBlockReference
  2
_OBLIQUE
 10
8300.0
 20
9250.0
 30
0.0
 41
110.00000000000001
 42
110.00000000000001
 50
90.0
  0
LINE
  5
22F
330
228
100
AcDbEntity
  8
0
370
13
100
AcDbLine
 10
8300.0
 20
11000.0
 30
0.0
 11
8300.0
 21
9200.0
 31
0.0
  0
MTEXT
  5
230
330
228
100
AcDbEntity
  8
A-DIMS
100
AcDbMText
 10
8197.5
 20
9600.0
 30
0.0
 40
125.0
 71
5
  1
1700
  7
PLAN-REGULAR
 50
90.0
 45
1.1
 90
3
 63
1
  0
POINT
  5
231
330
228
100
AcDbEntity
  8
Defpoints
100
AcDbPoint
 10
8300.0
 20
10950.0
 30
0.0
  0
POINT
  5
232
330
228
100
AcDbEntity
  8
Defpoints
100
AcDbPoint
 10
8300.0
 20
10950.0
 30
0.0
  0
POINT
  5
233
330
228
100
AcDbEntity
  8
Defpoints
100
AcDbPoint
 10
8300.0
 20
9250.0
 30
0.0
  0
ENDBLK
  5
22A
330
228
100
AcDbEntity
  8
0
100
AcDbBlockEnd
  0
BLOCK
  5
236
330
235
100
AcDbEntity
  8
0
100
AcDbBlockBegin
  2
*D11
 70
1
 10
0.0
 20
0.0
 30
0.0
  3
*D11
  1

  0
INSERT
  5
238
330
235
100
AcDbEntity
  8
A-DIMS
100
AcDbBlockReference
  2
_OBLIQUE
 10
8200.0
 20
8900.0
 30
0.0
 41
110.00000000000001
 42
110.00000000000001
  0
INSERT
  5
23A
330
235
100
AcDbEntity
  8
A-DIMS
100
AcDbBlockReference
  2
_OBLIQUE
 10
9700.0
 20
8900.0
 30
0.0
 41
110.00000000000001
 42
110.00000000000001
  0
LINE
  5
23C
330
235
100
AcDbEntity
  8
0
370
13
100
AcDbLine
 10
8150.0
 20
8900.0
 30
0.0
 11
9750.0
 21
8900.0
 31
0.0
  0
MTEXT
  5
23D
330
235
100
AcDbEntity
  8
A-DIMS
100
AcDbMText
 10
8650.0
 20
9002.5
 30
0.0
 40
125.0
 71
5
  1
1500
  7
PLAN-REGULAR
 45
1.1
 90
3
 63
1
  0
POINT
  5
23E
330
235
100
AcDbEntity
  8
Defpoints
100
AcDbPoint
 10
8200.0
 20
8900.0
 30
0.0
  0
POINT
  5
23F
330
235
100
AcDbEntity
  8
Defpoints
100
AcDbPoint
 10
8200.0
 20
8900.0
 30
0.0
  0
POINT
  5
240
330
235
100
AcDbEntity
  8
Defpoints
100
AcDbPoint
 10
9700.0
 20
8900.0
 30
0.0
  0
ENDBLK
  5
237
330
235
100
AcDbEntity
  8
0
100
AcDbBlockEnd
  0
BLOCK
  5
243
330
242
100
AcDbEntity
  8
0
100
AcDbBlockBegin
  2
*D12
 70
1
 10
0.0
 20
0.0
 30
0.0
  3
*D12
  1

  0
INSERT
  5
245
330
242
100
AcDbEntity
  8
A-DIMS
100
AcDbBlockReference
  2
_OBLIQUE
 10
9550.0
 20
9050.0
 30
0.0
 41
110.00000000000001
 42
110.00000000000001
 50
90.0
  0
INSERT
  5
247
330
242
100
AcDbEntity
  8
A-DIMS
100
AcDbBlockReference
  2
_OBLIQUE
 10
9550.0
 20
7900.0
 30
0.0
 41
110.00000000000001
 42
110.00000000000001
 50
90.0
  0
LINE
  5
249
330
242
100
AcDbEntity
  8
0
370
13
100
AcDbLine
 10
9550.0
 20
9100.0
 30
0.0
 11
9550.0
 21
7850.0
 31
0.0
  0
MTEXT
  5
24A
330
242
100
AcDbEntity
  8
A-DIMS
100
AcDbMText
 10
9447.5
 20
8170.0
 30
0.0
 40
125.0
 71
5
  1
1150
  7
PLAN-REGULAR
 50
90.0
 45
1.1
 90
3
 63
1
  0
POINT
  5
24B
330
242
100
AcDbEntity
  8
Defpoints
100
AcDbPoint
 10
9550.0
 20
9050.0
 30
0.0
  0
POINT
  5
24C
330
242
100
AcDbEntity
  8
Defpoints
100
AcDbPoint
 10
9550.0
 20
9050.0
 30
0.0
  0
POINT
  5
24D
330
242
100
AcDbEntity
  8
Defpoints
100
AcDbPoint
 10
9550.0
 20
7900.0
 30
0.0
  0
ENDBLK
  5
244
330
242
100
AcDbEntity
  8
0
100
AcDbBlockEnd
  0
BLOCK
  5
250
330
24F
100
AcDbEntity
  8
0
100
AcDbBlockBegin
  2
*D13
 70
1
 10
0.0
 20
0.0
 30
0.0
  3
*D13
  1

  0
INSERT
  5
252
330
24F
100
AcDbEntity
  8
A-DIMS
100
AcDbBlockReference
  2
_OBLIQUE
 10
9800.0
 20
8500.0
 30
0.0
 41
110.00000000000001
 42
110.00000000000001
  0
INSERT
  5
254
330
24F
100
AcDbEntity
  8
A-DIMS
100
AcDbBlockReference
  2
_OBLIQUE
 10
11350.0
 20
8500.0
 30
0.0
 41
110.00000000000001
 42
110.00000000000001
  0
LINE
  5
256
330
24F
100
AcDbEntity
  8
0
370
13
100
AcDbLine
 10
9750.0
 20
8500.0
 30
0.0
 11
11400.0
 21
8500.0
 31
0.0
  0
MTEXT
  5
257
330
24F
100
AcDbEntity
  8
A-DIMS
100
AcDbMText
 10
10500.0
 20
8602.5
 30
0.0
 40
125.0
 71
5
  1
1550
  7
PLAN-REGULAR
 45
1.1
 90
3
 63
1
  0
POINT
  5
258
330
24F
100
AcDbEntity
  8
Defpoints
100
AcDbPoint
 10
9800.0
 20
8500.0
 30
0.0
  0
POINT
  5
259
330
24F
100
AcDbEntity
  8
Defpoints
100
AcDbPoint
 10
9800.0
 20
8500.0
 30
0.0
  0
POINT
  5
25A
330
24F
100
AcDbEntity
  8
Defpoints
100
AcDbPoint
 10
11350.0
 20
8500.0
 30
0.0
  0
ENDBLK
  5
251
330
24F
100
AcDbEntity
  8
0
100
AcDbBlockEnd
  0
BLOCK
  5
25D
330
25C
100
AcDbEntity
  8
0
100
AcDbBlockBegin
  2
*D14
 70
1
 10
0.0
 20
0.0
 30
0.0
  3
*D14
  1

  0
INSERT
  5
25F
330
25C
100
AcDbEntity
  8
A-DIMS
100
AcDbBlockReference
  2
_OBLIQUE
 10
8200.0
 20
2400.0
 30
0.0
 41
110.00000000000001
 42
110.00000000000001
  0
INSERT
  5
261
330
25C
100
AcDbEntity
  8
A-DIMS
100
AcDbBlockReference
  2
_OBLIQUE
 10
11350.0
 20
2400.0
 30
0.0
 41
110.00000000000001
 42
110.00000000000001
  0
LINE
  5
263
330
25C
100
AcDbEntity
  8
0
370
13
100
AcDbLine
 10
8150.0
 20
2400.0
 30
0.0
 11
11400.0
 21
2400.0
 31
0.0
  0
MTEXT
  5
264
330
25C
100
AcDbEntity
  8
A-DIMS
100
AcDbMText
 10
9775.0
 20
2502.5
 30
0.0
 40
125.0
 71
5
  1
3150
  7
PLAN-REGULAR
 45
1.1
 90
3
 63
1
  0
POINT
  5
265
330
25C
100
AcDbEntity
  8
Defpoints
100
AcDbPoint
 10
8200.0
 20
2400.0
 30
0.0
  0
POINT
  5
266
330
25C
100
AcDbEntity
  8
Defpoints
100
AcDbPoint
 10
8200.0
 20
2400.0
 30
0.0
  0
POINT
  5
267
330
25C
100
AcDbEntity
  8
Defpoints
100
AcDbPoint
 10
11350.0
 20
2400.0
 30
0.0
  0
ENDBLK
  5
25E
330
25C
100
AcDbEntity
  8
0
100
AcDbBlockEnd
  0
BLOCK
  5
26A
330
269
100
AcDbEntity
  8
0
100
AcDbBlockBegin
  2
*D15
 70
1
 10
0.0
 20
0.0
 30
0.0
  3
*D15
  1

  0
INSERT
  5
26C
330
269
100
AcDbEntity
  8
A-DIMS
100
AcDbBlockReference
  2
_OBLIQUE
 10
8700.0
 20
7800.0
 30
0.0
 41
110.00000000000001
 42
110.00000000000001
 50
90.0
  0
INSERT
  5
26E
330
269
100
AcDbEntity
  8
A-DIMS
100
AcDbBlockReference
  2
_OBLIQUE
 10
8700.0
 20
2000.0
 30
0.0
 41
110.00000000000001
 42
110.00000000000001
 50
90.0
  0
LINE
  5
270
330
269
100
AcDbEntity
  8
0
370
13
100
AcDbLine
 10
8700.0
 20
7850.0
 30
0.0
 11
8700.0
 21
1950.0
 31
0.0
  0
MTEXT
  5
271
330
269
100
AcDbEntity
  8
A-DIMS
100
AcDbMText
 10
8597.5
 20
5750.0
 30
0.0
 40
125.0
 71
5
  1
5800
  7
PLAN-REGULAR
 50
90.0
 45
1.1
 90
3
 63
1
  0
POINT
  5
272
330
269
100
AcDbEntity
  8
Defpoints
100
AcDbPoint
 10
8700.0
 20
7800.0
 30
0.0
  0
POINT
  5
273
330
269
100
AcDbEntity
  8
Defpoints
100
AcDbPoint
 10
8700.0
 20
7800.0
 30
0.0
  0
POINT
  5
274
330
269
100
AcDbEntity
  8
Defpoints
100
AcDbPoint
 10
8700.0
 20
2000.0
 30
0.0
  0
ENDBLK
  5
26B
330
269
100
AcDbEntity
  8
0
100
AcDbBlockEnd
  0
BLOCK
  5
277
330
276
100
AcDbEntity
  8
0
100
AcDbBlockBegin
  2
*D16
 70
1
 10
0.0
 20
0.0
 30
0.0
  3
*D16
  1

  0
INSERT
  5
279
330
276
100
AcDbEntity
  8
A-DIMS
100
AcDbBlockReference
  2
_OBLIQUE
 10
5100.0
 20
3850.0
 30
0.0
 41
110.00000000000001
 42
110.00000000000001
  0
INSERT
  5
27B
330
276
100
AcDbEntity
  8
A-DIMS
100
AcDbBlockReference
  2
_OBLIQUE
 10
8000.0
 20
3850.0
 30
0.0
 41
110.00000000000001
 42
110.00000000000001
  0
LINE
  5
27D
330
276
100
AcDbEntity
  8
0
370
13
100
AcDbLine
 10
5050.0
 20
3850.0
 30
0.0
 11
8050.0
 21
3850.0
 31
0.0
  0
MTEXT
  5
27E
330
276
100
AcDbEntity
  8
A-DIMS
100
AcDbMText
 10
6550.0
 20
3952.5
 30
0.0
 40
125.0
 71
5
  1
2900
  7
PLAN-REGULAR
 45
1.1
 90
3
 63
1
  0
POINT
  5
27F
330
276
100
AcDbEntity
  8
Defpoints
100
AcDbPoint
 10
5100.0
 20
3850.0
 30
0.0
  0
POINT
  5
280
330
276
100
AcDbEntity
  8
Defpoints
100
AcDbPoint
 10
5100.0
 20
3850.0
 30
0.0
  0
POINT
  5
281
330
276
100
AcDbEntity
  8
Defpoints
100
AcDbPoint
 10
8000.0
 20
3850.0
 30
0.0
  0
ENDBLK
  5
278
330
276
100
AcDbEntity
  8
0
100
AcDbBlockEnd
  0
BLOCK
  5
284
330
283
100
AcDbEntity
  8
0
100
AcDbBlockBegin
  2
*D17
 70
1
 10
0.0
 20
0.0
 30
0.0
  3
*D17
  1

  0
INSERT
  5
286
330
283
100
AcDbEntity
  8
A-DIMS
100
AcDbBlockReference
  2
_OBLIQUE
 10
7850.0
 20
4750.0
 30
0.0
 41
110.00000000000001
 42
110.00000000000001
 50
90.0
  0
INSERT
  5
288
330
283
100
AcDbEntity
  8
A-DIMS
100
AcDbBlockReference
  2
_OBLIQUE
 10
7850.0
 20
150.0
 30
0.0
 41
110.00000000000001
 42
110.00000000000001
 50
90.0
  0
LINE
  5
28A
330
283
100
AcDbEntity
  8
0
370
13
100
AcDbLine
 10
7850.0
 20
4800.0
 30
0.0
 11
7850.0
 21
100.0
 31
0.0
  0
MTEXT
  5
28B
330
283
100
AcDbEntity
  8
A-DIMS
100
AcDbMText
 10
7747.5
 20
3250.0
 30
0.0
 40
125.0
 71
5
  1
4600
  7
PLAN-REGULAR
 50
90.0
 45
1.1
 90
3
 63
1
  0
POINT
  5
28C
330
283
100
AcDbEntity
  8
Defpoints
100
AcDbPoint
 10
7850.0
 20
4750.0
 30
0.0
  0
POINT
  5
28D
330
283
100
AcDbEntity
  8
Defpoints
100
AcDbPoint
 10
7850.0
 20
4750.0
 30
0.0
  0
POINT
  5
28E
330
283
100
AcDbEntity
  8
Defpoints
100
AcDbPoint
 10
7850.0
 20
150.0
 30
0.0
  0
ENDBLK
  5
285
330
283
100
AcDbEntity
  8
0
100
AcDbBlockEnd
  0
BLOCK
  5
291
330
290
100
AcDbEntity
  8
0
100
AcDbBlockBegin
  2
*D18
 70
1
 10
0.0
 20
0.0
 30
0.0
  3
*D18
  1

  0
INSERT
  5
293
330
290
100
AcDbEntity
  8
A-DIMS
100
AcDbBlockReference
  2
_OBLIQUE
 10
9650.0
 20
1800.0
 30
0.0
 41
110.00000000000001
 42
110.00000000000001
 50
90.0
  0
INSERT
  5
295
330
290
100
AcDbEntity
  8
A-DIMS
100
AcDbBlockReference
  2
_OBLIQUE
 10
9650.0
 20
150.0
 30
0.0
 41
110.00000000000001
 42
110.00000000000001
 50
90.0
  0
LINE
  5
297
330
290
100
AcDbEntity
  8
0
370
13
100
AcDbLine
 10
9650.0
 20
1850.0
 30
0.0
 11
9650.0
 21
100.0
 31
0.0
  0
MTEXT
  5
298
330
290
100
AcDbEntity
  8
A-DIMS
100
AcDbMText
 10
9752.5
 20
975.0
 30
0.0
 40
125.0
 71
5
  1
1650
  7
PLAN-REGULAR
 50
90.0
 45
1.1
 90
3
 63
1
  0
POINT
  5
299
330
290
100
AcDbEntity
  8
Defpoints
100
AcDbPoint
 10
9650.0
 20
1800.0
 30
0.0
  0
POINT
  5
29A
330
290
100
AcDbEntity
  8
Defpoints
100
AcDbPoint
 10
9650.0
 20
1800.0
 30
0.0
  0
POINT
  5
29B
330
290
100
AcDbEntity
  8
Defpoints
100
AcDbPoint
 10
9650.0
 20
150.0
 30
0.0
  0
ENDBLK
  5
292
330
290
100
AcDbEntity
  8
0
100
AcDbBlockEnd
  0
BLOCK
  5
29D
330
29C
100
AcDbEntity
  8
0
100
AcDbBlockBegin
  2
*Paper_Space0
 70
0
 10
0.0
 20
0.0
 30
0.0
  3
*Paper_Space0
  1

  0
VIEWPORT
  5
2A0
330
29C
100
AcDbEntity
 67
1
  8
VIEWPORTS
100
AcDbViewport
 10
228096.0
 20
322560.0
 30
0.0
 40
501811.2
 41
709632.0
 68
1
 69
1
 12
228096.0
 22
322560.0
 13
0.0
 23
0.0
 14
10.0
 24
10.0
 15
10.0
 25
10.0
 16
0.0
 26
0.0
 36
1.0
 17
0.0
 27
0.0
 37
0.0
 42
50.0
 43
0.0
 44
0.0
 45
709632.0
 50
0.0
 51
0.0
 72
100
 90
557088
  1

281
0
 71
0
 74
0
110
0.0
120
0.0
130
0.0
111
1.0
121
0.0
131
0.0
112
0.0
122
1.0
132
0.0
 79
0
146
0.0
282
0
  0
LWPOLYLINE
  5
2A1
330
29C
100
AcDbEntity
 67
1
  8
A-SHEET
370
70
100
AcDbPolyline
 90
4
 70
1
 10
20.0
 20
415.0
 10
292.0
 20
415.0
 10
292.0
 20
5.0
 10
20.0
 20
5.0
  0
TEXT
  5
2A2
330
29C
100
AcDbEntity
 67
1
  8
A-TEXT
100
AcDbText
 10
41.0
 20
389.0
 30
0.0
 40
4.0
  1
ПЕРЕПЛАНИРОВКА, ВАРИАНТ 3  /  REPLANNING, VARIANT 3
  7
PLAN-BOLD
 11
41.0
 21
389.0
 31
0.0
100
AcDbText
 73
2
  0
TEXT
  5
2A3
330
29C
100
AcDbEntity
 67
1
  8
A-TEXT
100
AcDbText
 10
41.0
 20
384.0
 30
0.0
 40
3.0
  1
М 1:50
  7
PLAN-REGULAR
 11
41.0
 21
384.0
 31
0.0
100
AcDbText
 73
2
  0
TEXT
  5
2A4
330
29C
100
AcDbEntity
 67
1
  8
A-TEXT
100
AcDbText
 10
42.0
 20
271.0
 30
0.0
 40
2.5
  1
ЭКСПЛИКАЦИЯ / ROOM SCHEDULE
  7
PLAN-BOLD
 11
42.0
 21
271.0
 31
0.0
100
AcDbText
 73
2
  0
LINE
  5
2A5
330
29C
100
AcDbEntity
 67
1
  8
A-SHEET
370
50
100
AcDbLine
 10
42.0
 20
268.0
 30
0.0
 11
128.0
 21
268.0
 31
0.0
  0
TEXT
  5
2A6
330
29C
100
AcDbEntity
 67
1
  8
A-TEXT
100
AcDbText
 10
46.0
 20
265.0
 30
0.0
 40
1.9
  1
№
  7
PLAN-BOLD
 72
1
 11
46.0
 21
265.0
 31
0.0
100
AcDbText
 73
2
  0
TEXT
  5
2A7
330
29C
100
AcDbEntity
 67
1
  8
A-TEXT
100
AcDbText
 10
51.2
 20
265.0
 30
0.0
 40
1.9
  1
Помещение
  7
PLAN-BOLD
 11
51.2
 21
265.0
 31
0.0
100
AcDbText
 73
2
  0
TEXT
  5
2A8
330
29C
100
AcDbEntity
 67
1
  8
A-TEXT
100
AcDbText
 10
77.2
 20
265.0
 30
0.0
 40
1.7
  1
Room
  7
PLAN-BOLD
 11
77.2
 21
265.0
 31
0.0
100
AcDbText
 73
2
  0
TEXT
  5
2A9
330
29C
100
AcDbEntity
 67
1
  8
A-TEXT
100
AcDbText
 10
112.5
 20
265.0
 30
0.0
 40
1.9
  1
было
  7
PLAN-BOLD
 72
2
 11
112.5
 21
265.0
 31
0.0
100
AcDbText
 73
2
  0
TEXT
  5
2AA
330
29C
100
AcDbEntity
 67
1
  8
A-TEXT
100
AcDbText
 10
126.5
 20
265.0
 30
0.0
 40
1.9
  1
стало
  7
PLAN-BOLD
 72
2
 11
126.5
 21
265.0
 31
0.0
100
AcDbText
 73
2
  0
LINE
  5
2AB
330
29C
100
AcDbEntity
 67
1
  8
A-SHEET
370
50
100
AcDbLine
 10
42.0
 20
262.0
 30
0.0
 11
128.0
 21
262.0
 31
0.0
  0
TEXT
  5
2AC
330
29C
100
AcDbEntity
 67
1
  8
A-TEXT
100
AcDbText
 10
46.0
 20
259.0
 30
0.0
 40
1.9
  1
1
  7
PLAN-REGULAR
 72
1
 11
46.0
 21
259.0
 31
0.0
100
AcDbText
 73
2
  0
TEXT
  5
2AD
330
29C
100
AcDbEntity
 67
1
  8
A-TEXT
100
AcDbText
 10
51.2
 20
259.0
 30
0.0
 40
1.9
  1
Прихожая
  7
PLAN-REGULAR
 11
51.2
 21
259.0
 31
0.0
100
AcDbText
 73
2
  0
TEXT
  5
2AE
330
29C
100
AcDbEntity
 67
1
  8
A-TEXT
100
AcDbText
 10
77.2
 20
259.0
 30
0.0
 40
1.7
  1
Entrance hall
  7
PLAN-REGULAR
 11
77.2
 21
259.0
 31
0.0
100
AcDbText
 73
2
  0
TEXT
  5
2AF
330
29C
100
AcDbEntity
 67
1
  8
A-TEXT
100
AcDbText
 10
112.5
 20
259.0
 30
0.0
 40
1.9
  1
5.8
  7
PLAN-REGULAR
 72
2
 11
112.5
 21
259.0
 31
0.0
100
AcDbText
 73
2
  0
TEXT
  5
2B0
330
29C
100
AcDbEntity
 67
1
  8
A-TEXT
100
AcDbText
 10
126.5
 20
259.0
 30
0.0
 40
1.9
  1
5.8
  7
PLAN-REGULAR
 72
2
 11
126.5
 21
259.0
 31
0.0
100
AcDbText
 73
2
  0
LINE
  5
2B1
330
29C
100
AcDbEntity
 67
1
  8
A-SHEET
370
18
100
AcDbLine
 10
42.0
 20
256.0
 30
0.0
 11
128.0
 21
256.0
 31
0.0
  0
TEXT
  5
2B2
330
29C
100
AcDbEntity
 67
1
  8
A-TEXT
100
AcDbText
 10
46.0
 20
253.0
 30
0.0
 40
1.9
  1
2
  7
PLAN-REGULAR
 72
1
 11
46.0
 21
253.0
 31
0.0
100
AcDbText
 73
2
  0
TEXT
  5
2B3
330
29C
100
AcDbEntity
 67
1
  8
A-TEXT
100
AcDbText
 10
51.2
 20
253.0
 30
0.0
 40
1.9
  1
Студия
  7
PLAN-REGULAR
 11
51.2
 21
253.0
 31
0.0
100
AcDbText
 73
2
  0
TEXT
  5
2B4
330
29C
100
AcDbEntity
 67
1
  8
A-TEXT
100
AcDbText
 10
77.2
 20
253.0
 30
0.0
 40
1.7
  1
Studio (lounge + dining)
  7
PLAN-REGULAR
 11
77.2
 21
253.0
 31
0.0
100
AcDbText
 73
2
  0
TEXT
  5
2B5
330
29C
100
AcDbEntity
 67
1
  8
A-TEXT
100
AcDbText
 10
112.5
 20
253.0
 30
0.0
 40
1.9
  1
14.1
  7
PLAN-REGULAR
 72
2
 11
112.5
 21
253.0
 31
0.0
100
AcDbText
 73
2
  0
TEXT
  5
2B6
330
29C
100
AcDbEntity
 67
1
  8
A-TEXT
100
AcDbText
 10
126.5
 20
253.0
 30
0.0
 40
1.9
  1
21.8
  7
PLAN-REGULAR
 72
2
 11
126.5
 21
253.0
 31
0.0
100
AcDbText
 73
2
  0
LINE
  5
2B7
330
29C
100
AcDbEntity
 67
1
  8
A-SHEET
370
18
100
AcDbLine
 10
42.0
 20
250.0
 30
0.0
 11
128.0
 21
250.0
 31
0.0
  0
TEXT
  5
2B8
330
29C
100
AcDbEntity
 67
1
  8
A-TEXT
100
AcDbText
 10
46.0
 20
247.0
 30
0.0
 40
1.9
  1
3
  7
PLAN-REGULAR
 72
1
 11
46.0
 21
247.0
 31
0.0
100
AcDbText
 73
2
  0
TEXT
  5
2B9
330
29C
100
AcDbEntity
 67
1
  8
A-TEXT
100
AcDbText
 10
51.2
 20
247.0
 30
0.0
 40
1.9
  1
С/У
  7
PLAN-REGULAR
 11
51.2
 21
247.0
 31
0.0
100
AcDbText
 73
2
  0
TEXT
  5
2BA
330
29C
100
AcDbEntity
 67
1
  8
A-TEXT
100
AcDbText
 10
77.2
 20
247.0
 30
0.0
 40
1.7
  1
Bathroom / WC
  7
PLAN-REGULAR
 11
77.2
 21
247.0
 31
0.0
100
AcDbText
 73
2
  0
TEXT
  5
2BB
330
29C
100
AcDbEntity
 67
1
  8
A-TEXT
100
AcDbText
 10
112.5
 20
247.0
 30
0.0
 40
1.9
  1
4.1
  7
PLAN-REGULAR
 72
2
 11
112.5
 21
247.0
 31
0.0
100
AcDbText
 73
2
  0
TEXT
  5
2BC
330
29C
100
AcDbEntity
 67
1
  8
A-TEXT
100
AcDbText
 10
126.5
 20
247.0
 30
0.0
 40
1.9
  1
4.0
  7
PLAN-REGULAR
 72
2
 11
126.5
 21
247.0
 31
0.0
100
AcDbText
 73
2
  0
LINE
  5
2BD
330
29C
100
AcDbEntity
 67
1
  8
A-SHEET
370
18
100
AcDbLine
 10
42.0
 20
244.0
 30
0.0
 11
128.0
 21
244.0
 31
0.0
  0
TEXT
  5
2BE
330
29C
100
AcDbEntity
 67
1
  8
A-TEXT
100
AcDbText
 10
46.0
 20
241.0
 30
0.0
 40
1.9
  1
4
  7
PLAN-REGULAR
 72
1
 11
46.0
 21
241.0
 31
0.0
100
AcDbText
 73
2
  0
TEXT
  5
2BF
330
29C
100
AcDbEntity
 67
1
  8
A-TEXT
100
AcDbText
 10
51.2
 20
241.0
 30
0.0
 40
1.9
  1
Детская для двоих
  7
PLAN-REGULAR
 11
51.2
 21
241.0
 31
0.0
100
AcDbText
 73
2
  0
TEXT
  5
2C0
330
29C
100
AcDbEntity
 67
1
  8
A-TEXT
100
AcDbText
 10
77.2
 20
241.0
 30
0.0
 40
1.7
  1
Children's room (two)
  7
PLAN-REGULAR
 11
77.2
 21
241.0
 31
0.0
100
AcDbText
 73
2
  0
TEXT
  5
2C1
330
29C
100
AcDbEntity
 67
1
  8
A-TEXT
100
AcDbText
 10
112.5
 20
241.0
 30
0.0
 40
1.9
  1
14.4
  7
PLAN-REGULAR
 72
2
 11
112.5
 21
241.0
 31
0.0
100
AcDbText
 73
2
  0
TEXT
  5
2C2
330
29C
100
AcDbEntity
 67
1
  8
A-TEXT
100
AcDbText
 10
126.5
 20
241.0
 30
0.0
 40
1.9
  1
14.3
  7
PLAN-REGULAR
 72
2
 11
126.5
 21
241.0
 31
0.0
100
AcDbText
 73
2
  0
LINE
  5
2C3
330
29C
100
AcDbEntity
 67
1
  8
A-SHEET
370
18
100
AcDbLine
 10
42.0
 20
238.0
 30
0.0
 11
128.0
 21
238.0
 31
0.0
  0
TEXT
  5
2C4
330
29C
100
AcDbEntity
 67
1
  8
A-TEXT
100
AcDbText
 10
46.0
 20
235.0
 30
0.0
 40
1.9
  1
5
  7
PLAN-REGULAR
 72
1
 11
46.0
 21
235.0
 31
0.0
100
AcDbText
 73
2
  0
TEXT
  5
2C5
330
29C
100
AcDbEntity
 67
1
  8
A-TEXT
100
AcDbText
 10
51.2
 20
235.0
 30
0.0
 40
1.9
  1
Кухня (открытая)
  7
PLAN-REGULAR
 11
51.2
 21
235.0
 31
0.0
100
AcDbText
 73
2
  0
TEXT
  5
2C6
330
29C
100
AcDbEntity
 67
1
  8
A-TEXT
100
AcDbText
 10
77.2
 20
235.0
 30
0.0
 40
1.7
  1
Kitchen (open plan)
  7
PLAN-REGULAR
 11
77.2
 21
235.0
 31
0.0
100
AcDbText
 73
2
  0
TEXT
  5
2C7
330
29C
100
AcDbEntity
 67
1
  8
A-TEXT
100
AcDbText
 10
112.5
 20
235.0
 30
0.0
 40
1.9
  1
11.0
  7
PLAN-REGULAR
 72
2
 11
112.5
 21
235.0
 31
0.0
100
AcDbText
 73
2
  0
TEXT
  5
2C8
330
29C
100
AcDbEntity
 67
1
  8
A-TEXT
100
AcDbText
 10
126.5
 20
235.0
 30
0.0
 40
1.9
  1
6.0
  7
PLAN-REGULAR
 72
2
 11
126.5
 21
235.0
 31
0.0
100
AcDbText
 73
2
  0
LINE
  5
2C9
330
29C
100
AcDbEntity
 67
1
  8
A-SHEET
370
18
100
AcDbLine
 10
42.0
 20
232.0
 30
0.0
 11
128.0
 21
232.0
 31
0.0
  0
TEXT
  5
2CA
330
29C
100
AcDbEntity
 67
1
  8
A-TEXT
100
AcDbText
 10
46.0
 20
229.0
 30
0.0
 40
1.9
  1
6
  7
PLAN-REGULAR
 72
1
 11
46.0
 21
229.0
 31
0.0
100
AcDbText
 73
2
  0
TEXT
  5
2CB
330
29C
100
AcDbEntity
 67
1
  8
A-TEXT
100
AcDbText
 10
51.2
 20
229.0
 30
0.0
 40
1.9
  1
ПК и кинотеатр
  7
PLAN-REGULAR
 11
51.2
 21
229.0
 31
0.0
100
AcDbText
 73
2
  0
TEXT
  5
2CC
330
29C
100
AcDbEntity
 67
1
  8
A-TEXT
100
AcDbText
 10
77.2
 20
229.0
 30
0.0
 40
1.7
  1
PC + home cinema (hidden)
  7
PLAN-REGULAR
 11
77.2
 21
229.0
 31
0.0
100
AcDbText
 73
2
  0
TEXT
  5
2CD
330
29C
100
AcDbEntity
 67
1
  8
A-TEXT
100
AcDbText
 10
112.5
 20
229.0
 30
0.0
 40
1.9
  1
17.8
  7
PLAN-REGULAR
 72
2
 11
112.5
 21
229.0
 31
0.0
100
AcDbText
 73
2
  0
TEXT
  5
2CE
330
29C
100
AcDbEntity
 67
1
  8
A-TEXT
100
AcDbText
 10
126.5
 20
229.0
 30
0.0
 40
1.9
  1
13.0
  7
PLAN-REGULAR
 72
2
 11
126.5
 21
229.0
 31
0.0
100
AcDbText
 73
2
  0
LINE
  5
2CF
330
29C
100
AcDbEntity
 67
1
  8
A-SHEET
370
18
100
AcDbLine
 10
42.0
 20
226.0
 30
0.0
 11
128.0
 21
226.0
 31
0.0
  0
TEXT
  5
2D0
330
29C
100
AcDbEntity
 67
1
  8
A-TEXT
100
AcDbText
 10
46.0
 20
223.0
 30
0.0
 40
1.9
  1
7
  7
PLAN-REGULAR
 72
1
 11
46.0
 21
223.0
 31
0.0
100
AcDbText
 73
2
  0
TEXT
  5
2D1
330
29C
100
AcDbEntity
 67
1
  8
A-TEXT
100
AcDbText
 10
51.2
 20
223.0
 30
0.0
 40
1.9
  1
Мастер-спальня
  7
PLAN-REGULAR
 11
51.2
 21
223.0
 31
0.0
100
AcDbText
 73
2
  0
TEXT
  5
2D2
330
29C
100
AcDbEntity
 67
1
  8
A-TEXT
100
AcDbText
 10
77.2
 20
223.0
 30
0.0
 40
1.7
  1
Master bedroom
  7
PLAN-REGULAR
 11
77.2
 21
223.0
 31
0.0
100
AcDbText
 73
2
  0
TEXT
  5
2D3
330
29C
100
AcDbEntity
 67
1
  8
A-TEXT
100
AcDbText
 10
112.5
 20
223.0
 30
0.0
 40
1.9
  1
19.7
  7
PLAN-REGULAR
 72
2
 11
112.5
 21
223.0
 31
0.0
100
AcDbText
 73
2
  0
TEXT
  5
2D4
330
29C
100
AcDbEntity
 67
1
  8
A-TEXT
100
AcDbText
 10
126.5
 20
223.0
 30
0.0
 40
1.9
  1
18.1
  7
PLAN-REGULAR
 72
2
 11
126.5
 21
223.0
 31
0.0
100
AcDbText
 73
2
  0
LINE
  5
2D5
330
29C
100
AcDbEntity
 67
1
  8
A-SHEET
370
18
100
AcDbLine
 10
42.0
 20
220.0
 30
0.0
 11
128.0
 21
220.0
 31
0.0
  0
TEXT
  5
2D6
330
29C
100
AcDbEntity
 67
1
  8
A-TEXT
100
AcDbText
 10
46.0
 20
217.0
 30
0.0
 40
1.9
  1
7.1
  7
PLAN-REGULAR
 72
1
 11
46.0
 21
217.0
 31
0.0
100
AcDbText
 73
2
  0
TEXT
  5
2D7
330
29C
100
AcDbEntity
 67
1
  8
A-TEXT
100
AcDbText
 10
51.2
 20
217.0
 30
0.0
 40
1.9
  1
Санузел
  7
PLAN-REGULAR
 11
51.2
 21
217.0
 31
0.0
100
AcDbText
 73
2
  0
TEXT
  5
2D8
330
29C
100
AcDbEntity
 67
1
  8
A-TEXT
100
AcDbText
 10
77.2
 20
217.0
 30
0.0
 40
1.7
  1
En-suite shower room
  7
PLAN-REGULAR
 11
77.2
 21
217.0
 31
0.0
100
AcDbText
 73
2
  0
TEXT
  5
2D9
330
29C
100
AcDbEntity
 67
1
  8
A-TEXT
100
AcDbText
 10
112.5
 20
217.0
 30
0.0
 40
1.9
  1
—
  7
PLAN-REGULAR
 72
2
 11
112.5
 21
217.0
 31
0.0
100
AcDbText
 73
2
  0
TEXT
  5
2DA
330
29C
100
AcDbEntity
 67
1
  8
A-TEXT
100
AcDbText
 10
126.5
 20
217.0
 30
0.0
 40
1.9
  1
1.7
  7
PLAN-REGULAR
 72
2
 11
126.5
 21
217.0
 31
0.0
100
AcDbText
 73
2
  0
LINE
  5
2DB
330
29C
100
AcDbEntity
 67
1
  8
A-SHEET
370
18
100
AcDbLine
 10
42.0
 20
214.0
 30
0.0
 11
128.0
 21
214.0
 31
0.0
  0
TEXT
  5
2DC
330
29C
100
AcDbEntity
 67
1
  8
A-TEXT
100
AcDbText
 10
46.0
 20
211.0
 30
0.0
 40
1.9
  1
7.2
  7
PLAN-REGULAR
 72
1
 11
46.0
 21
211.0
 31
0.0
100
AcDbText
 73
2
  0
TEXT
  5
2DD
330
29C
100
AcDbEntity
 67
1
  8
A-TEXT
100
AcDbText
 10
51.2
 20
211.0
 30
0.0
 40
1.9
  1
Гардероб
  7
PLAN-REGULAR
 11
51.2
 21
211.0
 31
0.0
100
AcDbText
 73
2
  0
TEXT
  5
2DE
330
29C
100
AcDbEntity
 67
1
  8
A-TEXT
100
AcDbText
 10
77.2
 20
211.0
 30
0.0
 40
1.7
  1
Walk-in wardrobe
  7
PLAN-REGULAR
 11
77.2
 21
211.0
 31
0.0
100
AcDbText
 73
2
  0
TEXT
  5
2DF
330
29C
100
AcDbEntity
 67
1
  8
A-TEXT
100
AcDbText
 10
112.5
 20
211.0
 30
0.0
 40
1.9
  1
—
  7
PLAN-REGULAR
 72
2
 11
112.5
 21
211.0
 31
0.0
100
AcDbText
 73
2
  0
TEXT
  5
2E0
330
29C
100
AcDbEntity
 67
1
  8
A-TEXT
100
AcDbText
 10
126.5
 20
211.0
 30
0.0
 40
1.9
  1
1.6
  7
PLAN-REGULAR
 72
2
 11
126.5
 21
211.0
 31
0.0
100
AcDbText
 73
2
  0
LINE
  5
2E1
330
29C
100
AcDbEntity
 67
1
  8
A-SHEET
370
18
100
AcDbLine
 10
42.0
 20
208.0
 30
0.0
 11
128.0
 21
208.0
 31
0.0
  0
TEXT
  5
2E2
330
29C
100
AcDbEntity
 67
1
  8
A-TEXT
100
AcDbText
 10
46.0
 20
205.0
 30
0.0
 40
1.9
  1
8
  7
PLAN-REGULAR
 72
1
 11
46.0
 21
205.0
 31
0.0
100
AcDbText
 73
2
  0
TEXT
  5
2E3
330
29C
100
AcDbEntity
 67
1
  8
A-TEXT
100
AcDbText
 10
51.2
 20
205.0
 30
0.0
 40
1.9
  1
Лоджия
  7
PLAN-REGULAR
 11
51.2
 21
205.0
 31
0.0
100
AcDbText
 73
2
  0
TEXT
  5
2E4
330
29C
100
AcDbEntity
 67
1
  8
A-TEXT
100
AcDbText
 10
77.2
 20
205.0
 30
0.0
 40
1.7
  1
Loggia
  7
PLAN-REGULAR
 11
77.2
 21
205.0
 31
0.0
100
AcDbText
 73
2
  0
TEXT
  5
2E5
330
29C
100
AcDbEntity
 67
1
  8
A-TEXT
100
AcDbText
 10
112.5
 20
205.0
 30
0.0
 40
1.9
  1
5.3
  7
PLAN-REGULAR
 72
2
 11
112.5
 21
205.0
 31
0.0
100
AcDbText
 73
2
  0
TEXT
  5
2E6
330
29C
100
AcDbEntity
 67
1
  8
A-TEXT
100
AcDbText
 10
126.5
 20
205.0
 30
0.0
 40
1.9
  1
5.1
  7
PLAN-REGULAR
 72
2
 11
126.5
 21
205.0
 31
0.0
100
AcDbText
 73
2
  0
LINE
  5
2E7
330
29C
100
AcDbEntity
 67
1
  8
A-SHEET
370
50
100
AcDbLine
 10
42.0
 20
202.0
 30
0.0
 11
128.0
 21
202.0
 31
0.0
  0
TEXT
  5
2E8
330
29C
100
AcDbEntity
 67
1
  8
A-TEXT
100
AcDbText
 10
46.0
 20
199.0
 30
0.0
 40
1.9
  1

  7
PLAN-BOLD
 72
1
 11
46.0
 21
199.0
 31
0.0
100
AcDbText
 73
2
  0
TEXT
  5
2E9
330
29C
100
AcDbEntity
 67
1
  8
A-TEXT
100
AcDbText
 10
51.2
 20
199.0
 30
0.0
 40
1.9
  1
Итого
  7
PLAN-BOLD
 11
51.2
 21
199.0
 31
0.0
100
AcDbText
 73
2
  0
TEXT
  5
2EA
330
29C
100
AcDbEntity
 67
1
  8
A-TEXT
100
AcDbText
 10
77.2
 20
199.0
 30
0.0
 40
1.7
  1
Total
  7
PLAN-BOLD
 11
77.2
 21
199.0
 31
0.0
100
AcDbText
 73
2
  0
TEXT
  5
2EB
330
29C
100
AcDbEntity
 67
1
  8
A-TEXT
100
AcDbText
 10
112.5
 20
199.0
 30
0.0
 40
1.9
  1
92.2
  7
PLAN-BOLD
 72
2
 11
112.5
 21
199.0
 31
0.0
100
AcDbText
 73
2
  0
TEXT
  5
2EC
330
29C
100
AcDbEntity
 67
1
  8
A-TEXT
100
AcDbText
 10
126.5
 20
199.0
 30
0.0
 40
1.9
  1
91.5
  7
PLAN-BOLD
 72
2
 11
126.5
 21
199.0
 31
0.0
100
AcDbText
 73
2
  0
LINE
  5
2ED
330
29C
100
AcDbEntity
 67
1
  8
A-SHEET
370
50
100
AcDbLine
 10
42.0
 20
196.0
 30
0.0
 11
128.0
 21
196.0
 31
0.0
  0
LINE
  5
2EE
330
29C
100
AcDbEntity
 67
1
  8
A-SHEET
370
50
100
AcDbLine
 10
42.0
 20
268.0
 30
0.0
 11
42.0
 21
196.0
 31
0.0
  0
LINE
  5
2EF
330
29C
100
AcDbEntity
 67
1
  8
A-SHEET
370
18
100
AcDbLine
 10
50.0
 20
268.0
 30
0.0
 11
50.0
 21
196.0
 31
0.0
  0
LINE
  5
2F0
330
29C
100
AcDbEntity
 67
1
  8
A-SHEET
370
18
100
AcDbLine
 10
76.0
 20
268.0
 30
0.0
 11
76.0
 21
196.0
 31
0.0
  0
LINE
  5
2F1
330
29C
100
AcDbEntity
 67
1
  8
A-SHEET
370
18
100
AcDbLine
 10
100.0
 20
268.0
 30
0.0
 11
100.0
 21
196.0
 31
0.0
  0
LINE
  5
2F2
330
29C
100
AcDbEntity
 67
1
  8
A-SHEET
370
18
100
AcDbLine
 10
114.0
 20
268.0
 30
0.0
 11
114.0
 21
196.0
 31
0.0
  0
LINE
  5
2F3
330
29C
100
AcDbEntity
 67
1
  8
A-SHEET
370
50
100
AcDbLine
 10
128.0
 20
268.0
 30
0.0
 11
128.0
 21
196.0
 31
0.0
  0
TEXT
  5
2F4
330
29C
100
AcDbEntity
 67
1
  8
A-TEXT
100
AcDbText
 10
42.0
 20
188.0
 30
0.0
 40
1.9
  1
ПРИМЕЧАНИЯ / NOTES
  7
PLAN-BOLD
 11
42.0
 21
188.0
 31
0.0
100
AcDbText
 73
2
  0
TEXT
  5
2F5
330
29C
100
AcDbEntity
 67
1
  8
A-TEXT
100
AcDbText
 10
42.0
 20
183.8
 30
0.0
 40
1.9
  1
1. Размеры в мм, М 1:50 при печати A3 100 %.
  7
PLAN-REGULAR
 11
42.0
 21
183.8
 31
0.0
100
AcDbText
 73
2
  0
TEXT
  5
2F6
330
29C
100
AcDbEntity
 67
1
  8
A-TEXT
100
AcDbText
 10
42.0
 20
179.6
 30
0.0
 40
1.9
  1
   Dimensions in mm; 1:50 when printed on A3 at 100 %.
  7
PLAN-ITALIC
 11
42.0
 21
179.6
 31
0.0
100
AcDbText
 73
2
  0
TEXT
  5
2F7
330
29C
100
AcDbEntity
 67
1
  8
A-TEXT
100
AcDbText
 10
42.0
 20
175.4
 30
0.0
 40
1.9
  1
2. Планировка по эскизу заказчика; меняются только
  7
PLAN-REGULAR
 11
42.0
 21
175.4
 31
0.0
100
AcDbText
 73
2
  0
TEXT
  5
2F8
330
29C
100
AcDbEntity
 67
1
  8
A-TEXT
100
AcDbText
 10
42.0
 20
171.2
 30
0.0
 40
1.9
  1
   внутренние стены. / Client's sketch; interior walls only.
  7
PLAN-ITALIC
 11
42.0
 21
171.2
 31
0.0
100
AcDbText
 73
2
  0
TEXT
  5
2F9
330
29C
100
AcDbEntity
 67
1
  8
A-TEXT
100
AcDbText
 10
42.0
 20
167.0
 30
0.0
 40
1.9
  1
3. «Стало» - площади по чертежу (без колонн и шахт).
  7
PLAN-REGULAR
 11
42.0
 21
167.0
 31
0.0
100
AcDbText
 73
2
  0
TEXT
  5
2FA
330
29C
100
AcDbEntity
 67
1
  8
A-TEXT
100
AcDbText
 10
42.0
 20
162.8
 30
0.0
 40
1.9
  1
   'After' = measured on this drawing, net of columns.
  7
PLAN-ITALIC
 11
42.0
 21
162.8
 31
0.0
100
AcDbText
 73
2
  0
TEXT
  5
2FB
330
29C
100
AcDbEntity
 67
1
  8
A-TEXT
100
AcDbText
 10
42.0
 20
158.60000000000002
 30
0.0
 40
1.9
  1
4. Калькуляция помещений и стен - лист 2 этого PDF.
  7
PLAN-REGULAR
 11
42.0
 21
158.60000000000002
 31
0.0
100
AcDbText
 73
2
  0
TEXT
  5
2FC
330
29C
100
AcDbEntity
 67
1
  8
A-TEXT
100
AcDbText
 10
42.0
 20
154.39999999999998
 30
0.0
 40
1.9
  1
   Room & wall calculation: page 2 of this PDF.
  7
PLAN-ITALIC
 11
42.0
 21
154.39999999999998
 31
0.0
100
AcDbText
 73
2
  0
TEXT
  5
2FD
330
29C
100
AcDbEntity
 67
1
  8
A-TEXT
100
AcDbText
 10
42.0
 20
150.2
 30
0.0
 40
1.9
  1
5. Проект согласовать до начала работ.
  7
PLAN-REGULAR
 11
42.0
 21
150.2
 31
0.0
100
AcDbText
 73
2
  0
TEXT
  5
2FE
330
29C
100
AcDbEntity
 67
1
  8
A-TEXT
100
AcDbText
 10
42.0
 20
146.0
 30
0.0
 40
1.9
  1
   Approve with the authorities before building.
  7
PLAN-ITALIC
 11
42.0
 21
146.0
 31
0.0
100
AcDbText
 73
2
  0
TEXT
  5
2FF
330
29C
100
AcDbEntity
 67
1
  8
A-TEXT
100
AcDbText
 10
42.0
 20
137.8
 30
0.0
 40
2.1
  1
УСЛОВНЫЕ ОБОЗНАЧЕНИЯ / LEGEND
  7
PLAN-BOLD
 11
42.0
 21
137.8
 31
0.0
100
AcDbText
 73
2
  0
LWPOLYLINE
  5
300
330
29C
100
AcDbEntity
 67
1
  8
A-WALL
370
35
100
AcDbPolyline
 90
4
 70
1
 10
42.0
 20
134.40000000000003
 10
52.0
 20
134.40000000000003
 10
52.0
 20
131.2
 10
42.0
 20
131.2
  0
HATCH
  5
301
330
29C
100
AcDbEntity
 67
1
  8
A-WALL
 62
7
420
10066329
100
AcDbHatch
 10
0.0
 20
0.0
 30
0.0
210
0.0
220
0.0
230
1.0
  2
SOLID
 70
1
 71
0
 91
1
 92
3
 72
0
 73
1
 93
4
 10
42.0
 20
134.40000000000003
 10
52.0
 20
134.40000000000003
 10
52.0
 20
131.2
 10
42.0
 20
131.2
 97
0
 75
1
 76
1
 98
0
  0
TEXT
  5
302
330
29C
100
AcDbEntity
 67
1
  8
A-TEXT
100
AcDbText
 10
55.0
 20
132.8
 30
0.0
 40
1.9
  1
Стена сущ. / Existing wall
  7
PLAN-REGULAR
 11
55.0
 21
132.8
 31
0.0
100
AcDbText
 73
2
  0
LWPOLYLINE
  5
303
330
29C
100
AcDbEntity
 67
1
  8
A-WALL-NEW-FILL
370
35
420
0
100
AcDbPolyline
 90
4
 70
1
 10
42.0
 20
129.40000000000003
 10
52.0
 20
129.40000000000003
 10
52.0
 20
126.19999999999999
 10
42.0
 20
126.19999999999999
  0
HATCH
  5
304
330
29C
100
AcDbEntity
 67
1
  8
A-WALL-NEW-FILL
 62
7
420
15567936
100
AcDbHatch
 10
0.0
 20
0.0
 30
0.0
210
0.0
220
0.0
230
1.0
  2
SOLID
 70
1
 71
0
 91
1
 92
3
 72
0
 73
1
 93
4
 10
42.0
 20
129.40000000000003
 10
52.0
 20
129.40000000000003
 10
52.0
 20
126.19999999999999
 10
42.0
 20
126.19999999999999
 97
0
 75
1
 76
1
 98
0
  0
LWPOLYLINE
  5
305
330
29C
100
AcDbEntity
 67
1
  8
A-WALL-NEW
370
35
100
AcDbPolyline
 90
4
 70
1
 10
42.0
 20
129.40000000000003
 10
52.0
 20
129.40000000000003
 10
52.0
 20
126.19999999999999
 10
42.0
 20
126.19999999999999
  0
TEXT
  5
306
330
29C
100
AcDbEntity
 67
1
  8
A-TEXT
100
AcDbText
 10
55.0
 20
127.80000000000001
 30
0.0
 40
1.9
  1
Новая перегородка / New partition
  7
PLAN-REGULAR
 11
55.0
 21
127.80000000000001
 31
0.0
100
AcDbText
 73
2
  0
LWPOLYLINE
  5
307
330
29C
100
AcDbEntity
 67
1
  8
A-WALL-DEMO
  6
DASHED
 48
0.06
100
AcDbPolyline
 90
4
 70
1
 10
42.0
 20
124.40000000000003
 10
52.0
 20
124.40000000000003
 10
52.0
 20
121.19999999999999
 10
42.0
 20
121.19999999999999
  0
TEXT
  5
308
330
29C
100
AcDbEntity
 67
1
  8
A-TEXT
100
AcDbText
 10
55.0
 20
122.80000000000001
 30
0.0
 40
1.9
  1
Демонтаж / Demolished
  7
PLAN-REGULAR
 11
55.0
 21
122.80000000000001
 31
0.0
100
AcDbText
 73
2
  0
LWPOLYLINE
  5
309
330
29C
100
AcDbEntity
 67
1
  8
A-COLS
370
35
100
AcDbPolyline
 90
4
 70
1
 10
42.0
 20
119.40000000000003
 10
52.0
 20
119.40000000000003
 10
52.0
 20
116.19999999999999
 10
42.0
 20
116.19999999999999
  0
HATCH
  5
30A
330
29C
100
AcDbEntity
 67
1
  8
A-COLS
 62
7
420
0
100
AcDbHatch
 10
0.0
 20
0.0
 30
0.0
210
0.0
220
0.0
230
1.0
  2
SOLID
 70
1
 71
0
 91
1
 92
3
 72
0
 73
1
 93
4
 10
42.0
 20
119.40000000000003
 10
52.0
 20
119.40000000000003
 10
52.0
 20
116.19999999999999
 10
42.0
 20
116.19999999999999
 97
0
 75
1
 76
1
 98
0
  0
TEXT
  5
30B
330
29C
100
AcDbEntity
 67
1
  8
A-TEXT
100
AcDbText
 10
55.0
 20
117.80000000000001
 30
0.0
 40
1.9
  1
Колонна / Column
  7
PLAN-REGULAR
 11
55.0
 21
117.80000000000001
 31
0.0
100
AcDbText
 73
2
  0
LINE
  5
30C
330
29C
100
AcDbEntity
 67
1
  8
A-GLAZ-FRAME
100
AcDbLine
 10
42.0
 20
114.40000000000003
 30
0.0
 11
52.0
 21
114.40000000000003
 31
0.0
  0
LINE
  5
30D
330
29C
100
AcDbEntity
 67
1
  8
A-GLAZ-FRAME
100
AcDbLine
 10
42.0
 20
111.19999999999999
 30
0.0
 11
52.0
 21
111.19999999999999
 31
0.0
  0
LINE
  5
30E
330
29C
100
AcDbEntity
 67
1
  8
A-GLAZ
100
AcDbLine
 10
42.0
 20
113.19999999999999
 30
0.0
 11
52.0
 21
113.19999999999999
 31
0.0
  0
LINE
  5
30F
330
29C
100
AcDbEntity
 67
1
  8
A-GLAZ
100
AcDbLine
 10
42.0
 20
112.40000000000003
 30
0.0
 11
52.0
 21
112.40000000000003
 31
0.0
  0
TEXT
  5
310
330
29C
100
AcDbEntity
 67
1
  8
A-TEXT
100
AcDbText
 10
55.0
 20
112.80000000000001
 30
0.0
 40
1.9
  1
Остекление / Glazing
  7
PLAN-REGULAR
 11
55.0
 21
112.80000000000001
 31
0.0
100
AcDbText
 73
2
  0
TEXT
  5
311
330
29C
100
AcDbEntity
 67
1
  8
A-TEXT
100
AcDbText
 10
41.0
 20
88.5
 30
0.0
 40
2.0
  1
Масштабная линейка / Scale bar 1:50 (м / m)
  7
PLAN-REGULAR
 11
41.0
 21
88.5
 31
0.0
100
AcDbText
 73
2
  0
LWPOLYLINE
  5
312
330
29C
100
AcDbEntity
 67
1
  8
A-SHEET
370
25
100
AcDbPolyline
 90
4
 70
1
 10
41.0
 20
85.0
 10
61.0
 20
85.0
 10
61.0
 20
83.39999999999998
 10
41.0
 20
83.39999999999998
  0
HATCH
  5
313
330
29C
100
AcDbEntity
 67
1
  8
A-SHEET
 62
7
420
0
100
AcDbHatch
 10
0.0
 20
0.0
 30
0.0
210
0.0
220
0.0
230
1.0
  2
SOLID
 70
1
 71
0
 91
1
 92
3
 72
0
 73
1
 93
4
 10
41.0
 20
85.0
 10
61.0
 20
85.0
 10
61.0
 20
83.39999999999998
 10
41.0
 20
83.39999999999998
 97
0
 75
1
 76
1
 98
0
  0
LWPOLYLINE
  5
314
330
29C
100
AcDbEntity
 67
1
  8
A-SHEET
370
25
100
AcDbPolyline
 90
4
 70
1
 10
61.0
 20
85.0
 10
81.0
 20
85.0
 10
81.0
 20
83.39999999999998
 10
61.0
 20
83.39999999999998
  0
LWPOLYLINE
  5
315
330
29C
100
AcDbEntity
 67
1
  8
A-SHEET
370
25
100
AcDbPolyline
 90
4
 70
1
 10
81.0
 20
85.0
 10
101.0
 20
85.0
 10
101.0
 20
83.39999999999998
 10
81.0
 20
83.39999999999998
  0
HATCH
  5
316
330
29C
100
AcDbEntity
 67
1
  8
A-SHEET
 62
7
420
0
100
AcDbHatch
 10
0.0
 20
0.0
 30
0.0
210
0.0
220
0.0
230
1.0
  2
SOLID
 70
1
 71
0
 91
1
 92
3
 72
0
 73
1
 93
4
 10
81.0
 20
85.0
 10
101.0
 20
85.0
 10
101.0
 20
83.39999999999998
 10
81.0
 20
83.39999999999998
 97
0
 75
1
 76
1
 98
0
  0
LWPOLYLINE
  5
317
330
29C
100
AcDbEntity
 67
1
  8
A-SHEET
370
25
100
AcDbPolyline
 90
4
 70
1
 10
101.0
 20
85.0
 10
121.0
 20
85.0
 10
121.0
 20
83.39999999999998
 10
101.0
 20
83.39999999999998
  0
LWPOLYLINE
  5
318
330
29C
100
AcDbEntity
 67
1
  8
A-SHEET
370
25
100
AcDbPolyline
 90
4
 70
1
 10
121.0
 20
85.0
 10
141.0
 20
85.0
 10
141.0
 20
83.39999999999998
 10
121.0
 20
83.39999999999998
  0
HATCH
  5
319
330
29C
100
AcDbEntity
 67
1
  8
A-SHEET
 62
7
420
0
100
AcDbHatch
 10
0.0
 20
0.0
 30
0.0
210
0.0
220
0.0
230
1.0
  2
SOLID
 70
1
 71
0
 91
1
 92
3
 72
0
 73
1
 93
4
 10
121.0
 20
85.0
 10
141.0
 20
85.0
 10
141.0
 20
83.39999999999998
 10
121.0
 20
83.39999999999998
 97
0
 75
1
 76
1
 98
0
  0
TEXT
  5
31A
330
29C
100
AcDbEntity
 67
1
  8
A-TEXT
100
AcDbText
 10
41.0
 20
80.5
 30
0.0
 40
2.0
  1
0
  7
PLAN-REGULAR
 72
1
 11
41.0
 21
80.5
 31
0.0
100
AcDbText
 73
2
  0
TEXT
  5
31B
330
29C
100
AcDbEntity
 67
1
  8
A-TEXT
100
AcDbText
 10
61.0
 20
80.5
 30
0.0
 40
2.0
  1
1
  7
PLAN-REGULAR
 72
1
 11
61.0
 21
80.5
 31
0.0
100
AcDbText
 73
2
  0
TEXT
  5
31C
330
29C
100
AcDbEntity
 67
1
  8
A-TEXT
100
AcDbText
 10
81.0
 20
80.5
 30
0.0
 40
2.0
  1
2
  7
PLAN-REGULAR
 72
1
 11
81.0
 21
80.5
 31
0.0
100
AcDbText
 73
2
  0
TEXT
  5
31D
330
29C
100
AcDbEntity
 67
1
  8
A-TEXT
100
AcDbText
 10
101.0
 20
80.5
 30
0.0
 40
2.0
  1
3
  7
PLAN-REGULAR
 72
1
 11
101.0
 21
80.5
 31
0.0
100
AcDbText
 73
2
  0
TEXT
  5
31E
330
29C
100
AcDbEntity
 67
1
  8
A-TEXT
100
AcDbText
 10
121.0
 20
80.5
 30
0.0
 40
2.0
  1
4
  7
PLAN-REGULAR
 72
1
 11
121.0
 21
80.5
 31
0.0
100
AcDbText
 73
2
  0
TEXT
  5
31F
330
29C
100
AcDbEntity
 67
1
  8
A-TEXT
100
AcDbText
 10
141.0
 20
80.5
 30
0.0
 40
2.0
  1
5
  7
PLAN-REGULAR
 72
1
 11
141.0
 21
80.5
 31
0.0
100
AcDbText
 73
2
  0
LWPOLYLINE
  5
320
330
29C
100
AcDbEntity
 67
1
  8
A-SHEET
370
70
100
AcDbPolyline
 90
4
 70
1
 10
107.0
 20
45.0
 10
292.0
 20
45.0
 10
292.0
 20
5.0
 10
107.0
 20
5.0
  0
LINE
  5
321
330
29C
100
AcDbEntity
 67
1
  8
A-SHEET
370
50
100
AcDbLine
 10
107.0
 20
31.0
 30
0.0
 11
292.0
 21
31.0
 31
0.0
  0
LINE
  5
322
330
29C
100
AcDbEntity
 67
1
  8
A-SHEET
370
50
100
AcDbLine
 10
107.0
 20
18.0
 30
0.0
 11
292.0
 21
18.0
 31
0.0
  0
LINE
  5
323
330
29C
100
AcDbEntity
 67
1
  8
A-SHEET
370
50
100
AcDbLine
 10
227.0
 20
31.0
 30
0.0
 11
227.0
 21
5.0
 31
0.0
  0
LINE
  5
324
330
29C
100
AcDbEntity
 67
1
  8
A-SHEET
370
50
100
AcDbLine
 10
257.0
 20
31.0
 30
0.0
 11
257.0
 21
5.0
 31
0.0
  0
TEXT
  5
325
330
29C
100
AcDbEntity
 67
1
  8
A-TEXT
100
AcDbText
 10
111.0
 20
40.0
 30
0.0
 40
3.2
  1
План квартиры - перепланировка, вариант 3
  7
PLAN-BOLD
 11
111.0
 21
40.0
 31
0.0
100
AcDbText
 73
2
  0
TEXT
  5
326
330
29C
100
AcDbEntity
 67
1
  8
A-TEXT
100
AcDbText
 10
111.0
 20
35.0
 30
0.0
 40
2.4
  1
Apartment floor plan - replanning variant 3 (client's sketch)
  7
PLAN-ITALIC
 11
111.0
 21
35.0
 31
0.0
100
AcDbText
 73
2
  0
TEXT
  5
327
330
29C
100
AcDbEntity
 67
1
  8
A-TEXT
100
AcDbText
 10
111.0
 20
26.5
 30
0.0
 40
2.2
  1
Общая площадь / Total area (по чертежу / measured):
  7
PLAN-REGULAR
 11
111.0
 21
26.5
 31
0.0
100
AcDbText
 73
2
  0
TEXT
  5
328
330
29C
100
AcDbEntity
 67
1
  8
A-TEXT
100
AcDbText
 10
111.0
 20
22.0
 30
0.0
 40
2.2
  1
91.5 м² (в т.ч. лоджия / incl. loggia 5.1 м²)
  7
PLAN-BOLD
 11
111.0
 21
22.0
 31
0.0
100
AcDbText
 73
2
  0
TEXT
  5
329
330
29C
100
AcDbEntity
 67
1
  8
A-TEXT
100
AcDbText
 10
242.0
 20
27.5
 30
0.0
 40
1.8
  1
Масштаб / Scale
  7
PLAN-REGULAR
 72
1
 11
242.0
 21
27.5
 31
0.0
100
AcDbText
 73
2
  0
TEXT
  5
32A
330
29C
100
AcDbEntity
 67
1
  8
A-TEXT
100
AcDbText
 10
242.0
 20
22.0
 30
0.0
 40
3.5
  1
1:50
  7
PLAN-BOLD
 72
1
 11
242.0
 21
22.0
 31
0.0
100
AcDbText
 73
2
  0
TEXT
  5
32B
330
29C
100
AcDbEntity
 67
1
  8
A-TEXT
100
AcDbText
 10
274.5
 20
27.5
 30
0.0
 40
1.8
  1
Формат / Size
  7
PLAN-REGULAR
 72
1
 11
274.5
 21
27.5
 31
0.0
100
AcDbText
 73
2
  0
TEXT
  5
32C
330
29C
100
AcDbEntity
 67
1
  8
A-TEXT
100
AcDbText
 10
274.5
 20
22.0
 30
0.0
 40
3.5
  1
A3
  7
PLAN-BOLD
 72
1
 11
274.5
 21
22.0
 31
0.0
100
AcDbText
 73
2
  0
TEXT
  5
32D
330
29C
100
AcDbEntity
 67
1
  8
A-TEXT
100
AcDbText
 10
111.0
 20
13.5
 30
0.0
 40
2.2
  1
Размеры в мм / Dimensions in mm
  7
PLAN-REGULAR
 11
111.0
 21
13.5
 31
0.0
100
AcDbText
 73
2
  0
TEXT
  5
32E
330
29C
100
AcDbEntity
 67
1
  8
A-TEXT
100
AcDbText
 10
111.0
 20
9.0
 30
0.0
 40
1.8
  1
Основа / Base: output/flat-plan_1-50_A3.pdf
  7
PLAN-REGULAR
 11
111.0
 21
9.0
 31
0.0
100
AcDbText
 73
2
  0
TEXT
  5
32F
330
29C
100
AcDbEntity
 67
1
  8
A-TEXT
100
AcDbText
 10
242.0
 20
14.5
 30
0.0
 40
1.8
  1
Лист / Sheet
  7
PLAN-REGULAR
 72
1
 11
242.0
 21
14.5
 31
0.0
100
AcDbText
 73
2
  0
TEXT
  5
330
330
29C
100
AcDbEntity
 67
1
  8
A-TEXT
100
AcDbText
 10
242.0
 20
9.5
 30
0.0
 40
3.0
  1
4
  7
PLAN-BOLD
 72
1
 11
242.0
 21
9.5
 31
0.0
100
AcDbText
 73
2
  0
TEXT
  5
331
330
29C
100
AcDbEntity
 67
1
  8
A-TEXT
100
AcDbText
 10
274.5
 20
14.5
 30
0.0
 40
1.8
  1
Дата / Date
  7
PLAN-REGULAR
 72
1
 11
274.5
 21
14.5
 31
0.0
100
AcDbText
 73
2
  0
TEXT
  5
332
330
29C
100
AcDbEntity
 67
1
  8
A-TEXT
100
AcDbText
 10
274.5
 20
9.5
 30
0.0
 40
2.4
  1
27.09.2026
  7
PLAN-REGULAR
 72
1
 11
274.5
 21
9.5
 31
0.0
100
AcDbText
 73
2
  0
VIEWPORT
  5
333
330
29C
100
AcDbEntity
 67
1
  8
A-VPORT
100
AcDbViewport
 10
156.0
 20
236.5
 30
0.0
 40
232.0
 41
289.0
 68
2
 69
3
 12
5750.0
 22
7175.0
 13
0.0
 23
0.0
 14
10.0
 24
10.0
 15
10.0
 25
10.0
 16
0.0
 26
0.0
 36
1.0
 17
0.0
 27
0.0
 37
0.0
 42
50.0
 43
0.0
 44
0.0
 45
14450.0
 50
0.0
 51
0.0
 72
100
 90
16384
  1

281
0
 71
0
 74
0
110
0.0
120
0.0
130
0.0
111
1.0
121
0.0
131
0.0
112
0.0
122
1.0
132
0.0
 79
0
146
0.0
282
0
  0
ENDBLK
  5
29E
330
29C
100
AcDbEntity
  8
0
100
AcDbBlockEnd
  0
ENDSEC
  0
SECTION
  2
ENTITIES
  0
LWPOLYLINE
  5
9E
330
17
100
AcDbEntity
  8
A-WALL-DEMO
  6
DASHED
 48
3.0
100
AcDbPolyline
 90
24
 70
1
 10
10101.34799101051
 20
7900.0
 10
10798.65200898949
 20
7900.0
 10
10799.292893218815
 20
7900.707106781188
 10
10799.365606715834
 20
7900.773010453361
 10
10799.444429766982
 20
7900.831469612303
 10
10799.528603263181
 20
7900.881921264353
 10
10799.617316567621
 20
7900.923879532505
 10
10799.709715322755
 20
7900.9569403357345
 10
10799.80490967798
 20
7900.980785280402
 10
10799.90198285967
 20
7900.995184726672
 10
10800.000000000004
 20
7901.0
 10
10850.0
 20
7901.0
 10
10850.0
 20
8050.0
 10
9801.0
 20
8050.0
 10
9801.0
 20
7901.0
 10
10099.999999999996
 20
7901.0
 10
10100.09801714033
 20
7900.995184726672
 10
10100.19509032202
 20
7900.980785280402
 10
10100.290284677245
 20
7900.9569403357345
 10
10100.382683432379
 20
7900.923879532505
 10
10100.471396736819
 20
7900.881921264353
 10
10100.555570233018
 20
7900.831469612303
 10
10100.634393284166
 20
7900.773010453361
 10
10100.707106781185
 20
7900.707106781188
  0
LWPOLYLINE
  5
9F
330
17
100
AcDbEntity
  8
A-WALL-DEMO
  6
DASHED
 48
3.0
100
AcDbPolyline
 90
24
 70
1
 10
8751.347991010507
 20
7900.0
 10
9448.65200898949
 20
7900.0
 10
9449.292893218815
 20
7900.707106781188
 10
9449.365606715834
 20
7900.773010453361
 10
9449.444429766982
 20
7900.831469612303
 10
9449.528603263181
 20
7900.881921264353
 10
9449.617316567621
 20
7900.923879532505
 10
9449.709715322755
 20
7900.9569403357345
 10
9449.80490967798
 20
7900.980785280402
 10
9449.90198285967
 20
7900.995184726672
 10
9450.000000000004
 20
7901.0
 10
9699.0
 20
7901.0
 10
9699.0
 20
8050.0
 10
8201.0
 20
8050.0
 10
8201.0
 20
7901.0
 10
8750.000000000004
 20
7901.0
 10
8750.098017140324
 20
7900.995184726673
 10
8750.195090322017
 20
7900.980785280403
 10
8750.290284677254
 20
7900.956940335732
 10
8750.382683432365
 20
7900.923879532511
 10
8750.471396736826
 20
7900.881921264348
 10
8750.555570233018
 20
7900.831469612303
 10
8750.634393284166
 20
7900.773010453361
 10
8750.707106781187
 20
7900.707106781186
  0
LWPOLYLINE
  5
A0
330
17
100
AcDbEntity
  8
A-WALL-DEMO
  6
DASHED
 48
3.0
100
AcDbPolyline
 90
8
 70
1
 10
7150.0
 20
6650.0
 10
7150.0
 20
6800.0
 10
6950.0
 20
6800.0
 10
6950.0
 20
6650.0
 10
6300.0
 20
6650.0
 10
6300.0
 20
6450.0
 10
8000.0
 20
6450.0
 10
8000.0
 20
6650.0
  0
LWPOLYLINE
  5
A1
330
17
100
AcDbEntity
  8
A-WALL-DEMO
  6
DASHED
 48
3.0
100
AcDbPolyline
 90
8
 70
1
 10
7150.0
 20
7700.0
 10
7150.0
 20
7850.0
 10
7999.0
 20
7850.0
 10
7999.0
 20
8050.0
 10
7150.0
 20
8050.0
 10
7150.0
 20
9325.0
 10
6950.0
 20
9325.0
 10
6950.0
 20
7700.0
  0
LWPOLYLINE
  5
A2
330
17
100
AcDbEntity
  8
A-WALL-DEMO
  6
DASHED
 48
3.0
100
AcDbPolyline
 90
4
 70
1
 10
5400.0
 20
6650.0
 10
5101.0
 20
6650.0
 10
5101.0
 20
6450.0
 10
5400.0
 20
6450.0
  0
HATCH
  5
A3
330
17
100
AcDbEntity
  8
A-WALL-FILL
 62
7
420
10066329
100
AcDbHatch
 10
0.0
 20
0.0
 30
0.0
210
0.0
220
0.0
230
1.0
  2
SOLID
 70
1
 71
0
 91
1
 92
3
 72
0
 73
1
 93
15
 10
6950.0
 20
10225.0
 10
7150.0
 20
10225.0
 10
7150.0
 20
10950.0
 10
10600.0
 20
10950.0
 10
10600.0
 20
9900.0
 10
10800.0
 20
9900.0
 10
10800.0
 20
11250.0
 10
11350.0
 20
11250.0
 10
11350.0
 20
11450.0
 10
10600.0
 20
11450.0
 10
10600.0
 20
11150.0
 10
7082.8427124746195
 20
11150.0
 10
7020.685424949238
 20
11212.15728752538
 10
6879.264068711928
 20
11070.735931288073
 10
6950.0
 20
11000.0
 97
0
 75
1
 76
1
 98
0
  0
LWPOLYLINE
  5
A4
330
17
100
AcDbEntity
  8
A-WALL
100
AcDbPolyline
 90
15
 70
1
 10
6950.0
 20
10225.0
 10
7150.0
 20
10225.0
 10
7150.0
 20
10950.0
 10
10600.0
 20
10950.0
 10
10600.0
 20
9900.0
 10
10800.0
 20
9900.0
 10
10800.0
 20
11250.0
 10
11350.0
 20
11250.0
 10
11350.0
 20
11450.0
 10
10600.0
 20
11450.0
 10
10600.0
 20
11150.0
 10
7082.8427124746195
 20
11150.0
 10
7020.685424949238
 20
11212.15728752538
 10
6879.264068711928
 20
11070.735931288073
 10
6950.0
 20
11000.0
  0
HATCH
  5
A5
330
17
100
AcDbEntity
  8
A-WALL-FILL
 62
7
420
10066329
100
AcDbHatch
 10
0.0
 20
0.0
 30
0.0
210
0.0
220
0.0
230
1.0
  2
SOLID
 70
1
 71
0
 91
1
 92
3
 72
0
 73
1
 93
8
 10
6180.0
 20
13500.0
 10
6380.0
 20
13500.0
 10
6380.0
 20
14150.0
 10
10850.0
 20
14150.0
 10
10850.0
 20
14350.0
 10
5350.0
 20
14350.0
 10
5350.0
 20
14150.0
 10
6180.0
 20
14150.0
 97
0
 75
1
 76
1
 98
0
  0
LWPOLYLINE
  5
A6
330
17
100
AcDbEntity
  8
A-WALL
100
AcDbPolyline
 90
8
 70
1
 10
6180.0
 20
13500.0
 10
6380.0
 20
13500.0
 10
6380.0
 20
14150.0
 10
10850.0
 20
14150.0
 10
10850.0
 20
14350.0
 10
5350.0
 20
14350.0
 10
5350.0
 20
14150.0
 10
6180.0
 20
14150.0
  0
HATCH
  5
A7
330
17
100
AcDbEntity
  8
A-WALL-FILL
 62
7
420
10066329
100
AcDbHatch
 10
0.0
 20
0.0
 30
0.0
210
0.0
220
0.0
230
1.0
  2
SOLID
 70
1
 71
0
 91
1
 92
3
 72
0
 73
1
 93
4
 10
10800.0
 20
7900.0
 10
10800.0
 20
7850.0
 10
10850.0
 20
7850.0
 10
10850.0
 20
7900.0
 97
0
 75
1
 76
1
 98
0
  0
LWPOLYLINE
  5
A8
330
17
100
AcDbEntity
  8
A-WALL
100
AcDbPolyline
 90
4
 70
1
 10
10800.0
 20
7900.0
 10
10800.0
 20
7850.0
 10
10850.0
 20
7850.0
 10
10850.0
 20
7900.0
  0
HATCH
  5
A9
330
17
100
AcDbEntity
  8
A-WALL-FILL
 62
7
420
10066329
100
AcDbHatch
 10
0.0
 20
0.0
 30
0.0
210
0.0
220
0.0
230
1.0
  2
SOLID
 70
1
 71
0
 91
1
 92
3
 72
0
 73
1
 93
8
 10
9700.0
 20
7900.0
 10
9450.0
 20
7900.0
 10
9450.0
 20
7850.0
 10
10100.0
 20
7850.0
 10
10100.0
 20
7900.0
 10
9800.0
 20
7900.0
 10
9800.0
 20
8050.0
 10
9700.0
 20
8050.0
 97
0
 75
1
 76
1
 98
0
  0
LWPOLYLINE
  5
AA
330
17
100
AcDbEntity
  8
A-WALL
100
AcDbPolyline
 90
8
 70
1
 10
9700.0
 20
7900.0
 10
9450.0
 20
7900.0
 10
9450.0
 20
7850.0
 10
10100.0
 20
7850.0
 10
10100.0
 20
7900.0
 10
9800.0
 20
7900.0
 10
9800.0
 20
8050.0
 10
9700.0
 20
8050.0
  0
HATCH
  5
AB
330
17
100
AcDbEntity
  8
A-WALL-FILL
 62
7
420
10066329
100
AcDbHatch
 10
0.0
 20
0.0
 30
0.0
210
0.0
220
0.0
230
1.0
  2
SOLID
 70
1
 71
0
 91
1
 92
3
 72
0
 73
1
 93
8
 10
8000.0
 20
1400.0
 10
8200.0
 20
1400.0
 10
8200.0
 20
1800.0
 10
9400.0
 20
1800.0
 10
9400.0
 20
2000.0
 10
8200.0
 20
2000.0
 10
8200.0
 20
6250.0
 10
8000.0
 20
6250.0
 97
0
 75
1
 76
1
 98
0
  0
LWPOLYLINE
  5
AC
330
17
100
AcDbEntity
  8
A-WALL
100
AcDbPolyline
 90
8
 70
1
 10
8000.0
 20
1400.0
 10
8200.0
 20
1400.0
 10
8200.0
 20
1800.0
 10
9400.0
 20
1800.0
 10
9400.0
 20
2000.0
 10
8200.0
 20
2000.0
 10
8200.0
 20
6250.0
 10
8000.0
 20
6250.0
  0
HATCH
  5
AD
330
17
100
AcDbEntity
  8
A-WALL-FILL
 62
7
420
10066329
100
AcDbHatch
 10
0.0
 20
0.0
 30
0.0
210
0.0
220
0.0
230
1.0
  2
SOLID
 70
1
 71
0
 91
1
 92
3
 72
0
 73
1
 93
6
 10
8750.0
 20
7900.0
 10
8200.0
 20
7900.0
 10
8200.0
 20
8050.0
 10
8000.0
 20
8050.0
 10
8000.0
 20
7850.0
 10
8750.0
 20
7850.0
 97
0
 75
1
 76
1
 98
0
  0
LWPOLYLINE
  5
AE
330
17
100
AcDbEntity
  8
A-WALL
100
AcDbPolyline
 90
6
 70
1
 10
8750.0
 20
7900.0
 10
8200.0
 20
7900.0
 10
8200.0
 20
8050.0
 10
8000.0
 20
8050.0
 10
8000.0
 20
7850.0
 10
8750.0
 20
7850.0
  0
HATCH
  5
AF
330
17
100
AcDbEntity
  8
A-WALL-FILL
 62
7
420
10066329
100
AcDbHatch
 10
0.0
 20
0.0
 30
0.0
210
0.0
220
0.0
230
1.0
  2
SOLID
 70
1
 71
0
 91
1
 92
3
 72
0
 73
1
 93
4
 10
8000.0
 20
600.0
 10
8000.0
 20
300.0
 10
8200.0
 20
300.0
 10
8200.0
 20
600.0
 97
0
 75
1
 76
1
 98
0
  0
LWPOLYLINE
  5
B0
330
17
100
AcDbEntity
  8
A-WALL
100
AcDbPolyline
 90
4
 70
1
 10
8000.0
 20
600.0
 10
8000.0
 20
300.0
 10
8200.0
 20
300.0
 10
8200.0
 20
600.0
  0
HATCH
  5
B1
330
17
100
AcDbEntity
  8
A-WALL-FILL
 62
7
420
10066329
100
AcDbHatch
 10
0.0
 20
0.0
 30
0.0
210
0.0
220
0.0
230
1.0
  2
SOLID
 70
1
 71
0
 91
1
 92
3
 72
0
 73
1
 93
6
 10
6180.0
 20
11770.0
 10
6313.57864376269
 20
11636.42135623731
 10
6455.0
 20
11777.84271247462
 10
6380.0
 20
11852.84271247462
 10
6380.0
 20
12300.0
 10
6180.0
 20
12300.0
 97
0
 75
1
 76
1
 98
0
  0
LWPOLYLINE
  5
B2
330
17
100
AcDbEntity
  8
A-WALL
100
AcDbPolyline
 90
6
 70
1
 10
6180.0
 20
11770.0
 10
6313.57864376269
 20
11636.42135623731
 10
6455.0
 20
11777.84271247462
 10
6380.0
 20
11852.84271247462
 10
6380.0
 20
12300.0
 10
6180.0
 20
12300.0
  0
HATCH
  5
B3
330
17
100
AcDbEntity
  8
A-WALL-FILL
 62
7
420
10066329
100
AcDbHatch
 10
0.0
 20
0.0
 30
0.0
210
0.0
220
0.0
230
1.0
  2
SOLID
 70
1
 71
0
 91
1
 92
3
 72
0
 73
1
 93
26
 10
2800.0
 20
11950.0
 10
2800.0
 20
10450.0
 10
3115.0
 20
10450.0
 10
3115.0
 20
9500.0
 10
2800.0
 20
9500.0
 10
2800.0
 20
9300.0
 10
4900.0
 20
9300.0
 10
4900.0
 20
8350.0
 10
5100.0
 20
8350.0
 10
5100.0
 20
10150.0
 10
4900.0
 20
10150.0
 10
4900.0
 20
9500.0
 10
3235.0
 20
9500.0
 10
3235.0
 20
10550.0
 10
3000.0
 20
10550.0
 10
3000.0
 20
11950.0
 10
4017.157287525381
 20
11950.0
 10
4900.0
 20
11067.15728752538
 10
4900.0
 20
10850.0
 10
5100.0
 20
10850.0
 10
5100.0
 20
11150.0
 10
4100.0
 20
12150.0
 10
1200.0
 20
12150.0
 10
1200.0
 20
12850.0
 10
1000.0
 20
12850.0
 10
1000.0
 20
11950.0
 97
0
 75
1
 76
1
 98
0
  0
LWPOLYLINE
  5
B4
330
17
100
AcDbEntity
  8
A-WALL
100
AcDbPolyline
 90
26
 70
1
 10
2800.0
 20
11950.0
 10
2800.0
 20
10450.0
 10
3115.0
 20
10450.0
 10
3115.0
 20
9500.0
 10
2800.0
 20
9500.0
 10
2800.0
 20
9300.0
 10
4900.0
 20
9300.0
 10
4900.0
 20
8350.0
 10
5100.0
 20
8350.0
 10
5100.0
 20
10150.0
 10
4900.0
 20
10150.0
 10
4900.0
 20
9500.0
 10
3235.0
 20
9500.0
 10
3235.0
 20
10550.0
 10
3000.0
 20
10550.0
 10
3000.0
 20
11950.0
 10
4017.157287525381
 20
11950.0
 10
4900.0
 20
11067.15728752538
 10
4900.0
 20
10850.0
 10
5100.0
 20
10850.0
 10
5100.0
 20
11150.0
 10
4100.0
 20
12150.0
 10
1200.0
 20
12150.0
 10
1200.0
 20
12850.0
 10
1000.0
 20
12850.0
 10
1000.0
 20
11950.0
  0
HATCH
  5
B5
330
17
100
AcDbEntity
  8
A-WALL-FILL
 62
7
420
10066329
100
AcDbHatch
 10
0.0
 20
0.0
 30
0.0
210
0.0
220
0.0
230
1.0
  2
SOLID
 70
1
 71
0
 91
1
 92
3
 72
0
 73
1
 93
4
 10
5100.0
 20
2300.0
 10
5100.0
 20
7800.0
 10
4900.0
 20
7800.0
 10
4900.0
 20
2300.0
 97
0
 75
1
 76
1
 98
0
  0
LWPOLYLINE
  5
B6
330
17
100
AcDbEntity
  8
A-WALL
100
AcDbPolyline
 90
4
 70
1
 10
5100.0
 20
2300.0
 10
5100.0
 20
7800.0
 10
4900.0
 20
7800.0
 10
4900.0
 20
2300.0
  0
HATCH
  5
B7
330
17
100
AcDbEntity
  8
A-WALL-FILL
 62
7
420
10066329
100
AcDbHatch
 10
0.0
 20
0.0
 30
0.0
210
0.0
220
0.0
230
1.0
  2
SOLID
 70
1
 71
0
 91
1
 92
3
 72
0
 73
1
 93
6
 10
1200.0
 20
13850.0
 10
1200.0
 20
14150.0
 10
4800.0
 20
14150.0
 10
4800.0
 20
14350.0
 10
1000.0
 20
14350.0
 10
1000.0
 20
13850.0
 97
0
 75
1
 76
1
 98
0
  0
LWPOLYLINE
  5
B8
330
17
100
AcDbEntity
  8
A-WALL
100
AcDbPolyline
 90
6
 70
1
 10
1200.0
 20
13850.0
 10
1200.0
 20
14150.0
 10
4800.0
 20
14150.0
 10
4800.0
 20
14350.0
 10
1000.0
 20
14350.0
 10
1000.0
 20
13850.0
  0
HATCH
  5
B9
330
17
100
AcDbEntity
  8
A-WALL-NEW-FILL
 62
7
420
15567936
100
AcDbHatch
 10
0.0
 20
0.0
 30
0.0
210
0.0
220
0.0
230
1.0
  2
SOLID
 70
1
 71
0
 91
1
 92
3
 72
0
 73
1
 93
10
 10
8200.0
 20
9050.0
 10
9700.0
 20
9050.0
 10
9700.0
 20
8050.0
 10
9800.0
 20
8050.0
 10
9800.0
 20
9050.0
 10
11350.0
 20
9050.0
 10
11350.0
 20
9250.0
 10
8000.0
 20
9250.0
 10
8000.0
 20
8050.0
 10
8200.0
 20
8050.0
 97
0
 75
1
 76
1
 98
0
  0
LWPOLYLINE
  5
BA
330
17
100
AcDbEntity
  8
A-WALL-NEW
100
AcDbPolyline
 90
10
 70
1
 10
8200.0
 20
9050.0
 10
9700.0
 20
9050.0
 10
9700.0
 20
8050.0
 10
9800.0
 20
8050.0
 10
9800.0
 20
9050.0
 10
11350.0
 20
9050.0
 10
11350.0
 20
9250.0
 10
8000.0
 20
9250.0
 10
8000.0
 20
8050.0
 10
8200.0
 20
8050.0
  0
HATCH
  5
BB
330
17
100
AcDbEntity
  8
A-WALL-NEW-FILL
 62
7
420
15567936
100
AcDbHatch
 10
0.0
 20
0.0
 30
0.0
210
0.0
220
0.0
230
1.0
  2
SOLID
 70
1
 71
0
 91
1
 92
3
 72
0
 73
1
 93
4
 10
10800.0
 20
7800.0
 10
10850.0
 20
7800.0
 10
10850.0
 20
7850.0
 10
10800.0
 20
7850.0
 97
0
 75
1
 76
1
 98
0
  0
LWPOLYLINE
  5
BC
330
17
100
AcDbEntity
  8
A-WALL-NEW
100
AcDbPolyline
 90
4
 70
1
 10
10800.0
 20
7800.0
 10
10850.0
 20
7800.0
 10
10850.0
 20
7850.0
 10
10800.0
 20
7850.0
  0
HATCH
  5
BD
330
17
100
AcDbEntity
  8
A-WALL-NEW-FILL
 62
7
420
15567936
100
AcDbHatch
 10
0.0
 20
0.0
 30
0.0
210
0.0
220
0.0
230
1.0
  2
SOLID
 70
1
 71
0
 91
1
 92
3
 72
0
 73
1
 93
4
 10
9450.0
 20
7800.0
 10
10100.0
 20
7800.0
 10
10100.0
 20
7850.0
 10
9450.0
 20
7850.0
 97
0
 75
1
 76
1
 98
0
  0
LWPOLYLINE
  5
BE
330
17
100
AcDbEntity
  8
A-WALL-NEW
100
AcDbPolyline
 90
4
 70
1
 10
9450.0
 20
7800.0
 10
10100.0
 20
7800.0
 10
10100.0
 20
7850.0
 10
9450.0
 20
7850.0
  0
HATCH
  5
BF
330
17
100
AcDbEntity
  8
A-WALL-NEW-FILL
 62
7
420
15567936
100
AcDbHatch
 10
0.0
 20
0.0
 30
0.0
210
0.0
220
0.0
230
1.0
  2
SOLID
 70
1
 71
0
 91
1
 92
3
 72
0
 73
1
 93
6
 10
8750.0
 20
7850.0
 10
8000.0
 20
7850.0
 10
8000.0
 20
7050.0
 10
8200.0
 20
7050.0
 10
8200.0
 20
7800.0
 10
8750.0
 20
7800.0
 97
0
 75
1
 76
1
 98
0
  0
LWPOLYLINE
  5
C0
330
17
100
AcDbEntity
  8
A-WALL-NEW
100
AcDbPolyline
 90
6
 70
1
 10
8750.0
 20
7850.0
 10
8000.0
 20
7850.0
 10
8000.0
 20
7050.0
 10
8200.0
 20
7050.0
 10
8200.0
 20
7800.0
 10
8750.0
 20
7800.0
  0
HATCH
  5
C1
330
17
100
AcDbEntity
  8
A-WALL-NEW-FILL
 62
7
420
15567936
100
AcDbHatch
 10
0.0
 20
0.0
 30
0.0
210
0.0
220
0.0
230
1.0
  2
SOLID
 70
1
 71
0
 91
1
 92
3
 72
0
 73
1
 93
4
 10
8000.0
 20
4750.0
 10
8000.0
 20
4950.0
 10
5100.0
 20
4950.0
 10
5100.0
 20
4750.0
 97
0
 75
1
 76
1
 98
0
  0
LWPOLYLINE
  5
C2
330
17
100
AcDbEntity
  8
A-WALL-NEW
100
AcDbPolyline
 90
4
 70
1
 10
8000.0
 20
4750.0
 10
8000.0
 20
4950.0
 10
5100.0
 20
4950.0
 10
5100.0
 20
4750.0
  0
HATCH
  5
C3
330
17
100
AcDbEntity
  8
A-WALL-NEW-FILL
 62
7
420
15567936
100
AcDbHatch
 10
0.0
 20
0.0
 30
0.0
210
0.0
220
0.0
230
1.0
  2
SOLID
 70
1
 71
0
 91
1
 92
3
 72
0
 73
1
 93
4
 10
6950.0
 20
10220.0
 10
7150.0
 20
10220.0
 10
7150.0
 20
10225.0
 10
6950.0
 20
10225.0
 97
0
 75
1
 76
1
 98
0
  0
LWPOLYLINE
  5
C4
330
17
100
AcDbEntity
  8
A-WALL-NEW
100
AcDbPolyline
 90
4
 70
1
 10
6950.0
 20
10220.0
 10
7150.0
 20
10220.0
 10
7150.0
 20
10225.0
 10
6950.0
 20
10225.0
  0
HATCH
  5
C5
330
17
100
AcDbEntity
  8
A-WALL-NEW-FILL
 62
7
420
15567936
100
AcDbHatch
 10
0.0
 20
0.0
 30
0.0
210
0.0
220
0.0
230
1.0
  2
SOLID
 70
1
 71
0
 91
1
 92
3
 72
0
 73
1
 93
4
 10
6180.0
 20
12300.0
 10
6380.0
 20
12300.0
 10
6380.0
 20
13500.0
 10
6180.0
 20
13500.0
 97
0
 75
1
 76
1
 98
0
  0
LWPOLYLINE
  5
C6
330
17
100
AcDbEntity
  8
A-WALL-NEW
100
AcDbPolyline
 90
4
 70
1
 10
6180.0
 20
12300.0
 10
6380.0
 20
12300.0
 10
6380.0
 20
13500.0
 10
6180.0
 20
13500.0
  0
HATCH
  5
C7
330
17
100
AcDbEntity
  8
A-COLS
 62
7
420
0
100
AcDbHatch
 10
0.0
 20
0.0
 30
0.0
210
0.0
220
0.0
230
1.0
  2
SOLID
 70
1
 71
0
 91
1
 92
3
 72
0
 73
1
 93
4
 10
5350.0
 20
13900.0
 10
5350.0
 20
14350.0
 10
4800.0
 20
14350.0
 10
4800.0
 20
13900.0
 97
0
 75
1
 76
1
 98
0
  0
LWPOLYLINE
  5
C8
330
17
100
AcDbEntity
  8
A-COLS
100
AcDbPolyline
 90
4
 70
1
 10
5350.0
 20
13900.0
 10
5350.0
 20
14350.0
 10
4800.0
 20
14350.0
 10
4800.0
 20
13900.0
  0
HATCH
  5
C9
330
17
100
AcDbEntity
  8
A-COLS
 62
7
420
0
100
AcDbHatch
 10
0.0
 20
0.0
 30
0.0
210
0.0
220
0.0
230
1.0
  2
SOLID
 70
1
 71
0
 91
1
 92
3
 72
0
 73
1
 93
4
 10
11350.0
 20
13900.0
 10
11350.0
 20
14350.0
 10
10850.0
 20
14350.0
 10
10850.0
 20
13900.0
 97
0
 75
1
 76
1
 98
0
  0
LWPOLYLINE
  5
CA
330
17
100
AcDbEntity
  8
A-COLS
100
AcDbPolyline
 90
4
 70
1
 10
11350.0
 20
13900.0
 10
11350.0
 20
14350.0
 10
10850.0
 20
14350.0
 10
10850.0
 20
13900.0
  0
HATCH
  5
CB
330
17
100
AcDbEntity
  8
A-COLS
 62
7
420
0
100
AcDbHatch
 10
0.0
 20
0.0
 30
0.0
210
0.0
220
0.0
230
1.0
  2
SOLID
 70
1
 71
0
 91
1
 92
3
 72
0
 73
1
 93
4
 10
11350.0
 20
9900.0
 10
11350.0
 20
10450.0
 10
11200.0
 20
10450.0
 10
11200.0
 20
9900.0
 97
0
 75
1
 76
1
 98
0
  0
LWPOLYLINE
  5
CC
330
17
100
AcDbEntity
  8
A-COLS
100
AcDbPolyline
 90
4
 70
1
 10
11350.0
 20
9900.0
 10
11350.0
 20
10450.0
 10
11200.0
 20
10450.0
 10
11200.0
 20
9900.0
  0
HATCH
  5
CD
330
17
100
AcDbEntity
  8
A-COLS
 62
7
420
0
100
AcDbHatch
 10
0.0
 20
0.0
 30
0.0
210
0.0
220
0.0
230
1.0
  2
SOLID
 70
1
 71
0
 91
1
 92
3
 72
0
 73
1
 93
4
 10
5375.0
 20
7800.0
 10
5375.0
 20
8350.0
 10
4900.0
 20
8350.0
 10
4900.0
 20
7800.0
 97
0
 75
1
 76
1
 98
0
  0
LWPOLYLINE
  5
CE
330
17
100
AcDbEntity
  8
A-COLS
100
AcDbPolyline
 90
4
 70
1
 10
5375.0
 20
7800.0
 10
5375.0
 20
8350.0
 10
4900.0
 20
8350.0
 10
4900.0
 20
7800.0
  0
HATCH
  5
CF
330
17
100
AcDbEntity
  8
A-COLS
 62
7
420
0
100
AcDbHatch
 10
0.0
 20
0.0
 30
0.0
210
0.0
220
0.0
230
1.0
  2
SOLID
 70
1
 71
0
 91
1
 92
3
 72
0
 73
1
 93
4
 10
11350.0
 20
7800.0
 10
11350.0
 20
8350.0
 10
10850.0
 20
8350.0
 10
10850.0
 20
7800.0
 97
0
 75
1
 76
1
 98
0
  0
LWPOLYLINE
  5
D0
330
17
100
AcDbEntity
  8
A-COLS
100
AcDbPolyline
 90
4
 70
1
 10
11350.0
 20
7800.0
 10
11350.0
 20
8350.0
 10
10850.0
 20
8350.0
 10
10850.0
 20
7800.0
  0
HATCH
  5
D1
330
17
100
AcDbEntity
  8
A-COLS
 62
7
420
0
100
AcDbHatch
 10
0.0
 20
0.0
 30
0.0
210
0.0
220
0.0
230
1.0
  2
SOLID
 70
1
 71
0
 91
1
 92
3
 72
0
 73
1
 93
4
 10
5375.0
 20
1750.0
 10
5375.0
 20
2300.0
 10
4900.0
 20
2300.0
 10
4900.0
 20
1750.0
 97
0
 75
1
 76
1
 98
0
  0
LWPOLYLINE
  5
D2
330
17
100
AcDbEntity
  8
A-COLS
100
AcDbPolyline
 90
4
 70
1
 10
5375.0
 20
1750.0
 10
5375.0
 20
2300.0
 10
4900.0
 20
2300.0
 10
4900.0
 20
1750.0
  0
HATCH
  5
D3
330
17
100
AcDbEntity
  8
A-COLS
 62
7
420
0
100
AcDbHatch
 10
0.0
 20
0.0
 30
0.0
210
0.0
220
0.0
230
1.0
  2
SOLID
 70
1
 71
0
 91
1
 92
3
 72
0
 73
1
 93
4
 10
11350.0
 20
1750.0
 10
11350.0
 20
2300.0
 10
10850.0
 20
2300.0
 10
10850.0
 20
1750.0
 97
0
 75
1
 76
1
 98
0
  0
LWPOLYLINE
  5
D4
330
17
100
AcDbEntity
  8
A-COLS
100
AcDbPolyline
 90
4
 70
1
 10
11350.0
 20
1750.0
 10
11350.0
 20
2300.0
 10
10850.0
 20
2300.0
 10
10850.0
 20
1750.0
  0
HATCH
  5
D5
330
17
100
AcDbEntity
  8
A-COLS
 62
7
420
0
100
AcDbHatch
 10
0.0
 20
0.0
 30
0.0
210
0.0
220
0.0
230
1.0
  2
SOLID
 70
1
 71
0
 91
1
 92
3
 72
0
 73
1
 93
4
 10
5350.0
 20
400.0
 10
4900.0
 20
400.0
 10
4900.0
 20
150.0
 10
5350.0
 20
150.0
 97
0
 75
1
 76
1
 98
0
  0
LWPOLYLINE
  5
D6
330
17
100
AcDbEntity
  8
A-COLS
100
AcDbPolyline
 90
4
 70
1
 10
5350.0
 20
400.0
 10
4900.0
 20
400.0
 10
4900.0
 20
150.0
 10
5350.0
 20
150.0
  0
HATCH
  5
D7
330
17
100
AcDbEntity
  8
A-COLS
 62
7
420
0
100
AcDbHatch
 10
0.0
 20
0.0
 30
0.0
210
0.0
220
0.0
230
1.0
  2
SOLID
 70
1
 71
0
 91
1
 92
3
 72
0
 73
1
 93
4
 10
8450.0
 20
300.0
 10
7350.0
 20
300.0
 10
7350.0
 20
150.0
 10
8450.0
 20
150.0
 97
0
 75
1
 76
1
 98
0
  0
LWPOLYLINE
  5
D8
330
17
100
AcDbEntity
  8
A-COLS
100
AcDbPolyline
 90
4
 70
1
 10
8450.0
 20
300.0
 10
7350.0
 20
300.0
 10
7350.0
 20
150.0
 10
8450.0
 20
150.0
  0
LINE
  5
D9
330
17
100
AcDbEntity
  8
A-GLAZ-FRAME
100
AcDbLine
 10
11350.0
 20
14350.0
 30
0.0
 11
11350.0
 21
0.0
 31
0.0
  0
LINE
  5
DA
330
17
100
AcDbEntity
  8
A-GLAZ-FRAME
100
AcDbLine
 10
11500.0
 20
14350.0
 30
0.0
 11
11500.0
 21
0.0
 31
0.0
  0
LINE
  5
DB
330
17
100
AcDbEntity
  8
A-GLAZ
100
AcDbLine
 10
11410.0
 20
14350.0
 30
0.0
 11
11410.0
 21
0.0
 31
0.0
  0
LINE
  5
DC
330
17
100
AcDbEntity
  8
A-GLAZ
100
AcDbLine
 10
11440.0
 20
14350.0
 30
0.0
 11
11440.0
 21
0.0
 31
0.0
  0
LINE
  5
DD
330
17
100
AcDbEntity
  8
A-GLAZ-FRAME
100
AcDbLine
 10
4900.0
 20
150.0
 30
0.0
 11
11500.0
 21
150.0
 31
0.0
  0
LINE
  5
DE
330
17
100
AcDbEntity
  8
A-GLAZ-FRAME
100
AcDbLine
 10
4900.0
 20
0.0
 30
0.0
 11
11500.0
 21
0.0
 31
0.0
  0
LINE
  5
DF
330
17
100
AcDbEntity
  8
A-GLAZ
100
AcDbLine
 10
4900.0
 20
90.0
 30
0.0
 11
11500.0
 21
90.0
 31
0.0
  0
LINE
  5
E0
330
17
100
AcDbEntity
  8
A-GLAZ
100
AcDbLine
 10
4900.0
 20
60.0
 30
0.0
 11
11500.0
 21
60.0
 31
0.0
  0
LINE
  5
E1
330
17
100
AcDbEntity
  8
A-GLAZ-FRAME
100
AcDbLine
 10
11350.0
 20
14350.0
 30
0.0
 11
11500.0
 21
14350.0
 31
0.0
  0
LINE
  5
E2
330
17
100
AcDbEntity
  8
A-GLAZ-FRAME
100
AcDbLine
 10
4900.0
 20
150.0
 30
0.0
 11
4900.0
 21
0.0
 31
0.0
  0
LWPOLYLINE
  5
E3
330
17
100
AcDbEntity
  8
A-GLAZ-FRAME
100
AcDbPolyline
 90
4
 70
1
 10
11350.0
 20
13480.0
 10
11500.0
 20
13480.0
 10
11500.0
 20
13420.0
 10
11350.0
 20
13420.0
  0
HATCH
  5
E4
330
17
100
AcDbEntity
  8
A-GLAZ-FRAME
 62
7
420
0
100
AcDbHatch
 10
0.0
 20
0.0
 30
0.0
210
0.0
220
0.0
230
1.0
  2
SOLID
 70
1
 71
0
 91
1
 92
3
 72
0
 73
1
 93
4
 10
11350.0
 20
13480.0
 10
11500.0
 20
13480.0
 10
11500.0
 20
13420.0
 10
11350.0
 20
13420.0
 97
0
 75
1
 76
1
 98
0
  0
LWPOLYLINE
  5
E5
330
17
100
AcDbEntity
  8
A-GLAZ-FRAME
100
AcDbPolyline
 90
4
 70
1
 10
11350.0
 20
12455.0
 10
11500.0
 20
12455.0
 10
11500.0
 20
12395.0
 10
11350.0
 20
12395.0
  0
HATCH
  5
E6
330
17
100
AcDbEntity
  8
A-GLAZ-FRAME
 62
7
420
0
100
AcDbHatch
 10
0.0
 20
0.0
 30
0.0
210
0.0
220
0.0
230
1.0
  2
SOLID
 70
1
 71
0
 91
1
 92
3
 72
0
 73
1
 93
4
 10
11350.0
 20
12455.0
 10
11500.0
 20
12455.0
 10
11500.0
 20
12395.0
 10
11350.0
 20
12395.0
 97
0
 75
1
 76
1
 98
0
  0
LWPOLYLINE
  5
E7
330
17
100
AcDbEntity
  8
A-GLAZ-FRAME
100
AcDbPolyline
 90
4
 70
1
 10
11350.0
 20
11430.0
 10
11500.0
 20
11430.0
 10
11500.0
 20
11370.0
 10
11350.0
 20
11370.0
  0
HATCH
  5
E8
330
17
100
AcDbEntity
  8
A-GLAZ-FRAME
 62
7
420
0
100
AcDbHatch
 10
0.0
 20
0.0
 30
0.0
210
0.0
220
0.0
230
1.0
  2
SOLID
 70
1
 71
0
 91
1
 92
3
 72
0
 73
1
 93
4
 10
11350.0
 20
11430.0
 10
11500.0
 20
11430.0
 10
11500.0
 20
11370.0
 10
11350.0
 20
11370.0
 97
0
 75
1
 76
1
 98
0
  0
LWPOLYLINE
  5
E9
330
17
100
AcDbEntity
  8
A-GLAZ-FRAME
100
AcDbPolyline
 90
4
 70
1
 10
11350.0
 20
10430.0
 10
11500.0
 20
10430.0
 10
11500.0
 20
10370.0
 10
11350.0
 20
10370.0
  0
HATCH
  5
EA
330
17
100
AcDbEntity
  8
A-GLAZ-FRAME
 62
7
420
0
100
AcDbHatch
 10
0.0
 20
0.0
 30
0.0
210
0.0
220
0.0
230
1.0
  2
SOLID
 70
1
 71
0
 91
1
 92
3
 72
0
 73
1
 93
4
 10
11350.0
 20
10430.0
 10
11500.0
 20
10430.0
 10
11500.0
 20
10370.0
 10
11350.0
 20
10370.0
 97
0
 75
1
 76
1
 98
0
  0
LWPOLYLINE
  5
EB
330
17
100
AcDbEntity
  8
A-GLAZ-FRAME
100
AcDbPolyline
 90
4
 70
1
 10
11350.0
 20
9405.0
 10
11500.0
 20
9405.0
 10
11500.0
 20
9345.0
 10
11350.0
 20
9345.0
  0
HATCH
  5
EC
330
17
100
AcDbEntity
  8
A-GLAZ-FRAME
 62
7
420
0
100
AcDbHatch
 10
0.0
 20
0.0
 30
0.0
210
0.0
220
0.0
230
1.0
  2
SOLID
 70
1
 71
0
 91
1
 92
3
 72
0
 73
1
 93
4
 10
11350.0
 20
9405.0
 10
11500.0
 20
9405.0
 10
11500.0
 20
9345.0
 10
11350.0
 20
9345.0
 97
0
 75
1
 76
1
 98
0
  0
LWPOLYLINE
  5
ED
330
17
100
AcDbEntity
  8
A-GLAZ-FRAME
100
AcDbPolyline
 90
4
 70
1
 10
11350.0
 20
7380.0
 10
11500.0
 20
7380.0
 10
11500.0
 20
7320.0
 10
11350.0
 20
7320.0
  0
HATCH
  5
EE
330
17
100
AcDbEntity
  8
A-GLAZ-FRAME
 62
7
420
0
100
AcDbHatch
 10
0.0
 20
0.0
 30
0.0
210
0.0
220
0.0
230
1.0
  2
SOLID
 70
1
 71
0
 91
1
 92
3
 72
0
 73
1
 93
4
 10
11350.0
 20
7380.0
 10
11500.0
 20
7380.0
 10
11500.0
 20
7320.0
 10
11350.0
 20
7320.0
 97
0
 75
1
 76
1
 98
0
  0
LWPOLYLINE
  5
EF
330
17
100
AcDbEntity
  8
A-GLAZ-FRAME
100
AcDbPolyline
 90
4
 70
1
 10
11350.0
 20
6380.0
 10
11500.0
 20
6380.0
 10
11500.0
 20
6320.0
 10
11350.0
 20
6320.0
  0
HATCH
  5
F0
330
17
100
AcDbEntity
  8
A-GLAZ-FRAME
 62
7
420
0
100
AcDbHatch
 10
0.0
 20
0.0
 30
0.0
210
0.0
220
0.0
230
1.0
  2
SOLID
 70
1
 71
0
 91
1
 92
3
 72
0
 73
1
 93
4
 10
11350.0
 20
6380.0
 10
11500.0
 20
6380.0
 10
11500.0
 20
6320.0
 10
11350.0
 20
6320.0
 97
0
 75
1
 76
1
 98
0
  0
LWPOLYLINE
  5
F1
330
17
100
AcDbEntity
  8
A-GLAZ-FRAME
100
AcDbPolyline
 90
4
 70
1
 10
11350.0
 20
5380.0
 10
11500.0
 20
5380.0
 10
11500.0
 20
5320.0
 10
11350.0
 20
5320.0
  0
HATCH
  5
F2
330
17
100
AcDbEntity
  8
A-GLAZ-FRAME
 62
7
420
0
100
AcDbHatch
 10
0.0
 20
0.0
 30
0.0
210
0.0
220
0.0
230
1.0
  2
SOLID
 70
1
 71
0
 91
1
 92
3
 72
0
 73
1
 93
4
 10
11350.0
 20
5380.0
 10
11500.0
 20
5380.0
 10
11500.0
 20
5320.0
 10
11350.0
 20
5320.0
 97
0
 75
1
 76
1
 98
0
  0
LWPOLYLINE
  5
F3
330
17
100
AcDbEntity
  8
A-GLAZ-FRAME
100
AcDbPolyline
 90
4
 70
1
 10
11350.0
 20
4355.0
 10
11500.0
 20
4355.0
 10
11500.0
 20
4295.0
 10
11350.0
 20
4295.0
  0
HATCH
  5
F4
330
17
100
AcDbEntity
  8
A-GLAZ-FRAME
 62
7
420
0
100
AcDbHatch
 10
0.0
 20
0.0
 30
0.0
210
0.0
220
0.0
230
1.0
  2
SOLID
 70
1
 71
0
 91
1
 92
3
 72
0
 73
1
 93
4
 10
11350.0
 20
4355.0
 10
11500.0
 20
4355.0
 10
11500.0
 20
4295.0
 10
11350.0
 20
4295.0
 97
0
 75
1
 76
1
 98
0
  0
LWPOLYLINE
  5
F5
330
17
100
AcDbEntity
  8
A-GLAZ-FRAME
100
AcDbPolyline
 90
4
 70
1
 10
11350.0
 20
3355.0
 10
11500.0
 20
3355.0
 10
11500.0
 20
3295.0
 10
11350.0
 20
3295.0
  0
HATCH
  5
F6
330
17
100
AcDbEntity
  8
A-GLAZ-FRAME
 62
7
420
0
100
AcDbHatch
 10
0.0
 20
0.0
 30
0.0
210
0.0
220
0.0
230
1.0
  2
SOLID
 70
1
 71
0
 91
1
 92
3
 72
0
 73
1
 93
4
 10
11350.0
 20
3355.0
 10
11500.0
 20
3355.0
 10
11500.0
 20
3295.0
 10
11350.0
 20
3295.0
 97
0
 75
1
 76
1
 98
0
  0
LWPOLYLINE
  5
F7
330
17
100
AcDbEntity
  8
A-GLAZ-FRAME
100
AcDbPolyline
 90
4
 70
1
 10
11350.0
 20
1280.0
 10
11500.0
 20
1280.0
 10
11500.0
 20
1220.0
 10
11350.0
 20
1220.0
  0
HATCH
  5
F8
330
17
100
AcDbEntity
  8
A-GLAZ-FRAME
 62
7
420
0
100
AcDbHatch
 10
0.0
 20
0.0
 30
0.0
210
0.0
220
0.0
230
1.0
  2
SOLID
 70
1
 71
0
 91
1
 92
3
 72
0
 73
1
 93
4
 10
11350.0
 20
1280.0
 10
11500.0
 20
1280.0
 10
11500.0
 20
1220.0
 10
11350.0
 20
1220.0
 97
0
 75
1
 76
1
 98
0
  0
LWPOLYLINE
  5
F9
330
17
100
AcDbEntity
  8
A-GLAZ-FRAME
100
AcDbPolyline
 90
4
 70
1
 10
6320.0
 20
150.0
 10
6380.0
 20
150.0
 10
6380.0
 20
0.0
 10
6320.0
 20
0.0
  0
HATCH
  5
FA
330
17
100
AcDbEntity
  8
A-GLAZ-FRAME
 62
7
420
0
100
AcDbHatch
 10
0.0
 20
0.0
 30
0.0
210
0.0
220
0.0
230
1.0
  2
SOLID
 70
1
 71
0
 91
1
 92
3
 72
0
 73
1
 93
4
 10
6320.0
 20
150.0
 10
6380.0
 20
150.0
 10
6380.0
 20
0.0
 10
6320.0
 20
0.0
 97
0
 75
1
 76
1
 98
0
  0
LWPOLYLINE
  5
FB
330
17
100
AcDbEntity
  8
A-GLAZ-FRAME
100
AcDbPolyline
 90
4
 70
1
 10
9370.0
 20
150.0
 10
9430.0
 20
150.0
 10
9430.0
 20
0.0
 10
9370.0
 20
0.0
  0
HATCH
  5
FC
330
17
100
AcDbEntity
  8
A-GLAZ-FRAME
 62
7
420
0
100
AcDbHatch
 10
0.0
 20
0.0
 30
0.0
210
0.0
220
0.0
230
1.0
  2
SOLID
 70
1
 71
0
 91
1
 92
3
 72
0
 73
1
 93
4
 10
9370.0
 20
150.0
 10
9430.0
 20
150.0
 10
9430.0
 20
0.0
 10
9370.0
 20
0.0
 97
0
 75
1
 76
1
 98
0
  0
LWPOLYLINE
  5
FD
330
17
100
AcDbEntity
  8
A-GLAZ-FRAME
100
AcDbPolyline
 90
4
 70
1
 10
10370.0
 20
150.0
 10
10430.0
 20
150.0
 10
10430.0
 20
0.0
 10
10370.0
 20
0.0
  0
HATCH
  5
FE
330
17
100
AcDbEntity
  8
A-GLAZ-FRAME
 62
7
420
0
100
AcDbHatch
 10
0.0
 20
0.0
 30
0.0
210
0.0
220
0.0
230
1.0
  2
SOLID
 70
1
 71
0
 91
1
 92
3
 72
0
 73
1
 93
4
 10
10370.0
 20
150.0
 10
10430.0
 20
150.0
 10
10430.0
 20
0.0
 10
10370.0
 20
0.0
 97
0
 75
1
 76
1
 98
0
  0
LINE
  5
FF
330
17
100
AcDbEntity
  8
A-GLAZ-FRAME
100
AcDbLine
 10
4900.0
 20
1750.0
 30
0.0
 11
4900.0
 21
400.0
 31
0.0
  0
LINE
  5
100
330
17
100
AcDbEntity
  8
A-GLAZ-FRAME
100
AcDbLine
 10
5100.0
 20
1750.0
 30
0.0
 11
5100.0
 21
400.0
 31
0.0
  0
LINE
  5
101
330
17
100
AcDbEntity
  8
A-GLAZ
100
AcDbLine
 10
4980.0
 20
1750.0
 30
0.0
 11
4980.0
 21
400.0
 31
0.0
  0
LINE
  5
102
330
17
100
AcDbEntity
  8
A-GLAZ
100
AcDbLine
 10
5020.0
 20
1750.0
 30
0.0
 11
5020.0
 21
400.0
 31
0.0
  0
LINE
  5
103
330
17
100
AcDbEntity
  8
A-GLAZ-FRAME
100
AcDbLine
 10
9400.0
 20
2000.0
 30
0.0
 11
10100.0
 21
2000.0
 31
0.0
  0
LINE
  5
104
330
17
100
AcDbEntity
  8
A-GLAZ-FRAME
100
AcDbLine
 10
9400.0
 20
1800.0
 30
0.0
 11
10100.0
 21
1800.0
 31
0.0
  0
LINE
  5
105
330
17
100
AcDbEntity
  8
A-GLAZ
100
AcDbLine
 10
9400.0
 20
1920.0
 30
0.0
 11
10100.0
 21
1920.0
 31
0.0
  0
LINE
  5
106
330
17
100
AcDbEntity
  8
A-GLAZ
100
AcDbLine
 10
9400.0
 20
1880.0
 30
0.0
 11
10100.0
 21
1880.0
 31
0.0
  0
LINE
  5
107
330
17
100
AcDbEntity
  8
A-GLAZ-FRAME
100
AcDbLine
 10
10100.0
 20
2000.0
 30
0.0
 11
10100.0
 21
1800.0
 31
0.0
  0
LINE
  5
108
330
17
100
AcDbEntity
  8
A-DOOR
100
AcDbLine
 10
1000.0
 20
13850.0
 30
0.0
 11
0.0
 21
13850.0
 31
0.0
  0
ARC
  5
109
330
17
100
AcDbEntity
  8
A-DOOR-SWING
100
AcDbCircle
 10
1000.0
 20
13850.0
 30
0.0
 40
1000.0
100
AcDbArc
 50
-180.0
 51
-90.0
  0
LINE
  5
10A
330
17
100
AcDbEntity
  8
A-DOOR
100
AcDbLine
 10
4900.0
 20
10850.0
 30
0.0
 11
4200.0
 21
10850.0
 31
0.0
  0
ARC
  5
10B
330
17
100
AcDbEntity
  8
A-DOOR-SWING
100
AcDbCircle
 10
4900.0
 20
10850.0
 30
0.0
 40
700.0
100
AcDbArc
 50
-180.0
 51
-90.0
  0
LINE
  5
10C
330
17
100
AcDbEntity
  8
A-DOOR
100
AcDbLine
 10
7020.685424949238
 20
11212.15728752538
 30
0.0
 11
7586.370849898476
 21
11777.84271247462
 31
0.0
  0
ARC
  5
10D
330
17
100
AcDbEntity
  8
A-DOOR-SWING
100
AcDbCircle
 10
7020.685424949238
 20
11212.15728752538
 30
0.0
 40
800.0
100
AcDbArc
 50
45.0
 51
135.0
  0
LINE
  5
10E
330
17
100
AcDbEntity
  8
A-DOOR
100
AcDbLine
 10
8200.0
 20
6250.0
 30
0.0
 11
9000.0
 21
6250.0
 31
0.0
  0
ARC
  5
10F
330
17
100
AcDbEntity
  8
A-DOOR-SWING
100
AcDbCircle
 10
8200.0
 20
6250.0
 30
0.0
 40
800.0
100
AcDbArc
 50
-0.0
 51
90.0
  0
LINE
  5
110
330
17
100
AcDbEntity
  8
A-DOOR
100
AcDbLine
 10
9450.0
 20
7800.0
 30
0.0
 11
9450.0
 21
7100.0
 31
0.0
  0
ARC
  5
111
330
17
100
AcDbEntity
  8
A-DOOR-SWING
100
AcDbCircle
 10
9450.0
 20
7800.0
 30
0.0
 40
700.0
100
AcDbArc
 50
-180.0
 51
-90.0
  0
LINE
  5
112
330
17
100
AcDbEntity
  8
A-DOOR
100
AcDbLine
 10
10800.0
 20
7800.0
 30
0.0
 11
10800.0
 21
7100.0
 31
0.0
  0
ARC
  5
113
330
17
100
AcDbEntity
  8
A-DOOR-SWING
100
AcDbCircle
 10
10800.0
 20
7800.0
 30
0.0
 40
700.0
100
AcDbArc
 50
-180.0
 51
-90.0
  0
LINE
  5
114
330
17
100
AcDbEntity
  8
A-DOOR
100
AcDbLine
 10
8000.0
 20
600.0
 30
0.0
 11
7200.0
 21
600.0
 31
0.0
  0
ARC
  5
115
330
17
100
AcDbEntity
  8
A-DOOR-SWING
100
AcDbCircle
 10
8000.0
 20
600.0
 30
0.0
 40
800.0
100
AcDbArc
 50
-270.0
 51
-180.0
  0
LINE
  5
116
330
17
100
AcDbEntity
  8
A-DOOR
100
AcDbLine
 10
11200.0
 20
9900.0
 30
0.0
 11
11200.0
 21
9500.0
 31
0.0
  0
ARC
  5
117
330
17
100
AcDbEntity
  8
A-DOOR-SWING
100
AcDbCircle
 10
11200.0
 20
9900.0
 30
0.0
 40
400.0
100
AcDbArc
 50
-180.0
 51
-90.0
  0
LINE
  5
118
330
17
100
AcDbEntity
  8
A-DOOR
420
1731527
100
AcDbLine
 10
10850.0
 20
1800.0
 30
0.0
 11
10850.0
 21
1050.0
 31
0.0
  0
ARC
  5
119
330
17
100
AcDbEntity
  8
A-DOOR-SWING
100
AcDbCircle
 10
10850.0
 20
1800.0
 30
0.0
 40
750.0
100
AcDbArc
 50
-180.0
 51
-90.0
  0
LINE
  5
11A
330
17
100
AcDbEntity
  8
A-FIXT
100
AcDbLine
 10
10800.0
 20
9900.0
 30
0.0
 11
11200.0
 21
9900.0
 31
0.0
  0
LWPOLYLINE
  5
11B
330
17
100
AcDbEntity
  8
A-SHAFT
100
AcDbPolyline
 90
4
 70
1
 10
2800.0
 20
10450.0
 10
3115.0
 20
10450.0
 10
3115.0
 20
9500.0
 10
2800.0
 20
9500.0
  0
LINE
  5
11C
330
17
100
AcDbEntity
  8
A-SHAFT
100
AcDbLine
 10
2800.0
 20
10450.0
 30
0.0
 11
3115.0
 21
9500.0
 31
0.0
  0
LINE
  5
11D
330
17
100
AcDbEntity
  8
A-SHAFT
100
AcDbLine
 10
2800.0
 20
9500.0
 30
0.0
 11
3115.0
 21
10450.0
 31
0.0
  0
HATCH
  5
11E
330
17
100
AcDbEntity
  8
A-WALL-FILL
 62
7
420
10066329
100
AcDbHatch
 10
0.0
 20
0.0
 30
0.0
210
0.0
220
0.0
230
1.0
  2
SOLID
 70
1
 71
0
 91
2
 92
3
 72
0
 73
1
 93
4
 10
7150.0
 20
10950.0
 10
7150.0
 20
10450.0
 10
7800.0
 20
10450.0
 10
7800.0
 20
10950.0
 97
0
 92
2
 72
0
 73
1
 93
4
 10
7730.0
 20
10520.0
 10
7220.0
 20
10520.0
 10
7220.0
 20
10880.0
 10
7730.0
 20
10880.0
 97
0
 75
1
 76
1
 98
0
  0
LWPOLYLINE
  5
11F
330
17
100
AcDbEntity
  8
A-WALL
100
AcDbPolyline
 90
4
 70
1
 10
7150.0
 20
10950.0
 10
7150.0
 20
10450.0
 10
7800.0
 20
10450.0
 10
7800.0
 20
10950.0
  0
LWPOLYLINE
  5
120
330
17
100
AcDbEntity
  8
A-WALL
100
AcDbPolyline
 90
4
 70
1
 10
7730.0
 20
10520.0
 10
7220.0
 20
10520.0
 10
7220.0
 20
10880.0
 10
7730.0
 20
10880.0
  0
LINE
  5
121
330
17
100
AcDbEntity
  8
A-SHAFT
100
AcDbLine
 10
7220.0
 20
10880.0
 30
0.0
 11
7730.0
 21
10520.0
 31
0.0
  0
LINE
  5
122
330
17
100
AcDbEntity
  8
A-SHAFT
100
AcDbLine
 10
7220.0
 20
10520.0
 30
0.0
 11
7730.0
 21
10880.0
 31
0.0
  0
LWPOLYLINE
  5
123
330
17
100
AcDbEntity
  8
A-GLAZ
100
AcDbPolyline
 90
4
 70
1
 10
3000.0
 20
11160.0
 10
3800.0
 20
11160.0
 10
3800.0
 20
11140.0
 10
3000.0
 20
11140.0
  0
HATCH
  5
124
330
17
100
AcDbEntity
  8
A-GLAZ
 62
7
420
12574455
100
AcDbHatch
 10
0.0
 20
0.0
 30
0.0
210
0.0
220
0.0
230
1.0
  2
SOLID
 70
1
 71
0
 91
1
 92
3
 72
0
 73
1
 93
4
 10
3000.0
 20
11160.0
 10
3800.0
 20
11160.0
 10
3800.0
 20
11140.0
 10
3000.0
 20
11140.0
 97
0
 75
1
 76
1
 98
0
  0
LWPOLYLINE
  5
125
330
17
100
AcDbEntity
  8
A-GLAZ
100
AcDbPolyline
 90
4
 70
1
 10
3750.0
 20
11125.0
 10
4842.1572875253805
 20
11125.0
 10
4842.1572875253805
 20
11110.0
 10
3750.0
 20
11110.0
  0
LWPOLYLINE
  5
126
330
17
100
AcDbEntity
  8
A-FIXT
100
AcDbPolyline
 90
4
 70
1
 10
3000.0
 20
11650.0
 10
3060.0
 20
11650.0
 10
3060.0
 20
11550.0
 10
3000.0
 20
11550.0
  0
LINE
  5
127
330
17
100
AcDbEntity
  8
A-FIXT
100
AcDbLine
 10
3060.0
 20
11600.0
 30
0.0
 11
3200.0
 21
11600.0
 31
0.0
  0
CIRCLE
  5
128
330
17
100
AcDbEntity
  8
A-FIXT
100
AcDbCircle
 10
3250.0
 20
11600.0
 30
0.0
 40
60.0
  0
LWPOLYLINE
  5
129
330
17
100
AcDbEntity
  8
A-FIXT
100
AcDbPolyline
 90
4
 70
1
 10
3500.0
 20
9700.0
 10
3900.0
 20
9700.0
 10
3900.0
 20
9500.0
 10
3500.0
 20
9500.0
  0
LWPOLYLINE
  5
12A
330
17
100
AcDbEntity
  8
A-FIXT
100
AcDbPolyline
 90
48
 70
1
 10
3880.0
 20
9920.0
 10
3878.460075047286
 20
9886.063190022785
 10
3873.8666487320324
 20
9852.707048273343
 10
3866.298315852032
 20
9820.502307585077
 10
3855.8845726811987
 20
9790.0
 10
3842.8036012524226
 20
9761.722028457732
 10
3827.2792206135787
 20
9736.152236891498
 10
3809.5770572215697
 20
9713.72813152428
 10
3790.0
 20
9694.833395016045
 10
3768.8830178257163
 20
9679.791321547065
 10
3746.5874281184538
 20
9668.859285164843
 10
3723.4947145996093
 20
9662.22433604281
 10
3700.0
 20
9660.0
 10
3676.5052854003907
 20
9662.22433604281
 10
3653.4125718815462
 20
9668.859285164843
 10
3631.116982174284
 20
9679.791321547065
 10
3610.0
 20
9694.833395016045
 10
3590.4229427784303
 20
9713.72813152428
 10
3572.720779386422
 20
9736.152236891498
 10
3557.1963987475774
 20
9761.722028457732
 10
3544.1154273188013
 20
9790.0
 10
3533.701684147968
 20
9820.502307585077
 10
3526.1333512679676
 20
9852.707048273343
 10
3521.539924952714
 20
9886.063190022785
 10
3520.0
 20
9920.0
 10
3521.539924952714
 20
9953.936809977215
 10
3526.1333512679676
 20
9987.292951726657
 10
3533.701684147968
 20
10019.497692414923
 10
3544.1154273188013
 20
10050.0
 10
3557.1963987475774
 20
10078.277971542268
 10
3572.7207793864213
 20
10103.847763108502
 10
3590.4229427784303
 20
10126.27186847572
 10
3610.0
 20
10145.166604983955
 10
3631.116982174284
 20
10160.208678452935
 10
3653.4125718815462
 20
10171.140714835157
 10
3676.5052854003907
 20
10177.77566395719
 10
3700.0
 20
10180.0
 10
3723.4947145996093
 20
10177.77566395719
 10
3746.5874281184533
 20
10171.140714835157
 10
3768.883017825716
 20
10160.208678452935
 10
3790.0
 20
10145.166604983955
 10
3809.5770572215697
 20
10126.271868475722
 10
3827.279220613578
 20
10103.847763108502
 10
3842.8036012524226
 20
10078.277971542268
 10
3855.8845726811987
 20
10050.0
 10
3866.298315852032
 20
10019.497692414923
 10
3873.8666487320324
 20
9987.292951726657
 10
3878.460075047286
 20
9953.936809977215
  0
LWPOLYLINE
  5
12B
330
17
100
AcDbEntity
  8
A-FIXT
100
AcDbPolyline
 90
48
 70
1
 10
3820.0
 20
9900.0
 10
3818.973383364857
 20
9875.20002347819
 10
3815.911099154688
 20
9850.82438143052
 10
3810.8655439013546
 20
9827.290147850632
 10
3803.9230484541326
 20
9805.0
 10
3795.202400834948
 20
9784.335328488343
 10
3784.8528137423855
 20
9765.649711574555
 10
3773.0513714810468
 20
9749.262865344666
 10
3760.0
 20
9735.455173280956
 10
3745.9220118838107
 20
9724.462888822854
 10
3731.058285412302
 20
9716.474093005076
 10
3715.6631430664065
 20
9711.625476338977
 10
3700.0
 20
9710.0
 10
3684.3368569335935
 20
9711.625476338977
 10
3668.941714587698
 20
9716.474093005076
 10
3654.0779881161893
 20
9724.462888822854
 10
3640.0
 20
9735.455173280956
 10
3626.9486285189532
 20
9749.262865344666
 10
3615.1471862576145
 20
9765.649711574555
 10
3604.797599165052
 20
9784.335328488343
 10
3596.0769515458674
 20
9805.0
 10
3589.1344560986454
 20
9827.290147850632
 10
3584.088900845312
 20
9850.82438143052
 10
3581.026616635143
 20
9875.20002347819
 10
3580.0
 20
9900.0
 10
3581.026616635143
 20
9924.79997652181
 10
3584.088900845312
 20
9949.17561856948
 10
3589.1344560986454
 20
9972.709852149368
 10
3596.0769515458674
 20
9995.0
 10
3604.797599165052
 20
10015.664671511657
 10
3615.1471862576145
 20
10034.350288425445
 10
3626.9486285189532
 20
10050.737134655334
 10
3640.0
 20
10064.544826719044
 10
3654.0779881161893
 20
10075.537111177146
 10
3668.941714587698
 20
10083.525906994922
 10
3684.3368569335935
 20
10088.374523661023
 10
3700.0
 20
10090.0
 10
3715.663143066406
 20
10088.374523661023
 10
3731.058285412302
 20
10083.525906994922
 10
3745.9220118838107
 20
10075.537111177146
 10
3760.0
 20
10064.544826719044
 10
3773.0513714810463
 20
10050.737134655334
 10
3784.8528137423855
 20
10034.350288425445
 10
3795.202400834948
 20
10015.664671511657
 10
3803.9230484541326
 20
9995.0
 10
3810.8655439013546
 20
9972.709852149368
 10
3815.911099154688
 20
9949.17561856948
 10
3818.973383364857
 20
9924.79997652181
  0
LWPOLYLINE
  5
12C
330
17
100
AcDbEntity
  8
A-FIXT
100
AcDbPolyline
 90
4
 70
1
 10
4100.0
 20
9980.0
 10
4750.0
 20
9980.0
 10
4750.0
 20
9500.0
 10
4100.0
 20
9500.0
  0
LWPOLYLINE
  5
12D
330
17
100
AcDbEntity
  8
A-FIXT
100
AcDbPolyline
 90
48
 70
1
 10
4655.0
 20
9730.0
 10
4653.0323181159765
 20
9709.115809244791
 10
4647.162940046485
 20
9688.588952783597
 10
4637.492292477596
 20
9668.770650821585
 10
4624.185842870421
 20
9650.0
 10
4607.471268266984
 20
9632.598171358604
 10
4587.634559672906
 20
9616.862915010151
 10
4565.015128672006
 20
9603.063465553401
 10
4540.0
 20
9591.43593539449
 10
4513.017189443971
 20
9582.179274798194
 10
4484.52838037358
 20
9575.451867793749
 10
4455.021024210612
 20
9571.36882218019
 10
4425.0
 20
9570.0
 10
4394.978975789389
 20
9571.36882218019
 10
4365.47161962642
 20
9575.451867793749
 10
4336.982810556029
 20
9582.179274798194
 10
4310.0
 20
9591.43593539449
 10
4284.984871327994
 20
9603.063465553401
 10
4262.365440327094
 20
9616.862915010151
 10
4242.528731733016
 20
9632.598171358604
 10
4225.814157129579
 20
9650.0
 10
4212.507707522404
 20
9668.770650821585
 10
4202.837059953515
 20
9688.588952783597
 10
4196.9676818840235
 20
9709.115809244791
 10
4195.0
 20
9730.0
 10
4196.9676818840235
 20
9750.884190755209
 10
4202.837059953515
 20
9771.411047216403
 10
4212.5077075224035
 20
9791.229349178415
 10
4225.814157129579
 20
9810.0
 10
4242.528731733016
 20
9827.401828641396
 10
4262.365440327094
 20
9843.137084989849
 10
4284.984871327994
 20
9856.936534446599
 10
4310.0
 20
9868.56406460551
 10
4336.982810556029
 20
9877.820725201806
 10
4365.47161962642
 20
9884.548132206251
 10
4394.978975789388
 20
9888.63117781981
 10
4425.0
 20
9890.0
 10
4455.021024210611
 20
9888.63117781981
 10
4484.52838037358
 20
9884.548132206251
 10
4513.017189443971
 20
9877.820725201806
 10
4540.0
 20
9868.56406460551
 10
4565.015128672006
 20
9856.936534446599
 10
4587.634559672906
 20
9843.137084989849
 10
4607.471268266984
 20
9827.401828641396
 10
4624.185842870421
 20
9810.0
 10
4637.492292477596
 20
9791.229349178415
 10
4647.162940046485
 20
9771.411047216403
 10
4653.0323181159765
 20
9750.884190755209
  0
LWPOLYLINE
  5
12E
330
17
100
AcDbEntity
  8
A-FURN
100
AcDbPolyline
 90
28
 70
1
 10
8450.0
 20
14120.0
 10
8462.940952255125
 20
14118.296291314453
 10
8475.0
 20
14113.301270189222
 10
8485.355339059328
 20
14105.355339059328
 10
8493.301270189222
 20
14095.0
 10
8498.296291314453
 20
14082.940952255127
 10
8500.0
 20
14070.0
 10
8500.0
 20
13270.0
 10
8498.296291314453
 20
13257.059047744873
 10
8493.301270189222
 20
13245.0
 10
8485.355339059328
 20
13234.644660940672
 10
8475.0
 20
13226.698729810778
 10
8462.940952255125
 20
13221.703708685547
 10
8450.0
 20
13220.0
 10
6550.0
 20
13220.0
 10
6537.059047744874
 20
13221.703708685547
 10
6525.0
 20
13226.698729810778
 10
6514.644660940672
 20
13234.644660940672
 10
6506.698729810778
 20
13245.0
 10
6501.703708685547
 20
13257.059047744873
 10
6500.0
 20
13270.0
 10
6500.0
 20
14070.0
 10
6501.703708685547
 20
14082.940952255127
 10
6506.698729810778
 20
14095.0
 10
6514.644660940672
 20
14105.355339059328
 10
6525.0
 20
14113.301270189222
 10
6537.059047744874
 20
14118.296291314453
 10
6550.0
 20
14120.0
  0
LWPOLYLINE
  5
12F
330
17
100
AcDbEntity
  8
A-FURN
100
AcDbPolyline
 90
28
 70
1
 10
6870.0
 20
14070.0
 10
6885.529142706151
 20
14067.955549577344
 10
6900.0
 20
14061.961524227067
 10
6912.426406871193
 20
14052.426406871193
 10
6921.961524227067
 20
14040.0
 10
6927.955549577344
 20
14025.529142706151
 10
6930.0
 20
14010.0
 10
6930.0
 20
13330.0
 10
6927.955549577344
 20
13314.470857293849
 10
6921.961524227067
 20
13300.0
 10
6912.426406871193
 20
13287.573593128807
 10
6900.0
 20
13278.038475772933
 10
6885.529142706151
 20
13272.044450422656
 10
6870.0
 20
13270.0
 10
6590.0
 20
13270.0
 10
6574.470857293849
 20
13272.044450422656
 10
6560.0
 20
13278.038475772933
 10
6547.573593128807
 20
13287.573593128807
 10
6538.038475772933
 20
13300.0
 10
6532.044450422656
 20
13314.470857293849
 10
6530.0
 20
13330.0
 10
6530.0
 20
14010.0
 10
6532.044450422656
 20
14025.529142706151
 10
6538.038475772933
 20
14040.0
 10
6547.573593128807
 20
14052.426406871193
 10
6560.0
 20
14061.961524227067
 10
6574.470857293849
 20
14067.955549577344
 10
6590.0
 20
14070.0
  0
LINE
  5
130
330
17
100
AcDbEntity
  8
A-FURN
100
AcDbLine
 10
7150.0
 20
14120.0
 30
0.0
 11
7150.0
 21
13220.0
 31
0.0
  0
LWPOLYLINE
  5
131
330
17
100
AcDbEntity
  8
A-FURN
100
AcDbPolyline
 90
28
 70
1
 10
10750.0
 20
13870.0
 10
10762.940952255125
 20
13868.296291314453
 10
10775.0
 20
13863.301270189222
 10
10785.355339059326
 20
13855.355339059328
 10
10793.301270189222
 20
13845.0
 10
10798.296291314455
 20
13832.940952255127
 10
10800.0
 20
13820.0
 10
10800.0
 20
13020.0
 10
10798.296291314455
 20
13007.059047744873
 10
10793.301270189222
 20
12995.0
 10
10785.355339059326
 20
12984.644660940672
 10
10775.0
 20
12976.698729810778
 10
10762.940952255125
 20
12971.703708685547
 10
10750.0
 20
12970.0
 10
9050.0
 20
12970.0
 10
9037.059047744875
 20
12971.703708685547
 10
9025.0
 20
12976.698729810778
 10
9014.644660940672
 20
12984.644660940672
 10
9006.698729810778
 20
12995.0
 10
9001.703708685547
 20
13007.059047744873
 10
9000.0
 20
13020.0
 10
9000.0
 20
13820.0
 10
9001.703708685547
 20
13832.940952255127
 10
9006.698729810778
 20
13845.0
 10
9014.644660940672
 20
13855.355339059328
 10
9025.0
 20
13863.301270189222
 10
9037.059047744875
 20
13868.296291314453
 10
9050.0
 20
13870.0
  0
LWPOLYLINE
  5
132
330
17
100
AcDbEntity
  8
A-FURN
100
AcDbPolyline
 90
28
 70
1
 10
10690.0
 20
13820.0
 10
10705.529142706151
 20
13817.955549577344
 10
10720.0
 20
13811.961524227067
 10
10732.426406871193
 20
13802.426406871193
 10
10741.961524227067
 20
13790.0
 10
10747.955549577344
 20
13775.529142706151
 10
10750.0
 20
13760.0
 10
10750.0
 20
13080.0
 10
10747.955549577344
 20
13064.470857293849
 10
10741.961524227067
 20
13050.0
 10
10732.426406871193
 20
13037.573593128807
 10
10720.0
 20
13028.038475772933
 10
10705.529142706151
 20
13022.044450422656
 10
10690.0
 20
13020.0
 10
10410.0
 20
13020.0
 10
10394.470857293849
 20
13022.044450422656
 10
10380.0
 20
13028.038475772933
 10
10367.573593128807
 20
13037.573593128807
 10
10358.038475772933
 20
13050.0
 10
10352.044450422656
 20
13064.470857293849
 10
10350.0
 20
13080.0
 10
10350.0
 20
13760.0
 10
10352.044450422656
 20
13775.529142706151
 10
10358.038475772933
 20
13790.0
 10
10367.573593128807
 20
13802.426406871193
 10
10380.0
 20
13811.961524227067
 10
10394.470857293849
 20
13817.955549577344
 10
10410.0
 20
13820.0
  0
LINE
  5
133
330
17
100
AcDbEntity
  8
A-FURN
100
AcDbLine
 10
10150.0
 20
13870.0
 30
0.0
 11
10150.0
 21
12970.0
 31
0.0
  0
LWPOLYLINE
  5
134
330
17
100
AcDbEntity
  8
A-FURN
100
AcDbPolyline
 90
4
 70
1
 10
8650.0
 20
14150.0
 10
8850.0
 20
14150.0
 10
8850.0
 20
12250.0
 10
8650.0
 20
12250.0
  0
LINE
  5
135
330
17
100
AcDbEntity
  8
A-FURN
100
AcDbLine
 10
8650.0
 20
13950.0
 30
0.0
 11
8850.0
 21
13950.0
 31
0.0
  0
LINE
  5
136
330
17
100
AcDbEntity
  8
A-FURN
100
AcDbLine
 10
8650.0
 20
13650.0
 30
0.0
 11
8850.0
 21
13650.0
 31
0.0
  0
LINE
  5
137
330
17
100
AcDbEntity
  8
A-FURN
100
AcDbLine
 10
8650.0
 20
13350.0
 30
0.0
 11
8850.0
 21
13350.0
 31
0.0
  0
LINE
  5
138
330
17
100
AcDbEntity
  8
A-FURN
100
AcDbLine
 10
8650.0
 20
13050.0
 30
0.0
 11
8850.0
 21
13050.0
 31
0.0
  0
LINE
  5
139
330
17
100
AcDbEntity
  8
A-FURN
100
AcDbLine
 10
8650.0
 20
12750.0
 30
0.0
 11
8850.0
 21
12750.0
 31
0.0
  0
LINE
  5
13A
330
17
100
AcDbEntity
  8
A-FURN
100
AcDbLine
 10
8650.0
 20
12450.0
 30
0.0
 11
8850.0
 21
12450.0
 31
0.0
  0
LWPOLYLINE
  5
13B
330
17
100
AcDbEntity
  8
A-FURN
100
AcDbPolyline
 90
4
 70
1
 10
7400.0
 20
11750.0
 10
8600.0
 20
11750.0
 10
8600.0
 20
11150.0
 10
7400.0
 20
11150.0
  0
LWPOLYLINE
  5
13C
330
17
100
AcDbEntity
  8
A-FURN
100
AcDbPolyline
 90
4
 70
1
 10
8240.0
 20
12260.0
 10
8240.0
 20
11740.0
 10
7760.0
 20
11740.0
 10
7760.0
 20
12260.0
  0
LWPOLYLINE
  5
13D
330
17
100
AcDbEntity
  8
A-FURN
100
AcDbPolyline
 90
4
 70
1
 10
8240.0
 20
12285.0
 10
8240.0
 20
12195.0
 10
7760.0
 20
12195.0
 10
7760.0
 20
12285.0
  0
LWPOLYLINE
  5
13E
330
17
100
AcDbEntity
  8
A-FURN
100
AcDbPolyline
 90
4
 70
1
 10
10750.0
 20
12750.0
 10
11350.0
 20
12750.0
 10
11350.0
 20
11500.0
 10
10750.0
 20
11500.0
  0
LWPOLYLINE
  5
13F
330
17
100
AcDbEntity
  8
A-FURN
100
AcDbPolyline
 90
4
 70
1
 10
10190.0
 20
12390.0
 10
10710.0
 20
12390.0
 10
10710.0
 20
11910.0
 10
10190.0
 20
11910.0
  0
LWPOLYLINE
  5
140
330
17
100
AcDbEntity
  8
A-FURN
100
AcDbPolyline
 90
4
 70
1
 10
10165.0
 20
12390.0
 10
10255.0
 20
12390.0
 10
10255.0
 20
11910.0
 10
10165.0
 20
11910.0
  0
LWPOLYLINE
  5
141
330
17
100
AcDbEntity
  8
A-FIXT
100
AcDbPolyline
 90
4
 70
1
 10
7800.0
 20
10950.0
 10
10600.0
 20
10950.0
 10
10600.0
 20
10350.0
 10
7800.0
 20
10350.0
  0
LWPOLYLINE
  5
142
330
17
100
AcDbEntity
  8
A-FIXT
100
AcDbPolyline
 90
28
 70
1
 10
8710.0
 20
10890.0
 10
8720.3527618041
 20
10888.637033051564
 10
8730.0
 20
10884.641016151378
 10
8738.284271247463
 20
10878.284271247461
 10
8744.641016151378
 20
10870.0
 10
8748.637033051564
 20
10860.3527618041
 10
8750.0
 20
10850.0
 10
8750.0
 20
10450.0
 10
8748.637033051564
 20
10439.6472381959
 10
8744.641016151378
 20
10430.0
 10
8738.284271247463
 20
10421.715728752539
 10
8730.0
 20
10415.358983848622
 10
8720.3527618041
 20
10411.362966948436
 10
8710.0
 20
10410.0
 10
8240.0
 20
10410.0
 10
8229.6472381959
 20
10411.362966948436
 10
8220.0
 20
10415.358983848622
 10
8211.715728752539
 20
10421.715728752537
 10
8205.358983848622
 20
10430.0
 10
8201.362966948436
 20
10439.6472381959
 10
8200.0
 20
10450.0
 10
8200.0
 20
10850.0
 10
8201.362966948436
 20
10860.3527618041
 10
8205.358983848622
 20
10870.0
 10
8211.715728752537
 20
10878.284271247461
 10
8220.0
 20
10884.641016151378
 10
8229.6472381959
 20
10888.637033051564
 10
8240.0
 20
10890.0
  0
LWPOLYLINE
  5
143
330
17
100
AcDbEntity
  8
A-FIXT
100
AcDbPolyline
 90
28
 70
1
 10
8640.0
 20
10840.0
 10
8655.529142706151
 20
10837.955549577344
 10
8670.0
 20
10831.961524227067
 10
8682.426406871193
 20
10822.426406871193
 10
8691.961524227067
 20
10810.0
 10
8697.955549577344
 20
10795.529142706151
 10
8700.0
 20
10780.0
 10
8700.0
 20
10520.0
 10
8697.955549577344
 20
10504.470857293849
 10
8691.961524227067
 20
10490.0
 10
8682.426406871193
 20
10477.573593128807
 10
8670.0
 20
10468.038475772933
 10
8655.529142706151
 20
10462.044450422656
 10
8640.0
 20
10460.0
 10
8310.0
 20
10460.0
 10
8294.470857293849
 20
10462.044450422656
 10
8280.0
 20
10468.038475772933
 10
8267.573593128807
 20
10477.573593128807
 10
8258.038475772933
 20
10490.0
 10
8252.044450422656
 20
10504.470857293849
 10
8250.0
 20
10520.0
 10
8250.0
 20
10780.0
 10
8252.044450422656
 20
10795.529142706151
 10
8258.038475772933
 20
10810.0
 10
8267.573593128807
 20
10822.426406871193
 10
8280.0
 20
10831.961524227067
 10
8294.470857293849
 20
10837.955549577344
 10
8310.0
 20
10840.0
  0
CIRCLE
  5
144
330
17
100
AcDbEntity
  8
A-FIXT
100
AcDbCircle
 10
8475.0
 20
10650.0
 30
0.0
 40
35.0
  0
LWPOLYLINE
  5
145
330
17
100
AcDbEntity
  8
A-FIXT
100
AcDbPolyline
 90
4
 70
1
 10
9250.0
 20
10900.0
 10
9700.0
 20
10900.0
 10
9700.0
 20
10400.0
 10
9250.0
 20
10400.0
  0
CIRCLE
  5
146
330
17
100
AcDbEntity
  8
A-FIXT
100
AcDbCircle
 10
9475.0
 20
10770.0
 30
0.0
 40
105.0
  0
CIRCLE
  5
147
330
17
100
AcDbEntity
  8
A-FIXT
100
AcDbCircle
 10
9475.0
 20
10530.0
 30
0.0
 40
105.0
  0
LWPOLYLINE
  5
148
330
17
100
AcDbEntity
  8
A-FIXT
100
AcDbPolyline
 90
4
 70
1
 10
10000.0
 20
10950.0
 10
10600.0
 20
10950.0
 10
10600.0
 20
10300.0
 10
10000.0
 20
10300.0
  0
LINE
  5
149
330
17
100
AcDbEntity
  8
A-FIXT
100
AcDbLine
 10
10180.0
 20
10625.0
 30
0.0
 11
10420.0
 21
10625.0
 31
0.0
  0
LINE
  5
14A
330
17
100
AcDbEntity
  8
A-FIXT
100
AcDbLine
 10
10240.0
 20
10728.923048454133
 30
0.0
 11
10360.0
 21
10521.076951545867
 31
0.0
  0
LINE
  5
14B
330
17
100
AcDbEntity
  8
A-FIXT
100
AcDbLine
 10
10360.0
 20
10728.923048454133
 30
0.0
 11
10240.0
 21
10521.076951545867
 31
0.0
  0
LWPOLYLINE
  5
14C
330
17
100
AcDbEntity
  8
A-FIXT
100
AcDbPolyline
 90
4
 70
1
 10
8300.0
 20
9850.0
 10
9400.0
 20
9850.0
 10
9400.0
 20
9250.0
 10
8300.0
 20
9250.0
  0
LWPOLYLINE
  5
14D
330
17
100
AcDbEntity
  8
A-FIXT
100
AcDbPolyline
 90
4
 70
1
 10
10900.0
 20
11200.0
 10
11050.0
 20
11200.0
 10
11050.0
 20
10000.0
 10
10900.0
 20
10000.0
  0
LINE
  5
14E
330
17
100
AcDbEntity
  8
A-FIXT
100
AcDbLine
 10
10900.0
 20
11150.0
 30
0.0
 11
11050.0
 21
11090.0
 31
0.0
  0
LINE
  5
14F
330
17
100
AcDbEntity
  8
A-FIXT
100
AcDbLine
 10
10900.0
 20
11050.0
 30
0.0
 11
11050.0
 21
10990.0
 31
0.0
  0
LINE
  5
150
330
17
100
AcDbEntity
  8
A-FIXT
100
AcDbLine
 10
10900.0
 20
10950.0
 30
0.0
 11
11050.0
 21
10890.0
 31
0.0
  0
LINE
  5
151
330
17
100
AcDbEntity
  8
A-FIXT
100
AcDbLine
 10
10900.0
 20
10850.0
 30
0.0
 11
11050.0
 21
10790.0
 31
0.0
  0
LINE
  5
152
330
17
100
AcDbEntity
  8
A-FIXT
100
AcDbLine
 10
10900.0
 20
10750.0
 30
0.0
 11
11050.0
 21
10690.0
 31
0.0
  0
LINE
  5
153
330
17
100
AcDbEntity
  8
A-FIXT
100
AcDbLine
 10
10900.0
 20
10650.0
 30
0.0
 11
11050.0
 21
10590.0
 31
0.0
  0
LINE
  5
154
330
17
100
AcDbEntity
  8
A-FIXT
100
AcDbLine
 10
10900.0
 20
10550.0
 30
0.0
 11
11050.0
 21
10490.0
 31
0.0
  0
LINE
  5
155
330
17
100
AcDbEntity
  8
A-FIXT
100
AcDbLine
 10
10900.0
 20
10450.0
 30
0.0
 11
11050.0
 21
10390.0
 31
0.0
  0
LINE
  5
156
330
17
100
AcDbEntity
  8
A-FIXT
100
AcDbLine
 10
10900.0
 20
10350.0
 30
0.0
 11
11050.0
 21
10290.0
 31
0.0
  0
LINE
  5
157
330
17
100
AcDbEntity
  8
A-FIXT
100
AcDbLine
 10
10900.0
 20
10250.0
 30
0.0
 11
11050.0
 21
10190.0
 31
0.0
  0
LINE
  5
158
330
17
100
AcDbEntity
  8
A-FIXT
100
AcDbLine
 10
10900.0
 20
10150.0
 30
0.0
 11
11050.0
 21
10090.0
 31
0.0
  0
LWPOLYLINE
  5
159
330
17
100
AcDbEntity
  8
A-FURN
100
AcDbPolyline
 90
4
 70
1
 10
5500.0
 20
8750.0
 10
6850.0
 20
8750.0
 10
6850.0
 20
7850.0
 10
5500.0
 20
7850.0
  0
LWPOLYLINE
  5
15A
330
17
100
AcDbEntity
  8
A-FURN
100
AcDbPolyline
 90
28
 70
1
 10
6000.0
 20
9230.0
 10
6023.293714059227
 20
9226.933324366015
 10
6045.0
 20
9217.9422863406
 10
6063.639610306789
 20
9203.63961030679
 10
6077.9422863406
 20
9185.0
 10
6086.933324366016
 20
9163.293714059226
 10
6090.0
 20
9140.0
 10
6090.0
 20
8840.0
 10
6086.933324366016
 20
8816.706285940774
 10
6077.9422863406
 20
8795.0
 10
6063.639610306789
 20
8776.36038969321
 10
6045.0
 20
8762.0577136594
 10
6023.293714059227
 20
8753.066675633985
 10
6000.0
 20
8750.0
 10
5700.0
 20
8750.0
 10
5676.706285940773
 20
8753.066675633985
 10
5655.0
 20
8762.0577136594
 10
5636.360389693211
 20
8776.36038969321
 10
5622.0577136594
 20
8795.0
 10
5613.066675633984
 20
8816.706285940774
 10
5610.0
 20
8840.0
 10
5610.0
 20
9140.0
 10
5613.066675633984
 20
9163.293714059226
 10
5622.0577136594
 20
9185.0
 10
5636.360389693211
 20
9203.63961030679
 10
5655.0
 20
9217.9422863406
 10
5676.706285940773
 20
9226.933324366015
 10
5700.0
 20
9230.0
  0
LINE
  5
15B
330
17
100
AcDbEntity
  8
A-FURN
100
AcDbLine
 10
5650.0
 20
9160.0
 30
0.0
 11
6050.0
 21
9160.0
 31
0.0
  0
LWPOLYLINE
  5
15C
330
17
100
AcDbEntity
  8
A-FURN
100
AcDbPolyline
 90
28
 70
1
 10
6000.0
 20
7850.0
 10
6023.293714059227
 20
7846.933324366016
 10
6045.0
 20
7837.9422863406
 10
6063.639610306789
 20
7823.639610306789
 10
6077.9422863406
 20
7805.0
 10
6086.933324366016
 20
7783.293714059227
 10
6090.0
 20
7760.0
 10
6090.0
 20
7460.0
 10
6086.933324366016
 20
7436.706285940773
 10
6077.9422863406
 20
7415.0
 10
6063.639610306789
 20
7396.360389693211
 10
6045.0
 20
7382.0577136594
 10
6023.293714059227
 20
7373.066675633984
 10
6000.0
 20
7370.0
 10
5700.0
 20
7370.0
 10
5676.706285940773
 20
7373.066675633984
 10
5655.0
 20
7382.0577136594
 10
5636.360389693211
 20
7396.360389693211
 10
5622.0577136594
 20
7415.0
 10
5613.066675633984
 20
7436.706285940773
 10
5610.0
 20
7460.0
 10
5610.0
 20
7760.0
 10
5613.066675633984
 20
7783.293714059227
 10
5622.0577136594
 20
7805.0
 10
5636.360389693211
 20
7823.639610306789
 10
5655.0
 20
7837.9422863406
 10
5676.706285940773
 20
7846.933324366016
 10
5700.0
 20
7850.0
  0
LINE
  5
15D
330
17
100
AcDbEntity
  8
A-FURN
100
AcDbLine
 10
5650.0
 20
7440.0
 30
0.0
 11
6050.0
 21
7440.0
 31
0.0
  0
LWPOLYLINE
  5
15E
330
17
100
AcDbEntity
  8
A-FURN
100
AcDbPolyline
 90
28
 70
1
 10
6650.0
 20
9230.0
 10
6673.293714059227
 20
9226.933324366015
 10
6695.0
 20
9217.9422863406
 10
6713.639610306789
 20
9203.63961030679
 10
6727.9422863406
 20
9185.0
 10
6736.933324366017
 20
9163.293714059226
 10
6740.0
 20
9140.0
 10
6740.0
 20
8840.0
 10
6736.933324366017
 20
8816.706285940774
 10
6727.9422863406
 20
8795.0
 10
6713.639610306789
 20
8776.36038969321
 10
6695.0
 20
8762.0577136594
 10
6673.293714059227
 20
8753.066675633985
 10
6650.0
 20
8750.0
 10
6350.0
 20
8750.0
 10
6326.706285940773
 20
8753.066675633985
 10
6305.0
 20
8762.0577136594
 10
6286.360389693211
 20
8776.36038969321
 10
6272.0577136594
 20
8795.0
 10
6263.066675633983
 20
8816.706285940774
 10
6260.0
 20
8840.0
 10
6260.0
 20
9140.0
 10
6263.066675633983
 20
9163.293714059226
 10
6272.0577136594
 20
9185.0
 10
6286.360389693211
 20
9203.63961030679
 10
6305.0
 20
9217.9422863406
 10
6326.706285940773
 20
9226.933324366015
 10
6350.0
 20
9230.0
  0
LINE
  5
15F
330
17
100
AcDbEntity
  8
A-FURN
100
AcDbLine
 10
6300.0
 20
9160.0
 30
0.0
 11
6700.0
 21
9160.0
 31
0.0
  0
LWPOLYLINE
  5
160
330
17
100
AcDbEntity
  8
A-FURN
100
AcDbPolyline
 90
28
 70
1
 10
6650.0
 20
7850.0
 10
6673.293714059227
 20
7846.933324366016
 10
6695.0
 20
7837.9422863406
 10
6713.639610306789
 20
7823.639610306789
 10
6727.9422863406
 20
7805.0
 10
6736.933324366017
 20
7783.293714059227
 10
6740.0
 20
7760.0
 10
6740.0
 20
7460.0
 10
6736.933324366017
 20
7436.706285940773
 10
6727.9422863406
 20
7415.0
 10
6713.639610306789
 20
7396.360389693211
 10
6695.0
 20
7382.0577136594
 10
6673.293714059227
 20
7373.066675633984
 10
6650.0
 20
7370.0
 10
6350.0
 20
7370.0
 10
6326.706285940773
 20
7373.066675633984
 10
6305.0
 20
7382.0577136594
 10
6286.360389693211
 20
7396.360389693211
 10
6272.0577136594
 20
7415.0
 10
6263.066675633983
 20
7436.706285940773
 10
6260.0
 20
7460.0
 10
6260.0
 20
7760.0
 10
6263.066675633983
 20
7783.293714059227
 10
6272.0577136594
 20
7805.0
 10
6286.360389693211
 20
7823.639610306789
 10
6305.0
 20
7837.9422863406
 10
6326.706285940773
 20
7846.933324366016
 10
6350.0
 20
7850.0
  0
LINE
  5
161
330
17
100
AcDbEntity
  8
A-FURN
100
AcDbLine
 10
6300.0
 20
7440.0
 30
0.0
 11
6700.0
 21
7440.0
 31
0.0
  0
LWPOLYLINE
  5
162
330
17
100
AcDbEntity
  8
A-FURN
100
AcDbPolyline
 90
28
 70
1
 10
5880.0
 20
6850.0
 10
5911.058285412302
 20
6845.911099154689
 10
5940.0
 20
6833.923048454132
 10
5964.8528137423855
 20
6814.8528137423855
 10
5983.923048454133
 20
6790.0
 10
5995.911099154688
 20
6761.058285412302
 10
6000.0
 20
6730.0
 10
6000.0
 20
5120.0
 10
5995.911099154688
 20
5088.941714587698
 10
5983.923048454133
 20
5060.0
 10
5964.8528137423855
 20
5035.1471862576145
 10
5940.0
 20
5016.076951545867
 10
5911.058285412302
 20
5004.088900845312
 10
5880.0
 20
5000.0
 10
5220.0
 20
5000.0
 10
5188.941714587698
 20
5004.088900845312
 10
5160.0
 20
5016.076951545867
 10
5135.1471862576145
 20
5035.1471862576145
 10
5116.076951545867
 20
5060.0
 10
5104.088900845311
 20
5088.941714587698
 10
5100.0
 20
5120.0
 10
5100.0
 20
6730.0
 10
5104.088900845311
 20
6761.058285412302
 10
5116.076951545868
 20
6790.0
 10
5135.1471862576145
 20
6814.8528137423855
 10
5160.0
 20
6833.923048454132
 10
5188.941714587698
 20
6845.911099154689
 10
5220.0
 20
6850.0
  0
LINE
  5
163
330
17
100
AcDbEntity
  8
A-FURN
100
AcDbLine
 10
5300.0
 20
6750.0
 30
0.0
 11
5300.0
 21
5100.0
 31
0.0
  0
LINE
  5
164
330
17
100
AcDbEntity
  8
A-FURN
100
AcDbLine
 10
5100.0
 20
6650.0
 30
0.0
 11
6000.0
 21
6650.0
 31
0.0
  0
LINE
  5
165
330
17
100
AcDbEntity
  8
A-FURN
100
AcDbLine
 10
5100.0
 20
5200.0
 30
0.0
 11
6000.0
 21
5200.0
 31
0.0
  0
LWPOLYLINE
  5
166
330
17
100
AcDbEntity
  8
A-FURN
100
AcDbPolyline
 90
28
 70
1
 10
6840.0
 20
6250.0
 10
6855.529142706151
 20
6247.955549577344
 10
6870.0
 20
6241.961524227067
 10
6882.426406871193
 20
6232.426406871193
 10
6891.961524227067
 20
6220.0
 10
6897.955549577344
 20
6205.529142706151
 10
6900.0
 20
6190.0
 10
6900.0
 20
5610.0
 10
6897.955549577344
 20
5594.470857293849
 10
6891.961524227067
 20
5580.0
 10
6882.426406871193
 20
5567.573593128807
 10
6870.0
 20
5558.038475772933
 10
6855.529142706151
 20
5552.044450422656
 10
6840.0
 20
5550.0
 10
6360.0
 20
5550.0
 10
6344.470857293849
 20
5552.044450422656
 10
6330.0
 20
5558.038475772933
 10
6317.573593128807
 20
5567.573593128807
 10
6308.038475772933
 20
5580.0
 10
6302.044450422656
 20
5594.470857293849
 10
6300.0
 20
5610.0
 10
6300.0
 20
6190.0
 10
6302.044450422656
 20
6205.529142706151
 10
6308.038475772933
 20
6220.0
 10
6317.573593128807
 20
6232.426406871193
 10
6330.0
 20
6241.961524227067
 10
6344.470857293849
 20
6247.955549577344
 10
6360.0
 20
6250.0
  0
LWPOLYLINE
  5
167
330
17
100
AcDbEntity
  8
A-FURN
100
AcDbPolyline
 90
4
 70
1
 10
7600.0
 20
6050.0
 10
8000.0
 20
6050.0
 10
8000.0
 20
4950.0
 10
7600.0
 20
4950.0
  0
LINE
  5
168
330
17
100
AcDbEntity
  8
A-FIXT
100
AcDbLine
 10
7950.0
 20
5950.0
 30
0.0
 11
7950.0
 21
5050.0
 31
0.0
  0
LWPOLYLINE
  5
169
330
17
100
AcDbEntity
  8
A-FURN
100
AcDbPolyline
 90
28
 70
1
 10
10290.0
 20
4925.0
 10
10305.529142706151
 20
4922.955549577344
 10
10320.0
 20
4916.961524227067
 10
10332.426406871193
 20
4907.426406871193
 10
10341.961524227067
 20
4895.0
 10
10347.955549577344
 20
4880.529142706151
 10
10350.0
 20
4865.0
 10
10350.0
 20
2985.0
 10
10347.955549577344
 20
2969.470857293849
 10
10341.961524227067
 20
2955.0
 10
10332.426406871193
 20
2942.5735931288073
 10
10320.0
 20
2933.0384757729335
 10
10305.529142706151
 20
2927.044450422656
 10
10290.0
 20
2925.0
 10
8260.0
 20
2925.0
 10
8244.470857293849
 20
2927.044450422656
 10
8230.0
 20
2933.0384757729335
 10
8217.573593128807
 20
2942.5735931288073
 10
8208.038475772933
 20
2955.0
 10
8202.044450422656
 20
2969.470857293849
 10
8200.0
 20
2985.0
 10
8200.0
 20
4865.0
 10
8202.044450422656
 20
4880.529142706151
 10
8208.038475772933
 20
4895.0
 10
8217.573593128807
 20
4907.426406871193
 10
8230.0
 20
4916.961524227067
 10
8244.470857293849
 20
4922.955549577344
 10
8260.0
 20
4925.0
  0
LINE
  5
16A
330
17
100
AcDbEntity
  8
A-FURN
100
AcDbLine
 10
8280.0
 20
4925.0
 30
0.0
 11
8280.0
 21
2925.0
 31
0.0
  0
LWPOLYLINE
  5
16B
330
17
100
AcDbEntity
  8
A-FURN
100
AcDbPolyline
 90
28
 70
1
 10
8670.0
 20
4765.0
 10
8685.529142706151
 20
4762.955549577344
 10
8700.0
 20
4756.961524227067
 10
8712.426406871193
 20
4747.426406871193
 10
8721.961524227067
 20
4735.0
 10
8727.955549577344
 20
4720.529142706151
 10
8730.0
 20
4705.0
 10
8730.0
 20
4065.0
 10
8727.955549577344
 20
4049.470857293849
 10
8721.961524227067
 20
4035.0
 10
8712.426406871193
 20
4022.5735931288073
 10
8700.0
 20
4013.0384757729335
 10
8685.529142706151
 20
4007.044450422656
 10
8670.0
 20
4005.0
 10
8390.0
 20
4005.0
 10
8374.470857293849
 20
4007.044450422656
 10
8360.0
 20
4013.0384757729335
 10
8347.573593128807
 20
4022.5735931288073
 10
8338.038475772933
 20
4035.0
 10
8332.044450422656
 20
4049.470857293849
 10
8330.0
 20
4065.0
 10
8330.0
 20
4705.0
 10
8332.044450422656
 20
4720.529142706151
 10
8338.038475772933
 20
4735.0
 10
8347.573593128807
 20
4747.426406871193
 10
8360.0
 20
4756.961524227067
 10
8374.470857293849
 20
4762.955549577344
 10
8390.0
 20
4765.0
  0
LWPOLYLINE
  5
16C
330
17
100
AcDbEntity
  8
A-FURN
100
AcDbPolyline
 90
28
 70
1
 10
8670.0
 20
3845.0
 10
8685.529142706151
 20
3842.955549577344
 10
8700.0
 20
3836.9615242270665
 10
8712.426406871193
 20
3827.4264068711927
 10
8721.961524227067
 20
3815.0
 10
8727.955549577344
 20
3800.529142706151
 10
8730.0
 20
3785.0
 10
8730.0
 20
3145.0
 10
8727.955549577344
 20
3129.470857293849
 10
8721.961524227067
 20
3115.0
 10
8712.426406871193
 20
3102.5735931288073
 10
8700.0
 20
3093.0384757729335
 10
8685.529142706151
 20
3087.044450422656
 10
8670.0
 20
3085.0
 10
8390.0
 20
3085.0
 10
8374.470857293849
 20
3087.044450422656
 10
8360.0
 20
3093.0384757729335
 10
8347.573593128807
 20
3102.5735931288073
 10
8338.038475772933
 20
3115.0
 10
8332.044450422656
 20
3129.470857293849
 10
8330.0
 20
3145.0
 10
8330.0
 20
3785.0
 10
8332.044450422656
 20
3800.529142706151
 10
8338.038475772933
 20
3815.0
 10
8347.573593128807
 20
3827.4264068711927
 10
8360.0
 20
3836.9615242270665
 10
8374.470857293849
 20
3842.955549577344
 10
8390.0
 20
3845.0
  0
LINE
  5
16D
330
17
100
AcDbEntity
  8
A-FURN
100
AcDbLine
 10
8850.0
 20
4925.0
 30
0.0
 11
8850.0
 21
2925.0
 31
0.0
  0
LWPOLYLINE
  5
16E
330
17
100
AcDbEntity
  8
A-FURN
100
AcDbPolyline
 90
3
 70
1
 10
8850.0
 20
2925.0
 10
9230.0
 20
2925.0
 10
8850.0
 20
3305.0
  0
LWPOLYLINE
  5
16F
330
17
100
AcDbEntity
  8
A-FURN
100
AcDbPolyline
 90
4
 70
1
 10
8200.0
 20
5375.0
 10
8650.0
 20
5375.0
 10
8650.0
 20
4975.0
 10
8200.0
 20
4975.0
  0
CIRCLE
  5
170
330
17
100
AcDbEntity
  8
A-FURN
100
AcDbCircle
 10
8425.0
 20
5175.0
 30
0.0
 40
120.0
  0
LWPOLYLINE
  5
171
330
17
100
AcDbEntity
  8
A-FURN
100
AcDbPolyline
 90
4
 70
1
 10
8200.0
 20
2875.0
 10
8650.0
 20
2875.0
 10
8650.0
 20
2475.0
 10
8200.0
 20
2475.0
  0
CIRCLE
  5
172
330
17
100
AcDbEntity
  8
A-FURN
100
AcDbCircle
 10
8425.0
 20
2675.0
 30
0.0
 40
120.0
  0
LWPOLYLINE
  5
173
330
17
100
AcDbEntity
  8
A-FURN
100
AcDbPolyline
 90
28
 70
1
 10
11050.0
 20
6850.0
 10
11088.822856765379
 20
6844.8888739433605
 10
11125.0
 20
6829.9038105676655
 10
11156.066017177982
 20
6806.066017177982
 10
11179.903810567666
 20
6775.0
 10
11194.88887394336
 20
6738.822856765378
 10
11200.0
 20
6700.0
 10
11200.0
 20
6250.0
 10
11194.88887394336
 20
6211.177143234622
 10
11179.903810567666
 20
6175.0
 10
11156.066017177982
 20
6143.933982822018
 10
11125.0
 20
6120.0961894323345
 10
11088.822856765379
 20
6105.1111260566395
 10
11050.0
 20
6100.0
 10
10600.0
 20
6100.0
 10
10561.177143234621
 20
6105.1111260566395
 10
10525.0
 20
6120.0961894323345
 10
10493.933982822018
 20
6143.933982822018
 10
10470.096189432334
 20
6175.0
 10
10455.11112605664
 20
6211.177143234622
 10
10450.0
 20
6250.0
 10
10450.0
 20
6700.0
 10
10455.11112605664
 20
6738.822856765378
 10
10470.096189432334
 20
6775.0
 10
10493.933982822018
 20
6806.066017177982
 10
10525.0
 20
6829.9038105676655
 10
10561.177143234621
 20
6844.8888739433605
 10
10600.0
 20
6850.0
  0
LWPOLYLINE
  5
174
330
17
100
AcDbEntity
  8
A-FURN
100
AcDbPolyline
 90
4
 70
1
 10
10850.0
 20
5150.0
 10
11350.0
 20
5150.0
 10
11350.0
 20
3150.0
 10
10850.0
 20
3150.0
  0
LWPOLYLINE
  5
175
330
17
100
AcDbEntity
  8
A-FIXT
100
AcDbPolyline
 90
4
 70
1
 10
8200.0
 20
9050.0
 10
8400.0
 20
9050.0
 10
8400.0
 20
8250.0
 10
8200.0
 20
8250.0
  0
LWPOLYLINE
  5
176
330
17
100
AcDbEntity
  8
A-FIXT
100
AcDbPolyline
 90
48
 70
1
 10
8900.0
 20
8450.0
 10
8897.861215343451
 20
8427.810547322591
 10
8891.481456572266
 20
8406.000762332573
 10
8880.969883127822
 20
8384.943816497935
 10
8866.50635094611
 20
8365.0
 10
8848.338335072809
 20
8346.510557068517
 10
8826.776695296638
 20
8329.791847198287
 10
8802.19035725218
 20
8315.12993215049
 10
8775.0
 20
8302.775681356645
 10
8745.670858091273
 20
8292.940479473082
 10
8714.70476127563
 20
8285.792609530858
 10
8682.631548055013
 20
8281.454373566452
 10
8650.0
 20
8280.0
 10
8617.368451944987
 20
8281.454373566452
 10
8585.29523872437
 20
8285.792609530858
 10
8554.329141908727
 20
8292.94047947308
 10
8525.0
 20
8302.775681356645
 10
8497.80964274782
 20
8315.12993215049
 10
8473.223304703362
 20
8329.791847198287
 10
8451.661664927191
 20
8346.510557068517
 10
8433.49364905389
 20
8365.0
 10
8419.030116872178
 20
8384.943816497935
 10
8408.518543427734
 20
8406.000762332573
 10
8402.138784656549
 20
8427.810547322591
 10
8400.0
 20
8450.0
 10
8402.138784656549
 20
8472.189452677409
 10
8408.518543427734
 20
8493.999237667427
 10
8419.030116872178
 20
8515.056183502065
 10
8433.49364905389
 20
8535.0
 10
8451.661664927191
 20
8553.489442931483
 10
8473.223304703362
 20
8570.208152801713
 10
8497.80964274782
 20
8584.87006784951
 10
8525.0
 20
8597.224318643355
 10
8554.329141908727
 20
8607.05952052692
 10
8585.29523872437
 20
8614.207390469142
 10
8617.368451944987
 20
8618.545626433548
 10
8650.0
 20
8620.0
 10
8682.631548055013
 20
8618.545626433548
 10
8714.70476127563
 20
8614.207390469142
 10
8745.670858091273
 20
8607.05952052692
 10
8775.0
 20
8597.224318643355
 10
8802.19035725218
 20
8584.87006784951
 10
8826.776695296638
 20
8570.208152801713
 10
8848.338335072809
 20
8553.489442931483
 10
8866.50635094611
 20
8535.0
 10
8880.969883127822
 20
8515.056183502065
 10
8891.481456572266
 20
8493.999237667429
 10
8897.861215343451
 20
8472.189452677409
  0
LWPOLYLINE
  5
177
330
17
100
AcDbEntity
  8
A-FIXT
100
AcDbPolyline
 90
4
 70
1
 10
8400.0
 20
9050.0
 10
8900.0
 20
9050.0
 10
8900.0
 20
8650.0
 10
8400.0
 20
8650.0
  0
LWPOLYLINE
  5
178
330
17
100
AcDbEntity
  8
A-FIXT
100
AcDbPolyline
 90
48
 70
1
 10
8820.0
 20
8820.0
 10
8818.545626433548
 20
8805.642118855794
 10
8814.207390469142
 20
8791.529905038722
 10
8807.059520526918
 20
8777.90482243984
 10
8797.224318643355
 20
8765.0
 10
8784.87006784951
 20
8753.036242809041
 10
8770.208152801713
 20
8742.21825406948
 10
8753.489442931483
 20
8732.731132567964
 10
8735.0
 20
8724.737205583711
 10
8715.056183502065
 20
8718.373251423758
 10
8693.999237667429
 20
8713.748159108203
 10
8672.189452677409
 20
8710.94106524888
 10
8650.0
 20
8710.0
 10
8627.810547322591
 20
8710.94106524888
 10
8606.000762332571
 20
8713.748159108203
 10
8584.943816497935
 20
8718.373251423758
 10
8565.0
 20
8724.737205583711
 10
8546.510557068517
 20
8732.731132567964
 10
8529.791847198287
 20
8742.21825406948
 10
8515.12993215049
 20
8753.036242809041
 10
8502.775681356645
 20
8765.0
 10
8492.940479473082
 20
8777.90482243984
 10
8485.792609530858
 20
8791.529905038722
 10
8481.454373566452
 20
8805.642118855794
 10
8480.0
 20
8820.0
 10
8481.454373566452
 20
8834.357881144206
 10
8485.792609530858
 20
8848.470094961278
 10
8492.940479473082
 20
8862.09517756016
 10
8502.775681356645
 20
8875.0
 10
8515.12993215049
 20
8886.963757190959
 10
8529.791847198287
 20
8897.78174593052
 10
8546.510557068517
 20
8907.268867432036
 10
8565.0
 20
8915.262794416289
 10
8584.943816497935
 20
8921.626748576242
 10
8606.000762332571
 20
8926.251840891797
 10
8627.810547322591
 20
8929.05893475112
 10
8650.0
 20
8930.0
 10
8672.189452677409
 20
8929.05893475112
 10
8693.999237667429
 20
8926.251840891797
 10
8715.056183502065
 20
8921.626748576242
 10
8735.0
 20
8915.262794416289
 10
8753.489442931483
 20
8907.268867432036
 10
8770.208152801713
 20
8897.78174593052
 10
8784.87006784951
 20
8886.963757190959
 10
8797.224318643355
 20
8875.0
 10
8807.059520526918
 20
8862.09517756016
 10
8814.207390469142
 20
8848.470094961278
 10
8818.545626433548
 20
8834.357881144206
  0
LWPOLYLINE
  5
179
330
17
100
AcDbEntity
  8
A-GLAZ
100
AcDbPolyline
 90
4
 70
1
 10
9000.0
 20
9050.0
 10
9700.0
 20
9050.0
 10
9700.0
 20
8300.0
 10
9000.0
 20
8300.0
  0
LINE
  5
17A
330
17
100
AcDbEntity
  8
A-FIXT
100
AcDbLine
 10
9000.0
 20
8300.0
 30
0.0
 11
9700.0
 21
9050.0
 31
0.0
  0
LWPOLYLINE
  5
17B
330
17
100
AcDbEntity
  8
A-FURN
100
AcDbPolyline
 90
4
 70
1
 10
9800.0
 20
9050.0
 10
11350.0
 20
9050.0
 10
11350.0
 20
8550.0
 10
9800.0
 20
8550.0
  0
LWPOLYLINE
  5
17C
330
17
100
AcDbEntity
  8
A-FURN
100
AcDbPolyline
 90
4
 70
1
 10
9800.0
 20
8550.0
 10
10100.0
 20
8550.0
 10
10100.0
 20
7900.0
 10
9800.0
 20
7900.0
  0
LINE
  5
17D
330
17
100
AcDbEntity
  8
A-FURN
100
AcDbLine
 10
9850.0
 20
8800.0
 30
0.0
 11
11300.0
 21
8800.0
 31
0.0
  0
LWPOLYLINE
  5
17E
330
17
100
AcDbEntity
  8
A-FIXT
100
AcDbPolyline
 90
4
 70
1
 10
5500.0
 20
4750.0
 10
7600.0
 20
4750.0
 10
7600.0
 20
4690.0
 10
5500.0
 20
4690.0
  0
LWPOLYLINE
  5
17F
330
17
100
AcDbEntity
  8
A-FIXT
100
AcDbPolyline
 90
4
 70
1
 10
5230.0
 20
4710.0
 10
5470.0
 20
4710.0
 10
5470.0
 20
4470.0
 10
5230.0
 20
4470.0
  0
LWPOLYLINE
  5
180
330
17
100
AcDbEntity
  8
A-FIXT
100
AcDbPolyline
 90
4
 70
1
 10
7630.0
 20
4710.0
 10
7870.0
 20
4710.0
 10
7870.0
 20
4470.0
 10
7630.0
 20
4470.0
  0
LWPOLYLINE
  5
181
330
17
100
AcDbEntity
  8
A-FURN
100
AcDbPolyline
 90
28
 70
1
 10
6080.0
 20
2850.0
 10
6105.881904510252
 20
2846.5925826289076
 10
6130.0
 20
2836.6025403784442
 10
6150.710678118655
 20
2820.710678118654
 10
6166.602540378444
 20
2800.0
 10
6176.592582628907
 20
2775.881904510252
 10
6180.0
 20
2750.0
 10
6180.0
 20
2050.0
 10
6176.592582628907
 20
2024.1180954897482
 10
6166.602540378444
 20
2000.0
 10
6150.710678118655
 20
1979.289321881346
 10
6130.0
 20
1963.3974596215558
 10
6105.881904510252
 20
1953.4074173710924
 10
6080.0
 20
1950.0
 10
5620.0
 20
1950.0
 10
5594.118095489748
 20
1953.4074173710924
 10
5570.0
 20
1963.3974596215558
 10
5549.289321881345
 20
1979.289321881346
 10
5533.397459621556
 20
2000.0
 10
5523.407417371093
 20
2024.1180954897482
 10
5520.0
 20
2050.0
 10
5520.0
 20
2750.0
 10
5523.407417371093
 20
2775.881904510252
 10
5533.397459621556
 20
2800.0
 10
5549.289321881345
 20
2820.710678118654
 10
5570.0
 20
2836.6025403784442
 10
5594.118095489748
 20
2846.5925826289076
 10
5620.0
 20
2850.0
  0
LINE
  5
182
330
17
100
AcDbEntity
  8
A-FURN
100
AcDbLine
 10
5520.0
 20
2150.0
 30
0.0
 11
6180.0
 21
2150.0
 31
0.0
  0
LWPOLYLINE
  5
183
330
17
100
AcDbEntity
  8
A-FURN
100
AcDbPolyline
 90
28
 70
1
 10
6780.0
 20
2850.0
 10
6805.881904510252
 20
2846.5925826289076
 10
6830.0
 20
2836.6025403784442
 10
6850.710678118655
 20
2820.710678118654
 10
6866.602540378444
 20
2800.0
 10
6876.592582628907
 20
2775.881904510252
 10
6880.0
 20
2750.0
 10
6880.0
 20
2050.0
 10
6876.592582628907
 20
2024.1180954897482
 10
6866.602540378444
 20
2000.0
 10
6850.710678118655
 20
1979.289321881346
 10
6830.0
 20
1963.3974596215558
 10
6805.881904510252
 20
1953.4074173710924
 10
6780.0
 20
1950.0
 10
6320.0
 20
1950.0
 10
6294.118095489748
 20
1953.4074173710924
 10
6270.0
 20
1963.3974596215558
 10
6249.289321881345
 20
1979.289321881346
 10
6233.397459621556
 20
2000.0
 10
6223.407417371093
 20
2024.1180954897482
 10
6220.0
 20
2050.0
 10
6220.0
 20
2750.0
 10
6223.407417371093
 20
2775.881904510252
 10
6233.397459621556
 20
2800.0
 10
6249.289321881345
 20
2820.710678118654
 10
6270.0
 20
2836.6025403784442
 10
6294.118095489748
 20
2846.5925826289076
 10
6320.0
 20
2850.0
  0
LINE
  5
184
330
17
100
AcDbEntity
  8
A-FURN
100
AcDbLine
 10
6220.0
 20
2150.0
 30
0.0
 11
6880.0
 21
2150.0
 31
0.0
  0
LWPOLYLINE
  5
185
330
17
100
AcDbEntity
  8
A-FURN
100
AcDbPolyline
 90
28
 70
1
 10
7480.0
 20
2850.0
 10
7505.881904510252
 20
2846.5925826289076
 10
7530.0
 20
2836.6025403784442
 10
7550.710678118655
 20
2820.710678118654
 10
7566.602540378444
 20
2800.0
 10
7576.592582628907
 20
2775.881904510252
 10
7580.0
 20
2750.0
 10
7580.0
 20
2050.0
 10
7576.592582628907
 20
2024.1180954897482
 10
7566.602540378444
 20
2000.0
 10
7550.710678118655
 20
1979.289321881346
 10
7530.0
 20
1963.3974596215558
 10
7505.881904510252
 20
1953.4074173710924
 10
7480.0
 20
1950.0
 10
7020.0
 20
1950.0
 10
6994.118095489748
 20
1953.4074173710924
 10
6970.0
 20
1963.3974596215558
 10
6949.289321881345
 20
1979.289321881346
 10
6933.397459621556
 20
2000.0
 10
6923.407417371093
 20
2024.1180954897482
 10
6920.0
 20
2050.0
 10
6920.0
 20
2750.0
 10
6923.407417371093
 20
2775.881904510252
 10
6933.397459621556
 20
2800.0
 10
6949.289321881345
 20
2820.710678118654
 10
6970.0
 20
2836.6025403784442
 10
6994.118095489748
 20
2846.5925826289076
 10
7020.0
 20
2850.0
  0
LINE
  5
186
330
17
100
AcDbEntity
  8
A-FURN
100
AcDbLine
 10
6920.0
 20
2150.0
 30
0.0
 11
7580.0
 21
2150.0
 31
0.0
  0
LWPOLYLINE
  5
187
330
17
100
AcDbEntity
  8
A-FIXT
100
AcDbPolyline
 90
4
 70
1
 10
6400.0
 20
1750.0
 10
6700.0
 20
1750.0
 10
6700.0
 20
1550.0
 10
6400.0
 20
1550.0
  0
LWPOLYLINE
  5
188
330
17
100
AcDbEntity
  8
A-FURN
100
AcDbPolyline
 90
4
 70
1
 10
5400.0
 20
850.0
 10
7000.0
 20
850.0
 10
7000.0
 20
200.0
 10
5400.0
 20
200.0
  0
LINE
  5
189
330
17
100
AcDbEntity
  8
A-FIXT
100
AcDbLine
 10
5600.0
 20
330.0
 30
0.0
 11
6100.0
 21
330.0
 31
0.0
  0
LINE
  5
18A
330
17
100
AcDbEntity
  8
A-FIXT
100
AcDbLine
 10
6250.0
 20
330.0
 30
0.0
 11
6750.0
 21
330.0
 31
0.0
  0
LWPOLYLINE
  5
18B
330
17
100
AcDbEntity
  8
A-FURN
100
AcDbPolyline
 90
4
 70
1
 10
6440.0
 20
1460.0
 10
6440.0
 20
940.0
 10
5960.0
 20
940.0
 10
5960.0
 20
1460.0
  0
LWPOLYLINE
  5
18C
330
17
100
AcDbEntity
  8
A-FURN
100
AcDbPolyline
 90
4
 70
1
 10
6440.0
 20
1485.0
 10
6440.0
 20
1395.0
 10
5960.0
 20
1395.0
 10
5960.0
 20
1485.0
  0
LWPOLYLINE
  5
18D
330
17
100
AcDbEntity
  8
A-FURN
100
AcDbPolyline
 90
4
 70
1
 10
8200.0
 20
1650.0
 10
8550.0
 20
1650.0
 10
8550.0
 20
200.0
 10
8200.0
 20
200.0
  0
LINE
  5
18E
330
17
100
AcDbEntity
  8
A-FURN
100
AcDbLine
 10
8200.0
 20
1650.0
 30
0.0
 11
8550.0
 21
1650.0
 31
0.0
  0
LINE
  5
18F
330
17
100
AcDbEntity
  8
A-FURN
100
AcDbLine
 10
8200.0
 20
1400.0
 30
0.0
 11
8550.0
 21
1400.0
 31
0.0
  0
LINE
  5
190
330
17
100
AcDbEntity
  8
A-FURN
100
AcDbLine
 10
8200.0
 20
1150.0
 30
0.0
 11
8550.0
 21
1150.0
 31
0.0
  0
LINE
  5
191
330
17
100
AcDbEntity
  8
A-FURN
100
AcDbLine
 10
8200.0
 20
900.0
 30
0.0
 11
8550.0
 21
900.0
 31
0.0
  0
LINE
  5
192
330
17
100
AcDbEntity
  8
A-FURN
100
AcDbLine
 10
8200.0
 20
650.0
 30
0.0
 11
8550.0
 21
650.0
 31
0.0
  0
LINE
  5
193
330
17
100
AcDbEntity
  8
A-FURN
100
AcDbLine
 10
8200.0
 20
400.0
 30
0.0
 11
8550.0
 21
400.0
 31
0.0
  0
CIRCLE
  5
194
330
17
100
AcDbEntity
  8
A-FURN
100
AcDbCircle
 10
10900.0
 20
650.0
 30
0.0
 40
330.0
  0
LWPOLYLINE
  5
195
330
17
100
AcDbEntity
  8
A-FURN
100
AcDbPolyline
 90
4
 70
1
 10
9750.0
 20
800.0
 10
10450.0
 20
800.0
 10
10450.0
 20
250.0
 10
9750.0
 20
250.0
  0
TEXT
  5
196
330
17
100
AcDbEntity
  8
A-TEXT
100
AcDbText
 10
2650.0
 20
13310.0
 30
0.0
 40
150.0
  1
1  Прихожая
  7
PLAN-ITALIC
 72
1
 11
2650.0
 21
13310.0
 31
0.0
100
AcDbText
 73
2
  0
TEXT
  5
197
330
17
100
AcDbEntity
  8
A-TEXT
100
AcDbText
 10
2650.0
 20
12990.0
 30
0.0
 40
150.0
  1
5.8 м²
  7
PLAN-REGULAR
 72
1
 11
2650.0
 21
12990.0
 31
0.0
100
AcDbText
 73
2
  0
TEXT
  5
198
330
17
100
AcDbEntity
  8
A-TEXT
100
AcDbText
 10
6350.0
 20
9849.333333333332
 30
0.0
 40
140.0
  1
2  Студия
  7
PLAN-ITALIC
 72
1
 11
6350.0
 21
9849.333333333332
 31
0.0
100
AcDbText
 73
2
  0
TEXT
  5
199
330
17
100
AcDbEntity
  8
A-TEXT
100
AcDbText
 10
6350.0
 20
9550.666666666668
 30
0.0
 40
140.0
  1
21.8 м²
  7
PLAN-REGULAR
 72
1
 11
6350.0
 21
9550.666666666668
 31
0.0
100
AcDbText
 73
2
  0
TEXT
  5
19A
330
17
100
AcDbEntity
  8
A-TEXT
100
AcDbText
 10
3850.0
 20
10738.666666666666
 30
0.0
 40
130.0
  1
3  С/У
  7
PLAN-ITALIC
 72
1
 11
3850.0
 21
10738.666666666666
 31
0.0
100
AcDbText
 73
2
  0
TEXT
  5
19B
330
17
100
AcDbEntity
  8
A-TEXT
100
AcDbText
 10
3850.0
 20
10461.333333333334
 30
0.0
 40
130.0
  1
4.0 м²
  7
PLAN-REGULAR
 72
1
 11
3850.0
 21
10461.333333333334
 31
0.0
100
AcDbText
 73
2
  0
TEXT
  5
19C
330
17
100
AcDbEntity
  8
A-TEXT
100
AcDbText
 10
9650.0
 20
12238.666666666666
 30
0.0
 40
130.0
  1
4  Детская для двоих
  7
PLAN-ITALIC
 72
1
 11
9650.0
 21
12238.666666666666
 31
0.0
100
AcDbText
 73
2
  0
TEXT
  5
19D
330
17
100
AcDbEntity
  8
A-TEXT
100
AcDbText
 10
9650.0
 20
11961.333333333334
 30
0.0
 40
130.0
  1
14.3 м²
  7
PLAN-REGULAR
 72
1
 11
9650.0
 21
11961.333333333334
 31
0.0
100
AcDbText
 73
2
  0
TEXT
  5
19E
330
17
100
AcDbEntity
  8
A-TEXT
100
AcDbText
 10
10100.0
 20
9792.666666666668
 30
0.0
 40
114.99999999999999
  1
5  Кухня (открытая)
  7
PLAN-ITALIC
 72
1
 11
10100.0
 21
9792.666666666668
 31
0.0
100
AcDbText
 73
2
  0
TEXT
  5
19F
330
17
100
AcDbEntity
  8
A-TEXT
100
AcDbText
 10
10100.0
 20
9547.333333333332
 30
0.0
 40
114.99999999999999
  1
6.0 м²
  7
PLAN-REGULAR
 72
1
 11
10100.0
 21
9547.333333333332
 31
0.0
100
AcDbText
 73
2
  0
TEXT
  5
1A0
330
17
100
AcDbEntity
  8
A-TEXT
100
AcDbText
 10
6550.0
 20
3788.666666666666
 30
0.0
 40
130.0
  1
6  ПК и кинотеатр
  7
PLAN-ITALIC
 72
1
 11
6550.0
 21
3788.666666666666
 31
0.0
100
AcDbText
 73
2
  0
TEXT
  5
1A1
330
17
100
AcDbEntity
  8
A-TEXT
100
AcDbText
 10
6550.0
 20
3511.333333333334
 30
0.0
 40
130.0
  1
13.0 м²
  7
PLAN-REGULAR
 72
1
 11
6550.0
 21
3511.333333333334
 31
0.0
100
AcDbText
 73
2
  0
TEXT
  5
1A2
330
17
100
AcDbEntity
  8
A-TEXT
100
AcDbText
 10
9850.0
 20
5938.666666666666
 30
0.0
 40
130.0
  1
7  Мастер-спальня
  7
PLAN-ITALIC
 72
1
 11
9850.0
 21
5938.666666666666
 31
0.0
100
AcDbText
 73
2
  0
TEXT
  5
1A3
330
17
100
AcDbEntity
  8
A-TEXT
100
AcDbText
 10
9850.0
 20
5661.333333333334
 30
0.0
 40
130.0
  1
18.1 м²
  7
PLAN-REGULAR
 72
1
 11
9850.0
 21
5661.333333333334
 31
0.0
100
AcDbText
 73
2
  0
TEXT
  5
1A4
330
17
100
AcDbEntity
  8
A-TEXT
100
AcDbText
 10
8800.0
 20
8150.0
 30
0.0
 40
80.0
  1
7.1 Санузел 1.7 м²
  7
PLAN-ITALIC
 72
1
 11
8800.0
 21
8150.0
 31
0.0
100
AcDbText
 73
2
  0
TEXT
  5
1A5
330
17
100
AcDbEntity
  8
A-TEXT
100
AcDbText
 10
10480.0
 20
8365.333333333332
 30
0.0
 40
80.0
  1
7.2  Гардероб
  7
PLAN-ITALIC
 72
1
 11
10480.0
 21
8365.333333333332
 31
0.0
100
AcDbText
 73
2
  0
TEXT
  5
1A6
330
17
100
AcDbEntity
  8
A-TEXT
100
AcDbText
 10
10480.0
 20
8194.666666666668
 30
0.0
 40
80.0
  1
1.6 м²
  7
PLAN-REGULAR
 72
1
 11
10480.0
 21
8194.666666666668
 31
0.0
100
AcDbText
 73
2
  0
TEXT
  5
1A7
330
17
100
AcDbEntity
  8
A-TEXT
100
AcDbText
 10
10150.0
 20
1460.0
 30
0.0
 40
150.0
  1
8  Лоджия
  7
PLAN-ITALIC
 72
1
 11
10150.0
 21
1460.0
 31
0.0
100
AcDbText
 73
2
  0
TEXT
  5
1A8
330
17
100
AcDbEntity
  8
A-TEXT
100
AcDbText
 10
10150.0
 20
1140.0
 30
0.0
 40
150.0
  1
5.1 м²
  7
PLAN-REGULAR
 72
1
 11
10150.0
 21
1140.0
 31
0.0
100
AcDbText
 73
2
  0
TEXT
  5
1A9
330
17
100
AcDbEntity
  8
A-TEXT
100
AcDbText
 10
7500.0
 20
8550.0
 30
0.0
 40
80.0
  1
обеденная
  7
PLAN-ITALIC
 72
1
 11
7500.0
 21
8550.0
 31
0.0
100
AcDbText
 73
2
  0
TEXT
  5
1AA
330
17
100
AcDbEntity
  8
A-TEXT
100
AcDbText
 10
7500.0
 20
8400.0
 30
0.0
 40
80.0
  1
зона
  7
PLAN-ITALIC
 72
1
 11
7500.0
 21
8400.0
 31
0.0
100
AcDbText
 73
2
  0
TEXT
  5
1AB
330
17
100
AcDbEntity
  8
A-TEXT
100
AcDbText
 10
6550.0
 20
5100.0
 30
0.0
 40
90.0
  1
мягкая зона
  7
PLAN-ITALIC
 72
1
 11
6550.0
 21
5100.0
 31
0.0
100
AcDbText
 73
2
  0
TEXT
  5
1AC
330
17
100
AcDbEntity
  8
A-TEXT
100
AcDbText
 10
6550.0
 20
4570.0
 30
0.0
 40
80.0
  1
экран / screen
  7
PLAN-ITALIC
 72
1
 11
6550.0
 21
4570.0
 31
0.0
100
AcDbText
 73
2
  0
TEXT
  5
1AD
330
17
100
AcDbEntity
  8
A-TEXT
100
AcDbText
 10
8380.0
 20
900.0
 30
0.0
 40
80.0
  1
потайная дверь
 50
90.0
  7
PLAN-ITALIC
 72
1
 11
8380.0
 21
900.0
 31
0.0
100
AcDbText
 73
2
  0
DIMENSION
  5
1AE
330
17
100
AcDbEntity
  8
A-DIMS
100
AcDbDimension
280
0
  2
*D1
  3
PLAN-1-50
 10
1200.0
 20
13900.0
 30
0.0
 11
3000.0
 21
14002.5
 31
0.0
 70
32
 71
5
  1
<>
100
AcDbAlignedDimension
 13
1200.0
 23
13900.0
 33
0.0
 14
4800.0
 24
13900.0
 34
0.0
 50
0.0
100
AcDbRotatedDimension
1001
ACAD
1000
DSTYLE
1002
{
1070
75
1070
1
1070
76
1070
1
1002
}
  0
DIMENSION
  5
1BF
330
17
100
AcDbEntity
  8
A-DIMS
100
AcDbDimension
280
0
  2
*D2
  3
PLAN-1-50
 10
4100.0
 20
14150.0
 30
0.0
 11
4202.5
 21
13150.0
 31
0.0
 70
32
 71
5
  1
<>
100
AcDbAlignedDimension
 13
4100.0
 23
14150.0
 33
0.0
 14
4100.0
 24
12150.0
 34
0.0
 50
90.0
100
AcDbRotatedDimension
1001
ACAD
1000
DSTYLE
1002
{
1070
75
1070
1
1070
76
1070
1
1002
}
  0
DIMENSION
  5
1CC
330
17
100
AcDbEntity
  8
A-DIMS
100
AcDbDimension
280
0
  2
*D3
  3
PLAN-1-50
 10
6380.0
 20
13775.0
 30
0.0
 11
8865.0
 21
13877.5
 31
0.0
 70
32
 71
5
  1
<>
100
AcDbAlignedDimension
 13
6380.0
 23
13775.0
 33
0.0
 14
11350.0
 24
13775.0
 34
0.0
 50
0.0
100
AcDbRotatedDimension
1001
ACAD
1000
DSTYLE
1002
{
1070
75
1070
1
1070
76
1070
1
1002
}
  0
DIMENSION
  5
1D9
330
17
100
AcDbEntity
  8
A-DIMS
100
AcDbDimension
280
0
  2
*D4
  3
PLAN-1-50
 10
10500.0
 20
14150.0
 30
0.0
 11
10397.5
 21
11900.0
 31
0.0
 70
160
 71
5
  1
<>
100
AcDbAlignedDimension
 13
10500.0
 23
14150.0
 33
0.0
 14
10500.0
 24
11150.0
 34
0.0
 50
90.0
100
AcDbRotatedDimension
1001
ACAD
1000
DSTYLE
1002
{
1070
75
1070
1
1070
76
1070
1
1070
279
1070
2
1002
}
  0
DIMENSION
  5
1E6
330
17
100
AcDbEntity
  8
A-DIMS
100
AcDbDimension
280
0
  2
*D5
  3
PLAN-1-50
 10
3400.0
 20
11950.0
 30
0.0
 11
3502.5
 21
10725.0
 31
0.0
 70
32
 71
5
  1
<>
100
AcDbAlignedDimension
 13
3400.0
 23
11950.0
 33
0.0
 14
3400.0
 24
9500.0
 34
0.0
 50
90.0
100
AcDbRotatedDimension
1001
ACAD
1000
DSTYLE
1002
{
1070
75
1070
1
1070
76
1070
1
1002
}
  0
DIMENSION
  5
1F3
330
17
100
AcDbEntity
  8
A-DIMS
100
AcDbDimension
280
0
  2
*D6
  3
PLAN-1-50
 10
3235.0
 20
9770.0
 30
0.0
 11
4067.5
 21
9872.5
 31
0.0
 70
32
 71
5
  1
<>
100
AcDbAlignedDimension
 13
3235.0
 23
9770.0
 33
0.0
 14
4900.0
 24
9770.0
 34
0.0
 50
0.0
100
AcDbRotatedDimension
1001
ACAD
1000
DSTYLE
1002
{
1070
75
1070
1
1070
76
1070
1
1002
}
  0
DIMENSION
  5
200
330
17
100
AcDbEntity
  8
A-DIMS
100
AcDbDimension
280
0
  2
*D7
  3
PLAN-1-50
 10
5100.0
 20
10650.0
 30
0.0
 11
6025.0
 21
10752.5
 31
0.0
 70
32
 71
5
  1
<>
100
AcDbAlignedDimension
 13
5100.0
 23
10650.0
 33
0.0
 14
6950.0
 24
10650.0
 34
0.0
 50
0.0
100
AcDbRotatedDimension
1001
ACAD
1000
DSTYLE
1002
{
1070
75
1070
1
1070
76
1070
1
1002
}
  0
DIMENSION
  5
20D
330
17
100
AcDbEntity
  8
A-DIMS
100
AcDbDimension
280
0
  2
*D8
  3
PLAN-1-50
 10
5100.0
 20
7250.0
 30
0.0
 11
6550.0
 21
7352.5
 31
0.0
 70
32
 71
5
  1
<>
100
AcDbAlignedDimension
 13
5100.0
 23
7250.0
 33
0.0
 14
8000.0
 24
7250.0
 34
0.0
 50
0.0
100
AcDbRotatedDimension
1001
ACAD
1000
DSTYLE
1002
{
1070
75
1070
1
1070
76
1070
1
1002
}
  0
DIMENSION
  5
21A
330
17
100
AcDbEntity
  8
A-DIMS
100
AcDbDimension
280
0
  2
*D9
  3
PLAN-1-50
 10
7150.0
 20
10250.0
 30
0.0
 11
7800.0
 21
10352.5
 31
0.0
 70
160
 71
5
  1
<>
100
AcDbAlignedDimension
 13
7150.0
 23
10250.0
 33
0.0
 14
10600.0
 24
10250.0
 34
0.0
 50
0.0
100
AcDbRotatedDimension
1001
ACAD
1000
DSTYLE
1002
{
1070
75
1070
1
1070
76
1070
1
1070
279
1070
2
1002
}
  0
DIMENSION
  5
227
330
17
100
AcDbEntity
  8
A-DIMS
100
AcDbDimension
280
0
  2
*D10
  3
PLAN-1-50
 10
8300.0
 20
10950.0
 30
0.0
 11
8197.5
 21
9600.0
 31
0.0
 70
160
 71
5
  1
<>
100
AcDbAlignedDimension
 13
8300.0
 23
10950.0
 33
0.0
 14
8300.0
 24
9250.0
 34
0.0
 50
90.0
100
AcDbRotatedDimension
1001
ACAD
1000
DSTYLE
1002
{
1070
75
1070
1
1070
76
1070
1
1070
279
1070
2
1002
}
  0
DIMENSION
  5
234
330
17
100
AcDbEntity
  8
A-DIMS
100
AcDbDimension
280
0
  2
*D11
  3
PLAN-1-50
 10
8200.0
 20
8900.0
 30
0.0
 11
8650.0
 21
9002.5
 31
0.0
 70
160
 71
5
  1
<>
100
AcDbAlignedDimension
 13
8200.0
 23
8900.0
 33
0.0
 14
9700.0
 24
8900.0
 34
0.0
 50
0.0
100
AcDbRotatedDimension
1001
ACAD
1000
DSTYLE
1002
{
1070
75
1070
1
1070
76
1070
1
1070
279
1070
2
1002
}
  0
DIMENSION
  5
241
330
17
100
AcDbEntity
  8
A-DIMS
100
AcDbDimension
280
0
  2
*D12
  3
PLAN-1-50
 10
9550.0
 20
9050.0
 30
0.0
 11
9447.5
 21
8170.0
 31
0.0
 70
160
 71
5
  1
<>
100
AcDbAlignedDimension
 13
9550.0
 23
9050.0
 33
0.0
 14
9550.0
 24
7900.0
 34
0.0
 50
90.0
100
AcDbRotatedDimension
1001
ACAD
1000
DSTYLE
1002
{
1070
75
1070
1
1070
76
1070
1
1070
279
1070
2
1002
}
  0
DIMENSION
  5
24E
330
17
100
AcDbEntity
  8
A-DIMS
100
AcDbDimension
280
0
  2
*D13
  3
PLAN-1-50
 10
9800.0
 20
8500.0
 30
0.0
 11
10500.0
 21
8602.5
 31
0.0
 70
160
 71
5
  1
<>
100
AcDbAlignedDimension
 13
9800.0
 23
8500.0
 33
0.0
 14
11350.0
 24
8500.0
 34
0.0
 50
0.0
100
AcDbRotatedDimension
1001
ACAD
1000
DSTYLE
1002
{
1070
75
1070
1
1070
76
1070
1
1070
279
1070
2
1002
}
  0
DIMENSION
  5
25B
330
17
100
AcDbEntity
  8
A-DIMS
100
AcDbDimension
280
0
  2
*D14
  3
PLAN-1-50
 10
8200.0
 20
2400.0
 30
0.0
 11
9775.0
 21
2502.5
 31
0.0
 70
32
 71
5
  1
<>
100
AcDbAlignedDimension
 13
8200.0
 23
2400.0
 33
0.0
 14
11350.0
 24
2400.0
 34
0.0
 50
0.0
100
AcDbRotatedDimension
1001
ACAD
1000
DSTYLE
1002
{
1070
75
1070
1
1070
76
1070
1
1002
}
  0
DIMENSION
  5
268
330
17
100
AcDbEntity
  8
A-DIMS
100
AcDbDimension
280
0
  2
*D15
  3
PLAN-1-50
 10
8700.0
 20
7800.0
 30
0.0
 11
8597.5
 21
5750.0
 31
0.0
 70
160
 71
5
  1
<>
100
AcDbAlignedDimension
 13
8700.0
 23
7800.0
 33
0.0
 14
8700.0
 24
2000.0
 34
0.0
 50
90.0
100
AcDbRotatedDimension
1001
ACAD
1000
DSTYLE
1002
{
1070
75
1070
1
1070
76
1070
1
1070
279
1070
2
1002
}
  0
DIMENSION
  5
275
330
17
100
AcDbEntity
  8
A-DIMS
100
AcDbDimension
280
0
  2
*D16
  3
PLAN-1-50
 10
5100.0
 20
3850.0
 30
0.0
 11
6550.0
 21
3952.5
 31
0.0
 70
32
 71
5
  1
<>
100
AcDbAlignedDimension
 13
5100.0
 23
3850.0
 33
0.0
 14
8000.0
 24
3850.0
 34
0.0
 50
0.0
100
AcDbRotatedDimension
1001
ACAD
1000
DSTYLE
1002
{
1070
75
1070
1
1070
76
1070
1
1002
}
  0
DIMENSION
  5
282
330
17
100
AcDbEntity
  8
A-DIMS
100
AcDbDimension
280
0
  2
*D17
  3
PLAN-1-50
 10
7850.0
 20
4750.0
 30
0.0
 11
7747.5
 21
3250.0
 31
0.0
 70
160
 71
5
  1
<>
100
AcDbAlignedDimension
 13
7850.0
 23
4750.0
 33
0.0
 14
7850.0
 24
150.0
 34
0.0
 50
90.0
100
AcDbRotatedDimension
1001
ACAD
1000
DSTYLE
1002
{
1070
75
1070
1
1070
76
1070
1
1070
279
1070
2
1002
}
  0
DIMENSION
  5
28F
330
17
100
AcDbEntity
  8
A-DIMS
100
AcDbDimension
280
0
  2
*D18
  3
PLAN-1-50
 10
9650.0
 20
1800.0
 30
0.0
 11
9752.5
 21
975.0
 31
0.0
 70
32
 71
5
  1
<>
100
AcDbAlignedDimension
 13
9650.0
 23
1800.0
 33
0.0
 14
9650.0
 24
150.0
 34
0.0
 50
90.0
100
AcDbRotatedDimension
1001
ACAD
1000
DSTYLE
1002
{
1070
75
1070
1
1070
76
1070
1
1002
}
  0
ENDSEC
  0
SECTION
  2
OBJECTS
  0
DICTIONARY
  5
A
330
0
100
AcDbDictionary
281
1
  3
ACAD_COLOR
350
B
  3
ACAD_GROUP
350
C
  3
ACAD_LAYOUT
350
D
  3
ACAD_MATERIAL
350
E
  3
ACAD_MLEADERSTYLE
350
F
  3
ACAD_MLINESTYLE
350
10
  3
ACAD_PLOTSETTINGS
350
11
  3
ACAD_PLOTSTYLENAME
350
12
  3
ACAD_SCALELIST
350
14
  3
ACAD_TABLESTYLE
350
15
  3
ACAD_VISUALSTYLE
350
16
  3
EZDXF_META
350
2D
  0
DICTIONARY
  5
B
330
A
100
AcDbDictionary
281
1
  0
DICTIONARY
  5
C
330
A
100
AcDbDictionary
281
1
  0
DICTIONARY
  5
D
330
A
100
AcDbDictionary
281
1
  3
Model
350
1A
  3
Layout1
350
1E
  3
A3 1-50
350
29F
  0
DICTIONARY
  5
E
330
A
100
AcDbDictionary
281
1
  3
ByBlock
350
1F
  3
ByLayer
350
20
  3
Global
350
21
  0
DICTIONARY
  5
F
330
A
100
AcDbDictionary
281
1
  3
Standard
350
2C
  0
DICTIONARY
  5
10
330
A
100
AcDbDictionary
281
1
  3
Standard
350
22
  0
DICTIONARY
  5
11
330
A
100
AcDbDictionary
281
1
  0
ACDBDICTIONARYWDFLT
  5
12
330
A
100
AcDbDictionary
281
1
  3
Normal
350
13
100
AcDbDictionaryWithDefault
340
13
  0
ACDBPLACEHOLDER
  5
13
330
12
  0
DICTIONARY
  5
14
330
A
100
AcDbDictionary
281
1
  0
DICTIONARY
  5
15
330
A
100
AcDbDictionary
281
1
  0
DICTIONARY
  5
16
330
A
100
AcDbDictionary
281
1
  3
2dWireframe
350
5A
  3
Basic
350
5B
  3
Brighten
350
5C
  3
ColorChange
350
5D
  3
Conceptual
350
5E
  3
Dim
350
5F
  3
EdgeColorOff
350
60
  3
Facepattern
350
61
  3
Flat
350
62
  3
FlatWithEdges
350
63
  3
Gouraud
350
64
  3
GouraudWithEdges
350
65
  3
Hidden
350
66
  3
JitterOff
350
67
  3
Linepattern
350
68
  3
Modeling
350
69
  3
OverhangOff
350
6A
  3
Realistic
350
6B
  3
Shaded
350
6C
  3
Shaded with edges
350
6D
  3
Shades of Gray
350
6E
  3
Sketchy
350
6F
  3
Thicken
350
70
  3
Wireframe
350
71
  3
X-Ray
350
72
  0
LAYOUT
  5
1A
330
D
100
AcDbPlotSettings
  1

  4
A3
  6

 40
7.5
 41
20.0
 42
7.5
 43
20.0
 44
420.0
 45
297.0
 46
0.0
 47
0.0
 48
0.0
 49
0.0
140
0.0
141
0.0
142
1.0
143
1.0
 70
1024
 72
1
 73
0
 74
5
  7

 75
16
 76
0
 77
2
 78
300
147
1.0
148
0.0
149
0.0
100
AcDbLayout
  1
Model
 70
1
 71
0
 10
0.0
 20
0.0
 11
420.0
 21
297.0
 12
0.0
 22
0.0
 32
0.0
 14
1e+20
 24
1e+20
 34
1e+20
 15
-1e+20
 25
-1e+20
 35
-1e+20
146
0.0
 13
0.0
 23
0.0
 33
0.0
 16
1.0
 26
0.0
 36
0.0
 17
0.0
 27
1.0
 37
0.0
 76
1
330
17
  0
LAYOUT
  5
1E
330
D
100
AcDbPlotSettings
  1

  4
A3
  6

 40
7.5
 41
20.0
 42
7.5
 43
20.0
 44
420.0
 45
297.0
 46
0.0
 47
0.0
 48
0.0
 49
0.0
140
0.0
141
0.0
142
1.0
143
1.0
 70
0
 72
1
 73
0
 74
5
  7

 75
16
 76
0
 77
2
 78
300
147
1.0
148
0.0
149
0.0
100
AcDbLayout
  1
Layout1
 70
1
 71
1
 10
0.0
 20
0.0
 11
420.0
 21
297.0
 12
0.0
 22
0.0
 32
0.0
 14
1e+20
 24
1e+20
 34
1e+20
 15
-1e+20
 25
-1e+20
 35
-1e+20
146
0.0
 13
0.0
 23
0.0
 33
0.0
 16
1.0
 26
0.0
 36
0.0
 17
0.0
 27
1.0
 37
0.0
 76
1
330
1B
  0
MATERIAL
  5
1F
102
{ACAD_REACTORS
330
E
102
}
330
E
100
AcDbMaterial
  1
ByBlock
  2

 70
0
 40
1.0
 71
1
 41
1.0
 91
-1023410177
 42
1.0
 72
1
  3

 73
1
 74
1
 75
1
 44
0.5
 73
0
 45
1.0
 46
1.0
 77
1
  4

 78
1
 79
1
170
1
 48
1.0
171
1
  6

172
1
173
1
174
1
140
1.0
141
1.0
175
1
  7

176
1
177
1
178
1
143
1.0
179
1
  8

270
1
271
1
272
1
145
1.0
146
1.0
273
1
  9

274
1
275
1
276
1
 42
1.0
 72
1
  3

 73
1
 74
1
 75
1
 94
63
  0
MATERIAL
  5
20
102
{ACAD_REACTORS
330
E
102
}
330
E
100
AcDbMaterial
  1
ByLayer
  2

 70
0
 40
1.0
 71
1
 41
1.0
 91
-1023410177
 42
1.0
 72
1
  3

 73
1
 74
1
 75
1
 44
0.5
 73
0
 45
1.0
 46
1.0
 77
1
  4

 78
1
 79
1
170
1
 48
1.0
171
1
  6

172
1
173
1
174
1
140
1.0
141
1.0
175
1
  7

176
1
177
1
178
1
143
1.0
179
1
  8

270
1
271
1
272
1
145
1.0
146
1.0
273
1
  9

274
1
275
1
276
1
 42
1.0
 72
1
  3

 73
1
 74
1
 75
1
 94
63
  0
MATERIAL
  5
21
102
{ACAD_REACTORS
330
E
102
}
330
E
100
AcDbMaterial
  1
Global
  2

 70
0
 40
1.0
 71
1
 41
1.0
 91
-1023410177
 42
1.0
 72
1
  3

 73
1
 74
1
 75
1
 44
0.5
 73
0
 45
1.0
 46
1.0
 77
1
  4

 78
1
 79
1
170
1
 48
1.0
171
1
  6

172
1
173
1
174
1
140
1.0
141
1.0
175
1
  7

176
1
177
1
178
1
143
1.0
179
1
  8

270
1
271
1
272
1
145
1.0
146
1.0
273
1
  9

274
1
275
1
276
1
 42
1.0
 72
1
  3

 73
1
 74
1
 75
1
 94
63
  0
MLINESTYLE
  5
22
102
{ACAD_REACTORS
330
10
102
}
330
10
100
AcDbMlineStyle
  2
Standard
 70
0
  3

 62
256
 51
90.0
 52
90.0
 71
2
 49
0.5
 62
256
  6
BYLAYER
 49
-0.5
 62
256
  6
BYLAYER
  0
MLEADERSTYLE
  5
2C
102
{ACAD_REACTORS
330
F
102
}
330
F
100
AcDbMLeaderStyle
179
2
170
2
171
1
172
0
 90
2
 40
0.0
 41
0.0
173
1
 91
-1056964608
 92
-2
290
1
 42
2.0
291
1
 43
8.0
  3
Standard
 44
4.0
300

342
29
174
1
175
1
176
0
178
1
 93
-1056964608
 45
4.0
292
0
297
0
 46
4.0
 94
-1056964608
 47
1.0
 49
1.0
140
1.0
294
1
141
0.0
177
0
142
1.0
295
0
296
0
143
3.75
271
0
272
9
273
9
  0
DICTIONARY
  5
2D
330
A
100
AcDbDictionary
280
1
281
1
  3
CREATED_BY_EZDXF
350
2E
  3
WRITTEN_BY_EZDXF
350
338
  0
DICTIONARYVAR
  5
2E
330
2D
100
DictionaryVariables
280
0
  1
1.4.4 @ 2026-09-27T11:58:47.692279+00:00
  0
VISUALSTYLE
  5
5A
102
{ACAD_REACTORS
330
16
102
}
330
16
100
AcDbVisualStyle
  2
2dWireframe
 70
4
 90
0
 40
0.6
 62
7
290
0
291
0
  0
VISUALSTYLE
  5
5B
102
{ACAD_REACTORS
330
16
102
}
330
16
100
AcDbVisualStyle
  2
Basic
 70
7
 90
1
 40
0.6
 62
7
290
0
291
1
  0
VISUALSTYLE
  5
5C
102
{ACAD_REACTORS
330
16
102
}
330
16
100
AcDbVisualStyle
  2
Brighten
 70
12
 90
2
 40
0.6
 62
7
290
0
291
1
  0
VISUALSTYLE
  5
5D
102
{ACAD_REACTORS
330
16
102
}
330
16
100
AcDbVisualStyle
  2
ColorChange
 70
16
 90
2
 40
0.6
 62
8
290
0
291
1
  0
VISUALSTYLE
  5
5E
102
{ACAD_REACTORS
330
16
102
}
330
16
100
AcDbVisualStyle
  2
Conceptual
 70
9
 90
3
 40
0.6
 62
7
290
0
291
0
  0
VISUALSTYLE
  5
5F
102
{ACAD_REACTORS
330
16
102
}
330
16
100
AcDbVisualStyle
  2
Dim
 70
11
 90
2
 40
0.6
 62
7
290
0
291
1
  0
VISUALSTYLE
  5
60
102
{ACAD_REACTORS
330
16
102
}
330
16
100
AcDbVisualStyle
  2
EdgeColorOff
 70
22
 90
2
 40
0.6
 62
7
290
0
291
1
  0
VISUALSTYLE
  5
61
102
{ACAD_REACTORS
330
16
102
}
330
16
100
AcDbVisualStyle
  2
Facepattern
 70
15
 90
2
 40
0.6
 62
7
290
0
291
1
  0
VISUALSTYLE
  5
62
102
{ACAD_REACTORS
330
16
102
}
330
16
100
AcDbVisualStyle
  2
Flat
 70
0
 90
2
 40
0.6
 62
7
290
0
291
1
  0
VISUALSTYLE
  5
63
102
{ACAD_REACTORS
330
16
102
}
330
16
100
AcDbVisualStyle
  2
FlatWithEdges
 70
1
 90
2
 40
0.6
 62
7
290
0
291
1
  0
VISUALSTYLE
  5
64
102
{ACAD_REACTORS
330
16
102
}
330
16
100
AcDbVisualStyle
  2
Gouraud
 70
2
 90
2
 40
0.6
 62
7
290
0
291
1
  0
VISUALSTYLE
  5
65
102
{ACAD_REACTORS
330
16
102
}
330
16
100
AcDbVisualStyle
  2
GouraudWithEdges
 70
3
 90
2
 40
0.6
 62
7
290
0
291
1
  0
VISUALSTYLE
  5
66
102
{ACAD_REACTORS
330
16
102
}
330
16
100
AcDbVisualStyle
  2
Hidden
 70
6
 90
1
 40
0.6
 62
7
290
0
291
0
  0
VISUALSTYLE
  5
67
102
{ACAD_REACTORS
330
16
102
}
330
16
100
AcDbVisualStyle
  2
JitterOff
 70
20
 90
2
 40
0.6
 62
7
290
0
291
1
  0
VISUALSTYLE
  5
68
102
{ACAD_REACTORS
330
16
102
}
330
16
100
AcDbVisualStyle
  2
Linepattern
 70
14
 90
2
 40
0.6
 62
7
290
0
291
1
  0
VISUALSTYLE
  5
69
102
{ACAD_REACTORS
330
16
102
}
330
16
100
AcDbVisualStyle
  2
Modeling
 70
10
 90
2
 40
0.6
 62
7
290
0
291
0
  0
VISUALSTYLE
  5
6A
102
{ACAD_REACTORS
330
16
102
}
330
16
100
AcDbVisualStyle
  2
OverhangOff
 70
21
 90
2
 40
0.6
 62
7
290
0
291
1
  0
VISUALSTYLE
  5
6B
102
{ACAD_REACTORS
330
16
102
}
330
16
100
AcDbVisualStyle
  2
Realistic
 70
8
 90
2
 40
0.6
 62
7
290
0
291
0
  0
VISUALSTYLE
  5
6C
102
{ACAD_REACTORS
330
16
102
}
330
16
100
AcDbVisualStyle
  2
Shaded
 70
27
 90
2
 40
0.6
 62
7
290
0
291
0
  0
VISUALSTYLE
  5
6D
102
{ACAD_REACTORS
330
16
102
}
330
16
100
AcDbVisualStyle
  2
Shaded with edges
 70
26
 90
2
 40
0.6
 62
7
290
0
291
0
  0
VISUALSTYLE
  5
6E
102
{ACAD_REACTORS
330
16
102
}
330
16
100
AcDbVisualStyle
  2
Shades of Gray
 70
23
 90
2
 40
0.6
 62
7
290
0
291
0
  0
VISUALSTYLE
  5
6F
102
{ACAD_REACTORS
330
16
102
}
330
16
100
AcDbVisualStyle
  2
Sketchy
 70
24
 90
1
 40
0.6
 62
7
290
0
291
0
  0
VISUALSTYLE
  5
70
102
{ACAD_REACTORS
330
16
102
}
330
16
100
AcDbVisualStyle
  2
Thicken
 70
13
 90
2
 40
0.6
 62
7
290
0
291
1
  0
VISUALSTYLE
  5
71
102
{ACAD_REACTORS
330
16
102
}
330
16
100
AcDbVisualStyle
  2
Wireframe
 70
5
 90
0
 40
0.6
 62
7
290
0
291
0
  0
VISUALSTYLE
  5
72
102
{ACAD_REACTORS
330
16
102
}
330
16
100
AcDbVisualStyle
  2
X-Ray
 70
25
 90
2
 40
0.5
 62
7
290
0
291
0
  0
LAYOUT
  5
29F
330
D
100
AcDbPlotSettings
  1

  2
DWG to PDF.pc3
  4
ezdxf_(297.00_x_420.00_MM)
  6

 40
0.0
 41
0.0
 42
0.0
 43
0.0
 44
297.0
 45
420.0
 46
0.0
 47
0.0
 48
0.0
 49
0.0
140
0.0
141
0.0
142
0.0078125
143
12.0
 70
672
 72
1
 73
0
 74
5
  7

 75
1
 76
0
 77
2
 78
300
147
1.0
148
0.0
149
0.0
100
AcDbLayout
  1
A3 1-50
 70
1
 71
3
 10
-0.0
 20
-0.0
 11
297.0
 21
420.0
 12
0.0
 22
0.0
 32
0.0
 14
1e+20
 24
1e+20
 34
1e+20
 15
-1e+20
 25
-1e+20
 35
-1e+20
146
0.0
 13
0.0
 23
0.0
 33
0.0
 16
1.0
 26
0.0
 36
0.0
 17
0.0
 27
1.0
 37
0.0
 76
1
330
29C
331
2A0
  0
DICTIONARYVAR
  5
338
330
2D
100
DictionaryVariables
280
0
  1
1.4.4 @ 2026-09-27T11:58:47.729443+00:00
  0
ENDSEC
  0
EOF
